<?xml version="1.0" standalone="no"?>
<!DOCTYPE svg PUBLIC "-//W3C//DTD SVG 1.1//EN" "http://www.w3.org/Graphics/SVG/1.1/DTD/svg11.dtd" >
<svg xmlns="http://www.w3.org/2000/svg">
<metadata>
Created by FontPrep 20130207 at Sat Nov  8 22:29:45 2014
 By Devin Schulz
Copyright (c) 1989, 1991 Adobe Systems Incorporated.  All Rights Reserved. Utopia is either a registered trademark or trademark of Adobe Systems Incorporated in the United States and/or other countries. Used under license. The Utopia fonts are freely available; see http://tug.org/fonts/utopia.

Copyright (c) 2008-2012 Andrey V. Panov (panov@canopus.iacp.dvo.ru).

</metadata>
<defs>
<font id="c1c42cfaf7d24c9e8d545ed523d96541" horiz-adv-x='1024' >
  <font-face 
    font-family="Heuristica-Italic"
    font-weight="400"
    font-style="italic"
    font-stretch="normal"
    units-per-em="2048"
    panose-1="2 2 6 3 5 7 5 9 2 4"
    ascent="1536"
    descent="-512"
    x-height="1004"
    cap-height="1417"
    bbox="-1024 -668 2468 2273"
    underline-thickness="102"
    underline-position="-205"
    slope="-13"
    unicode-range="U+0020-FB04"
  />
<missing-glyph horiz-adv-x="1245" 
d="M836 709l301 -519v1039zM477 1329l309 -532l308 532h-617zM477 88h619l-310 535zM436 190l301 519l-301 520v-1039zM348 0v1417h877v-1417h-877z" />
    <glyph glyph-name="igrave" unicode="i&#x300;" horiz-adv-x="649" 
d="M266 1393q0 29 28 58.5t52 29.5q49 0 131 -84l244 -246l-31 -41l-309 172q-115 62 -115 111zM451 82q39 0 92 71.5t92 145.5l49 -29q-57 -129 -142 -212q-86 -83 -178 -83q-173 0 -118 201l172 641q14 53 6 72.5t-49 21.5l-117 11l12 49l373 57l10 -10l-223 -823
q-31 -113 21 -113z" />
    <glyph glyph-name="iacute" unicode="&#x456;&#x301;" horiz-adv-x="649" 
d="M770 1481q25 0 52.5 -30t27.5 -58q0 -49 -115 -111l-309 -172l-31 41l244 246q82 84 131 84zM451 82q39 0 92 71.5t92 145.5l49 -29q-57 -129 -142 -212q-86 -83 -178 -83q-173 0 -118 201l172 641q14 53 6 72.5t-49 21.5l-117 11l12 49l373 57l10 -10l-223 -823
q-31 -113 21 -113z" />
    <glyph glyph-name="icircumflex" unicode="i&#x302;" horiz-adv-x="649" 
d="M451 82q39 0 92 71.5t92 145.5l49 -29q-57 -129 -142 -212q-86 -83 -178 -83q-173 0 -118 201l172 641q14 53 6 72.5t-49 21.5l-117 11l12 49l373 57l10 -10l-223 -823q-31 -113 21 -113zM577 1303q-19 0 -65 -31l-236 -154l-28 43l282 264q57 49 82 49.5t62 -49.5
l182 -264l-47 -43l-174 154q-39 31 -58 31z" />
    <glyph glyph-name="idieresis" unicode="i&#x308;" horiz-adv-x="649" 
d="M242 1277q0 50 34.5 85t82.5 35t75 -30t27 -77t-33 -83t-83 -36t-76.5 28t-26.5 78zM668 1277q0 50 34.5 85t82.5 35t75 -30t27 -77t-33 -83t-83 -36t-76.5 28t-26.5 78zM451 82q39 0 92 71.5t92 145.5l49 -29q-57 -129 -142 -212q-86 -83 -178 -83q-173 0 -118 201
l172 641q14 53 6 72.5t-49 21.5l-117 11l12 49l373 57l10 -10l-223 -823q-31 -113 21 -113z" />
    <glyph glyph-name="Aogonek" unicode="A&#x328;" horiz-adv-x="1277" 
d="M539 625h407l-72 602h-4zM977 -281q0 -96 108 -96q59 0 109 25l16 -43q-78 -76 -190 -76q-76 0 -122 32.5t-56.5 64.5t-10.5 63q0 88 65 169t163 142h-228l13 59l108 11q33 4 44.5 20t7.5 60l-48 397h-458l-211 -402q-31 -70 26 -75l113 -11l-12 -59h-461l12 59l68 9
q87 7 143 101q26 44 371 644l344 604h145l152 -1233q8 -68 22.5 -91t59.5 -27l78 -7l-13 -59h-190q-168 -133 -168 -281z" />
    <glyph glyph-name="imacron" unicode="i&#x304;" horiz-adv-x="649" 
d="M451 82q39 0 92 71.5t92 145.5l49 -29q-57 -129 -142 -212q-86 -83 -178 -83q-173 0 -118 201l172 641q14 53 6 72.5t-49 21.5l-117 11l12 49l373 57l10 -10l-223 -823q-31 -113 21 -113zM301 1223l37 120h569l-37 -120h-569z" />
    <glyph glyph-name="ibreve" unicode="i&#x306;" horiz-adv-x="649" 
d="M451 82q39 0 92 71.5t92 145.5l49 -29q-57 -129 -142 -212q-86 -83 -178 -83q-173 0 -118 201l172 641q14 53 6 72.5t-49 21.5l-117 11l12 49l373 57l10 -10l-223 -823q-31 -113 21 -113zM348 1323q0 55 23 107h49q-14 -140 173 -140t263 140h53q-29 -125 -103.5 -196
t-242.5 -71q-215 0 -215 160z" />
    <glyph glyph-name="jcircumflex" unicode="j&#x302;" horiz-adv-x="632" 
d="M-35 -274q31 0 58 -41q74 -109 116 -109q33 0 47 64l250 1169q14 53 9 76.5t-39 25.5l-127 11l12 49l366 57l11 -10l-232 -1024q-63 -281 -145 -385t-219 -105q-80 0 -136.5 34t-57.5 79t27.5 77t59.5 32zM638 1303q-19 0 -65 -31l-235 -154l-29 43l283 264
q57 49 81.5 49.5t61.5 -49.5l183 -264l-48 -43l-174 154q-39 31 -58 31z" />
    <glyph glyph-name="uni01D0" unicode="i&#x30c;" horiz-adv-x="649" 
d="M451 82q39 0 92 71.5t92 145.5l49 -29q-57 -129 -142 -212q-86 -83 -178 -83q-173 0 -118 201l172 641q14 53 6 72.5t-49 21.5l-117 11l12 49l373 57l10 -10l-223 -823q-31 -113 21 -113zM569.5 1141q-24.5 0 -61.5 49l-182 264l47 43l174 -154q39 -31 57.5 -30.5
t65.5 30.5l235 154l29 -43l-283 -264q-57 -49 -81.5 -49z" />
    <glyph glyph-name="uni01F0" unicode="j&#x30c;" horiz-adv-x="632" 
d="M-35 -274q31 0 58 -41q74 -109 116 -109q33 0 47 64l250 1169q14 53 9 76.5t-39 25.5l-127 11l12 49l366 57l11 -10l-232 -1024q-63 -281 -145 -385t-219 -105q-80 0 -136.5 34t-57.5 79t27.5 77t59.5 32zM606.5 1141q-24.5 0 -61.5 49l-183 264l48 43l174 -154
q39 -31 57 -30.5t66 30.5l235 154l29 -43l-283 -264q-57 -49 -81.5 -49z" />
    <glyph glyph-name="f_b" unicode="fb" horiz-adv-x="1798" 
d="M1073 223q0 -78 45 -127t136 -49t179 88q87 88 134 211q98 256 98 416t-111 160q-88 0 -191 -102t-181 -238q-109 -197 -109 -359zM-60 -274q30 0 60 -45q66 -100 109 -101q39 0 65 139l238 1207h-185l23 78h178l23 75q29 96 61 166q85 181 228 240q85 35 200 35
q154 0 238 -99l151 99l23 -19l-226 -895h4q115 203 254 313q138 109 256 109q223 -1 226 -258q0 -84 -33 -208t-109 -260t-208 -232q-131 -94 -299 -95q-88 0 -160 40t-99 104l-63 -119h-74l289 1255q-14 85 -66 139t-135 54q-113 0 -167 -89t-111 -302l-13 -53h265l-21 -78
h-256l-190 -863q-68 -307 -148 -433t-229 -126q-74 0 -129 35t-56 79t27 76q29 32 59 32z" />
    <glyph glyph-name="f_h" unicode="fh" horiz-adv-x="1882" 
d="M-60 -274q30 0 60 -45q66 -100 109 -101q39 0 65 139l238 1207h-185l23 78h178l23 75q131 440 489 441q154 0 238 -99l151 99l29 -19l-228 -930h7q102 195 253 326q152 131 280 131t162 -88t-9 -209l-162 -536q-35 -113 20 -113q39 0 93 72q53 72 92 145l49 -29
q-57 -129 -141 -212t-185 -83q-170 0 -106 222l168 581q18 64 1 104t-67 40q-82 0 -178 -87t-163 -191q-66 -104 -110 -216t-128 -428l-179 -25l287 1280q-14 85 -65 139t-147 54t-156 -94q-62 -94 -113 -297l-15 -53h265l-21 -78h-256l-190 -863q-68 -307 -148 -433
t-229 -126q-74 0 -129 35t-56 79t27 76q29 32 59 32z" />
    <glyph glyph-name="f_j" unicode="fj" horiz-adv-x="1208" 
d="M-60 -274q30 0 60 -45q66 -100 109 -101q39 0 65 139l238 1207h-183l23 78h178l23 75q29 98 63 170q87 179 232 237q84 34 215 34t219 -67t88 -144q0 -47 -35 -75t-80 -28t-59 49q-51 193 -183 193q-105 0 -167 -94t-113 -297l-12 -53h219q150 0 395 24l8 -10l-227 -1006
q-59 -266 -141 -370t-216 -103q-72 0 -128 35t-56 78q0 42 27 70q28 28 60 28t54 -41q55 -98 107 -98q37 0 49 65l244 1153q14 53 2 75t-74 22h-338l-190 -863q-68 -307 -148 -433t-229 -126q-74 0 -129 35t-56 79t27 76q29 32 59 32z" />
    <glyph glyph-name="f_k" unicode="fk" horiz-adv-x="1746" 
d="M1769 817q-35 0 -81 28t-82 27q-82 0 -291 -239q57 -207 153 -400q39 -81 64 -113t51 -32q70 0 164 203l51 -27q-102 -289 -282 -289q-72 1 -121 47t-97 148q-94 207 -145 377q154 186 317 330q180 151 286 151t108 -100q0 -41 -30 -76t-65 -35zM-60 -274q30 0 60 -45
q66 -100 109 -101q39 0 65 139l238 1207h-185l23 78h178l23 75q129 440 493 441q156 0 240 -99l151 99l29 -21l-356 -1499l-189 -25l303 1276q-14 85 -67 141t-147 56t-159 -99t-116 -292l-15 -53h265l-21 -78h-256l-190 -863q-68 -307 -148 -433t-229 -126q-74 0 -129 35
t-56 79t27 76q29 32 59 32z" />
    <glyph glyph-name="longs_b" unicode="&#x17f;b" horiz-adv-x="1792" 
d="M1067 223q0 -78 45 -127t136 -49t178 88t135 211q98 256 98 416t-111 160q-88 0 -191 -102t-181 -238q-109 -197 -109 -359zM-147 -382q0 44 28 76q29 32 59 32t80 -73t90 -73q38 0 48 62l254 1284h-183l23 78h178l21 75q51 189 170 315t313 126q147 0 231 -99l152 99
l29 -19l-226 -895h4q115 203 254 313q139 109 256 109t171 -70q55 -70 55 -171q1 -232 -136 -472q-84 -151 -215 -245t-299 -95q-88 0 -160 40t-98 104l-63 -119h-74l291 1264q-45 184 -195 184q-193 0 -278 -391l-217 -994q-68 -307 -148 -433t-229 -126q-74 0 -130 35
t-56 79z" />
    <glyph glyph-name="longs_h" unicode="&#x17f;h" horiz-adv-x="1869" 
d="M-147 -382q0 44 28 76q29 32 59 32t80 -73t90 -73q38 0 48 62l254 1284h-183l23 78h178l21 75q51 189 170 315t313 126q147 0 231 -99l152 99l29 -19l-228 -930h6q102 195 253 326t280 131t163 -88t-10 -209l-161 -536q-35 -113 20 -113q39 0 92 72t92 145l50 -29
q-57 -129 -141 -212t-185 -83q-170 0 -107 222l168 581q18 64 1 104t-66 40q-82 0 -178 -87q-179 -162 -265 -384q-53 -135 -137 -451l-178 -25l287 1289q-39 184 -191 184q-193 0 -278 -391l-217 -994q-68 -307 -148 -433t-229 -126q-74 0 -130 35t-56 79z" />
    <glyph glyph-name="longs_i" unicode="&#x17f;i" horiz-adv-x="1224" 
d="M1026 82q39 0 92 72t92 145l50 -29q-56 -129 -142 -212t-178 -83q-174 0 -119 201l172 641q14 53 6 73t-49 21l-116 11l12 49l373 57l10 -10l-223 -823q-31 -113 20 -113zM-147 -382q0 44 28 76q29 32 59 32t80 -73t90 -73q38 0 48 62l254 1284h-183l23 78h178l21 75
q117 440 485 441q160 0 243 -66t83 -145q0 -51 -34 -77t-82 -26t-59 49q-20 93 -68 143t-110 50q-105 0 -167 -96t-107 -295l-219 -994q-68 -307 -148 -433t-229 -126q-74 0 -130 35t-56 79z" />
    <glyph glyph-name="longs_k" unicode="&#x17f;k" horiz-adv-x="1732" 
d="M1849 928q1 -41 -29 -76t-65 -35t-81 28t-83 27q-82 0 -291 -239q59 -207 154 -400q39 -81 64 -113t51 -32q70 0 164 203l51 -27q-102 -289 -283 -289q-72 1 -121 47t-96 148q-94 207 -145 377q154 186 317 330q180 151 286 151t107 -100zM-147 -382q0 44 28 76
q29 32 59 32t80 -73t90 -73q38 0 48 62l254 1284h-183l23 78h178l21 75q51 189 170 315t313 126q147 0 231 -99l152 99l33 -21l-357 -1499l-188 -25l303 1272q-18 85 -68 143t-129 58q-193 0 -278 -391l-217 -994q-68 -307 -148 -433t-229 -126q-74 0 -130 35t-56 79z" />
    <glyph glyph-name="longs_l" unicode="&#x17f;l" horiz-adv-x="1228" 
d="M-147 -382q0 44 28 76q29 32 59 32t80 -73t90 -73q38 0 48 62l254 1284h-183l23 78h178l21 75q51 189 169 315t312 126q145 0 229 -99l152 99l28 -19l-319 -1308q-27 -111 20 -111q35 0 93 70q57 70 96 147l49 -29q-53 -125 -142 -210t-192 -85q-156 0 -106 201l262 1073
q-12 87 -62 143t-131 56q-190 0 -276 -391l-217 -994q-68 -307 -148 -433t-229 -126q-74 0 -130 35t-56 79z" />
    <glyph glyph-name="longs_longs" unicode="&#x17f;&#x17f;" horiz-adv-x="1216" 
d="M-60 -274q30 0 60 -45q66 -100 109 -101q39 0 65 139l238 1207h-183l23 78h178l23 75q39 129 91 215t150 144t250 59q152 0 244 -104q111 127 272 127q92 0 162 -47t70 -113q0 -37 -34 -64q-34 -26 -71 -26t-51 35q-32 75 -62 109t-71 34q-82 0 -133 -213l-256 -1161
q-64 -293 -146 -414t-227 -121q-68 0 -125 33t-57 77q1 45 27 73t59 28t57 -45q49 -90 103 -90q43 0 65 121l234 1190h-179l23 78h174l20 75q20 76 50 148q-72 199 -191 198q-97 0 -159 -88t-107 -280l-219 -994q-68 -307 -148 -433t-229 -126q-74 0 -129 35t-56 79t27 76
q29 32 59 32z" />
    <glyph glyph-name="longs_longs_i" unicode="&#x17f;&#x17f;i" horiz-adv-x="1820" 
d="M1622 82q39 0 92 72t92 145l49 -29q-57 -129 -142 -212t-177 -83q-174 0 -119 201l172 641q14 53 6 73t-49 21l-116 11l12 49l373 57l10 -10l-223 -823q-31 -113 20 -113zM-60 -274q30 0 60 -45q66 -100 109 -101q39 0 65 139l238 1207h-183l23 78h178l23 75
q39 129 91 215t150 144t234 59q180 0 268 -117q123 139 336 140q160 0 243 -66t83 -145q0 -51 -34 -77t-82 -26t-59 49q-20 93 -68 143t-110 50q-105 0 -167 -96t-107 -295l-217 -983q-64 -293 -146 -414t-227 -121q-68 0 -125 33t-57 77q1 45 27 73t59 28t57 -45
q49 -90 103 -90q43 0 65 121l234 1190h-179l23 78h174l22 75q20 68 54 148q-39 104 -83 151t-114 47q-97 0 -159 -88t-107 -280l-219 -994q-68 -307 -148 -433t-229 -126q-74 0 -129 35t-56 79t27 76q29 32 59 32z" />
    <glyph glyph-name="longs_longs_l" unicode="&#x17f;&#x17f;l" horiz-adv-x="1820" 
d="M-60 -274q30 0 60 -45q66 -100 109 -101q39 0 65 139l238 1207h-183l23 78h178l23 75q39 129 91 215t150 144t234 59q180 0 268 -117q123 139 328 140q145 0 229 -99l152 99l28 -19l-319 -1308q-27 -111 20 -111q35 0 92 70t97 147l49 -29q-53 -125 -142 -210t-192 -85
q-156 0 -106 201l262 1073q-12 87 -62 143t-141 56t-153 -96t-107 -295l-217 -983q-64 -293 -146 -414t-227 -121q-68 0 -125 33t-57 77q1 45 27 73t59 28t57 -45q49 -90 103 -90q43 0 65 121l234 1190h-179l23 78h174l22 75q20 68 54 148q-39 104 -83 151t-114 47
q-97 0 -159 -88t-107 -280l-219 -994q-68 -307 -148 -433t-229 -126q-74 0 -129 35t-56 79t27 76q29 32 59 32z" />
    <glyph glyph-name="ff" unicode="ff" horiz-adv-x="1253" 
d="M909 1425q-101 0 -163 -86t-113 -282l-15 -53h420l21 75q20 76 49 148q-41 104 -86 151t-113 47zM-60 -274q30 0 60 -45q66 -100 109 -101q39 0 65 139l238 1207h-183l23 78h178l23 75q59 199 170 309t296 110t285 -105q111 127 275 127q93 0 163 -47t70 -113
q0 -37 -34 -64q-34 -26 -70 -26t-52 35q-36 75 -66 109t-71 34q-80 0 -133 -213l-59 -231h266l-20 -78h-259l-184 -852q-63 -293 -145 -414t-228 -121q-68 0 -125 33t-57 77q0 45 27 73q28 28 60 28t56 -45q49 -90 103 -90q43 0 65 121l234 1190h-414l-190 -863
q-68 -307 -148 -433t-229 -126q-74 0 -129 35t-56 79t27 76q29 32 59 32z" />
    <glyph glyph-name="fi" unicode="fi" horiz-adv-x="1243" 
d="M-60 -274q30 0 60 -45q66 -100 109 -101q39 0 65 139l238 1207h-183l23 78h178l23 75q61 207 171 324t320 117q156 0 243 -67t91 -144q2 -47 -34 -75t-81 -28t-59 49q-51 193 -186 193q-109 0 -170 -94t-113 -297l-14 -53h223q150 0 395 24l8 -10l-225 -823
q-31 -113 20 -113q39 0 93 72q53 72 92 145l49 -29q-57 -129 -142 -212q-86 -83 -178 -83q-173 0 -118 201l176 655q16 53 4 73t-74 22h-338l-190 -863q-68 -307 -148 -433t-229 -126q-74 0 -129 35t-56 79t27 76q29 32 59 32z" />
    <glyph glyph-name="fl" unicode="fl" horiz-adv-x="1234" 
d="M-60 -274q30 0 60 -45q66 -100 109 -101q39 0 65 139l238 1207h-185l23 78h178l23 75q131 440 489 441q154 0 238 -99l151 99l29 -19l-320 -1308q-27 -111 21 -111q35 0 92 70t96 147l49 -29q-53 -125 -142 -210t-191 -85q-156 0 -107 201l262 1073q-14 87 -64 143
t-146 56t-160 -95t-115 -296l-15 -53h265l-21 -78h-256l-190 -863q-68 -307 -148 -433t-229 -126q-74 0 -129 35t-56 79t27 76q29 32 59 32z" />
    <glyph glyph-name="ffi" unicode="ffi" horiz-adv-x="1851" 
d="M-60 -274q30 0 60 -45q66 -100 109 -101q39 0 65 139l238 1207h-183l23 78h178l23 75q59 199 170 309t313 109q164 0 276 -117q111 139 340 140q156 0 243 -67t91 -144q2 -47 -34 -75t-80 -28t-60 49q-51 193 -186 193q-109 0 -170 -94t-113 -297l-14 -53h223
q150 0 395 24l8 -10l-225 -823q-31 -113 21 -113q39 0 92 72t92 145l49 -29q-57 -129 -142 -212q-86 -83 -178 -83q-173 0 -118 201l176 655q16 53 4 73t-74 22h-338l-188 -852q-68 -303 -146 -419t-223 -116q-68 0 -125 33t-57 77q0 45 27 73q28 28 60 28t56 -45
q49 -90 103 -90q43 0 65 121l234 1190h-414l-190 -863q-68 -307 -148 -433t-229 -126q-74 0 -129 35t-56 79t27 76q29 32 59 32zM909 1425q-101 0 -163 -86t-113 -282l-15 -53h420l23 75q12 47 53 148q-41 102 -89 150t-116 48z" />
    <glyph glyph-name="ffl" unicode="ffl" horiz-adv-x="1843" 
d="M-60 -274q30 0 60 -45q66 -100 109 -101q39 0 65 139l238 1207h-183l23 78h178l23 75q59 199 170 309t313 109q162 0 278 -121q121 143 334 144q154 0 238 -99l151 99l29 -19l-319 -1308q-27 -111 20 -111q35 0 92 70t96 147l50 -29q-53 -125 -143 -210t-191 -85
q-156 0 -107 201l262 1073q-14 87 -64 143t-146 56t-160 -95t-115 -296l-14 -53h264l-21 -78h-256l-188 -852q-68 -303 -146 -419t-223 -116q-68 0 -125 33t-57 77q0 45 27 73q28 28 60 28t56 -45q49 -90 103 -90q43 0 65 121l234 1190h-414l-190 -863q-68 -307 -148 -433
t-229 -126q-74 0 -129 35t-56 79t27 76q29 32 59 32zM909 1425q-101 0 -163 -86t-113 -282l-15 -53h420l23 75q12 47 53 148q-41 102 -89 150t-116 48z" />
    <glyph glyph-name="esh_i" unicode="&#x283;i" horiz-adv-x="1224" 
d="M1026 82q39 0 92 72t92 145l50 -29q-56 -129 -142 -212t-178 -83q-174 0 -119 201l172 641q14 53 6 73t-49 21l-116 11l12 49l373 57l10 -10l-223 -823q-31 -113 20 -113zM-145 -388q0 44 28 76q29 32 59 32t80 -70t88 -70t48 62l248 1255q63 319 187 471t343 152
q160 0 243 -66t83 -145q0 -51 -34 -77t-82 -26t-59 49q-20 93 -68 143t-110 50q-105 0 -167 -96t-107 -295l-219 -994q-68 -307 -148 -433t-229 -126q-76 0 -130 32t-54 76z" />
    <glyph glyph-name="esh_k" unicode="&#x283;k" horiz-adv-x="1732" 
d="M1849 928q1 -41 -29 -76t-65 -35t-81 28t-83 27q-82 0 -291 -239q59 -207 154 -400q39 -81 64 -113t51 -32q70 0 164 203l51 -27q-102 -289 -283 -289q-72 1 -121 47t-96 148q-94 207 -145 377q154 186 317 330q180 151 286 151t107 -100zM-143 -386q0 44 28 76
q29 32 59 32t79 -72q49 -70 87 -70t48 62l243 1243q125 635 533 635q147 0 231 -99l152 99l33 -21l-357 -1499l-188 -25l303 1272q-18 85 -68 143t-129 58q-193 0 -278 -391l-217 -994q-68 -307 -148 -433t-229 -126q-74 0 -128 33t-54 77z" />
    <glyph glyph-name="esh_l" unicode="&#x283;l" horiz-adv-x="1228" 
d="M-143 -386q0 44 28 76q29 32 59 32t79 -72q49 -70 87 -70t48 62l243 1239q61 319 191 479t340 160q145 0 229 -99l152 99l28 -19l-319 -1308q-27 -111 20 -111q35 0 93 70q57 70 96 147l49 -29q-53 -125 -142 -210t-192 -85q-156 0 -106 201l262 1073q-12 87 -62 143
t-131 56q-190 0 -276 -391l-217 -994q-68 -307 -148 -433t-229 -126q-74 0 -128 33t-54 77z" />
    <glyph glyph-name=".notdef" horiz-adv-x="1245" 
d="M836 709l301 -519v1039zM477 1329l309 -532l308 532h-617zM477 88h619l-310 535zM436 190l301 519l-301 520v-1039zM348 0v1417h877v-1417h-877z" />
    <glyph glyph-name=".notdef" horiz-adv-x="1245" 
d="M836 709l301 -519v1039zM477 1329l309 -532l308 532h-617zM477 88h619l-310 535zM436 190l301 519l-301 520v-1039zM348 0v1417h877v-1417h-877z" />
    <glyph glyph-name=".null" 
 />
    <glyph glyph-name="nonmarkingreturn" horiz-adv-x="681" 
 />
    <glyph glyph-name="space" unicode=" " horiz-adv-x="460" 
 />
    <glyph glyph-name="exclam" unicode="!" horiz-adv-x="491" 
d="M141 98q0 58 37 96t93 38t88 -34t32 -89t-37 -95t-93 -39q-56 0 -88 33t-32 90zM566 1448q76 0 94 -39q17 -39 -9 -100l-286 -881h-58l113 891q8 63 39 96t107 33z" />
    <glyph glyph-name="quotedbl" unicode="&#x22;" horiz-adv-x="823" 
d="M907 1520q123 0 84 -107l-164 -452h-57l25 452q4 55 29 81q26 26 83 26zM559 1520q123 0 84 -107l-164 -452h-57l24 452q4 55 30 81t83 26z" />
    <glyph glyph-name="numbersign" unicode="#" horiz-adv-x="1085" 
d="M547 571h270l94 269h-270zM182 473l35 98h213l94 269h-215l35 98h215l152 430h114l-149 -430h270l152 430h112l-149 -430h209l-31 -98h-213l-94 -269h211l-31 -98h-215l-166 -473h-115l166 473h-270l-166 -473h-117l166 473h-213z" />
    <glyph glyph-name="dollar" unicode="$" horiz-adv-x="1085" 
d="M901 346q0 178 -182 264l-121 -538q135 -4 219 72t84 202zM514 1064q0 -98 42 -146q42 -49 128 -93l111 471q-127 0 -204 -67t-77 -165zM234 348q38 0 55 -49q68 -203 223 -223l131 571q-293 121 -293 340q0 175 129 279t332 102l37 154h82l-35 -158q127 -10 217 -70
t88 -147q-2 -41 -33 -67t-65 -25q-45 0 -58 53q-41 164 -165 184l-117 -501q150 -70 232 -158t83 -234q0 -181 -137 -291t-360 -108l-48 -223h-86l52 227q-160 10 -262 82t-101 160q2 46 31 74q30 28 68 28z" />
    <glyph glyph-name="percent" unicode="%" horiz-adv-x="1691" 
d="M1171 201q0 -164 129 -164q68 0 119 57t76 140q47 156 47 266q0 164 -121 164q-63 0 -114 -58q-82 -92 -121 -290q-15 -70 -15 -115zM1438 725q122 0 192 -78t70 -200t-42 -213t-85 -142t-115 -84t-160 -33q-145 0 -215 80q-69 80 -69 212t90 284q45 76 129 125
q83 49 205 49zM430 868q0 -164 129 -163q68 0 119 57t76 140q47 156 47 265q0 164 -121 164q-62 0 -114 -57t-80 -138q-56 -162 -56 -268zM995 1292h367q86 6 174 94l51 52l62 -49l-1239 -1440l-64 57l1045 1217h-443q10 -39 10 -103q0 -210 -127 -360q-43 -51 -115 -84
t-159 -33q-145 -1 -215 79t-70 211t90 286q46 77 130 125t198 48t211 -73q33 -27 94 -27z" />
    <glyph glyph-name="ampersand" unicode="&#x26;" horiz-adv-x="1484" 
d="M842 1321q-72 -1 -128 -69t-55 -192q0 -124 74 -239q111 53 183 139t73 195q0 68 -37 117q-38 49 -110 49zM389 367q0 -123 78 -207t203 -84q166 0 303 127q-213 221 -373 491q-70 -29 -140 -116t-71 -211zM195 332q0 195 179 317q60 41 95 59t98 48q-31 51 -51 126
t-20 128q0 174 105 278t241 104t222 -69q85 -70 85 -201t-119 -218q-91 -66 -266 -136q119 -213 332 -442q213 221 241 528q86 41 158 33q37 -106 -14 -211q-106 -197 -340 -404q210 -210 362 -235l-8 -51l-102 4q-211 8 -373 164q-214 -178 -418 -178t-306 105
q-101 106 -101 251z" />
    <glyph glyph-name="quotesingle" unicode="'" horiz-adv-x="442" 
d="M539 1520q123 0 84 -107l-164 -452h-58l25 452q4 55 30 81t83 26z" />
    <glyph glyph-name="parenleft" unicode="(" horiz-adv-x="716" 
d="M331 4q-83 252 -1 620t255 585q173 216 425 208l-11 -51q-160 -27 -302 -206t-224 -533q-86 -412 -14 -616t174 -226l-12 -47q-207 14 -290 266z" />
    <glyph glyph-name="parenright" unicode=")" horiz-adv-x="716" 
d="M-23 -262l11 47q160 27 302 208t224 535q86 411 14 613q-72 203 -174 225l13 51q207 -14 289 -266q82 -253 1 -621q-82 -368 -255 -584t-425 -208z" />
    <glyph glyph-name="asterisk" unicode="*" horiz-adv-x="843" 
d="M598 1098q0 12 -20 20l-177 64q-37 12 -41 42t19 60q49 70 94 25l139 -144q12 -12 22 -7q9 5 9 26l-4 200q0 63 84 64q86 0 57 -66l-90 -198q-8 -20 0 -26t27 7l186 146q57 41 95 -28t-27 -89l-244 -80q-39 -14 -27 -31l209 -86q27 -11 29 -37t-25 -61q-51 -63 -94 -14
l-129 145q-14 14 -24 7t-11 -25l4 -215q2 -37 -19 -53q-22 -15 -64 -15t-59 24q-15 24 1 58l90 201q10 20 2 27t-30 -9l-172 -145q-70 -60 -106 15t32 97l246 84q18 5 18 17z" />
    <glyph glyph-name="plus" unicode="+" horiz-adv-x="1167" 
d="M190 453v118h426v433h140v-433h426v-118h-426v-453h-140v453h-426z" />
    <glyph glyph-name="comma" unicode="," horiz-adv-x="542" 
d="M426 146q0 -121 -105 -240q-55 -61 -87 -90t-105 -90l-35 36q135 131 146 236q4 45 -22 103t-26 91t34 66q32 33 83 34t84 -43q33 -43 33 -103z" />
    <glyph glyph-name="hyphen" unicode="-" horiz-adv-x="802" 
d="M240 442l28 144h502l-29 -144h-501z" />
    <glyph glyph-name="period" unicode="." horiz-adv-x="542" 
d="M168 98q0 58 37 96t93 38t88 -34t32 -89t-37 -95t-93 -39q-56 0 -88 33t-32 90z" />
    <glyph glyph-name="slash" unicode="/" horiz-adv-x="552" 
d="M72 -31l553 1479h145l-553 -1479h-145z" />
    <glyph glyph-name="zero" unicode="0" horiz-adv-x="1085" 
d="M379 320q0 -274 192 -273q117 0 195 120q78 119 130 297t76 338t24 265q0 104 -41 179q-40 75 -141 75t-186 -113t-145 -299q-104 -315 -104 -589zM195 438q0 142 39 311q40 169 110 300q186 344 469 344q367 0 367 -449q0 -129 -36 -300q-36 -172 -113 -330
q-164 -338 -460 -339q-137 0 -225 67t-120 161q-31 93 -31 235z" />
    <glyph glyph-name="one" unicode="1" horiz-adv-x="1085" 
d="M223 0l13 59l186 15q53 4 67 73l232 1037q12 61 -25 67l-198 21l16 49l420 72l16 -13l-278 -1233q-16 -74 43 -77l182 -11l-12 -59h-662z" />
    <glyph glyph-name="two" unicode="2" horiz-adv-x="1085" 
d="M776 1321q-178 0 -274 -272q-16 -51 -56 -51t-72 27q-32 28 -32 71q0 98 126 197t307 99t290 -85q109 -86 109 -250q0 -90 -29 -161q-29 -72 -107 -138t-127 -99t-115 -71t-69 -39q-4 -2 -10 -6t-10 -6q-336 -195 -431 -385h512q68 0 103 22t86 94l61 -12l-110 -256h-838
l-22 20q45 129 150 249q106 120 328 272q222 153 322 277t101 267q0 236 -193 236z" />
    <glyph glyph-name="three" unicode="3" horiz-adv-x="1085" 
d="M628 717q-72 0 -177 -21q-39 0 -39 45q0 29 13 53t27 24t83 -12q68 -11 120 -11q123 0 206 92t83 223q0 82 -41 146t-149 65q-158 0 -242 -215q-22 -55 -58 -55q-36 -1 -66 25t-30 69q0 90 120 169t286 79q210 0 317 -121q63 -72 64 -185q0 -151 -111 -231t-252 -90v-6
q109 -14 197 -95t88 -229q0 -223 -155 -342q-154 -119 -364 -119t-324 82q-113 82 -113 170q0 47 32 80q33 33 74 33t59 -64q59 -229 267 -229q119 0 215 99t96 311q0 90 -32 149q-32 58 -77 84t-117 27z" />
    <glyph glyph-name="four" unicode="4" horiz-adv-x="1085" 
d="M309 477h430l150 697l-4 4q-265 -283 -576 -701zM137 422q475 594 824 946h139l-187 -891h201l-20 -94h-201l-51 -246q-14 -70 41 -71l102 -7l-14 -59h-541l16 59l152 11q57 4 70 67l51 246h-563z" />
    <glyph glyph-name="five" unicode="5" horiz-adv-x="1085" 
d="M121 221q0 47 34 81q35 34 75 34t57 -60q61 -229 268 -229q131 0 229 120q98 119 98 283t-65 247q-66 83 -178 83q-158 0 -270 -135l-50 25l150 682l20 16h699l10 -22l-86 -129h-508q-29 1 -43 -9t-22 -41l-111 -383l4 -4q117 94 286 94t273 -100t105 -278
q0 -221 -160 -371t-395 -150q-197 0 -309 78q-111 78 -111 168z" />
    <glyph glyph-name="six" unicode="6" horiz-adv-x="1085" 
d="M377 344q0 -297 229 -297q127 0 219 124t93 335q0 114 -60 184t-166 70q-147 0 -231 -110t-84 -306zM608 -25q-222 0 -322 125t-100 332t71 423t179 343q168 195 410 195q182 0 268 -72t86 -150q0 -41 -36 -67t-72 -27q-49 0 -60 58q-39 186 -188 186t-262 -165
t-174 -464h4q156 168 338 168t274 -101t92 -270q0 -280 -226 -433q-120 -81 -282 -81z" />
    <glyph glyph-name="seven" unicode="7" horiz-adv-x="1085" 
d="M365 51q0 119 96 286t340 443t301 437h-494q-76 -1 -114 -19t-62 -59l-33 -54h-61l86 283h860l16 -22q-39 -92 -93 -180t-88 -133t-127 -155t-126 -151q-120 -141 -188 -294t-105 -374q-7 -49 -31 -66t-79 -18q-98 0 -98 76z" />
    <glyph glyph-name="eight" unicode="8" horiz-adv-x="1085" 
d="M801 1321q-123 1 -189 -109t-65 -216q0 -215 188 -216q104 0 177 102t73 253q0 80 -47 133t-137 53zM362 328q0 -282 256 -281q126 0 204 117q79 117 79 289q0 117 -61 183t-168 66q-134 0 -222 -116t-88 -258zM166 342q0 164 107 281q108 117 259 135v8
q-168 72 -168 253t126 277t312 96t276 -92t89 -223q0 -131 -82 -215t-202 -108v-6q83 -29 149 -113t66 -211q0 -199 -129 -324t-357 -125t-338 102q-108 101 -108 265z" />
    <glyph glyph-name="nine" unicode="9" horiz-adv-x="1085" 
d="M463 926q0 -123 59 -201q60 -78 186 -78t196 80q70 79 71 235q0 156 -51 258q-50 102 -176 101t-206 -105t-79 -290zM176 197q0 51 32 83t68 31q43 0 60 -61q53 -203 209 -203q174 0 286 236q90 190 123 409h-4q-147 -147 -309 -147t-265 98t-104 256q0 223 138 358
t333 136q426 0 426 -521q0 -174 -55 -368t-164 -328q-160 -201 -411 -201q-162 0 -263 72q-100 72 -100 150z" />
    <glyph glyph-name="colon" unicode=":" horiz-adv-x="542" 
d="M168 98q0 58 37 96t93 38t88 -34t32 -89t-37 -95t-93 -39q-56 0 -88 33t-32 90zM330 870q0 58 37 96t93 38t88 -34t32 -89t-37 -95t-93 -38q-56 0 -89 32q-31 33 -31 90z" />
    <glyph glyph-name="semicolon" unicode=";" horiz-adv-x="542" 
d="M426 146q0 -121 -105 -240q-55 -61 -87 -90t-105 -90l-35 36q135 131 146 236q4 45 -22 103t-26 91t34 66q32 33 83 34t84 -43q33 -43 33 -103zM330 870q0 58 37 96t93 38t88 -34t32 -89t-37 -95t-93 -38q-56 0 -89 32q-31 33 -31 90z" />
    <glyph glyph-name="less" unicode="&#x3c;" horiz-adv-x="1167" 
d="M176 424v166l979 428v-141l-858 -369l858 -369v-137z" />
    <glyph glyph-name="equal" unicode="=" horiz-adv-x="1167" 
d="M190 678v119h992v-119h-992zM190 227v119h992v-119h-992z" />
    <glyph glyph-name="greater" unicode="&#x3e;" horiz-adv-x="1167" 
d="M176 2v137l858 369l-858 369v141l979 -428v-166z" />
    <glyph glyph-name="question" unicode="?" horiz-adv-x="870" 
d="M307 98q0 58 37 96t93 38t88 -34t32 -89t-37 -95t-93 -39q-56 0 -88 33t-32 90zM328 584q0 129 213 252q139 82 207 185t68 189q-1 167 -122 166q-121 0 -205 -213q-14 -39 -53 -39q-40 0 -70 25t-30 65q0 76 96 155t248 79t238 -72q88 -72 88 -190t-62 -187
q-62 -68 -190 -131q-126 -63 -185 -119t-59 -124q0 -127 131 -125q14 0 88 6l12 -35q-88 -63 -187 -63t-163 44q-63 44 -63 132z" />
    <glyph glyph-name="at" unicode="@" horiz-adv-x="1626" 
d="M852 449q100 -1 222 195t155 360q-43 28 -107 28t-134 -56t-112 -136q-94 -178 -94 -284q0 -107 70 -107zM252 621q0 251 120 443t305 288t400 96q285 0 456 -172t171 -428q0 -207 -138 -351t-323 -145q-100 0 -130 60t15 221l-4 2q-55 -98 -162 -192q-108 -93 -212 -91
q-55 2 -96 41q-40 39 -40 109q0 136 78 286q40 80 98 147t147 112t171 45t135 -27l8 16h133l-135 -528q-31 -123 71 -123t192 126q89 126 90 282q4 244 -144 385t-362 141t-370 -106t-234 -273q-80 -166 -80 -367t124 -371q64 -89 186 -143t302 -55q180 0 330 64l16 -52
q-168 -92 -429 -92t-468 159q-100 77 -161 205q-60 128 -60 288z" />
    <glyph glyph-name="A" unicode="A" horiz-adv-x="1277" 
d="M539 625h407l-72 602h-4q-245 -442 -331 -602zM-47 0l12 59l68 9q87 7 143 101q26 44 371 644l344 604h145l152 -1233q8 -68 22.5 -91t59.5 -27l78 -7l-13 -59h-504l13 59l108 11q33 4 44.5 20t7.5 60l-48 397h-458q-59 -109 -211 -402q-31 -70 26 -75l113 -11l-12 -59
h-461z" />
    <glyph glyph-name="B" unicode="B" horiz-adv-x="1294" 
d="M760 799q184 0 284 75q121 96 121 242q0 109 -69.5 169.5t-184 60.5t-140.5 -12.5t-36 -59.5l-108 -475h133zM688 72q193 0 289 106.5t96 257.5q0 291 -381 291h-80l-116 -524q-16 -70 18.5 -100.5t173.5 -30.5zM1374 1108q0 -127 -97 -222t-290 -118l-2 -6
q131 -25 220 -108t89 -233q0 -149 -110 -271q-60 -68 -183.5 -109t-300.5 -41h-622l12 59l115 13q37 4 56.5 25.5t29.5 72.5l241 1077q12 53 2 73.5t-45 25.5l-120 12l12 59h493q254 4 371 -67q129 -76 129 -242z" />
    <glyph glyph-name="C" unicode="C" horiz-adv-x="1353" 
d="M233 563q0 287 140 512q100 164 280.5 268.5t446.5 104.5q117 0 243.5 -28.5t208.5 -80.5l-73 -307h-62q8 174 -69.5 259t-264.5 85q-309 0 -483 -291q-72 -119 -109.5 -274.5t-37.5 -300.5q0 -229 111.5 -349t290.5 -120t278.5 82t195.5 258h62l-101 -326
q-172 -86 -416 -86q-409 1 -561 269q-80 142 -80 325z" />
    <glyph glyph-name="D" unicode="D" horiz-adv-x="1562" 
d="M657 72q242 0 390.5 82t242.5 237q133 219 133 496q0 59 -6 110.5t-33.5 118t-74.5 113.5t-137.5 80.5t-218 35t-165.5 -11t-51 -63.5l-248 -1094q-14 -63 29 -83.5t139 -20.5zM936 1417q529 -1 661 -333q45 -114 45 -242q0 -264 -137 -471q-246 -371 -794 -371h-629
l12 59l115 13q37 2 55.5 24.5t28.5 73.5l244 1077q10 51 0.5 75t-43.5 26l-121 10l12 59h551z" />
    <glyph glyph-name="E" unicode="E" horiz-adv-x="1220" 
d="M1044 1346h-247q-27 0 -38 -11.5t-20 -48.5l-116 -510h268q159 0 205 64q22 32 51 110h61l-94 -428h-61q6 109 -23 142.5t-156 33.5h-268l-104 -448q-16 -72 -14.5 -102.5t30.5 -53.5t224.5 -22.5t283.5 53.5t164 235h61l-104 -360h-1069l12 59l115 13q37 2 54 23.5
t30 74.5l246 1081q12 53 1.5 74t-47.5 25l-122 8l14 59h1036l-78 -342h-61q10 92 5 152.5t-59.5 89.5t-179.5 29z" />
    <glyph glyph-name="F" unicode="F" horiz-adv-x="1169" 
d="M1051 1346h-252q-29 0 -40 -11.5t-20 -50.5l-123 -536h271q129 0 172 31.5t84 144.5h61l-94 -430h-61q6 109 -23 142.5t-156 33.5h-270l-115 -506q-20 -88 47 -94l154 -11l-12 -59h-596l12 59l115 11q35 2 54.5 24.5t29.5 69.5l246 1089q20 86 -46 93l-120 12l12 59h1042
l-77 -338h-62q10 90 5 149.5t-59 88.5t-179 29z" />
    <glyph glyph-name="G" unicode="G" horiz-adv-x="1452" 
d="M233 589.5q0 316.5 195 563.5q231 295 684 295q270 0 459 -102l-74 -320h-61q22 254 -146 322q-70 28 -195.5 28t-239.5 -53t-186.5 -136t-120.5 -193q-89 -203 -89 -445t117.5 -375t312.5 -133q143 0 192 27.5t62 83.5l76 309q25 92 -35 98l-154 14l12 60h539l-12 -60
l-90 -8q-41 -4 -64 -104l-96 -414q-211 -78 -434 -78q-301 0 -477 152q-175 152 -175 468.5z" />
    <glyph glyph-name="H" unicode="H" horiz-adv-x="1587" 
d="M82 0l12 59l113 13q37 2 55.5 23.5t30.5 74.5l246 1077q20 96 -45 103l-121 8l14 59h561l-14 -59l-113 -10q-37 -2 -55 -25t-31 -76l-108 -471h684l106 471q20 96 -45 103l-121 8l15 59h561l-15 -59l-112 -10q-37 -2 -55.5 -25t-30.5 -76l-246 -1077q-23 -96 45 -102
l121 -9l-12 -59h-561l12 59l112 13q37 2 55.5 23.5t30.5 74.5l121 528h-684l-119 -528q-12 -51 -1.5 -75.5t47.5 -26.5l120 -9l-12 -59h-561z" />
    <glyph glyph-name="I" unicode="I" horiz-adv-x="706" 
d="M82 0l12 59l113 13q37 2 56.5 25.5t29.5 72.5l246 1077q23 96 -45 103l-121 8l14 59h561l-14 -59l-113 -10q-37 -2 -55 -27t-31 -74l-246 -1077q-23 -96 46 -102l120 -9l-12 -59h-561z" />
    <glyph glyph-name="J" unicode="J" horiz-adv-x="720" 
d="M-20 -244q-23 0 -68 4v52q162 16 257 104t163 379l223 958q10 47 0 70t-47 25l-121 10l14 59h564l-15 -59l-112 -8q-37 -2 -56.5 -24.5t-29.5 -72.5l-240 -1030q-66 -281 -215 -387q-115 -80 -317 -80z" />
    <glyph glyph-name="K" unicode="K" horiz-adv-x="1331" 
d="M82 0l12 59l113 13q37 2 56.5 25.5t29.5 72.5l246 1077q23 96 -45 103l-121 8l14 59h561l-14 -59l-113 -10q-37 -2 -55 -27t-31 -74l-110 -485l4 -4q469 397 610 526q63 61 2 68l-78 6l8 59h510l-8 -59q-117 -8 -176 -32q-160 -64 -698 -517q176 -367 362 -602
q66 -80 113 -116t127 -42l-15 -59l-100 2q-119 4 -194.5 43t-149.5 137q-125 170 -319 567h-5l-129 -569q-23 -96 46 -102l120 -9l-12 -59h-561z" />
    <glyph glyph-name="L" unicode="L" horiz-adv-x="1157" 
d="M82 0l12 59l113 13q37 4 55.5 24.5t30.5 73.5l246 1077q23 94 -45 101l-121 10l14 59h571l-14 -59l-123 -8q-37 -2 -56.5 -26t-31.5 -77l-227 -997q-16 -72 -14 -102.5t30 -53.5q28 -22 217 -22q188 0 273.5 53t161.5 235h61l-105 -360h-1048z" />
    <glyph glyph-name="M" unicode="M" horiz-adv-x="1884" 
d="M63 0l11 59l63 7q49 4 76 22q51 34 117 320l192 839q23 92 -45 99l-121 12l15 59h397q29 -154 117 -547l114 -567h7l362 553q246 375 354 561h402l-15 -59l-112 -8q-37 -2 -55.5 -26t-30.5 -77l-246 -1077q-12 -49 -2 -72.5t47 -25.5l121 -13l-12 -59h-557l12 59l112 13
q37 2 55.5 23.5t31.5 74.5l251 1071h-6l-796 -1216h-58l-246 1216h-4l-188 -833q-33 -147 -43 -254q-4 -45 18.5 -64.5t75.5 -23.5l80 -7l-10 -59h-484z" />
    <glyph glyph-name="N" unicode="N" horiz-adv-x="1562" 
d="M63 0l11 59l63 7q92 8 121 88q37 102 72 254l192 839q23 92 -45 99l-121 12l15 59h389q172 -383 524 -1149h8l168 742q33 147 43 254q4 47 -17.5 63t-76.5 23l-80 8l10 59h484l-11 -59l-63 -6q-92 -8 -121 -88q-37 -102 -72 -254l-229 -1010h-133q-377 831 -569 1247h-7
l-192 -839q-33 -147 -43 -254q-4 -45 18.5 -64.5t75.5 -23.5l80 -7l-10 -59h-484z" />
    <glyph glyph-name="O" unicode="O" horiz-adv-x="1542" 
d="M449 471q0 -209 98 -319.5t268 -110.5q332 0 490 410q96 250 96 482t-97.5 337.5t-271.5 105.5q-291 0 -457 -344q-126 -268 -126 -561zM233 560.5q0 271.5 142 510.5q227 377 649 377q268 0 430 -149.5t162 -450.5q0 -256 -129 -490q-98 -178 -251 -283.5t-402 -105.5
q-295 0 -448 160t-153 431.5z" />
    <glyph glyph-name="P" unicode="P" horiz-adv-x="1257" 
d="M739 645q211 0 326 108.5t115 323.5q0 268 -308 269q-74 0 -97 -14.5t-34 -57.5l-125 -543q-6 -31 -7 -42t10.5 -24.5t39 -16.5t80.5 -3zM866 1417q529 0 529 -377q0 -115 -54.5 -213t-152.5 -157q-158 -96 -455 -97h-151l-93 -403q-12 -49 -1.5 -72.5t47.5 -25.5
l141 -13l-12 -59h-582l12 59l113 13q37 2 55.5 23.5t30.5 74.5l246 1077q23 94 -45 101l-121 10l14 59h479z" />
    <glyph glyph-name="Q" unicode="Q" horiz-adv-x="1542" 
d="M449 471q0 -209 98 -319.5t268 -110.5q332 0 490 410q96 250 96 482t-97.5 337.5t-271.5 105.5q-291 0 -457 -344q-126 -268 -126 -561zM233 573.5q0 258.5 142 497.5q227 377 649 377q268 0 430 -149.5t162 -450.5q0 -256 -129 -490q-184 -334 -529 -381
q49 -78 136 -163q164 -164 331 -162l7 -35q-55 -33 -154 -33q-188 0 -335.5 124t-223.5 269q-240 31 -363 184.5t-123 412z" />
    <glyph glyph-name="R" unicode="R" horiz-adv-x="1310" 
d="M750 739q201 0 311 94.5t110 274.5q0 125 -71.5 181.5t-182.5 56.5t-138 -14.5t-40 -63.5l-121 -529h132zM940 1417q446 0 446 -330q0 -150 -115.5 -252t-305.5 -128v-5q103 -27 144 -93q41 -65 43 -165q1 -34 1 -96q-4 -164 31 -220t162 -69l-19 -59h-160
q-184 0 -206 158q-10 82 -9.5 220t-5.5 163q-12 70 -65 100q-41 27 -156 27h-123l-113 -498q-12 -53 -1.5 -74.5t47.5 -25.5l120 -11l-12 -59h-561l12 59l113 13q37 4 55.5 24.5t30.5 73.5l246 1077q23 94 -45 101l-121 10l14 59h553z" />
    <glyph glyph-name="S" unicode="S" horiz-adv-x="1091" 
d="M590.5 41q148.5 0 230.5 89t82 207t-64.5 191.5t-201.5 141.5t-215 153.5t-78 225t100 261.5q52 62 148 100t223 38q233 0 367 -105l-74 -286h-59q37 319 -248 319q-131 0 -208 -73.5t-77 -192t122 -198.5q56 -37 142 -83q160 -82 233.5 -177t73.5 -230
q0 -177 -114.5 -313t-403.5 -140q-121 0 -246 46t-182 122l54 314h59q-8 -195 90 -302.5t246.5 -107.5z" />
    <glyph glyph-name="T" unicode="T" horiz-adv-x="1241" 
d="M1149 1346h-129l-266 -1180q-24 -94 53 -98l149 -9l-14 -59h-631l15 59l133 9q45 2 66.5 25.5t31.5 72.5l266 1180h-141q-150 0 -220.5 -56.5t-119.5 -214.5h-61l77 342h1164l-78 -342h-62q10 92 4 152.5t-60 89.5t-177 29z" />
    <glyph glyph-name="U" unicode="U" horiz-adv-x="1626" 
d="M850 41q197 0 295 128t153 363l166 715q23 94 -45 101l-121 10l15 59h561l-14 -59l-113 -10q-37 -2 -55.5 -25t-30.5 -76l-174 -741q-92 -386 -333 -486q-79 -32 -149.5 -41.5t-164.5 -9.5q-283 0 -415.5 132t-62.5 423l173 723q23 94 -46 101l-120 10l14 59h561l-14 -59
l-113 -8q-37 -2 -55.5 -26t-30.5 -77l-162 -696q-119 -510 281 -510z" />
    <glyph glyph-name="V" unicode="V" horiz-adv-x="1304" 
d="M268 1358l11 59h512l-11 -59l-131 -12q-41 -4 -35 -68q25 -266 62 -528l72 -545h4l292 510q252 438 291 521t33 95t-35 17l-112 10l10 59h450l-10 -59q-84 -6 -118.5 -22.5t-67.5 -67.5q-123 -190 -340 -561l-416 -707h-141l-86 655q-27 233 -74 575q-10 74 -25.5 93.5
t-52.5 24.5z" />
    <glyph glyph-name="W" unicode="W" horiz-adv-x="1937" 
d="M248 1358l12 59h518l-14 -59l-133 -12q-49 -2 -43 -66l67 -1030h11l555 1130h143l104 -1130h9l245 514q176 367 234 510q25 63 -19 69l-133 15l11 59h458l-10 -59q-94 -8 -125 -27.5t-80 -105.5t-250 -494l-356 -731h-143l-107 1128h-10l-561 -1128h-144l-90 1262
q-4 47 -15 65.5t-44 20.5z" />
    <glyph glyph-name="X" unicode="X" horiz-adv-x="1294" 
d="M-2 0l12 59q100 10 140 24.5t88 66.5q127 135 483 565q-39 88 -120 286.5t-109 258.5t-62.5 75t-132.5 23l12 59h533l-13 -59l-106 -8q-61 -6 -35 -74q127 -311 168 -408h4q168 193 340 418q43 57 -18 64l-88 8l12 59h471l-12 -59q-139 -10 -197 -60q-199 -182 -475 -514
q253 -571 279 -627t63 -72.5t145 -25.5l-12 -59h-553l10 59l107 11q64 6 36 74t-62 147.5t-77 178.5t-67 155h-8q-238 -293 -379 -496q-35 -51 28 -57l117 -13l-12 -59h-510z" />
    <glyph glyph-name="Y" unicode="Y" horiz-adv-x="1210" 
d="M268 1358l13 59h510l-13 -59l-112 -10q-51 -6 -39 -60l186 -629h6q307 416 432 631q31 57 -30 60l-107 8l12 59h469l-12 -59q-86 -6 -123 -24.5t-92 -80.5q-190 -217 -471 -624q-41 -55 -57 -123l-78 -346q-10 -45 0 -65.5t47 -22.5l156 -13l-13 -59h-635l13 59l147 15
q39 4 56.5 23.5t27.5 62.5l78 344q14 59 0 108q-157 528 -189 620t-58 105t-124 21z" />
    <glyph glyph-name="Z" unicode="Z" horiz-adv-x="1273" 
d="M825 1346q-174 0 -245.5 -50.5t-133.5 -224.5h-61l76 346h1040l10 -26q-662 -725 -1196 -1319h416q248 0 344 51t176 237h62l-105 -360h-1169l-8 27q500 549 1194 1319h-400z" />
    <glyph glyph-name="bracketleft" unicode="[" horiz-adv-x="675" 
d="M213 -262l381 1679h326l-11 -55q-137 -8 -172 -26t-51 -87l-307 -1343q-15 -70 11 -87t159 -26l-10 -55h-326z" />
    <glyph glyph-name="backslash" unicode="\" horiz-adv-x="798" 
d="M254 1448h145l432 -1479h-145z" />
    <glyph glyph-name="bracketright" unicode="]" horiz-adv-x="675" 
d="M29 -262l10 55q139 7 173 25t50 88l307 1343q16 70 -9 87q-26 17 -161 26l11 55h325l-381 -1679h-325z" />
    <glyph glyph-name="asciicircum" unicode="^" horiz-adv-x="1167" 
d="M242 467l401 901h158l391 -901h-156l-315 752l-324 -752h-155z" />
    <glyph glyph-name="underscore" unicode="_" horiz-adv-x="1024" 
d="M0 -154h1024v-102h-1024v102z" />
    <glyph glyph-name="grave" unicode="`" horiz-adv-x="819" 
d="M371 1393q-1 29 27 59t53 29q49 0 131 -84l243 -246l-30 -41l-310 172q-114 62 -114 111z" />
    <glyph glyph-name="a" unicode="a" horiz-adv-x="1148" 
d="M338 225q0 -143 90 -143q133 0 338 311q147 221 219 518q-49 45 -125 45q-113 0 -216 -81.5t-166.5 -199.5t-101.5 -240t-38 -210zM135 210q0 93 27.5 196.5t87 214t141.5 200.5t204 148.5t235.5 58.5t175.5 -43l10 27h172l-217 -817q-31 -113 20 -113q39 0 92.5 71.5
t92.5 145.5l49 -29q-57 -129 -144.5 -212t-195.5 -83q-158 0 -90 230l69 233h-4q-264 -463 -528 -463q-98 0 -147.5 71t-49.5 164z" />
    <glyph glyph-name="b" unicode="b" horiz-adv-x="1144" 
d="M420 223q0 -78 45 -127t136 -49t178 88t135 211q98 255 98 415.5t-111 160.5q-88 0 -191.5 -101.5t-181.5 -238.5q-108 -197 -108 -359zM987 1028q117 0 171 -70q54 -68 54 -170q0 -235 -135 -473q-84 -150 -215 -245t-299 -95q-88 0 -159.5 40t-98.5 104l-63 -119h-74
l301 1309q12 59 5 77.5t-46 22.5l-117 14l13 47l366 50l10 -11l-227 -903h4q115 203 254 312.5t256 109.5z" />
    <glyph glyph-name="c" unicode="c" horiz-adv-x="903" 
d="M166 303q0 172 70.5 336t210 276.5t313.5 112.5q115 0 189.5 -52t74.5 -130q0 -47 -45 -81t-86 -34q-53 0 -59 62q-16 164 -123 163q-90 0 -171 -98t-126 -238.5t-45 -270.5t38.5 -201.5t141.5 -71.5q152 0 328 239l49 -39q-180 -301 -467 -301q-123 0 -208 78t-85 250z
" />
    <glyph glyph-name="d" unicode="d" horiz-adv-x="1202" 
d="M350 229q0 -147 103 -147q76 0 168 90t174 223q150 242 202 520q-45 41 -150.5 41t-206.5 -81.5t-161.5 -199.5t-94.5 -238t-34 -208zM147 246q0 176 109 382q57 108 136 196.5t198 146t239.5 57.5t186.5 -35l4 4l78 330q12 49 6 65.5t-43 18.5l-123 12l12 47l365 50
l10 -11l-324 -1314q-29 -113 21 -113q39 0 92 71.5t92 145.5l49 -29q-57 -129 -143 -212t-190 -83q-78 -2 -101.5 58.5t6.5 169.5l68 243h-4q-260 -471 -539 -471q-205 1 -205 271z" />
    <glyph glyph-name="e" unicode="e" horiz-adv-x="927" 
d="M844 836q0 53 -33 86.5t-86 33.5q-119 0 -222 -150t-130 -343q244 51 357.5 152.5t113.5 220.5zM164 311q0 274 170 484q188 233 448 233q121 0 187.5 -59.5t66.5 -158t-86 -183.5q-160 -147 -581 -234q-2 -14 -2 -33q0 -285 186 -284q139 0 273 154q28 32 65 79l47 -41
q-180 -293 -469 -293q-103 0 -195 60q-110 72 -110 276z" />
    <glyph glyph-name="f" unicode="f" horiz-adv-x="645" 
d="M-60 -274q30 0 60 -45q66 -100 109 -101q39 0 65 139l238 1207h-183l23 78h178l21 75q114 439 419 441q92 0 163 -47.5t71 -112.5q0 -37 -34 -63.5t-68.5 -26.5t-53.5 35q-35 76 -65.5 109.5t-72.5 33.5t-73.5 -49t-60.5 -164l-58 -231h267l-21 -78h-258l-190 -863
q-68 -307 -148 -433t-229 -126q-74 0 -129 35t-56 79t27.5 76t58.5 32z" />
    <glyph glyph-name="g" unicode="g" horiz-adv-x="1021" 
d="M438 614q0 -76 45 -125t125 -49q113 0 182.5 99.5t69.5 244.5q0 94 -51 133t-127 39t-137.5 -60t-84 -133t-22.5 -149zM250 -183.5q0 -105.5 86 -173t214 -67.5t208 59.5t80 171.5q0 190 -371 244q-78 -12 -147.5 -70.5t-69.5 -164zM61 -206q0 126 95.5 196.5t220.5 93.5
v4q-145 68 -146 154q0 76 175 147l12 6v4q-61 23 -116.5 87.5t-55.5 177t91 229.5q105 135 365 135q140 0 234 -61l297 82l12 -19l-67 -129l-172 -24q43 -55 43 -142q0 -162 -117 -264t-326 -102q-70 0 -110 6q-90 -23 -90 -80q0 -41 55 -67.5t192 -59.5q358 -86 359 -322
q0 -162 -141.5 -252t-349.5 -90t-334 82t-126 208z" />
    <glyph glyph-name="h" unicode="h" horiz-adv-x="1243" 
d="M1030 1028q129 0 163 -88t-9 -209l-162 -536q-35 -113 20 -113q39 0 92.5 71.5t92.5 145.5l49 -29q-57 -129 -141 -212t-185 -83q-170 0 -106 222l168 581q18 63 0.5 103.5t-66.5 40.5q-82 0 -178 -87q-177 -160 -264 -384q-53 -135 -137 -451l-179 -25l299 1334
q12 59 5 77.5t-46 22.5l-116 14l12 47l369 50l10 -11l-229 -938h6q102 195 252.5 326t279.5 131z" />
    <glyph glyph-name="i" unicode="i" horiz-adv-x="649" 
d="M451 82q39 0 92 71.5t92 145.5l49 -29q-57 -129 -142 -212q-86 -83 -178 -83q-173 0 -118 201l172 641q14 53 6 72.5t-49 21.5l-117 11l12 49l373 57l10 -10l-223 -823q-31 -113 21 -113zM626 1464q118 0 117 -115q0 -58 -35.5 -96.5t-90 -38.5t-86 30t-31.5 84t36 95
t90 41z" />
    <glyph glyph-name="j" unicode="j" horiz-adv-x="632" 
d="M-35 -274q31 0 58 -41q74 -109 116 -109q33 0 47 64l250 1169q14 53 9 76.5t-39 25.5l-127 11l12 49l366 57l11 -10l-232 -1024q-63 -281 -145 -385t-219 -105q-80 0 -136.5 34t-57.5 79t27.5 77t59.5 32zM630 1464q118 0 118 -115q0 -58 -36 -96.5t-90.5 -38.5t-86 30
t-31.5 84t36 95t90 41z" />
    <glyph glyph-name="k" unicode="k" horiz-adv-x="1116" 
d="M1233 928q0 -41 -29.5 -76t-64.5 -35t-81 28t-83 27q-82 0 -291 -239q57 -207 154 -400q39 -82 63.5 -113.5t50.5 -31.5q70 0 164 203l51 -27q-102 -289 -282 -289q-72 0 -121 46.5t-96 148.5q-95 207 -146 377q154 186 318 330q180 152 286.5 151.5t106.5 -100.5z
M188 -25l318 1334q12 59 5 77.5t-46 22.5l-117 14l12 47l367 50l10 -11l-360 -1509z" />
    <glyph glyph-name="l" unicode="l" horiz-adv-x="626" 
d="M440 82q35 0 92.5 69.5t96.5 147.5l49 -29q-53 -125 -142.5 -210t-191.5 -85q-155 0 -106 201l280 1133q14 59 6 77.5t-47 22.5l-117 14l13 47l366 50l11 -11l-330 -1316q-27 -111 20 -111z" />
    <glyph glyph-name="m" unicode="m" horiz-adv-x="1867" 
d="M1049 1028q106 0 138 -79t-16 -226l-41 -129h9q113 203 248 318.5t270 115.5q82 0 125 -41t44 -107.5t-20 -148.5l-157 -536q-31 -113 20 -113q39 0 92.5 71.5t91.5 145.5l50 -29q-57 -129 -143.5 -212t-177.5 -83q-176 0 -120 201l176 602q20 66 1 105t-70 39
q-80 0 -171 -84q-162 -149 -263 -385q-51 -119 -146 -453l-178 -25l205 775q45 172 -62 172q-115 0 -245.5 -162t-182 -293t-147.5 -467l-178 -25l211 838q14 49 10 72.5t-39 25.5l-125 11l12 49l371 57l10 -10l-129 -424h6q109 199 246 316.5t275 117.5z" />
    <glyph glyph-name="n" unicode="n" horiz-adv-x="1265" 
d="M1050 1028q130 0 164.5 -88t-8.5 -209l-159 -536q-31 -113 20 -113q39 0 92 71.5t92 145.5l49 -29q-57 -129 -143 -212t-180 -83t-121 57.5t2 143.5l176 600q18 59 1 102.5t-68 43.5q-78 0 -170 -85q-166 -153 -269 -391q-63 -152 -147 -446l-180 -25l215 838
q16 49 10 72.5t-41 25.5l-127 11l12 49l375 57l10 -10l-133 -447h6q98 190 245 323.5t277 133.5z" />
    <glyph glyph-name="o" unicode="o" horiz-adv-x="1099" 
d="M371 264q0 -217 184 -217q79 1 147 59q113 98 176.5 302.5t63.5 332.5q0 215 -170 215q-96 0 -176 -76t-127 -188q-98 -234 -98 -428zM526.5 974q110.5 54 247.5 54t245 -72q56 -38 89 -112t33 -174q0 -229 -129 -432q-166 -262 -463 -263q-186 0 -281.5 100.5
t-95.5 257.5t73 329q42 98 106.5 178t175 134z" />
    <glyph glyph-name="p" unicode="p" horiz-adv-x="1208" 
d="M958 922q-82 0 -183 -98.5t-191.5 -257t-151.5 -457.5q72 -61 184.5 -61.5t207 85.5t144.5 208q101 246 101 413.5t-111 167.5zM1044 1028q227 0 228 -274q0 -144 -82 -342q-47 -114 -114.5 -208.5t-184.5 -161.5t-261 -67t-218 45l-113 -491l-182 -25l286 1309
q15 64 4.5 80t-34.5 18l-127 11l12 49l371 57l10 -10l-117 -432h6q113 211 253.5 326.5t262.5 115.5z" />
    <glyph glyph-name="q" unicode="q" horiz-adv-x="1144" 
d="M451 82q129 0 311 237q174 233 250 594q-59 43 -161 43t-205 -80q-102 -80 -164 -198q-130 -246 -130 -421t99 -175zM150 200.5q0 106.5 24.5 210t81.5 214t137 199.5t204 146.5t257 57.5t213 -45l88 92h78l-365 -1530l-190 -41l203 885h-7q-113 -188 -257 -301
t-273 -113q-84 0 -139 59.5t-55 166z" />
    <glyph glyph-name="r" unicode="r" horiz-adv-x="823" 
d="M897 1028q96 0 92 -90q0 -45 -29.5 -86t-64.5 -41t-75 25.5t-70 25.5q-59 0 -129 -122t-125 -322q-18 -66 -55.5 -216.5t-51.5 -201.5l-176 -25l188 838q7 39 9 55q4 39 -39 43l-127 11l12 49l352 57l10 -10l-92 -340h4q82 164 180.5 257t186.5 93z" />
    <glyph glyph-name="s" unicode="s" horiz-adv-x="796" 
d="M111 170q0 43 30.5 77t76.5 34t68 -71t73 -117t113 -46t102 41t40 113q0 127 -141 239q-180 144 -180 280t90 222q91 86 229 86t205.5 -51t67.5 -101t-32 -76t-70 -26t-54 41q-63 141 -164 141q-55 0 -91 -41t-36 -92q0 -106 146 -225q102 -84 145 -155.5t43 -157.5
q0 -131 -96 -220.5t-246 -89.5t-234.5 61.5t-84.5 133.5z" />
    <glyph glyph-name="t" unicode="t" horiz-adv-x="698" 
d="M469 82q43 0 106.5 70.5t108.5 146.5l45 -35q-68 -127 -165 -208t-212 -81q-74 0 -98.5 56.5t2.5 144.5l184 750h-170l23 78h166l26 100l199 158l25 -15l-70 -243h260l-22 -78h-256l-183 -746q-25 -98 31 -98z" />
    <glyph glyph-name="u" unicode="u" horiz-adv-x="1265" 
d="M508 82q117 0 237.5 147.5t190 309t156.5 465.5l182 24l-219 -835q-29 -111 26 -111q61 0 189 217l49 -31q-59 -125 -148.5 -209t-193.5 -84q-158 0 -94 222l67 233h-4q-98 -190 -245.5 -322.5t-288.5 -132.5q-215 0 -138 297l142 541q14 47 9 71.5t-40 26.5l-127 11
l12 49l373 57l10 -10l-196 -756q-47 -180 51 -180z" />
    <glyph glyph-name="v" unicode="v" horiz-adv-x="1044" 
d="M1090 1028q8 0 23 -22q40 -60 39 -147t-67.5 -237.5t-171.5 -291.5q-262 -354 -495 -355q-92 0 -131 67t-11 202l125 569q12 51 7 73.5t-37 24.5l-127 11l12 49l362 57l11 -10l-178 -793q-16 -70 4 -106.5t61 -36.5q82 -2 185.5 99.5t179 257t84.5 290.5q0 170 -25 256
q70 43 150 43z" />
    <glyph glyph-name="w" unicode="w" horiz-adv-x="1607" 
d="M520 82q111 0 262 229q120 181 246 686l176 13l-143 -645q-61 -283 67 -283q80 0 177.5 106.5t166 266t68.5 302.5t-24 228q70 43 147 43q7 0 23 -22q40 -55 39 -142.5t-64.5 -239t-163.5 -296.5q-242 -352 -457 -353q-88 0 -130 54.5t-42 125t33 238.5l-4 4
q-94 -188 -222 -305t-253 -117q-92 0 -135 70t-11 209l130 559q14 53 8 74.5t-39 23.5l-125 11l10 49l367 57l10 -10l-180 -770q-20 -84 0 -125t63 -41z" />
    <glyph glyph-name="x" unicode="x" horiz-adv-x="1056" 
d="M63 77q0 42 25 73.5t54.5 31.5t76.5 -24t74 -25q61 0 213 256l57 98l-74 297q-16 68 -30.5 86.5t-42.5 16.5l-154 -10l-6 49l338 102l12 -8l82 -344h4l90 139q133 213 273 213q104 0 104 -88q0 -41 -26.5 -69.5t-56.5 -28.5t-65.5 16t-62.5 16q-72 0 -237 -294l65 -269
q35 -141 53.5 -185t47.5 -44q51 0 121 126q12 20 40 75l54 -29q-102 -208 -191 -255q-45 -24 -108.5 -24t-101.5 59.5t-70 192.5l-37 160h-4l-82 -135q-39 -61 -52.5 -84t-49.5 -71q-92 -122 -197 -122q-63 0 -99.5 30t-36.5 72z" />
    <glyph glyph-name="y" unicode="y" horiz-adv-x="958" 
d="M-10 -382q0 44 32 82q73 85 144 -9q47 -63 81 -63.5t69.5 39.5t74.5 132.5t39 227.5q0 238 -68 716q-12 84 -25 113t-46 27l-139 -4l-7 51l344 98l17 -8q53 -281 82 -895h6q250 430 285 555t30 297q76 51 160 51q19 0 28 -41t9 -65.5t-6 -48t-22.5 -57.5t-31 -61.5
t-42 -74.5t-44 -74.5t-51.5 -84t-70.5 -115t-96 -163t-112.5 -194.5q-52 -89 -90 -155t-70 -118q-102 -168 -158 -210q-82 -62 -160.5 -62t-120 35t-41.5 79z" />
    <glyph glyph-name="z" unicode="z" horiz-adv-x="958" 
d="M80 36.5q0 61.5 47 109.5t721 726h-361q-35 0 -60.5 -9t-53.5 -44t-80 -129l-51 23q61 195 137 291h665l17 -29q-252 -246 -709 -723q51 -6 201 -61t223 -56q43 0 81 41t57.5 83t54.5 126l57 -14q-49 -193 -104.5 -294.5t-147.5 -101.5t-299 82q-49 19 -126 57t-101.5 38
t-24.5 -37v-90q0 -23 -33.5 -36.5t-62.5 -13.5q-47 0 -47 61.5z" />
    <glyph glyph-name="braceleft" unicode="{" horiz-adv-x="696" 
d="M528 -262q-102 0 -175 43t-76 137t83 283t78 240q-4 24 -15 53q-20 53 -140 57l16 53q179 5 215 149q18 72 18 199q13 276 110 372q97 95 261 93h35l-14 -51q-170 -12 -217 -131q-25 -70 -30 -248t-28 -242q-45 -123 -215 -161v-13q76 -16 112 -51q62 -60 4 -219
q-22 -59 -84 -197t-60 -200q6 -104 161 -115l-16 -51h-23z" />
    <glyph glyph-name="bar" unicode="|" horiz-adv-x="552" 
d="M338 -512v2048h139v-2048h-139z" />
    <glyph glyph-name="braceright" unicode="}" horiz-adv-x="696" 
d="M438 1417q102 0 175 -43t76 -134t-82 -282t-79 -244q4 -24 16 -52q21 -51 140 -58l-16 -53q-105 -3 -174 -66q-23 -20 -37 -76q-17 -67 -25 -242q-9 -175 -70 -289q-73 -140 -299 -140h-32l14 51q170 12 217 131q23 62 29 244t28 246q45 123 216 161v13q-76 16 -112 51
q-62 60 -4 219q22 58 84 192t60 205q-6 104 -162 115l17 51h20z" />
    <glyph glyph-name="asciitilde" unicode="~" horiz-adv-x="1167" 
d="M907 535q45 -1 75 23t77 93l82 -51q-94 -207 -246 -207q-57 0 -195 47q-125 47 -182 47q-57 1 -92 -29t-70 -98l-84 52q46 100 106 158t146 58t205 -46q133 -47 178 -47z" />
    <glyph glyph-name="uni00A0" unicode="&#xa0;" horiz-adv-x="460" 
 />
    <glyph glyph-name="exclamdown" unicode="&#xa1;" horiz-adv-x="491" 
d="M309 895q0 55 37 94t93 39t88 -33t32 -90t-37 -95t-93 -38t-88 34t-32 89zM49 -305l287 880h57l-112 -890q-8 -63 -39 -97t-108 -32q-76 0 -94 39t9 100z" />
    <glyph glyph-name="cent" unicode="&#xa2;" horiz-adv-x="1085" 
d="M459 567q-4 -242 166 -284l196 870q-111 0 -197 -104q-86 -105 -124 -235q-39 -130 -41 -247zM264 563q4 250 163 453t411 211l30 143l84 -2l-28 -141q117 -5 210 -61t91 -142q0 -45 -38 -70t-77 -22q-45 0 -55 51q-19 78 -61 123t-87 47l-202 -889q199 0 348 187l45 -39
q-150 -229 -414 -234l-49 -221h-84l49 221q-116 4 -218 82q-54 41 -87 120t-31 183z" />
    <glyph glyph-name="sterling" unicode="&#xa3;" horiz-adv-x="1085" 
d="M868 1393q154 0 242 -66t86 -135q0 -49 -34 -74t-70 -24q-39 0 -52 51q-51 176 -209 176q-98 0 -157 -72q-111 -136 -25 -455q26 -94 33 -120h303l-18 -78h-277q4 -57 -8 -121q-33 -188 -268 -319l2 -9h444q84 0 135 60q32 32 39 49l53 -20l-131 -236h-860l-6 10l47 82
q141 50 237 110q190 120 126 394h-250l18 78h219q-53 158 -50 318t115 281q112 120 316 120z" />
    <glyph glyph-name="currency" unicode="&#xa4;" horiz-adv-x="1085" 
d="M371 684q0 -152 87 -252t220 -100t220 100t87 252t-87 252t-220 100t-220 -100t-87 -252zM223 684q0 162 94 283l-79 61q-92 72 -20 131t130 -29l55 -79q101 94 275 94t274 -94l56 79q59 88 131 29t-21 -131l-80 -61q94 -121 94 -283t-94 -283l80 -61q92 -72 20 -131
t-130 29l-56 79q-100 -94 -274 -94t-275 94l-55 -79q-59 -88 -131 -29t21 131l79 61q-94 121 -94 283z" />
    <glyph glyph-name="yen" unicode="&#xa5;" horiz-adv-x="1085" 
d="M219 383l21 74h307l33 180h-306l21 74h266l-137 514q-20 78 -62 80l-71 4l14 59h451l-13 -59l-86 -4q-61 -2 -49 -58l123 -536h4q53 78 184 263q130 185 173 255t-2 71l-105 9l12 59h396l-13 -59l-43 -2q-76 -2 -149 -103l-371 -493h285l-19 -74h-319l-43 -180h334
l-19 -74h-331l-56 -254q-10 -53 51 -59l123 -11l-12 -59h-541l13 59l123 11q55 4 67 59l57 254h-311z" />
    <glyph glyph-name="brokenbar" unicode="&#xa6;" horiz-adv-x="552" 
d="M338 666v716h139v-716h-139zM338 -358v716h139v-716h-139z" />
    <glyph glyph-name="section" unicode="&#xa7;" horiz-adv-x="1085" 
d="M371 831q-4 -178 211 -329q258 -178 284 -328q135 102 138 250q2 195 -207 344q-248 172 -269 309q-66 -35 -110 -99t-47 -147zM549 -164q72 0 124 50t54 132q0 136 -99 235q-50 51 -143 111t-153 136q-59 76 -73 127q-13 51 -11 110q2 127 79 240t197 194q12 97 102 187
t240 90t224 -52t72 -104t-32 -71q-82 -53 -118 30q-55 125 -172 125q-72 0 -125 -50t-56 -124q0 -143 203 -272q138 -90 200 -182t60 -218q-4 -229 -250 -450q-14 -141 -110 -228q-96 -88 -250 -88t-242 60t-86 129q0 49 33 74q83 63 121 -29q68 -162 211 -162z" />
    <glyph glyph-name="dieresis" unicode="&#xa8;" horiz-adv-x="819" 
d="M527 1171q-51 0 -77 28t-26 78t35 85t83 35t74 -30t27 -77q0 -47 -33 -83t-83 -36zM953 1171q-51 0 -77 28t-26 78t35 85t83 35t74 -30t27 -77q0 -47 -33 -83t-83 -36z" />
    <glyph glyph-name="copyright" unicode="&#xa9;" horiz-adv-x="1712" 
d="M614 715q0 188 112 300q112 111 304 111t289 -63v-201h-41q-18 98 -68 152t-176 55q-126 0 -190 -96t-64 -240t62 -257q62 -114 211 -114q98 0 155 50t86 161h41l-22 -204q-86 -63 -291 -63q-204 0 -306 110q-102 111 -102 299zM389 709q0 -271 178 -459
q179 -188 437 -188t436 186q178 188 178 460t-178 460t-436 188t-436 -188t-179 -459zM258 709q0 307 218 523t528 216t527 -216q218 -216 218 -523t-218 -523t-527 -217q-309 0 -528 216q-218 217 -218 524z" />
    <glyph glyph-name="ordfeminine" unicode="&#xaa;" horiz-adv-x="870" 
d="M391 703q0 -75 62 -74q45 0 103 52t110 130q92 137 147 313q-20 27 -86 27q-94 0 -175 -84q-81 -85 -121 -187t-40 -177zM229 698q0 68 32 152q81 212 241 303q96 55 186 55t135 -26l6 16h150l-143 -493q-23 -76 8 -76q45 0 129 131l41 -25q-43 -86 -111 -139t-130 -53
t-83 36q-20 36 -2 97l41 139h-6q-178 -272 -356 -272q-70 -1 -104 43t-34 112z" />
    <glyph glyph-name="guillemotleft" unicode="&#xab;" horiz-adv-x="946" 
d="M240 457q-23 33 8 63l346 371l41 -35l-209 -334q-20 -33 -8 -69l112 -338l-47 -31zM639 457q-23 33 8 63l346 371l41 -35l-209 -334q-20 -33 -8 -69l113 -338l-47 -31z" />
    <glyph glyph-name="logicalnot" unicode="&#xac;" horiz-adv-x="1167" 
d="M190 678v119h992v-588h-140v469h-852z" />
    <glyph glyph-name="uni00AD" unicode="&#xad;" horiz-adv-x="802" 
d="M240 442l28 144h502l-29 -144h-501z" />
    <glyph glyph-name="registered" unicode="&#xae;" horiz-adv-x="1712" 
d="M903 741h78q176 0 176 154t-162 154q-59 1 -75 -9t-17 -34v-265zM666 326v41l63 8q41 4 41 57v563q0 31 -8 44t-33 18l-63 8v41h368q266 0 266 -193q0 -82 -54 -131t-144 -63v-4q84 -21 115 -67t45 -128t55 -129q20 -20 72 -35v-30h-91q-119 0 -149 88q-13 42 -29 116
t-24 93q-29 61 -123 61h-70v-252q0 -53 45 -57l62 -8v-41h-344zM389 709q0 -271 178 -459q179 -188 437 -188t436 186q178 188 178 460t-178 460t-436 188t-436 -188t-179 -459zM258 709q0 307 218 523t528 216t527 -216q218 -216 218 -523t-218 -523t-527 -217
q-309 0 -528 216q-218 217 -218 524z" />
    <glyph glyph-name="macron" unicode="&#xaf;" horiz-adv-x="819" 
d="M467 1223l37 120h569l-37 -120h-569z" />
    <glyph glyph-name="degree" unicode="&#xb0;" horiz-adv-x="819" 
d="M665 926q69 0 119 53t50 131t-50 131t-120 53q-68 0 -118 -53t-49 -131t50 -131t118 -53zM665 1393q115 0 199 -84t84 -200t-84 -199t-200 -83t-198 83q-83 83 -84 199t83 200t200 84z" />
    <glyph glyph-name="plusminus" unicode="&#xb1;" horiz-adv-x="1167" 
d="M190 0v119h992v-119h-992zM190 637v119h428v383h140v-383h424v-119h-424v-404h-140v404h-428z" />
    <glyph glyph-name="twosuperior" unicode="&#xb2;" horiz-adv-x="757" 
d="M719 1202q0 133 -109 133q-53 0 -95 -41t-66 -120q-11 -44 -49 -44t-62 20t-25 46q0 66 84 132t218 65q134 1 204 -61t70 -162t-76 -164q-75 -63 -203 -120t-200 -113t-91 -95h318q45 0 69 14t54 53l45 -14l-74 -174h-573l-15 18q29 76 112 160t185 137q279 145 279 330z
" />
    <glyph glyph-name="threesuperior" unicode="&#xb3;" horiz-adv-x="757" 
d="M410 1042l129 -16q82 0 126 59t44 125t-29 96t-72 30q-74 -1 -123 -67q-15 -24 -37 -65t-54 -41q-32 1 -54 21t-21 43q0 59 78 112t205 53t197 -54q69 -56 69 -143t-61 -138t-160 -60v-4q88 -16 127 -72t39 -124q0 -109 -87 -182t-263 -72q-123 0 -197 51q-73 52 -73 111
q-1 29 23 55t60 24q33 0 52 -53q43 -131 149 -131q76 0 121 62t45 157q0 143 -125 144l-112 -15q-27 0 -27 30t10 47q11 17 21 17z" />
    <glyph glyph-name="acute" unicode="&#xb4;" horiz-adv-x="819" 
d="M885 1481q25 0 53 -30t27 -58q0 -49 -115 -111l-309 -172l-31 41l244 246q82 84 131 84z" />
    <glyph glyph-name="uni00B5" unicode="&#xb5;" horiz-adv-x="1265" 
d="M508 82q118 0 238 147t190 309t156 466l182 24l-219 -835q-29 -111 26 -111q61 0 189 217l49 -31q-59 -125 -149 -209t-193 -84q-158 0 -94 222l67 233h-4q-96 -188 -242 -321t-278 -134q-61 0 -111 48l-16 -66q-23 -82 -2 -183t20 -122q0 -49 -59 -88t-111 -39
q-72 0 -47 92l316 1196q14 47 9 72t-40 26l-127 11l12 49l373 57l10 -10l-196 -756q-47 -180 51 -180z" />
    <glyph glyph-name="paragraph" unicode="&#xb6;" horiz-adv-x="1146" 
d="M485 -207l11 53l155 19q33 4 49 21t25 61l307 1470h344l-10 -53l-143 -18q-33 -4 -48 -18t-24 -58l-309 -1477h-357zM295 895q0 213 161 368t394 154h24l-188 -905h-22q-162 0 -266 108t-103 275z" />
    <glyph glyph-name="periodcentered" unicode="&#xb7;" horiz-adv-x="542" 
d="M254 506q0 57 37 95t93 38t88 -34t32 -89t-37 -94t-93 -39t-88 33t-32 90z" />
    <glyph glyph-name="cedilla" unicode="&#xb8;" horiz-adv-x="819" 
d="M334 -471q-84 0 -135 20l8 50q82 -11 141 11t60 89q0 43 -31 74t-82 32l-6 19l123 176h92l-90 -123q74 -10 118 -66q44 -57 29 -129q-14 -72 -79 -112q-64 -40 -148 -41z" />
    <glyph glyph-name="onesuperior" unicode="&#xb9;" horiz-adv-x="757" 
d="M256 557l10 47l105 8q55 2 63 47l127 592q8 37 -29 41l-112 19l6 39l307 43l6 -9l-155 -725q-8 -45 45 -47l98 -8l-10 -47h-461z" />
    <glyph glyph-name="ordmasculine" unicode="&#xba;" horiz-adv-x="796" 
d="M408 735q0 -67 30 -101t84 -34q115 0 191 168q59 133 59 244q0 139 -111 139q-111 1 -182 -145t-71 -271zM248 799q0 124 82 241q113 168 321 168q117 0 199 -57t82 -189t-80 -251q-117 -168 -332 -168q-131 0 -202 66q-70 66 -70 190z" />
    <glyph glyph-name="guillemotright" unicode="&#xbb;" horiz-adv-x="946" 
d="M131 119l209 334q20 33 8 69l-112 338l47 31l243 -373q23 -33 -8 -63l-346 -371zM530 119l209 334q20 33 9 69l-113 338l47 31l244 -373q23 -33 -8 -63l-347 -371z" />
    <glyph glyph-name="onequarter" unicode="&#xbc;" horiz-adv-x="1822" 
d="M270 557l11 47l104 8q55 2 64 47l126 592q8 37 -28 41l-113 19l6 39l308 43l6 -9l-156 -725q-8 -45 45 -47l98 -8l-10 -47h-461zM475 12l1098 1418l69 -56l-1099 -1423zM1180 281h258l88 393h-13q-149 -149 -333 -393zM1055 246q248 307 514 575h127l-115 -540h139
l-20 -68h-133l-23 -111q-8 -45 35 -49l68 -6l-11 -47h-395l10 47l95 6q47 4 55 49l22 111h-350z" />
    <glyph glyph-name="onehalf" unicode="&#xbd;" horiz-adv-x="1822" 
d="M1565 645q0 133 -109 133q-53 0 -95 -41t-67 -121q-12 -43 -49 -43q-37 1 -61 21t-25 45q0 65 84 131t218 66t204 -62t70 -162t-76 -163t-204 -120t-200 -113t-90 -95h318q45 0 69 14t54 53l45 -14l-74 -174h-573l-15 18q29 76 112 160t185 137q279 145 279 330zM217 557
l10 47l105 8q55 2 63 47l127 592q8 37 -28 41l-113 19l6 39l307 43l6 -9l-155 -725q-8 -45 45 -47l98 -8l-10 -47h-461zM369 12l1097 1418l70 -56l-1100 -1423z" />
    <glyph glyph-name="threequarters" unicode="&#xbe;" horiz-adv-x="1822" 
d="M504 1042l129 -16q82 0 126 59t44 125t-29 96t-72 30q-76 -1 -122 -67q-16 -24 -38 -65t-54 -41q-32 1 -54 21t-20 43q0 59 78 112t204 53t197 -54q70 -56 70 -143q1 -87 -61 -138t-161 -60v-4q88 -16 127 -72t39 -124q0 -109 -87 -182t-263 -72q-123 0 -197 51
q-73 52 -73 111q-1 29 23 55t61 24q33 0 51 -53q43 -131 149 -131q76 0 121 62t45 157q0 143 -125 144l-112 -15q-27 0 -27 30t10 47q9 17 21 17zM522 12l1098 1418l70 -56l-1100 -1423zM1202 281h258l88 393h-12q-150 -149 -334 -393zM1077 246q248 307 514 575h127
l-114 -540h139l-21 -68h-133l-22 -111q-8 -45 35 -49l67 -6l-10 -47h-395l10 47l94 6q47 4 55 49l23 111h-350z" />
    <glyph glyph-name="questiondown" unicode="&#xbf;" horiz-adv-x="870" 
d="M526 895q0 55 37 94t93 39t88 -33t32 -90t-37 -95t-93 -38t-88 34t-32 89zM748 -211q0 -76 -96 -155q-96 -78 -248 -78t-239 72t-87 190t62 186t188 131t186 119q59 56 59 124q0 126 -131 126q-14 0 -88 -6l-12 34q88 64 188 64t162 -44q63 -44 64 -132q0 -129 -213 -252
q-139 -82 -207 -185t-68 -189q0 -168 121 -167q121 0 205 213q14 39 53 39q39 -1 70 -25t31 -65z" />
    <glyph glyph-name="Agrave" unicode="&#xc0;" horiz-adv-x="1277" 
d="M539 625h407l-72 602h-4q-245 -442 -331 -602zM-47 0l12 59l68 9q87 7 143 101q26 44 371 644l344 604h145l152 -1233q8 -68 22.5 -91t59.5 -27l78 -7l-13 -59h-504l13 59l108 11q33 4 44.5 20t7.5 60l-48 397h-458q-59 -109 -211 -402q-31 -70 26 -75l113 -11l-12 -59
h-461zM629 1725q0 26 22.5 63t56.5 37t119 -58l297 -202l-22 -45l-348 114q-82 23 -103.5 44t-21.5 47z" />
    <glyph glyph-name="Aacute" unicode="&#xc1;" horiz-adv-x="1277" 
d="M539 625h407l-72 602h-4q-245 -442 -331 -602zM-47 0l12 59l68 9q87 7 143 101q26 44 371 644l344 604h145l152 -1233q8 -68 22.5 -91t59.5 -27l78 -7l-13 -59h-504l13 59l108 11q33 4 44.5 20t7.5 60l-48 397h-458q-59 -109 -211 -402q-31 -70 26 -75l113 -11l-12 -59
h-461zM1294 1725q0 -26 -19.5 -45.5t-105.5 -45.5l-348 -114l-22 45l297 202q86 57 119.5 57.5t56 -36.5t22.5 -63z" />
    <glyph glyph-name="Acircumflex" unicode="&#xc2;" horiz-adv-x="1277" 
d="M539 625h407l-72 602h-4q-245 -442 -331 -602zM-47 0l12 59l68 9q87 7 143 101q26 44 371 644l344 604h145l152 -1233q8 -68 22.5 -91t59.5 -27l78 -7l-13 -59h-504l13 59l108 11q33 4 44.5 20t7.5 60l-48 397h-458q-59 -109 -211 -402q-31 -70 26 -75l113 -11l-12 -59
h-461zM1017 1794q28 0 68 -51l187 -225l-37 -39l-184 120q-43 33 -64.5 33t-75.5 -28l-239 -125l-27 41l287 227q57 47 85 47z" />
    <glyph glyph-name="Atilde" unicode="&#xc3;" horiz-adv-x="1277" 
d="M539 625h407l-72 602h-4q-245 -442 -331 -602zM-47 0l12 59l68 9q87 7 143 101q26 44 371 644l344 604h145l152 -1233q8 -68 22.5 -91t59.5 -27l78 -7l-13 -59h-504l13 59l108 11q33 4 44.5 20t7.5 60l-48 397h-458q-59 -109 -211 -402q-31 -70 26 -75l113 -11l-12 -59
h-461zM847 1708q52 0 157 -39q121 -39 158.5 -39t64 18.5t71.5 75.5l41 -22q-51 -100 -97 -147.5t-100.5 -47.5t-173 39t-168.5 39t-82 -23.5t-67 -80.5l-39 26q77 151 146 183q37 18 89 18z" />
    <glyph glyph-name="Adieresis" unicode="&#xc4;" horiz-adv-x="1277" 
d="M539 625h407l-72 602h-4q-245 -442 -331 -602zM-47 0l12 59l68 9q87 7 143 101q26 44 371 644l344 604h145l152 -1233q8 -68 22.5 -91t59.5 -27l78 -7l-13 -59h-504l13 59l108 11q33 4 44.5 20t7.5 60l-48 397h-458q-59 -109 -211 -402q-31 -70 26 -75l113 -11l-12 -59
h-461zM655 1617q0 50 35 85t83 35t74.5 -30t26.5 -77t-32.5 -83t-82.5 -36t-77 28t-27 78zM1081 1617q0 50 35 85t83 35t74.5 -30t26.5 -77t-32.5 -83t-82.5 -36t-77 28t-27 78z" />
    <glyph glyph-name="Aring" unicode="&#xc5;" horiz-adv-x="1277" 
d="M872 1526q0 -53 24 -81t68 -28t74 39q31 39 37 74q6 36 6 74t-23 65q-24 27 -59 27q-67 0 -97 -58t-30 -112zM539 625h407l-72 602h-4q-274 -493 -331 -602zM1198 1575q0 -90 -45 -143t-111 -70l146 -1178q8 -68 22 -92t60 -26l78 -7l-13 -59h-504l13 59l108 11
q33 4 44 20t8 60l-48 397h-458q-59 -109 -211 -402q-31 -70 26 -75l113 -11l-12 -59h-461l12 59l68 9q87 7 143 101q26 44 371 644l319 551q-111 43 -110 162q0 68 44 143q24 41 78 68t131 27t133 -50q56 -49 56 -139z" />
    <glyph glyph-name="AE" unicode="&#xc6;" horiz-adv-x="1802" 
d="M702 776h306l129 563h-11zM1626 1346h-248q-27 0 -38 -11.5t-19 -48.5l-117 -510h269q159 0 205 64q22 32 51 110h61l-94 -428h-62q6 109 -22.5 142.5t-155.5 33.5h-268l-105 -448q-16 -72 -14 -102.5t31 -53.5t224.5 -22.5t283.5 53.5t164 235h61l-104 -360h-1070l13 59
l114 13q37 2 54.5 23.5t29.5 74.5l119 528h-342q-238 -317 -387 -553q-45 -70 14 -75l121 -11l-16 -59h-488l17 59l69 7q41 4 69 24q92 67 880 1137q86 115 24 119l-137 12l18 59h1168l-78 -342h-61q10 92 5 152.5t-59.5 89.5t-179.5 29z" />
    <glyph glyph-name="Ccedilla" unicode="&#xc7;" horiz-adv-x="1353" 
d="M233 563q0 287 140 512q100 164 280.5 268.5t446.5 104.5q117 0 243.5 -28.5t208.5 -80.5l-73 -307h-62q8 174 -69.5 259t-264.5 85q-309 0 -483 -291q-72 -119 -109.5 -274.5t-37.5 -300.5q0 -229 111.5 -349t290.5 -120t278.5 82t195.5 258h62l-101 -326
q-172 -86 -416 -86h-14l-67 -92q74 -10 117.5 -66.5t29.5 -128.5t-78.5 -112.5t-148.5 -40.5t-135 20l8 50q82 -10 141 11t59 89q0 43 -30.5 73.5t-81.5 32.5l-6 19l104 151q-338 27 -471 284q-68 131 -68 304z" />
    <glyph glyph-name="Egrave" unicode="&#xc8;" horiz-adv-x="1220" 
d="M1044 1346h-247q-27 0 -38 -11.5t-20 -48.5l-116 -510h268q159 0 205 64q22 32 51 110h61l-94 -428h-61q6 109 -23 142.5t-156 33.5h-268l-104 -448q-16 -72 -14.5 -102.5t30.5 -53.5t224.5 -22.5t283.5 53.5t164 235h61l-104 -360h-1069l12 59l115 13q37 2 54 23.5
t30 74.5l246 1081q12 53 1.5 74t-47.5 25l-122 8l14 59h1036l-78 -342h-61q10 92 5 152.5t-59.5 89.5t-179.5 29zM641 1725q0 26 22.5 63t56.5 37t120 -58l297 -202l-23 -45l-348 114q-82 23 -103.5 44t-21.5 47z" />
    <glyph glyph-name="Eacute" unicode="&#xc9;" horiz-adv-x="1220" 
d="M1044 1346h-247q-27 0 -38 -11.5t-20 -48.5l-116 -510h268q159 0 205 64q22 32 51 110h61l-94 -428h-61q6 109 -23 142.5t-156 33.5h-268l-104 -448q-16 -72 -14.5 -102.5t30.5 -53.5t224.5 -22.5t283.5 53.5t164 235h61l-104 -360h-1069l12 59l115 13q37 2 54 23.5
t30 74.5l246 1081q12 53 1.5 74t-47.5 25l-122 8l14 59h1036l-78 -342h-61q10 92 5 152.5t-59.5 89.5t-179.5 29zM1313 1725q0 -26 -20 -45.5t-105 -45.5l-348 -114l-23 45l297 202q86 57 120 57.5t56.5 -36.5t22.5 -63z" />
    <glyph glyph-name="Ecircumflex" unicode="&#xca;" horiz-adv-x="1220" 
d="M1044 1346h-247q-27 0 -38 -11.5t-20 -48.5l-116 -510h268q159 0 205 64q22 32 51 110h61l-94 -428h-61q6 109 -23 142.5t-156 33.5h-268l-104 -448q-16 -72 -14.5 -102.5t30.5 -53.5t224.5 -22.5t283.5 53.5t164 235h61l-104 -360h-1069l12 59l115 13q37 2 54 23.5
t30 74.5l246 1081q12 53 1.5 74t-47.5 25l-122 8l14 59h1036l-78 -342h-61q10 92 5 152.5t-59.5 89.5t-179.5 29zM1000 1794q28 0 69 -51l186 -225l-36 -39l-185 120q-43 33 -64 33t-75 -28l-240 -125l-26 41l286 227q57 47 85 47z" />
    <glyph glyph-name="Edieresis" unicode="&#xcb;" horiz-adv-x="1220" 
d="M1044 1346h-247q-27 0 -38 -11.5t-20 -48.5l-116 -510h268q159 0 205 64q22 32 51 110h61l-94 -428h-61q6 109 -23 142.5t-156 33.5h-268l-104 -448q-16 -72 -14.5 -102.5t30.5 -53.5t224.5 -22.5t283.5 53.5t164 235h61l-104 -360h-1069l12 59l115 13q37 2 54 23.5
t30 74.5l246 1081q12 53 1.5 74t-47.5 25l-122 8l14 59h1036l-78 -342h-61q10 92 5 152.5t-59.5 89.5t-179.5 29zM627 1617q0 50 34.5 85t83 35t75 -30t26.5 -77t-33 -83t-83 -36t-76.5 28t-26.5 78zM1053 1617q0 50 34.5 85t83 35t75 -30t26.5 -77t-33 -83t-83 -36
t-76.5 28t-26.5 78z" />
    <glyph glyph-name="Igrave" unicode="&#xcc;" horiz-adv-x="706" 
d="M82 0l12 59l113 13q37 2 56.5 25.5t29.5 72.5l246 1077q23 96 -45 103l-121 8l14 59h561l-14 -59l-113 -10q-37 -2 -55 -27t-31 -74l-246 -1077q-23 -96 46 -102l120 -9l-12 -59h-561zM373 1725q0 26 22.5 63t56.5 37t119 -58l297 -202l-22 -45l-348 114
q-82 23 -103.5 44t-21.5 47z" />
    <glyph glyph-name="Iacute" unicode="&#xcd;" horiz-adv-x="706" 
d="M82 0l12 59l113 13q37 2 56.5 25.5t29.5 72.5l246 1077q23 96 -45 103l-121 8l14 59h561l-14 -59l-113 -10q-37 -2 -55 -27t-31 -74l-246 -1077q-23 -96 46 -102l120 -9l-12 -59h-561zM995 1725q0 -26 -19.5 -45.5t-105.5 -45.5l-348 -114l-22 45l297 202
q86 57 119.5 57.5t56 -36.5t22.5 -63z" />
    <glyph glyph-name="Icircumflex" unicode="&#xce;" horiz-adv-x="706" 
d="M82 0l12 59l113 13q37 2 56.5 25.5t29.5 72.5l246 1077q23 96 -45 103l-121 8l14 59h561l-14 -59l-113 -10q-37 -2 -55 -27t-31 -74l-246 -1077q-23 -96 46 -102l120 -9l-12 -59h-561zM744 1794q28 0 69 -51l186 -225l-36 -39l-185 120q-43 33 -64 33t-75 -28l-240 -125
l-26 41l286 227q57 47 85 47z" />
    <glyph glyph-name="Idieresis" unicode="&#xcf;" horiz-adv-x="706" 
d="M82 0l12 59l113 13q37 2 56.5 25.5t29.5 72.5l246 1077q23 96 -45 103l-121 8l14 59h561l-14 -59l-113 -10q-37 -2 -55 -27t-31 -74l-246 -1077q-23 -96 46 -102l120 -9l-12 -59h-561zM371 1617q0 50 34.5 85t83 35t75 -30t26.5 -77t-33 -83t-83 -36t-76.5 28t-26.5 78z
M797 1617q0 50 34.5 85t83 35t75 -30t26.5 -77t-33 -83t-83 -36t-76.5 28t-26.5 78z" />
    <glyph glyph-name="Eth" unicode="&#xd0;" horiz-adv-x="1576" 
d="M672 72q242 0 390 82t243 237q133 219 133 496q0 59 -6 110t-34 118t-75 114t-137 81t-215 35t-166 -11t-53 -64l-111 -494h281l-23 -78h-276l-119 -522q-14 -63 28 -84q43 -20 140 -20zM950 1417q531 0 662 -333q45 -114 45 -242q0 -264 -137 -471q-246 -371 -795 -371
h-629l13 59l114 13q37 2 56 24q18 23 28 74l119 528h-219l20 78h217l107 471q10 51 1 75t-44 26l-121 10l12 59h551z" />
    <glyph glyph-name="Ntilde" unicode="&#xd1;" horiz-adv-x="1562" 
d="M63 0l11 59l63 7q92 8 121 88q37 102 72 254l192 839q23 92 -45 99l-121 12l15 59h389q172 -383 524 -1149h8l168 742q33 147 43 254q4 47 -17 63q-22 16 -77 23l-80 8l10 59h484l-11 -59l-63 -6q-92 -8 -121 -88q-37 -102 -72 -254l-229 -1010h-133q-377 831 -569 1247
h-7l-192 -839q-33 -147 -43 -254q-4 -45 18 -65q23 -19 76 -23l80 -7l-10 -59h-484zM990 1708q52 0 157 -39q121 -39 159 -39t64 18t72 76l41 -22q-51 -100 -97 -148t-101 -47q-54 0 -173 39t-169 39q-50 1 -82 -23t-66 -81l-39 26q42 81 80 129q56 72 154 72z" />
    <glyph glyph-name="Ograve" unicode="&#xd2;" horiz-adv-x="1542" 
d="M449 471q0 -209 98 -319.5t268 -110.5q332 0 490 410q96 250 96 482t-97.5 337.5t-271.5 105.5q-291 0 -457 -344q-126 -268 -126 -561zM233 560.5q0 271.5 142 510.5q227 377 649 377q268 0 430 -149.5t162 -450.5q0 -256 -129 -490q-98 -178 -251 -283.5t-402 -105.5
q-295 0 -448 160t-153 431.5zM772 1725q0 26 22.5 63t56.5 37t120 -58l297 -202l-23 -45l-348 114q-82 23 -103.5 44t-21.5 47z" />
    <glyph glyph-name="Oacute" unicode="&#xd3;" horiz-adv-x="1542" 
d="M449 471q0 -209 98 -319.5t268 -110.5q332 0 490 410q96 250 96 482t-97.5 337.5t-271.5 105.5q-291 0 -457 -344q-126 -268 -126 -561zM233 560.5q0 271.5 142 510.5q227 377 649 377q268 0 430 -149.5t162 -450.5q0 -256 -129 -490q-98 -178 -251 -283.5t-402 -105.5
q-295 0 -448 160t-153 431.5zM1417 1725q0 -26 -20 -45.5t-105 -45.5l-348 -114l-22 45l297 202q86 57 119.5 57.5t56 -36.5t22.5 -63z" />
    <glyph glyph-name="Ocircumflex" unicode="&#xd4;" horiz-adv-x="1542" 
d="M449 471q0 -209 98 -319.5t268 -110.5q332 0 490 410q96 250 96 482t-97.5 337.5t-271.5 105.5q-291 0 -457 -344q-126 -268 -126 -561zM233 560.5q0 271.5 142 510.5q227 377 649 377q268 0 430 -149.5t162 -450.5q0 -256 -129 -490q-98 -178 -251 -283.5t-402 -105.5
q-295 0 -448 160t-153 431.5zM1138 1794q28 0 68 -51l187 -225l-37 -39l-185 120q-43 33 -64 33t-75 -28l-239 -125l-27 41l287 227q57 47 85 47z" />
    <glyph glyph-name="Otilde" unicode="&#xd5;" horiz-adv-x="1542" 
d="M449 471q0 -209 98 -319.5t268 -110.5q332 0 490 410q96 250 96 482t-97.5 337.5t-271.5 105.5q-291 0 -457 -344q-126 -268 -126 -561zM233 560.5q0 271.5 142 510.5q227 377 649 377q268 0 430 -149.5t162 -450.5q0 -256 -129 -490q-98 -178 -251 -283.5t-402 -105.5
q-295 0 -448 160t-153 431.5zM955 1708q52 0 157 -39q121 -39 159 -39t64.5 18.5t71.5 75.5l41 -22q-51 -100 -97 -147.5t-100.5 -47.5t-173.5 39t-169 39t-81.5 -23.5t-66.5 -80.5l-39 26q77 151 145 183q37 18 89 18z" />
    <glyph glyph-name="Odieresis" unicode="&#xd6;" horiz-adv-x="1542" 
d="M449 471q0 -209 98 -319.5t268 -110.5q332 0 490 410q96 250 96 482t-97.5 337.5t-271.5 105.5q-291 0 -457 -344q-126 -268 -126 -561zM233 560.5q0 271.5 142 510.5q227 377 649 377q268 0 430 -149.5t162 -450.5q0 -256 -129 -490q-98 -178 -251 -283.5t-402 -105.5
q-295 0 -448 160t-153 431.5zM788 1617q0 50 35 85t83 35t75 -30t27 -77t-33 -83t-83 -36t-77 28t-27 78zM1214 1617q0 50 35 85t83 35t75 -30t27 -77t-33 -83t-83 -36t-77 28t-27 78z" />
    <glyph glyph-name="multiply" unicode="&#xd7;" horiz-adv-x="1167" 
d="M252 135l366 377l-366 373l84 94l371 -377l368 377l86 -94l-366 -373l366 -377l-86 -90l-368 377l-371 -377z" />
    <glyph glyph-name="Oslash" unicode="&#xd8;" horiz-adv-x="1542" 
d="M815 41q332 0 490 410q96 250 96 503q0 143 -47 238l-815 -1030q96 -121 276 -121zM449 471q0 -139 45 -231l811 1028q-94 109 -273 108q-291 0 -457 -344q-126 -268 -126 -561zM233 552q0 280 142 519q227 377 649 377q211 0 352 -90l119 149l66 -53l-117 -147
q172 -152 172 -459q0 -256 -129 -490q-98 -178 -251 -283t-390 -105t-381 98l-127 -160l-62 57l121 154q-164 153 -164 433z" />
    <glyph glyph-name="Ugrave" unicode="&#xd9;" horiz-adv-x="1626" 
d="M850 41q197 0 295 128t153 363l166 715q23 94 -45 101l-121 10l15 59h561l-14 -59l-113 -10q-37 -2 -55.5 -25t-30.5 -76l-174 -741q-92 -386 -333 -486q-79 -32 -149.5 -41.5t-164.5 -9.5q-283 0 -415.5 132t-62.5 423l173 723q23 94 -46 101l-120 10l14 59h561l-14 -59
l-113 -8q-37 -2 -55.5 -26t-30.5 -77l-162 -696q-119 -510 281 -510zM741 1725q0 26 22.5 63t56.5 37t120 -58l297 -202l-23 -45l-348 114q-82 23 -103.5 44t-21.5 47z" />
    <glyph glyph-name="Uacute" unicode="&#xda;" horiz-adv-x="1626" 
d="M850 41q197 0 295 128t153 363l166 715q23 94 -45 101l-121 10l15 59h561l-14 -59l-113 -10q-37 -2 -55.5 -25t-30.5 -76l-174 -741q-92 -386 -333 -486q-79 -32 -149.5 -41.5t-164.5 -9.5q-283 0 -415.5 132t-62.5 423l173 723q23 94 -46 101l-120 10l14 59h561l-14 -59
l-113 -8q-37 -2 -55.5 -26t-30.5 -77l-162 -696q-119 -510 281 -510zM1540 1725q0 -26 -20 -45.5t-105 -45.5l-348 -114l-23 45l297 202q86 57 120 57.5t56.5 -36.5t22.5 -63z" />
    <glyph glyph-name="Ucircumflex" unicode="&#xdb;" horiz-adv-x="1626" 
d="M850 41q197 0 295 128t153 363l166 715q23 94 -45 101l-121 10l15 59h561l-14 -59l-113 -10q-37 -2 -55.5 -25t-30.5 -76l-174 -741q-92 -386 -333 -486q-79 -32 -149.5 -41.5t-164.5 -9.5q-283 0 -415.5 132t-62.5 423l173 723q23 94 -46 101l-120 10l14 59h561l-14 -59
l-113 -8q-37 -2 -55.5 -26t-30.5 -77l-162 -696q-119 -510 281 -510zM1199 1794q28 0 69 -51l186 -225l-37 -39l-184 120q-43 33 -64.5 33t-74.5 -28l-240 -125l-27 41l287 227q57 47 85 47z" />
    <glyph glyph-name="Udieresis" unicode="&#xdc;" horiz-adv-x="1626" 
d="M850 41q197 0 295 128t153 363l166 715q23 94 -45 101l-121 10l15 59h561l-14 -59l-113 -10q-37 -2 -55.5 -25t-30.5 -76l-174 -741q-92 -386 -333 -486q-79 -32 -149.5 -41.5t-164.5 -9.5q-283 0 -415.5 132t-62.5 423l173 723q23 94 -46 101l-120 10l14 59h561l-14 -59
l-113 -8q-37 -2 -55.5 -26t-30.5 -77l-162 -696q-119 -510 281 -510zM840 1617q0 50 34.5 85t83 35t75 -30t26.5 -77t-33 -83t-83 -36t-76.5 28t-26.5 78zM1266 1617q0 50 34.5 85t82.5 35t75 -30t27 -77t-33 -83t-83 -36t-76.5 28t-26.5 78z" />
    <glyph glyph-name="Yacute" unicode="&#xdd;" horiz-adv-x="1210" 
d="M268 1358l13 59h510l-13 -59l-112 -10q-51 -6 -39 -60l186 -629h6q307 416 432 631q31 57 -30 60l-107 8l12 59h469l-12 -59q-86 -6 -123 -24.5t-92 -80.5q-190 -217 -471 -624q-41 -55 -57 -123l-78 -346q-10 -45 0 -65.5t47 -22.5l156 -13l-13 -59h-635l13 59l147 15
q39 4 56.5 23.5t27.5 62.5l78 344q14 59 0 108q-158 528 -189.5 619.5t-57.5 105t-124 21.5zM1436 1725q0 -26 -20 -45.5t-105 -45.5l-348 -114l-23 45l297 202q86 57 120 57.5t56.5 -36.5t22.5 -63z" />
    <glyph glyph-name="Thorn" unicode="&#xde;" horiz-adv-x="1236" 
d="M1118 807q0 113 -68 177t-184 65t-149 -15t-43 -59l-105 -461q-4 -20 -1 -36q6 -33 163 -33q155 -1 271 91t116 271zM858 1120q213 0 345 -80t130 -260q-2 -102 -46 -179t-106 -119q-161 -109 -460 -109h-186l-46 -203q-25 -96 50 -98l120 -13l-12 -59h-565l12 59l113 13
q37 4 55 26t31 72l246 1077q23 92 -45 99l-121 12l14 59h561l-14 -59l-113 -10q-37 -2 -55 -25t-31 -76l-28 -127h151z" />
    <glyph glyph-name="germandbls" unicode="&#xdf;" horiz-adv-x="1181" 
d="M-60 -274q30 0 60 -45q66 -100 111 -101q37 0 47 62l252 1284h-181l23 78h178l14 45q50 167 167 308q140 166 418 164q149 -1 241 -78t92 -210t-150 -268q-154 1 -217 -51t-63 -126t111 -209q19 -24 24 -28q117 -147 117 -273t-88 -214t-240 -89q-90 0 -162 37t-74 78
t26 69q28 27 60 27t54 -34q68 -100 155 -101q49 0 84 37t35 102q0 102 -129 256t-129 275t85 200t210 85q119 100 119 245q0 97 -58 147t-128 50q-158 0 -253 -160t-167 -479l-168 -746q-70 -307 -150 -433t-227 -126q-74 0 -129 35t-56 79t27 76q29 32 59 32z" />
    <glyph glyph-name="agrave" unicode="&#xe0;" horiz-adv-x="1148" 
d="M557 1393q0 29 27.5 58.5t52.5 29.5q49 0 131 -84l244 -246l-31 -41l-309 172q-115 62 -115 111zM338 225q0 -143 90 -143q133 0 338 311q147 221 219 518q-49 45 -125 45q-113 0 -216 -81.5t-166.5 -199.5t-101.5 -240t-38 -210zM135 210q0 93 27.5 196.5t87 214
t141.5 200.5t204 148.5t235.5 58.5t175.5 -43l10 27h172l-217 -817q-31 -113 20 -113q39 0 92.5 71.5t92.5 145.5l49 -29q-57 -129 -144.5 -212t-195.5 -83q-158 0 -90 230l69 233h-4q-264 -463 -528 -463q-98 0 -147.5 71t-49.5 164z" />
    <glyph glyph-name="aacute" unicode="&#xe1;" horiz-adv-x="1148" 
d="M338 225q0 -143 90 -143q133 0 338 311q147 221 219 518q-49 45 -125 45q-113 0 -216 -81.5t-166.5 -199.5t-101.5 -240t-38 -210zM135 210q0 93 27.5 196.5t87 214t141.5 200.5t204 148.5t235.5 58.5t175.5 -43l10 27h172l-217 -817q-31 -113 20 -113q39 0 92.5 71.5
t92.5 145.5l49 -29q-57 -129 -144.5 -212t-195.5 -83q-158 0 -90 230l69 233h-4q-264 -463 -528 -463q-98 0 -147.5 71t-49.5 164zM1133 1481q25 0 52 -30t27 -58q0 -49 -114 -111l-310 -172l-30 41l243 246q82 84 132 84z" />
    <glyph glyph-name="acircumflex" unicode="&#xe2;" horiz-adv-x="1148" 
d="M338 225q0 -143 90 -143q133 0 338 311q147 221 219 518q-49 45 -125 45q-113 0 -216 -81.5t-166.5 -199.5t-101.5 -240t-38 -210zM135 210q0 93 27.5 196.5t87 214t141.5 200.5t204 148.5t235.5 58.5t175.5 -43l10 27h172l-217 -817q-31 -113 20 -113q39 0 92.5 71.5
t92.5 145.5l49 -29q-57 -129 -144.5 -212t-195.5 -83q-158 0 -90 230l69 233h-4q-264 -463 -528 -463q-98 0 -147.5 71t-49.5 164zM900 1303q-19 0 -64 -31l-236 -154l-29 43l283 264q57 49 82 49.5t61 -49.5l183 -264l-47 -43l-175 154q-39 31 -58 31z" />
    <glyph glyph-name="atilde" unicode="&#xe3;" horiz-adv-x="1148" 
d="M338 225q0 -143 90 -143q133 0 338 311q147 221 219 518q-49 45 -125 45q-113 0 -216 -81.5t-166.5 -199.5t-101.5 -240t-38 -210zM135 210q0 93 27.5 196.5t87 214t141.5 200.5t204 148.5t235.5 58.5t175.5 -43l10 27h172l-217 -817q-31 -113 20 -113q39 0 92.5 71.5
t92.5 145.5l49 -29q-57 -129 -144.5 -212t-195.5 -83q-158 0 -90 230l69 233h-4q-264 -463 -528 -463q-98 0 -147.5 71t-49.5 164zM703 1380q52 0 157 -39q121 -39 159 -38.5t64.5 18.5t71.5 76l41 -23q-51 -100 -97 -147t-100.5 -47t-173.5 39t-169 38.5t-81.5 -24
t-66.5 -80.5l-39 27q77 151 145 183q36 17 89 17z" />
    <glyph glyph-name="adieresis" unicode="&#xe4;" horiz-adv-x="1148" 
d="M338 225q0 -143 90 -143q133 0 338 311q147 221 219 518q-49 45 -125 45q-113 0 -216 -81.5t-166.5 -199.5t-101.5 -240t-38 -210zM135 210q0 93 27.5 196.5t87 214t141.5 200.5t204 148.5t235.5 58.5t175.5 -43l10 27h172l-217 -817q-31 -113 20 -113q39 0 92.5 71.5
t92.5 145.5l49 -29q-57 -129 -144.5 -212t-195.5 -83q-158 0 -90 230l69 233h-4q-264 -463 -528 -463q-98 0 -147.5 71t-49.5 164zM541 1277q0 50 34.5 85t83 35t75 -30t26.5 -77t-33 -83t-83 -36t-76.5 28t-26.5 78zM967 1277q0 50 34.5 85t82.5 35t75 -30t27 -77t-33 -83
t-83 -36t-76.5 28t-26.5 78z" />
    <glyph glyph-name="aring" unicode="&#xe5;" horiz-adv-x="1148" 
d="M338 225q0 -143 90 -143q133 0 338 311q147 221 219 518q-49 45 -125 45q-113 0 -216 -82q-102 -82 -166 -200t-102 -239q-38 -122 -38 -210zM991 82q66 0 185 217l49 -29q-57 -129 -145 -212t-195 -83q-158 0 -90 230l69 233h-4q-264 -463 -528 -463q-98 0 -148 71
q-49 71 -49 164q0 92 28 196t87 215t141 201t204 148q121 58 235 58t176 -43l10 27h172l-217 -817q-31 -113 20 -113zM735 1303q0 -53 24 -81q23 -28 67 -28t75 39t37 74t6 73t-23 66q-24 27 -59 27q-66 -1 -96 -59t-31 -111zM870 1540q78 0 134 -49t57 -138q0 -89 -57 -158
t-189 -69q-85 0 -141 46t-56 122q0 75 45 152q25 42 77 68t130 26z" />
    <glyph glyph-name="ae" unicode="&#xe6;" horiz-adv-x="1595" 
d="M1511 834q0 55 -31.5 88.5t-86.5 33.5q-119 0 -221.5 -150t-129.5 -343q242 51 355.5 152.5t113.5 218.5zM344 214q0 -132 84 -132q72 0 167 93t183 235q139 223 207 483q-49 39 -131 39q-143 0 -266 -132t-183.5 -293t-60.5 -293zM1135 -25q-107 0 -194 60
q-105 72 -105 276q0 6 8 88h-4q-61 -104 -130 -191t-172.5 -160t-200.5 -73t-146.5 71t-49.5 161t27 188.5t85 206t139 196.5t205 147.5t265 58.5q80 0 160 -35l72 84h75l-51 -152l4 -4q145 131 322 131q125 0 192.5 -59.5t67.5 -151.5t-90 -182q-160 -152 -576 -242l-2 -33
q0 -285 185 -284q72 0 141.5 42t108 86t85.5 107l48 -43q-180 -293 -469 -293z" />
    <glyph glyph-name="ccedilla" unicode="&#xe7;" horiz-adv-x="903" 
d="M166 304q0 171 70.5 335t210 276.5t313.5 112.5q115 0 189.5 -52t74.5 -130q0 -47 -45 -81t-86 -34q-53 0 -59 62q-16 164 -123 163q-90 0 -171 -98t-126 -238.5t-45 -270.5t38.5 -201.5t141.5 -71.5q152 0 328 239l49 -39q-150 -252 -379 -292l-78 -107
q74 -10 118 -66.5t29.5 -128.5t-79 -112.5t-148.5 -40.5t-135 20l8 50q82 -10 141.5 11t59.5 89q0 43 -31 73.5t-82 32.5l-6 19l107 151q-121 2 -203 80t-82 249z" />
    <glyph glyph-name="egrave" unicode="&#xe8;" horiz-adv-x="927" 
d="M395 1393q0 29 28 58.5t52 29.5q49 0 131 -84l244 -246l-31 -41l-309 172q-115 62 -115 111zM844 836q0 53 -33 86.5t-86 33.5q-119 0 -222 -150t-130 -343q244 51 357.5 152.5t113.5 220.5zM164 311q0 274 170 484q188 233 448 233q121 0 187.5 -59.5t66.5 -158
t-86 -183.5q-160 -147 -581 -234q-2 -14 -2 -33q0 -285 186 -284q139 0 273 154q28 32 65 79l47 -41q-180 -293 -469 -293q-103 0 -195 60q-110 72 -110 276z" />
    <glyph glyph-name="eacute" unicode="&#xe9;" horiz-adv-x="927" 
d="M844 836q0 53 -33 86.5t-86 33.5q-119 0 -222 -150t-130 -343q244 51 357.5 152.5t113.5 220.5zM164 311q0 274 170 484q188 233 448 233q121 0 187.5 -59.5t66.5 -158t-86 -183.5q-160 -147 -581 -234q-2 -14 -2 -33q0 -285 186 -284q139 0 273 154q28 32 65 79l47 -41
q-180 -293 -469 -293q-103 0 -195 60q-110 72 -110 276zM981 1481q25 0 52.5 -30t27.5 -58q0 -49 -115 -111l-309 -172l-31 41l244 246q82 84 131 84z" />
    <glyph glyph-name="ecircumflex" unicode="&#xea;" horiz-adv-x="927" 
d="M844 836q0 53 -33 86.5t-86 33.5q-119 0 -222 -150t-130 -343q244 51 357.5 152.5t113.5 220.5zM164 311q0 274 170 484q188 233 448 233q121 0 187.5 -59.5t66.5 -158t-86 -183.5q-160 -147 -581 -234q-2 -14 -2 -33q0 -285 186 -284q139 0 273 154q28 32 65 79l47 -41
q-180 -293 -469 -293q-103 0 -195 60q-110 72 -110 276zM765 1303q-19 0 -65 -31l-235 -154l-29 43l283 264q57 49 81.5 49.5t61.5 -49.5l182 -264l-47 -43l-174 154q-39 31 -58 31z" />
    <glyph glyph-name="edieresis" unicode="&#xeb;" horiz-adv-x="927" 
d="M844 836q0 53 -33 86.5t-86 33.5q-119 0 -222 -150t-130 -343q244 51 357.5 152.5t113.5 220.5zM164 311q0 274 170 484q188 233 448 233q121 0 187.5 -59.5t66.5 -158t-86 -183.5q-160 -147 -581 -234q-2 -14 -2 -33q0 -285 186 -284q139 0 273 154q28 32 65 79l47 -41
q-180 -293 -469 -293q-103 0 -195 60q-110 72 -110 276zM430 1277q0 50 35 85t83 35t74.5 -30t26.5 -77t-32.5 -83t-83 -36t-77 28t-26.5 78zM856 1277q0 50 35 85t83 35t74.5 -30t26.5 -77t-32.5 -83t-83 -36t-77 28t-26.5 78z" />
    <glyph glyph-name="eth" unicode="&#xf0;" horiz-adv-x="1099" 
d="M367 251q0 -97 48 -151t133 -53q84 0 152 58q112 96 176 302t64 328q0 121 -40 171t-133 50t-174 -75q-137 -127 -201 -419q-26 -114 -25 -211zM852 1272q287 -300 287 -578q0 -196 -80 -366q-45 -96 -112 -173t-177 -128t-242 -52q-176 1 -268 101t-92 258t77 325
q44 98 109 179q66 80 180 135t252 55q25 0 72 -14v6q-33 78 -129 197l-274 -123l-47 65l270 121q-96 113 -189 193v12l78 35q106 -74 226 -189l262 117l47 -66z" />
    <glyph glyph-name="ntilde" unicode="&#xf1;" horiz-adv-x="1265" 
d="M1050 1028q130 0 164 -88t-8 -209l-159 -536q-31 -113 20 -113q39 0 92 72t92 145l49 -29q-57 -129 -143 -212t-180 -83q-94 -1 -121 57t2 144l176 600q18 58 1 102t-68 44q-78 0 -170 -85q-166 -153 -269 -391q-63 -152 -147 -446l-180 -25l215 838q16 49 10 73t-41 25
l-127 11l12 49l375 57l10 -10l-133 -447h6q98 189 244 323q148 134 278 134zM724 1380q52 0 157 -39q121 -39 159 -39t64 19q27 18 72 76l41 -23q-51 -100 -97 -147t-101 -47q-54 0 -173 39t-169 39t-82 -24t-67 -81l-39 27q77 151 146 183q37 17 89 17z" />
    <glyph glyph-name="ograve" unicode="&#xf2;" horiz-adv-x="1099" 
d="M481 1393q0 29 28 58.5t52 29.5q49 0 131 -84l244 -246l-31 -41l-309 172q-115 62 -115 111zM371 264q0 -217 184 -217q79 1 147 59q113 98 176.5 302.5t63.5 332.5q0 215 -170 215q-96 0 -176 -76t-127 -188q-98 -234 -98 -428zM526.5 974q110.5 54 247.5 54t245 -72
q56 -38 89 -112t33 -174q0 -229 -129 -432q-166 -262 -463 -263q-186 0 -281.5 100.5t-95.5 257.5t73 329q42 98 106.5 178t175 134z" />
    <glyph glyph-name="oacute" unicode="&#xf3;" horiz-adv-x="1099" 
d="M371 264q0 -217 184 -217q79 1 147 59q113 98 176.5 302.5t63.5 332.5q0 215 -170 215q-96 0 -176 -76t-127 -188q-98 -234 -98 -428zM526.5 974q110.5 54 247.5 54t245 -72q56 -38 89 -112t33 -174q0 -229 -129 -432q-166 -262 -463 -263q-186 0 -281.5 100.5
t-95.5 257.5t73 329q42 98 106.5 178t175 134zM1026 1481q25 0 52.5 -30t27.5 -58q0 -49 -115 -111l-309 -172l-31 41l244 246q82 84 131 84z" />
    <glyph glyph-name="ocircumflex" unicode="&#xf4;" horiz-adv-x="1099" 
d="M371 264q0 -217 184 -217q79 1 147 59q113 98 176.5 302.5t63.5 332.5q0 215 -170 215q-96 0 -176 -76t-127 -188q-98 -234 -98 -428zM526.5 974q110.5 54 247.5 54t245 -72q56 -38 89 -112t33 -174q0 -229 -129 -432q-166 -262 -463 -263q-186 0 -281.5 100.5
t-95.5 257.5t73 329q42 98 106.5 178t175 134zM818.5 1303q-19.5 0 -64.5 -31l-236 -154l-29 43l283 264q57 49 82 49.5t61 -49.5l183 -264l-47 -43l-174 154q-39 31 -58.5 31z" />
    <glyph glyph-name="otilde" unicode="&#xf5;" horiz-adv-x="1099" 
d="M371 264q0 -217 184 -217q79 1 147 59q113 98 176.5 302.5t63.5 332.5q0 215 -170 215q-96 0 -176 -76t-127 -188q-98 -234 -98 -428zM526.5 974q110.5 54 247.5 54t245 -72q56 -38 89 -112t33 -174q0 -229 -129 -432q-166 -262 -463 -263q-186 0 -281.5 100.5
t-95.5 257.5t73 329q42 98 106.5 178t175 134zM654 1380q52 0 157 -39q121 -39 159 -38.5t64.5 18.5t71.5 76l41 -23q-51 -100 -97 -147t-100.5 -47t-173.5 39t-169 38.5t-81.5 -24t-66.5 -80.5l-39 27q78 152 145 183q37 17 89 17z" />
    <glyph glyph-name="odieresis" unicode="&#xf6;" horiz-adv-x="1099" 
d="M371 264q0 -217 184 -217q79 1 147 59q113 98 176.5 302.5t63.5 332.5q0 215 -170 215q-96 0 -176 -76t-127 -188q-98 -234 -98 -428zM526.5 974q110.5 54 247.5 54t245 -72q56 -38 89 -112t33 -174q0 -229 -129 -432q-166 -262 -463 -263q-186 0 -281.5 100.5
t-95.5 257.5t73 329q42 98 106.5 178t175 134zM516 1277q0 50 35 85t83 35t74.5 -30t26.5 -77t-32.5 -83t-83 -36t-77 28t-26.5 78zM942 1277q0 50 35 85t83 35t74.5 -30t26.5 -77t-32.5 -83t-83 -36t-77 28t-26.5 78z" />
    <glyph glyph-name="divide" unicode="&#xf7;" horiz-adv-x="1167" 
d="M190 453v118h992v-118h-992zM563 850q0 51 36 86t86 35t84 -35t34 -85t-34 -86t-84 -36t-86 35t-36 86zM563 174q0 51 36 86t86 35t84 -35t34 -85t-34 -86t-84 -36t-86 35t-36 86z" />
    <glyph glyph-name="oslash" unicode="&#xf8;" horiz-adv-x="1099" 
d="M555 47q82 0 153 58q72 57 114 143t86 228t44 265q0 29 -8 70l-547 -688q45 -76 158 -76zM360 306q0 -48 7 -97l544 688q-43 59 -140 59t-180 -75q-139 -127 -205 -415q-26 -112 -26 -160zM765 1028q128 0 212 -47l82 102l59 -51l-78 -98q100 -90 101 -264
q0 -229 -129 -432q-166 -262 -463 -263q-137 0 -223 58l-90 -113l-56 55l84 105q-92 98 -92 256t73 326q42 98 106 178q65 80 175 134t239 54z" />
    <glyph glyph-name="ugrave" unicode="&#xf9;" horiz-adv-x="1265" 
d="M512 1393q0 29 27.5 58.5t52.5 29.5q49 0 131 -84l244 -246l-31 -41l-309 172q-115 62 -115 111zM508 82q117 0 237.5 147.5t190 309t156.5 465.5l182 24l-219 -835q-29 -111 26 -111q61 0 189 217l49 -31q-59 -125 -148.5 -209t-193.5 -84q-158 0 -94 222l67 233h-4
q-98 -190 -245.5 -322.5t-288.5 -132.5q-215 0 -138 297l142 541q14 47 9 71.5t-40 26.5l-127 11l12 49l373 57l10 -10l-196 -756q-47 -180 51 -180z" />
    <glyph glyph-name="uacute" unicode="&#xfa;" horiz-adv-x="1265" 
d="M508 82q117 0 237.5 147.5t190 309t156.5 465.5l182 24l-219 -835q-29 -111 26 -111q61 0 189 217l49 -31q-59 -125 -148.5 -209t-193.5 -84q-158 0 -94 222l67 233h-4q-98 -190 -245.5 -322.5t-288.5 -132.5q-215 0 -138 297l142 541q14 47 9 71.5t-40 26.5l-127 11
l12 49l373 57l10 -10l-196 -756q-47 -180 51 -180zM1118 1481q25 0 52.5 -30t27.5 -58q0 -49 -115 -111l-309 -172l-31 41l244 246q82 84 131 84z" />
    <glyph glyph-name="ucircumflex" unicode="&#xfb;" horiz-adv-x="1265" 
d="M508 82q117 0 237.5 147.5t190 309t156.5 465.5l182 24l-219 -835q-29 -111 26 -111q61 0 189 217l49 -31q-59 -125 -148.5 -209t-193.5 -84q-158 0 -94 222l67 233h-4q-98 -190 -245.5 -322.5t-288.5 -132.5q-215 0 -138 297l142 541q14 47 9 71.5t-40 26.5l-127 11
l12 49l373 57l10 -10l-196 -756q-47 -180 51 -180zM884 1303q-19 0 -65 -31l-235 -154l-29 43l283 264q57 49 81.5 49.5t61.5 -49.5l182 -264l-47 -43l-174 154q-39 31 -58 31z" />
    <glyph glyph-name="udieresis" unicode="&#xfc;" horiz-adv-x="1265" 
d="M508 82q117 0 237.5 147.5t190 309t156.5 465.5l182 24l-219 -835q-29 -111 26 -111q61 0 189 217l49 -31q-59 -125 -148.5 -209t-193.5 -84q-158 0 -94 222l67 233h-4q-98 -190 -245.5 -322.5t-288.5 -132.5q-215 0 -138 297l142 541q14 47 9 71.5t-40 26.5l-127 11
l12 49l373 57l10 -10l-196 -756q-47 -180 51 -180zM573 1277q0 50 35 85t83 35t75 -30t27 -77t-33 -83t-83 -36t-77 28t-27 78zM999 1277q0 50 35 85t83 35t75 -30t27 -77t-33 -83t-83 -36t-77 28t-27 78z" />
    <glyph glyph-name="yacute" unicode="&#xfd;" horiz-adv-x="958" 
d="M-10 -382q0 44 32 82q73 85 144 -9q47 -63 81 -63.5t69.5 39.5t74.5 132.5t39 227.5q0 238 -68 716q-12 84 -25 113t-46 27l-139 -4l-7 51l344 98l17 -8q53 -281 82 -895h6q250 430 285 555t30 297q76 51 160 51q19 0 28 -41t9 -65.5t-6 -48t-22.5 -57.5t-31 -61.5
t-42 -74.5t-44 -74.5t-51.5 -84t-70.5 -115t-96 -163t-112.5 -194.5q-52 -89 -90 -155t-70 -118q-102 -168 -158 -210q-82 -62 -160.5 -62t-120 35t-41.5 79zM995 1481q25 0 52.5 -30t27.5 -58q0 -49 -114 -111l-310 -172l-30 41l243 246q82 84 131 84z" />
    <glyph glyph-name="thorn" unicode="&#xfe;" horiz-adv-x="1196" 
d="M946 922q-82 0 -183 -98t-191 -258q-90 -158 -152 -457q72 -61 184 -61t207 85q94 86 144 208q102 249 102 415t-111 166zM1032 1028q227 0 228 -274q0 -144 -82 -341q-47 -114 -115 -209q-69 -95 -185 -162t-260 -67t-219 45l-112 -491l-183 -25l375 1715q12 47 5 71
t-42 27l-127 10l13 49l370 58l11 -11l-199 -837h6q113 210 253 326t263 116z" />
    <glyph glyph-name="ydieresis" unicode="&#xff;" horiz-adv-x="958" 
d="M-10 -382q0 44 32 82q73 85 144 -9q47 -63 81 -63.5t69.5 39.5t74.5 132.5t39 227.5q0 238 -68 716q-12 84 -25 113t-46 27l-139 -4l-7 51l344 98l17 -8q53 -281 82 -895h6q250 430 285 555t30 297q76 51 160 51q19 0 28 -41t9 -65.5t-6 -48t-22.5 -57.5t-31 -61.5
t-42 -74.5t-44 -74.5t-51.5 -84t-70.5 -115t-96 -163t-112.5 -194.5q-52 -89 -90 -155t-70 -118q-102 -168 -158 -210q-82 -62 -160.5 -62t-120 35t-41.5 79zM494 1277q0 50 34.5 85t82.5 35t75 -30t27 -77t-33 -83t-83 -36t-76.5 28t-26.5 78zM920 1277q0 50 34.5 85
t82.5 35t75 -30t27 -77t-33 -83t-83 -36t-76.5 28t-26.5 78z" />
    <glyph glyph-name="Amacron" unicode="&#x100;" horiz-adv-x="1277" 
d="M539 625h407l-72 602h-4q-245 -442 -331 -602zM-47 0l12 59l68 9q87 7 143 101q26 44 371 644l344 604h145l152 -1233q8 -68 22.5 -91t59.5 -27l78 -7l-13 -59h-504l13 59l108 11q33 4 44.5 20t7.5 60l-48 397h-458q-59 -109 -211 -402q-31 -70 26 -75l113 -11l-12 -59
h-461zM682 1554l29 121h626l-28 -121h-627z" />
    <glyph glyph-name="amacron" unicode="&#x101;" horiz-adv-x="1148" 
d="M338 225q0 -143 90 -143q133 0 338 311q147 221 219 518q-49 45 -125 45q-113 0 -216 -81.5t-166.5 -199.5t-101.5 -240t-38 -210zM135 210q0 93 27.5 196.5t87 214t141.5 200.5t204 148.5t235.5 58.5t175.5 -43l10 27h172l-217 -817q-31 -113 20 -113q39 0 92.5 71.5
t92.5 145.5l49 -29q-57 -129 -144.5 -212t-195.5 -83q-158 0 -90 230l69 233h-4q-264 -463 -528 -463q-98 0 -147.5 71t-49.5 164zM612 1223l37 120h570l-37 -120h-570z" />
    <glyph glyph-name="Abreve" unicode="&#x102;" horiz-adv-x="1277" 
d="M1048.5 1655q94.5 0 161 42t82.5 85h58q-25 -104 -110 -176t-249 -72t-216 72t-27 176h57q-5 -39 25 -69t77 -44t141.5 -14zM539 625h407l-72 602h-4q-245 -442 -331 -602zM-47 0l12 59l68 9q87 7 143 101q26 44 371 644l344 604h145l152 -1233q8 -68 22.5 -91t59.5 -27
l78 -7l-13 -59h-504l13 59l108 11q33 4 44.5 20t7.5 60l-48 397h-458q-59 -109 -211 -402q-31 -70 26 -75l113 -11l-12 -59h-461z" />
    <glyph glyph-name="abreve" unicode="&#x103;" horiz-adv-x="1148" 
d="M338 225q0 -143 90 -143q133 0 338 311q147 221 219 518q-49 45 -125 45q-113 0 -216 -81.5t-166.5 -199.5t-101.5 -240t-38 -210zM135 210q0 93 27.5 196.5t87 214t141.5 200.5t204 148.5t235.5 58.5t175.5 -43l10 27h172l-217 -817q-31 -113 20 -113q39 0 92.5 71.5
t92.5 145.5l49 -29q-57 -129 -144.5 -212t-195.5 -83q-158 0 -90 230l69 233h-4q-264 -463 -528 -463q-98 0 -147.5 71t-49.5 164zM659 1323q0 55 23 107h49q-14 -140 173 -140t263 140h54q-29 -125 -104 -196t-243 -71q-215 0 -215 160z" />
    <glyph glyph-name="aogonek" unicode="&#x105;" horiz-adv-x="1148" 
d="M338 225q0 -143 90 -143q133 0 338 311q147 221 219 518q-49 45 -125 45q-113 0 -216 -81.5t-166.5 -199.5t-101.5 -240t-38 -210zM135 210q0 93 27.5 196.5t87 214t141.5 200.5t204 148.5t235.5 58.5t175.5 -43l10 27h172l-217 -817q-31 -113 20 -113q39 0 92.5 71.5
t92.5 145.5l49 -29q-55 -125 -132 -200.5t-194 -102.5q-55 -12 -105.5 -88t-50.5 -160q0 -96 109 -96q59 0 109 25l16 -43q-78 -76 -191 -76q-76 0 -122 32.5t-56 64.5t-10 63q0 86 63.5 167t159.5 134q-78 41 -26 215l69 233h-4q-264 -463 -528 -463q-98 0 -147.5 71
t-49.5 164z" />
    <glyph glyph-name="Cacute" unicode="&#x106;" horiz-adv-x="1353" 
d="M233 563q0 287 140 512q100 164 280.5 268.5t446.5 104.5q117 0 243.5 -28.5t208.5 -80.5l-73 -307h-62q8 174 -69.5 259t-264.5 85q-309 0 -483 -291q-72 -119 -109.5 -274.5t-37.5 -300.5q0 -229 111.5 -349t290.5 -120t278.5 82t195.5 258h62l-101 -326
q-172 -86 -416 -86q-409 1 -561 269q-80 142 -80 325zM1495 1725q0 -26 -20 -45.5t-105 -45.5l-348 -114l-23 45l297 202q86 57 120 57.5t56.5 -36.5t22.5 -63z" />
    <glyph glyph-name="cacute" unicode="&#x107;" horiz-adv-x="903" 
d="M166 303q0 172 70.5 336t210 276.5t313.5 112.5q115 0 189.5 -52t74.5 -130q0 -47 -45 -81t-86 -34q-53 0 -59 62q-16 164 -123 163q-90 0 -171 -98t-126 -238.5t-45 -270.5t38.5 -201.5t141.5 -71.5q152 0 328 239l49 -39q-180 -301 -467 -301q-123 0 -208 78t-85 250z
M1012 1481q25 0 52.5 -30t27.5 -58q0 -49 -115 -111l-309 -172l-31 41l244 246q82 84 131 84z" />
    <glyph glyph-name="Ccircumflex" unicode="&#x108;" horiz-adv-x="1353" 
d="M233 563q0 287 140 512q100 164 280.5 268.5t446.5 104.5q117 0 243.5 -28.5t208.5 -80.5l-73 -307h-62q8 174 -69.5 259t-264.5 85q-309 0 -483 -291q-72 -119 -109.5 -274.5t-37.5 -300.5q0 -229 111.5 -349t290.5 -120t278.5 82t195.5 258h62l-101 -326
q-172 -86 -416 -86q-409 1 -561 269q-80 142 -80 325zM1175 1794q28 0 68 -51l187 -225l-37 -39l-185 120q-43 33 -64 33t-75 -28l-240 -125l-26 41l287 227q57 47 85 47z" />
    <glyph glyph-name="ccircumflex" unicode="&#x109;" horiz-adv-x="903" 
d="M166 303q0 172 70.5 336t210 276.5t313.5 112.5q115 0 189.5 -52t74.5 -130q0 -47 -45 -81t-86 -34q-53 0 -59 62q-16 164 -123 163q-90 0 -171 -98t-126 -238.5t-45 -270.5t38.5 -201.5t141.5 -71.5q152 0 328 239l49 -39q-180 -301 -467 -301q-123 0 -208 78t-85 250z
M816 1303q-19 0 -64 -31l-236 -154l-29 43l283 264q57 49 82 49.5t61 -49.5l183 -264l-47 -43l-175 154q-39 31 -58 31z" />
    <glyph glyph-name="Cdotaccent" unicode="&#x10a;" horiz-adv-x="1353" 
d="M233 563q0 287 140 512q100 164 280.5 268.5t446.5 104.5q117 0 243.5 -28.5t208.5 -80.5l-73 -307h-62q8 174 -69.5 259t-264.5 85q-309 0 -483 -291q-72 -119 -109.5 -274.5t-37.5 -300.5q0 -229 111.5 -349t290.5 -120t278.5 82t195.5 258h62l-101 -326
q-172 -86 -416 -86q-409 1 -561 269q-80 142 -80 325zM1030 1617q0 50 35 85t83 35t74.5 -30t26.5 -77t-32.5 -83t-83 -36t-77 28t-26.5 78z" />
    <glyph glyph-name="cdotaccent" unicode="&#x10b;" horiz-adv-x="903" 
d="M166 303q0 172 70.5 336t210 276.5t313.5 112.5q115 0 189.5 -52t74.5 -130q0 -47 -45 -81t-86 -34q-53 0 -59 62q-16 164 -123 163q-90 0 -171 -98t-126 -238.5t-45 -270.5t38.5 -201.5t141.5 -71.5q152 0 328 239l49 -39q-180 -301 -467 -301q-123 0 -208 78t-85 250z
M709 1273q0 50 34.5 85t82.5 35t75 -30t27 -77t-33 -83t-83 -36t-76.5 28t-26.5 78z" />
    <glyph glyph-name="Ccaron" unicode="&#x10c;" horiz-adv-x="1353" 
d="M233 563q0 287 140 512q100 164 280.5 268.5t446.5 104.5q117 0 243.5 -28.5t208.5 -80.5l-73 -307h-62q8 174 -69.5 259t-264.5 85q-309 0 -483 -291q-72 -119 -109.5 -274.5t-37.5 -300.5q0 -229 111.5 -349t290.5 -120t278.5 82t195.5 258h62l-101 -326
q-172 -86 -416 -86q-409 1 -561 269q-80 142 -80 325zM1148.5 1665q20.5 0 74.5 29l239 125l27 -41l-287 -228q-57 -47 -85 -47t-68 51l-187 226l37 39l184 -123q45 -31 65.5 -31z" />
    <glyph glyph-name="ccaron" unicode="&#x10d;" horiz-adv-x="903" 
d="M166 303q0 172 70.5 336t210 276.5t313.5 112.5q115 0 189.5 -52t74.5 -130q0 -47 -45 -81t-86 -34q-53 0 -59 62q-16 164 -123 163q-90 0 -171 -98t-126 -238.5t-45 -270.5t38.5 -201.5t141.5 -71.5q152 0 328 239l49 -39q-180 -301 -467 -301q-123 0 -208 78t-85 250z
M784.5 1141q-24.5 0 -61.5 49l-182 264l47 43l174 -154q39 -31 58 -30.5t65 30.5l235 154l29 -43l-283 -264q-57 -49 -81.5 -49z" />
    <glyph glyph-name="Dcaron" unicode="&#x10e;" horiz-adv-x="1562" 
d="M657 72q242 0 390.5 82t242.5 237q133 219 133 496q0 59 -6 110.5t-33.5 118t-74.5 113.5t-137.5 80.5t-218 35t-165.5 -11t-51 -63.5l-248 -1094q-14 -63 29 -83.5t139 -20.5zM936 1417q529 -1 661 -333q45 -114 45 -242q0 -264 -137 -471q-246 -371 -794 -371h-629
l12 59l115 13q37 2 55.5 24.5t28.5 73.5l244 1077q10 51 0.5 75t-43.5 26l-121 10l12 59h551zM1118.5 1665q20.5 0 73.5 29l240 125l26 -41l-287 -228q-57 -47 -85 -47t-68 51l-187 226l37 39l185 -123q45 -31 65.5 -31z" />
    <glyph glyph-name="dcaron" unicode="&#x10f;" horiz-adv-x="1243" 
d="M350 229q0 -147 103 -147q76 0 168 90t174 223q150 242 202 520q-45 41 -151 41t-206 -82q-102 -82 -162 -200t-94 -237q-34 -120 -34 -208zM147 246q0 175 109 382q57 108 136 196t198 146q120 58 240 58t186 -35l4 4l78 330q12 49 6 65t-43 19l-123 12l12 47l365 50
l10 -11l-324 -1314q-29 -113 21 -113q39 0 92 72t92 145l49 -29q-57 -129 -143 -212t-190 -83q-78 -1 -102 59t7 169l68 243h-4q-260 -471 -539 -471q-205 1 -205 271zM1454 1361q0 33 -28 71t-29 78q0 40 33 74q32 34 82 34t80 -36t30 -93q0 -178 -242 -359l-30 35
q48 43 76 103t28 93z" />
    <glyph glyph-name="Dcroat" unicode="&#x110;" horiz-adv-x="1562" 
d="M657 72q243 0 391 82t242 237q133 219 133 496q0 59 -6 110t-34 118t-74 114q-47 47 -137 81t-218 35t-166 -11t-51 -64l-110 -488h211l-29 -120h-211l-109 -486q-14 -64 29 -84t139 -20zM936 1417q530 0 661 -333q45 -114 45 -242q0 -264 -137 -471q-246 -371 -794 -371
h-629l12 59l115 13q37 2 55 24t29 74l110 492h-163l28 120h164l105 465q10 51 1 75t-44 26l-121 10l12 59h551z" />
    <glyph glyph-name="dcroat" unicode="&#x111;" horiz-adv-x="1202" 
d="M350 229q0 -147 103 -147q76 0 168 90t174 223q150 242 202 520q-45 41 -151 41t-206 -82q-102 -82 -162 -200t-94 -237q-34 -120 -34 -208zM147 246q0 175 109 382q57 108 136 196t198 146q120 58 240 58t186 -35l4 4l45 195h-238l29 121h238q17 60 11 78q-7 18 -44 20
l-123 12l12 47l365 50l10 -11l-49 -196h149l-28 -121h-150l-246 -997q-29 -113 21 -113q39 0 92 72t92 145l49 -29q-57 -129 -143 -212t-190 -83q-78 -1 -102 59t7 169l68 243h-4q-260 -471 -539 -471q-205 1 -205 271z" />
    <glyph glyph-name="Emacron" unicode="&#x112;" horiz-adv-x="1220" 
d="M1044 1346h-247q-27 0 -38 -11.5t-20 -48.5l-116 -510h268q159 0 205 64q22 32 51 110h61l-94 -428h-61q6 109 -23 142.5t-156 33.5h-268l-104 -448q-16 -72 -14.5 -102.5t30.5 -53.5t224.5 -22.5t283.5 53.5t164 235h61l-104 -360h-1069l12 59l115 13q37 2 54 23.5
t30 74.5l246 1081q12 53 1.5 74t-47.5 25l-122 8l14 59h1036l-78 -342h-61q10 92 5 152.5t-59.5 89.5t-179.5 29zM655 1554l29 121h627l-29 -121h-627z" />
    <glyph glyph-name="emacron" unicode="&#x113;" horiz-adv-x="927" 
d="M844 836q0 53 -33 86.5t-86 33.5q-119 0 -222 -150t-130 -343q244 51 357.5 152.5t113.5 220.5zM164 311q0 274 170 484q188 233 448 233q121 0 187.5 -59.5t66.5 -158t-86 -183.5q-160 -147 -581 -234q-2 -14 -2 -33q0 -285 186 -284q139 0 273 154q28 32 65 79l47 -41
q-180 -293 -469 -293q-103 0 -195 60q-110 72 -110 276zM539 1223l36 120h570l-37 -120h-569z" />
    <glyph glyph-name="Ebreve" unicode="&#x114;" horiz-adv-x="1220" 
d="M1044 1346h-247q-27 0 -38 -11.5t-20 -48.5l-116 -510h268q159 0 205 64q22 32 51 110h61l-94 -428h-61q6 109 -23 142.5t-156 33.5h-268l-104 -448q-16 -72 -14.5 -102.5t30.5 -53.5t224.5 -22.5t283.5 53.5t164 235h61l-104 -360h-1069l12 59l115 13q37 2 54 23.5
t30 74.5l246 1081q12 53 1.5 74t-47.5 25l-122 8l14 59h1036l-78 -342h-61q10 92 5 152.5t-59.5 89.5t-179.5 29zM1022 1655q94 0 160.5 42t83.5 85h57q-25 -104 -110 -176t-248.5 -72t-216 72t-27.5 176h57q-5 -38 25.5 -68.5t77.5 -44.5t141 -14z" />
    <glyph glyph-name="ebreve" unicode="&#x115;" horiz-adv-x="927" 
d="M844 836q0 53 -33 86.5t-86 33.5q-119 0 -222 -150t-130 -343q244 51 357.5 152.5t113.5 220.5zM164 311q0 274 170 484q188 233 448 233q121 0 187.5 -59.5t66.5 -158t-86 -183.5q-160 -147 -581 -234q-2 -14 -2 -33q0 -285 186 -284q139 0 273 154q28 32 65 79l47 -41
q-180 -293 -469 -293q-103 0 -195 60q-110 72 -110 276zM586 1323q0 55 22 107h49q-4 -41 15 -75q37 -65 166 -65q180 0 256 140h53q-29 -125 -103.5 -196t-242.5 -71q-215 0 -215 160z" />
    <glyph glyph-name="Edotaccent" unicode="&#x116;" horiz-adv-x="1220" 
d="M1044 1346h-247q-27 0 -38 -11.5t-20 -48.5l-116 -510h268q159 0 205 64q22 32 51 110h61l-94 -428h-61q6 109 -23 142.5t-156 33.5h-268l-104 -448q-16 -72 -14.5 -102.5t30.5 -53.5t224.5 -22.5t283.5 53.5t164 235h61l-104 -360h-1069l12 59l115 13q37 2 54 23.5
t30 74.5l246 1081q12 53 1.5 74t-47.5 25l-122 8l14 59h1036l-78 -342h-61q10 92 5 152.5t-59.5 89.5t-179.5 29zM874 1617q0 50 35 85t83 35t75 -30t27 -77t-33 -83t-83 -36t-77 28t-27 78z" />
    <glyph glyph-name="edotaccent" unicode="&#x117;" horiz-adv-x="927" 
d="M844 836q0 53 -33 86.5t-86 33.5q-119 0 -222 -150t-130 -343q244 51 357.5 152.5t113.5 220.5zM164 311q0 274 170 484q188 233 448 233q121 0 187.5 -59.5t66.5 -158t-86 -183.5q-160 -147 -581 -234q-2 -14 -2 -33q0 -285 186 -284q139 0 273 154q28 32 65 79l47 -41
q-180 -293 -469 -293q-103 0 -195 60q-110 72 -110 276zM731 1273q0 50 35 85t83 35t74.5 -30t26.5 -77t-32.5 -83t-83 -36t-77 28t-26.5 78z" />
    <glyph glyph-name="Eogonek" unicode="&#x118;" horiz-adv-x="1220" 
d="M1044 1346h-247q-27 0 -38 -11.5t-20 -48.5l-116 -510h268q159 0 205 64q22 32 51 110h61l-94 -428h-61q6 109 -23 142.5t-156 33.5h-268l-104 -448q-16 -72 -14.5 -102.5t30.5 -53.5t224.5 -22.5t283.5 53.5t164 235h61l-104 -360h-152q-168 -133 -168 -281
q0 -96 109 -96q59 0 108 25l17 -43q-78 -76 -191 -76q-76 0 -122 32.5t-56 64.5t-10 63q0 88 64.5 169t162.5 142h-831l12 59l115 13q37 2 54 23.5t30 74.5l246 1081q12 53 1.5 74t-47.5 25l-122 8l14 59h1036l-78 -342h-61q10 92 5 152.5t-59.5 89.5t-179.5 29z" />
    <glyph glyph-name="eogonek" unicode="&#x119;" horiz-adv-x="927" 
d="M844 836q0 53 -33 86.5t-86 33.5q-119 0 -222 -150t-130 -343q244 51 357.5 152.5t113.5 220.5zM782 1028q121 0 187.5 -59.5t66.5 -158t-86 -183.5q-160 -147 -581 -234q-2 -14 -2 -33q0 -285 186 -284q139 0 273 154q28 32 65 79l47 -41q-65 -100 -98 -131t-76 -64.5
t-51 -41.5q-193 -160 -193 -312q0 -96 109 -96q59 0 108 25l17 -43q-78 -76 -191 -76q-76 0 -122 32.5t-56 64.5t-10 63q0 162 217 303q-131 -30 -221 -4q-207 59 -207 329t180 490.5t438 220.5z" />
    <glyph glyph-name="Ecaron" unicode="&#x11a;" horiz-adv-x="1220" 
d="M1044 1346h-247q-27 0 -38 -11.5t-20 -48.5l-116 -510h268q159 0 205 64q22 32 51 110h61l-94 -428h-61q6 109 -23 142.5t-156 33.5h-268l-104 -448q-16 -72 -14.5 -102.5t30.5 -53.5t224.5 -22.5t283.5 53.5t164 235h61l-104 -360h-1069l12 59l115 13q37 2 54 23.5
t30 74.5l246 1081q12 53 1.5 74t-47.5 25l-122 8l14 59h1036l-78 -342h-61q10 92 5 152.5t-59.5 89.5t-179.5 29zM994 1665q19 0 73 29l240 125l26 -41l-286 -228q-57 -47 -85 -47t-69 51l-186 226l36 39l185 -123q47 -31 66 -31z" />
    <glyph glyph-name="ecaron" unicode="&#x11b;" horiz-adv-x="927" 
d="M844 836q0 53 -33 86.5t-86 33.5q-119 0 -222 -150t-130 -343q244 51 357.5 152.5t113.5 220.5zM164 311q0 274 170 484q188 233 448 233q121 0 187.5 -59.5t66.5 -158t-86 -183.5q-160 -147 -581 -234q-2 -14 -2 -33q0 -285 186 -284q139 0 273 154q28 32 65 79l47 -41
q-180 -293 -469 -293q-103 0 -195 60q-110 72 -110 276zM807 1141q-25 0 -62 49l-182 264l47 43l174 -154q39 -31 57.5 -30.5t65.5 30.5l236 154l28 -43l-282 -264q-57 -49 -82 -49z" />
    <glyph glyph-name="Gcircumflex" unicode="&#x11c;" horiz-adv-x="1452" 
d="M233 589.5q0 316.5 195 563.5q231 295 684 295q270 0 459 -102l-74 -320h-61q22 254 -146 322q-70 28 -195.5 28t-239.5 -53t-186.5 -136t-120.5 -193q-89 -203 -89 -445t117.5 -375t312.5 -133q143 0 192 27.5t62 83.5l76 309q25 92 -35 98l-154 14l12 60h539l-12 -60
l-90 -8q-41 -4 -64 -104l-96 -414q-211 -78 -434 -78q-301 0 -477 152q-175 152 -175 468.5zM1185 1794q28 0 68 -51l187 -225l-37 -39l-184 120q-43 33 -64.5 33t-75.5 -28l-239 -125l-27 41l287 227q57 47 85 47z" />
    <glyph glyph-name="gcircumflex" unicode="&#x11d;" horiz-adv-x="1021" 
d="M438 614q0 -76 45 -125t125 -49q113 0 182.5 99.5t69.5 244.5q0 94 -51 133t-127 39t-137.5 -60t-84 -133t-22.5 -149zM250 -183.5q0 -105.5 86 -173t214 -67.5t208 59.5t80 171.5q0 190 -371 244q-78 -12 -147.5 -70.5t-69.5 -164zM61 -206q0 126 95.5 196.5t220.5 93.5
v4q-145 68 -146 154q0 76 175 147l12 6v4q-61 23 -116.5 87.5t-55.5 177t91 229.5q105 135 365 135q140 0 234 -61l297 82l12 -19l-67 -129l-172 -24q43 -55 43 -142q0 -162 -117 -264t-326 -102q-70 0 -110 6q-90 -23 -90 -80q0 -41 55 -67.5t192 -59.5q358 -86 359 -322
q0 -162 -141.5 -252t-349.5 -90t-334 82t-126 208zM802 1303q-19 0 -65 -31l-235 -154l-29 43l283 264q57 49 81.5 49.5t61.5 -49.5l182 -264l-47 -43l-174 154q-39 31 -58 31z" />
    <glyph glyph-name="Gbreve" unicode="&#x11e;" horiz-adv-x="1452" 
d="M233 589.5q0 316.5 195 563.5q231 295 684 295q270 0 459 -102l-74 -320h-61q22 254 -146 322q-70 28 -195.5 28t-239.5 -53t-186.5 -136t-120.5 -193q-89 -203 -89 -445t117.5 -375t312.5 -133q143 0 192 27.5t62 83.5l76 309q25 92 -35 98l-154 14l12 60h539l-12 -60
l-90 -8q-41 -4 -64 -104l-96 -414q-211 -78 -434 -78q-301 0 -477 152q-175 152 -175 468.5zM1188 1655q94 0 160.5 42t83.5 85h57q-25 -104 -110 -176t-248.5 -72t-216 72t-27.5 176h57q-5 -39 25 -69t77.5 -44t141.5 -14z" />
    <glyph glyph-name="gbreve" unicode="&#x11f;" horiz-adv-x="1021" 
d="M438 614q0 -76 45 -125t125 -49q113 0 182.5 99.5t69.5 244.5q0 94 -51 133t-127 39t-137.5 -60t-84 -133t-22.5 -149zM250 -183.5q0 -105.5 86 -173t214 -67.5t208 59.5t80 171.5q0 190 -371 244q-78 -12 -147.5 -70.5t-69.5 -164zM61 -206q0 126 95.5 196.5t220.5 93.5
v4q-145 68 -146 154q0 76 175 147l12 6v4q-61 23 -116.5 87.5t-55.5 177t91 229.5q105 135 365 135q140 0 234 -61l297 82l12 -19l-67 -129l-172 -24q43 -55 43 -142q0 -162 -117 -264t-326 -102q-70 0 -110 6q-90 -23 -90 -80q0 -41 55 -67.5t192 -59.5q358 -86 359 -322
q0 -162 -141.5 -252t-349.5 -90t-334 82t-126 208zM549 1323q0 55 22 107h50q-14 -140 173 -140t263 140h53q-29 -125 -103.5 -196t-242.5 -71q-215 0 -215 160z" />
    <glyph glyph-name="Gdotaccent" unicode="&#x120;" horiz-adv-x="1452" 
d="M233 589.5q0 316.5 195 563.5q231 295 684 295q270 0 459 -102l-74 -320h-61q22 254 -146 322q-70 28 -195.5 28t-239.5 -53t-186.5 -136t-120.5 -193q-89 -203 -89 -445t117.5 -375t312.5 -133q143 0 192 27.5t62 83.5l76 309q25 92 -35 98l-154 14l12 60h539l-12 -60
l-90 -8q-41 -4 -64 -104l-96 -414q-211 -78 -434 -78q-301 0 -477 152q-175 152 -175 468.5zM1040 1617q0 50 35 85t83 35t75 -30t27 -77t-33 -83t-83 -36t-77 28t-27 78z" />
    <glyph glyph-name="gdotaccent" unicode="&#x121;" horiz-adv-x="1021" 
d="M438 614q0 -76 45 -125t125 -49q113 0 182.5 99.5t69.5 244.5q0 94 -51 133t-127 39t-137.5 -60t-84 -133t-22.5 -149zM250 -183.5q0 -105.5 86 -173t214 -67.5t208 59.5t80 171.5q0 190 -371 244q-78 -12 -147.5 -70.5t-69.5 -164zM61 -206q0 126 95.5 196.5t220.5 93.5
v4q-145 68 -146 154q0 76 175 147l12 6v4q-61 23 -116.5 87.5t-55.5 177t91 229.5q105 135 365 135q140 0 234 -61l297 82l12 -19l-67 -129l-172 -24q43 -55 43 -142q0 -162 -117 -264t-326 -102q-70 0 -110 6q-90 -23 -90 -80q0 -41 55 -67.5t192 -59.5q358 -86 359 -322
q0 -162 -141.5 -252t-349.5 -90t-334 82t-126 208zM694 1273q0 50 35 85t83 35t74.5 -30t26.5 -77t-32.5 -83t-82.5 -36t-77 28t-27 78z" />
    <glyph glyph-name="Hcircumflex" unicode="&#x124;" horiz-adv-x="1587" 
d="M82 0l12 59l113 13q37 2 55.5 23.5t30.5 74.5l246 1077q20 96 -45 103l-121 8l14 59h561l-14 -59l-113 -10q-37 -2 -55 -25t-31 -76l-108 -471h684l106 471q20 96 -45 103l-121 8l15 59h561l-15 -59l-112 -10q-37 -2 -55.5 -25t-30.5 -76l-246 -1077q-23 -96 45 -102
l121 -9l-12 -59h-561l12 59l112 13q37 2 55.5 23.5t30.5 74.5l121 528h-684l-119 -528q-12 -51 -1.5 -75.5t47.5 -26.5l120 -9l-12 -59h-561zM1199 1794q28 0 69 -51l186 -225l-37 -39l-184 120q-43 33 -64.5 33t-74.5 -28l-240 -125l-27 41l287 227q57 47 85 47z" />
    <glyph glyph-name="hcircumflex" unicode="&#x125;" horiz-adv-x="1243" 
d="M1030 1028q129 0 163 -88t-9 -209l-162 -536q-35 -113 20 -113q39 0 92.5 71.5t92.5 145.5l49 -29q-57 -129 -141 -212t-185 -83q-170 0 -106 222l168 581q18 63 0.5 103.5t-66.5 40.5q-82 0 -178 -87q-177 -160 -264 -384q-53 -135 -137 -451l-179 -25l299 1334
q12 59 5 77.5t-46 22.5l-116 14l12 47l369 50l10 -11l-229 -938h6q102 195 252.5 326t279.5 131zM1036 1966q25 0 62 -49l182 -264l-47 -43l-174 153q-39 31 -58.5 31t-64.5 -31l-236 -153l-28 43l282 264q57 49 82 49z" />
    <glyph glyph-name="Hbar" unicode="&#x126;" horiz-adv-x="1587" 
d="M627 776h684l86 379h-682zM82 0l12 59l113 13q37 2 55 24t31 74l225 985h-158l17 72h158l4 20q20 96 -45 103l-121 8l14 59h561l-14 -59l-113 -10q-37 -2 -57 -27t-33 -94h682l4 20q20 96 -45 103l-121 8l15 59h561l-15 -59l-112 -10q-37 -2 -57 -27t-33 -94h157l-16 -72
h-158l-225 -985q-23 -96 45 -102l121 -9l-12 -59h-561l12 59l112 13q37 2 56 23q18 22 30 75l121 528h-684l-119 -528q-12 -51 -2 -76t48 -26l120 -9l-12 -59h-561z" />
    <glyph glyph-name="hbar" unicode="&#x127;" horiz-adv-x="1243" 
d="M1030 1028q128 0 163 -88q34 -88 -9 -209l-162 -536q-35 -113 20 -113q39 0 93 72q53 72 92 145l49 -29q-57 -129 -141 -212t-185 -83q-170 0 -106 222l168 581q18 64 1 104t-67 40q-82 0 -178 -87t-163 -191t-111 -216t-127 -428l-179 -25l265 1180h-154l16 72h154
l18 82q12 59 6 77q-7 18 -47 23l-116 14l12 47l369 50l10 -11l-70 -282h453l-17 -72h-452l-143 -584h6q102 195 253 326t279 131z" />
    <glyph glyph-name="Itilde" unicode="&#x128;" horiz-adv-x="706" 
d="M591 1708q52 0 157 -39q120 -39 158 -39t65 18t71 76l41 -22q-51 -100 -97 -148t-100 -47q-54 0 -174 39q-118 39 -168 39q-50 1 -82 -23t-67 -81l-39 26q42 81 80 129q56 72 155 72zM82 0l12 59l113 13q37 2 56 26t30 72l246 1077q23 96 -45 103l-121 8l14 59h561
l-14 -59l-113 -10q-37 -2 -55 -27t-31 -74l-246 -1077q-23 -96 46 -102l120 -9l-12 -59h-561z" />
    <glyph glyph-name="itilde" unicode="&#x129;" horiz-adv-x="649" 
d="M474 1380q52 0 157 -39q121 -39 159 -39t64 19q27 18 72 76l41 -23q-51 -100 -97 -147t-101 -47q-54 0 -173 39t-169 39t-82 -24t-66 -81l-39 27q78 152 145 183q37 17 89 17zM451 82q39 0 92 72t92 145l49 -29q-57 -129 -142 -212q-86 -83 -178 -83q-173 0 -118 201
l172 641q14 53 6 73t-49 21l-117 11l12 49l373 57l10 -10l-223 -823q-31 -113 21 -113z" />
    <glyph glyph-name="Imacron" unicode="&#x12a;" horiz-adv-x="706" 
d="M82 0l12 59l113 13q37 2 56.5 25.5t29.5 72.5l246 1077q23 96 -45 103l-121 8l14 59h561l-14 -59l-113 -10q-37 -2 -55 -27t-31 -74l-246 -1077q-23 -96 46 -102l120 -9l-12 -59h-561zM395 1554l29 121h627l-29 -121h-627z" />
    <glyph glyph-name="Ibreve" unicode="&#x12c;" horiz-adv-x="706" 
d="M82 0l12 59l113 13q37 2 56.5 25.5t29.5 72.5l246 1077q23 96 -45 103l-121 8l14 59h561l-14 -59l-113 -10q-37 -2 -55 -27t-31 -74l-246 -1077q-23 -96 46 -102l120 -9l-12 -59h-561zM762 1655q94 0 160.5 42t83.5 85h57q-25 -104 -110 -176t-248.5 -72t-216 72
t-27.5 176h57q-5 -39 25 -69t77.5 -44t141.5 -14z" />
    <glyph glyph-name="Idotaccent" unicode="&#x130;" horiz-adv-x="706" 
d="M82 0l12 59l113 13q37 2 56.5 25.5t29.5 72.5l246 1077q23 96 -45 103l-121 8l14 59h561l-14 -59l-113 -10q-37 -2 -55 -27t-31 -74l-246 -1077q-23 -96 46 -102l120 -9l-12 -59h-561zM614 1617q0 50 35 85t83 35t75 -30t27 -77t-33 -83t-83 -36t-77 28t-27 78z" />
    <glyph glyph-name="dotlessi" unicode="&#x131;" horiz-adv-x="649" 
d="M451 82q39 0 92 71.5t92 145.5l49 -29q-57 -129 -142 -212q-86 -83 -178 -83q-173 0 -118 201l172 641q14 53 6 72.5t-49 21.5l-117 11l12 49l373 57l10 -10l-223 -823q-31 -113 21 -113z" />
    <glyph glyph-name="Jcircumflex" unicode="&#x134;" horiz-adv-x="720" 
d="M-20 -244q-23 0 -68 4v52q162 16 257 104t163 379l223 958q10 47 0 70t-47 25l-121 10l14 59h564l-15 -59l-112 -8q-37 -2 -56.5 -24.5t-29.5 -72.5l-240 -1030q-66 -281 -215 -387q-115 -80 -317 -80zM771 1794q28 0 69 -51l186 -225l-37 -39l-184 120q-43 33 -64.5 33
t-74.5 -28l-240 -125l-27 41l287 227q57 47 85 47z" />
    <glyph glyph-name="Lacute" unicode="&#x139;" horiz-adv-x="1157" 
d="M82 0l12 59l113 13q37 4 55.5 24.5t30.5 73.5l246 1077q23 94 -45 101l-121 10l14 59h571l-14 -59l-123 -8q-37 -2 -56.5 -26t-31.5 -77l-227 -997q-16 -72 -14 -102.5t30.5 -53.5t216.5 -22.5t273.5 53.5t161.5 235h61l-105 -360h-1048zM1335 1725q0 -26 -19.5 -45.5
t-105.5 -45.5l-348 -114l-22 45l297 202q86 57 119.5 57.5t56 -36.5t22.5 -63z" />
    <glyph glyph-name="lacute" unicode="&#x13a;" horiz-adv-x="626" 
d="M440 82q35 0 92.5 69.5t96.5 147.5l49 -29q-53 -125 -142.5 -210t-191.5 -85q-155 0 -106 201l280 1133q14 59 6 77.5t-47 22.5l-117 14l13 47l366 50l11 -11l-330 -1316q-27 -111 20 -111zM893 1972q25 0 52.5 -29.5t27.5 -58.5q0 -49 -115 -110l-309 -172l-31 40
l244 246q82 84 131 84z" />
    <glyph glyph-name="Lcaron" unicode="&#x13d;" horiz-adv-x="1157" 
d="M82 0l12 59l113 13q37 4 55 24t31 74l246 1077q23 94 -45 101l-121 10l14 59h571l-14 -59l-123 -8q-37 -2 -56 -26t-32 -77l-227 -997q-16 -72 -14 -103t30 -53t217 -22q188 0 274 53q85 53 161 235h61l-105 -360h-1048zM1065 1510q0 40 33 74t83 34t80 -36t29 -93
q0 -178 -241 -359l-31 35q47 43 76 103q28 60 28 93t-28 71t-29 78z" />
    <glyph glyph-name="lcaron" unicode="&#x13e;" horiz-adv-x="667" 
d="M440 82q35 0 92 70t97 147l49 -29q-53 -125 -142 -210t-192 -85q-155 0 -106 201l280 1133q14 59 6 77t-47 23l-117 14l13 47l366 50l11 -11l-330 -1316q-27 -111 20 -111zM879 1361q0 33 -29 71t-29 78t33 74t83 34t80 -36t30 -93q0 -178 -242 -359l-31 35q47 43 76 103
t29 93z" />
    <glyph glyph-name="Lslash" unicode="&#x141;" horiz-adv-x="1169" 
d="M94 0l12 59l113 13q37 4 55 24t31 74l96 426l-221 -141l31 108l215 137l125 547q23 94 -45 101l-121 10l14 59h572l-15 -59l-122 -8q-36 -2 -56 -26t-33 -77l-96 -422l299 191l-20 -105l-303 -192l-107 -469q-16 -72 -14 -103t30 -53t218 -22q188 0 273 53t161 235h61
l-104 -360h-1049z" />
    <glyph glyph-name="lslash" unicode="&#x142;" horiz-adv-x="651" 
d="M453 82q35 0 92 69.5t96 147.5l49 -29q-53 -125 -142 -210t-192 -85q-156 0 -106 201l127 520l-213 -129l39 109l198 121l129 512q14 59 6 77.5t-47 22.5l-116 14l12 47l367 50l10 -11l-150 -602l230 140l-31 -109l-225 -135l-154 -610q-27 -111 21 -111z" />
    <glyph glyph-name="Nacute" unicode="&#x143;" horiz-adv-x="1562" 
d="M63 0l11 59l63 7q92 8 121 88q37 102 72 254l192 839q23 92 -45 99l-121 12l15 59h389q172 -383 524 -1149h8l168 742q33 147 43 254q4 47 -17.5 63t-76.5 23l-80 8l10 59h484l-11 -59l-63 -6q-92 -8 -121 -88q-37 -102 -72 -254l-229 -1010h-133q-377 831 -569 1247h-7
l-192 -839q-33 -147 -43 -254q-4 -45 18.5 -64.5t75.5 -23.5l80 -7l-10 -59h-484zM1507 1725q0 -26 -19.5 -45.5t-105.5 -45.5l-348 -114l-22 45l297 202q86 57 119.5 57.5t56 -36.5t22.5 -63z" />
    <glyph glyph-name="nacute" unicode="&#x144;" horiz-adv-x="1265" 
d="M1050 1028q130 0 164.5 -88t-8.5 -209l-159 -536q-31 -113 20 -113q39 0 92 71.5t92 145.5l49 -29q-57 -129 -143 -212t-180 -83t-121 57.5t2 143.5l176 600q18 59 1 102.5t-68 43.5q-78 0 -170 -85q-166 -153 -269 -391q-63 -152 -147 -446l-180 -25l215 838
q16 49 10 72.5t-41 25.5l-127 11l12 49l375 57l10 -10l-133 -447h6q98 190 245 323.5t277 133.5zM1110 1481q25 0 52.5 -30t27.5 -58q0 -49 -115 -111l-309 -172l-31 41l244 246q82 84 131 84z" />
    <glyph glyph-name="Ncommaaccent" unicode="&#x145;" horiz-adv-x="1562" 
d="M754 -90q44 0 70 -32t26 -90t-41 -124t-85 -106t-112 -93l-28 29q113 109 112 187q0 31 -19 71q-40 86 6 132q26 26 71 26zM63 0l11 59l63 7q92 8 121 88q37 102 72 254l192 839q23 92 -45 99l-121 12l15 59h389q172 -383 524 -1149h8l168 742q33 147 43 254q4 47 -17 63
q-22 16 -77 23l-80 8l10 59h484l-11 -59l-63 -6q-92 -8 -121 -88q-37 -102 -72 -254l-229 -1010h-133q-377 831 -569 1247h-7l-192 -839q-33 -147 -43 -254q-4 -45 18 -65q23 -19 76 -23l80 -7l-10 -59h-484z" />
    <glyph glyph-name="ncommaaccent" unicode="&#x146;" horiz-adv-x="1265" 
d="M539 -319q1 31 -19 71t-20 74q0 32 26 58t70 26q45 0 71 -32q25 -32 25 -90t-41 -124t-85 -106t-111 -93l-29 29q113 109 113 187zM1050 1028q130 0 164 -88t-8 -209l-159 -536q-31 -113 20 -113q39 0 92 72t92 145l49 -29q-57 -129 -143 -212t-180 -83q-94 -1 -121 57
t2 144l176 600q18 58 1 102t-68 44q-78 0 -170 -85q-166 -153 -269 -391q-63 -152 -147 -446l-180 -25l215 838q16 49 10 73t-41 25l-127 11l12 49l375 57l10 -10l-133 -447h6q98 189 244 323q148 134 278 134z" />
    <glyph glyph-name="Ncaron" unicode="&#x147;" horiz-adv-x="1562" 
d="M63 0l11 59l63 7q92 8 121 88q37 102 72 254l192 839q23 92 -45 99l-121 12l15 59h389q172 -383 524 -1149h8l168 742q33 147 43 254q4 47 -17.5 63t-76.5 23l-80 8l10 59h484l-11 -59l-63 -6q-92 -8 -121 -88q-37 -102 -72 -254l-229 -1010h-133q-377 831 -569 1247h-7
l-192 -839q-33 -147 -43 -254q-4 -45 18.5 -64.5t75.5 -23.5l80 -7l-10 -59h-484zM1161.5 1665q20.5 0 73.5 29l240 125l26 -41l-287 -228q-57 -47 -85 -47t-68 51l-187 226l37 39l185 -123q45 -31 65.5 -31z" />
    <glyph glyph-name="ncaron" unicode="&#x148;" horiz-adv-x="1265" 
d="M1050 1028q130 0 164.5 -88t-8.5 -209l-159 -536q-31 -113 20 -113q39 0 92 71.5t92 145.5l49 -29q-57 -129 -143 -212t-180 -83t-121 57.5t2 143.5l176 600q18 59 1 102.5t-68 43.5q-78 0 -170 -85q-166 -153 -269 -391q-63 -152 -147 -446l-180 -25l215 838
q16 49 10 72.5t-41 25.5l-127 11l12 49l375 57l10 -10l-133 -447h6q98 190 245 323.5t277 133.5zM883 1141q-25 0 -62 49l-182 264l47 43l174 -154q39 -31 58.5 -30.5t64.5 30.5l236 154l28 -43l-282 -264q-57 -49 -82 -49z" />
    <glyph glyph-name="Eng" unicode="&#x14a;" horiz-adv-x="1523" 
d="M1257 1448q211 0 291 -111t21 -368l-213 -887q-72 -305 -189 -441t-290 -137q-322 0 -322 170q0 39 44 68t80 29t54 -31q19 -31 27 -67q8 -37 35 -67t77 -30q108 0 172 129q56 112 101 315l239 1010q35 154 -8 222q-44 68 -206 69q-162 0 -316 -114t-190 -273l-175 -764
q-23 -96 46 -102l127 -9l-13 -59h-567l12 59l113 13q37 2 55 24t31 74l246 1077q20 96 -45 103l-121 8l14 59h387l-59 -248h2q129 129 258 204t282 75z" />
    <glyph glyph-name="eng" unicode="&#x14b;" horiz-adv-x="1241" 
d="M1061 1028q223 0 145 -297l-178 -672q-82 -311 -163 -433t-232 -122q-82 0 -133 32t-51 79t28.5 79t61.5 32t83 -73t83 -73q39 0 53 62l106 495l170 639q18 59 1 102.5t-68 43.5q-78 0 -170 -85q-166 -153 -269 -391q-63 -152 -147 -446l-180 -25l215 838q16 49 10 72.5
t-41 25.5l-127 11l12 49l375 57l10 -10l-133 -447h6q98 190 245 323.5t288 133.5z" />
    <glyph glyph-name="Omacron" unicode="&#x14c;" horiz-adv-x="1542" 
d="M449 471q0 -209 98 -319.5t268 -110.5q332 0 490 410q96 250 96 482t-97.5 337.5t-271.5 105.5q-291 0 -457 -344q-126 -268 -126 -561zM233 560.5q0 271.5 142 510.5q227 377 649 377q268 0 430 -149.5t162 -450.5q0 -256 -129 -490q-98 -178 -251 -283.5t-402 -105.5
q-295 0 -448 160t-153 431.5zM735 1554l29 121h627l-29 -121h-627z" />
    <glyph glyph-name="omacron" unicode="&#x14d;" horiz-adv-x="1099" 
d="M371 264q0 -217 184 -217q79 1 147 59q113 98 176.5 302.5t63.5 332.5q0 215 -170 215q-96 0 -176 -76t-127 -188q-98 -234 -98 -428zM526.5 974q110.5 54 247.5 54t245 -72q56 -38 89 -112t33 -174q0 -229 -129 -432q-166 -262 -463 -263q-186 0 -281.5 100.5
t-95.5 257.5t73 329q42 98 106.5 178t175 134zM530 1223l37 120h570l-37 -120h-570z" />
    <glyph glyph-name="Obreve" unicode="&#x14e;" horiz-adv-x="1542" 
d="M449 471q0 -209 98 -319.5t268 -110.5q332 0 490 410q96 250 96 482t-97.5 337.5t-271.5 105.5q-291 0 -457 -344q-126 -268 -126 -561zM233 560.5q0 271.5 142 510.5q227 377 649 377q268 0 430 -149.5t162 -450.5q0 -256 -129 -490q-98 -178 -251 -283.5t-402 -105.5
q-295 0 -448 160t-153 431.5zM1102 1655q94 0 160.5 42t83.5 85h57q-25 -104 -110 -176t-248.5 -72t-216 72t-27.5 176h57q-5 -39 25 -69t77.5 -44t141.5 -14z" />
    <glyph glyph-name="obreve" unicode="&#x14f;" horiz-adv-x="1099" 
d="M371 264q0 -217 184 -217q79 1 147 59q113 98 176.5 302.5t63.5 332.5q0 215 -170 215q-96 0 -176 -76t-127 -188q-98 -234 -98 -428zM526.5 974q110.5 54 247.5 54t245 -72q56 -38 89 -112t33 -174q0 -229 -129 -432q-166 -262 -463 -263q-186 0 -281.5 100.5
t-95.5 257.5t73 329q42 98 106.5 178t175 134zM578 1323q0 55 22 107h49q-14 -140 173 -140t263 140h54q-29 -125 -103.5 -196t-242.5 -71q-215 0 -215 160z" />
    <glyph glyph-name="Ohungarumlaut" unicode="&#x150;" horiz-adv-x="1542" 
d="M1064 1831q38 0 67.5 -33t29.5 -61.5t-19.5 -47t-76.5 -51.5l-207 -114l-39 45l144 182q63 80 101 80zM1412 1831q38 0 67.5 -33t29.5 -61.5t-19.5 -47t-76.5 -51.5l-207 -114l-39 45l144 182q63 80 101 80zM449 471q0 -209 98 -319.5t268 -110.5q332 0 490 410
q96 250 96 482t-97.5 337.5t-271.5 105.5q-291 0 -457 -344q-126 -268 -126 -561zM233 560.5q0 271.5 142 510.5q227 377 649 377q268 0 430 -149.5t162 -450.5q0 -256 -129 -490q-98 -178 -251 -283.5t-402 -105.5q-295 0 -448 160t-153 431.5z" />
    <glyph glyph-name="ohungarumlaut" unicode="&#x151;" horiz-adv-x="1099" 
d="M1077 1536q37 0 68 -22.5t31 -60.5t-64 -122l-168 -213l-49 27l94 295q16 49 33.5 72.5t54.5 23.5zM786.5 1536q36.5 0 67.5 -22.5t31 -60.5t-64 -122l-168 -213l-49 27l94 295q16 49 34 72.5t54.5 23.5zM371 264q0 -217 184 -217q79 1 147 59q113 98 176.5 302.5
t63.5 332.5q0 215 -170 215q-96 0 -176 -76t-127 -188q-98 -234 -98 -428zM526.5 974q110.5 54 247.5 54t245 -72q56 -38 89 -112t33 -174q0 -229 -129 -432q-166 -262 -463 -263q-186 0 -281.5 100.5t-95.5 257.5t73 329q42 98 106.5 178t175 134z" />
    <glyph glyph-name="OE" unicode="&#x152;" horiz-adv-x="2088" 
d="M944 72q109 0 155 24.5t66 114.5l230 1008q18 80 -17 103.5t-185.5 23.5t-274.5 -46q-226 -84 -352 -304q-112 -193 -111.5 -441t135.5 -365.5t354 -117.5zM233 600q0 223 124.5 418.5t315.5 295t515 103.5h1098l-78 -342h-62q10 92 5 152.5t-59 89.5t-179 29h-248
q-27 0 -38 -11.5t-19 -48.5l-117 -510h268q159 0 205 64q22 32 51 110h62l-95 -428h-61q6 109 -22.5 142.5t-155.5 33.5h-268l-105 -448q-16 -72 -14 -102.5t30.5 -53.5t224.5 -22.5t283.5 53.5t163.5 235h62l-105 -360h-1048q-369 0 -551.5 146.5t-182.5 453.5z" />
    <glyph glyph-name="oe" unicode="&#x153;" horiz-adv-x="1650" 
d="M1567 836q0 53 -33 86.5t-86 33.5q-119 0 -222 -150t-130 -343q244 51 357.5 152.5t113.5 220.5zM371 264q0 -217 184 -217q79 1 147 59q113 98 176.5 302.5t63.5 332.5q0 215 -170 215q-96 0 -176 -76t-127 -188q-98 -234 -98 -428zM754.5 1028q117.5 0 210 -51
t129.5 -164q184 215 411 215q121 0 187.5 -59.5t66.5 -158t-86 -183.5q-160 -147 -581 -234q-2 -14 -2 -33q0 -285 186 -284q140 0 274 154q28 32 64 79l47 -41q-180 -293 -469 -293q-78 0 -152.5 41t-107.5 146q-162 -186 -387 -187q-184 0 -278.5 100.5t-94.5 257.5
t73 329q42 98 106.5 178t175 134t228 54z" />
    <glyph glyph-name="Racute" unicode="&#x154;" horiz-adv-x="1310" 
d="M750 739q201 0 311 94.5t110 274.5q0 125 -71.5 181.5t-182.5 56.5t-138 -14.5t-40 -63.5l-121 -529h132zM940 1417q446 0 446 -330q0 -150 -115.5 -252t-305.5 -128v-5q103 -27 143.5 -92.5t43.5 -165.5q1 -34 1 -96q-4 -164 31 -220t162 -69l-19 -59h-160
q-184 0 -206 158q-10 82 -9.5 220t-5.5 163q-12 70 -65 100q-41 27 -156 27h-123l-113 -498q-12 -53 -1.5 -74.5t47.5 -25.5l120 -11l-12 -59h-561l12 59l113 13q37 4 55.5 24.5t30.5 73.5l246 1077q23 94 -45 101l-121 10l14 59h553zM1311 1725q0 -26 -20 -45.5t-105 -45.5
l-348 -114l-23 45l297 202q86 57 120 57.5t56.5 -36.5t22.5 -63z" />
    <glyph glyph-name="racute" unicode="&#x155;" horiz-adv-x="823" 
d="M897 1028q96 0 92 -90q0 -45 -29.5 -86t-64.5 -41t-75 25.5t-70 25.5q-59 0 -129 -122t-125 -322q-18 -66 -55.5 -216.5t-51.5 -201.5l-176 -25l188 838q7 39 9 55q4 39 -39 43l-127 11l12 49l352 57l10 -10l-92 -340h4q82 164 180.5 257t186.5 93zM1010 1481
q25 0 52.5 -30t27.5 -58q0 -49 -115 -111l-309 -172l-31 41l244 246q82 84 131 84z" />
    <glyph glyph-name="Rcaron" unicode="&#x158;" horiz-adv-x="1310" 
d="M750 739q201 0 311 94.5t110 274.5q0 125 -71.5 181.5t-182.5 56.5t-138 -14.5t-40 -63.5l-121 -529h132zM940 1417q446 0 446 -330q0 -150 -115.5 -252t-305.5 -128v-5q103 -27 144 -93q41 -65 43 -165q1 -34 1 -96q-4 -164 31 -220t162 -69l-19 -59h-160
q-184 0 -206 158q-10 82 -9.5 220t-5.5 163q-12 70 -65 100q-41 27 -156 27h-123l-113 -498q-12 -53 -1.5 -74.5t47.5 -25.5l120 -11l-12 -59h-561l12 59l113 13q37 4 55.5 24.5t30.5 73.5l246 1077q23 94 -45 101l-121 10l14 59h553zM964.5 1665q20.5 0 73.5 29l240 125
l27 -41l-287 -228q-57 -47 -85 -47t-69 51l-186 226l37 39l184 -123q45 -31 65.5 -31z" />
    <glyph glyph-name="rcaron" unicode="&#x159;" horiz-adv-x="823" 
d="M897 1028q96 0 92 -90q0 -45 -29.5 -86t-64.5 -41t-75 25.5t-70 25.5q-59 0 -129 -122t-125 -322q-18 -66 -55.5 -216.5t-51.5 -201.5l-176 -25l188 838q7 39 9 55q4 39 -39 43l-127 11l12 49l352 57l10 -10l-92 -340h4q82 164 180.5 257t186.5 93zM782.5 1141
q-24.5 0 -61.5 49l-182 264l47 43l174 -154q39 -31 57.5 -30.5t65.5 30.5l235 154l29 -43l-283 -264q-57 -49 -81.5 -49z" />
    <glyph glyph-name="Sacute" unicode="&#x15a;" horiz-adv-x="1091" 
d="M590.5 41q148.5 0 230.5 89t82 207t-64.5 191.5t-201.5 141.5t-215 153.5t-78 225t100 261.5q52 62 148 100t223 38q233 0 367 -105l-74 -286h-59q37 319 -248 319q-131 0 -208 -73.5t-77 -192t122 -198.5q56 -37 142 -83q160 -82 233.5 -177t73.5 -230
q0 -177 -114.5 -313t-403.5 -140q-121 0 -246 46t-182 122l54 314h59q-8 -195 90 -302.5t246.5 -107.5zM1210 1725q0 -26 -19.5 -45.5t-105.5 -45.5l-348 -114l-22 45l297 202q86 57 119.5 57.5t56 -36.5t22.5 -63z" />
    <glyph glyph-name="sacute" unicode="&#x15b;" horiz-adv-x="796" 
d="M111 170q0 43 30.5 77t76.5 34t68 -71t73 -117t112.5 -46t102 41t40.5 113q0 127 -141 239q-180 145 -180 280.5t90 221.5t228.5 86t206 -51t67.5 -101.5t-32 -76t-70 -25.5t-54 41q-63 141 -164 141q-55 0 -91 -41t-36 -92q0 -106 146 -225q102 -84 145 -155.5
t43 -157.5q0 -131 -96 -220.5t-245.5 -89.5t-234.5 61.5t-85 133.5zM874 1481q25 0 52.5 -30t27.5 -58q0 -49 -114 -111l-310 -172l-30 41l243 246q82 84 131 84z" />
    <glyph glyph-name="Scircumflex" unicode="&#x15c;" horiz-adv-x="1091" 
d="M590.5 41q148.5 0 230.5 89t82 207t-64.5 191.5t-201.5 141.5t-215 153.5t-78 225t100 261.5q52 62 148 100t223 38q233 0 367 -105l-74 -286h-59q37 319 -248 319q-131 0 -208 -73.5t-77 -192t122 -198.5q56 -37 142 -83q160 -82 233.5 -177t73.5 -230
q0 -177 -114.5 -313t-403.5 -140q-121 0 -246 46t-182 122l54 314h59q-8 -195 90 -302.5t246.5 -107.5zM890 1794q28 0 68 -51l187 -225l-37 -39l-184 120q-43 33 -64.5 33t-75.5 -28l-239 -125l-27 41l287 227q57 47 85 47z" />
    <glyph glyph-name="scircumflex" unicode="&#x15d;" horiz-adv-x="796" 
d="M111 170q0 43 30.5 77t76.5 34t68 -71t73 -117t112.5 -46t102 41t40.5 113q0 127 -141 239q-180 145 -180 280.5t90 221.5t228.5 86t206 -51t67.5 -101.5t-32 -76t-70 -25.5t-54 41q-63 141 -164 141q-55 0 -91 -41t-36 -92q0 -106 146 -225q102 -84 145 -155.5
t43 -157.5q0 -131 -96 -220.5t-245.5 -89.5t-234.5 61.5t-85 133.5zM679 1303q-19 0 -65 -31l-235 -154l-29 43l283 264q57 49 81.5 49.5t61.5 -49.5l182 -264l-47 -43l-174 154q-39 31 -58 31z" />
    <glyph glyph-name="Scedilla" unicode="&#x15e;" horiz-adv-x="1091" 
d="M903 337q-1 117 -65 191t-201 142t-215 154t-78 224t100 262q52 62 148 100t223 38q233 0 367 -105l-74 -286h-59q37 319 -248 319q-131 0 -208 -74t-77 -192q0 -119 122 -199q49 -33 142 -82q160 -82 234 -177t73 -230q0 -178 -111 -309q-111 -132 -377 -143l-69 -93
q74 -10 118 -66q44 -57 30 -129t-79 -112t-149 -41q-84 0 -135 20l9 50q82 -11 141 11t59 89q0 43 -30 74q-31 31 -82 32l-6 19l103 148q-91 9 -201 49t-167 116l54 314h59q-8 -195 90 -303t246 -108t231 90q82 89 82 207z" />
    <glyph glyph-name="scedilla" unicode="&#x15f;" horiz-adv-x="796" 
d="M111 170q0 43 30 77q31 34 77 34t68 -71t72 -117t113 -46t103 41t40 113q0 127 -141 239q-180 144 -180 280t90 222q91 86 229 86t206 -51t67 -101q0 -50 -32 -76t-70 -26t-54 41q-63 141 -164 141q-55 0 -91 -41t-36 -92q0 -106 146 -225q102 -84 145 -156t43 -157
q0 -131 -91 -215t-229 -94l-73 -99q74 -10 118 -66q43 -57 29 -129t-79 -112t-149 -41q-84 0 -134 20l8 50q82 -11 141 11t60 89q0 43 -31 74t-82 32l-6 19l108 154q-99 10 -175 65t-76 127z" />
    <glyph glyph-name="Scaron" unicode="&#x160;" horiz-adv-x="1091" 
d="M590.5 41q148.5 0 230.5 89t82 207t-64.5 191.5t-201.5 141.5t-215 153.5t-78 225t100 261.5q52 62 148 100t223 38q233 0 367 -105l-74 -286h-59q37 319 -248 319q-131 0 -208 -73.5t-77 -192t122 -198.5q56 -37 142 -83q160 -82 233.5 -177t73.5 -230
q0 -177 -114.5 -313t-403.5 -140q-121 0 -246 46t-182 122l54 314h59q-8 -195 90 -302.5t246.5 -107.5zM880.5 1665q20.5 0 73.5 29l240 125l27 -41l-287 -228q-57 -47 -85 -47t-69 51l-186 226l37 39l184 -123q45 -31 65.5 -31z" />
    <glyph glyph-name="scaron" unicode="&#x161;" horiz-adv-x="796" 
d="M111 170q0 43 30.5 77t76.5 34t68 -71t73 -117t112.5 -46t102 41t40.5 113q0 127 -141 239q-180 145 -180 280.5t90 221.5t228.5 86t206 -51t67.5 -101.5t-32 -76t-70 -25.5t-54 41q-63 141 -164 141q-55 0 -91 -41t-36 -92q0 -106 146 -225q102 -84 145 -155.5
t43 -157.5q0 -131 -96 -220.5t-245.5 -89.5t-234.5 61.5t-85 133.5zM643 1141q-25 0 -61 49l-183 264l47 43l175 -154q39 -31 57 -30.5t65 30.5l236 154l29 -43l-283 -264q-57 -49 -82 -49z" />
    <glyph glyph-name="Tcommaaccent" unicode="&#x162;" horiz-adv-x="1241" 
d="M1149 1346h-129l-266 -1180q-25 -96 53 -98l149 -9l-14 -59h-272l-90 -123q74 -10 118 -66q44 -57 29 -129q-14 -72 -79 -112q-64 -40 -148 -41q-84 0 -135 20l8 50q82 -11 141 11t59 89q0 43 -30 74q-31 31 -82 32l-6 19l123 176h-267l15 59l133 9q45 2 67 26t31 72
l266 1180h-141q-150 0 -220 -56t-120 -215h-61l77 342h1164l-78 -342h-62q10 93 4 153t-60 89t-177 29z" />
    <glyph glyph-name="tcommaaccent" unicode="&#x163;" horiz-adv-x="698" 
d="M469 82q43 0 106 71t109 146l45 -35q-68 -127 -159 -203t-190 -84l-73 -100q74 -10 118 -66q44 -57 30 -129t-79 -112t-149 -41q-84 0 -135 20l8 50q82 -10 142 11q59 22 59 89q0 43 -31 74t-82 32l-6 19l114 163q-28 13 -48 57t8 132l184 750h-170l23 78h166l26 100
l199 158l25 -15l-70 -243h260l-22 -78h-256l-183 -746q-25 -98 31 -98z" />
    <glyph glyph-name="Tcaron" unicode="&#x164;" horiz-adv-x="1241" 
d="M1149 1346h-129l-266 -1180q-24 -94 53 -98l149 -9l-14 -59h-631l15 59l133 9q45 2 66.5 25.5t31.5 72.5l266 1180h-141q-150 0 -220.5 -56.5t-119.5 -214.5h-61l77 342h1164l-78 -342h-62q10 92 4 152.5t-60 89.5t-177 29zM995.5 1665q20.5 0 73.5 29l240 125l26 -41
l-286 -228q-57 -47 -85 -47t-69 51l-186 226l36 39l185 -123q45 -31 65.5 -31z" />
    <glyph glyph-name="tcaron" unicode="&#x165;" horiz-adv-x="698" 
d="M469 82q43 0 106 71t109 146l45 -35q-68 -127 -165 -208t-212 -81q-74 1 -98 57t2 144l184 750h-170l23 78h166l26 100l199 158l25 -15l-70 -243h260l-22 -78h-256l-183 -746q-25 -98 31 -98zM877 1361q0 33 -29 71t-29 78t33 74t83 34t80 -36t29 -93q0 -178 -241 -359
l-31 35q47 43 76 103t29 93z" />
    <glyph glyph-name="Utilde" unicode="&#x168;" horiz-adv-x="1626" 
d="M1047 1708q52 0 157 -39q121 -39 159 -39t64.5 18.5t71.5 75.5l41 -22q-51 -100 -97 -147.5t-100.5 -47.5t-173.5 39t-169 39t-81.5 -23.5t-66.5 -80.5l-39 26q77 151 145 183q36 18 89 18zM850 41q197 0 295 128t153 363l166 715q23 94 -45 101l-121 10l15 59h561
l-14 -59l-113 -10q-37 -2 -55.5 -25t-30.5 -76l-174 -741q-92 -386 -333 -486q-79 -32 -149.5 -41.5t-164.5 -9.5q-283 0 -415.5 132t-62.5 423l173 723q23 94 -46 101l-120 10l14 59h561l-14 -59l-113 -8q-37 -2 -55.5 -26t-30.5 -77l-162 -696q-119 -510 281 -510z" />
    <glyph glyph-name="utilde" unicode="&#x169;" horiz-adv-x="1265" 
d="M785 1380q52 0 157 -39q121 -39 159 -38.5t64.5 18.5t71.5 76l41 -23q-51 -100 -97 -147t-100.5 -47t-173.5 39t-169 38.5t-81.5 -24t-66.5 -80.5l-39 27q78 152 145 183q37 17 89 17zM508 82q117 0 237.5 147.5t190 309t156.5 465.5l182 24l-219 -835q-29 -111 26 -111
q61 0 189 217l49 -31q-59 -125 -148.5 -209t-193.5 -84q-158 0 -94 222l67 233h-4q-98 -190 -245.5 -322.5t-288.5 -132.5q-215 0 -138 297l142 541q14 47 9 71.5t-40 26.5l-127 11l12 49l373 57l10 -10l-196 -756q-47 -180 51 -180z" />
    <glyph glyph-name="Umacron" unicode="&#x16a;" horiz-adv-x="1626" 
d="M850 41q197 0 295 128t153 363l166 715q23 94 -45 101l-121 10l15 59h561l-14 -59l-113 -10q-37 -2 -55.5 -25t-30.5 -76l-174 -741q-92 -386 -333 -486q-79 -32 -149.5 -41.5t-164.5 -9.5q-283 0 -415.5 132t-62.5 423l173 723q23 94 -46 101l-120 10l14 59h561l-14 -59
l-113 -8q-37 -2 -55.5 -26t-30.5 -77l-162 -696q-119 -510 281 -510zM852 1554l29 121h626l-28 -121h-627z" />
    <glyph glyph-name="umacron" unicode="&#x16b;" horiz-adv-x="1265" 
d="M508 82q117 0 237.5 147.5t190 309t156.5 465.5l182 24l-219 -835q-29 -111 26 -111q61 0 189 217l49 -31q-59 -125 -148.5 -209t-193.5 -84q-158 0 -94 222l67 233h-4q-98 -190 -245.5 -322.5t-288.5 -132.5q-215 0 -138 297l142 541q14 47 9 71.5t-40 26.5l-127 11
l12 49l373 57l10 -10l-196 -756q-47 -180 51 -180zM612 1223l37 120h570l-37 -120h-570z" />
    <glyph glyph-name="Ubreve" unicode="&#x16c;" horiz-adv-x="1626" 
d="M850 41q197 0 295 128t153 363l166 715q23 94 -45 101l-121 10l15 59h561l-14 -59l-113 -10q-37 -2 -55.5 -25t-30.5 -76l-174 -741q-92 -386 -333 -486q-79 -32 -149.5 -41.5t-164.5 -9.5q-283 0 -415.5 132t-62.5 423l173 723q23 94 -46 101l-120 10l14 59h561l-14 -59
l-113 -8q-37 -2 -55.5 -26t-30.5 -77l-162 -696q-119 -510 281 -510zM1218.5 1655q94.5 0 161 42t82.5 85h58q-25 -104 -110 -176t-249 -72t-216 72t-27 176h57q-5 -39 25 -69t77 -44t141.5 -14z" />
    <glyph glyph-name="ubreve" unicode="&#x16d;" horiz-adv-x="1265" 
d="M508 82q117 0 237.5 147.5t190 309t156.5 465.5l182 24l-219 -835q-29 -111 26 -111q61 0 189 217l49 -31q-59 -125 -148.5 -209t-193.5 -84q-158 0 -94 222l67 233h-4q-98 -190 -245.5 -322.5t-288.5 -132.5q-215 0 -138 297l142 541q14 47 9 71.5t-40 26.5l-127 11
l12 49l373 57l10 -10l-196 -756q-47 -180 51 -180zM659 1323q0 55 23 107h49q-14 -140 173 -140t263 140h54q-29 -125 -104 -196t-243 -71q-215 0 -215 160z" />
    <glyph glyph-name="Uring" unicode="&#x16e;" horiz-adv-x="1626" 
d="M850 41q197 0 295 128t153 363l166 715q23 94 -45 101l-121 10l15 59h561l-14 -59l-113 -10q-37 -2 -55.5 -25t-30.5 -76l-174 -741q-92 -386 -333 -486q-79 -32 -149.5 -41.5t-164.5 -9.5q-283 0 -415.5 132t-62.5 423l173 723q23 94 -46 101l-120 10l14 59h561l-14 -59
l-113 -8q-37 -2 -55.5 -26t-30.5 -77l-162 -696q-119 -510 281 -510zM1085 1640q-1 -108 91 -108q44 0 75 39t37 73.5t6 73.5t-23.5 65.5t-58.5 26.5q-66 0 -96.5 -58t-30.5 -112zM1221 1878q78 0 134 -49t56 -138t-57.5 -158t-188.5 -69q-86 0 -141 46t-55 122
q-1 76 43 152q24 41 77.5 67.5t131.5 26.5z" />
    <glyph glyph-name="uring" unicode="&#x16f;" horiz-adv-x="1265" 
d="M508 82q117 0 237.5 147.5t190 309t156.5 465.5l182 24l-219 -835q-29 -111 26 -111q61 0 189 217l49 -31q-59 -125 -148.5 -209t-193.5 -84q-158 0 -94 222l67 233h-4q-98 -190 -245.5 -322.5t-288.5 -132.5q-215 0 -138 297l142 541q14 47 9 71.5t-40 26.5l-127 11
l12 49l373 57l10 -10l-196 -756q-47 -180 51 -180zM799 1302q0 -108 91 -108q44 0 81 47.5t37 112.5t-23.5 92t-58.5 27q-66 0 -96.5 -58.5t-30.5 -112.5zM934 1540q78 0 134 -49t56 -138t-57 -158t-188 -69q-86 0 -141.5 46.5t-55.5 122.5t44 151q24 41 77 67.5t131 26.5z
" />
    <glyph glyph-name="Uhungarumlaut" unicode="&#x170;" horiz-adv-x="1626" 
d="M850 41q197 0 295 128t153 363l166 715q23 94 -45 101l-121 10l15 59h561l-14 -59l-113 -10q-37 -2 -55.5 -25t-30.5 -76l-174 -741q-92 -386 -333 -486q-79 -32 -149.5 -41.5t-164.5 -9.5q-283 0 -415.5 132t-62.5 423l173 723q23 94 -46 101l-120 10l14 59h561l-14 -59
l-113 -8q-37 -2 -55.5 -26t-30.5 -77l-162 -696q-119 -510 281 -510zM1182.5 1831q38.5 0 68 -33t29.5 -61.5t-19.5 -47t-76.5 -51.5l-207 -114l-39 45l143 182q63 80 101.5 80zM1531 1831q38 0 67.5 -33t29.5 -61.5t-19.5 -47t-76.5 -51.5l-207 -114l-39 45l144 182
q63 80 101 80z" />
    <glyph glyph-name="uhungarumlaut" unicode="&#x171;" horiz-adv-x="1265" 
d="M508 82q117 0 237.5 147.5t190 309t156.5 465.5l182 24l-219 -835q-29 -111 26 -111q61 0 189 217l49 -31q-59 -125 -148.5 -209t-193.5 -84q-158 0 -94 222l67 233h-4q-98 -190 -245.5 -322.5t-288.5 -132.5q-215 0 -138 297l142 541q14 47 9 71.5t-40 26.5l-127 11
l12 49l373 57l10 -10l-196 -756q-47 -180 51 -180zM1159 1536q37 0 67.5 -22.5t30.5 -60.5t-63 -122l-168 -213l-49 27l94 295q16 49 33.5 72.5t54.5 23.5zM868 1536q37 0 68 -22.5t31 -60.5t-64 -122l-168 -213l-49 27l94 295q16 49 33.5 72.5t54.5 23.5z" />
    <glyph glyph-name="Wcircumflex" unicode="&#x174;" horiz-adv-x="1937" 
d="M248 1358l12 59h518l-14 -59l-133 -12q-49 -2 -43 -66l67 -1030h11l555 1130h143l104 -1130h9l245 514q176 367 234 510q25 63 -19 69l-133 15l11 59h458l-10 -59q-94 -8 -125 -27.5t-80 -105.5t-250 -494l-356 -731h-143l-107 1128h-10l-561 -1128h-144l-90 1262
q-4 47 -15 65.5t-44 20.5zM1361 1794q28 0 69 -51l186 -225l-37 -39l-184 120q-43 33 -64.5 33t-75.5 -28l-239 -125l-27 41l287 227q57 47 85 47z" />
    <glyph glyph-name="wcircumflex" unicode="&#x175;" horiz-adv-x="1607" 
d="M520 82q111 0 262 229q120 181 246 686l176 13l-143 -645q-61 -283 67 -283q80 0 177.5 106.5t166 266t68.5 302.5t-24 228q70 43 147 43q7 0 23 -22q40 -55 39 -142.5t-64.5 -239t-163.5 -296.5q-242 -352 -457 -353q-88 0 -130 54.5t-42 125t33 238.5l-4 4
q-94 -188 -222 -305t-253 -117q-92 0 -135 70t-11 209l130 559q14 53 8 74.5t-39 23.5l-125 11l10 49l367 57l10 -10l-180 -770q-20 -84 0 -125t63 -41zM1146 1303q-19 0 -65 -31l-235 -154l-29 43l283 264q57 49 81.5 49.5t61.5 -49.5l182 -264l-47 -43l-174 154
q-39 31 -58 31z" />
    <glyph glyph-name="Ycircumflex" unicode="&#x176;" horiz-adv-x="1210" 
d="M268 1358l13 59h510l-13 -59l-112 -10q-51 -6 -39 -60l186 -629h6q307 416 432 631q31 57 -30 60l-107 8l12 59h469l-12 -59q-86 -6 -123 -24.5t-92 -80.5q-190 -217 -471 -624q-41 -55 -57 -123l-78 -346q-10 -45 0 -65.5t47 -22.5l156 -13l-13 -59h-635l13 59l147 15
q39 4 56.5 23.5t27.5 62.5l78 344q14 59 0 108q-158 528 -189.5 619.5t-57.5 105t-124 21.5zM1025 1794q28 0 69 -51l186 -225l-37 -39l-184 120q-43 33 -64.5 33t-74.5 -28l-240 -125l-27 41l287 227q57 47 85 47z" />
    <glyph glyph-name="ycircumflex" unicode="&#x177;" horiz-adv-x="958" 
d="M-10 -382q0 44 32 82q73 85 144 -9q47 -63 81 -63.5t69.5 39.5t74.5 132.5t39 227.5q0 238 -68 716q-12 84 -25 113t-46 27l-139 -4l-7 51l344 98l17 -8q53 -281 82 -895h6q250 430 285 555t30 297q76 51 160 51q19 0 28 -41t9 -65.5t-6 -48t-22.5 -57.5t-31 -61.5
t-42 -74.5t-44 -74.5t-51.5 -84t-70.5 -115t-96 -163t-112.5 -194.5q-52 -89 -90 -155t-70 -118q-102 -168 -158 -210q-82 -62 -160.5 -62t-120 35t-41.5 79zM821.5 1303q-18.5 0 -65.5 -31l-236 -154l-28 43l282 264q57 49 82 49.5t62 -49.5l182 -264l-47 -43l-174 154
q-39 31 -57.5 31z" />
    <glyph glyph-name="Ydieresis" unicode="&#x178;" horiz-adv-x="1210" 
d="M268 1358l13 59h510l-13 -59l-112 -10q-51 -6 -39 -60l186 -629h6q307 416 432 631q31 57 -30 60l-107 8l12 59h469l-12 -59q-86 -6 -123 -24.5t-92 -80.5q-190 -217 -471 -624q-41 -55 -57 -123l-78 -346q-10 -45 0 -65.5t47 -22.5l156 -13l-13 -59h-635l13 59l147 15
q39 4 56.5 23.5t27.5 62.5l78 344q14 59 0 108q-158 528 -189.5 619.5t-57.5 105t-124 21.5zM623 1617q0 50 34.5 85t82.5 35t75 -30t27 -77t-33 -83t-83 -36t-76.5 28t-26.5 78zM1049 1617q0 50 34.5 85t82.5 35t75 -30t27 -77t-33 -83t-83 -36t-76.5 28t-26.5 78z" />
    <glyph glyph-name="Zacute" unicode="&#x179;" horiz-adv-x="1273" 
d="M825 1346q-174 0 -245.5 -50.5t-133.5 -224.5h-61l76 346h1040l10 -26q-662 -725 -1196 -1319h416q248 0 344 51t176 237h62l-105 -360h-1169l-8 27q500 549 1194 1319h-400zM1356 1725q0 -26 -20 -45.5t-105 -45.5l-348 -114l-23 45l297 202q86 57 120 57.5t56.5 -36.5
t22.5 -63z" />
    <glyph glyph-name="zacute" unicode="&#x17a;" horiz-adv-x="958" 
d="M80 36.5q0 61.5 47 109.5t721 726h-361q-35 0 -60.5 -9t-53.5 -44t-80 -129l-51 23q61 195 137 291h665l17 -29q-252 -246 -709 -723q51 -6 201 -61t223 -56q43 0 81 41t57.5 83t54.5 126l57 -14q-49 -193 -104.5 -294.5t-147.5 -101.5t-299 82q-49 19 -126 57t-101.5 38
t-24.5 -37v-90q0 -23 -33.5 -36.5t-62.5 -13.5q-47 0 -47 61.5zM993 1481q25 0 52.5 -30t27.5 -58q0 -49 -115 -111l-309 -172l-31 41l244 246q82 84 131 84z" />
    <glyph glyph-name="Zdotaccent" unicode="&#x17b;" horiz-adv-x="1273" 
d="M825 1346q-174 0 -245.5 -50.5t-133.5 -224.5h-61l76 346h1040l10 -26q-662 -725 -1196 -1319h416q248 0 344 51t176 237h62l-105 -360h-1169l-8 27q500 549 1194 1319h-400zM891 1617q0 50 35 85t83 35t74.5 -30t26.5 -77t-33 -83t-83 -36t-76.5 28t-26.5 78z" />
    <glyph glyph-name="zdotaccent" unicode="&#x17c;" horiz-adv-x="958" 
d="M80 36.5q0 61.5 47 109.5t721 726h-361q-35 0 -60.5 -9t-53.5 -44t-80 -129l-51 23q61 195 137 291h665l17 -29q-252 -246 -709 -723q51 -6 201 -61t223 -56q43 0 81 41t57.5 83t54.5 126l57 -14q-49 -193 -104.5 -294.5t-147.5 -101.5t-299 82q-49 18 -126 56.5
t-101.5 38.5t-24.5 -37v-90q0 -23 -33.5 -36.5t-62.5 -13.5q-47 0 -47 61.5zM690 1273q0 50 35 85t83 35t74.5 -30t26.5 -77t-32.5 -83t-82.5 -36t-77 28t-27 78z" />
    <glyph glyph-name="Zcaron" unicode="&#x17d;" horiz-adv-x="1273" 
d="M825 1346q-174 0 -245.5 -50.5t-133.5 -224.5h-61l76 346h1040l10 -26q-662 -725 -1196 -1319h416q248 0 344 51t176 237h62l-105 -360h-1169l-8 27q500 549 1194 1319h-400zM970.5 1665q20.5 0 73.5 29l240 125l27 -41l-287 -228q-57 -47 -85 -47t-69 51l-186 226l37 39
l184 -123q45 -31 65.5 -31z" />
    <glyph glyph-name="zcaron" unicode="&#x17e;" horiz-adv-x="958" 
d="M80 36.5q0 61.5 47 109.5t721 726h-361q-35 0 -60.5 -9t-53.5 -44t-80 -129l-51 23q61 195 137 291h665l17 -29q-252 -246 -709 -723q51 -6 201 -61t223 -56q43 0 81 41t57.5 83t54.5 126l57 -14q-49 -193 -104.5 -294.5t-147.5 -101.5t-299 82q-49 19 -126 57t-101.5 38
t-24.5 -37v-90q0 -23 -33.5 -36.5t-62.5 -13.5q-47 0 -47 61.5zM698.5 1141q-24.5 0 -61.5 49l-182 264l47 43l174 -154q39 -31 58 -30.5t65 30.5l235 154l29 -43l-283 -264q-57 -49 -81.5 -49z" />
    <glyph glyph-name="longs" unicode="&#x17f;" horiz-adv-x="624" 
d="M-147 -382q0 44 28.5 76t58.5 32t81 -73t89 -73t48 62l254 1284h-183l23 78h178l21 75q83 321 257 406q72 35 163 35t160 -47.5t69 -112.5q0 -37 -34 -63.5t-69 -26.5t-53 35q-35 78 -64.5 110.5t-68.5 32.5t-71.5 -44t-49.5 -110l-67 -290l-207 -941q-68 -307 -148 -433
t-229 -126q-74 0 -130 35t-56 79z" />
    <glyph glyph-name="uni0186" unicode="&#x186;" horiz-adv-x="1353" 
d="M219 385q0 -172 82 -258t274 -86q309 0 484 291q72 119 109.5 274.5t37.5 300.5q0 229 -111.5 349t-284.5 120t-257 -73.5t-193 -266.5h-61l80 326q186 86 405 86q410 0 562 -268q80 -140 79 -326q0 -287 -139 -512q-100 -164 -280.5 -268.5t-446.5 -104.5
q-117 0 -244 29t-209 80l52 307h61z" />
    <glyph glyph-name="uni0189" unicode="&#x189;" horiz-adv-x="1576" 
d="M672 72q242 0 390 82t243 237q133 219 133 496q0 59 -6 110t-34 118t-75 114t-137 81t-215 35t-166 -11t-53 -64l-111 -494h281l-23 -78h-276l-119 -522q-14 -63 28 -84q43 -20 140 -20zM950 1417q531 0 662 -333q45 -114 45 -242q0 -264 -137 -471q-246 -371 -795 -371
h-629l13 59l114 13q37 2 56 24q18 23 28 74l119 528h-219l20 78h217l107 471q10 51 1 75t-44 26l-121 10l12 59h551z" />
    <glyph glyph-name="uni018F" unicode="&#x18f;" horiz-adv-x="1441" 
d="M446 446q0 -197 77 -301t218.5 -104t249 88t171 214t100.5 284h-730q-53 0 -69.5 -35t-16.5 -146zM231 528q0 104 28 140.5t89 36.5h930q23 104 22 249q0 215 -100 319.5t-305 104.5q-63 0 -134 -28.5t-157 -116.5t-137 -221h-80l86 338q227 98 412 98q631 0 631 -600
q0 -135 -45.5 -284.5t-103.5 -244t-136 -174t-199 -128t-264 -48.5q-270 0 -403.5 152.5t-133.5 406.5z" />
    <glyph glyph-name="uni0190" unicode="&#x190;" horiz-adv-x="1177" 
d="M164 315q0 162 129 281t313 160v4q-121 23 -189.5 96.5t-68.5 183.5q0 182 164 295t393 113q123 0 244 -26.5t182 -69.5l-61 -336h-62q0 232 -80 301q-43 37 -95 49t-138 12q-135 0 -235.5 -94t-100.5 -223q0 -268 307 -268h135l-16 -78h-129q-172 0 -321.5 -122
t-149.5 -288q0 -113 71.5 -188.5t192.5 -75.5t197 20.5t131 70.5t90 104.5t82 150.5h63l-96 -328q-231 -90 -440 -90q-512 0 -512 346z" />
    <glyph glyph-name="uni0191" unicode="&#x191;" horiz-adv-x="1169" 
d="M-324 -326q0 39 44 68t80 29t54 -31t26 -67q7 -37 33 -67t75 -30q103 0 162 120t104 324l281 1233q20 86 -46 93l-120 12l12 59h1042l-77 -338h-62q10 89 5 149t-59 89t-179 29h-252q-29 0 -40 -12t-20 -50l-123 -536h271q129 0 172 32t84 144h61l-94 -430h-61
q6 108 -23 142t-156 34h-270l-135 -588q-73 -303 -187 -440t-286 -138q-316 0 -316 170z" />
    <glyph glyph-name="florin" unicode="&#x192;" horiz-adv-x="1085" 
d="M315 -205q43 0 72 123l193 836h-201l18 73h201l25 88q59 225 139 340q115 160 289 160q109 0 167 -43t57 -87q-1 -45 -30 -67t-61 -22t-51 39q-55 109 -125 108q-45 1 -83 -65t-79 -231l-55 -220h276l-18 -73h-281l-43 -176q-129 -512 -201 -662q-92 -193 -266 -192
q-74 0 -126 36t-51 77q1 40 28 64q66 59 110 -20q45 -86 96 -86z" />
    <glyph glyph-name="uni0194" unicode="&#x194;" horiz-adv-x="1208" 
d="M895 260q0 -156 -84 -222t-207 -67q-74 0 -133 35t-59 119q0 131 233 369q-98 451 -201 770q-20 58 -45 72t-123 22l13 59h504l-13 -59l-108 -10q-53 -6 -39 -60l174 -629h6q307 416 432 631q29 53 -31 60l-100 8l12 59h457l-12 -59q-84 -6 -118 -24t-91 -81
q-123 -139 -528 -704q36 -129 42 -149q19 -59 19 -140zM512 123q0 -45 20 -63t64 -17q44 0 84 49q41 48 41 112t-47 197h-4q-158 -190 -158 -278z" />
    <glyph glyph-name="uni0196" unicode="&#x196;" horiz-adv-x="843" 
d="M608 80q84 0 217 86l27 -47q-109 -90 -172 -120t-162 -30q-287 0 -182 443l199 835q23 94 -46 101l-120 10l14 59h387l-238 -1034q-40 -163 -24 -233t100 -70z" />
    <glyph glyph-name="uni0197" unicode="&#x197;" horiz-adv-x="731" 
d="M94 0l12 59l113 13q37 2 56 26t30 72l121 528h-195l17 78h196l107 471q23 96 -45 103l-121 8l14 59h562l-15 -59l-112 -10q-38 -2 -56 -27t-30 -74l-107 -471h193l-17 -78h-194l-121 -528q-23 -96 45 -102l121 -9l-13 -59h-561z" />
    <glyph glyph-name="uni019F" unicode="&#x19f;" horiz-adv-x="1542" 
d="M1401 954q0 210 -97 316t-258 106t-278 -94q-116 -94 -180 -221t-103 -285h904q12 104 12 178zM449 471q0 -209 98 -319t268 -111q332 0 490 410q47 123 71 247h-907q-20 -110 -20 -227zM233 553q0 168 54 327q115 345 401 490q154 78 336 78q268 0 430 -150t162 -450
q0 -256 -129 -490q-98 -178 -251 -283t-402 -106q-295 0 -448 160t-153 424z" />
    <glyph glyph-name="Ohorn" unicode="&#x1a0;" horiz-adv-x="1542" 
d="M1032 1376q-291 0 -457 -344q-127 -268 -126 -561q0 -209 98 -319.5t268 -110.5q332 0 490 410q96 250 96 482t-97.5 337.5t-271.5 105.5zM1024 1448q297 0 453 -174q111 82 110 143q0 25 -18.5 41.5t-41 22.5t-41 22.5t-18.5 50.5t32 64.5t82 30.5t79 -40t29 -91
q0 -160 -183 -283q109 -147 109 -395t-129 -482q-98 -178 -251 -283.5t-402 -105.5q-295 0 -448 160q-153 159 -153 431t142 511q227 377 649 377z" />
    <glyph glyph-name="ohorn" unicode="&#x1a1;" horiz-adv-x="1099" 
d="M772 956q-96 0 -176 -76t-127 -188q-98 -235 -98 -428q0 -217 184 -217q79 1 147 59q113 98 176.5 302.5t63.5 332.5q0 215 -170 215zM774 1028q209 0 305 -137q104 78 105 137q0 25 -18 41q-20 17 -42 23q-60 17 -59.5 61.5t32 75.5t82 31t79 -40t28.5 -92
q0 -158 -180 -282q35 -80 35 -176q0 -229 -129 -432q-166 -262 -463 -263q-186 0 -281.5 100.5t-95.5 257.5t73 329q42 98 106.5 178t175 134t247.5 54z" />
    <glyph glyph-name="uni01A9" unicode="&#x1a9;" horiz-adv-x="1165" 
d="M592 1346v-5l250 -559l-566 -622v-4h469q176 0 254 44t142 191h61l-115 -391h-1036l-10 27l629 688l-301 678l14 24h985l-76 -344h-61q14 172 -31 222t-223 51h-385z" />
    <glyph glyph-name="Uhorn" unicode="&#x1af;" horiz-adv-x="1626" 
d="M850 41q197 0 295 128t153 363l166 715q23 94 -45 101l-121 10l15 59h391l-43 -176q160 104 160 176q0 25 -18.5 41.5t-41 22.5t-41 22.5t-18.5 50t31.5 64.5t81.5 31t79 -40t29 -96q0 -119 -83 -196.5t-193 -140.5l-160 -670q-92 -386 -333 -486q-79 -32 -149.5 -41.5
t-164.5 -9.5q-283 0 -415 132t-63 423l173 723q23 94 -46 101l-120 10l14 59h561l-14 -59l-113 -8q-37 -2 -55.5 -26t-30.5 -77l-162 -696q-119 -510 281 -510z" />
    <glyph glyph-name="uhorn" unicode="&#x1b0;" horiz-adv-x="1265" 
d="M1268 1164q0 34 31.5 65t81.5 31t79 -40t29 -96q0 -122 -84 -197.5t-195 -142.5l-155 -591q-29 -111 26 -111q61 0 189 217l49 -31q-59 -125 -148.5 -209t-193.5 -84q-158 0 -94 222l67 233h-4q-98 -190 -245.5 -322.5t-288.5 -132.5q-215 0 -138 297l142 541
q14 47 9 71.5t-40 26.5l-127 11l12 49l373 57l10 -10l-196 -756q-47 -180 51 -180q117 0 237.5 147.5t190.5 309.5t156 465l182 24l-47 -176q160 104 159 176q0 47 -59 64t-59 72z" />
    <glyph glyph-name="uni01B2" unicode="&#x1b2;" horiz-adv-x="1433" 
d="M805 41q227 0 403 254t176 618q0 209 -100 373q-24 41 -24 75q0 35 46 61t88 26t74 -35t61 -123q27 -88 27 -200q-1 -223 -74 -472q-73 -250 -249 -446q-84 -92 -204 -147t-259 -56q-262 1 -366 145t-42 410l173 723q23 94 -46 101l-120 10l14 59h561l-14 -59l-113 -8
q-37 -2 -55 -26t-31 -77l-162 -696q-63 -266 11 -388t225 -122z" />
    <glyph glyph-name="uni01B7" unicode="&#x1b7;" horiz-adv-x="1126" 
d="M127 252q1 170 111 170q62 0 89 -28.5t27 -64.5t-11 -78t-11 -69q0 -59 60.5 -100t144.5 -41q166 0 264 110.5t98 288.5q0 268 -190 269q-111 0 -174 -31l-39 65l10 31l549 481v7h-273q-188 0 -272 -45.5t-135 -194.5h-64l92 395h867l14 -35l-20 -39q-25 -49 -134 -143
l-464 -403l2 -4q29 12 106 12q180 0 262 -102.5t82 -290t-149.5 -315.5t-458.5 -128q-133 0 -258 85t-125 198z" />
    <glyph glyph-name="uni01CD" unicode="&#x1cd;" horiz-adv-x="1277" 
d="M539 625h407l-72 602h-4q-245 -442 -331 -602zM-47 0l12 59l68 9q87 7 143 101q26 44 371 644l344 604h145l152 -1233q8 -68 22.5 -91t59.5 -27l78 -7l-13 -59h-504l13 59l108 11q33 4 44.5 20t7.5 60l-48 397h-458q-59 -109 -211 -402q-31 -70 26 -75l113 -11l-12 -59
h-461zM1019.5 1665q20.5 0 74.5 29l239 125l27 -41l-287 -228q-57 -47 -85 -47t-68 51l-187 226l37 39l184 -123q45 -31 65.5 -31z" />
    <glyph glyph-name="uni01CE" unicode="&#x1ce;" horiz-adv-x="1148" 
d="M338 225q0 -143 90 -143q133 0 338 311q147 221 219 518q-49 45 -125 45q-113 0 -216 -81.5t-166.5 -199.5t-101.5 -240t-38 -210zM135 210q0 93 27.5 196.5t87 214t141.5 200.5t204 148.5t235.5 58.5t175.5 -43l10 27h172l-217 -817q-31 -113 20 -113q39 0 92.5 71.5
t92.5 145.5l49 -29q-57 -129 -144.5 -212t-195.5 -83q-158 0 -90 230l69 233h-4q-264 -463 -528 -463q-98 0 -147.5 71t-49.5 164zM881 1141q-25 0 -62 49l-182 264l47 43l174 -154q39 -31 57.5 -30.5t65.5 30.5l236 154l28 -43l-282 -264q-57 -49 -82 -49z" />
    <glyph glyph-name="uni01CF" unicode="&#x1cf;" horiz-adv-x="706" 
d="M82 0l12 59l113 13q37 2 56.5 25.5t29.5 72.5l246 1077q23 96 -45 103l-121 8l14 59h561l-14 -59l-113 -10q-37 -2 -55 -27t-31 -74l-246 -1077q-23 -96 46 -102l120 -9l-12 -59h-561zM733.5 1665q20.5 0 73.5 29l240 125l26 -41l-287 -228q-57 -47 -85 -47t-68 51
l-187 226l37 39l185 -123q45 -31 65.5 -31z" />
    <glyph glyph-name="uni01D1" unicode="&#x1d1;" horiz-adv-x="1542" 
d="M449 471q0 -209 98 -319.5t268 -110.5q332 0 490 410q96 250 96 482t-97.5 337.5t-271.5 105.5q-291 0 -457 -344q-126 -268 -126 -561zM233 560.5q0 271.5 142 510.5q227 377 649 377q268 0 430 -149.5t162 -450.5q0 -256 -129 -490q-98 -178 -251 -283.5t-402 -105.5
q-295 0 -448 160t-153 431.5zM1073.5 1665q20.5 0 73.5 29l239 125l27 -41l-287 -228q-57 -47 -85 -47t-68 51l-187 226l37 39l185 -123q45 -31 65.5 -31z" />
    <glyph glyph-name="uni01D2" unicode="&#x1d2;" horiz-adv-x="1099" 
d="M371 264q0 -217 184 -217q79 1 147 59q113 98 176.5 302.5t63.5 332.5q0 215 -170 215q-96 0 -176 -76t-127 -188q-98 -234 -98 -428zM526.5 974q110.5 54 247.5 54t245 -72q56 -38 89 -112t33 -174q0 -229 -129 -432q-166 -262 -463 -263q-186 0 -281.5 100.5
t-95.5 257.5t73 329q42 98 106.5 178t175 134zM799 1141q-25 0 -62 49l-182 264l47 43l174 -154q39 -31 57.5 -30.5t65.5 30.5l236 154l28 -43l-282 -264q-57 -49 -82 -49z" />
    <glyph glyph-name="uni01D3" unicode="&#x1d3;" horiz-adv-x="1626" 
d="M850 41q197 0 295 128t153 363l166 715q23 94 -45 101l-121 10l15 59h561l-14 -59l-113 -10q-37 -2 -55.5 -25t-30.5 -76l-174 -741q-92 -386 -333 -486q-79 -32 -149.5 -41.5t-164.5 -9.5q-283 0 -415.5 132t-62.5 423l173 723q23 94 -46 101l-120 10l14 59h561l-14 -59
l-113 -8q-37 -2 -55.5 -26t-30.5 -77l-162 -696q-119 -510 281 -510zM1190.5 1665q19.5 0 73.5 29l239 125l27 -41l-287 -228q-57 -47 -85 -47t-68 51l-187 226l37 39l184 -123q47 -31 66.5 -31z" />
    <glyph glyph-name="uni01D4" unicode="&#x1d4;" horiz-adv-x="1265" 
d="M508 82q117 0 237.5 147.5t190 309t156.5 465.5l182 24l-219 -835q-29 -111 26 -111q61 0 189 217l49 -31q-59 -125 -148.5 -209t-193.5 -84q-158 0 -94 222l67 233h-4q-98 -190 -245.5 -322.5t-288.5 -132.5q-215 0 -138 297l142 541q14 47 9 71.5t-40 26.5l-127 11
l12 49l373 57l10 -10l-196 -756q-47 -180 51 -180zM881 1141q-25 0 -62 49l-182 264l47 43l174 -154q39 -31 57.5 -30.5t65.5 30.5l236 154l28 -43l-282 -264q-57 -49 -82 -49z" />
    <glyph glyph-name="uni01DD" unicode="&#x1dd;" horiz-adv-x="927" 
d="M291 168q0 -53 32.5 -87t86.5 -34q119 0 222 150.5t130 343.5q-244 -51 -357.5 -152.5t-113.5 -220.5zM98 192.5q0 98.5 86 184.5q160 147 582 233q2 14 2 33q0 285 -186 285q-140 0 -274 -155q-28 -32 -64 -79l-47 41q180 293 469 293q103 0 195 -60q110 -72 110 -276
q0 -274 -170 -483q-188 -233 -449 -234q-121 0 -187.5 59.5t-66.5 158z" />
    <glyph glyph-name="uni01E2" unicode="&#x1e2;" horiz-adv-x="1802" 
d="M702 776h306l129 563h-11zM1626 1346h-248q-27 0 -38 -11.5t-19 -48.5l-117 -510h269q159 0 205 64q22 32 51 110h61l-94 -428h-62q6 109 -22.5 142.5t-155.5 33.5h-268l-105 -448q-16 -72 -14 -102.5t31 -53.5t224.5 -22.5t283.5 53.5t164 235h61l-104 -360h-1070l13 59
l114 13q37 2 54.5 23.5t29.5 74.5l119 528h-342q-238 -317 -387 -553q-45 -70 14 -75l121 -11l-16 -59h-488l17 59l69 7q41 4 69 24q92 67 880 1137q86 115 24 119l-137 12l18 59h1168l-78 -342h-61q10 92 5 152.5t-59.5 89.5t-179.5 29zM977 1554l29 121h626l-28 -121h-627
z" />
    <glyph glyph-name="uni01E3" unicode="&#x1e3;" horiz-adv-x="1595" 
d="M1511 834q0 55 -31.5 88.5t-86.5 33.5q-119 0 -221.5 -150t-129.5 -343q242 51 355.5 152.5t113.5 218.5zM344 214q0 -132 84 -132q72 0 167 93t183 235q139 223 207 483q-49 39 -131 39q-143 0 -266 -132t-183.5 -293t-60.5 -293zM1135 -25q-107 0 -194 60
q-105 72 -105 276q0 6 8 88h-4q-61 -104 -130 -191t-172.5 -160t-200.5 -73t-146.5 71t-49.5 161t27 188.5t85 206t139 196.5t205 147.5t265 58.5q80 0 160 -35l72 84h75l-51 -152l4 -4q145 131 322 131q125 0 192.5 -59.5t67.5 -151.5t-90 -182q-160 -152 -576 -242l-2 -33
q0 -285 185 -284q72 0 141.5 42t108 86t85.5 107l48 -43q-180 -293 -469 -293zM1042 1223l37 120h570l-37 -120h-570z" />
    <glyph glyph-name="Gcaron" unicode="&#x1e6;" horiz-adv-x="1452" 
d="M233 589.5q0 316.5 195 563.5q231 295 684 295q270 0 459 -102l-74 -320h-61q22 254 -146 322q-70 28 -195.5 28t-239.5 -53t-186.5 -136t-120.5 -193q-89 -203 -89 -445t117.5 -375t312.5 -133q143 0 192 27.5t62 83.5l76 309q25 92 -35 98l-154 14l12 60h539l-12 -60
l-90 -8q-41 -4 -64 -104l-96 -414q-211 -78 -434 -78q-301 0 -477 152q-175 152 -175 468.5zM1159.5 1665q20.5 0 73.5 29l240 125l26 -41l-287 -228q-57 -47 -85 -47t-68 51l-187 226l37 39l185 -123q45 -31 65.5 -31z" />
    <glyph glyph-name="gcaron" unicode="&#x1e7;" horiz-adv-x="1021" 
d="M438 614q0 -76 45 -125t125 -49q113 0 182.5 99.5t69.5 244.5q0 94 -51 133t-127 39t-137.5 -60t-84 -133t-22.5 -149zM250 -183.5q0 -105.5 86 -173t214 -67.5t208 59.5t80 171.5q0 190 -371 244q-78 -12 -147.5 -70.5t-69.5 -164zM61 -206q0 126 95.5 196.5t220.5 93.5
v4q-145 68 -146 154q0 76 175 147l12 6v4q-61 23 -116.5 87.5t-55.5 177t91 229.5q105 135 365 135q140 0 234 -61l297 82l12 -19l-67 -129l-172 -24q43 -55 43 -142q0 -162 -117 -264t-326 -102q-70 0 -110 6q-90 -23 -90 -80q0 -41 55 -67.5t192 -59.5q358 -86 359 -322
q0 -162 -141.5 -252t-349.5 -90t-334 82t-126 208zM770 1141q-25 0 -61 49l-183 264l47 43l175 -154q39 -31 57 -30.5t65 30.5l236 154l29 -43l-283 -264q-57 -49 -82 -49z" />
    <glyph glyph-name="uni01E8" unicode="&#x1e8;" horiz-adv-x="1331" 
d="M82 0l12 59l113 13q37 2 56.5 25.5t29.5 72.5l246 1077q23 96 -45 103l-121 8l14 59h561l-14 -59l-113 -10q-37 -2 -55 -27t-31 -74l-110 -485l4 -4q469 397 610 526q63 61 2 68l-78 6l8 59h510l-8 -59q-117 -8 -176 -32q-160 -64 -698 -517q176 -367 362 -602
q66 -80 113 -116t127 -42l-15 -59l-100 2q-119 4 -194.5 43t-149.5 137q-125 170 -319 567h-5l-129 -569q-23 -96 46 -102l120 -9l-12 -59h-561zM1107.5 1665q20.5 0 74.5 29l239 125l27 -41l-287 -228q-57 -47 -85 -47t-68 51l-187 226l37 39l184 -123q45 -31 65.5 -31z
" />
    <glyph glyph-name="uni01E9" unicode="&#x1e9;" horiz-adv-x="1116" 
d="M1233 928q0 -41 -29.5 -76t-64.5 -35t-81 28t-83 27q-82 0 -291 -239q57 -207 154 -400q39 -82 63.5 -113.5t50.5 -31.5q70 0 164 203l51 -27q-102 -289 -282 -289q-72 0 -121 46.5t-96 148.5q-95 207 -146 377q154 186 318 330q180 152 286.5 151.5t106.5 -100.5z
M188 -25l318 1334q12 59 5 77.5t-46 22.5l-117 14l12 47l367 50l10 -11l-360 -1509zM972.5 1804q18.5 0 65.5 31l236 154l29 -43l-283 -265q-57 -49 -82 -49t-61 49l-183 265l47 43l174 -154q39 -31 57.5 -31z" />
    <glyph glyph-name="uni01EE" unicode="&#x1ee;" horiz-adv-x="1126" 
d="M127 252q1 170 111 170q62 0 89 -28.5t27 -64.5t-11 -78t-11 -69q0 -59 60.5 -100t144.5 -41q166 0 264 110.5t98 288.5q0 268 -190 269q-111 0 -174 -31l-39 65l10 31l549 481v7h-273q-188 0 -272 -45.5t-135 -194.5h-64l92 395h867l14 -35l-20 -39q-25 -49 -134 -143
l-464 -403l2 -4q29 12 106 12q180 0 262 -102.5t82 -290t-149.5 -315.5t-458.5 -128q-133 0 -258 85t-125 198zM929.5 1665q20.5 0 74.5 29l239 125l27 -41l-287 -228q-57 -47 -85 -47t-69 51l-186 226l37 39l184 -123q45 -31 65.5 -31z" />
    <glyph glyph-name="uni01EF" unicode="&#x1ef;" horiz-adv-x="1024" 
d="M18 -326q0 45 27 74t71 29t62.5 -32t25.5 -68.5t45 -68.5t105 -32q158 0 257.5 146.5t99.5 318.5q0 96 -48.5 157.5t-142.5 61.5t-153 -29l-29 64l14 31l549 516v6h-389q-96 0 -135 -37t-88 -145l-51 22q31 98 76.5 191.5t74.5 124.5h694l21 -29l-21 -45
q-25 -55 -122 -148l-469 -434l4 -4q14 12 96 12q164 0 240.5 -94t76.5 -244q0 -238 -149.5 -376t-429.5 -138q-160 0 -236 48t-76 122zM762 1141q-25 0 -62 49l-182 264l47 43l174 -154q39 -31 57.5 -30.5t65.5 30.5l236 154l28 -43l-282 -264q-57 -49 -82 -49z" />
    <glyph glyph-name="uni01F4" unicode="&#x1f4;" horiz-adv-x="1452" 
d="M233 589.5q0 316.5 195 563.5q231 295 684 295q270 0 459 -102l-74 -320h-61q22 254 -146 322q-70 28 -195.5 28t-239.5 -53t-186.5 -136t-120.5 -193q-89 -203 -89 -445t117.5 -375t312.5 -133q143 0 192 27.5t62 83.5l76 309q25 92 -35 98l-154 14l12 60h539l-12 -60
l-90 -8q-41 -4 -64 -104l-96 -414q-211 -78 -434 -78q-301 0 -477 152q-175 152 -175 468.5zM1505 1725q0 -26 -19.5 -45.5t-105.5 -45.5l-348 -114l-22 45l297 202q86 57 119.5 57.5t56 -36.5t22.5 -63z" />
    <glyph glyph-name="uni01F5" unicode="&#x1f5;" horiz-adv-x="1021" 
d="M438 614q0 -76 45 -125t125 -49q113 0 182.5 99.5t69.5 244.5q0 94 -51 133t-127 39t-137.5 -60t-84 -133t-22.5 -149zM250 -183.5q0 -105.5 86 -173t214 -67.5t208 59.5t80 171.5q0 190 -371 244q-78 -12 -147.5 -70.5t-69.5 -164zM61 -206q0 126 95.5 196.5t220.5 93.5
v4q-145 68 -146 154q0 76 175 147l12 6v4q-61 23 -116.5 87.5t-55.5 177t91 229.5q105 135 365 135q140 0 234 -61l297 82l12 -19l-67 -129l-172 -24q43 -55 43 -142q0 -162 -117 -264t-326 -102q-70 0 -110 6q-90 -23 -90 -80q0 -41 55 -67.5t192 -59.5q358 -86 359 -322
q0 -162 -141.5 -252t-349.5 -90t-334 82t-126 208zM997 1481q25 0 52.5 -30t27.5 -58q0 -49 -114 -111l-310 -172l-30 41l243 246q82 84 131 84z" />
    <glyph glyph-name="uni01F8" unicode="&#x1f8;" horiz-adv-x="1562" 
d="M63 0l11 59l63 7q92 8 121 88q37 102 72 254l192 839q23 92 -45 99l-121 12l15 59h389q172 -383 524 -1149h8l168 742q33 147 43 254q4 47 -17.5 63t-76.5 23l-80 8l10 59h484l-11 -59l-63 -6q-92 -8 -121 -88q-37 -102 -72 -254l-229 -1010h-133q-377 831 -569 1247h-7
l-192 -839q-33 -147 -43 -254q-4 -45 18.5 -64.5t75.5 -23.5l80 -7l-10 -59h-484zM862 1725q0 26 22.5 63t56.5 37t120 -58l297 -202l-23 -45l-348 114q-82 23 -103.5 44t-21.5 47z" />
    <glyph glyph-name="uni01F9" unicode="&#x1f9;" horiz-adv-x="1265" 
d="M1050 1028q130 0 164.5 -88t-8.5 -209l-159 -536q-31 -113 20 -113q39 0 92 71.5t92 145.5l49 -29q-57 -129 -143 -212t-180 -83t-121 57.5t2 143.5l176 600q18 59 1 102.5t-68 43.5q-78 0 -170 -85q-166 -153 -269 -391q-63 -152 -147 -446l-180 -25l215 838
q16 49 10 72.5t-41 25.5l-127 11l12 49l375 57l10 -10l-133 -447h6q98 190 245 323.5t277 133.5zM565 1393q0 29 28 58.5t52 29.5q49 0 131 -84l244 -246l-31 -41l-309 172q-115 62 -115 111z" />
    <glyph glyph-name="AEacute" unicode="&#x1fc;" horiz-adv-x="1802" 
d="M702 776h306l129 563h-11zM1626 1346h-248q-27 0 -38 -11.5t-19 -48.5l-117 -510h269q159 0 205 64q22 32 51 110h61l-94 -428h-62q6 109 -22.5 142.5t-155.5 33.5h-268l-105 -448q-16 -72 -14 -102.5t31 -53.5t224.5 -22.5t283.5 53.5t164 235h61l-104 -360h-1070l13 59
l114 13q37 2 54.5 23.5t29.5 74.5l119 528h-342q-238 -317 -387 -553q-45 -70 14 -75l121 -11l-16 -59h-488l17 59l69 7q41 4 69 24q92 67 880 1137q86 115 24 119l-137 12l18 59h1168l-78 -342h-61q10 92 5 152.5t-59.5 89.5t-179.5 29zM1661 1725q0 -26 -20 -45.5
t-105 -45.5l-348 -114l-23 45l297 202q86 57 120 57.5t56.5 -36.5t22.5 -63z" />
    <glyph glyph-name="aeacute" unicode="&#x1fd;" horiz-adv-x="1595" 
d="M1511 834q0 55 -31.5 88.5t-86.5 33.5q-119 0 -221.5 -150t-129.5 -343q242 51 355.5 152.5t113.5 218.5zM344 214q0 -132 84 -132q72 0 167 93t183 235q139 223 207 483q-49 39 -131 39q-143 0 -266 -132t-183.5 -293t-60.5 -293zM1135 -25q-107 0 -194 60
q-105 72 -105 276q0 6 8 88h-4q-61 -104 -130 -191t-172.5 -160t-200.5 -73t-146.5 71t-49.5 161t27 188.5t85 206t139 196.5t205 147.5t265 58.5q80 0 160 -35l72 84h75l-51 -152l4 -4q145 131 322 131q125 0 192.5 -59.5t67.5 -151.5t-90 -182q-160 -152 -576 -242l-2 -33
q0 -285 185 -284q72 0 141.5 42t108 86t85.5 107l48 -43q-180 -293 -469 -293zM1538 1481q25 0 52.5 -30t27.5 -58q0 -49 -115 -111l-309 -172l-31 41l244 246q82 84 131 84z" />
    <glyph glyph-name="Oslashacute" unicode="&#x1fe;" horiz-adv-x="1542" 
d="M815 41q332 0 490 410q96 250 96 503q0 143 -47 238l-815 -1030q96 -121 276 -121zM449 471q0 -139 45 -231l811 1028q-94 109 -273 108q-291 0 -457 -344q-126 -268 -126 -561zM233 552q0 280 142 519q227 377 649 377q211 0 352 -90l119 149l66 -53l-117 -147
q172 -152 172 -459q0 -256 -129 -490q-98 -178 -251 -283t-390 -105t-381 98l-127 -160l-62 57l121 154q-164 153 -164 433zM1535 1935q35 0 57 -37t22 -71t-54 -59q-22 -9 -71 -23l-348 -115l-23 45l297 203q86 57 120 57z" />
    <glyph glyph-name="oslashacute" unicode="&#x1ff;" horiz-adv-x="1099" 
d="M555 47q82 0 153 58q72 57 114 143t86 228t44 265q0 29 -8 70l-547 -688q45 -76 158 -76zM360 306q0 -48 7 -97l544 688q-43 59 -140 59t-180 -75q-139 -127 -205 -415q-26 -112 -26 -160zM765 1028q128 0 212 -47l82 102l59 -51l-78 -98q100 -90 101 -264
q0 -229 -129 -432q-166 -262 -463 -263q-137 0 -223 58l-90 -113l-56 55l84 105q-92 98 -92 256t73 326q42 98 106 178q65 80 175 134t239 54zM1161 1577q25 0 53 -30t27 -58q0 -49 -115 -111l-309 -172l-31 41l244 246q82 84 131 84z" />
    <glyph glyph-name="uni0200" unicode="&#x200;" horiz-adv-x="1277" 
d="M539 625h407l-72 602h-4q-245 -442 -331 -602zM-47 0l12 59l68 9q87 7 143 101q26 44 371 644l344 604h145l152 -1233q8 -68 22.5 -91t59.5 -27l78 -7l-13 -59h-504l13 59l108 11q33 4 44.5 20t7.5 60l-48 397h-458q-59 -109 -211 -402q-31 -70 26 -75l113 -11l-12 -59
h-461zM854 1737q0 29 29.5 61.5t67.5 32.5t102 -80l143 -182l-39 -45l-207 114q-57 33 -76.5 51.5t-19.5 47.5zM506 1737q0 29 29.5 61.5t67.5 32.5t102 -80l143 -182l-39 -45l-207 114q-57 33 -76.5 51.5t-19.5 47.5z" />
    <glyph glyph-name="uni0201" unicode="&#x201;" horiz-adv-x="1148" 
d="M338 225q0 -143 90 -143q133 0 338 311q147 221 219 518q-49 45 -125 45q-113 0 -216 -81.5t-166.5 -199.5t-101.5 -240t-38 -210zM135 210q0 93 27.5 196.5t87 214t141.5 200.5t204 148.5t235.5 58.5t175.5 -43l10 27h172l-217 -817q-31 -113 20 -113q39 0 92.5 71.5
t92.5 145.5l49 -29q-57 -129 -144.5 -212t-195.5 -83q-158 0 -90 230l69 233h-4q-264 -463 -528 -463q-98 0 -147.5 71t-49.5 164zM498 1453q0 38 30.5 60.5t67.5 22.5t54.5 -23.5t33.5 -72.5l94 -295l-49 -27l-168 213q-63 84 -63 122zM788 1453q0 38 31 60.5t68 22.5
t54 -23.5t34 -72.5l94 -295l-49 -27l-168 213q-64 84 -64 122z" />
    <glyph glyph-name="uni0202" unicode="&#x202;" horiz-adv-x="1277" 
d="M539 625h407l-72 602h-4q-245 -442 -331 -602zM-47 0l12 59l68 9q87 7 143 101q26 44 371 644l344 604h145l152 -1233q8 -68 22.5 -91t59.5 -27l78 -7l-13 -59h-504l13 59l108 11q33 4 44.5 20t7.5 60l-48 397h-458q-59 -109 -211 -402q-31 -70 26 -75l113 -11l-12 -59
h-461zM1048.5 1782q163.5 0 216 -72t27.5 -176h-57q5 38 -25 68q-59 59 -186 59t-193.5 -42t-82.5 -85h-58q25 104 110 176t248.5 72z" />
    <glyph glyph-name="uni0203" unicode="&#x203;" horiz-adv-x="1148" 
d="M1178 1270q0 -55 -23 -107h-49q14 140 -173 140t-263 -140h-54q29 125 104 196t243 71q215 0 215 -160zM338 225q0 -143 90 -143q133 0 338 311q147 221 219 518q-49 45 -125 45q-113 0 -216 -81.5t-166.5 -199.5t-101.5 -240t-38 -210zM135 210q0 93 27.5 196.5t87 214
t141.5 200.5t204 148.5t235.5 58.5t175.5 -43l10 27h172l-217 -817q-31 -113 20 -113q39 0 92.5 71.5t92.5 145.5l49 -29q-57 -129 -144.5 -212t-195.5 -83q-158 0 -90 230l69 233h-4q-264 -463 -528 -463q-98 0 -147.5 71t-49.5 164z" />
    <glyph glyph-name="uni0204" unicode="&#x204;" horiz-adv-x="1220" 
d="M1044 1346h-247q-27 0 -38 -11.5t-20 -48.5l-116 -510h268q159 0 205 64q22 32 51 110h61l-94 -428h-61q6 109 -23 142.5t-156 33.5h-268l-104 -448q-16 -72 -14.5 -102.5t30.5 -53.5t224.5 -22.5t283.5 53.5t164 235h61l-104 -360h-1069l12 59l115 13q37 2 54 23.5
t30 74.5l246 1081q12 53 1.5 74t-47.5 25l-122 8l14 59h1036l-78 -342h-61q10 92 5 152.5t-59.5 89.5t-179.5 29zM827 1737q0 29 30 61.5t68 32.5t101 -80l143 -182l-39 -45l-206 114q-57 33 -77 51.5t-20 47.5zM479 1737q0 29 30 61.5t67.5 32.5t101.5 -80l143 -182
l-39 -45l-207 114q-57 33 -76.5 51.5t-19.5 47.5z" />
    <glyph glyph-name="uni0205" unicode="&#x205;" horiz-adv-x="927" 
d="M844 836q0 53 -33 86.5t-86 33.5q-119 0 -222 -150t-130 -343q244 51 357.5 152.5t113.5 220.5zM164 311q0 274 170 484q188 233 448 233q121 0 187.5 -59.5t66.5 -158t-86 -183.5q-160 -147 -581 -234q-2 -14 -2 -33q0 -285 186 -284q139 0 273 154q28 32 65 79l47 -41
q-180 -293 -469 -293q-103 0 -195 60q-110 72 -110 276zM424 1453q0 38 30.5 60.5t67.5 22.5t54.5 -23.5t33.5 -72.5l95 -295l-50 -27l-168 213q-63 84 -63 122zM715 1453q0 38 30.5 60.5t67.5 22.5t54.5 -23.5t33.5 -72.5l94 -295l-49 -27l-168 213q-63 84 -63 122z" />
    <glyph glyph-name="uni0206" unicode="&#x206;" horiz-adv-x="1220" 
d="M1044 1346h-247q-27 0 -38 -11.5t-20 -48.5l-116 -510h268q159 0 205 64q22 32 51 110h61l-94 -428h-61q6 109 -23 142.5t-156 33.5h-268l-104 -448q-16 -72 -14.5 -102.5t30.5 -53.5t224.5 -22.5t283.5 53.5t164 235h61l-104 -360h-1069l12 59l115 13q37 2 54 23.5
t30 74.5l246 1081q12 53 1.5 74t-47.5 25l-122 8l14 59h1036l-78 -342h-61q10 92 5 152.5t-59.5 89.5t-179.5 29zM1022 1782q164 0 216 -72t28 -176h-58q5 38 -25 68q-59 59 -186 59t-193.5 -42t-82.5 -85h-57q25 104 109.5 176t248.5 72z" />
    <glyph glyph-name="uni0207" unicode="&#x207;" horiz-adv-x="927" 
d="M844 836q0 53 -33 86.5t-86 33.5q-119 0 -222 -150t-130 -343q244 51 357.5 152.5t113.5 220.5zM164 311q0 274 170 484q188 233 448 233q121 0 187.5 -59.5t66.5 -158t-86 -183.5q-160 -147 -581 -234q-2 -14 -2 -33q0 -285 186 -284q139 0 273 154q28 32 65 79l47 -41
q-180 -293 -469 -293q-103 0 -195 60q-110 72 -110 276zM1104 1270q0 -55 -23 -107h-49q14 140 -173 140t-263 -140h-53q29 125 103.5 196t242.5 71q215 0 215 -160z" />
    <glyph glyph-name="uni0208" unicode="&#x208;" horiz-adv-x="706" 
d="M82 0l12 59l113 13q37 2 56.5 25.5t29.5 72.5l246 1077q23 96 -45 103l-121 8l14 59h561l-14 -59l-113 -10q-37 -2 -55 -27t-31 -74l-246 -1077q-23 -96 46 -102l120 -9l-12 -59h-561zM567 1737q0 29 30 61.5t67.5 32.5t101.5 -80l143 -182l-39 -45l-206 114
q-57 33 -77 51.5t-20 47.5zM219 1737q0 29 30 61.5t67.5 32.5t101.5 -80l143 -182l-39 -45l-207 114q-57 33 -76.5 51.5t-19.5 47.5z" />
    <glyph glyph-name="uni0209" unicode="&#x209;" horiz-adv-x="649" 
d="M451 82q39 0 92 71.5t92 145.5l49 -29q-57 -129 -142 -212q-86 -83 -178 -83q-173 0 -118 201l172 641q14 53 6 72.5t-49 21.5l-117 11l12 49l373 57l10 -10l-223 -823q-31 -113 21 -113zM186 1453q0 38 31 60.5t68 22.5t54 -23.5t34 -72.5l94 -295l-49 -27l-168 213
q-64 84 -64 122zM477 1453q0 38 31 60.5t68 22.5t54 -23.5t34 -72.5l94 -295l-49 -27l-168 213q-64 84 -64 122z" />
    <glyph glyph-name="uni020A" unicode="&#x20a;" horiz-adv-x="706" 
d="M82 0l12 59l113 13q37 2 56.5 25.5t29.5 72.5l246 1077q23 96 -45 103l-121 8l14 59h561l-14 -59l-113 -10q-37 -2 -55 -27t-31 -74l-246 -1077q-23 -96 46 -102l120 -9l-12 -59h-561zM762 1782q164 0 216 -72t28 -176h-58q5 38 -25 68q-59 59 -186 59t-193.5 -42
t-82.5 -85h-58q25 104 110 176t249 72z" />
    <glyph glyph-name="uni020B" unicode="&#x20b;" horiz-adv-x="649" 
d="M451 82q39 0 92 71.5t92 145.5l49 -29q-57 -129 -142 -212q-86 -83 -178 -83q-173 0 -118 201l172 641q14 53 6 72.5t-49 21.5l-117 11l12 49l373 57l10 -10l-223 -823q-31 -113 21 -113zM866 1270q0 -55 -22 -107h-49q4 41 -15 75q-37 65 -166 65q-180 0 -256 -140h-53
q29 125 103.5 196t242.5 71q215 0 215 -160z" />
    <glyph glyph-name="uni020C" unicode="&#x20c;" horiz-adv-x="1542" 
d="M449 471q0 -209 98 -319t268 -111q332 0 490 410q96 250 96 482q0 231 -97 337t-272 106q-291 0 -457 -344q-126 -268 -126 -561zM233 560q0 272 142 511q227 377 649 377q268 0 430 -150t162 -450q0 -256 -129 -490q-98 -178 -251 -283t-402 -106q-295 0 -448 160
q-153 159 -153 431zM905 1737q0 29 30 61q29 32 67 33q38 0 102 -80l143 -182l-39 -45l-207 114q-57 34 -77 52t-19 47zM557 1737q0 29 30 61q29 32 67 33q38 0 102 -80l143 -182l-39 -45l-207 114q-57 34 -77 52t-19 47z" />
    <glyph glyph-name="uni020D" unicode="&#x20d;" horiz-adv-x="1099" 
d="M371 264q0 -217 184 -217q79 0 147 58q112 97 176 302t64 334q0 215 -170 215q-96 0 -176 -76q-134 -126 -200 -414q-25 -114 -25 -202zM526 974q110 54 249 54q138 0 244 -73q56 -37 89 -111t33 -174q0 -229 -129 -432q-166 -262 -463 -263q-185 1 -281 101t-96 259
t73 327q42 98 106 178q65 80 175 134zM418 1453q0 39 31 61t67 22t54 -24q17 -24 34 -72l94 -295l-49 -27l-168 213q-63 84 -63 122zM709 1453q1 39 31 61t67 22t54 -24t34 -72l94 -295l-49 -27l-168 213q-63 84 -63 122z" />
    <glyph glyph-name="uni020E" unicode="&#x20e;" horiz-adv-x="1542" 
d="M449 471q0 -209 98 -319.5t268 -110.5q332 0 490 410q96 250 96 482t-97.5 337.5t-271.5 105.5q-291 0 -457 -344q-126 -268 -126 -561zM233 560.5q0 271.5 142 510.5q227 377 649 377q268 0 430 -149.5t162 -450.5q0 -256 -129 -490q-98 -178 -251 -283.5t-402 -105.5
q-295 0 -448 160t-153 431.5zM1102 1782q164 0 216 -72t28 -176h-58q5 38 -25 68q-59 59 -186 59t-193.5 -42t-82.5 -85h-58q25 104 110 176t249 72z" />
    <glyph glyph-name="uni020F" unicode="&#x20f;" horiz-adv-x="1099" 
d="M371 264q0 -217 184 -217q79 1 147 59q113 98 176.5 302.5t63.5 332.5q0 215 -170 215q-96 0 -176 -76t-127 -188q-98 -234 -98 -428zM526.5 974q110.5 54 247.5 54t245 -72q56 -38 89 -112t33 -174q0 -229 -129 -432q-166 -262 -463 -263q-186 0 -281.5 100.5
t-95.5 257.5t73 329q42 98 106.5 178t175 134zM1096 1270q0 -55 -23 -107h-49q14 140 -173 140t-263 -140h-53q29 125 103.5 196t242.5 71q215 0 215 -160z" />
    <glyph glyph-name="uni0210" unicode="&#x210;" horiz-adv-x="1310" 
d="M750 739q201 0 311 94.5t110 274.5q0 125 -71.5 181.5t-182.5 56.5t-138 -14.5t-40 -63.5l-121 -529h132zM940 1417q446 0 446 -330q0 -150 -115.5 -252t-305.5 -128v-5q103 -27 143.5 -92.5t43.5 -165.5q1 -34 1 -96q-4 -164 31 -220t162 -69l-19 -59h-160
q-184 0 -206 158q-10 82 -9.5 220t-5.5 163q-12 70 -65 100q-41 27 -156 27h-123l-113 -498q-12 -53 -1.5 -74.5t47.5 -25.5l120 -11l-12 -59h-561l12 59l113 13q37 4 55.5 24.5t30.5 73.5l246 1077q23 94 -45 101l-121 10l14 59h553zM799 1737q0 29 29.5 61.5t67.5 32.5
t101 -80l144 -182l-39 -45l-207 114q-57 33 -76.5 51.5t-19.5 47.5zM451 1737q0 29 29.5 61.5t67.5 32.5t101 -80l144 -182l-39 -45l-207 114q-57 33 -76.5 51.5t-19.5 47.5z" />
    <glyph glyph-name="uni0211" unicode="&#x211;" horiz-adv-x="823" 
d="M897 1028q96 0 92 -90q0 -45 -29.5 -86t-64.5 -41t-75 25.5t-70 25.5q-59 0 -129 -122t-125 -322q-18 -66 -55.5 -216.5t-51.5 -201.5l-176 -25l188 838q7 39 9 55q4 39 -39 43l-127 11l12 49l352 57l10 -10l-92 -340h4q82 164 180.5 257t186.5 93zM399 1453
q0 38 31 60.5t68 22.5t54 -23.5t34 -72.5l94 -295l-49 -27l-168 213q-64 84 -64 122zM690 1453q0 38 31 60.5t68 22.5t54 -23.5t34 -72.5l94 -295l-49 -27l-168 213q-64 84 -64 122z" />
    <glyph glyph-name="uni0212" unicode="&#x212;" horiz-adv-x="1310" 
d="M750 739q201 0 311 94.5t110 274.5q0 125 -71.5 181.5t-182.5 56.5t-138 -14.5t-40 -63.5l-121 -529h132zM940 1417q446 0 446 -330q0 -150 -115.5 -252t-305.5 -128v-5q103 -27 144 -93q41 -65 43 -165q1 -34 1 -96q-4 -164 31 -220t162 -69l-19 -59h-160
q-184 0 -206 158q-10 82 -9.5 220t-5.5 163q-12 70 -65 100q-41 27 -156 27h-123l-113 -498q-12 -53 -1.5 -74.5t47.5 -25.5l120 -11l-12 -59h-561l12 59l113 13q37 4 55.5 24.5t30.5 73.5l246 1077q23 94 -45 101l-121 10l14 59h553zM993 1782q164 0 216.5 -72t27.5 -176
h-57q5 37 -26 68q-59 59 -185.5 59t-193 -42t-83.5 -85h-57q25 104 109.5 176t248.5 72z" />
    <glyph glyph-name="uni0213" unicode="&#x213;" horiz-adv-x="823" 
d="M1079 1270q0 -55 -22 -107h-49q4 41 -15 75q-37 65 -166 65q-180 0 -256 -140h-53q29 125 103.5 196t242.5 71q215 0 215 -160zM897 1028q96 0 92 -90q0 -45 -29.5 -86t-64.5 -41t-75 25.5t-70 25.5q-59 0 -129 -122t-125 -322q-18 -66 -55.5 -216.5t-51.5 -201.5
l-176 -25l188 838q7 39 9 55q4 39 -39 43l-127 11l12 49l352 57l10 -10l-92 -340h4q82 164 180.5 257t186.5 93z" />
    <glyph glyph-name="uni0214" unicode="&#x214;" horiz-adv-x="1626" 
d="M850 41q197 0 295 128t153 363l166 715q23 94 -45 101l-121 10l15 59h561l-14 -59l-113 -10q-37 -2 -55.5 -25t-30.5 -76l-174 -741q-92 -386 -333 -486q-79 -32 -149.5 -41.5t-164.5 -9.5q-283 0 -415.5 132t-62.5 423l173 723q23 94 -46 101l-120 10l14 59h561l-14 -59
l-113 -8q-37 -2 -55.5 -26t-30.5 -77l-162 -696q-119 -510 281 -510zM1024 1737q0 29 29.5 61.5t67.5 32.5t102 -80l143 -182l-39 -45l-207 114q-57 33 -76.5 51.5t-19.5 47.5zM676 1737q0 29 29.5 61.5t67.5 32.5t101 -80l144 -182l-39 -45l-207 114q-57 33 -76.5 51.5
t-19.5 47.5z" />
    <glyph glyph-name="uni0215" unicode="&#x215;" horiz-adv-x="1265" 
d="M508 82q117 0 237.5 147.5t190 309t156.5 465.5l182 24l-219 -835q-29 -111 26 -111q61 0 189 217l49 -31q-59 -125 -148.5 -209t-193.5 -84q-158 0 -94 222l67 233h-4q-98 -190 -245.5 -322.5t-288.5 -132.5q-215 0 -138 297l142 541q14 47 9 71.5t-40 26.5l-127 11
l12 49l373 57l10 -10l-196 -756q-47 -180 51 -180zM498 1453q0 38 30.5 60.5t67.5 22.5t54.5 -23.5t33.5 -72.5l94 -295l-49 -27l-168 213q-63 84 -63 122zM788 1453q0 38 31 60.5t68 22.5t54 -23.5t34 -72.5l94 -295l-49 -27l-168 213q-64 84 -64 122z" />
    <glyph glyph-name="uni0216" unicode="&#x216;" horiz-adv-x="1626" 
d="M850 41q197 0 295 128t153 363l166 715q23 94 -45 101l-121 10l15 59h561l-14 -59l-113 -10q-37 -2 -55.5 -25t-30.5 -76l-174 -741q-92 -386 -333 -486q-79 -32 -149.5 -41.5t-164.5 -9.5q-283 0 -415.5 132t-62.5 423l173 723q23 94 -46 101l-120 10l14 59h561l-14 -59
l-113 -8q-37 -2 -55.5 -26t-30.5 -77l-162 -696q-119 -510 281 -510zM1218.5 1782q163.5 0 216 -72t27.5 -176h-57q5 38 -25 68q-59 59 -186 59t-193.5 -42t-82.5 -85h-58q25 104 110 176t248.5 72z" />
    <glyph glyph-name="uni0217" unicode="&#x217;" horiz-adv-x="1265" 
d="M508 82q117 0 237.5 147.5t190 309t156.5 465.5l182 24l-219 -835q-29 -111 26 -111q61 0 189 217l49 -31q-59 -125 -148.5 -209t-193.5 -84q-158 0 -94 222l67 233h-4q-98 -190 -245.5 -322.5t-288.5 -132.5q-215 0 -138 297l142 541q14 47 9 71.5t-40 26.5l-127 11
l12 49l373 57l10 -10l-196 -756q-47 -180 51 -180zM1178 1270q0 -55 -23 -107h-49q14 140 -173 140t-263 -140h-54q29 125 104 196t243 71q215 0 215 -160z" />
    <glyph glyph-name="Scommaaccent" unicode="&#x218;" horiz-adv-x="1091" 
d="M494 -319q0 31 -20 71t-19 74q-1 32 25 58t71 26t71 -32t26 -90t-42 -124q-41 -66 -85 -106t-111 -93l-29 29q113 109 113 187zM903 337q-1 117 -65 191t-201 142t-215 154t-78 224t100 262q52 62 148 100t223 38q233 0 367 -105l-74 -286h-59q37 319 -248 319
q-131 0 -208 -74t-77 -192q0 -119 122 -199q49 -33 142 -82q160 -82 234 -177t73 -230q0 -178 -109 -306q-120 -143 -409 -147q-121 0 -246 46t-182 122l54 314h59q-8 -195 90 -303t246 -108t231 90q82 89 82 207z" />
    <glyph glyph-name="scommaaccent" unicode="&#x219;" horiz-adv-x="796" 
d="M342 -319q0 31 -19 71q-41 87 6 132q27 26 71 26t70 -32t26 -90t-41 -124t-85 -106t-112 -93l-29 29q113 109 113 187zM111 170q0 43 30 77q31 34 77 34t68 -71t72 -117t113 -46t103 41t40 113q0 127 -141 239q-180 144 -180 280t90 222q91 86 229 86t206 -51t67 -101
q0 -50 -32 -76t-70 -26t-54 41q-63 141 -164 141q-55 0 -91 -41t-36 -92q0 -106 146 -225q102 -84 145 -156t43 -157q0 -131 -96 -220t-246 -89t-234 60q-85 62 -85 134z" />
    <glyph glyph-name="uni021A" unicode="&#x21a;" horiz-adv-x="1241" 
d="M492 -174q0 32 26 58t70 26t70 -32t26 -90t-41 -124t-85 -106t-112 -93l-28 29q113 109 112 187q0 31 -19 71t-19 74zM1149 1346h-129l-266 -1180q-25 -96 53 -98l149 -9l-14 -59h-631l15 59l133 9q45 2 67 26t31 72l266 1180h-141q-150 0 -220 -56t-120 -215h-61l77 342
h1164l-78 -342h-62q10 93 4 153t-60 89t-177 29z" />
    <glyph glyph-name="uni021B" unicode="&#x21b;" horiz-adv-x="698" 
d="M256 -319q0 31 -19 71q-41 87 6 132q27 26 71 26t70 -32t26 -90t-41 -124t-85 -106t-112 -93l-29 29q113 109 113 187zM469 82q43 0 106 71t109 146l45 -35q-68 -127 -165 -208t-212 -81q-74 1 -98 57t2 144l184 750h-170l23 78h166l26 100l199 158l25 -15l-70 -243h260
l-22 -78h-256l-183 -746q-25 -98 31 -98z" />
    <glyph glyph-name="uni021E" unicode="&#x21e;" horiz-adv-x="1587" 
d="M82 0l12 59l113 13q37 2 55.5 23.5t30.5 74.5l246 1077q20 96 -45 103l-121 8l14 59h561l-14 -59l-113 -10q-37 -2 -55 -25t-31 -76l-108 -471h684l106 471q20 96 -45 103l-121 8l15 59h561l-15 -59l-112 -10q-37 -2 -55.5 -25t-30.5 -76l-246 -1077q-23 -96 45 -102
l121 -9l-12 -59h-561l12 59l112 13q37 2 55.5 23.5t30.5 74.5l121 528h-684l-119 -528q-12 -51 -1.5 -75.5t47.5 -26.5l120 -9l-12 -59h-561zM1173.5 1665q20.5 0 73.5 29l240 125l26 -41l-286 -228q-57 -47 -85 -47t-69 51l-186 226l37 39l184 -123q45 -31 65.5 -31z" />
    <glyph glyph-name="uni021F" unicode="&#x21f;" horiz-adv-x="1243" 
d="M1030 1028q129 0 163 -88t-9 -209l-162 -536q-35 -113 20 -113q39 0 92.5 71.5t92.5 145.5l49 -29q-57 -129 -141 -212t-185 -83q-170 0 -106 222l168 581q18 63 0.5 103.5t-66.5 40.5q-82 0 -178 -87q-177 -160 -264 -384q-53 -135 -137 -451l-179 -25l299 1334
q12 59 5 77.5t-46 22.5l-116 14l12 47l369 50l10 -11l-229 -938h6q102 195 252.5 326t279.5 131zM1004.5 1804q19.5 0 64.5 31l236 154l28 -43l-282 -265q-57 -49 -82 -49t-62 49l-182 265l47 43l174 -154q39 -31 58.5 -31z" />
    <glyph glyph-name="uni0226" unicode="&#x226;" horiz-adv-x="1277" 
d="M539 625h407l-72 602h-4q-245 -442 -331 -602zM-47 0l12 59l68 9q87 7 143 101q26 44 371 644l344 604h145l152 -1233q8 -68 22.5 -91t59.5 -27l78 -7l-13 -59h-504l13 59l108 11q33 4 44.5 20t7.5 60l-48 397h-458q-59 -109 -211 -402q-31 -70 26 -75l113 -11l-12 -59
h-461zM901 1617q0 50 35 85t83 35t74.5 -30t26.5 -77t-32.5 -83t-83 -36t-77 28t-26.5 78z" />
    <glyph glyph-name="uni0227" unicode="&#x227;" horiz-adv-x="1148" 
d="M338 225q0 -143 90 -143q133 0 338 311q147 221 219 518q-49 45 -125 45q-113 0 -216 -81.5t-166.5 -199.5t-101.5 -240t-38 -210zM135 210q0 93 27.5 196.5t87 214t141.5 200.5t204 148.5t235.5 58.5t175.5 -43l10 27h172l-217 -817q-31 -113 20 -113q39 0 92.5 71.5
t92.5 145.5l49 -29q-57 -129 -144.5 -212t-195.5 -83q-158 0 -90 230l69 233h-4q-264 -463 -528 -463q-98 0 -147.5 71t-49.5 164zM805 1273q0 50 34.5 85t83 35t75 -30t26.5 -77t-33 -83t-83 -36t-76.5 28t-26.5 78z" />
    <glyph glyph-name="uni022E" unicode="&#x22e;" horiz-adv-x="1542" 
d="M449 471q0 -209 98 -319.5t268 -110.5q332 0 490 410q96 250 96 482t-97.5 337.5t-271.5 105.5q-291 0 -457 -344q-126 -268 -126 -561zM233 560.5q0 271.5 142 510.5q227 377 649 377q268 0 430 -149.5t162 -450.5q0 -256 -129 -490q-98 -178 -251 -283.5t-402 -105.5
q-295 0 -448 160t-153 431.5zM954 1617q0 50 35 85t83 35t75 -30t27 -77t-33 -83t-83 -36t-77 28t-27 78z" />
    <glyph glyph-name="uni022F" unicode="&#x22f;" horiz-adv-x="1099" 
d="M371 264q0 -217 184 -217q79 1 147 59q113 98 176.5 302.5t63.5 332.5q0 215 -170 215q-96 0 -176 -76t-127 -188q-98 -234 -98 -428zM526.5 974q110.5 54 247.5 54t245 -72q56 -38 89 -112t33 -174q0 -229 -129 -432q-166 -262 -463 -263q-186 0 -281.5 100.5
t-95.5 257.5t73 329q42 98 106.5 178t175 134zM723 1273q0 50 35 85t83 35t74.5 -30t26.5 -77t-32.5 -83t-83 -36t-77 28t-26.5 78z" />
    <glyph glyph-name="uni0232" unicode="&#x232;" horiz-adv-x="1210" 
d="M268 1358l13 59h510l-13 -59l-112 -10q-51 -6 -39 -60l186 -629h6q307 416 432 631q31 57 -30 60l-107 8l12 59h469l-12 -59q-86 -6 -123 -24.5t-92 -80.5q-190 -217 -471 -624q-41 -55 -57 -123l-78 -346q-10 -45 0 -65.5t47 -22.5l156 -13l-13 -59h-635l13 59l147 15
q39 4 56.5 23.5t27.5 62.5l78 344q14 59 0 108q-157 528 -189 620t-58 105t-124 21zM662 1554l28 121h627l-29 -121h-626z" />
    <glyph glyph-name="uni0233" unicode="&#x233;" horiz-adv-x="958" 
d="M-10 -382q0 44 32 82q73 85 144 -9q47 -63 81 -63.5t69.5 39.5t74.5 132.5t39 227.5q0 238 -68 716q-12 84 -25 113t-46 27l-139 -4l-7 51l344 98l17 -8q53 -281 82 -895h6q250 430 285 555t30 297q76 51 160 51q19 0 28 -41t9 -65.5t-6 -48t-22.5 -57.5t-31 -61.5
t-42 -74.5t-44 -74.5t-51.5 -84t-70.5 -115t-96 -163t-112.5 -194.5q-52 -89 -90 -155t-70 -118q-102 -168 -158 -210q-82 -62 -160.5 -62t-120 35t-41.5 79zM520 1223l37 120h569l-36 -120h-570z" />
    <glyph glyph-name="uni0237" unicode="&#x237;" horiz-adv-x="632" 
d="M-35 -274q31 0 58 -41q74 -109 116 -109q33 0 47 64l250 1169q14 53 9 76.5t-39 25.5l-127 11l12 49l366 57l11 -10l-232 -1024q-63 -281 -145 -385t-219 -105q-80 0 -136.5 34t-57.5 79t27.5 77t59.5 32z" />
    <glyph glyph-name="uni0241" unicode="&#x241;" horiz-adv-x="1040" 
d="M971 1139q0 238 -195 237q-152 0 -219 -200q-21 -64 -67 -64t-89 29t-43 83t97 134q47 38 138 64t204 26q385 0 385 -330q0 -117 -144 -245q-61 -54 -126 -107q-64 -53 -116 -122t-69 -138l-76 -340q-25 -96 54 -98l149 -9l-14 -59h-631l14 59l133 9q45 2 67 26t32 72
l57 254q23 100 79 190q57 90 119 152t122 120q138 134 139 257z" />
    <glyph glyph-name="uni0244" unicode="&#x244;" horiz-adv-x="1662" 
d="M868 41q197 0 295 128t154 363l39 166h-733l-35 -147q-119 -510 280 -510zM858 -31q-283 0 -415 132t-62 423l41 174h-195l17 78h196l113 471q23 94 -45 101l-121 10l14 59h562l-15 -59l-112 -8q-38 -2 -56 -26t-30 -77l-109 -471h733l109 471q23 94 -45 101l-121 10
l14 59h561l-14 -59l-113 -10q-37 -2 -55 -25t-31 -76l-110 -471h192l-16 -78h-195l-45 -192q-91 -384 -333 -486q-80 -34 -150 -42q-70 -9 -164 -9z" />
    <glyph glyph-name="uni0245" unicode="&#x245;" horiz-adv-x="1269" 
d="M-45 0l12 59q84 7 122 23t69 68q145 236 329 563l400 704h141l156 -1251q8 -52 23 -72t53 -24l79 -11l-12 -59h-504l13 59l125 13q41 4 34 67l-123 1088h-4l-284 -525q-258 -479 -301 -569q-13 -35 -7 -47t37 -16l113 -11l-12 -59h-459z" />
    <glyph glyph-name="uni0254" unicode="&#x254;" horiz-adv-x="903" 
d="M96 215q0 53 42 80t93 27t60 -74q12 -111 37.5 -156t83.5 -45q86 0 164.5 97.5t125 239.5t46.5 271t-39 201t-142 72q-61 0 -123.5 -37t-99.5 -76t-88 -102l-49 39q174 276 450 276q123 0 208 -78t85 -250t-71.5 -336.5t-210 -276.5t-306.5 -112q-115 0 -190.5 69
t-75.5 171z" />
    <glyph glyph-name="uni0256" unicode="&#x256;" horiz-adv-x="1202" 
d="M350 229q0 -147 103 -147q76 0 168 90t174 223q150 242 202 520q-45 41 -150.5 41t-206.5 -81.5t-161.5 -199.5t-94.5 -238t-34 -208zM147 246q0 176 109 382q57 108 136 196.5t198 146t239.5 57.5t186.5 -35l4 4l78 330q12 49 6 65.5t-43 18.5l-123 12l12 47l365 50
l10 -11l-332 -1351l-98 -367q-57 -217 27 -217q57 0 145 125q29 41 64 41t63.5 -28.5t28.5 -76.5t-77 -89.5t-194 -41.5q-147 0 -198 123q-43 100 14 322l127 497h-4q-260 -471 -539 -471q-205 1 -205 271z" />
    <glyph glyph-name="uni0259" unicode="&#x259;" horiz-adv-x="927" 
d="M291 168q0 -53 32.5 -87t86.5 -34q119 0 222 150.5t130 343.5q-244 -51 -357.5 -152.5t-113.5 -220.5zM98 192.5q0 98.5 86 184.5q160 147 582 233q2 14 2 33q0 285 -186 285q-140 0 -274 -155q-28 -32 -64 -79l-47 41q180 293 469 293q103 0 195 -60q110 -72 110 -276
q0 -274 -170 -483q-188 -233 -449 -234q-121 0 -187.5 59.5t-66.5 158z" />
    <glyph glyph-name="uni025B" unicode="&#x25b;" horiz-adv-x="884" 
d="M141 215q0 111 88 203t217 121v6q-80 20 -122.5 66t-42.5 112q0 133 128 219t281 86t227 -51t74 -110.5t-36.5 -90.5t-83.5 -31t-58 54q-16 90 -40.5 123.5t-105.5 33.5t-138.5 -64.5t-57.5 -150.5t38 -131t132 -45h76l-17 -71h-73q-113 0 -198 -77t-85 -184
q0 -74 47 -117.5t139 -43.5q147 0 316 194l49 -39q-164 -252 -408 -252q-170 0 -258 64.5t-88 175.5z" />
    <glyph glyph-name="uni025C" unicode="&#x25c;" horiz-adv-x="884" 
d="M379 72q186 0 264 161q51 106 4 183.5t-160 77.5h-73l18 71h76q170 0 256 176q45 82 17.5 148.5t-124.5 66.5q-66 0 -106.5 -33.5t-99.5 -123.5q-37 -53 -84.5 -53.5t-67.5 27.5t2 87q33 66 131 117t252 51t241 -86t21 -220t-254 -177l-2 -6q115 -29 158 -119t-11 -203
t-173 -177.5t-289 -64.5q-244 0 -285 252l68 39q35 -96 86 -145t135 -49z" />
    <glyph glyph-name="uni0261" unicode="&#x261;" horiz-adv-x="1144" 
d="M451 82q116 0 288 206q82 98 157 263.5t116 361.5q-59 43 -161 43t-205 -80q-102 -80 -164 -198q-130 -246 -130 -421t99 -175zM150 200.5q0 106.5 24.5 210t81.5 214t137 199.5t204 146.5t257 57.5t213 -45l88 92h78l-229 -960q-80 -274 -230 -455
q-47 -57 -163.5 -107.5t-252 -50.5t-211 48.5t-75.5 121.5q0 45 26.5 74t70.5 29t62.5 -32t25.5 -68.5t45 -68.5t119 -32t165 67.5t116 128t70.5 185.5t63.5 242l45 192h-7q-113 -188 -257 -301t-273 -113q-84 0 -139 59.5t-55 166z" />
    <glyph glyph-name="uni0263" unicode="&#x263;" horiz-adv-x="950" 
d="M336 -332q0 -90 86 -90q41 0 75.5 47t34.5 99q0 123 -24 278h-4q-168 -244 -168 -334zM1061 1028q18 0 27.5 -41t9.5 -74q0 -100 -242 -473q-121 -188 -211 -338q45 -193 45 -360q0 -111 -77.5 -173.5t-175 -62.5t-140.5 51.5t-43 133.5q0 137 217 411q-37 252 -81 491.5
t-55 265.5t-44 24l-139 -4l-7 51l340 98l17 -8q92 -555 112 -805h7q20 35 70 118q79 131 120 207.5t68 153.5q29 98 22 283q76 51 160 51z" />
    <glyph glyph-name="uni0265" unicode="&#x265;" horiz-adv-x="1196" 
d="M508 82q117 0 237.5 147.5t190 309t156.5 465.5l182 24l-352 -1483l-191 -41l219 926h-4q-98 -190 -245.5 -322.5t-288.5 -132.5q-215 0 -138 297l142 541q14 47 9 71.5t-40 26.5l-127 11l12 49l373 57l10 -10l-196 -756q-47 -180 51 -180z" />
    <glyph glyph-name="uni0268" unicode="&#x268;" horiz-adv-x="667" 
d="M461 82q39 0 92 71.5t92 145.5l49 -29q-57 -129 -142 -212q-86 -83 -178 -83q-173 0 -118 201l82 305h-182l16 72h184l72 264q14 53 6 72.5t-49 21.5l-117 11l13 49l372 57l11 -10l-127 -465h182l-17 -72h-184l-78 -286q-31 -113 21 -113zM510 1328q0 54 36 95t90 41
t86 -28.5t32 -86.5t-36 -96.5t-90 -38.5t-86 30t-32 84z" />
    <glyph glyph-name="uni0269" unicode="&#x269;" horiz-adv-x="692" 
d="M526.5 82q71.5 0 153.5 37l18 -53q-162 -90 -290 -91q-213 0 -136 297l146 545q14 53 6 72.5t-49 21.5l-117 11l12 49l373 57l10 -10l-204 -756q-27 -92 -10.5 -136t88 -44z" />
    <glyph glyph-name="uni026A" unicode="&#x26a;" horiz-adv-x="626" 
d="M74 0l14 59q100 6 129 24.5t47 94.5l150 647q18 76 -10.5 95.5t-129.5 23.5l15 60h495l-14 -60q-106 -4 -132 -21.5t-44 -97.5l-150 -647q-16 -74 10.5 -92t129.5 -27l-15 -59h-495z" />
    <glyph glyph-name="uni026F" unicode="&#x26f;" horiz-adv-x="1882" 
d="M1128 82q115 0 246 162t182.5 292.5t147.5 467.5l178 24l-211 -835q-29 -111 27 -111q61 0 188 217l49 -31q-59 -125 -148 -209t-194 -84q-158 0 -94 222l62 213h-7q-109 -199 -246 -317t-274 -118q-106 0 -138 79t15 227l41 129h-8q-113 -203 -248 -319t-263 -116
t-162.5 87.5t3.5 209.5l142 541q14 47 9 71.5t-40 26.5l-127 11l12 49l373 57l10 -10l-209 -793q-34 -143 70 -143q80 0 171 84q162 149 263 385q51 119 146 453l178 24l-205 -774q-45 -172 61 -172z" />
    <glyph glyph-name="uni0271" unicode="&#x271;" horiz-adv-x="1841" 
d="M1049 1028q106 0 138 -79t-16 -226l-41 -129h9q113 203 248 318.5t263 115.5t162.5 -88t-6.5 -209l-184 -672q-86 -313 -165 -434t-230 -121q-82 0 -133.5 32t-51.5 79t29 79t62 32t83 -73t82 -73q39 0 54 62q57 303 106 495l180 641q18 66 0 105t-69 39q-80 0 -171 -84
q-162 -149 -263 -385q-51 -119 -146 -453l-178 -25l205 775q45 172 -62 172q-115 0 -245.5 -162t-182 -293t-147.5 -467l-178 -25l211 838q14 49 10 72.5t-39 25.5l-125 11l12 49l371 57l10 -10l-129 -424h6q109 199 246 316.5t275 117.5z" />
    <glyph glyph-name="uni0275" unicode="&#x275;" horiz-adv-x="1099" 
d="M772 956q-123 0 -213 -116.5t-141 -286.5h500q25 119 24 188q0 215 -170 215zM371 264q0 -217 184 -217q133 0 216.5 135.5t127.5 298.5h-500q-28 -127 -28 -217zM526.5 974q110.5 54 247.5 54t245 -72q56 -38 89 -112t33 -174q0 -229 -129 -432q-166 -262 -463 -263
q-186 0 -281.5 100.5t-95.5 257.5t73 329q42 98 106.5 178t175 134z" />
    <glyph glyph-name="uni0279" unicode="&#x279;" horiz-adv-x="823" 
d="M135 -25q-95 0 -93 92q1 44 30.5 85t64.5 41t75 -26t71 -26q59 0 128.5 122t125.5 323q18 66 55 216t51 202l176 24l-188 -838q-13 -66 -3.5 -81t34.5 -17l126 -10l-12 -49l-352 -58l-10 11l92 340h-4q-82 -164 -180.5 -257.5t-186.5 -93.5z" />
    <glyph glyph-name="uni0283" unicode="&#x283;" horiz-adv-x="643" 
d="M-143 -382q0 44 28.5 76t58.5 32t79 -73t87 -73t48 62l248 1253q58 295 124 405q89 149 194 192q67 28 152.5 28t154.5 -47.5t69 -112.5q0 -37 -34 -63.5t-69 -26.5t-53 35q-35 78 -64.5 110.5t-68.5 32.5t-71.5 -44t-49.5 -110l-67 -290l-207 -941q-68 -307 -148 -433
t-229 -126q-74 0 -128 35t-54 79z" />
    <glyph glyph-name="uni0287" unicode="&#x287;" horiz-adv-x="698" 
d="M553 1028q74 0 98.5 -56.5t-2.5 -144.5l-184 -749h170l-23 -78h-166l-26 -100l-199 -158l-24 14l69 244h-260l23 78h256l182 745q25 98 -31 99q-43 0 -106.5 -71t-108.5 -146l-45 34q68 127 165 208t212 81z" />
    <glyph glyph-name="uni0289" unicode="&#x289;" horiz-adv-x="1282" 
d="M518 82q100 0 208 117.5t192 281.5h-396l-57 -219q-47 -180 53 -180zM1090 82q61 0 188 217l49 -31q-59 -125 -148 -209t-194 -84q-158 0 -94 222l67 233h-4q-98 -190 -245.5 -322.5t-288.5 -132.5q-215 0 -137 297l55 209h-182l16 72h184l68 260q14 47 9 71.5t-40 26.5
l-127 11l13 49l372 57l11 -10l-121 -465h413q63 162 146 451l182 24l-125 -475h182l-16 -72h-184l-76 -288q-29 -111 27 -111z" />
    <glyph glyph-name="uni028B" unicode="&#x28b;" horiz-adv-x="1069" 
d="M606 47q174 0 301 163t127 351q0 135 -73 295l-43 90q82 82 153 82q37 0 65.5 -60.5t28.5 -157.5t-29.5 -233.5t-91 -276.5t-178 -232.5t-283.5 -92.5t-243 109t-31 311l92 418q12 51 7 73.5t-37 24.5l-127 11l12 49l362 57l11 -10l-154 -682q-63 -289 131 -289z" />
    <glyph glyph-name="uni028C" unicode="&#x28c;" horiz-adv-x="1167" 
d="M35 88q0 45 27.5 77t67.5 32t70.5 -35t55.5 -35q33 0 87 90t99 197l244 590h152l61 -693q10 -127 28.5 -178t53.5 -51q70 0 164 201l55 -25q-105 -222 -187 -262q-42 -20 -95 -21q-90 0 -134.5 71t-54.5 230l-37 543h-4l-209 -536q-49 -129 -128 -218.5t-175 -89.5
q-59 0 -100 34t-41 79z" />
    <glyph glyph-name="uni0292" unicode="&#x292;" horiz-adv-x="1024" 
d="M18 -326q0 45 27 74t71 29t62.5 -32t25.5 -68.5t45 -68.5t105 -32q158 0 257.5 146.5t99.5 318.5q0 96 -48.5 157.5t-142.5 61.5t-153 -29l-29 64l14 31l549 516v6h-389q-96 0 -135 -37t-88 -145l-51 22q31 98 76.5 191.5t74.5 124.5h694l21 -29l-21 -45
q-25 -55 -122 -148l-469 -434l4 -4q14 12 96 12q164 0 240.5 -94t76.5 -244q0 -238 -149.5 -376t-429.5 -138q-160 0 -236 48t-76 122z" />
    <glyph glyph-name="uni0294" unicode="&#x294;" horiz-adv-x="972" 
d="M371 1294q0 76 105.5 151t299.5 75q104 0 179 -30t110 -81q63 -92 63 -183.5t-58 -176t-132 -154.5t-146.5 -169t-93.5 -189l-123 -537l-188 -25l115 500q23 98 76 185.5t111.5 147.5t113.5 120q127 140 127 293q0 113 -37 170t-148 57q-72 0 -119.5 -49t-95.5 -164
q-16 -43 -56 -43t-71.5 27.5t-31.5 74.5z" />
    <glyph glyph-name="uni0295" unicode="&#x295;" horiz-adv-x="972" 
d="M-154 1197.5q0 63.5 14.5 112t49.5 99.5t109.5 81t179.5 30q195 0 300 -75t105 -151q0 -47 -31.5 -74.5t-71.5 -27.5t-57 43q-47 115 -95 164t-120 49q-111 0 -147.5 -57.5t-36.5 -155.5t36 -172t91 -134.5t113.5 -120.5t112 -147.5t75.5 -185.5l115 -500l-189 25
l-123 537q-20 90 -92.5 189t-146.5 169t-132.5 154.5t-58.5 148z" />
    <glyph glyph-name="uni0296" unicode="&#x296;" horiz-adv-x="972" 
d="M190 297.5q0 63.5 58.5 148t132.5 154.5t146.5 169t93.5 189l122 537l189 25l-115 -500q-43 -182 -187 -332q-58 -60 -114 -122q-127 -140 -127 -292q0 -113 37 -170t147 -57q72 0 120 49t95 164q16 43 56.5 43t72 -27.5t31.5 -74.5q0 -76 -105.5 -151t-299.5 -75
q-104 0 -179 30t-110 81t-49.5 99.5t-14.5 112z" />
    <glyph glyph-name="uni02B9" unicode="&#x2b9;" horiz-adv-x="573" 
d="M588 1536q30 0 54 -19t24 -52t-74 -156l-197 -340l-37 16l121 373q27 82 41 112q29 66 68 66z" />
    <glyph glyph-name="uni02BA" unicode="&#x2ba;" horiz-adv-x="892" 
d="M907 1536q31 0 55 -19t24 -41q-1 -48 -75 -167l-196 -340l-37 16l121 373q27 82 41 112q29 66 67 66zM588 1536q30 0 54 -19t24 -52t-74 -156l-197 -340l-37 16l121 373q27 82 41 112q29 66 68 66z" />
    <glyph glyph-name="circumflex" unicode="&#x2c6;" horiz-adv-x="819" 
d="M784 1303q-18 0 -65 -31l-236 -154l-28 43l282 264q57 49 82 49t62 -49l182 -264l-47 -43l-174 154q-40 31 -58 31z" />
    <glyph glyph-name="caron" unicode="&#x2c7;" horiz-adv-x="819" 
d="M752 1141q-25 0 -62 49l-182 264l47 43l174 -154q39 -31 58 -31t65 31l235 154l29 -43l-282 -264q-57 -49 -82 -49z" />
    <glyph glyph-name="uni02CA" unicode="&#x2ca;" horiz-adv-x="819" 
d="M885 1481q25 0 53 -30t27 -58q0 -49 -115 -111l-309 -172l-31 41l244 246q82 84 131 84z" />
    <glyph glyph-name="uni02CB" unicode="&#x2cb;" horiz-adv-x="819" 
d="M371 1393q-1 29 27 59t53 29q49 0 131 -84l243 -246l-30 -41l-310 172q-114 62 -114 111z" />
    <glyph glyph-name="uni02CE" unicode="&#x2ce;" horiz-adv-x="819" 
d="M-39 -385q0 29 28 59t52 29q49 0 131 -84l244 -246l-31 -41l-309 172q-115 62 -115 111z" />
    <glyph glyph-name="uni02CF" unicode="&#x2cf;" horiz-adv-x="819" 
d="M475 -297q25 0 53 -30t27 -58q0 -49 -115 -111l-309 -172l-31 41l244 246q82 84 131 84z" />
    <glyph glyph-name="breve" unicode="&#x2d8;" horiz-adv-x="819" 
d="M537 1323q0 55 22 107h49q-4 -42 15 -76q37 -62 165 -64q180 0 256 140h54q-29 -125 -104 -196t-242 -71q-215 0 -215 160z" />
    <glyph glyph-name="dotaccent" unicode="&#x2d9;" horiz-adv-x="823" 
d="M588 1273q0 50 35 85t83 35t74 -30t27 -77q0 -47 -33 -83t-83 -36t-77 28q-26 28 -26 78z" />
    <glyph glyph-name="ring" unicode="&#x2da;" horiz-adv-x="819" 
d="M569 1303q0 -53 24 -81q23 -28 67 -28t75 39t37 74t6 73t-23 66q-24 27 -59 27q-66 -1 -96 -59t-31 -111zM704 1540q78 0 134 -49t57 -138q0 -89 -57 -158t-189 -69q-86 0 -141 46t-55 123q0 76 44 151q25 42 77 68t130 26z" />
    <glyph glyph-name="ogonek" unicode="&#x2db;" horiz-adv-x="716" 
d="M211 -287q0 82 60 161t153 126h84q-162 -129 -162 -258q0 -51 33 -78q66 -54 186 -4l15 -33q-78 -76 -191 -76q-178 0 -178 162z" />
    <glyph glyph-name="tilde" unicode="&#x2dc;" horiz-adv-x="819" 
d="M587 1380q52 0 156 -39q121 -39 159 -39t65 19q27 18 71 76l41 -23q-51 -100 -97 -147t-100 -47t-174 39q-118 39 -168 39t-82 -24t-67 -81l-39 27q77 151 146 183q37 17 89 17z" />
    <glyph glyph-name="hungarumlaut" unicode="&#x2dd;" horiz-adv-x="819" 
d="M905 1536q37 0 68 -23t31 -61t-64 -121l-168 -213l-49 27l94 295q15 48 33 72t55 24zM614 1536q37 0 68 -23t31 -61t-64 -121l-168 -213l-49 27l94 295q16 48 34 72t54 24z" />
    <glyph glyph-name="uni02EE" unicode="&#x2ee;" horiz-adv-x="823" 
d="M383 1432q0 30 32 61t80 32q49 1 79 -40t30 -91q0 -143 -133 -271q-53 -52 -69 -65t-78 -67l-33 35q127 123 137 221q4 39 -20 97t-25 88zM985 1394q0 -143 -133 -271q-54 -52 -70 -65t-77 -67l-33 35q127 123 137 221q4 39 -21 97q-24 58 -24 88t32 61t80 32t78 -40
q31 -41 31 -91z" />
    <glyph glyph-name="gravecomb" unicode="&#x300;" 
d="M-449 1393q0 29 28 58.5t52 29.5q49 0 131 -84l244 -246l-31 -41l-309 172q-115 62 -115 111z" />
    <glyph glyph-name="acutecomb" unicode="&#x301;" 
d="M66 1481q25 0 52 -30t27 -58q0 -49 -114 -111l-310 -172l-30 41l243 246q82 84 132 84z" />
    <glyph glyph-name="uni0302" unicode="&#x302;" 
d="M-34.5 1303q-18.5 0 -65.5 -31l-236 -154l-29 43l283 264q57 49 82 49.5t61 -49.5l183 -264l-47 -43l-174 154q-39 31 -57.5 31z" />
    <glyph glyph-name="tildecomb" unicode="&#x303;" 
d="M-233 1380q52 0 157 -39q121 -39 159 -38.5t64.5 18.5t71.5 76l41 -23q-51 -100 -97 -147t-100.5 -47t-173.5 39t-169 38.5t-81.5 -24t-66.5 -80.5l-39 27q77 151 145 183q36 17 89 17z" />
    <glyph glyph-name="uni0304" unicode="&#x304;" 
d="M-352 1223l37 120h569l-37 -120h-569z" />
    <glyph glyph-name="uni0305" unicode="&#x305;" 
d="M-678 1343h1024v-102h-1024v102z" />
    <glyph glyph-name="uni0306" unicode="&#x306;" 
d="M-283 1323q0 55 23 107h49q-14 -140 173 -140t263 140h54q-29 -125 -104 -196t-243 -71q-215 0 -215 160z" />
    <glyph glyph-name="uni0307" unicode="&#x307;" 
d="M-236 1273q0 50 35 85t83 35t75 -30t27 -77t-33 -83t-83 -36t-77 28t-27 78z" />
    <glyph glyph-name="uni0308" unicode="&#x308;" 
d="M-395 1277q0 50 34.5 85t83 35t75 -30t26.5 -77t-33 -83t-83 -36t-76.5 28t-26.5 78zM31 1277q0 50 34.5 85t83 35t75 -30t26.5 -77t-33 -83t-83 -36t-76.5 28t-26.5 78z" />
    <glyph glyph-name="hookabovecomb" unicode="&#x309;" 
d="M-283 1293q0 42 51.5 79t114 62.5t113.5 67.5t51 91q0 20 -25.5 39t-72.5 19q-76 0 -137 -99q-16 -25 -48.5 -24.5t-48.5 18t-16 40.5t27.5 48t92 45.5t163 20.5t165 -34t66.5 -89t-29.5 -87t-80 -52.5t-91.5 -34.5q-89 -30 -133.5 -53.5t-44.5 -51t16.5 -41.5t32.5 -14
v-35q-68 0 -117 21.5t-49 63.5z" />
    <glyph glyph-name="uni030A" unicode="&#x30a;" 
d="M-250 1302q0 -108 91 -108q44 0 75 39t37 73.5t6 73.5t-23.5 66t-58.5 27q-66 0 -96.5 -58.5t-30.5 -112.5zM-115 1540q78 0 134.5 -49t56.5 -138t-57.5 -158t-188.5 -69q-86 0 -142 46q-55 48 -55 122q1 74 45 152q24 41 76.5 67.5t130.5 26.5z" />
    <glyph glyph-name="uni030B" unicode="&#x30b;" 
d="M86 1536q37 0 67.5 -22.5t30.5 -60.5t-63 -122l-168 -213l-49 27l94 295q16 49 33.5 72.5t54.5 23.5zM-205 1536q37 0 68 -22.5t31 -60.5t-64 -122l-168 -213l-49 27l94 295q16 49 33.5 72.5t54.5 23.5z" />
    <glyph glyph-name="uni030C" unicode="&#x30c;" 
d="M-67.5 1141q-24.5 0 -61.5 49l-182 264l47 43l174 -154q39 -31 57.5 -30.5t65.5 30.5l235 154l29 -43l-283 -264q-57 -49 -81.5 -49z" />
    <glyph glyph-name="uni030F" unicode="&#x30f;" 
d="M-473 1453q0 38 30.5 60.5t67.5 22.5t54.5 -23.5t33.5 -72.5l94 -295l-49 -27l-168 213q-63 84 -63 122zM-182 1453q0 38 30.5 60.5t67.5 22.5t54.5 -23.5t33.5 -72.5l94 -295l-49 -27l-168 213q-63 84 -63 122z" />
    <glyph glyph-name="uni0311" unicode="&#x311;" 
d="M279 1270q0 -55 -23 -107h-49q14 140 -173 140t-263 -140h-54q29 125 104 196t242 71q216 0 216 -160z" />
    <glyph glyph-name="uni0315" unicode="&#x315;" 
d="M463 1693q0 -141 -133 -271q-54 -52 -70 -65t-78 -67l-32 35q127 123 137 221q4 39 -21 97q-24 58 -24 88t31 61q32 31 80 32t79 -40t31 -91z" />
    <glyph glyph-name="uni0316" unicode="&#x316;" 
d="M-858 -385q0 29 27.5 58.5t52.5 29.5q49 0 131 -84l244 -246l-31 -41l-309 172q-115 62 -115 111z" />
    <glyph glyph-name="uni0317" unicode="&#x317;" 
d="M-344 -297q25 0 52.5 -29.5t27.5 -58.5q0 -49 -115 -111l-309 -172l-31 41l244 246q82 84 131 84z" />
    <glyph glyph-name="dotbelowcomb" unicode="&#x323;" 
d="M-590 -259q0 50 35 85t83 35t74.5 -30t26.5 -77t-32.5 -83t-82.5 -36t-77 28t-27 78z" />
    <glyph glyph-name="uni0324" unicode="&#x324;" 
d="M-750 -259q0 50 35 85t83 35t75 -30t27 -77t-33 -83t-83 -36t-77 28t-27 78zM-324 -259q0 50 35 85t83 35t75 -30t27 -77t-33 -83t-83 -36t-77 28t-27 78z" />
    <glyph glyph-name="uni0325" unicode="&#x325;" 
d="M-641 -391q0 -109 91 -109q44 0 75 39t37 74t6 74t-23.5 65.5t-58.5 26.5q-66 0 -96.5 -58.5t-30.5 -111.5zM-506 -154q78 0 134.5 -49t56.5 -138t-57.5 -157.5t-188.5 -68.5q-86 0 -141.5 46t-55.5 120.5t44 152.5q24 41 77 67.5t131 26.5z" />
    <glyph glyph-name="uni0326" unicode="&#x326;" 
d="M-479 -319q0 31 -19.5 71.5t-19.5 73.5t25.5 58.5t70.5 25.5t70.5 -32t25.5 -89.5t-41 -123.5t-85 -107t-111 -93l-29 29q113 109 113 187z" />
    <glyph glyph-name="uni0327" unicode="&#x327;" 
d="M-412 -301q0 43 -30.5 73.5t-81.5 32.5l-6 19l122 176h93l-91 -123q74 -10 118 -66.5t30 -128.5t-78.5 -112.5t-149 -40.5t-135.5 20l9 50q82 -10 141 11t59 89z" />
    <glyph glyph-name="uni0328" unicode="&#x328;" 
d="M-506 -287q0 82 60.5 161t152.5 126h84q-162 -129 -162 -258q0 -51 33 -77.5t83 -26.5t103 22l15 -33q-78 -76 -191 -76q-178 0 -178 162z" />
    <glyph glyph-name="uni032C" unicode="&#x32c;" 
d="M-413 -334q19 0 65 31l235 153l29 -43l-283 -264q-57 -49 -81.5 -49t-61.5 49l-182 264l47 43l174 -153q39 -31 58 -31z" />
    <glyph glyph-name="uni032D" unicode="&#x32d;" 
d="M-410.5 -319q-19.5 0 -64.5 -31l-236 -154l-28 43l282 264q57 49 82 49.5t62 -49.5l182 -264l-47 -43l-174 154q-39 31 -58.5 31z" />
    <glyph glyph-name="uni032E" unicode="&#x32e;" 
d="M-645 -250q0 55 22 107h50q-14 -140 173 -140t263 140h53q-29 -125 -103.5 -196t-242.5 -71q-215 0 -215 160z" />
    <glyph glyph-name="uni032F" unicode="&#x32f;" 
d="M-117 -446q0 -55 -22 -107h-49q4 39 -16 74q-36 65 -165 65q-180 0 -256 -139h-53q29 125 103.5 195.5t242.5 70.5q215 1 215 -159z" />
    <glyph glyph-name="uni0330" unicode="&#x330;" 
d="M-620 -295q52 0 157 -39q121 -39 159 -39t64.5 18.5t71.5 75.5l41 -22q-51 -100 -97 -147.5t-100.5 -47.5t-173.5 39t-169 39t-81.5 -23.5t-66.5 -80.5l-39 26q78 152 146 184q36 18 88 17z" />
    <glyph glyph-name="uni0331" unicode="&#x331;" 
d="M-725 -389l37 121h569l-37 -121h-569z" />
    <glyph glyph-name="uni0332" unicode="&#x332;" 
d="M-1024 -154h1024v-102h-1024v102z" />
    <glyph glyph-name="uni0334" unicode="&#x334;" 
d="M-394 682q52 0 156 -39q121 -39 159 -39t65 18t71 76l41 -22q-51 -100 -97 -148q-47 -48 -101 -47q-54 0 -173 39t-169 39q-50 1 -81 -23q-32 -24 -67 -81l-39 26q42 81 80 129q56 72 155 72z" />
    <glyph glyph-name="uni0338" unicode="&#x338;" 
d="M-481 -31l553 1479h145l-553 -1479h-145z" />
    <glyph glyph-name="uni0400" unicode="&#x400;" horiz-adv-x="1220" 
d="M1044 1346h-247q-27 0 -38 -11.5t-20 -48.5l-116 -510h268q159 0 205 64q22 32 51 110h61l-94 -428h-61q6 109 -23 142.5t-156 33.5h-268l-104 -448q-16 -72 -14.5 -102.5t30.5 -53.5t224.5 -22.5t283.5 53.5t164 235h61l-104 -360h-1069l12 59l115 13q37 2 54 23.5
t30 74.5l246 1081q12 53 1.5 74t-47.5 25l-122 8l14 59h1036l-78 -342h-61q10 92 5 152.5t-59.5 89.5t-179.5 29zM694 1725q0 26 22.5 63t56.5 37t120 -58l297 -202l-23 -45l-348 114q-82 23 -103.5 44t-21.5 47z" />
    <glyph glyph-name="afii10023" unicode="&#x401;" horiz-adv-x="1220" 
d="M1044 1346h-247q-27 0 -38 -11.5t-20 -48.5l-116 -510h268q159 0 205 64q22 32 51 110h61l-94 -428h-61q6 109 -23 142.5t-156 33.5h-268l-104 -448q-16 -72 -14.5 -102.5t30.5 -53.5t224.5 -22.5t283.5 53.5t164 235h61l-104 -360h-1069l12 59l115 13q37 2 54 23.5
t30 74.5l246 1081q12 53 1.5 74t-47.5 25l-122 8l14 59h1036l-78 -342h-61q10 92 5 152.5t-59.5 89.5t-179.5 29zM627 1617q0 50 34.5 85t83 35t75 -30t26.5 -77t-33 -83t-83 -36t-76.5 28t-26.5 78zM1053 1617q0 50 34.5 85t83 35t75 -30t26.5 -77t-33 -83t-83 -36
t-76.5 28t-26.5 78z" />
    <glyph glyph-name="afii10051" unicode="&#x402;" horiz-adv-x="1587" 
d="M682 1346q-150 0 -220 -56t-120 -215h-61l77 342h1164l-78 -342h-62q10 93 4 153t-60 89t-177 29h-170l-139 -613h4q90 63 206 111t210 47q94 0 170 -38q171 -87 172 -350q2 -263 -142 -395t-352 -133q-100 1 -156 59t-57 136q0 78 32 129t80 51q47 0 75 -24t28 -60
q0 -37 -22 -82t-21 -69q0 -23 2 -35q6 -33 55 -33q78 0 136 65q86 98 118 313q10 67 11 99q0 240 -183 240q-147 0 -223 -29q-139 -53 -174 -143l-133 -592h-406l15 59l133 9q44 2 66 26t32 72l266 1180h-100z" />
    <glyph glyph-name="afii10052" unicode="&#x403;" horiz-adv-x="1120" 
d="M799 1346q-29 0 -40 -12t-20 -50l-254 -1120q-20 -88 47 -94l154 -11l-12 -59h-596l12 59l115 11q35 2 54 24t30 70l246 1089q20 86 -46 93l-120 12l12 59h1030l-80 -350h-61q10 91 2 153q-16 125 -246 126h-227zM1276 1725q0 -26 -19 -45t-106 -46l-348 -114l-23 45
l297 202q86 57 120 57q35 0 57 -36q22 -37 22 -63z" />
    <glyph glyph-name="afii10053" unicode="&#x404;" horiz-adv-x="1353" 
d="M233 563q1 353 211 609q104 126 272.5 201t383.5 75q117 0 243.5 -28.5t208.5 -80.5l-73 -307h-62q8 174 -69.5 259t-264.5 85q-125 0 -229 -49t-176 -135q-141 -168 -195 -408h637l-16 -77h-635q-16 -109 -16 -197q0 -229 111.5 -349t286.5 -120t271.5 73.5t192.5 241.5
h67l-92 -301q-172 -86 -416 -86q-409 1 -561 269q-80 142 -80 325z" />
    <glyph glyph-name="afii10054" unicode="&#x405;" horiz-adv-x="1091" 
d="M590.5 41q148.5 0 230.5 89t82 207t-64.5 191.5t-201.5 141.5t-215 153.5t-78 225t100 261.5q52 62 148 100t223 38q233 0 367 -105l-74 -286h-59q37 319 -248 319q-131 0 -208 -73.5t-77 -192t122 -198.5q56 -37 142 -83q160 -82 233.5 -177t73.5 -230
q0 -177 -114.5 -313t-403.5 -140q-121 0 -246 46t-182 122l54 314h59q-8 -195 90 -302.5t246.5 -107.5z" />
    <glyph glyph-name="afii10055" unicode="&#x406;" horiz-adv-x="706" 
d="M82 0l12 59l113 13q37 2 56.5 25.5t29.5 72.5l246 1077q23 96 -45 103l-121 8l14 59h561l-14 -59l-113 -10q-37 -2 -55 -27t-31 -74l-246 -1077q-23 -96 46 -102l120 -9l-12 -59h-561z" />
    <glyph glyph-name="afii10056" unicode="&#x407;" horiz-adv-x="706" 
d="M82 0l12 59l113 13q37 2 56.5 25.5t29.5 72.5l246 1077q23 96 -45 103l-121 8l14 59h561l-14 -59l-113 -10q-37 -2 -55 -27t-31 -74l-246 -1077q-23 -96 46 -102l120 -9l-12 -59h-561zM371 1617q0 50 34.5 85t83 35t75 -30t26.5 -77t-33 -83t-83 -36t-76.5 28t-26.5 78z
M797 1617q0 50 34.5 85t83 35t75 -30t26.5 -77t-33 -83t-83 -36t-76.5 28t-26.5 78z" />
    <glyph glyph-name="afii10057" unicode="&#x408;" horiz-adv-x="720" 
d="M-20 -244q-23 0 -68 4v52q162 16 257 104t163 379l223 958q10 47 0 70t-47 25l-121 10l14 59h564l-15 -59l-112 -8q-36 -2 -56 -25t-30 -72l-240 -1030q-66 -281 -215 -387q-115 -80 -317 -80z" />
    </font>
</defs>
</svg>
