<?xml version="1.0" standalone="no"?>
<!DOCTYPE svg PUBLIC "-//W3C//DTD SVG 1.1//EN" "http://www.w3.org/Graphics/SVG/1.1/DTD/svg11.dtd" >
<svg xmlns="http://www.w3.org/2000/svg">
<metadata>
Created by FontPrep 20130207 at Sat Nov  8 22:29:50 2014
 By Devin Schulz
Copyright (c) 1989, 1991 Adobe Systems Incorporated.  All Rights Reserved. Utopia is either a registered trademark or trademark of Adobe Systems Incorporated in the United States and/or other countries. Used under license. The Utopia fonts are freely available; see http://tug.org/fonts/utopia.

Copyright (c) 2008-2012 Andrey V. Panov (panov@canopus.iacp.dvo.ru).

</metadata>
<defs>
<font id="13ba0481f7bf2530308df14dde65253d" horiz-adv-x='1024' >
  <font-face 
    font-family="Heuristica-Regular"
    font-weight="400"
    font-stretch="normal"
    units-per-em="2048"
    panose-1="2 2 6 3 5 7 5 2 2 4"
    ascent="1536"
    descent="-512"
    x-height="1004"
    cap-height="1417"
    bbox="-1024 -918 2372 2273"
    underline-thickness="102"
    underline-position="-205"
    unicode-range="U+0020-FB04"
  />
<missing-glyph horiz-adv-x="1245" 
d="M672 709l301 -519v1039zM313 1329l310 -532l307 532h-617zM313 88h619l-309 535zM272 190l301 519l-301 520v-1039zM184 0v1417h877v-1417h-877z" />
    <glyph glyph-name="igrave" unicode="i&#x300;" horiz-adv-x="595" 
d="M10 1393q0 29 28 58.5t52 29.5q49 0 131 -84l244 -246l-31 -41l-309 172q-115 62 -115 111zM66 0v59q111 8 132 24.5t21 94.5v645q0 53 -12 69.5t-53 22.5l-78 11v51l321 51l15 -12v-838q0 -78 21.5 -94t131.5 -25v-59h-499z" />
    <glyph glyph-name="iacute" unicode="&#x456;&#x301;" horiz-adv-x="595" 
d="M487 1481q25 0 52.5 -30t27.5 -58q0 -49 -114 -111l-310 -172l-30 41l243 246q82 84 131 84zM66 0v59q111 8 132 24.5t21 94.5v645q0 53 -12 69.5t-53 22.5l-78 11v51l321 51l15 -12v-838q0 -78 21.5 -94t131.5 -25v-59h-499z" />
    <glyph glyph-name="icircumflex" unicode="i&#x302;" horiz-adv-x="595" 
d="M66 0v59q111 8 132 24.5t21 94.5v645q0 53 -12 69.5t-53 22.5l-78 11v51l321 51l15 -12v-838q0 -78 21.5 -94t131.5 -25v-59h-499zM-6 1151l242 272q47 51 73.5 51.5t73.5 -51.5l240 -272l-39 -43l-211 158q-43 31 -63.5 30.5t-63.5 -30.5l-211 -158z" />
    <glyph glyph-name="idieresis" unicode="i&#x308;" horiz-adv-x="595" 
d="M66 0v59q111 8 132 24.5t21 94.5v645q0 53 -12 69.5t-53 22.5l-78 11v51l321 51l15 -12v-838q0 -78 21.5 -94t131.5 -25v-59h-499zM389 1284q0 47 33 81t90 34t90 -34t33 -81t-33 -82t-90 -35t-90 35t-33 82zM-39 1284q0 47 34 81t91 34t90 -34t33 -81t-33 -82t-90 -35
t-91 35t-34 82z" />
    <glyph glyph-name="Aogonek" unicode="A&#x328;" horiz-adv-x="1300" 
d="M385 625h408l-203 585h-6q-183 -536 -199 -585zM-59 0v59q94 4 125.5 30t73.5 134.5t212 587.5l215 606h152l434 -1235q27 -78 56.5 -96t121.5 -27v-59h-188q-156 -129 -156 -270q0 -53 34 -82t92.5 -29t109.5 25l16 -43q-82 -72 -196.5 -72t-160.5 58.5t-46 138.5
q0 150 219 274h-248v59l92 9q49 4 60.5 23.5t-5.5 64.5l-137 391h-459q-102 -319 -120.5 -377.5t-8 -77t55.5 -22.5l106 -11v-59h-450z" />
    <glyph glyph-name="imacron" unicode="i&#x304;" horiz-adv-x="595" 
d="M66 0v59q111 8 132 24.5t21 94.5v645q0 53 -12 69.5t-53 22.5l-78 11v51l321 51l15 -12v-838q0 -78 21.5 -94t131.5 -25v-59h-499zM20 1223v120h590v-120h-590z" />
    <glyph glyph-name="ibreve" unicode="i&#x306;" horiz-adv-x="595" 
d="M66 0v59q111 8 132 24.5t21 94.5v645q0 53 -12 69.5t-53 22.5l-78 11v51l321 51l15 -12v-838q0 -78 21.5 -94t131.5 -25v-59h-499zM35 1442h49q4 -51 55 -98.5t176 -47.5t176.5 47.5t55.5 98.5h49q0 -115 -43 -187q-55 -92 -238 -92t-237 92q-42 72 -43 187z" />
    <glyph glyph-name="jcircumflex" unicode="j&#x302;" horiz-adv-x="573" 
d="M217 74v749q0 51 -12 68.5t-53 23.5l-78 11v51l321 51l15 -12v-1002q0 -209 -69 -329.5t-253 -161.5q-86 -18 -151 -19l-5 50q180 45 232.5 147t52.5 373zM0 1151l240 272q47 51 73.5 51.5t73.5 -51.5l240 -272l-39 -43l-211 158q-43 31 -63.5 30.5t-63.5 -30.5
l-211 -158z" />
    <glyph glyph-name="uni01D0" unicode="i&#x30c;" horiz-adv-x="595" 
d="M66 0v59q111 8 132 24.5t21 94.5v645q0 53 -12 69.5t-53 22.5l-78 11v51l321 51l15 -12v-838q0 -78 21.5 -94t131.5 -25v-59h-499zM315.5 1286q20.5 0 63.5 31l211 158l39 -43l-240 -273q-47 -51 -73.5 -51t-73.5 51l-240 273l39 43l211 -158q43 -31 63.5 -31z" />
    <glyph glyph-name="uni01F0" unicode="j&#x30c;" horiz-adv-x="573" 
d="M217 74v749q0 51 -12 68.5t-53 23.5l-78 11v51l321 51l15 -12v-1002q0 -209 -69 -329.5t-253 -161.5q-86 -18 -151 -19l-5 50q180 45 232.5 147t52.5 373zM313.5 1286q20.5 0 63.5 31l211 158l39 -43l-240 -273q-47 -51 -73.5 -51t-73.5 51l-240 273l39 43l211 -158
q43 -31 63.5 -31z" />
    <glyph glyph-name="f_b" unicode="fb" horiz-adv-x="1878" 
d="M1030 334q0 -86 14 -129q57 -158 226 -158q295 0 295 465q0 125 -29 212t-74 126q-76 66 -162 68q-178 0 -249 -144q-20 -41 -21 -117v-323zM61 922v82h158v43q0 223 111 348t315 125q143 0 244 -58l127 58l14 -13v-624q97 65 139 86q114 59 215 59q102 0 180 -42
t118 -98q38 -56 67 -149t29 -230t-41 -247t-114 -170q-140 -117 -334 -117q-193 0 -333 80l-82 -80l-36 17v1298q-23 76 -80 117t-123 41q-223 0 -223 -377v-67h229v-82h-229v-746q0 -78 24 -93t142 -24v-59h-512v59q110 9 132 25t21 94v744h-158z" />
    <glyph glyph-name="f_h" unicode="fh" horiz-adv-x="1896" 
d="M66 0v59q110 9 132 25t21 94v744h-158v82h158v43q0 231 116 352t318 121q143 0 244 -58l127 58l14 -13v-635q158 104 226 130t145 26q143 0 223 -85t80 -241v-524q0 -76 24 -93t130 -26v-59h-500v59q106 7 130 25t24 94v484q0 256 -215 256q-78 0 -146 -44t-100 -106
q-18 -35 -19 -111v-479q0 -76 24 -93t130 -26v-59h-500v59q110 9 132 25t22 94v1112q-23 76 -81 117t-124 41q-231 0 -231 -377v-67h229v-82h-229v-746q0 -76 22 -92t131 -25v-59h-499z" />
    <glyph glyph-name="f_j" unicode="fj" horiz-adv-x="1226" 
d="M66 0v59q110 9 132 25t21 94v744h-158v82h158v36q0 220 121 350t340 130q162 0 259 -58t97 -131q0 -45 -36 -69t-78 -25q-42 0 -56 37q-61 174 -209 174q-246 0 -245 -350v-94h297q84 0 354 24v-1014q0 -210 -71 -330t-255 -161q-86 -18 -155 -19l-4 50q184 45 235 143
q57 113 57 377v753q0 55 -12 75t-51 20h-395v-746q0 -78 24 -94t150 -23v-59h-520z" />
    <glyph glyph-name="f_k" unicode="fk" horiz-adv-x="1726" 
d="M61 922v82h158v43q0 215 114 344t320 129q143 0 244 -58l127 58l16 -13v-958h4q82 121 310 395q30 37 54 48t75 12h211v-58q-139 -14 -244 -91t-229 -220q-23 -25 -7 -47q164 -231 365 -430q86 -86 176 -111v-57l-153 6q-125 8 -222 104q-199 203 -336 420h-4v-342
q0 -78 22 -94t132 -25v-59h-500v59q110 9 132 25t22 94v1112q-23 76 -81 117t-124 41q-98 0 -165 -85t-66 -292v-67h229v-82h-229v-746q0 -76 22 -92t131 -25v-59h-499v59q110 9 132 25t21 94v744h-158z" />
    <glyph glyph-name="longs_b" unicode="&#x17f;b" horiz-adv-x="1871" 
d="M1024 334q0 -86 14 -129q57 -158 226 -158q295 0 295 465q0 125 -29 212t-74 126q-76 66 -162 68q-178 0 -250 -144q-20 -41 -20 -117v-323zM51 0v59q107 9 127 25t21 94v846q0 236 109 366q110 130 327 130q145 0 246 -58l129 58l14 -13v-624q102 68 142 88
q113 57 213 57q101 0 179 -42t118 -98q38 -56 66 -145t29 -230t-40 -251t-114 -170q-140 -117 -334 -117q-193 0 -333 80l-82 -80l-37 17v1298q-23 76 -80 117q-58 41 -126 41q-100 0 -167 -90t-67 -309v-873q0 -78 22 -93t132 -24v-59h-494z" />
    <glyph glyph-name="longs_h" unicode="&#x17f;h" horiz-adv-x="1888" 
d="M51 0v59q107 9 127 25t21 94v846q0 236 110 366q111 130 330 130q150 0 250 -58l127 58l14 -13v-635q158 104 226 130t145 26q143 0 223 -85t80 -241v-524q0 -76 24 -93t130 -26v-59h-500v59q106 7 130 25t23 94v484q0 256 -215 256q-78 0 -146 -44t-92 -92
q-25 -49 -26 -125v-479q0 -76 24 -93t130 -26v-59h-492v59q104 9 124 25t22 94v1112q-23 76 -82 117t-129 41q-238 0 -238 -399v-873q0 -78 22 -93t132 -24v-59h-494z" />
    <glyph glyph-name="longs_i" unicode="&#x17f;i" horiz-adv-x="1216" 
d="M51 0v59q107 9 127 25t21 94v862q0 221 120 351q121 129 338 129q162 0 258 -58t97 -131q0 -45 -36 -69t-78 -25q-42 0 -56 37q-61 174 -207 174q-244 0 -244 -350v-920q0 -78 22 -94t128 -25v-59h-490zM690 0v59q109 9 129 25t21 94v645q0 53 -12 69t-54 23l-78 11v51
l322 51l14 -12v-838q0 -78 22 -94t132 -25v-59h-496z" />
    <glyph glyph-name="longs_k" unicode="&#x17f;k" horiz-adv-x="1718" 
d="M51 0v59q107 9 127 25t21 94v846q0 236 110 366q111 130 330 130q150 0 250 -58l129 58l14 -13v-958h4q82 121 310 395q30 37 54 48t75 12h211v-58q-139 -14 -244 -91t-230 -220q-23 -25 -6 -47q164 -231 365 -430q86 -86 176 -111v-57l-154 6q-125 8 -221 104
q-199 203 -336 420h-4v-342q0 -78 22 -94t132 -25v-59h-492v59q104 9 124 25t22 94v1112q-23 76 -82 117t-129 41q-238 0 -238 -399v-873q0 -78 22 -93t132 -24v-59h-494z" />
    <glyph glyph-name="longs_l" unicode="&#x17f;l" horiz-adv-x="1216" 
d="M51 0v59q107 9 127 25t21 94v858q-1 242 115 363t325 121q150 0 250 -58l129 58l14 -13v-1329q0 -78 22 -94t132 -25v-59h-492v59q104 9 124 25t22 94v1112q-23 76 -82 117t-129 41q-238 0 -238 -387v-885q0 -78 22 -93t132 -24v-59h-494z" />
    <glyph glyph-name="longs_longs" unicode="&#x17f;&#x17f;" horiz-adv-x="1236" 
d="M674 0v59q102 9 122 25t21 94v897q0 213 68 316q85 129 273 129q96 0 162 -47t66 -97t-32 -78q-32 -26 -69 -26q-36 0 -54 35q-60 141 -127 141q-28 0 -48 -11t-40 -63t-17 -141l11 -229v-826q0 -78 22 -94t131 -25v-59h-489zM199 1061q0 428 313 428q106 0 174 -47
q68 -46 68 -96t-30 -76t-66 -25q-36 0 -54 35q-59 137 -133 137q-19 0 -37 -11q-18 -10 -36 -62t-15 -138l8 -202v-826q0 -78 22 -94t128 -25v-59h-490v59q107 9 127 25t21 94v883z" />
    <glyph glyph-name="longs_longs_i" unicode="&#x17f;&#x17f;i" horiz-adv-x="1835" 
d="M1309 0v59q109 9 129 25t20 94v645q0 53 -12 69t-53 23l-78 11v51l321 51l15 -12v-838q-1 -78 21 -94t132 -25v-59h-495zM674 0v59q102 9 122 25t21 94v862q0 220 121 350t338 130q162 0 258 -58t96 -131q0 -45 -36 -69t-78 -25q-42 0 -56 37q-61 174 -207 174
q-244 0 -243 -350v-920q0 -78 22 -94t127 -25v-59h-485zM199 1061q0 428 313 428q106 0 174 -47q68 -46 68 -96t-30 -76t-66 -25q-36 0 -54 35q-59 137 -133 137q-19 0 -37 -11q-18 -10 -36 -62t-15 -138l8 -202v-826q0 -78 22 -94t128 -25v-59h-490v59q107 9 127 25t21 94
v883z" />
    <glyph glyph-name="longs_longs_l" unicode="&#x17f;&#x17f;l" horiz-adv-x="1835" 
d="M674 0v59q102 9 122 25t21 94v858q0 242 116 363t324 121q150 0 250 -58l129 58l15 -13v-1329q-1 -78 21 -94t132 -25v-59h-491v59q105 9 125 25t20 94v1112q-23 76 -82 117t-129 41q-238 0 -237 -387v-885q0 -78 22 -93t131 -24v-59h-489zM199 1061q0 428 313 428
q106 0 174 -47q68 -46 68 -96t-30 -76t-66 -25q-36 0 -54 35q-59 137 -133 137q-19 0 -37 -11q-18 -10 -36 -62t-15 -138l8 -202v-826q0 -78 22 -94t128 -25v-59h-490v59q107 9 127 25t21 94v883z" />
    <glyph glyph-name="ff" unicode="ff" horiz-adv-x="1306" 
d="M61 922v82h158v55q0 199 68 301q84 129 254 129q111 0 181 -47q70 -46 69 -96q0 -50 -32 -74t-68 -25q-36 0 -54 35q-57 135 -137 135q-32 -1 -56 -27q-43 -48 -41 -184l9 -202h460v71q0 213 68 316q85 129 276 129q98 0 166 -46t68 -96t-33 -78q-33 -26 -69 -26t-54 35
q-34 83 -68 111t-71 28q-104 0 -98 -215l8 -229h250v-82h-250v-746q0 -78 28 -94t167 -23v-59h-541v59q111 9 133 25t20 94v744h-460v-746q0 -78 24 -94t150 -23v-59h-520v59q110 9 132 25t21 94v744h-158z" />
    <glyph glyph-name="fi" unicode="fi" horiz-adv-x="1249" 
d="M61 922v82h158v36q0 213 117 346t348 134q166 0 263 -58t97 -131q0 -45 -36 -69t-77 -25q-42 0 -57 37q-61 174 -212 174q-250 0 -250 -350v-94h299q84 0 354 24v-850q-1 -78 21 -94t133 -25v-59h-500v59q111 9 133 25t20 94v649q0 55 -13 75t-52 20h-395v-746
q0 -78 24 -94t150 -23v-59h-520v59q110 9 132 25t21 94v744h-158z" />
    <glyph glyph-name="fl" unicode="fl" horiz-adv-x="1249" 
d="M61 922v82h158v43q0 231 116 352t331 121q156 0 256 -58l129 58l14 -13v-1329q-1 -78 21 -94t133 -25v-59h-500v59q111 9 133 25t20 94v1112q-23 76 -82 117q-60 41 -135 41q-111 0 -177 -80t-66 -297v-67h250v-82h-250v-746q0 -78 28 -94t166 -23v-59h-540v59
q110 9 132 25t21 94v744h-158z" />
    <glyph glyph-name="ffi" unicode="ffi" horiz-adv-x="1902" 
d="M61 922v82h158v55q0 199 68 301q84 129 254 129q111 0 181 -47q70 -46 69 -96q0 -50 -32 -74t-68 -25q-36 0 -54 35q-57 135 -137 135q-32 -1 -56 -27q-43 -48 -41 -184l9 -202h460v36q0 224 122 352t343 128q165 0 263 -58t98 -131q0 -45 -36 -69t-78 -25q-42 0 -56 37
q-61 174 -213 174q-250 0 -250 -350v-94h299q84 0 354 24v-850q0 -78 22 -94t132 -25v-59h-500v59q110 9 132 25t22 94v649q0 55 -14 75t-52 20h-395v-746q0 -78 25 -94t149 -23v-59h-520v59q111 9 133 25t20 94v744h-460v-746q0 -78 24 -94t150 -23v-59h-520v59
q110 9 132 25t21 94v744h-158z" />
    <glyph glyph-name="ffl" unicode="ffl" horiz-adv-x="1902" 
d="M61 922v82h158v55q0 199 68 301q84 129 254 129q111 0 181 -47q70 -46 69 -96q0 -50 -32 -74t-68 -25q-36 0 -54 35q-57 135 -137 135q-32 -1 -56 -27q-43 -48 -41 -184l9 -202h460v43q0 231 116 352t331 121q156 0 256 -58l129 58l14 -13v-1329q0 -78 22 -94t132 -25
v-59h-500v59q110 9 132 25t22 94v1112q-23 76 -83 117t-134 41q-111 0 -177 -80t-67 -297v-67h250v-82h-250v-746q0 -78 28 -94t167 -23v-59h-541v59q111 9 133 25t20 94v744h-460v-746q0 -78 24 -94t150 -23v-59h-520v59q110 9 132 25t21 94v744h-158z" />
    <glyph glyph-name="esh_i" unicode="&#x283;i" horiz-adv-x="1312" 
d="M782 0v59q110 9 132 25t22 94v645q0 53 -12 69t-54 23l-77 11v51l321 51l14 -12v-838q0 -78 22 -94t132 -25v-59h-500zM-57 -353q0 50 30 77q31 26 68 26t53 -35q35 -83 69 -111t70 -28q94 0 82 215l-10 209v1040q0 220 120 350t333 130q158 0 253 -58t95 -131
q0 -45 -36 -69t-78 -25q-42 0 -56 37q-61 174 -201 174q-238 0 -237 -350v-1149q0 -219 -64 -316q-84 -129 -241 -129q-113 0 -182 46q-68 47 -68 97z" />
    <glyph glyph-name="esh_k" unicode="&#x283;k" horiz-adv-x="1789" 
d="M-57 -353q0 50 30 77q31 26 68 26t53 -35q35 -83 69 -111t70 -28q94 0 82 215l-10 209v1036q0 236 98 350q53 62 139 98t179 36q156 0 240 -58l129 58l14 -13v-958h4q82 121 309 395q31 37 55 48t74 12h211v-58q-139 -14 -243 -91t-230 -220q-23 -25 -6 -47
q164 -231 364 -430q86 -86 177 -111v-57l-154 6q-125 8 -221 104q-199 203 -336 420h-4v-342q0 -78 22 -94t131 -25v-59h-499v59q110 9 132 25t21 94v1112q-41 158 -200 158q-92 0 -159 -98t-58 -254l4 -92v-1055q0 -219 -64 -316q-84 -129 -241 -129q-113 0 -182 46
q-68 47 -68 97z" />
    <glyph glyph-name="esh_l" unicode="&#x283;l" horiz-adv-x="1288" 
d="M-57 -353q0 50 30 77q31 26 68 26t53 -35q35 -83 69 -111t70 -28q94 0 82 215l-10 209v1036q0 236 98 350q53 62 139 98t179 36q156 0 240 -58l129 58l14 -13v-1329q0 -78 22 -94t131 -25v-59h-499v59q110 9 132 25t21 94v1112q-41 158 -200 158q-92 0 -159 -98t-58 -254
l4 -92v-1055q0 -219 -64 -316q-84 -129 -241 -129q-113 0 -182 46q-68 47 -68 97z" />
    <glyph glyph-name=".notdef" horiz-adv-x="1245" 
d="M672 709l301 -519v1039zM313 1329l310 -532l307 532h-617zM313 88h619l-309 535zM272 190l301 519l-301 520v-1039zM184 0v1417h877v-1417h-877z" />
    <glyph glyph-name=".notdef" horiz-adv-x="1245" 
d="M672 709l301 -519v1039zM313 1329l310 -532l307 532h-617zM313 88h619l-309 535zM272 190l301 519l-301 520v-1039zM184 0v1417h877v-1417h-877z" />
    <glyph glyph-name=".null" 
 />
    <glyph glyph-name="nonmarkingreturn" horiz-adv-x="681" 
 />
    <glyph glyph-name="space" unicode=" " horiz-adv-x="460" 
 />
    <glyph glyph-name="exclam" unicode="!" horiz-adv-x="495" 
d="M119 105q0 57 36 95t94 38t93 -38t34 -96t-35 -93q-34 -36 -92 -36t-94 37t-36 93zM249 1448q79 0 99 -31t14 -106l-86 -883h-59l-82 883q-5 77 15 107t99 30z" />
    <glyph glyph-name="quotedbl" unicode="&#x22;" horiz-adv-x="937" 
d="M301 1520q106 0 92 -109l-71 -461h-41l-72 461q-14 109 92 109zM639 1520q106 0 92 -109l-72 -461h-41l-71 461q-14 109 92 109z" />
    <glyph glyph-name="numbersign" unicode="#" horiz-adv-x="1085" 
d="M375 569h276l68 273h-277zM23 475l24 94h217l68 273h-219l24 94h217l107 432h110l-106 -432h276l107 432h108l-106 -432h213l-21 -94h-215l-67 -273h213l-21 -94h-215l-116 -475h-111l119 475h-277l-116 -475h-113l119 475h-219z" />
    <glyph glyph-name="dollar" unicode="$" horiz-adv-x="1085" 
d="M819 310q0 128 -62 196t-177 104v-538q92 -2 166 54t73 184zM276 1076q0 -108 60 -162q60 -52 162 -85v465q-82 0 -152 -55t-70 -163zM90 225q0 43 31 74t65 31t58 -45q100 -209 254 -213v565q-205 61 -294 155t-89 222q0 168 112 258q113 90 271 94v156h82v-154
q168 -4 263 -71t95 -140q0 -41 -32 -63t-66 -21q-34 0 -52 41q-70 172 -208 182v-497q211 -59 314 -161t103 -263q-1 -94 -37 -167t-86 -111q-50 -37 -130 -67q-79 -30 -164 -30v-209h-82v209q-208 6 -308 80t-100 145z" />
    <glyph glyph-name="percent" unicode="%" horiz-adv-x="1716" 
d="M1290 659q-80 -1 -125 -77t-45 -228t45 -232q45 -81 126 -81t126 81t45 228q0 309 -172 309zM969 350q0 180 81 278q82 98 242 97q160 0 241 -97q81 -98 81 -278t-81 -277t-242 -97t-241 96q-80 98 -81 278zM424 1327q-80 -1 -125 -77t-45 -228t45 -232q45 -81 126 -81
t126 81t45 228q0 309 -172 309zM102 1018q0 180 81 277t227 97t241 -69q41 -27 88 -27h346q55 4 87 18t59 50l49 70l70 -43l-901 -1442l-74 55l766 1227h-420q27 -73 27 -233t-81 -258t-242 -97q-161 -1 -242 97t-81 278z" />
    <glyph glyph-name="ampersand" unicode="&#x26;" horiz-adv-x="1445" 
d="M416 1118q0 -137 133 -287q188 131 188 291q0 86 -40 142q-41 56 -111 57q-70 -1 -120 -57t-50 -146zM293 414q0 -156 88 -247q89 -91 237 -91t293 125q-268 242 -477 491q-141 -122 -141 -278zM94 360q0 146 93 233t206 157q-135 168 -135 310t95 237t231 95t224 -75
q87 -76 87 -201t-82 -194t-217 -140q193 -236 430 -452q160 186 125 522q80 45 156 35q57 -111 24 -211q-59 -172 -252 -397q78 -76 175 -150t163 -92l-10 -51l-43 4q-221 18 -340 114l-57 46q-199 -174 -411 -174t-337 102t-125 282z" />
    <glyph glyph-name="quotesingle" unicode="'" horiz-adv-x="569" 
d="M285 1520q106 0 92 -109l-72 -461h-41l-71 461q-14 109 92 109z" />
    <glyph glyph-name="parenleft" unicode="(" horiz-adv-x="716" 
d="M215 578q0 305 90 555q47 127 139 203t222 81v-51q-112 -21 -202 -182q-106 -190 -106 -606q0 -209 31 -367t80 -242q93 -160 197 -180v-51q-129 6 -222 82q-155 128 -207 466q-22 136 -22 292z" />
    <glyph glyph-name="parenright" unicode=")" horiz-adv-x="716" 
d="M412 1133q90 -243 90 -552t-90 -558q-48 -127 -140 -203t-221 -82v51q104 20 197 180q49 84 80 242t30 367q0 560 -203 735q-50 43 -104 53v51q129 -6 221 -82t140 -202z" />
    <glyph glyph-name="asterisk" unicode="*" horiz-adv-x="843" 
d="M422 729q-82 0 -64 82l39 190q4 27 -3 35t-27 -10l-148 -139q-55 -51 -98 8q-45 72 26 100l197 80q35 13 20 28q-7 7 -26 13l-195 76q-71 28 -27 92t99 16l156 -131q16 -14 24 -8t2 31l-39 192q-12 63 64 64q76 0 63 -64l-39 -192q-6 -25 2 -31t25 8l158 134
q57 49 98 -18t-27 -91l-196 -78q-58 -19 -6 -41l196 -80q33 -14 41 -42t-14 -58q-45 -63 -98 -10l-148 141q-20 18 -27 10t-4 -35l39 -190q19 -82 -63 -82z" />
    <glyph glyph-name="plus" unicode="+" horiz-adv-x="1167" 
d="M88 453v118h426v433h139v-433h426v-118h-426v-453h-139v453h-426z" />
    <glyph glyph-name="comma" unicode="," horiz-adv-x="542" 
d="M223 -12q0 45 -34 104q-61 106 -6 167q28 30 80 30t92 -52t40 -121q0 -127 -81 -224t-171 -181l-39 39q119 129 119 238z" />
    <glyph glyph-name="hyphen" unicode="-" horiz-adv-x="802" 
d="M152 442v144h501v-144h-501z" />
    <glyph glyph-name="period" unicode="." horiz-adv-x="542" 
d="M143 105q0 57 36 95t94 38q57 0 93 -38t34 -96t-34 -93q-34 -36 -92 -36t-95 37q-36 37 -36 93z" />
    <glyph glyph-name="slash" unicode="/" horiz-adv-x="942" 
d="M188 -31l430 1479h138l-430 -1479h-138z" />
    <glyph glyph-name="zero" unicode="0" horiz-adv-x="1085" 
d="M293 684q0 -637 250 -637t250 637t-250 637t-250 -637zM84 684q0 709 459 709t459 -709t-460 -709q-458 0 -458 709z" />
    <glyph glyph-name="one" unicode="1" horiz-adv-x="1085" 
d="M223 0v59l172 15q35 4 51 23t17 77v993q0 43 -11 59t-38 21l-191 23v51l422 72l10 -13v-1206q1 -56 17 -76t51 -24l172 -15v-59h-672z" />
    <glyph glyph-name="two" unicode="2" horiz-adv-x="1085" 
d="M723 1038q0 283 -203 283q-90 0 -151 -70t-88 -182q-12 -55 -60 -55q-35 0 -74 28t-38 74q0 94 116 186q117 91 303 91t298 -91t112 -292q0 -151 -78 -239t-167 -152t-103 -74q-140 -99 -230 -203t-114 -186h524q66 0 100 24t66 101l57 -11l-69 -270h-848l-21 20
q31 125 114 243q83 119 250 265t235 252q69 106 69 258z" />
    <glyph glyph-name="three" unicode="3" horiz-adv-x="1085" 
d="M55 209q0 49 37 81t72 32q43 0 61 -58q33 -94 100 -155t174 -61t181 78q74 80 74 236t-74 253t-199 98q-59 -1 -116 -11t-62 -10q-37 0 -37 58t37 57q3 0 61 -10t117 -11q119 0 168 82t49 172t-15 142q-15 53 -62 96t-123 43q-164 0 -238 -229q-12 -41 -46 -41
q-34 -1 -70 27t-35 71q0 80 109 162q110 82 290 82t291 -83q111 -84 111 -232t-91 -223q-90 -75 -198 -93v-8q106 -9 216 -83q58 -40 95 -114t37 -170q0 -195 -129 -303q-128 -108 -340 -109q-212 0 -328 77t-117 157z" />
    <glyph glyph-name="four" unicode="4" horiz-adv-x="1085" 
d="M614 463v706h-4q-260 -407 -424 -706h428zM799 1368v-905h211v-96h-211v-209q0 -52 12 -68t49 -20l92 -11v-59h-540v59l131 13q39 4 55 20t16 66v209h-557l-18 43q274 465 610 958h150z" />
    <glyph glyph-name="five" unicode="5" horiz-adv-x="1085" 
d="M82 209q0 47 37 78t75 31t54 -50q78 -221 258 -221q128 1 196 103t68 278t-81 266t-193 90q-154 0 -281 -145l-49 25l41 686l20 18h684l11 -16l-50 -140h-510q-31 0 -43 -11t-16 -48l-47 -383l4 -4q51 47 134 78t165 30q190 0 307 -112t117 -321q0 -208 -125 -337
t-366 -129q-184 0 -297 76t-113 158z" />
    <glyph glyph-name="six" unicode="6" horiz-adv-x="1085" 
d="M297 483q0 -193 68 -315q69 -122 195 -121q126 0 192 97q66 96 66 264t-77 260t-189 92t-184 -86t-71 -191zM90 633q0 375 137 567t387 193q166 0 256 -72t91 -147q0 -41 -36 -67t-76 -26t-50 43q-25 90 -74 144t-117 53q-145 0 -229 -155t-86 -478h4q143 176 323 176
t292 -112q110 -112 110 -320q0 -207 -121 -332t-344 -125q-467 1 -467 658z" />
    <glyph glyph-name="seven" unicode="7" horiz-adv-x="1085" 
d="M342 59q0 170 75 344q75 173 233 399t208 410h-553q-67 0 -95 -20t-50 -68l-21 -43h-55l63 287h852l19 -22q-47 -170 -131 -315q-31 -52 -89 -146t-91 -154q-168 -295 -154 -678q2 -43 -25 -60t-75 -18q-111 0 -111 84z" />
    <glyph glyph-name="eight" unicode="8" horiz-adv-x="1085" 
d="M543 1321q-101 -1 -157 -75t-56 -193t54 -203t158 -84t159 84t55 203t-56 193t-157 75zM542 692q-118 0 -184 -90t-67 -234q0 -144 64 -233q65 -88 188 -88t187 88q64 89 65 233q0 144 -67 234q-68 90 -186 90zM86 360q0 160 79 253t191 120v6q-98 27 -161 106t-64 199
q0 162 115 255t297 93t297 -92q115 -94 114 -256q0 -122 -63 -200t-162 -105v-6q115 -27 193 -120t78 -253t-112 -272q-112 -113 -345 -113t-345 113q-112 112 -112 272z" />
    <glyph glyph-name="nine" unicode="9" horiz-adv-x="1085" 
d="M522 1321q-117 1 -180 -91t-63 -240q-1 -148 67 -240t184 -93q80 0 139 44q97 74 97 231q0 158 -64 274t-180 115zM524 1393q453 0 453 -654q0 -406 -135 -594q-123 -170 -371 -170q-170 0 -263 68t-93 147q0 45 31 75q32 30 71 30t51 -43q29 -92 78 -148t143 -57
q174 0 240 238q47 180 47 436h-4q-119 -172 -295 -172t-290 101q-113 102 -113 298t126 321q126 124 324 124z" />
    <glyph glyph-name="colon" unicode=":" horiz-adv-x="542" 
d="M143 105q0 57 36 95t94 38q57 0 93 -38t34 -96t-34 -93q-34 -36 -92 -36t-95 37q-36 37 -36 93zM143 871q0 57 36 95t94 38q57 0 93 -38t34 -96t-34 -93q-34 -36 -92 -36t-95 37q-36 37 -36 93z" />
    <glyph glyph-name="semicolon" unicode=";" horiz-adv-x="542" 
d="M223 -12q0 45 -34 104q-61 106 -6 167q28 30 80 30t92 -52t40 -121q0 -127 -81 -224t-171 -181l-39 39q119 129 119 238zM143 871q0 57 36 95t94 38q57 0 93 -38t34 -96t-34 -93q-34 -36 -92 -36t-95 37q-36 37 -36 93z" />
    <glyph glyph-name="less" unicode="&#x3c;" horiz-adv-x="1167" 
d="M94 430v164l979 428v-141l-858 -369l858 -369v-141z" />
    <glyph glyph-name="equal" unicode="=" horiz-adv-x="1167" 
d="M88 678v119h991v-119h-991zM88 227v119h991v-119h-991z" />
    <glyph glyph-name="greater" unicode="&#x3e;" horiz-adv-x="1167" 
d="M94 2v141l858 369l-858 369v141l979 -428v-164z" />
    <glyph glyph-name="question" unicode="?" horiz-adv-x="796" 
d="M262 103q0 57 36 93t91 36t91 -36t36 -92t-36 -93q-36 -36 -91 -36t-91 36t-36 92zM168 1108q-35 0 -72 26t-37 88t87 144t248 82t251 -72t90 -207q0 -73 -20 -107q-19 -34 -27 -48t-25 -30t-25 -26q-18 -21 -77 -59q-178 -119 -178 -252q0 -73 47 -111t86 -38t68 8
l16 -41q-70 -57 -178 -57t-172 53q-66 53 -66 133t36 129t121 115t138 153q53 88 53 178q0 207 -129 207t-170 -219q-8 -49 -65 -49z" />
    <glyph glyph-name="at" unicode="@" horiz-adv-x="1624" 
d="M625 553q0 -104 69 -104q100 -1 222 195t155 360q-43 28 -107 28t-134 -56q-113 -92 -180 -295q-25 -79 -25 -128zM94 621q0 251 120 443t305 288t401 96q286 0 456 -172t170 -428q0 -207 -138 -351t-323 -145q-143 0 -143 129q0 66 29 152l-4 2q-55 -99 -161 -191
t-214 -92q-55 0 -95 40t-40 110q0 140 78 286q41 80 98 147t146 112t172 45t134 -27l9 16h133l-135 -528q-8 -27 -9 -53q0 -70 78 -70q104 0 194 126q89 126 89 282q0 248 -146 387t-360 139q-213 0 -369 -106q-155 -106 -235 -273q-80 -166 -80 -366t124 -372
q64 -89 186 -143t302 -55q180 0 330 64l16 -52q-168 -92 -428 -92t-469 159q-100 77 -160 205q-61 128 -61 288z" />
    <glyph glyph-name="A" unicode="A" horiz-adv-x="1300" 
d="M385 625h408l-203 585h-6q-183 -536 -199 -585zM-59 0v59q93 4 125 30q32 27 74 135t212 587l215 606h152l434 -1235q27 -78 56.5 -96t121.5 -27v-59h-524v59l92 9q49 4 60.5 23.5t-5.5 64.5l-137 391h-459q-102 -319 -120 -377t-8 -77t55 -23l106 -11v-59h-450z" />
    <glyph glyph-name="B" unicode="B" horiz-adv-x="1323" 
d="M938 1079q0 267 -341 267q-89 0 -113.5 -17.5t-24.5 -85.5v-444h137q342 0 342 280zM459 229q0 -96 38 -126.5t158 -30.5q344 0 344 311q0 164 -102 254t-291 90h-147v-498zM72 0v59q135 8 159.5 26.5t24.5 104.5v1037q0 86 -24.5 104.5t-159.5 26.5v59h592
q252 0 370.5 -80t118.5 -245q0 -119 -81 -203t-224 -113v-4q164 -23 267.5 -114t103.5 -261q0 -397 -512 -397h-635z" />
    <glyph glyph-name="C" unicode="C" horiz-adv-x="1400" 
d="M98 683q0 345 187.5 555t576.5 210q262 0 434 -80v-319h-61q-53 328 -393 327q-137 0 -239.5 -56t-160.5 -154q-114 -191 -114 -461q0 -185 59 -341q35 -92 89 -161.5t147.5 -115.5t214.5 -46q188 0 285.5 95t144.5 274h61l-29 -342q-76 -41 -203.5 -70t-246.5 -29
q-383 0 -557 174q-195 195 -195 540z" />
    <glyph glyph-name="D" unicode="D" horiz-adv-x="1595" 
d="M459 256q0 -119 39 -151.5t175 -32.5q268 0 431.5 137t163.5 516q0 621 -572 621q-164 0 -200.5 -18.5t-36.5 -98.5v-973zM72 0v59q135 8 159.5 26.5t24.5 104.5v1037q0 86 -24.5 104.5t-159.5 26.5v59h680q172 0 305 -40q133 -39 215 -103q225 -174 225 -541
q0 -299 -156 -501q-84 -108 -244.5 -170t-385.5 -62h-639z" />
    <glyph glyph-name="E" unicode="E" horiz-adv-x="1241" 
d="M72 0v59q135 8 159.5 26.5t24.5 104.5v1037q0 86 -24.5 104.5t-159.5 26.5v59h1034v-336h-62q-23 162 -80 213.5t-229 51.5h-200q-49 0 -62.5 -12.5t-13.5 -61.5v-496h286q66 0 103 8.5t56.5 34t26.5 51t15 82.5h62v-432h-62q-8 59 -15 84t-26.5 51.5t-56.5 34.5t-103 8
h-286v-452q0 -78 10 -109t41 -45q54 -20 236 -20t260.5 51t113.5 231h62l-25 -354h-1085z" />
    <glyph glyph-name="F" unicode="F" horiz-adv-x="1187" 
d="M72 0v59q135 8 159.5 26.5t24.5 104.5v1037q0 86 -24.5 104.5t-159.5 26.5v59h1040v-327h-61q-23 160 -80.5 208t-233.5 48h-202q-51 0 -63.5 -11.5t-12.5 -62.5v-524h286q66 0 103 8t56.5 34.5t26.5 52t15 85.5h62v-439h-62q-8 59 -15 85t-26.5 52.5t-56.5 35t-103 8.5
h-286v-480q0 -86 29.5 -104t187.5 -27v-59h-604z" />
    <glyph glyph-name="G" unicode="G" horiz-adv-x="1503" 
d="M98 682q0 311 154 514q195 252 629 252q268 0 440 -84v-322h-61q-61 334 -396.5 334t-464.5 -290q-71 -159 -71 -360q0 -340 158 -524q60 -70 163 -115.5t220.5 -45.5t175 22.5t75 45t17.5 73.5v277q0 55 -12.5 75.5t-54.5 32t-150 19.5v59h565v-59q-100 -10 -123 -29.5
t-23 -97.5v-404q-270 -86 -471 -86q-328 0 -516 131q-115 82 -184.5 235.5t-69.5 346.5z" />
    <glyph glyph-name="H" unicode="H" horiz-adv-x="1634" 
d="M72 0v59q135 8 159.5 26.5t24.5 104.5v1037q0 86 -24.5 104.5t-159.5 26.5v59h571v-59q-133 -10 -158.5 -27.5t-25.5 -103.5v-451h717v451q0 86 -25 104.5t-160 26.5v59h572v-59q-133 -10 -159 -27.5t-26 -103.5v-1037q0 -86 26 -103t159 -28v-59h-572v59q135 8 160 26.5
t25 104.5v508h-717v-508q0 -86 25.5 -103t158.5 -28v-59h-571z" />
    <glyph glyph-name="I" unicode="I" horiz-adv-x="714" 
d="M72 0v59q135 8 159.5 26.5t24.5 104.5v1037q0 86 -24.5 104.5t-159.5 26.5v59h571v-59q-133 -10 -158.5 -27.5t-25.5 -103.5v-1037q0 -86 25.5 -103t158.5 -28v-59h-571z" />
    <glyph glyph-name="J" unicode="J" horiz-adv-x="716" 
d="M274 281v946q0 86 -24.5 104.5t-159.5 26.5v59h572v-59q-133 -10 -159 -27.5t-26 -103.5v-934q0 -182 -41 -294t-166 -169t-260 -63l-10 51q129 33 190 106q84 102 84 357z" />
    <glyph glyph-name="K" unicode="K" horiz-adv-x="1347" 
d="M72 0v59q135 8 159.5 26.5t24.5 104.5v1037q0 86 -24.5 104.5t-159.5 26.5v59h571v-59q-133 -10 -158.5 -27.5t-25.5 -103.5v-484q338 348 497 527q63 76 -2 82l-77 6v59h497v-59q-127 -8 -183 -30.5t-138 -96.5q-205 -178 -418 -414q193 -289 493 -610
q139 -147 238 -168v-49l-129 6q-205 6 -354 176q-217 246 -418 551l-2 8h-4v-541q0 -86 25.5 -103t158.5 -28v-59h-571z" />
    <glyph glyph-name="L" unicode="L" horiz-adv-x="1163" 
d="M72 0v59q135 8 159.5 26.5t24.5 104.5v1037q0 86 -24.5 104.5t-159.5 26.5v59h583v-59q-143 -10 -169.5 -27.5t-26.5 -103.5v-981q0 -78 10 -109t41 -45q53 -20 226 -20t253 53t109 242h61l-24 -367h-1063z" />
    <glyph glyph-name="M" unicode="M" horiz-adv-x="1933" 
d="M70 0v59q90 6 124.5 24.5t46 95.5t11.5 237v811q0 86 -24.5 104.5t-159.5 26.5v59h415q71 -171 240 -545l242 -546h4l245 548q176 389 236 543h412v-59q-133 -10 -159 -27.5t-26 -103.5v-1037q0 -86 26 -103t159 -28v-59h-572v59q135 8 160 26.5t25 104.5v1039h-7
l-534 -1204h-55l-529 1204h-4v-813q0 -160 11 -236.5t49 -94t149 -26.5v-59h-485z" />
    <glyph glyph-name="N" unicode="N" horiz-adv-x="1597" 
d="M72 0v59q90 6 124.5 24.5t46 95.5t11.5 237v811q0 86 -24.5 104.5t-159.5 26.5v59h393q782 -1113 803 -1134v718q0 160 -11.5 236.5t-49.5 94.5t-148 26v59h485v-59q-90 -6 -125 -24.5t-46 -95.5t-11 -237v-1001h-135q-330 471 -873 1233h-4v-817q0 -160 11 -236.5
t49 -94t149 -26.5v-59h-485z" />
    <glyph glyph-name="O" unicode="O" horiz-adv-x="1560" 
d="M328 709q0 -125 20.5 -233.5t67.5 -211t140 -163t224 -60.5t224.5 60.5t140.5 163t67.5 211t20.5 233.5t-20.5 233.5t-67.5 210.5t-140.5 162.5t-224.5 60.5t-224 -60.5t-140 -162.5t-67.5 -210.5t-20.5 -233.5zM98 708.5q0 348.5 174 540.5q176 199 508 199t507 -196
t175 -544t-174 -540q-176 -199 -508 -199q-330 -1 -506 195t-176 544.5z" />
    <glyph glyph-name="P" unicode="P" horiz-adv-x="1228" 
d="M459 733q0 -55 27.5 -67.5t123.5 -12.5q147 0 245.5 85t98.5 257t-90 261.5t-250 89.5q-96 0 -125.5 -15.5t-29.5 -60.5v-537zM643 1417q533 0 533 -401q0 -174 -98.5 -272.5t-223.5 -130.5t-279 -31h-116v-392q0 -86 29.5 -104t187.5 -27v-59h-604v59q135 8 159.5 26.5
t24.5 104.5v1037q0 86 -24.5 104.5t-159.5 26.5v59h571z" />
    <glyph glyph-name="Q" unicode="Q" horiz-adv-x="1560" 
d="M328 709q0 -125 20.5 -233.5t67.5 -211t140 -163t224 -60.5t224.5 60.5t140.5 163t67.5 211t20.5 233.5t-20.5 233.5t-67.5 210.5t-140.5 162.5t-224.5 60.5t-224 -60.5t-140 -162.5t-67.5 -210.5t-20.5 -233.5zM98 708.5q0 348.5 174 540.5q176 199 508 199t508 -199
q174 -190 174 -540.5t-174 -540.5q-133 -150 -346 -184q41 -74 119 -158q139 -152 266 -152q33 0 53 2l6 -32q-63 -39 -172 -39q-160 0 -296 100t-218 268q-274 18 -428 195q-174 192 -174 540.5z" />
    <glyph glyph-name="R" unicode="R" horiz-adv-x="1318" 
d="M459 739h162q311 0 311 310q0 165 -94 231q-92 66 -210 66t-143.5 -18.5t-25.5 -84.5v-504zM72 0v59q135 8 159.5 26.5t24.5 104.5v1037q0 86 -24.5 104.5t-159.5 26.5v59h598q254 0 368 -95q114 -96 113.5 -246t-92.5 -245.5t-242 -123.5v-5q150 -38 203 -124
q52 -86 72 -230t63 -211t152 -78v-59h-166q-188 0 -230 176q-12 51 -32.5 169t-26.5 144q-45 178 -252 179h-141v-478q0 -90 4 -97t9 -10t13.5 -6t15.5 -5t22.5 -4t24.5 -3.5t30.5 -2.5t33.5 -3v-59h-540z" />
    <glyph glyph-name="S" unicode="S" horiz-adv-x="1107" 
d="M536.5 41q139.5 0 218.5 76t79 207q0 84 -56.5 154.5t-112 101t-116.5 55.5l-37 14q-182 63 -284.5 158.5t-102.5 245.5q0 193 135 294t353.5 101t330.5 -90v-289h-63q-49 307 -308 307q-125 0 -193 -72q-68 -70 -69 -172q0 -185 252 -278l66 -25q199 -74 301 -174
t102 -272t-126 -293t-380 -121q-115 0 -227.5 32t-175.5 91l-21 328h66q39 -176 134 -277.5t234.5 -101.5z" />
    <glyph glyph-name="T" unicode="T" horiz-adv-x="1271" 
d="M45 1077v340h1182v-340h-62q-18 170 -73.5 219.5t-233.5 49.5h-121v-1156q0 -86 31 -104t195 -27v-59h-654v59q164 8 195 26.5t31 104.5v1156h-121q-178 0 -233.5 -49.5t-74.5 -219.5h-61z" />
    <glyph glyph-name="U" unicode="U" horiz-adv-x="1619" 
d="M59 1417h572v-59q-133 -10 -159 -27.5t-26 -103.5v-664q0 -276 94.5 -399t270.5 -123t270 123q92 123 93 399v664q0 86 -25 104.5t-160 26.5v59h572v-59q-133 -10 -159 -27.5t-26 -103.5v-705q0 -188 -55 -303q-117 -250 -511 -250t-511 250q-55 111 -55 299v709
q0 86 -25 104.5t-160 26.5v59z" />
    <glyph glyph-name="V" unicode="V" horiz-adv-x="1298" 
d="M-37 1417h529v-59l-107 -10q-37 -2 -44 -18.5t5 -55.5q61 -186 180 -522l191 -527l4 -4l213 588q133 373 151.5 438.5t9 82t-45.5 18.5l-113 10v59h453v-59q-88 -4 -118 -20.5t-61 -86.5q-76 -166 -215 -544l-262 -707h-145l-232 655q-96 276 -213 582q-31 80 -61.5 98.5
t-118.5 22.5v59z" />
    <glyph glyph-name="W" unicode="W" horiz-adv-x="1925" 
d="M-27 1417h514v-59l-102 -10q-37 -4 -46 -18.5t3 -65.5q156 -614 279 -1018h4l313 1134h154q113 -377 346 -1134h6l151 585q96 365 109.5 436t-45.5 79l-127 12v59h469v-59q-98 -6 -129 -27.5t-52.5 -81t-150.5 -518.5l-205 -731h-155q-168 590 -342 1135h-4l-322 -1135
h-158l-174 653q-57 215 -162 572q-25 88 -52.5 108.5t-121.5 24.5v59z" />
    <glyph glyph-name="X" unicode="X" horiz-adv-x="1277" 
d="M-39 0v59q100 10 134 26.5t84 83.5t191.5 277.5t176.5 260.5l-328 522q-53 84 -90 105.5t-133 23.5v59h528v-59l-98 -10q-57 -6 -18 -70l256 -401h4q156 225 264 405q37 61 -19 68l-98 8v59h453v-59q-92 -4 -131 -24q-94 -50 -424 -537l401 -621q45 -70 83 -89t149 -28
v-59h-582v59l113 13q66 6 32 59l-311 494h-4q-172 -266 -297 -496q-31 -49 22 -55l132 -15v-59h-490z" />
    <glyph glyph-name="Y" unicode="Y" horiz-adv-x="1204" 
d="M-25 1417h531v-59l-121 -12q-47 -6 -23 -62q127 -279 316 -618h4q231 453 299 616q25 59 -25 66l-110 10v59h448v-59q-100 -4 -132 -26q-84 -56 -408 -707q-27 -53 -27 -121v-314q0 -86 29.5 -104t187.5 -27v-59h-637v59q158 8 187.5 26.5t29.5 104.5v306q0 59 -30 118
q-129 260 -336 641q-33 63 -66 81t-117 22v59z" />
    <glyph glyph-name="Z" unicode="Z" horiz-adv-x="1249" 
d="M567 1346q-209 0 -273.5 -51.5t-82.5 -229.5h-66v352h1047l12 -26q-598 -852 -915 -1319h413q246 0 334 53t115 240h66l-21 -365h-1167l-11 27q547 778 916 1319h-367z" />
    <glyph glyph-name="bracketleft" unicode="[" horiz-adv-x="675" 
d="M272 -262v1679h326v-55q-137 -6 -167 -24t-30 -89v-1343q0 -72 30 -89t167 -24v-55h-326z" />
    <glyph glyph-name="backslash" unicode="\" horiz-adv-x="942" 
d="M186 1448h138l432 -1479h-138z" />
    <glyph glyph-name="bracketright" unicode="]" horiz-adv-x="675" 
d="M274 1249q0 72 -29 89q-30 17 -167 24v55h325v-1679h-325v55q137 5 167 23t29 90v1343z" />
    <glyph glyph-name="asciicircum" unicode="^" horiz-adv-x="1167" 
d="M115 467l401 901h146l391 -901h-146l-319 760l-328 -760h-145z" />
    <glyph glyph-name="underscore" unicode="_" horiz-adv-x="1024" 
d="M0 -154h1024v-102h-1024v102z" />
    <glyph glyph-name="grave" unicode="`" horiz-adv-x="819" 
d="M100 1393q0 29 28 59t52 29q49 0 131 -84l244 -246l-31 -41l-309 172q-115 62 -115 111z" />
    <glyph glyph-name="a" unicode="a" horiz-adv-x="1071" 
d="M307 284q0 -83 48 -141.5t133.5 -58.5t149.5 49t64 160v289q-39 -25 -235 -99q-86 -33 -123 -74.5t-37 -124.5zM100 266q0 186 191 244q31 10 97 30q269 79 314 126v86q0 111 -51 157.5t-123 46.5q-152 0 -211 -200q-16 -57 -59 -57.5t-82 25.5t-39 71q0 88 123 160.5
t291 72.5q221 0 285 -93q52 -74 51 -179v-496q0 -160 71 -176q43 -12 105 2l12 -49q-123 -61 -241 -62q-51 0 -80 31t-54 92q-186 -123 -314 -123t-207 84t-79 207z" />
    <glyph glyph-name="b" unicode="b" horiz-adv-x="1224" 
d="M377 334q0 -86 14 -129q57 -158 225 -158q295 0 295 465q0 125 -28.5 212t-73.5 126q-78 68 -162 68q-178 0 -250 -144q-20 -41 -20 -117v-323zM753.5 1028q79.5 0 157.5 -42t117 -98.5t67.5 -149.5t28.5 -229.5t-41 -245.5t-113 -171q-139 -118 -356 -117
q-172 0 -311 80l-82 -80l-37 17v1323q0 57 -12 73.5t-53 20.5l-78 8v51l321 52l15 -13v-624q85 56 132.5 82t106 44.5t138 18.5z" />
    <glyph glyph-name="c" unicode="c" horiz-adv-x="1015" 
d="M610 1028q146 0 245 -61.5t99 -137.5q0 -51 -40 -77.5t-81.5 -26.5t-62.5 53q-66 178 -188 178t-195.5 -105.5t-73.5 -296.5q1 -331 153 -431q62 -41 159.5 -41t166 53t117.5 164l60 -29q-27 -102 -97 -172q-124 -124 -297 -123q-231 0 -353 131.5t-122 365t109 388.5
q119 168 401 168z" />
    <glyph glyph-name="d" unicode="d" horiz-adv-x="1224" 
d="M313 517.5q0 -195.5 74 -313.5t209 -118q180 0 238 147q14 41 14 115v361q0 80 -19 118q-57 129 -210 129t-229.5 -121.5t-76.5 -317zM100 495.5q0 243.5 139.5 388t381.5 144.5q135 0 227 -49v336q0 57 -12.5 73.5t-53.5 20.5l-77 8v51l321 52l14 -13v-1329
q0 -78 21.5 -94t132.5 -25v-59h-332l-16 14v101q-170 -139 -318 -140q-201 0 -314.5 138.5t-113.5 382z" />
    <glyph glyph-name="e" unicode="e" horiz-adv-x="1052" 
d="M315 616h387q41 0 55.5 16.5t14.5 47.5q0 32 -3 62q-8 84 -58 149t-138 65t-141 -40q-54 -40 -76 -100q-42 -112 -41 -200zM100 494q0 242 120 388t351 146q107 0 187 -32q80 -30 122 -76q105 -114 105 -304q0 -78 -82 -77h-590q-8 -459 301 -459q111 0 179.5 57.5
t117.5 159.5l62 -33q-98 -289 -400 -289q-473 1 -473 519z" />
    <glyph glyph-name="f" unicode="f" horiz-adv-x="653" 
d="M61 922v82h158v71q0 213 68 316q85 129 275 129q100 0 167.5 -46.5t67.5 -96.5t-33 -76.5t-69 -26.5t-54 35q-35 82 -68.5 110.5t-70.5 28.5q-104 0 -99 -215l9 -229h250v-82h-250v-746q0 -78 27.5 -94t166.5 -23v-59h-540v59q111 8 132 24.5t21 94.5v744h-158z" />
    <glyph glyph-name="g" unicode="g" horiz-adv-x="1064" 
d="M317 692q0 -133 60.5 -201.5t151.5 -68.5t149.5 68.5t58.5 199.5t-60.5 198.5t-148.5 67.5t-149.5 -65.5t-61.5 -198.5zM281 -188.5q0 -106.5 80.5 -171t206.5 -64.5t213 63.5t87 178.5q0 197 -313 196q-150 0 -212 -48t-62 -154.5zM86 -197q0 107 87 159q68 41 149 67v4
q-72 8 -126.5 56t-54.5 104q0 109 189 182v4q-86 23 -153.5 98.5t-67.5 207.5t104 237.5t319 105.5q170 0 265 -63l262 84l16 -19l-41 -129l-162 -24q62 -61 62 -185q0 -126 -64 -204q-114 -138 -350 -138q-45 0 -104 6q-35 -10 -70 -35.5t-35 -64.5q0 -88 170 -88h164
q178 0 286.5 -71.5t108.5 -227.5q0 -182 -161 -281q-139 -84 -340 -84t-327 76t-126 223z" />
    <glyph glyph-name="h" unicode="h" horiz-adv-x="1243" 
d="M43 0v59q106 8 129 25.5t23 93.5v1137q0 53 -12.5 69.5t-53.5 22.5l-78 10v51l320 52l14 -13v-635q159 104 227 130t144 26q143 0 223 -85t80 -241v-524q0 -76 23.5 -93t129.5 -26v-59h-499v59q106 8 129.5 25.5t23.5 93.5v484q0 256 -215 256q-78 0 -145.5 -43.5
t-92.5 -92.5t-26 -125v-479q0 -76 23.5 -93t130.5 -26v-59h-498z" />
    <glyph glyph-name="i" unicode="i" horiz-adv-x="595" 
d="M66 0v59q111 8 132 24.5t21 94.5v645q0 53 -12 69.5t-53 22.5l-78 11v51l321 51l15 -12v-838q0 -78 21.5 -94t131.5 -25v-59h-499zM188 1339.5q0 55.5 35 90t90.5 34.5t90 -34.5t34.5 -90t-34.5 -90.5t-90 -35t-90.5 35t-35 90.5z" />
    <glyph glyph-name="j" unicode="j" horiz-adv-x="573" 
d="M217 74v749q0 51 -12 68.5t-53 23.5l-78 11v51l321 51l15 -12v-1002q0 -209 -69 -329.5t-253 -161.5q-86 -18 -151 -19l-5 50q180 45 232.5 147t52.5 373zM188 1339.5q0 55.5 35 90t90.5 34.5t90 -34.5t34.5 -90t-34.5 -90.5t-90 -35t-90.5 35t-35 90.5z" />
    <glyph glyph-name="k" unicode="k" horiz-adv-x="1073" 
d="M41 0v59q111 8 132.5 24.5t21.5 94.5v1137q0 57 -12.5 73.5t-53.5 20.5l-78 8v51l322 52l14 -13v-958h4q82 121 309 395q31 37 54.5 48.5t74.5 11.5h211v-58q-140 -14 -244 -91t-229 -220q-23 -25 -6 -47q164 -231 365 -430q86 -86 176 -111v-57l-154 6q-125 8 -221 104
q-199 203 -336 420h-4v-342q0 -78 21.5 -94t132.5 -25v-59h-500z" />
    <glyph glyph-name="l" unicode="l" horiz-adv-x="571" 
d="M41 0v59q111 8 132.5 24.5t21.5 94.5v1137q0 57 -12.5 73.5t-53.5 20.5l-78 8v51l322 52l14 -13v-1329q0 -78 21.5 -94t132.5 -25v-59h-500z" />
    <glyph glyph-name="m" unicode="m" horiz-adv-x="1890" 
d="M66 0v59q111 8 132 24.5t21 94.5v645q0 53 -12 69.5t-53 22.5l-78 11v51l317 51l19 -156q61 45 94 68t112.5 55.5t151.5 32.5q190 0 270 -158q8 4 60.5 41t86.5 57q105 60 232 60t207 -85t80 -241v-524q0 -78 21.5 -94t132.5 -25v-59h-500v59q111 8 132 24.5t21 94.5v484
q0 256 -206 256q-84 0 -146.5 -42t-82 -93.5t-19.5 -125.5v-479q0 -78 21.5 -94t131.5 -25v-59h-499v59q111 8 132 24.5t21 94.5v484q0 119 -39 187.5t-157 68.5q-80 0 -145.5 -43.5t-96.5 -108.5q-16 -33 -16 -109v-479q0 -78 21.5 -94t131.5 -25v-59h-499z" />
    <glyph glyph-name="n" unicode="n" horiz-adv-x="1267" 
d="M66 0v59q111 8 132 24.5t21 94.5v645q0 53 -12 69.5t-53 22.5l-78 11v51l305 51l29 -156q50 38 118 76.5t86 44.5q18 7 57.5 21t110.5 14q141 0 221 -86t80 -240v-524q0 -78 21.5 -94t132.5 -25v-59h-500v59q111 8 132.5 24.5t21.5 94.5v484q0 256 -215 256
q-78 0 -143.5 -42t-100.5 -106q-20 -41 -20 -113v-479q0 -78 21.5 -94t131.5 -25v-59h-499z" />
    <glyph glyph-name="o" unicode="o" horiz-adv-x="1181" 
d="M313 502q0 -217 70 -336t209 -119t208.5 119t69.5 336t-69.5 335.5t-208.5 118.5t-209 -118.5t-70 -335.5zM100 502q0 252 124 389t368 137t367.5 -137t123.5 -389t-123.5 -389.5t-367.5 -137.5t-368 137.5t-124 389.5z" />
    <glyph glyph-name="p" unicode="p" horiz-adv-x="1245" 
d="M397 322q0 -82 20 -138.5t78 -96.5t138 -40q299 0 299 465q0 123 -29 210t-74 126q-81 70 -161 70q-172 0 -244 -144q-27 -53 -27 -117v-335zM205 -293v1116q0 53 -12.5 69.5t-53.5 22.5l-78 11v51l310 51l26 -151q10 5 50 33q67 46 138.5 82t168.5 36t175.5 -40
t118.5 -94q98 -133 97 -370q0 -295 -141.5 -422t-372.5 -127q-152 0 -234 48v-316q0 -78 27 -94t158 -25v-59h-531v59q109 8 131.5 24.5t22.5 94.5z" />
    <glyph glyph-name="q" unicode="q" horiz-adv-x="1210" 
d="M313 513.5q0 -193.5 73 -310.5t218 -117q174 0 230 152q14 39 14 112v346q0 76 -17 119q-53 141 -212 141t-232.5 -124.5t-73.5 -318zM100 488q0 251 140.5 395.5t386.5 144.5q156 0 270 -63l88 63h55v-1321q0 -78 22.5 -94t131.5 -25v-59h-510v59q117 8 140.5 24.5
t23.5 94.5v402q-182 -133 -322 -134q-193 0 -309.5 131t-116.5 382z" />
    <glyph glyph-name="r" unicode="r" horiz-adv-x="796" 
d="M66 0v59q109 8 131 24.5t22 94.5v645q0 53 -12 69.5t-53 22.5l-78 11v51l311 51l25 -164q109 94 163 129t108 35t81 -30.5t27 -73.5t-29 -77t-59 -34t-48 10q-82 45 -126 45t-80.5 -52t-36.5 -159v-479q0 -78 28.5 -94t165.5 -25v-59h-540z" />
    <glyph glyph-name="s" unicode="s" horiz-adv-x="892" 
d="M455 47q82 0 136 46q54 45 54 109q0 114 -69.5 159.5t-183 80.5t-195.5 102.5t-82 197.5t101 208t270 78t266 -70v-239h-60q-12 102 -69.5 169.5t-148.5 67.5t-143 -44t-52 -109t41.5 -106.5t78.5 -55.5t99 -35q168 -51 244.5 -124.5t76.5 -204.5t-102.5 -216.5
t-296 -85.5t-303.5 99l-21 268h60q70 -295 299 -295z" />
    <glyph glyph-name="t" unicode="t" horiz-adv-x="704" 
d="M63 922v82h156l125 258h59v-258h265v-82h-265v-635q0 -205 136 -205q82 0 145 27l16 -43q-145 -90 -262 -91q-69 1 -139 39q-88 49 -88 195v713h-148z" />
    <glyph glyph-name="u" unicode="u" horiz-adv-x="1241" 
d="M389 319q0 -115 56.5 -174t143.5 -59t155.5 42t103.5 112q16 33 16 122v461q0 53 -12 69.5t-53 22.5l-78 11v51l321 51l15 -12v-838q0 -78 22.5 -94t130.5 -25v-59h-327l-21 123q-2 -2 -76 -47q-165 -101 -296.5 -101t-212 72t-80.5 236v540q0 53 -12.5 69.5t-53.5 22.5
l-78 11v51l322 51l14 -12v-697z" />
    <glyph glyph-name="v" unicode="v" horiz-adv-x="1032" 
d="M2 1004h459v-60l-92 -10q-53 -6 -33 -62q70 -195 121 -344l125 -344h4l137 379q78 215 102 316q14 49 -30 55l-101 10v60h389v-60q-72 -4 -98.5 -19.5t-48.5 -68.5q-90 -205 -148 -360l-182 -496h-147l-158 442q-109 299 -143 382t-58 98.5t-98 21.5v60z" />
    <glyph glyph-name="w" unicode="w" horiz-adv-x="1572" 
d="M-4 1004h432v-60l-72 -6q-55 -6 -37 -64t89 -306.5t114 -385.5h4l238 797h156q154 -487 256 -797h4q170 623 184 685t-29 67l-116 10v60h403v-60q-80 -4 -107.5 -23.5t-52.5 -95.5q-205 -639 -258 -825h-155q-123 389 -252 780h-6l-242 -780h-156q-72 256 -262 856
q-18 55 -42.5 69.5t-92.5 18.5v60z" />
    <glyph glyph-name="x" unicode="x" horiz-adv-x="995" 
d="M2 0v59q74 4 113 20.5t98 96.5t217 309q-195 291 -246 361t-76.5 82t-91.5 16v60h428v-60l-61 -6q-23 -2 -27 -17.5t9 -33.5l172 -256h2q106 164 163 258q27 41 -14 47l-80 8v60h381v-60q-76 -4 -107.5 -17.5t-70.5 -60.5q-139 -168 -227 -301q123 -197 280 -422
q37 -53 70 -66.5t108 -17.5v-59h-481v59l86 11q47 6 15 57l-183 285h-4q-139 -213 -180 -293q-25 -43 14 -49l86 -11v-59h-393z" />
    <glyph glyph-name="y" unicode="y" horiz-adv-x="1036" 
d="M-10 1004h469v-60l-88 -8q-58 -4 -31 -64q113 -322 252 -686h4q182 496 227 678q16 63 -28 70l-107 10v60h393v-60q-74 -4 -98.5 -22.5t-52.5 -81.5q-131 -295 -379 -1008q-72 -212 -156 -278q-63 -50 -129.5 -50t-107.5 34t-41 75t29.5 77t59.5 36t67.5 -36t70.5 -36
q51 0 95 95t44 156.5t-16 108.5q-109 313 -322 824q-27 68 -54 85t-101 21v60z" />
    <glyph glyph-name="z" unicode="z" horiz-adv-x="983" 
d="M479 932q-164 0 -217 -44t-74 -188h-63v304h786l17 -29q-391 -543 -639 -903h264q172 0 238.5 49t91.5 192h63l-20 -313h-871l-16 31q367 504 645 901h-205z" />
    <glyph glyph-name="braceleft" unicode="{" horiz-adv-x="696" 
d="M162 547v61q201 -4 176 234l-21 192q-24 125 18 255q17 56 75 92t147 36h53v-55q-116 -6 -146 -71t-18 -187l17 -158q2 -12 5 -48l4 -48q6 -72 2 -87q-3 -15 -8 -41t-15 -38t-27 -34q-31 -39 -148 -66v-13q117 -27 150 -69q14 -18 24 -30t16 -39q5 -26 8 -39
q4 -17 -2 -89l-4 -48q-3 -36 -5 -48l-17 -158q-12 -123 18 -187t146 -71v-55h-53q-90 0 -147 36t-75 92q-41 135 -18 255l21 192q14 119 -22 177t-154 57z" />
    <glyph glyph-name="bar" unicode="|" horiz-adv-x="466" 
d="M164 -512v2048h139v-2048h-139z" />
    <glyph glyph-name="braceright" unicode="}" horiz-adv-x="696" 
d="M86 1417h53q89 0 147 -36t75 -92q41 -135 18 -255l-21 -192q-12 -117 26 -175t151 -59v-61q-113 -1 -151 -59t-26 -175l21 -192q24 -125 -18 -255q-17 -56 -74 -92t-148 -36h-53v55q116 6 146 71t18 187l-17 158q-2 12 -5 48l-4 48q-6 72 -2 87q3 15 8 41t16 38
q10 12 27 34q30 39 147 66v13q-117 27 -150 69q-14 19 -24 31t-16 38q-5 26 -8 39q-4 17 2 89l4 48q3 36 5 48l17 158q12 124 -18 188t-146 70v55z" />
    <glyph glyph-name="asciitilde" unicode="~" horiz-adv-x="1167" 
d="M772 391q-57 0 -194 47q-124 47 -182 47q-58 1 -93 -29t-70 -98l-83 52q47 100 106 158q58 58 144 58t206 -46q133 -48 178 -48t75 24t77 93l82 -51q-94 -207 -246 -207z" />
    <glyph glyph-name="uni00A0" unicode="&#xa0;" horiz-adv-x="460" 
 />
    <glyph glyph-name="exclamdown" unicode="&#xa1;" horiz-adv-x="495" 
d="M133 -307l86 882h60l81 -882q6 -76 -14 -107q-20 -30 -99 -30t-100 30q-20 31 -14 107zM247 1028q58 0 94 -37t36 -93t-36 -94t-94 -38t-93 38t-35 95q2 57 36 93t92 36z" />
    <glyph glyph-name="cent" unicode="&#xa2;" horiz-adv-x="1085" 
d="M276 729q0 -387 259 -442v868q-33 -2 -57 -8t-66 -31q-42 -24 -68 -66q-28 -42 -48 -125t-20 -196zM535 178q-223 0 -341 136t-118 393q0 258 127 383t332 137v155h81v-155q193 -2 280 -69t87 -134q0 -43 -33 -70q-32 -26 -72 -26t-63 49q-74 168 -199 178v-874
q109 -2 187 40t141 152l53 -33q-51 -128 -153 -194t-228 -68v-198h-81v198z" />
    <glyph glyph-name="sterling" unicode="&#xa3;" horiz-adv-x="1085" 
d="M422 378q0 103 -70 218h-243v78h208q-121 217 -120 346q0 168 112 270q113 102 275 102t254 -67q92 -68 92 -154q0 -39 -30 -63t-68 -23q-38 0 -52 37q-61 199 -220 199q-81 0 -134 -60q-53 -59 -53 -141q-1 -82 29 -166t55 -128t88 -152h311v-78h-278q14 -53 20 -119
q0 -98 -53 -173t-172 -140v-8h461q36 0 54 11q19 11 27 15q18 9 39 41l18 27q13 20 17 24l55 -18l-102 -256h-879l-8 10l37 82q145 49 238 116q92 67 92 170z" />
    <glyph glyph-name="currency" unicode="&#xa4;" horiz-adv-x="1085" 
d="M236 684q0 -152 87 -252t220 -100t220 100t87 252t-87 252t-220 100t-220 -100t-87 -252zM88 684q0 162 94 283l-80 61q-92 72 -20 131t131 -29l55 -79q100 94 274 94t275 -94l55 79q59 88 131 29t-20 -131l-80 -61q94 -121 94 -283t-94 -283l80 -61q92 -72 20 -131
t-131 29l-55 79q-100 -94 -274 -94t-275 94l-55 -79q-59 -88 -131 -29t20 131l80 61q-94 121 -94 283z" />
    <glyph glyph-name="yen" unicode="&#xa5;" horiz-adv-x="1085" 
d="M-4 1368h448v-59l-96 -9q-47 -6 -24 -51l251 -536q29 66 114 253q85 186 112 256t-17 74l-112 13v59h403v-59l-57 -9q-41 -6 -63 -24q-69 -57 -293 -563h307v-78h-336q-12 -29 -12 -113v-61h348v-78h-348v-205q-1 -76 27 -93t167 -26v-59h-575v59q139 7 167 25t27 94v205
h-348v78h348v59q0 76 -20 115h-328v78h299l-248 512q-35 72 -88 78l-53 6v59z" />
    <glyph glyph-name="brokenbar" unicode="&#xa6;" horiz-adv-x="466" 
d="M164 666v716h139v-716h-139zM164 -358v716h139v-716h-139z" />
    <glyph glyph-name="section" unicode="&#xa7;" horiz-adv-x="1134" 
d="M201 854q0 -198 300 -354t365 -297q68 51 68 172t-80 223t-209 172q-12 8 -65 38t-107 63t-71 50t-47 45t-58 93q-96 -70 -96 -205zM94 778q0 201 178 373q8 115 92 206t257 91q111 0 193 -44t83 -108q0 -38 -28 -60q-27 -22 -61 -22t-54 33q-74 129 -183 129
q-73 0 -117 -47t-44 -97t9 -78t73 -86t218 -139q156 -81 242 -185t86 -261q0 -195 -143 -379q4 -139 -95 -239t-268 -101q-127 0 -220 52t-95 116q0 41 28 68q29 27 65 27t59 -39q86 -147 221 -148q66 0 114 49t48 129t-62 154t-255 171t-267 201t-74 234z" />
    <glyph glyph-name="dieresis" unicode="&#xa8;" horiz-adv-x="819" 
d="M74 1284q0 47 32 81t90 34t91 -34t33 -81t-34 -82q-32 -35 -89 -35t-91 35q-32 35 -32 82zM500 1284q0 47 32 81t90 34t91 -34t33 -81t-34 -82q-32 -35 -89 -35t-91 35q-32 35 -32 82z" />
    <glyph glyph-name="copyright" unicode="&#xa9;" horiz-adv-x="1675" 
d="M449 715q0 188 111 300q112 111 304 111t289 -63v-201h-41q-18 98 -68 152t-176 55q-124 0 -189 -96t-65 -240t62 -257q62 -114 211 -114q98 0 155 50t86 161h41l-22 -204q-86 -63 -291 -63t-306 110q-101 111 -101 299zM223 709q0 -271 178 -459q179 -188 437 -188
t436 186q178 188 178 460t-178 460t-436 188t-436 -188t-179 -459zM92 709q0 307 218 523t528 216t527 -216q218 -216 218 -523t-218 -523t-527 -217q-309 0 -528 216q-218 217 -218 524z" />
    <glyph glyph-name="ordfeminine" unicode="&#xaa;" horiz-adv-x="798" 
d="M244 741q0 -55 30 -90t91 -37q45 4 81 36t35 100v159q-53 -14 -129 -43q-108 -39 -108 -125zM580 545q-73 0 -99 78q-5 -1 -27 -17q-91 -62 -179 -63q-88 0 -141 53q-52 52 -52 118t34 102t94 58t271 91v77q0 55 -29 82q-30 27 -69 27q-90 0 -127 -104q-18 -53 -57 -54
q-29 -1 -60 19t-30 47q0 57 85 103t180 46q171 0 215 -56q32 -41 34 -108v-315q0 -98 51 -111q23 -4 65 0l6 -36q-92 -37 -165 -37z" />
    <glyph glyph-name="guillemotleft" unicode="&#xab;" horiz-adv-x="905" 
d="M84 489q0 20 10 31l307 371l41 -35l-161 -334q-20 -34 0 -69l161 -336l-41 -33l-307 373q-10 12 -10 32zM463 489q0 20 10 31l307 371l41 -35l-162 -334q-8 -14 -8 -34t8 -35l162 -336l-41 -33l-307 373q-10 12 -10 32z" />
    <glyph glyph-name="logicalnot" unicode="&#xac;" horiz-adv-x="1167" 
d="M88 678v119h991v-588h-139v469h-852z" />
    <glyph glyph-name="uni00AD" unicode="&#xad;" horiz-adv-x="802" 
d="M152 442v144h501v-144h-501z" />
    <glyph glyph-name="registered" unicode="&#xae;" horiz-adv-x="1675" 
d="M737 741h78q176 0 176 154t-162 154q-59 1 -75 -9t-17 -34v-265zM500 326v41l63 8q41 4 41 57v563q0 31 -8 44t-33 18l-63 8v41h368q266 0 267 -193q-1 -82 -55 -131t-144 -63v-4q84 -21 115 -67t45 -128t55 -129q20 -20 72 -35v-30h-90q-119 0 -150 88q-13 42 -29 116
t-24 93q-29 61 -123 61h-70v-252q0 -53 45 -57l62 -8v-41h-344zM223 709q0 -271 178 -459q179 -188 437 -188t436 186q178 188 178 460t-178 460t-436 188t-436 -188t-179 -459zM92 709q0 307 218 523t528 216t527 -216q218 -216 218 -523t-218 -523t-527 -217
q-309 0 -528 216q-218 217 -218 524z" />
    <glyph glyph-name="macron" unicode="&#xaf;" horiz-adv-x="819" 
d="M115 1223v120h590v-120h-590z" />
    <glyph glyph-name="degree" unicode="&#xb0;" horiz-adv-x="716" 
d="M190 1110q0 -78 50 -131t118 -53t118 53t50 131t-50 131t-118 53t-118 -53t-50 -131zM76 1110q0 115 84 199t198 84t199 -84q84 -84 84 -199t-84 -199t-199 -84q-114 0 -198 84t-84 199z" />
    <glyph glyph-name="plusminus" unicode="&#xb1;" horiz-adv-x="1167" 
d="M88 0v119h991v-119h-991zM88 637v119h428v383h139v-383h424v-119h-424v-404h-139v404h-428z" />
    <glyph glyph-name="twosuperior" unicode="&#xb2;" horiz-adv-x="778" 
d="M502 1192q0 63 -29 103t-84 40q-106 0 -141 -164q-10 -49 -53 -49q-35 0 -64 22t-29 52q0 76 79 136t213 60t209 -56t75 -158t-62 -166q-62 -66 -209 -146q-146 -80 -188 -188h332q47 0 71 15t44 57l47 -11l-56 -182h-573l-18 21q25 164 272 333q164 113 164 281z" />
    <glyph glyph-name="threesuperior" unicode="&#xb3;" horiz-adv-x="778" 
d="M74 698q0 35 29 63q30 27 64 27t46 -40q47 -147 162 -148q143 0 143 186q0 112 -52 142t-89 30t-75 -7t-42 -7q-35 0 -35 48t35 48q4 0 42 -7t85 -7t75 46q44 72 20 173q-7 31 -36 61t-73 29q-94 0 -133 -153q-10 -37 -44 -37q-34 -1 -61 21t-26 55q1 67 77 119t192 52
t198 -47q82 -49 81 -145q0 -96 -55 -140t-125 -59v-4q72 -4 145 -56q72 -52 72 -164t-88 -173t-230 -61t-222 46t-80 109z" />
    <glyph glyph-name="acute" unicode="&#xb4;" horiz-adv-x="819" 
d="M639 1481q25 0 53 -30t27 -58q0 -49 -115 -111l-309 -172l-31 41l244 246q82 84 131 84z" />
    <glyph glyph-name="uni00B5" unicode="&#xb5;" horiz-adv-x="1241" 
d="M389 319q0 -115 56 -174q55 -59 143 -59t156 42t104 112q16 33 16 122v461q0 53 -12 69t-53 23l-78 11v51l321 51l15 -12v-838q-1 -76 23 -93t130 -26v-59h-327l-21 123q-10 -4 -74 -47q-149 -101 -276 -101t-203 68h-4v-68q-1 -105 55 -213t58 -149t-49 -79t-99 -38
q-74 0 -73 96v1231q-1 53 -13 69t-53 23l-78 11v51l322 51l14 -12v-697z" />
    <glyph glyph-name="paragraph" unicode="&#xb6;" horiz-adv-x="1136" 
d="M743 -53v1470h340v-53l-139 -18q-31 -4 -43 -18t-12 -58v-1477h-352v53l151 19q31 4 43 21t12 61zM131 960q0 196 120 327q120 130 320 130h25v-905h-33q-188 0 -310 126t-122 322z" />
    <glyph glyph-name="periodcentered" unicode="&#xb7;" horiz-adv-x="542" 
d="M143 515q0 56 36 94t94 38q57 0 93 -38t34 -95t-34 -93q-34 -36 -92 -36t-95 37q-36 37 -36 93z" />
    <glyph glyph-name="cedilla" unicode="&#xb8;" horiz-adv-x="819" 
d="M334 -412q180 0 180 115q0 104 -127 111l-8 14l94 172h84l-65 -113q182 -25 182 -178q0 -55 -29 -94t-95 -63t-120 -23q-53 0 -96 6v53z" />
    <glyph glyph-name="onesuperior" unicode="&#xb9;" horiz-adv-x="778" 
d="M166 557v45l113 10q43 4 43 54v579q0 43 -31 49l-125 17v39l293 43l14 -9v-718q0 -49 45 -54l111 -10v-45h-463z" />
    <glyph glyph-name="ordmasculine" unicode="&#xba;" horiz-adv-x="815" 
d="M408 600q160 0 165 274q-6 276 -167 277q-158 -1 -164 -277q6 -274 166 -274zM72 874q0 160 84 247t251 87t251 -86t85 -247q0 -161 -85 -247q-86 -86 -252 -85q-166 -1 -250 85t-84 246z" />
    <glyph glyph-name="guillemotright" unicode="&#xbb;" horiz-adv-x="905" 
d="M254 488q0 19 -8 34l-162 334l41 35l307 -371q10 -14 10 -30t-10 -33l-307 -373l-41 33l162 336q8 16 8 35zM633 488q0 19 -8 34l-162 334l41 35l307 -371q10 -14 10 -30t-10 -33l-307 -373l-41 33l162 336q8 16 8 35z" />
    <glyph glyph-name="onequarter" unicode="&#xbc;" horiz-adv-x="1761" 
d="M408 0l876 1423l78 -49l-881 -1429zM133 557v45l113 10q43 4 43 54v579q0 43 -31 49l-125 17v39l293 43l14 -9v-718q0 -49 45 -54l111 -10v-45h-463zM1346 276v406h-5q-155 -234 -251 -406h256zM1497 821v-545h131v-67h-131v-100q0 -49 45 -54l70 -10v-45h-402v45l93 10
q43 4 43 54v100h-345l-22 35q221 367 393 577h125z" />
    <glyph glyph-name="onehalf" unicode="&#xbd;" horiz-adv-x="1761" 
d="M352 0l877 1423l78 -49l-881 -1429zM119 557v45l112 10q43 4 43 54v579q0 43 -30 49l-125 17v39l293 43l14 -9v-718q0 -49 45 -54l111 -10v-45h-463zM1442 635q0 63 -29 103t-84 40q-106 0 -141 -164q-8 -49 -53 -49q-35 0 -64 22t-29 52q0 76 79 136q79 61 213 61
t209 -56t75 -158t-62 -168t-209 -145q-146 -80 -188 -188h332q47 0 71 15t44 57l47 -11l-56 -182h-573l-18 20q25 164 272 334q164 113 164 281z" />
    <glyph glyph-name="threequarters" unicode="&#xbe;" horiz-adv-x="1761" 
d="M465 0l876 1423l78 -49l-880 -1429zM102 698q0 35 30 63q30 27 64 27t46 -40q47 -147 161 -148q143 0 144 186q0 111 -53 141q-53 31 -89 31t-74 -7t-42 -7q-35 0 -35 48t35 48q4 0 42 -7t85 -7q46 0 74 46t28 94t-7 80q-7 30 -36 60t-74 29q-94 0 -133 -153
q-10 -37 -44 -37q-34 -1 -60 21t-27 55q0 67 77 119t193 52q115 0 197 -47q82 -49 82 -145t-55 -140t-125 -59v-4q72 -4 144 -56t73 -164q0 -112 -88 -173q-87 -61 -229 -61t-223 46t-81 109zM1372 276v406h-4q-156 -234 -252 -406h256zM1524 821v-545h131v-67h-131v-100
q0 -49 45 -54l69 -10v-45h-401v45l92 10q43 4 43 54v100h-344l-22 35q221 367 393 577h125z" />
    <glyph glyph-name="questiondown" unicode="&#xbf;" horiz-adv-x="796" 
d="M281 901q0 55 34 91q35 36 93 36t91 -35q34 -35 35 -91t-34 -93t-91 -37t-93 37q-35 37 -35 92zM414 356q0 74 -47 112t-87 38t-67 -8l-16 41q70 57 177 57t173 -53q65 -53 65 -133t-36 -130q-36 -48 -120 -114q-86 -66 -139 -154t-53 -178q0 -207 129 -207t170 219
q8 49 66 50q35 0 71 -26t37 -66q0 -40 -18 -76t-55 -77q-37 -40 -111 -67t-168 -28q-145 0 -233 70t-91 208q0 56 21 103t39 67t26 30q12 16 86 70l25 17q156 109 156 235z" />
    <glyph glyph-name="Agrave" unicode="&#xc0;" horiz-adv-x="1300" 
d="M385 625h408l-203 585h-6q-183 -536 -199 -585zM-59 0v59q94 4 125.5 30t73.5 134.5t212 587.5l215 606h152l434 -1235q27 -78 56.5 -96t121.5 -27v-59h-524v59l92 9q49 4 60.5 23.5t-5.5 64.5l-137 391h-459q-102 -319 -120.5 -377.5t-8 -77t55.5 -22.5l106 -11v-59
h-450zM369.5 1672q-25.5 15 -27.5 45t20.5 66t45.5 40q41 8 133 -56l297 -202l-23 -45l-348 114q-72 23 -97.5 38z" />
    <glyph glyph-name="Aacute" unicode="&#xc1;" horiz-adv-x="1300" 
d="M385 625h408l-203 585h-6q-183 -536 -199 -585zM-59 0v59q93 4 125 30q32 27 74 135t212 587l215 606h152l434 -1235q27 -78 56.5 -96t121.5 -27v-59h-524v59l92 9q49 4 60.5 23.5t-5.5 64.5l-137 391h-459q-102 -319 -120 -377t-8 -77t55 -23l106 -11v-59h-450z
M440 1565l297 202q92 63 124 57t54.5 -41.5t20.5 -65.5t-27.5 -45t-97.5 -38l-348 -114z" />
    <glyph glyph-name="Acircumflex" unicode="&#xc2;" horiz-adv-x="1300" 
d="M385 625h408l-203 585h-6q-183 -536 -199 -585zM-59 0v59q94 4 125.5 30t73.5 134.5t212 587.5l215 606h152l434 -1235q27 -78 56.5 -96t121.5 -27v-59h-524v59l92 9q49 4 60.5 23.5t-5.5 64.5l-137 391h-459q-102 -319 -120.5 -377.5t-8 -77t55.5 -22.5l106 -11v-59
h-450zM651 1794q23 0 76 -49l238 -234l-27 -43l-219 125q-53 29 -67.5 29t-67.5 -29l-219 -125l-27 43l237 234q53 49 76 49z" />
    <glyph glyph-name="Atilde" unicode="&#xc3;" horiz-adv-x="1300" 
d="M385 625h408l-203 585h-6q-183 -536 -199 -585zM-59 0v59q94 4 125.5 30t73.5 134.5t212 587.5l215 606h152l434 -1235q27 -78 56.5 -96t121.5 -27v-59h-524v59l92 9q49 4 60.5 23.5t-5.5 64.5l-137 391h-459q-102 -319 -120.5 -377.5t-8 -77t55.5 -22.5l106 -11v-59
h-450zM521 1708q52 0 157 -39q121 -39 159 -39t64.5 18.5t71.5 75.5l41 -22q-51 -100 -97.5 -147.5t-100.5 -47.5t-173 39t-169 39t-82 -23.5t-66 -80.5l-39 26q77 151 145 183q37 18 89 18z" />
    <glyph glyph-name="Adieresis" unicode="&#xc4;" horiz-adv-x="1300" 
d="M385 625h408l-203 585h-6q-183 -536 -199 -585zM-59 0v59q93 4 125 30q32 27 74 135t212 587l215 606h152l434 -1235q27 -78 56.5 -96t121.5 -27v-59h-524v59l92 9q49 4 60.5 23.5t-5.5 64.5l-137 391h-459q-102 -319 -120 -377t-8 -77t55 -23l106 -11v-59h-450z
M745 1612q0 45 32 77.5t87.5 32.5t87 -32.5t31.5 -77.5t-31.5 -79t-85.5 -34t-87.5 34t-33.5 79zM319 1612q0 45 32 77.5t87.5 32.5t87 -32.5t31.5 -77.5t-31.5 -79t-85.5 -34t-87.5 34t-33.5 79z" />
    <glyph glyph-name="Aring" unicode="&#xc5;" horiz-adv-x="1284" 
d="M537 1556q0 -139 102 -139t102 139t-102 140q-102 -1 -102 -140zM379 625h407l-202 585h-6q-183 -536 -199 -585zM-66 0v59q94 4 126 30q32 27 74 135t212 587l199 555q-127 39 -127 190q0 106 63 156t157 51q94 0 158 -50t64 -157q0 -152 -131 -192l418 -1182
q27 -78 57 -96t121 -27v-59h-524v59l92 9q49 4 60 23t-5 65l-137 391h-459q-102 -319 -120 -377t-9 -78q10 -18 56 -22l106 -11v-59h-451z" />
    <glyph glyph-name="AE" unicode="&#xc6;" horiz-adv-x="1794" 
d="M813 776v559h-12q-202 -366 -301 -559h313zM-129 0v59q86 8 119 24.5t67 74.5q98 168 199.5 360.5t159.5 296.5l252 461q37 68 -25 70l-154 12v59h1170v-336h-62q-23 162 -80 213.5t-229 51.5h-201q-49 0 -62 -13.5t-13 -60.5v-496h286q66 0 103 8.5t56.5 34t26.5 51
t15 82.5h62v-432h-62q-8 59 -15 84t-26.5 51.5t-56.5 34.5t-103 8h-286v-442q0 -131 55 -157.5t232.5 -26.5t259 51t114.5 231h62l-25 -354h-1081v59q133 10 158.5 28.5t25.5 107.5v503h-352q-248 -475 -283 -567q-20 -51 31 -57l135 -15v-59h-473z" />
    <glyph glyph-name="Ccedilla" unicode="&#xc7;" horiz-adv-x="1392" 
d="M98 683q0 345 187.5 555t576.5 210q262 0 434 -80v-319h-61q-53 328 -393 327q-137 0 -239.5 -56t-160.5 -154q-114 -189 -114 -461q0 -185 59 -341q35 -92 89 -161.5t147.5 -115.5t214.5 -46q188 0 285.5 95t144.5 274h61l-29 -342q-76 -41 -203.5 -70t-250.5 -29
l-47 -82q182 -25 182 -178q0 -55 -28.5 -94t-92.5 -62.5t-120 -23.5t-99 6v53q180 0 180 115q0 104 -127 111l-8 14l80 145q-317 14 -473 170q-195 195 -195 540z" />
    <glyph glyph-name="Egrave" unicode="&#xc8;" horiz-adv-x="1241" 
d="M72 0v59q135 8 159.5 26.5t24.5 104.5v1037q0 86 -24.5 104.5t-159.5 26.5v59h1034v-336h-62q-23 162 -80 213.5t-229 51.5h-200q-49 0 -62.5 -12.5t-13.5 -61.5v-496h286q66 0 103 8.5t56.5 34t26.5 51t15 82.5h62v-432h-62q-8 59 -15 84t-26.5 51.5t-56.5 34.5t-103 8
h-286v-452q0 -78 10 -109t41 -45q53 -20 235.5 -20t261 51t113.5 231h62l-25 -354h-1085zM328.5 1672q-25.5 15 -27.5 45t20.5 66t45.5 40q41 8 133 -56l297 -202l-23 -45l-348 114q-72 23 -97.5 38z" />
    <glyph glyph-name="Eacute" unicode="&#xc9;" horiz-adv-x="1241" 
d="M72 0v59q135 8 159.5 26.5t24.5 104.5v1037q0 86 -24.5 104.5t-159.5 26.5v59h1034v-336h-62q-23 162 -80 213.5t-229 51.5h-200q-49 0 -62.5 -12.5t-13.5 -61.5v-496h286q66 0 103 8.5t56.5 34t26.5 51t15 82.5h62v-432h-62q-8 59 -15 84t-26.5 51.5t-56.5 34.5t-103 8
h-286v-452q0 -78 10 -109t41 -45q54 -20 236 -20t260.5 51t113.5 231h62l-25 -354h-1085zM475 1565l297 202q92 63 124 57t54.5 -41.5t20.5 -65.5t-27.5 -45t-97.5 -38l-348 -114z" />
    <glyph glyph-name="Ecircumflex" unicode="&#xca;" horiz-adv-x="1241" 
d="M72 0v59q135 8 159.5 26.5t24.5 104.5v1037q0 86 -24.5 104.5t-159.5 26.5v59h1034v-336h-62q-23 162 -80 213.5t-229 51.5h-200q-49 0 -62.5 -12.5t-13.5 -61.5v-496h286q66 0 103 8.5t56.5 34t26.5 51t15 82.5h62v-432h-62q-8 59 -15 84t-26.5 51.5t-56.5 34.5t-103 8
h-286v-452q0 -78 10 -109t41 -45q53 -20 235.5 -20t261 51t113.5 231h62l-25 -354h-1085zM620.5 1794q22.5 0 75.5 -49l238 -234l-27 -43l-219 125q-53 29 -67.5 29t-67.5 -29l-219 -125l-27 43l238 234q53 49 75.5 49z" />
    <glyph glyph-name="Edieresis" unicode="&#xcb;" horiz-adv-x="1241" 
d="M72 0v59q135 8 159.5 26.5t24.5 104.5v1037q0 86 -24.5 104.5t-159.5 26.5v59h1034v-336h-62q-23 162 -80 213.5t-229 51.5h-200q-49 0 -62.5 -12.5t-13.5 -61.5v-496h286q66 0 103 8.5t56.5 34t26.5 51t15 82.5h62v-432h-62q-8 59 -15 84t-26.5 51.5t-56.5 34.5t-103 8
h-286v-452q0 -78 10 -109t41 -45q54 -20 236 -20t260.5 51t113.5 231h62l-25 -354h-1085zM715 1612q0 45 31.5 77.5t87 32.5t87 -32.5t31.5 -77.5t-31.5 -79t-85.5 -34t-87 34t-33 79zM289 1612q0 45 31.5 77.5t87 32.5t87 -32.5t31.5 -77.5t-31.5 -79t-85.5 -34t-87 34
t-33 79z" />
    <glyph glyph-name="Igrave" unicode="&#xcc;" horiz-adv-x="714" 
d="M72 0v59q135 8 159.5 26.5t24.5 104.5v1037q0 86 -24.5 104.5t-159.5 26.5v59h571v-59q-133 -10 -158.5 -27.5t-25.5 -103.5v-1037q0 -86 25.5 -103t158.5 -28v-59h-571zM64.5 1672q-25.5 15 -27.5 45t20.5 66t44.5 40q41 8 134 -56l296 -202l-22 -45l-348 114
q-72 23 -97.5 38z" />
    <glyph glyph-name="Iacute" unicode="&#xcd;" horiz-adv-x="714" 
d="M72 0v59q135 8 159.5 26.5t24.5 104.5v1037q0 86 -24.5 104.5t-159.5 26.5v59h571v-59q-133 -10 -158.5 -27.5t-25.5 -103.5v-1037q0 -86 25.5 -103t158.5 -28v-59h-571zM182 1565l297 202q92 63 124 57t54.5 -41.5t20.5 -65.5t-27.5 -45t-97.5 -38l-348 -114z" />
    <glyph glyph-name="Icircumflex" unicode="&#xce;" horiz-adv-x="714" 
d="M72 0v59q135 8 159.5 26.5t24.5 104.5v1037q0 86 -24.5 104.5t-159.5 26.5v59h571v-59q-133 -10 -158.5 -27.5t-25.5 -103.5v-1037q0 -86 25.5 -103t158.5 -28v-59h-571zM358.5 1794q22.5 0 75.5 -49l238 -234l-27 -43l-219 125q-53 29 -67.5 29t-67.5 -29l-219 -125
l-27 43l238 234q53 49 75.5 49z" />
    <glyph glyph-name="Idieresis" unicode="&#xcf;" horiz-adv-x="714" 
d="M72 0v59q135 8 159.5 26.5t24.5 104.5v1037q0 86 -24.5 104.5t-159.5 26.5v59h571v-59q-133 -10 -158.5 -27.5t-25.5 -103.5v-1037q0 -86 25.5 -103t158.5 -28v-59h-571zM453 1612q0 45 31.5 77.5t87 32.5t87 -32.5t31.5 -77.5t-32 -79t-86 -34t-86.5 34t-32.5 79z
M27 1612q0 45 31.5 77.5t87 32.5t87 -32.5t31.5 -77.5t-32 -79t-86 -34t-86.5 34t-32.5 79z" />
    <glyph glyph-name="Eth" unicode="&#xd0;" horiz-adv-x="1607" 
d="M471 256q0 -119 39 -152q39 -32 175 -32q269 1 432 138q163 138 163 515q0 610 -571 621q-164 0 -201 -18t-37 -99v-453h283v-78h-283v-442zM41 698v78h227v451q0 86 -24 104q-25 18 -160 27v59h680q375 -4 561 -178q184 -178 184 -506q0 -418 -266 -602
q-190 -131 -520 -131h-639v59q135 9 160 27t24 104v508h-227z" />
    <glyph glyph-name="Ntilde" unicode="&#xd1;" horiz-adv-x="1597" 
d="M72 0v59q90 7 125 25t46 95t11 237v811q0 86 -25 104t-159 27v59h393q782 -1113 803 -1134v718q0 161 -12 237t-49 94q-38 18 -148 26v59h485v-59q-90 -6 -125 -24t-46 -96q-11 -77 -11 -237v-1001h-135q-330 471 -873 1233h-4v-817q0 -160 11 -236t49 -94t149 -27v-59
h-485zM681 1708q52 0 157 -39q120 -39 158 -39t65 18t72 76l41 -22q-52 -100 -98 -148t-100 -47q-54 0 -173 39t-169 39q-50 1 -82 -23t-67 -81l-39 26q42 81 80 129q56 72 155 72z" />
    <glyph glyph-name="Ograve" unicode="&#xd2;" horiz-adv-x="1560" 
d="M328 709q0 -125 20.5 -233.5t67.5 -211t140 -163t224 -60.5t224.5 60.5t140.5 163t67.5 211t20.5 233.5t-20.5 233.5t-67.5 210.5t-140.5 162.5t-224.5 60.5t-224 -60.5t-140 -162.5t-67.5 -210.5t-20.5 -233.5zM98 708.5q0 348.5 174 540.5q176 199 508 199t507 -196
t175 -544t-174 -540q-176 -199 -507.5 -199t-507 195.5t-175.5 544zM463.5 1672q-25.5 15 -27.5 45t20.5 66t45.5 40q41 8 133 -56l297 -202l-23 -45l-348 114q-72 23 -97.5 38z" />
    <glyph glyph-name="Oacute" unicode="&#xd3;" horiz-adv-x="1560" 
d="M328 709q0 -125 20.5 -233.5t67.5 -211t140 -163t224 -60.5t224.5 60.5t140.5 163t67.5 211t20.5 233.5t-20.5 233.5t-67.5 210.5t-140.5 162.5t-224.5 60.5t-224 -60.5t-140 -162.5t-67.5 -210.5t-20.5 -233.5zM98 708.5q0 348.5 174 540.5q176 199 508 199t507 -196
t175 -544t-174 -540q-176 -199 -508 -199q-330 -1 -506 195t-176 544.5zM578 1565l296 202q92 63 124 57t54.5 -41.5t20.5 -65.5t-27.5 -45t-97.5 -38l-348 -114z" />
    <glyph glyph-name="Ocircumflex" unicode="&#xd4;" horiz-adv-x="1560" 
d="M328 709q0 -125 20.5 -233.5t67.5 -211t140 -163t224 -60.5t224.5 60.5t140.5 163t67.5 211t20.5 233.5t-20.5 233.5t-67.5 210.5t-140.5 162.5t-224.5 60.5t-224 -60.5t-140 -162.5t-67.5 -210.5t-20.5 -233.5zM98 708.5q0 348.5 174 540.5q176 199 508 199t507 -196
t175 -544t-174 -540q-176 -199 -507.5 -199t-507 195.5t-175.5 544zM780.5 1794q22.5 0 75.5 -49l238 -234l-27 -43l-219 125q-53 29 -67.5 29t-67.5 -29l-219 -125l-27 43l238 234q53 49 75.5 49z" />
    <glyph glyph-name="Otilde" unicode="&#xd5;" horiz-adv-x="1560" 
d="M328 709q0 -125 20.5 -233.5t67.5 -211t140 -163t224 -60.5t224.5 60.5t140.5 163t67.5 211t20.5 233.5t-20.5 233.5t-67.5 210.5t-140.5 162.5t-224.5 60.5t-224 -60.5t-140 -162.5t-67.5 -210.5t-20.5 -233.5zM98 708.5q0 348.5 174 540.5q176 199 508 199t507 -196
t175 -544t-174 -540q-176 -199 -507.5 -199t-507 195.5t-175.5 544zM650 1708q52 0 157 -39q121 -39 159 -39t64.5 18.5t71.5 75.5l41 -22q-51 -100 -97.5 -147.5t-100.5 -47.5t-173 39t-169 39t-82 -23.5t-66 -80.5l-39 26q77 151 145 183q37 18 89 18z" />
    <glyph glyph-name="Odieresis" unicode="&#xd6;" horiz-adv-x="1560" 
d="M328 709q0 -125 20.5 -233.5t67.5 -211t140 -163t224 -60.5t224.5 60.5t140.5 163t67.5 211t20.5 233.5t-20.5 233.5t-67.5 210.5t-140.5 162.5t-224.5 60.5t-224 -60.5t-140 -162.5t-67.5 -210.5t-20.5 -233.5zM98 708.5q0 348.5 174 540.5q176 199 508 199t507 -196
t175 -544t-174 -540q-176 -199 -508 -199q-330 -1 -506 195t-176 544.5zM874 1612q0 45 32 77.5t87.5 32.5t87 -32.5t31.5 -77.5t-32 -79t-86 -34t-87 34t-33 79zM449 1612q0 45 31.5 77.5t87 32.5t87 -32.5t31.5 -77.5t-32 -79t-86 -34t-86.5 34t-32.5 79z" />
    <glyph glyph-name="multiply" unicode="&#xd7;" horiz-adv-x="1167" 
d="M129 135l367 377l-367 373l84 94l371 -377l368 377l86 -94l-366 -373l366 -377l-86 -90l-368 377l-371 -377z" />
    <glyph glyph-name="Oslash" unicode="&#xd8;" horiz-adv-x="1560" 
d="M780 41q104 0 186 41q82 40 131 106q48 66 90 185t46 336q-4 305 -107 473l-643 -1014q111 -127 297 -127zM780 1376q-104 0 -186 -41t-130 -107t-90 -184q-42 -119 -46 -335q4 -297 104 -469l643 1013q-111 123 -295 123zM98 709q0 348 174 540q176 199 508 199
q217 0 365 -86l94 151l70 -43l-97 -151q35 -25 76 -70q174 -190 174 -540t-174 -541q-176 -199 -508 -199q-217 0 -366 88l-105 -166l-65 50l100 159q-31 23 -72 68q-174 193 -174 541z" />
    <glyph glyph-name="Ugrave" unicode="&#xd9;" horiz-adv-x="1619" 
d="M59 1417h572v-59q-133 -10 -159 -27.5t-26 -103.5v-664q0 -276 94.5 -399t270.5 -123t270 123q92 123 93 399v664q0 86 -25 104.5t-160 26.5v59h572v-59q-133 -10 -159 -27.5t-26 -103.5v-705q0 -188 -55 -303q-117 -250 -511 -250t-511 250q-55 111 -55 299v709
q0 86 -25 104.5t-160 26.5v59zM467.5 1672q-25.5 15 -27.5 45t20.5 66t45.5 40q41 8 133 -56l297 -202l-23 -45l-348 114q-72 23 -97.5 38z" />
    <glyph glyph-name="Uacute" unicode="&#xda;" horiz-adv-x="1619" 
d="M59 1417h572v-59q-133 -10 -159 -27.5t-26 -103.5v-664q0 -276 94.5 -399t270.5 -123t270 123q92 123 93 399v664q0 86 -25 104.5t-160 26.5v59h572v-59q-133 -10 -159 -27.5t-26 -103.5v-705q0 -188 -55 -303q-117 -250 -511 -250t-511 250q-55 111 -55 299v709
q0 86 -25 104.5t-160 26.5v59zM629 1565l297 202q92 63 124 57.5t54 -41.5t20 -66t-27.5 -45t-97.5 -38l-348 -114z" />
    <glyph glyph-name="Ucircumflex" unicode="&#xdb;" horiz-adv-x="1619" 
d="M59 1417h572v-59q-133 -10 -159 -27.5t-26 -103.5v-664q0 -276 94.5 -399t270.5 -123t270 123q92 123 93 399v664q0 86 -25 104.5t-160 26.5v59h572v-59q-133 -10 -159 -27.5t-26 -103.5v-705q0 -188 -55 -303q-117 -250 -511 -250t-511 250q-55 111 -55 299v709
q0 86 -25 104.5t-160 26.5v59zM811 1794q23 0 76 -49l237 -234l-26 -43l-219 125q-53 29 -67.5 29t-68.5 -29l-219 -125l-26 43l237 234q53 49 76 49z" />
    <glyph glyph-name="Udieresis" unicode="&#xdc;" horiz-adv-x="1619" 
d="M59 1417h572v-59q-133 -10 -159 -27.5t-26 -103.5v-664q0 -276 94.5 -399t270.5 -123t270 123q92 123 93 399v664q0 86 -25 104.5t-160 26.5v59h572v-59q-133 -10 -159 -27.5t-26 -103.5v-705q0 -188 -55 -303q-117 -250 -511 -250t-511 250q-55 111 -55 299v709
q0 86 -25 104.5t-160 26.5v59zM905 1612q0 45 32 77.5t87 32.5t87 -32.5t32 -77.5t-32 -79t-86 -34t-87 34t-33 79zM479 1612q0 45 32 77.5t87 32.5t87 -32.5t32 -77.5t-32 -79t-86 -34t-87 34t-33 79z" />
    <glyph glyph-name="Yacute" unicode="&#xdd;" horiz-adv-x="1204" 
d="M-25 1417h531v-59l-121 -12q-47 -6 -23 -62q127 -279 316 -618h4q231 453 299 616q25 59 -25 66l-110 10v59h448v-59q-100 -4 -132 -26q-84 -56 -408 -707q-27 -53 -27 -121v-314q0 -86 29.5 -104t187.5 -27v-59h-637v59q158 8 187.5 26.5t29.5 104.5v306q0 59 -30 118
q-129 260 -336 641q-33 63 -66 81t-117 22v59zM518 1565l297 202q92 63 124 57.5t54.5 -41.5t20.5 -66t-27.5 -45t-97.5 -38l-348 -114z" />
    <glyph glyph-name="Thorn" unicode="&#xde;" horiz-adv-x="1214" 
d="M459 528q1 -47 23 -65t98 -19q168 0 254 72t86 228t-82 237q-82 80 -230 80q-92 0 -121 -13t-28 -63v-457zM72 0v59q136 9 160 27t24 104v1037q0 86 -25 104t-159 27v59h571v-59q-133 -10 -159 -28t-25 -103v-94h166q242 0 360 -74q154 -96 154 -291q0 -249 -227 -344
q-121 -51 -294 -51h-159v-183q-1 -86 27 -104t173 -27v-59h-587z" />
    <glyph glyph-name="germandbls" unicode="&#xdf;" horiz-adv-x="1230" 
d="M45 0v59q111 9 133 25t21 94v754q0 319 114 448q119 139 346 140q123 0 209 -36t123 -93q62 -95 63 -188t-55 -165q-113 -16 -176 -66t-63 -125t45 -127t162 -132q207 -139 207 -326q0 -129 -90 -208t-218 -79t-202 40t-74 94q0 31 24 55t53 22q30 0 46 -30
q61 -109 159 -109q51 0 94 38q42 38 42 119t-46 142t-148 129t-161 137q-59 70 -59 164q0 211 240 277q45 47 45 151t-65 174t-163 70q-154 0 -217 -160q-43 -106 -43 -370v-740q0 -78 22 -94t132 -25v-59h-500z" />
    <glyph glyph-name="agrave" unicode="&#xe0;" horiz-adv-x="1071" 
d="M307 284q0 -83 48 -141.5t133.5 -58.5t149.5 49t64 160v289q-39 -25 -235 -99q-86 -33 -123 -74.5t-37 -124.5zM100 266q0 186 191 244q31 10 97 30q269 79 314 126v86q0 111 -51 157.5t-123 46.5q-152 0 -211 -200q-16 -57 -59 -57.5t-82 25.5t-39 71q0 88 123 160.5
t291 72.5q221 0 285 -93q52 -74 51 -179v-496q0 -160 71 -176q43 -12 105 2l12 -49q-123 -61 -241 -62q-51 0 -80 31t-54 92q-186 -123 -314 -123t-207 84t-79 207zM227 1393q0 29 28 58.5t52 29.5q49 0 131 -84l244 -246l-31 -41l-309 172q-115 62 -115 111z" />
    <glyph glyph-name="aacute" unicode="&#xe1;" horiz-adv-x="1071" 
d="M307 284q0 -83 48 -141.5t133.5 -58.5t149.5 49t64 160v289q-39 -25 -235 -99q-86 -33 -123 -74.5t-37 -124.5zM100 266q0 186 191 244q31 10 97 30q269 79 314 126v86q0 111 -51 157.5t-123 46.5q-152 0 -211 -200q-16 -57 -59 -57.5t-82 25.5t-39 71q0 88 123 160.5
t291 72.5q221 0 285 -93q52 -74 51 -179v-496q0 -160 71 -176q43 -12 105 2l12 -49q-123 -61 -241 -62q-51 0 -80 31t-54 92q-186 -123 -314 -123t-207 84t-79 207zM776 1481q25 0 52.5 -30t27.5 -58q0 -49 -115 -111l-309 -172l-31 41l244 246q82 84 131 84z" />
    <glyph glyph-name="acircumflex" unicode="&#xe2;" horiz-adv-x="1071" 
d="M307 284q0 -83 48 -141.5t133.5 -58.5t149.5 49t64 160v289q-39 -25 -235 -99q-86 -33 -123 -74.5t-37 -124.5zM100 266q0 186 191 244q31 10 97 30q269 79 314 126v86q0 111 -51 157.5t-123 46.5q-152 0 -211 -200q-16 -57 -59 -57.5t-82 25.5t-39 71q0 88 123 160.5
t291 72.5q221 0 285 -93q52 -74 51 -179v-496q0 -160 71 -176q43 -12 105 2l12 -49q-123 -61 -241 -62q-51 0 -80 31t-54 92q-186 -123 -314 -123t-207 84t-79 207zM219 1151l240 272q47 51 73.5 51.5t73.5 -51.5l240 -272l-39 -43l-211 158q-43 31 -63.5 30.5t-63.5 -30.5
l-211 -158z" />
    <glyph glyph-name="atilde" unicode="&#xe3;" horiz-adv-x="1071" 
d="M307 284q0 -83 48 -141.5t133.5 -58.5t149.5 49t64 160v289q-39 -25 -235 -99q-86 -33 -123 -74.5t-37 -124.5zM100 266q0 186 191 244q31 10 97 30q269 79 314 126v86q0 111 -51 157.5t-123 46.5q-152 0 -211 -200q-16 -57 -59 -57.5t-82 25.5t-39 71q0 88 123 160.5
t291 72.5q221 0 285 -93q52 -74 51 -179v-496q0 -160 71 -176q43 -12 105 2l12 -49q-123 -61 -241 -62q-51 0 -80 31t-54 92q-186 -123 -314 -123t-207 84t-79 207zM406 1380q52 0 157 -39q121 -39 159 -38.5t64.5 18.5t71.5 76l41 -23q-49 -96 -90 -141q-57 -53 -109.5 -53
t-171.5 39t-169 38.5t-81.5 -24t-66.5 -80.5l-39 27q78 151 146 183q36 17 88 17z" />
    <glyph glyph-name="adieresis" unicode="&#xe4;" horiz-adv-x="1071" 
d="M307 284q0 -83 48 -141.5t133.5 -58.5t149.5 49t64 160v289q-39 -25 -235 -99q-86 -33 -123 -74.5t-37 -124.5zM100 266q0 186 191 244q31 10 97 30q269 79 314 126v86q0 111 -51 157.5t-123 46.5q-152 0 -211 -200q-16 -57 -59 -57.5t-82 25.5t-39 71q0 88 123 160.5
t291 72.5q221 0 285 -93q52 -74 51 -179v-496q0 -160 71 -176q43 -12 105 2l12 -49q-123 -61 -241 -62q-51 0 -80 31t-54 92q-186 -123 -314 -123t-207 84t-79 207zM201 1284q0 47 32.5 81t90 34t90 -34t32.5 -81t-32.5 -82t-90 -35t-90 35t-32.5 82zM627 1284q0 47 32.5 81
t90 34t90 -34t32.5 -81t-32.5 -82t-90 -35t-90 35t-32.5 82z" />
    <glyph glyph-name="aring" unicode="&#xe5;" horiz-adv-x="1071" 
d="M307 284q0 -84 48 -142q47 -58 133 -58t150 49t64 160v289q-39 -25 -235 -99q-86 -33 -123 -75t-37 -124zM100 266q0 186 191 244q31 10 171 51q196 57 240 105v86q0 112 -51 158t-123 46q-152 0 -211 -200q-16 -58 -59 -58t-82 26t-39 71q0 89 123 161t291 72
q219 0 285 -93q51 -72 51 -179v-496q0 -160 71 -176q43 -12 105 2l12 -49q-123 -61 -241 -62q-51 0 -80 31t-54 92q-186 -123 -314 -123t-207 84t-79 207zM434 1333q0 -139 102 -139t103 139q0 139 -102 140q-103 -1 -103 -140zM315 1333q-1 107 63 157t158 50t158 -50
t64 -156t-64 -157t-157 -51q-94 0 -158 50t-64 157z" />
    <glyph glyph-name="ae" unicode="&#xe6;" horiz-adv-x="1632" 
d="M895 616h387q41 0 55.5 16.5t14.5 47.5q0 32 -3 62q-8 84 -58 149t-138 65q-161 0 -216 -140q-42 -106 -42 -200zM307 284q0 -83 48 -141.5t132.5 -58.5t149.5 50t65 159v289q-39 -25 -235 -99q-86 -33 -123 -74.5t-37 -124.5zM100 266q0 186 191 244q31 10 97 30
q269 79 314 126v90q0 109 -51 154.5t-121 45.5q-156 0 -215 -200q-16 -57 -58 -57.5t-82 25.5t-40 71q0 88 123 160.5t295 72.5q209 0 285 -127q117 127 313 127q106 0 186 -32q80 -30 122 -76q106 -115 106 -304q0 -78 -82 -77h-590q-8 -459 301 -459q111 0 179.5 57.5
t117.5 159.5l61 -33q-98 -287 -399 -289q-274 -2 -379 179l-76 -56q-164 -119 -299 -123q-141 0 -220 84t-79 207z" />
    <glyph glyph-name="ccedilla" unicode="&#xe7;" horiz-adv-x="1015" 
d="M610 1028q146 0 245 -61.5t99 -137.5q0 -51 -41 -77.5t-83 -26.5t-62 53q-66 178 -187 178t-194.5 -105.5t-73.5 -296.5q1 -331 153 -431q62 -41 159.5 -41t166 53t117.5 164l60 -29q-35 -137 -134.5 -208.5t-216.5 -81.5l-53 -93q182 -25 183 -178q0 -55 -29 -94
t-93 -62.5t-119.5 -23.5t-98.5 6v53q180 0 180 115q0 104 -127 111l-8 14l82 152q-211 10 -323 139t-112 357.5t109 383.5q119 168 401 168z" />
    <glyph glyph-name="egrave" unicode="&#xe8;" horiz-adv-x="1052" 
d="M315 616h387q41 0 55.5 16.5t14.5 47.5q0 32 -3 62q-8 84 -58 149t-138 65t-141 -40q-54 -40 -76 -100q-42 -112 -41 -200zM100 494q0 242 120 388t351 146q107 0 187 -32q80 -30 122 -76q105 -114 105 -304q0 -78 -82 -77h-590q-8 -459 301 -459q111 0 179.5 57.5
t117.5 159.5l62 -33q-98 -289 -400 -289q-473 1 -473 519zM248 1393q0 29 27.5 58.5t52.5 29.5q49 0 131 -84l243 -246l-30 -41l-310 172q-114 62 -114 111z" />
    <glyph glyph-name="eacute" unicode="&#xe9;" horiz-adv-x="1052" 
d="M315 616h387q41 0 55.5 16.5t14.5 47.5q0 32 -3 62q-8 84 -58 149t-138 65t-141 -40q-54 -40 -76 -100q-42 -112 -41 -200zM100 494q0 242 120 388t351 146q107 0 187 -32q80 -30 122 -76q105 -114 105 -304q0 -78 -82 -77h-590q-8 -459 301 -459q111 0 179.5 57.5
t117.5 159.5l62 -33q-98 -289 -400 -289q-473 1 -473 519zM786 1481q25 0 52.5 -30t27.5 -58q0 -49 -114 -111l-310 -172l-30 41l243 246q82 84 131 84z" />
    <glyph glyph-name="ecircumflex" unicode="&#xea;" horiz-adv-x="1052" 
d="M315 616h387q41 0 55.5 16.5t14.5 47.5q0 32 -3 62q-8 84 -58 149t-138 65t-141 -40q-54 -40 -76 -100q-42 -112 -41 -200zM100 494q0 242 120 388t351 146q107 0 187 -32q80 -30 122 -76q105 -114 105 -304q0 -78 -82 -77h-590q-8 -459 301 -459q111 0 179.5 57.5
t117.5 159.5l62 -33q-98 -289 -400 -289q-473 1 -473 519zM246 1151l239 272q47 51 74 51.5t74 -51.5l239 -272l-38 -43l-211 158q-43 31 -63.5 30.5t-63.5 -30.5l-211 -158z" />
    <glyph glyph-name="edieresis" unicode="&#xeb;" horiz-adv-x="1052" 
d="M315 616h387q41 0 55.5 16.5t14.5 47.5q0 32 -3 62q-8 84 -58 149t-138 65t-141 -40q-54 -40 -76 -100q-42 -112 -41 -200zM100 494q0 242 120 388t351 146q107 0 187 -32q80 -30 122 -76q105 -114 105 -304q0 -78 -82 -77h-590q-8 -459 301 -459q111 0 179.5 57.5
t117.5 159.5l62 -33q-98 -289 -400 -289q-473 1 -473 519zM190 1284q0 47 33 81t90.5 34t90 -34t32.5 -81t-32.5 -82t-90 -35t-90.5 35t-33 82zM616 1284q0 47 33 81t90.5 34t90 -34t32.5 -81t-32.5 -82t-90 -35t-90.5 35t-33 82z" />
    <glyph glyph-name="eth" unicode="&#xf0;" horiz-adv-x="1181" 
d="M313 502q0 -455 275 -455q152 0 216 118q64 119 64 349t-59 336t-221 106q-275 1 -275 -454zM100 502q0 250 126 388t372 138q37 0 107 -12l4 6q-70 96 -172 195l-267 -121l-51 73l250 111q-86 78 -229 186v19l88 35q147 -88 266 -185l268 125l51 -74l-243 -110
q119 -96 194 -189q117 -139 167 -268t50 -297q0 -547 -493 -547q-240 1 -364 139t-124 388z" />
    <glyph glyph-name="ntilde" unicode="&#xf1;" horiz-adv-x="1267" 
d="M66 0v59q110 9 132 25t21 94v645q0 53 -12 69t-53 23l-78 11v51l305 51l29 -156q45 34 115 74q71 41 88 47q17 7 58 21t111 14q142 0 222 -86t79 -240v-524q0 -78 22 -94t132 -25v-59h-500v59q111 9 133 25t21 94v484q0 256 -215 256q-78 0 -144 -42t-93 -94t-27 -125
v-479q0 -78 22 -94t131 -25v-59h-499zM505 1380q52 0 157 -39q120 -39 158 -39t65 19q27 18 71 76l41 -23q-49 -96 -90 -141q-57 -53 -109 -53t-172 39q-118 39 -168 39t-82 -24t-67 -81l-39 27q77 151 146 183q37 17 89 17z" />
    <glyph glyph-name="ograve" unicode="&#xf2;" horiz-adv-x="1181" 
d="M313 502q0 -217 70 -336t209 -119t208.5 119t69.5 336t-69.5 335.5t-208.5 118.5t-209 -118.5t-70 -335.5zM100 502q0 252 124 389t368 137t367.5 -137t123.5 -389t-123.5 -389.5t-367.5 -137.5t-368 137.5t-124 389.5zM262 1393q0 29 27.5 58.5t52.5 29.5q49 0 131 -84
l244 -246l-31 -41l-309 172q-115 62 -115 111z" />
    <glyph glyph-name="oacute" unicode="&#xf3;" horiz-adv-x="1181" 
d="M313 502q0 -217 70 -336t209 -119t208.5 119t69.5 336t-69.5 335.5t-208.5 118.5t-209 -118.5t-70 -335.5zM100 502q0 252 124 389t368 137t367.5 -137t123.5 -389t-123.5 -389.5t-367.5 -137.5t-368 137.5t-124 389.5zM801 1481q25 0 52.5 -30t27.5 -58q0 -49 -115 -111
l-309 -172l-31 41l244 246q82 84 131 84z" />
    <glyph glyph-name="ocircumflex" unicode="&#xf4;" horiz-adv-x="1181" 
d="M313 502q0 -217 70 -336t209 -119t208.5 119t69.5 336t-69.5 335.5t-208.5 118.5t-209 -118.5t-70 -335.5zM100 502q0 252 124 389t368 137t367.5 -137t123.5 -389t-123.5 -389.5t-367.5 -137.5t-368 137.5t-124 389.5zM279 1151l239 272q47 51 73.5 51.5t74.5 -51.5
l239 -272l-39 -43l-211 158q-43 31 -63.5 30.5t-63.5 -30.5l-211 -158z" />
    <glyph glyph-name="otilde" unicode="&#xf5;" horiz-adv-x="1181" 
d="M313 502q0 -217 70 -336t209 -119t208.5 119t69.5 336t-69.5 335.5t-208.5 118.5t-209 -118.5t-70 -335.5zM100 502q0 252 124 389t368 137t367.5 -137t123.5 -389t-123.5 -389.5t-367.5 -137.5t-368 137.5t-124 389.5zM462 1380q52 0 156 -39q121 -39 159 -38.5
t64.5 18.5t71.5 76l41 -23q-49 -96 -90 -141q-57 -53 -109.5 -53t-171 39t-168.5 38.5t-82 -24t-67 -80.5l-39 27q77 151 146 183q37 17 89 17z" />
    <glyph glyph-name="odieresis" unicode="&#xf6;" horiz-adv-x="1181" 
d="M313 502q0 -217 70 -336t209 -119t208.5 119t69.5 336t-69.5 335.5t-208.5 118.5t-209 -118.5t-70 -335.5zM100 502q0 252 124 389t368 137t367.5 -137t123.5 -389t-123.5 -389.5t-367.5 -137.5t-368 137.5t-124 389.5zM256 1284q0 47 33 81t90 34t90 -34t33 -81t-33 -82
t-90 -35t-90 35t-33 82zM682 1284q0 47 33 81t90 34t90 -34t33 -81t-33 -82t-90 -35t-90 35t-33 82z" />
    <glyph glyph-name="divide" unicode="&#xf7;" horiz-adv-x="1167" 
d="M88 453v118h991v-118h-991zM461 850q0 51 36 86t86 35t84 -35q33 -35 33 -85t-34 -86t-83 -36q-50 0 -86 35t-36 86zM461 174q0 51 36 86t86 35t84 -35q33 -35 33 -85t-34 -86t-83 -36q-50 0 -86 35t-36 86z" />
    <glyph glyph-name="oslash" unicode="&#xf8;" horiz-adv-x="1181" 
d="M590 47q289 0 289 455q0 203 -58 311l-424 -678q74 -88 193 -88zM590 956q-143 0 -217 -120t-72 -318q2 -200 51 -305l420 670q-68 74 -182 73zM100 502q0 252 124 389t366 137q139 0 244 -47l67 109l66 -43l-66 -105q180 -129 180 -440q0 -254 -123 -390t-368 -137
q-156 0 -256 58l-74 -117l-63 47l69 113q-166 129 -166 426z" />
    <glyph glyph-name="ugrave" unicode="&#xf9;" horiz-adv-x="1241" 
d="M389 319q0 -115 56.5 -174t143.5 -59t155.5 42t103.5 112q16 33 16 122v461q0 53 -12 69.5t-53 22.5l-78 11v51l321 51l15 -12v-838q0 -78 22.5 -94t130.5 -25v-59h-327l-21 123q-2 -2 -76 -47q-165 -101 -296.5 -101t-212 72t-80.5 236v540q0 53 -12.5 69.5t-53.5 22.5
l-78 11v51l322 51l14 -12v-697zM250 1393q0 29 27.5 58.5t52.5 29.5q49 0 131 -84l244 -246l-31 -41l-309 172q-115 62 -115 111z" />
    <glyph glyph-name="uacute" unicode="&#xfa;" horiz-adv-x="1241" 
d="M389 319q0 -115 56.5 -174t143.5 -59t155.5 42t103.5 112q16 33 16 122v461q0 53 -12 69.5t-53 22.5l-78 11v51l321 51l15 -12v-838q0 -78 22.5 -94t130.5 -25v-59h-327l-21 123q-2 -2 -76 -47q-165 -101 -296.5 -101t-212 72t-80.5 236v540q0 53 -12.5 69.5t-53.5 22.5
l-78 11v51l322 51l14 -12v-697zM850 1481q25 0 52.5 -30t27.5 -58q0 -49 -115 -111l-309 -172l-31 41l244 246q82 84 131 84z" />
    <glyph glyph-name="ucircumflex" unicode="&#xfb;" horiz-adv-x="1241" 
d="M389 319q0 -115 56.5 -174t143.5 -59t155.5 42t103.5 112q16 33 16 122v461q0 53 -12 69.5t-53 22.5l-78 11v51l321 51l15 -12v-838q0 -78 22.5 -94t130.5 -25v-59h-327l-21 123q-2 -2 -76 -47q-165 -101 -296.5 -101t-212 72t-80.5 236v540q0 53 -12.5 69.5t-53.5 22.5
l-78 11v51l322 51l14 -12v-697zM299 1151l240 272q47 51 73.5 51.5t73.5 -51.5l240 -272l-39 -43l-211 158q-43 31 -63.5 30.5t-63.5 -30.5l-211 -158z" />
    <glyph glyph-name="udieresis" unicode="&#xfc;" horiz-adv-x="1241" 
d="M389 319q0 -115 56.5 -174t143.5 -59t155.5 42t103.5 112q16 33 16 122v461q0 53 -12 69.5t-53 22.5l-78 11v51l321 51l15 -12v-838q0 -78 22.5 -94t130.5 -25v-59h-327l-21 123q-2 -2 -76 -47q-165 -101 -296.5 -101t-212 72t-80.5 236v540q0 53 -12.5 69.5t-53.5 22.5
l-78 11v51l322 51l14 -12v-697zM285 1284q0 47 32.5 81t90 34t90 -34t32.5 -81t-32.5 -82t-90 -35t-90 35t-32.5 82zM711 1284q0 47 32.5 81t90 34t90 -34t32.5 -81t-32.5 -82t-90 -35t-90 35t-32.5 82z" />
    <glyph glyph-name="yacute" unicode="&#xfd;" horiz-adv-x="1036" 
d="M-10 1004h469v-60l-88 -8q-58 -4 -31 -64q113 -322 252 -686h4q182 496 227 678q16 63 -28 70l-107 10v60h393v-60q-74 -4 -98.5 -22.5t-52.5 -81.5q-131 -295 -379 -1008q-72 -212 -156 -278q-63 -50 -129.5 -50t-107.5 34t-41 75t29.5 77t59.5 36t67.5 -36t70.5 -36
q51 0 95 95t44 156.5t-16 108.5q-109 313 -322 824q-27 68 -54 85t-101 21v60zM809 1481q25 0 52.5 -30t27.5 -58q0 -49 -115 -111l-309 -172l-31 41l244 246q82 84 131 84z" />
    <glyph glyph-name="thorn" unicode="&#xfe;" horiz-adv-x="1241" 
d="M393 322q0 -82 20 -138q19 -56 77 -97q58 -40 139 -40q299 0 299 465q0 123 -29 210t-74 126q-78 68 -161 70q-172 0 -244 -144q-27 -53 -27 -117v-335zM201 -293v1567q-1 58 -13 74t-53 20l-78 8v51l322 52l14 -13v-585q11 6 65 41q165 106 277 106q113 0 191 -40
t118 -94q98 -133 97 -370q1 -295 -141 -422t-373 -127q-152 0 -234 48v-316q0 -76 28 -93t157 -26v-59h-531v59q106 8 130 26t24 93z" />
    <glyph glyph-name="ydieresis" unicode="&#xff;" horiz-adv-x="1036" 
d="M-10 1004h469v-60l-88 -8q-58 -4 -31 -64q113 -322 252 -686h4q182 496 227 678q16 63 -28 70l-107 10v60h393v-60q-74 -4 -98.5 -22.5t-52.5 -81.5q-131 -295 -379 -1008q-72 -212 -156 -278q-63 -50 -129.5 -50t-107.5 34t-41 75t29.5 77t59.5 36t67.5 -36t70.5 -36
q51 0 95 95t44 156.5t-16 108.5q-109 313 -322 824q-27 68 -54 85t-101 21v60zM213 1284q0 47 33 81t90 34t90 -34t33 -81t-33 -82t-90 -35t-90 35t-33 82zM639 1284q0 47 33 81t90 34t90 -34t33 -81t-33 -82t-90 -35t-90 35t-33 82z" />
    <glyph glyph-name="Amacron" unicode="&#x100;" horiz-adv-x="1300" 
d="M385 625h408l-203 585h-6q-183 -536 -199 -585zM-59 0v59q93 4 125 30q32 27 74 135t212 587l215 606h152l434 -1235q27 -78 56.5 -96t121.5 -27v-59h-524v59l92 9q49 4 60.5 23.5t-5.5 64.5l-137 391h-459q-102 -319 -120 -377t-8 -77t55 -23l106 -11v-59h-450z
M319 1554v121h648v-121h-648z" />
    <glyph glyph-name="amacron" unicode="&#x101;" horiz-adv-x="1071" 
d="M307 284q0 -83 48 -141.5t133.5 -58.5t149.5 49t64 160v289q-39 -25 -235 -99q-86 -33 -123 -74.5t-37 -124.5zM100 266q0 186 191 244q31 10 97 30q269 79 314 126v86q0 111 -51 157.5t-123 46.5q-152 0 -211 -200q-16 -57 -59 -57.5t-82 25.5t-39 71q0 88 123 160.5
t291 72.5q221 0 285 -93q52 -74 51 -179v-496q0 -160 71 -176q43 -12 105 2l12 -49q-123 -61 -241 -62q-51 0 -80 31t-54 92q-186 -123 -314 -123t-207 84t-79 207zM256 1223v120h590v-120h-590z" />
    <glyph glyph-name="Abreve" unicode="&#x102;" horiz-adv-x="1300" 
d="M385 625h408l-203 585h-6q-183 -536 -199 -585zM-59 0v59q94 4 125.5 30t73.5 134.5t212 587.5l215 606h152l434 -1235q27 -78 56.5 -96t121.5 -27v-59h-524v59l92 9q49 4 60.5 23.5t-5.5 64.5l-137 391h-459q-102 -319 -120.5 -377.5t-8 -77t55.5 -22.5l106 -11v-59
h-450zM348 1782h58q5 -60 102 -98q59 -24 147 -24q87 0 147 24q98 39 103 98h58q0 -104 -70 -176t-238 -72t-237.5 72t-69.5 176z" />
    <glyph glyph-name="abreve" unicode="&#x103;" horiz-adv-x="1071" 
d="M262 1442h49q4 -51 55.5 -98.5t176.5 -47.5t176 47.5t55 98.5h49q-1 -115 -43 -187q-54 -92 -237 -92t-237 92q-44 74 -44 187zM307 284q0 -83 48 -141.5t133.5 -58.5t149.5 49t64 160v289q-39 -25 -235 -99q-86 -33 -123 -74.5t-37 -124.5zM100 266q0 186 191 244
q31 10 97 30q269 79 314 126v86q0 111 -51 157.5t-123 46.5q-152 0 -211 -200q-16 -57 -59 -57.5t-82 25.5t-39 71q0 88 123 160.5t291 72.5q221 0 285 -93q52 -74 51 -179v-496q0 -160 71 -176q43 -12 105 2l12 -49q-123 -61 -241 -62q-51 0 -80 31t-54 92
q-186 -123 -314 -123t-207 84t-79 207z" />
    <glyph glyph-name="aogonek" unicode="&#x105;" horiz-adv-x="1071" 
d="M307 284q0 -83 48 -141.5t133.5 -58.5t149.5 49t64 160v289q-39 -25 -235 -99q-86 -33 -123 -74.5t-37 -124.5zM100 266q0 182 191 244q31 10 97 30q269 79 314 126v86q0 111 -51 157.5t-123 46.5q-152 0 -211 -200q-16 -57 -59 -57.5t-82 25.5t-39 71q0 88 123 160.5
t291 72.5q221 0 285 -93q52 -74 51 -179v-496q0 -106 27.5 -143t75.5 -37t73 6l12 -49q-47 -25 -121.5 -45.5t-91.5 -32.5q-125 -88 -125 -229q0 -53 34 -82t92.5 -29t109.5 25l16 -43q-82 -72 -196.5 -72t-160.5 58.5t-46 127.5q0 172 207 269q-53 12 -93 114
q-186 -123 -314 -123t-207 84t-79 207z" />
    <glyph glyph-name="Cacute" unicode="&#x106;" horiz-adv-x="1400" 
d="M98 683q0 345 187.5 555t576.5 210q262 0 434 -80v-319h-61q-53 328 -393 327q-137 0 -239.5 -56t-160.5 -154q-114 -191 -114 -461q0 -185 59 -341q35 -92 89 -161.5t147.5 -115.5t214.5 -46q188 0 285.5 95t144.5 274h61l-29 -342q-76 -41 -203.5 -70t-246.5 -29
q-383 0 -557 174q-195 195 -195 540zM657 1565l297 202q92 63 124 57.5t54.5 -41.5t20.5 -66t-27.5 -45t-97.5 -38l-348 -114z" />
    <glyph glyph-name="cacute" unicode="&#x107;" horiz-adv-x="1015" 
d="M610 1028q146 0 245 -61.5t99 -137.5q0 -51 -40 -77.5t-81.5 -26.5t-62.5 53q-66 178 -188 178t-195.5 -105.5t-73.5 -296.5q1 -331 153 -431q62 -41 159.5 -41t166 53t117.5 164l60 -29q-27 -102 -97 -172q-124 -124 -297 -123q-231 0 -353 131.5t-122 365t109 388.5
q119 168 401 168zM807 1481q25 0 52.5 -30t27.5 -58q0 -49 -115 -111l-309 -172l-31 41l244 246q82 84 131 84z" />
    <glyph glyph-name="Ccircumflex" unicode="&#x108;" horiz-adv-x="1400" 
d="M98 683q0 345 187.5 555t576.5 210q262 0 434 -80v-319h-61q-53 328 -393 327q-137 0 -239.5 -56t-160.5 -154q-114 -191 -114 -461q0 -185 59 -341q35 -92 89 -161.5t147.5 -115.5t214.5 -46q188 0 285.5 95t144.5 274h61l-29 -342q-76 -41 -203.5 -70t-246.5 -29
q-383 0 -557 174q-195 195 -195 540zM860 1794q23 0 76 -49l238 -234l-27 -43l-219 125q-53 29 -67.5 29t-67.5 -29l-220 -125l-26 43l237 234q53 49 76 49z" />
    <glyph glyph-name="ccircumflex" unicode="&#x109;" horiz-adv-x="1015" 
d="M610 1028q146 0 245 -61.5t99 -137.5q0 -51 -40 -77.5t-81.5 -26.5t-62.5 53q-66 178 -188 178t-195.5 -105.5t-73.5 -296.5q1 -331 153 -431q62 -41 159.5 -41t166 53t117.5 164l60 -29q-27 -102 -97 -172q-124 -124 -297 -123q-231 0 -353 131.5t-122 365t109 388.5
q119 168 401 168zM285 1151l239 272q47 51 74 51.5t74 -51.5l239 -272l-39 -43l-210 158q-43 31 -63.5 30.5t-63.5 -30.5l-211 -158z" />
    <glyph glyph-name="Cdotaccent" unicode="&#x10a;" horiz-adv-x="1400" 
d="M98 683q0 345 187.5 555t576.5 210q262 0 434 -80v-319h-61q-53 328 -393 327q-137 0 -239.5 -56t-160.5 -154q-114 -191 -114 -461q0 -185 59 -341q35 -92 89 -161.5t147.5 -115.5t214.5 -46q188 0 285.5 95t144.5 274h61l-29 -342q-76 -41 -203.5 -70t-246.5 -29
q-383 0 -557 174q-195 195 -195 540zM741 1612q0 45 32 77.5t87 32.5t87 -32.5t32 -77.5t-32 -79t-86 -34t-87 34t-33 79z" />
    <glyph glyph-name="cdotaccent" unicode="&#x10b;" horiz-adv-x="1015" 
d="M610 1028q146 0 245 -61.5t99 -137.5q0 -51 -40 -77.5t-81.5 -26.5t-62.5 53q-66 178 -188 178t-195.5 -105.5t-73.5 -296.5q1 -331 153 -431q62 -41 159.5 -41t166 53t117.5 164l60 -29q-27 -102 -97 -172q-124 -124 -297 -123q-231 0 -353 131.5t-122 365t109 388.5
q119 168 401 168zM475 1284q0 47 33 81t90 34t90 -34t33 -81t-33 -82t-90 -35t-90 35t-33 82z" />
    <glyph glyph-name="Ccaron" unicode="&#x10c;" horiz-adv-x="1400" 
d="M98 683q0 345 187.5 555t576.5 210q262 0 434 -80v-319h-61q-53 328 -393 327q-137 0 -239.5 -56t-160.5 -154q-114 -191 -114 -461q0 -185 59 -341q35 -92 89 -161.5t147.5 -115.5t214.5 -46q188 0 285.5 95t144.5 274h61l-29 -342q-76 -41 -203.5 -70t-246.5 -29
q-383 0 -557 174q-195 195 -195 540zM860.5 1481q-22.5 0 -76.5 49l-237 233l26 43l220 -125q53 -29 67 -28.5t68 28.5l219 125l27 -43l-238 -233q-53 -49 -75.5 -49z" />
    <glyph glyph-name="ccaron" unicode="&#x10d;" horiz-adv-x="1015" 
d="M610 1028q146 0 245 -61.5t99 -137.5q0 -51 -40 -77.5t-81.5 -26.5t-62.5 53q-66 178 -188 178t-195.5 -105.5t-73.5 -296.5q1 -331 153 -431q62 -41 159.5 -41t166 53t117.5 164l60 -29q-27 -102 -97 -172q-124 -124 -297 -123q-231 0 -353 131.5t-122 365t109 388.5
q119 168 401 168zM598 1286q20 0 64 31l210 158l39 -43l-239 -273q-47 -51 -74 -51t-74 51l-239 273l39 43l211 -158q43 -31 63 -31z" />
    <glyph glyph-name="Dcaron" unicode="&#x10e;" horiz-adv-x="1595" 
d="M459 256q0 -119 39 -151.5t175 -32.5q268 0 431.5 137t163.5 516q0 621 -572 621q-164 0 -200.5 -18.5t-36.5 -98.5v-973zM72 0v59q135 8 159.5 26.5t24.5 104.5v1037q0 86 -24.5 104.5t-159.5 26.5v59h680q172 0 305 -40q133 -39 215 -103q225 -174 225 -541
q0 -299 -156 -501q-84 -108 -244.5 -170t-385.5 -62h-639zM753.5 1481q-22.5 0 -75.5 49l-238 233l27 43l219 -125q53 -29 67.5 -28.5t67.5 28.5l219 125l27 -43l-238 -233q-53 -49 -75.5 -49z" />
    <glyph glyph-name="dcaron" unicode="&#x10f;" horiz-adv-x="1327" 
d="M619 956q-153 0 -229 -122t-77 -316q0 -196 74 -314t209 -118q180 0 238 147q14 41 14 115v361q0 80 -19 118q-57 129 -210 129zM100 496q0 244 140 388t381 144q135 0 227 -49v336q0 57 -12 73t-54 21l-77 8v51l321 52l14 -13v-1329q0 -78 22 -94t132 -25v-59h-332
l-16 14v101q-170 -139 -318 -140q-200 1 -314 139t-114 382zM1116 1522q0 40 29 68t83 28t93 -52t39 -120q0 -116 -97 -231q-34 -38 -92 -93l-34 33q74 104 73 188q0 41 -47 89t-47 90z" />
    <glyph glyph-name="Dcroat" unicode="&#x110;" horiz-adv-x="1595" 
d="M72 0v59q136 9 160 27t24 104v476h-164v120h164v441q0 86 -25 104t-159 27v59h680q172 0 305 -40t215 -103q225 -173 225 -541q0 -300 -156 -502q-85 -109 -245 -170t-385 -61h-639zM459 256q0 -119 39 -152q39 -32 175 -32q443 2 552 334q43 131 43 319q0 621 -572 621
q-164 0 -200 -18t-37 -99v-443h223v-120h-223v-410z" />
    <glyph glyph-name="dcroat" unicode="&#x111;" horiz-adv-x="1224" 
d="M619 956q-153 0 -229 -122t-77 -316q0 -196 74 -314t209 -118q180 0 238 147q14 41 14 115v361q0 80 -19 118q-57 129 -210 129zM100 496q0 244 140 388t381 144q135 0 227 -49v213h-227v121h227v2q0 57 -12 73t-54 21l-77 8v51l321 52l14 -13v-194h142v-121h-142v-1014
q0 -78 22 -94t132 -25v-59h-332l-16 14v101q-170 -139 -318 -140q-200 1 -314 139t-114 382z" />
    <glyph glyph-name="Emacron" unicode="&#x112;" horiz-adv-x="1241" 
d="M72 0v59q135 8 159.5 26.5t24.5 104.5v1037q0 86 -24.5 104.5t-159.5 26.5v59h1034v-336h-62q-23 162 -80 213.5t-229 51.5h-200q-49 0 -62.5 -12.5t-13.5 -61.5v-496h286q66 0 103 8.5t56.5 34t26.5 51t15 82.5h62v-432h-62q-8 59 -15 84t-26.5 51.5t-56.5 34.5t-103 8
h-286v-452q0 -78 10 -109t41 -45q54 -20 236 -20t260.5 51t113.5 231h62l-25 -354h-1085zM303 1554v121h647v-121h-647z" />
    <glyph glyph-name="emacron" unicode="&#x113;" horiz-adv-x="1052" 
d="M315 616h387q41 0 55.5 16.5t14.5 47.5q0 32 -3 62q-8 84 -58 149t-138 65t-141 -40q-54 -40 -76 -100q-42 -112 -41 -200zM100 494q0 242 120 388t351 146q107 0 187 -32q80 -30 122 -76q105 -114 105 -304q0 -78 -82 -77h-590q-8 -459 301 -459q111 0 179.5 57.5
t117.5 159.5l62 -33q-98 -289 -400 -289q-473 1 -473 519zM274 1223v120h590v-120h-590z" />
    <glyph glyph-name="Ebreve" unicode="&#x114;" horiz-adv-x="1241" 
d="M72 0v59q135 8 159.5 26.5t24.5 104.5v1037q0 86 -24.5 104.5t-159.5 26.5v59h1034v-336h-62q-23 162 -80 213.5t-229 51.5h-200q-49 0 -62.5 -12.5t-13.5 -61.5v-496h286q66 0 103 8.5t56.5 34t26.5 51t15 82.5h62v-432h-62q-8 59 -15 84t-26.5 51.5t-56.5 34.5t-103 8
h-286v-452q0 -78 10 -109t41 -45q53 -20 235.5 -20t261 51t113.5 231h62l-25 -354h-1085zM319 1782h58q5 -60 103 -98q60 -24 148 -24q86 0 146 24q95 38 103 98h57q0 -104 -69.5 -176t-237.5 -72t-238 72t-70 176z" />
    <glyph glyph-name="ebreve" unicode="&#x115;" horiz-adv-x="1052" 
d="M315 616h387q41 0 55.5 16.5t14.5 47.5q0 32 -3 62q-8 84 -58 149t-138 65t-141 -40q-54 -40 -76 -100q-42 -112 -41 -200zM100 494q0 242 120 388t351 146q107 0 187 -32q80 -30 122 -76q105 -114 105 -304q0 -78 -82 -77h-590q-8 -459 301 -459q111 0 179.5 57.5
t117.5 159.5l62 -33q-98 -289 -400 -289q-473 1 -473 519zM289 1442h49q4 -51 55 -98.5t176 -47.5t176.5 47.5t55.5 98.5h49q0 -115 -43 -187q-55 -92 -238 -92t-237 92q-42 72 -43 187z" />
    <glyph glyph-name="Edotaccent" unicode="&#x116;" horiz-adv-x="1241" 
d="M72 0v59q135 8 159.5 26.5t24.5 104.5v1037q0 86 -24.5 104.5t-159.5 26.5v59h1034v-336h-62q-23 162 -80 213.5t-229 51.5h-200q-49 0 -62.5 -12.5t-13.5 -61.5v-496h286q66 0 103 8.5t56.5 34t26.5 51t15 82.5h62v-432h-62q-8 59 -15 84t-26.5 51.5t-56.5 34.5t-103 8
h-286v-452q0 -78 10 -109t41 -45q54 -20 236 -20t260.5 51t113.5 231h62l-25 -354h-1085zM508 1612q0 45 31.5 77.5t87 32.5t87 -32.5t31.5 -77.5t-31.5 -79t-85.5 -34t-87 34t-33 79z" />
    <glyph glyph-name="edotaccent" unicode="&#x117;" horiz-adv-x="1052" 
d="M315 616h387q41 0 55.5 16.5t14.5 47.5q0 32 -3 62q-8 84 -58 149t-138 65t-141 -40q-54 -40 -76 -100q-42 -112 -41 -200zM100 494q0 242 120 388t351 146q107 0 187 -32q80 -30 122 -76q105 -114 105 -304q0 -78 -82 -77h-590q-8 -459 301 -459q111 0 179.5 57.5
t117.5 159.5l62 -33q-98 -289 -400 -289q-473 1 -473 519zM446 1284q0 47 33 81t90.5 34t90 -34t32.5 -81t-32.5 -82t-90 -35t-90.5 35t-33 82z" />
    <glyph glyph-name="Eogonek" unicode="&#x118;" horiz-adv-x="1241" 
d="M72 0v59q135 8 159.5 26.5t24.5 104.5v1037q0 86 -24.5 104.5t-159.5 26.5v59h1034v-336h-62q-23 162 -80 213.5t-229 51.5h-200q-49 0 -62.5 -12.5t-13.5 -61.5v-496h286q66 0 103 8.5t56.5 34t26.5 51t15 82.5h62v-432h-62q-8 59 -15 84t-26.5 51.5t-56.5 34.5t-103 8
h-286v-452q0 -78 10 -109t41 -45q53 -20 235.5 -20t261 51t113.5 231h62l-25 -354h-141q-156 -129 -156 -270q0 -53 34 -82t92.5 -29t109.5 25l16 -43q-82 -72 -196.5 -72t-160.5 58.5t-46 138.5q0 150 219 274h-856z" />
    <glyph glyph-name="eogonek" unicode="&#x119;" horiz-adv-x="1052" 
d="M315 616h387q41 0 55.5 16.5t14.5 47.5q0 32 -3 62q-8 84 -58 149t-138 65t-141 -40q-54 -40 -76 -100q-42 -112 -41 -200zM653 -259q0 -122 125 -122q57 0 111 25l16 -43q-82 -72 -196.5 -72t-160.5 58.5t-46 127.5q0 158 205 277q-55 -16 -134 -17q-473 1 -473 519
q0 242 120 388t351 146q107 0 187 -32q80 -30 122 -76q105 -114 105 -304q0 -78 -82 -77h-590q-8 -459 301 -459q111 0 179.5 57.5t117.5 159.5l62 -33q-43 -123 -143.5 -227t-138.5 -168t-38 -128z" />
    <glyph glyph-name="Ecaron" unicode="&#x11a;" horiz-adv-x="1241" 
d="M72 0v59q135 8 159.5 26.5t24.5 104.5v1037q0 86 -24.5 104.5t-159.5 26.5v59h1034v-336h-62q-23 162 -80 213.5t-229 51.5h-200q-49 0 -62.5 -12.5t-13.5 -61.5v-496h286q66 0 103 8.5t56.5 34t26.5 51t15 82.5h62v-432h-62q-8 59 -15 84t-26.5 51.5t-56.5 34.5t-103 8
h-286v-452q0 -78 10 -109t41 -45q53 -20 235.5 -20t261 51t113.5 231h62l-25 -354h-1085zM626.5 1481q-22.5 0 -75.5 49l-238 233l27 43l219 -125q53 -29 67.5 -28.5t67.5 28.5l219 125l27 -43l-238 -233q-53 -49 -75.5 -49z" />
    <glyph glyph-name="ecaron" unicode="&#x11b;" horiz-adv-x="1052" 
d="M315 616h387q41 0 55.5 16.5t14.5 47.5q0 32 -3 62q-8 84 -58 149t-138 65t-141 -40q-54 -40 -76 -100q-42 -112 -41 -200zM100 494q0 242 120 388t351 146q107 0 187 -32q80 -30 122 -76q105 -114 105 -304q0 -78 -82 -77h-590q-8 -459 301 -459q111 0 179.5 57.5
t117.5 159.5l62 -33q-98 -289 -400 -289q-473 1 -473 519zM569.5 1286q20.5 0 63.5 31l211 158l39 -43l-240 -273q-47 -51 -73.5 -51t-73.5 51l-240 273l39 43l211 -158q43 -31 63.5 -31z" />
    <glyph glyph-name="Gcircumflex" unicode="&#x11c;" horiz-adv-x="1503" 
d="M98 682q0 311 154 514q195 252 629 252q268 0 440 -84v-322h-61q-61 334 -396.5 334t-464.5 -290q-71 -159 -71 -360q0 -340 158 -524q60 -70 163 -115.5t220.5 -45.5t175 22.5t75 45t17.5 73.5v277q0 55 -12.5 75.5t-54.5 32t-150 19.5v59h565v-59q-100 -10 -123 -29.5
t-23 -97.5v-404q-270 -86 -471 -86q-328 0 -516 131q-115 82 -184.5 235.5t-69.5 346.5zM878.5 1794q22.5 0 75.5 -49l238 -234l-27 -43l-219 125q-53 29 -67.5 29t-67.5 -29l-219 -125l-27 43l238 234q53 49 75.5 49z" />
    <glyph glyph-name="gcircumflex" unicode="&#x11d;" horiz-adv-x="1064" 
d="M317 692q0 -133 60.5 -201.5t151.5 -68.5t149.5 68.5t58.5 199.5t-60.5 198.5t-148.5 67.5t-149.5 -65.5t-61.5 -198.5zM281 -188.5q0 -106.5 80.5 -171t206.5 -64.5t213 63.5t87 178.5q0 197 -313 196q-150 0 -212 -48t-62 -154.5zM86 -197q0 107 87 159q68 41 149 67v4
q-72 8 -126.5 56t-54.5 104q0 109 189 182v4q-86 23 -153.5 98.5t-67.5 207.5t104 237.5t319 105.5q170 0 265 -63l262 84l16 -19l-41 -129l-162 -24q62 -61 62 -185q0 -126 -64 -204q-114 -138 -350 -138q-45 0 -104 6q-35 -10 -70 -35.5t-35 -64.5q0 -88 170 -88h164
q178 0 286.5 -71.5t108.5 -227.5q0 -182 -161 -281q-139 -84 -340 -84t-327 76t-126 223zM207 1151l239 272q47 51 74 51.5t74 -51.5l240 -272l-39 -43l-211 158q-43 31 -63.5 30.5t-63.5 -30.5l-211 -158z" />
    <glyph glyph-name="Gbreve" unicode="&#x11e;" horiz-adv-x="1503" 
d="M98 682q0 311 154 514q195 252 629 252q268 0 440 -84v-322h-61q-61 334 -396.5 334t-464.5 -290q-71 -159 -71 -360q0 -340 158 -524q60 -70 163 -115.5t220.5 -45.5t175 22.5t75 45t17.5 73.5v277q0 55 -12.5 75.5t-54.5 32t-150 19.5v59h565v-59q-100 -10 -123 -29.5
t-23 -97.5v-404q-270 -86 -471 -86q-328 0 -516 131q-115 82 -184.5 235.5t-69.5 346.5zM571 1782h58q5 -60 103 -98q60 -24 148 -24t146 24q97 39 102 98h58q0 -104 -69.5 -176t-237.5 -72t-238 72t-70 176z" />
    <glyph glyph-name="gbreve" unicode="&#x11f;" horiz-adv-x="1064" 
d="M317 692q0 -133 60.5 -201.5t151.5 -68.5t149.5 68.5t58.5 199.5t-60.5 198.5t-148.5 67.5t-149.5 -65.5t-61.5 -198.5zM281 -188.5q0 -106.5 80.5 -171t206.5 -64.5t213 63.5t87 178.5q0 197 -313 196q-150 0 -212 -48t-62 -154.5zM86 -197q0 107 87 159q68 41 149 67v4
q-72 8 -126.5 56t-54.5 104q0 109 189 182v4q-86 23 -153.5 98.5t-67.5 207.5t104 237.5t319 105.5q170 0 265 -63l262 84l16 -19l-41 -129l-162 -24q62 -61 62 -185q0 -126 -64 -204q-114 -138 -350 -138q-45 0 -104 6q-35 -10 -70 -35.5t-35 -64.5q0 -88 170 -88h164
q178 0 286.5 -71.5t108.5 -227.5q0 -182 -161 -281q-139 -84 -340 -84t-327 76t-126 223zM240 1442h49q4 -51 55 -98.5t176 -47.5t176.5 47.5t55.5 98.5h49q1 -204 -129 -256q-60 -24 -152 -23q-184 0 -238 92q-42 72 -42 187z" />
    <glyph glyph-name="Gdotaccent" unicode="&#x120;" horiz-adv-x="1503" 
d="M98 682q0 311 154 514q195 252 629 252q268 0 440 -84v-322h-61q-61 334 -396.5 334t-464.5 -290q-71 -159 -71 -360q0 -340 158 -524q60 -70 163 -115.5t220.5 -45.5t175 22.5t75 45t17.5 73.5v277q0 55 -12.5 75.5t-54.5 32t-150 19.5v59h565v-59q-100 -10 -123 -29.5
t-23 -97.5v-404q-270 -86 -471 -86q-328 0 -516 131q-115 82 -184.5 235.5t-69.5 346.5zM760 1612q0 45 31.5 77.5t87 32.5t87 -32.5t31.5 -77.5t-31.5 -79t-85.5 -34t-87 34t-33 79z" />
    <glyph glyph-name="gdotaccent" unicode="&#x121;" horiz-adv-x="1064" 
d="M317 692q0 -133 60.5 -201.5t151.5 -68.5t149.5 68.5t58.5 199.5t-60.5 198.5t-148.5 67.5t-149.5 -65.5t-61.5 -198.5zM281 -188.5q0 -106.5 80.5 -171t206.5 -64.5t213 63.5t87 178.5q0 197 -313 196q-150 0 -212 -48t-62 -154.5zM86 -197q0 107 87 159q68 41 149 67v4
q-72 8 -126.5 56t-54.5 104q0 109 189 182v4q-86 23 -153.5 98.5t-67.5 207.5t104 237.5t319 105.5q170 0 265 -63l262 84l16 -19l-41 -129l-162 -24q62 -61 62 -185q0 -126 -64 -204q-114 -138 -350 -138q-45 0 -104 6q-35 -10 -70 -35.5t-35 -64.5q0 -88 170 -88h164
q178 0 286.5 -71.5t108.5 -227.5q0 -182 -161 -281q-139 -84 -340 -84t-327 76t-126 223zM397 1284q0 47 33 81t90.5 34t90 -34t32.5 -81t-32.5 -82t-90 -35t-90.5 35t-33 82z" />
    <glyph glyph-name="Hcircumflex" unicode="&#x124;" horiz-adv-x="1634" 
d="M72 0v59q135 8 159.5 26.5t24.5 104.5v1037q0 86 -24.5 104.5t-159.5 26.5v59h571v-59q-133 -10 -158.5 -27.5t-25.5 -103.5v-451h717v451q0 86 -25 104.5t-160 26.5v59h572v-59q-133 -10 -159 -27.5t-26 -103.5v-1037q0 -86 26 -103t159 -28v-59h-572v59q135 8 160 26.5
t25 104.5v508h-717v-508q0 -86 25.5 -103t158.5 -28v-59h-571zM817 1794q23 0 76 -49l237 -234l-26 -43l-219 125q-53 29 -67.5 29t-67.5 -29l-220 -125l-26 43l237 234q53 49 76 49z" />
    <glyph glyph-name="hcircumflex" unicode="&#x125;" horiz-adv-x="1243" 
d="M43 0v59q106 8 129 25.5t23 93.5v1137q0 53 -12.5 69.5t-53.5 22.5l-78 10v51l320 52l14 -13v-635q158 104 226.5 130t144.5 26q143 0 223 -85t80 -241v-524q0 -76 23.5 -93t129.5 -26v-59h-499v59q106 8 129.5 25.5t23.5 93.5v484q0 256 -215 256q-78 0 -145.5 -43.5
t-92.5 -92.5t-26 -125v-479q0 -76 23.5 -93t130.5 -26v-59h-498zM626.5 1966q26.5 0 73.5 -51l240 -273l-39 -43l-211 158q-43 31 -63.5 31t-63.5 -31l-211 -158l-39 43l240 273q47 51 73.5 51z" />
    <glyph glyph-name="Hbar" unicode="&#x126;" horiz-adv-x="1634" 
d="M459 776h717v379h-717v-379zM72 0v59q136 9 160 27t24 104v965h-158v72h158q0 86 -25 104t-159 27v59h571v-59q-133 -10 -159 -28t-25 -103h717q0 86 -25 104t-160 27v59h572v-59q-133 -10 -159 -28t-26 -103h158v-72h-158v-965q0 -86 26 -103t159 -28v-59h-572v59
q135 9 160 27t25 104v508h-717v-508q-1 -86 25 -103t159 -28v-59h-571z" />
    <glyph glyph-name="hbar" unicode="&#x127;" horiz-adv-x="1243" 
d="M43 0v59q106 7 129 25t23 94v977h-154v72h154v88q-1 53 -13 69t-53 23l-78 10v51l320 52l14 -13v-280h453v-72h-453v-293q159 104 227 130t144 26q143 0 223 -85t80 -241v-514q-1 -76 23 -93t130 -26v-59h-499v59q106 7 130 25t23 94v473q0 256 -215 256q-77 0 -145 -43
t-100 -106q-18 -35 -19 -111v-469q0 -76 24 -93t130 -26v-59h-498z" />
    <glyph glyph-name="Itilde" unicode="&#x128;" horiz-adv-x="714" 
d="M72 0v59q136 9 160 27t24 104v1037q0 86 -25 104t-159 27v59h571v-59q-133 -10 -159 -28t-25 -103v-1037q-1 -86 25 -103t159 -28v-59h-571zM228 1708q52 0 157 -39q121 -39 159 -39t64 18t72 76l41 -22q-51 -100 -97 -148t-100 -47q-54 0 -174 39q-119 39 -169 39
q-50 1 -82 -23t-66 -81l-39 26q42 81 80 129q56 72 154 72z" />
    <glyph glyph-name="itilde" unicode="&#x129;" horiz-adv-x="595" 
d="M179 1380q52 0 157 -39q121 -39 159 -39q39 0 65 19q26 18 71 76l41 -23q-49 -96 -90 -141q-58 -53 -110 -53t-171 39t-169 39t-82 -24t-66 -81l-39 27q77 151 145 183q36 17 89 17zM66 0v59q110 9 132 25t21 94v645q0 53 -12 69t-53 23l-78 11v51l321 51l15 -12v-838
q0 -78 22 -94t131 -25v-59h-499z" />
    <glyph glyph-name="Imacron" unicode="&#x12a;" horiz-adv-x="714" 
d="M72 0v59q135 8 159.5 26.5t24.5 104.5v1037q0 86 -24.5 104.5t-159.5 26.5v59h571v-59q-133 -10 -158.5 -27.5t-25.5 -103.5v-1037q0 -86 25.5 -103t158.5 -28v-59h-571zM33 1554v121h647v-121h-647z" />
    <glyph glyph-name="Ibreve" unicode="&#x12c;" horiz-adv-x="714" 
d="M72 0v59q135 8 159.5 26.5t24.5 104.5v1037q0 86 -24.5 104.5t-159.5 26.5v59h571v-59q-133 -10 -158.5 -27.5t-25.5 -103.5v-1037q0 -86 25.5 -103t158.5 -28v-59h-571zM49 1782h57q5 -58 103 -98q59 -24 147 -24t148 24q98 39 102 98h58q0 -104 -70 -176t-238 -72
t-237.5 72t-69.5 176z" />
    <glyph glyph-name="Idotaccent" unicode="&#x130;" horiz-adv-x="714" 
d="M72 0v59q135 8 159.5 26.5t24.5 104.5v1037q0 86 -24.5 104.5t-159.5 26.5v59h571v-59q-133 -10 -158.5 -27.5t-25.5 -103.5v-1037q0 -86 25.5 -103t158.5 -28v-59h-571zM238 1612q0 45 31.5 77.5t87 32.5t87 -32.5t31.5 -77.5t-31.5 -79t-85.5 -34t-87 34t-33 79z" />
    <glyph glyph-name="dotlessi" unicode="&#x131;" horiz-adv-x="595" 
d="M66 0v59q111 8 132 24.5t21 94.5v645q0 53 -12 69.5t-53 22.5l-78 11v51l321 51l15 -12v-838q0 -78 21.5 -94t131.5 -25v-59h-499z" />
    <glyph glyph-name="Jcircumflex" unicode="&#x134;" horiz-adv-x="716" 
d="M274 281v946q0 86 -24.5 104.5t-159.5 26.5v59h572v-59q-133 -10 -159 -27.5t-26 -103.5v-934q0 -182 -41 -294t-166 -169t-260 -63l-10 51q129 33 190 106q84 102 84 357zM376.5 1794q22.5 0 76.5 -49l237 -234l-26 -43l-220 125q-53 29 -67.5 29t-67.5 -29l-219 -125
l-27 43l238 234q53 49 75.5 49z" />
    <glyph glyph-name="Lacute" unicode="&#x139;" horiz-adv-x="1163" 
d="M72 0v59q135 8 159.5 26.5t24.5 104.5v1037q0 86 -24.5 104.5t-159.5 26.5v59h583v-59q-143 -10 -169.5 -27.5t-26.5 -103.5v-981q0 -78 10 -109t41 -45q53 -20 226 -20t253 53t109 242h61l-24 -367h-1063zM412 1565l297 202q92 63 124 57t54 -41.5t20 -65.5t-27.5 -45
t-97.5 -38l-348 -114z" />
    <glyph glyph-name="lacute" unicode="&#x13a;" horiz-adv-x="571" 
d="M41 0v59q111 8 132.5 24.5t21.5 94.5v1137q0 57 -12.5 73.5t-53.5 20.5l-78 8v51l322 52l14 -13v-1329q0 -78 21.5 -94t132.5 -25v-59h-500zM500 1972q25 0 52.5 -29.5t27.5 -58.5q0 -49 -115 -110l-309 -172l-31 40l244 246q82 84 131 84z" />
    <glyph glyph-name="Lcaron" unicode="&#x13d;" horiz-adv-x="1163" 
d="M72 0v59q136 9 160 27t24 104v1037q0 86 -25 104t-159 27v59h583v-59q-143 -10 -170 -28t-26 -103v-981q0 -78 10 -109t41 -45q53 -20 226 -20t253 53t109 242h61l-24 -367h-1063zM834 1343q0 41 -48 89t-47 90q0 40 29 68t83 28t93 -52t39 -120q0 -116 -97 -231
q-34 -38 -91 -93l-35 33q74 104 74 188z" />
    <glyph glyph-name="lcaron" unicode="&#x13e;" horiz-adv-x="673" 
d="M41 0v59q111 9 133 25t21 94v1137q-1 57 -13 73t-53 21l-78 8v51l322 52l14 -13v-1329q0 -78 22 -94t132 -25v-59h-500zM557 1343q0 41 -47 89t-47 90q0 40 29 68q28 28 82 28t94 -52t39 -120q0 -118 -98 -231q-34 -38 -91 -93l-35 33q74 104 74 188z" />
    <glyph glyph-name="Lslash" unicode="&#x141;" horiz-adv-x="1175" 
d="M268 1227q0 86 -24 104q-25 18 -160 27v59h584v-59q-143 -10 -170 -28t-27 -103v-406l262 195v-94l-262 -195v-481q0 -78 10 -109t41 -45q53 -20 226 -20t253 53t109 242h61l-24 -367h-1063v59q135 9 160 27t24 104v404l-194 -143v94l194 143v539z" />
    <glyph glyph-name="lslash" unicode="&#x142;" horiz-adv-x="602" 
d="M207 1315q0 57 -12.5 73.5t-53.5 20.5l-78 8v51l322 52l14 -13v-596l201 170v-102l-201 -170v-631q0 -78 21.5 -94t132.5 -25v-59h-500v59q111 8 132.5 24.5t21.5 94.5v490l-178 -150v103l178 149v545z" />
    <glyph glyph-name="Nacute" unicode="&#x143;" horiz-adv-x="1597" 
d="M72 0v59q90 6 124.5 24.5t46 95.5t11.5 237v811q0 86 -24.5 104.5t-159.5 26.5v59h393q782 -1113 803 -1134v718q0 160 -11.5 236.5t-49.5 94.5t-148 26v59h485v-59q-90 -6 -125 -24.5t-46 -95.5t-11 -237v-1001h-135q-330 471 -873 1233h-4v-817q0 -160 11 -236.5
t49 -94t149 -26.5v-59h-485zM604 1565l297 202q92 63 124 57.5t54.5 -41.5t20.5 -66t-27.5 -45t-97.5 -38l-348 -114z" />
    <glyph glyph-name="nacute" unicode="&#x144;" horiz-adv-x="1267" 
d="M66 0v59q111 8 132 24.5t21 94.5v645q0 53 -12 69.5t-53 22.5l-78 11v51l305 51l29 -156q50 38 118 76.5t86 44.5q18 7 57.5 21t110.5 14q141 0 221 -86t80 -240v-524q0 -78 21.5 -94t132.5 -25v-59h-500v59q111 8 132.5 24.5t21.5 94.5v484q0 256 -215 256
q-78 0 -143.5 -42t-100.5 -106q-20 -41 -20 -113v-479q0 -78 21.5 -94t131.5 -25v-59h-499zM860 1481q25 0 52.5 -30t27.5 -58q0 -49 -115 -111l-309 -172l-31 41l244 246q82 84 131 84z" />
    <glyph glyph-name="Ncommaaccent" unicode="&#x145;" horiz-adv-x="1597" 
d="M782 -332q0 33 -31 79q-32 46 -32 79q1 32 25 58t67 26t76 -41t33 -103t-34 -121q-34 -58 -67 -91t-96 -89l-33 31q92 96 92 172zM72 0v59q90 7 125 25t46 95t11 237v811q0 86 -25 104t-159 27v59h393q782 -1113 803 -1134v718q0 161 -12 237t-49 94q-38 18 -148 26v59
h485v-59q-90 -6 -125 -24t-46 -96q-11 -77 -11 -237v-1001h-135q-330 471 -873 1233h-4v-817q0 -160 11 -236t49 -94t149 -27v-59h-485z" />
    <glyph glyph-name="ncommaaccent" unicode="&#x146;" horiz-adv-x="1267" 
d="M627 -332q0 33 -32 79t-32 79q0 32 25 58q26 26 68 26t75 -41t33 -103t-34 -121q-34 -58 -66 -91t-97 -89l-32 31q92 96 92 172zM66 0v59q110 9 132 25t21 94v645q0 53 -12 69t-53 23l-78 11v51l305 51l29 -156q45 34 115 74q71 41 88 47q17 7 58 21t111 14
q142 0 222 -86t79 -240v-524q0 -78 22 -94t132 -25v-59h-500v59q111 9 133 25t21 94v484q0 256 -215 256q-78 0 -144 -42t-93 -94t-27 -125v-479q0 -78 22 -94t131 -25v-59h-499z" />
    <glyph glyph-name="Ncaron" unicode="&#x147;" horiz-adv-x="1597" 
d="M72 0v59q90 6 124.5 24.5t46 95.5t11.5 237v811q0 86 -24.5 104.5t-159.5 26.5v59h393q782 -1113 803 -1134v718q0 160 -11.5 236.5t-49.5 94.5t-148 26v59h485v-59q-90 -6 -125 -24.5t-46 -95.5t-11 -237v-1001h-135q-330 471 -873 1233h-4v-817q0 -160 11 -236.5
t49 -94t149 -26.5v-59h-485zM807 1481q-23 0 -76 49l-237 233l26 43l219 -125q53 -29 67.5 -28.5t67.5 28.5l220 125l26 -43l-237 -233q-53 -49 -76 -49z" />
    <glyph glyph-name="ncaron" unicode="&#x148;" horiz-adv-x="1267" 
d="M66 0v59q111 8 132 24.5t21 94.5v645q0 53 -12 69.5t-53 22.5l-78 11v51l305 51l29 -156q50 38 118 76.5t86 44.5q18 7 57.5 21t110.5 14q141 0 221 -86t80 -240v-524q0 -78 21.5 -94t132.5 -25v-59h-500v59q111 8 132.5 24.5t21.5 94.5v484q0 256 -215 256
q-78 0 -143.5 -42t-100.5 -106q-20 -41 -20 -113v-479q0 -78 21.5 -94t131.5 -25v-59h-499zM651.5 1286q20.5 0 63.5 31l211 158l39 -43l-240 -273q-47 -51 -73.5 -51t-73.5 51l-240 273l39 43l211 -158q43 -31 63.5 -31z" />
    <glyph glyph-name="Eng" unicode="&#x14a;" horiz-adv-x="1558" 
d="M1182 1030q0 291 -279 291q-135 0 -248 -51q-197 -86 -196 -203v-877q-1 -86 25 -104t163 -27v-59h-575v59q136 9 160 27t24 104v1037q0 86 -25 104t-159 27v59h387v-188q92 87 226 153t278 66q211 0 316 -111t105 -368v-887q0 -295 -108 -436q-108 -142 -270 -142
t-218 40t-86 90t-30 90t39 65t82 25t60 -37t18 -82t25 -82t75 -37q125 0 168 114t43 330v1010z" />
    <glyph glyph-name="eng" unicode="&#x14b;" horiz-adv-x="1247" 
d="M66 0v59q111 8 132 24.5t21 94.5v645q0 53 -12 69.5t-53 22.5l-78 11v51l305 51l29 -156q50 38 118 76.5t86 44.5q18 7 57.5 21t110.5 14q141 0 221 -86t80 -240v-753q0 -219 -63 -316q-84 -129 -242 -129q-113 0 -181.5 46.5t-68.5 96.5t31 76.5t68 26.5t53 -35
q35 -82 68.5 -110.5t70.5 -28.5q94 0 82 215l-10 209v662q0 256 -215 256q-78 0 -143.5 -42t-100.5 -106q-20 -41 -20 -113v-479q0 -78 21.5 -94t131.5 -25v-59h-499z" />
    <glyph glyph-name="Omacron" unicode="&#x14c;" horiz-adv-x="1560" 
d="M328 709q0 -125 20.5 -233.5t67.5 -211t140 -163t224 -60.5t224.5 60.5t140.5 163t67.5 211t20.5 233.5t-20.5 233.5t-67.5 210.5t-140.5 162.5t-224.5 60.5t-224 -60.5t-140 -162.5t-67.5 -210.5t-20.5 -233.5zM98 708.5q0 348.5 174 540.5q176 199 508 199t507 -196
t175 -544t-174 -540q-176 -199 -508 -199q-330 -1 -506 195t-176 544.5zM457 1554v121h647v-121h-647z" />
    <glyph glyph-name="omacron" unicode="&#x14d;" horiz-adv-x="1181" 
d="M313 502q0 -217 70 -336t209 -119t208.5 119t69.5 336t-69.5 335.5t-208.5 118.5t-209 -118.5t-70 -335.5zM100 502q0 252 124 389t368 137t367.5 -137t123.5 -389t-123.5 -389.5t-367.5 -137.5t-368 137.5t-124 389.5zM297 1223v120h590v-120h-590z" />
    <glyph glyph-name="Obreve" unicode="&#x14e;" horiz-adv-x="1560" 
d="M328 709q0 -125 20.5 -233.5t67.5 -211t140 -163t224 -60.5t224.5 60.5t140.5 163t67.5 211t20.5 233.5t-20.5 233.5t-67.5 210.5t-140.5 162.5t-224.5 60.5t-224 -60.5t-140 -162.5t-67.5 -210.5t-20.5 -233.5zM98 708.5q0 348.5 174 540.5q176 199 508 199t507 -196
t175 -544t-174 -540q-176 -199 -507.5 -199t-507 195.5t-175.5 544zM473 1782h57q4 -60 102 -98q60 -24 148 -24t148 24q98 39 102 98h57q0 -104 -69.5 -176t-237.5 -72t-237.5 72t-69.5 176z" />
    <glyph glyph-name="obreve" unicode="&#x14f;" horiz-adv-x="1181" 
d="M313 502q0 -217 70 -336t209 -119t208.5 119t69.5 336t-69.5 335.5t-208.5 118.5t-209 -118.5t-70 -335.5zM100 502q0 252 124 389t368 137t367.5 -137t123.5 -389t-123.5 -389.5t-367.5 -137.5t-368 137.5t-124 389.5zM311 1442h49q4 -51 55.5 -98.5t176.5 -47.5
t176 47.5t55 98.5h49q0 -115 -42 -187q-54 -92 -238 -92t-238 92q-44 74 -43 187z" />
    <glyph glyph-name="Ohungarumlaut" unicode="&#x150;" horiz-adv-x="1560" 
d="M328 709q0 -125 20.5 -233.5t67.5 -211t140 -163t224 -60.5t224.5 60.5t140.5 163t67.5 211t20.5 233.5t-20.5 233.5t-67.5 210.5t-140.5 162.5t-224.5 60.5t-224 -60.5t-140 -162.5t-67.5 -210.5t-20.5 -233.5zM98 708.5q0 348.5 174 540.5q176 199 508 199t507 -196
t175 -544t-174 -540q-176 -199 -507.5 -199t-507 195.5t-175.5 544zM779 1831q38 0 68 -33t30 -61.5t-19.5 -47t-77.5 -51.5l-207 -114l-38 45l143 182q63 80 101 80zM1127.5 1831q38.5 0 68 -33t29.5 -61.5t-19.5 -47t-77.5 -51.5l-206 -114l-39 45l143 182q63 80 101.5 80
z" />
    <glyph glyph-name="ohungarumlaut" unicode="&#x151;" horiz-adv-x="1181" 
d="M313 502q0 -217 70 -336t209 -119t208.5 119t69.5 336t-69.5 335.5t-208.5 118.5t-209 -118.5t-70 -335.5zM100 502q0 252 124 389t368 137t367.5 -137t123.5 -389t-123.5 -389.5t-367.5 -137.5t-368 137.5t-124 389.5zM856 1536q37 0 67.5 -22.5t30.5 -60.5t-63 -122
l-168 -213l-49 27l94 295q16 49 33.5 72.5t54.5 23.5zM565 1536q37 0 68 -22.5t31 -60.5t-64 -122l-168 -213l-49 27l94 295q16 49 33.5 72.5t54.5 23.5z" />
    <glyph glyph-name="OE" unicode="&#x152;" horiz-adv-x="2099" 
d="M328 712q0 -124 26.5 -229.5t85 -202t171 -152.5t256 -56t195.5 22.5t52 85.5v1059q0 61 -56.5 84t-195.5 23t-250.5 -53.5t-171 -148.5t-86 -201.5t-26.5 -230.5zM98 702q0 209 80 362t207 232q195 121 543 121h1036v-336h-61q-23 162 -80.5 213.5t-229.5 51.5h-200
q-47 0 -61.5 -14.5t-14.5 -59.5v-496h287q66 0 102.5 8.5t56 34t26.5 51t15 82.5h62v-432h-62q-8 59 -15 84t-26.5 51.5t-56.5 34.5t-102 8h-287v-442q0 -131 55 -157.5t232.5 -26.5t259.5 51t114 231h62l-25 -354h-1097q-352 0 -533 115q-129 82 -208 230t-79 357z" />
    <glyph glyph-name="oe" unicode="&#x153;" horiz-adv-x="1806" 
d="M1069 616h387q41 0 55.5 16.5t14.5 47.5q0 32 -3 62q-8 84 -58 149t-138 65t-141 -40t-76 -100q-41 -108 -41 -200zM313 502q0 -217 70 -336t208 -119t207.5 119t69.5 336t-69.5 335.5t-207.5 118.5t-208 -118.5t-70 -335.5zM100 502q0 252 124 389t375 137t372 -164
q129 164 354 164q106 0 186 -32q80 -30 122 -76q106 -115 106 -304q0 -78 -82 -77h-590q-8 -459 301 -459q111 0 179.5 57.5t117.5 159.5l61 -33q-98 -287 -399 -289q-256 -2 -364 160q-125 -160 -370 -160t-369 137.5t-124 389.5z" />
    <glyph glyph-name="Racute" unicode="&#x154;" horiz-adv-x="1318" 
d="M459 739h162q311 0 311 310q0 165 -94 231q-92 66 -210 66t-143.5 -18.5t-25.5 -84.5v-504zM72 0v59q135 8 159.5 26.5t24.5 104.5v1037q0 86 -24.5 104.5t-159.5 26.5v59h598q254 0 368 -95q114 -96 113.5 -246t-92.5 -245.5t-242 -123.5v-5q150 -38 203 -124
q52 -86 72 -230t63 -211t152 -78v-59h-166q-188 0 -230 176q-12 51 -32.5 169t-26.5 144q-45 178 -252 179h-141v-478q0 -90 4 -97t9 -10t13.5 -6t15.5 -5t22.5 -4t24.5 -3.5t30.5 -2.5t33.5 -3v-59h-540zM391 1565l297 202q92 63 124 57t54.5 -41.5t20.5 -65.5t-27.5 -45
t-97.5 -38l-348 -114z" />
    <glyph glyph-name="racute" unicode="&#x155;" horiz-adv-x="796" 
d="M66 0v59q109 8 131 24.5t22 94.5v645q0 53 -12 69.5t-53 22.5l-78 11v51l311 51l25 -164q109 94 163 129t108 35t81 -30.5t27 -73.5t-29 -77t-59 -34t-48 10q-82 45 -126 45t-80.5 -52t-36.5 -159v-479q0 -78 28.5 -94t165.5 -25v-59h-540zM694 1481q25 0 52.5 -30
t27.5 -58q0 -49 -115 -111l-309 -172l-31 41l244 246q82 84 131 84z" />
    <glyph glyph-name="Rcaron" unicode="&#x158;" horiz-adv-x="1318" 
d="M459 739h162q311 0 311 310q0 164 -93.5 230.5t-211 66.5t-143 -18.5t-25.5 -84.5v-504zM72 0v59q135 8 159.5 26.5t24.5 104.5v1037q0 86 -24.5 104.5t-159.5 26.5v59h598q254 0 367.5 -95t113.5 -245.5t-92 -246t-242 -123.5v-5q150 -37 203 -123.5t72.5 -230
t62.5 -211t152 -78.5v-59h-166q-188 0 -230 176q-12 51 -32.5 169t-26.5 144q-45 178 -252 179h-141v-478q0 -90 4 -97t9 -10t13.5 -6t15.5 -5t22.5 -4t24.5 -3.5t30.5 -2.5t33.5 -3v-59h-540zM594 1481q-23 0 -76 49l-237 233l26 43l219 -125q53 -29 67.5 -28.5t68.5 28.5
l219 125l26 -43l-237 -233q-53 -49 -76 -49z" />
    <glyph glyph-name="rcaron" unicode="&#x159;" horiz-adv-x="796" 
d="M66 0v59q109 8 131 24.5t22 94.5v645q0 53 -12 69.5t-53 22.5l-78 11v51l311 51l25 -164q109 94 163 129t108 35t81 -30.5t27 -73.5t-29 -77t-59 -34t-48 10q-82 45 -126 45t-80.5 -52t-36.5 -159v-479q0 -78 28.5 -94t165.5 -25v-59h-540zM485.5 1286q20.5 0 63.5 31
l211 158l39 -43l-240 -273q-47 -51 -73.5 -51t-73.5 51l-240 273l39 43l211 -158q43 -31 63.5 -31z" />
    <glyph glyph-name="Sacute" unicode="&#x15a;" horiz-adv-x="1107" 
d="M536.5 41q139.5 0 218.5 76t79 207q0 84 -56.5 154.5t-112 101t-116.5 55.5l-37 14q-182 63 -284.5 158.5t-102.5 245.5q0 193 135 294t353.5 101t330.5 -90v-289h-63q-49 307 -308 307q-125 0 -193 -72q-68 -70 -69 -172q0 -185 252 -278l66 -25q199 -74 301 -174
t102 -272t-126 -293t-380 -121q-115 0 -227.5 32t-175.5 91l-21 328h66q39 -176 134 -277.5t234.5 -101.5zM393 1565l297 202q92 63 124 57.5t54.5 -41.5t20.5 -66t-27.5 -45t-97.5 -38l-348 -114z" />
    <glyph glyph-name="sacute" unicode="&#x15b;" horiz-adv-x="892" 
d="M455 47q82 0 136 46q54 45 54 109q0 114 -69.5 159.5t-183 80.5t-195.5 102.5t-82 197.5t101 208t270 78t266 -70v-239h-60q-12 102 -69.5 169.5t-148.5 67.5t-143 -44t-52 -109t41.5 -106.5t78.5 -55.5t99 -35q168 -51 244.5 -124.5t76.5 -204.5t-102.5 -216.5
t-296 -85.5t-303.5 99l-21 268h60q70 -295 299 -295zM694 1481q25 0 52.5 -30t27.5 -58q0 -49 -115 -111l-309 -172l-31 41l244 246q82 84 131 84z" />
    <glyph glyph-name="Scircumflex" unicode="&#x15c;" horiz-adv-x="1107" 
d="M536.5 41q139.5 0 218.5 76t79 207q0 84 -56.5 154.5t-112 101t-116.5 55.5l-37 14q-182 63 -284.5 158.5t-102.5 245.5q0 193 135 294t353.5 101t330.5 -90v-289h-63q-49 307 -308 307q-125 0 -193 -72q-68 -70 -69 -172q0 -185 252 -278l66 -25q199 -74 301 -174
t102 -272t-126 -293t-380 -121q-115 0 -227.5 32t-175.5 91l-21 328h66q39 -176 134 -277.5t234.5 -101.5zM595.5 1794q22.5 0 76.5 -49l237 -234l-26 -43l-219 125q-53 29 -67.5 29t-68.5 -29l-219 -125l-26 43l237 234q53 49 75.5 49z" />
    <glyph glyph-name="scircumflex" unicode="&#x15d;" horiz-adv-x="892" 
d="M455 47q82 0 136 46q54 45 54 109q0 114 -69.5 159.5t-183 80.5t-195.5 102.5t-82 197.5t101 208t270 78t266 -70v-239h-60q-12 102 -69.5 169.5t-148.5 67.5t-143 -44t-52 -109t41.5 -106.5t78.5 -55.5t99 -35q168 -51 244.5 -124.5t76.5 -204.5t-102.5 -216.5
t-296 -85.5t-303.5 99l-21 268h60q70 -295 299 -295zM172 1151l240 272q47 51 73.5 51.5t73.5 -51.5l240 -272l-39 -43l-211 158q-43 31 -63.5 30.5t-63.5 -30.5l-211 -158z" />
    <glyph glyph-name="Scedilla" unicode="&#x15e;" horiz-adv-x="1107" 
d="M536 41q140 0 219 76t79 207q0 84 -56 154t-112 102q-55 31 -117 55l-37 14q-182 63 -284 159t-103 245q0 193 135 294q136 101 354 101t330 -90v-289h-63q-49 307 -308 307q-125 0 -193 -72t-69 -172q0 -185 252 -278l66 -25q199 -74 301 -174t102 -272t-123 -290
t-359 -123l-48 -83q182 -25 182 -178q0 -55 -29 -94t-94 -63t-120 -23q-54 0 -97 6v53q180 0 180 115q0 104 -127 111l-8 14l79 143q-86 6 -184 34t-161 87l-21 328h66q39 -176 134 -278q94 -102 234 -101z" />
    <glyph glyph-name="scedilla" unicode="&#x15f;" horiz-adv-x="892" 
d="M455 47q82 0 136 46q54 45 54 109q0 115 -77 165q-52 34 -171 72q-118 38 -200 106q-82 67 -82 197t101 208t270 78t266 -70v-239h-60q-12 102 -69 170q-57 67 -149 67t-143 -44q-52 -44 -52 -109t42 -107q43 -42 79 -55q36 -14 98 -35q168 -51 244 -125q76 -75 77 -205
q-1 -130 -99 -212t-257 -88l-51 -89q182 -25 182 -178q0 -55 -29 -94t-94 -63t-120 -23q-54 0 -97 6v53q180 0 180 115q0 104 -127 111l-8 14l82 149q-169 12 -264 97l-21 268h60q70 -295 299 -295z" />
    <glyph glyph-name="Scaron" unicode="&#x160;" horiz-adv-x="1107" 
d="M536.5 41q139.5 0 218.5 76t79 207q0 84 -56.5 154.5t-112 101t-116.5 55.5l-37 14q-182 63 -284.5 158.5t-102.5 245.5q0 193 135 294t353.5 101t330.5 -90v-289h-63q-49 307 -308 307q-125 0 -193 -72q-68 -70 -69 -172q0 -185 252 -278l66 -25q199 -74 301 -174
t102 -272t-126 -293t-380 -121q-115 0 -227.5 32t-175.5 91l-21 328h66q39 -176 134 -277.5t234.5 -101.5zM555 1481q-23 0 -76 49l-237 233l26 43l219 -125q53 -29 67.5 -28.5t68.5 28.5l219 125l26 -43l-237 -233q-53 -49 -76 -49z" />
    <glyph glyph-name="scaron" unicode="&#x161;" horiz-adv-x="892" 
d="M455 47q82 0 136 46q54 45 54 109q0 114 -69.5 159.5t-183 80.5t-195.5 102.5t-82 197.5t101 208t270 78t266 -70v-239h-60q-12 102 -69.5 169.5t-148.5 67.5t-143 -44t-52 -109t41.5 -106.5t78.5 -55.5t99 -35q168 -51 244.5 -124.5t76.5 -204.5t-102.5 -216.5
t-296 -85.5t-303.5 99l-21 268h60q70 -295 299 -295zM466.5 1286q20.5 0 63.5 31l211 158l39 -43l-239 -273q-47 -51 -74 -51t-74 51l-239 273l39 43l210 -158q43 -31 63.5 -31z" />
    <glyph glyph-name="Tcommaaccent" unicode="&#x162;" horiz-adv-x="1271" 
d="M45 1077v340h1182v-340h-62q-18 170 -73 219t-234 50h-121v-1156q0 -86 31 -104t195 -27v-59h-287l-66 -113q182 -25 183 -178q0 -55 -29 -94t-95 -63q-66 -23 -120 -23q-53 0 -96 6v53q180 0 180 115q0 104 -127 111l-8 14l94 172h-283v59q164 9 195 27t31 104v1156
h-121q-178 0 -234 -50t-74 -219h-61z" />
    <glyph glyph-name="tcommaaccent" unicode="&#x163;" horiz-adv-x="704" 
d="M63 922v82h156l125 258h59v-258h265v-82h-265v-635q0 -205 136 -205q82 0 145 27l16 -43q-145 -90 -262 -91h-4l-51 -88q182 -25 182 -178q-1 -55 -29 -94t-94 -63q-66 -23 -120 -23t-97 6v53q180 0 181 115q0 104 -127 111l-9 14l88 159q-26 9 -62 29t-60 69
q-25 50 -25 124v713h-148z" />
    <glyph glyph-name="Tcaron" unicode="&#x164;" horiz-adv-x="1271" 
d="M45 1077v340h1182v-340h-62q-18 170 -73.5 219.5t-233.5 49.5h-121v-1156q0 -86 31 -104t195 -27v-59h-654v59q164 8 195 26.5t31 104.5v1156h-121q-178 0 -233.5 -49.5t-74.5 -219.5h-61zM635 1481q-23 0 -76 49l-237 233l26 43l219 -125q53 -29 67.5 -28.5t67.5 28.5
l220 125l26 -43l-237 -233q-53 -49 -76 -49z" />
    <glyph glyph-name="tcaron" unicode="&#x165;" horiz-adv-x="716" 
d="M580 1343q0 41 -48 89t-47 90q0 40 29 68t83 28t93 -52t39 -120q0 -116 -97 -231q-34 -38 -91 -93l-35 33q74 104 74 188zM63 922v82h156l125 258h59v-258h265v-82h-265v-635q0 -205 136 -205q82 0 145 27l16 -43q-145 -90 -262 -91q-68 0 -139 38q-39 22 -63 72
q-25 50 -25 124v713h-148z" />
    <glyph glyph-name="Utilde" unicode="&#x168;" horiz-adv-x="1619" 
d="M59 1417h572v-59q-133 -10 -159 -27.5t-26 -103.5v-664q0 -276 94.5 -399t270.5 -123t270 123q92 123 93 399v664q0 86 -25 104.5t-160 26.5v59h572v-59q-133 -10 -159 -27.5t-26 -103.5v-705q0 -188 -55 -303q-117 -250 -511 -250t-511 250q-55 111 -55 299v709
q0 86 -25 104.5t-160 26.5v59zM689 1708q52 0 157 -39q121 -39 158.5 -39t64.5 18.5t72 75.5l41 -22q-51 -100 -97.5 -147.5t-100.5 -47.5t-173 39t-169 39t-82 -23.5t-66 -80.5l-39 26q77 151 145 183q37 18 89 18z" />
    <glyph glyph-name="utilde" unicode="&#x169;" horiz-adv-x="1241" 
d="M486 1380q52 0 157 -39q121 -39 159 -38.5t64.5 18.5t71.5 76l41 -23q-49 -96 -90 -141q-57 -53 -109.5 -53t-171.5 39t-169 38.5t-81.5 -24t-66.5 -80.5l-39 27q78 152 145 183q37 17 89 17zM389 319q0 -115 56.5 -174t143.5 -59t155.5 42t103.5 112q16 33 16 122v461
q0 53 -12 69.5t-53 22.5l-78 11v51l321 51l15 -12v-838q0 -78 22.5 -94t130.5 -25v-59h-327l-21 123q-2 -2 -76 -47q-165 -101 -296.5 -101t-212 72t-80.5 236v540q0 53 -12.5 69.5t-53.5 22.5l-78 11v51l322 51l14 -12v-697z" />
    <glyph glyph-name="Umacron" unicode="&#x16a;" horiz-adv-x="1619" 
d="M59 1417h572v-59q-133 -10 -159 -27.5t-26 -103.5v-664q0 -276 94.5 -399t270.5 -123t270 123q92 123 93 399v664q0 86 -25 104.5t-160 26.5v59h572v-59q-133 -10 -159 -27.5t-26 -103.5v-705q0 -188 -55 -303q-117 -250 -511 -250t-511 250q-55 111 -55 299v709
q0 86 -25 104.5t-160 26.5v59zM487 1554v121h648v-121h-648z" />
    <glyph glyph-name="umacron" unicode="&#x16b;" horiz-adv-x="1241" 
d="M389 319q0 -115 56.5 -174t143.5 -59t155.5 42t103.5 112q16 33 16 122v461q0 53 -12 69.5t-53 22.5l-78 11v51l321 51l15 -12v-838q0 -78 22.5 -94t130.5 -25v-59h-327l-21 123q-2 -2 -76 -47q-165 -101 -296.5 -101t-212 72t-80.5 236v540q0 53 -12.5 69.5t-53.5 22.5
l-78 11v51l322 51l14 -12v-697zM332 1223v120h590v-120h-590z" />
    <glyph glyph-name="Ubreve" unicode="&#x16c;" horiz-adv-x="1619" 
d="M59 1417h572v-59q-133 -10 -159 -27.5t-26 -103.5v-664q0 -276 94.5 -399t270.5 -123t270 123q92 123 93 399v664q0 86 -25 104.5t-160 26.5v59h572v-59q-133 -10 -159 -27.5t-26 -103.5v-705q0 -188 -55 -303q-117 -250 -511 -250t-511 250q-55 111 -55 299v709
q0 86 -25 104.5t-160 26.5v59zM504 1782h57q5 -60 103 -98q60 -24 148 -24q86 0 146 24q98 39 103 98h57q0 -104 -69.5 -176t-237.5 -72t-237.5 72t-69.5 176z" />
    <glyph glyph-name="ubreve" unicode="&#x16d;" horiz-adv-x="1241" 
d="M389 319q0 -115 56.5 -174t143.5 -59t155.5 42t103.5 112q16 33 16 122v461q0 53 -12 69.5t-53 22.5l-78 11v51l321 51l15 -12v-838q0 -78 22.5 -94t130.5 -25v-59h-327l-21 123q-2 -2 -76 -47q-165 -101 -296.5 -101t-212 72t-80.5 236v540q0 53 -12.5 69.5t-53.5 22.5
l-78 11v51l322 51l14 -12v-697zM346 1442h49q4 -51 55.5 -98.5t176.5 -47.5t176 47.5t55 98.5h49q-1 -115 -43 -187q-54 -92 -237 -92t-238 92q-43 72 -43 187z" />
    <glyph glyph-name="Uring" unicode="&#x16e;" horiz-adv-x="1619" 
d="M59 1417h572v-59q-133 -10 -159 -27.5t-26 -103.5v-664q0 -276 94.5 -399t270.5 -123t270 123q92 123 93 399v664q0 86 -25 104.5t-160 26.5v59h572v-59q-133 -10 -159 -27.5t-26 -103.5v-705q0 -188 -55 -303q-117 -250 -511 -250t-511 250q-55 111 -55 299v709
q0 86 -25 104.5t-160 26.5v59zM709 1671q0 -139 102 -139t102 139t-102 139t-102 -139zM590 1671.5q0 106.5 63.5 156.5t157.5 50t157.5 -50t63.5 -156.5t-63.5 -157t-157.5 -50.5t-157.5 50.5t-63.5 157z" />
    <glyph glyph-name="uring" unicode="&#x16f;" horiz-adv-x="1241" 
d="M389 319q0 -115 56.5 -174t143.5 -59t155.5 42t103.5 112q16 33 16 122v461q0 53 -12 69.5t-53 22.5l-78 11v51l321 51l15 -12v-838q0 -78 22.5 -94t130.5 -25v-59h-327l-21 123q-2 -2 -76 -47q-165 -101 -296.5 -101t-212 72t-80.5 236v540q0 53 -12.5 69.5t-53.5 22.5
l-78 11v51l322 51l14 -12v-697zM524 1333.5q0 -139.5 102.5 -139.5t102.5 139.5t-102.5 139.5t-102.5 -139.5zM406 1333.5q0 106.5 63 156.5t157.5 50t158 -50t63.5 -156.5t-63.5 -157t-158 -50.5t-157.5 50.5t-63 157z" />
    <glyph glyph-name="Uhungarumlaut" unicode="&#x170;" horiz-adv-x="1619" 
d="M59 1417h572v-59q-133 -10 -159 -27.5t-26 -103.5v-664q0 -276 94.5 -399t270.5 -123t270 123q92 123 93 399v664q0 86 -25 104.5t-160 26.5v59h572v-59q-133 -10 -159 -27.5t-26 -103.5v-705q0 -188 -55 -303q-117 -250 -511 -250t-511 250q-55 111 -55 299v709
q0 86 -25 104.5t-160 26.5v59zM810 1831q38 0 67.5 -33t29.5 -61.5t-19.5 -47t-76.5 -51.5l-207 -114l-39 45l144 182q63 80 101 80zM1158 1831q38 0 67.5 -33t29.5 -61.5t-19 -47t-77 -51.5l-207 -114l-39 45l144 182q63 80 101 80z" />
    <glyph glyph-name="uhungarumlaut" unicode="&#x171;" horiz-adv-x="1241" 
d="M389 319q0 -115 56.5 -174t143.5 -59t155.5 42t103.5 112q16 33 16 122v461q0 53 -12 69.5t-53 22.5l-78 11v51l321 51l15 -12v-838q0 -78 22.5 -94t130.5 -25v-59h-327l-21 123q-2 -2 -76 -47q-165 -101 -296.5 -101t-212 72t-80.5 236v540q0 53 -12.5 69.5t-53.5 22.5
l-78 11v51l322 51l14 -12v-697zM889 1536q37 0 67.5 -22.5t30.5 -60.5t-63 -122l-168 -213l-49 27l94 295q16 49 33.5 72.5t54.5 23.5zM598 1536q37 0 67.5 -22.5t30.5 -60.5t-63 -122l-168 -213l-49 27l94 295q16 49 33.5 72.5t54.5 23.5z" />
    <glyph glyph-name="Wcircumflex" unicode="&#x174;" horiz-adv-x="1925" 
d="M-27 1417h514v-59l-102 -10q-37 -4 -46 -18.5t3 -65.5q156 -614 279 -1018h4l313 1134h154q113 -377 346 -1134h6l151 585q96 365 109.5 436t-45.5 79l-127 12v59h469v-59q-98 -6 -129 -27.5t-52.5 -81t-150.5 -518.5l-205 -731h-155q-168 590 -342 1135h-4l-322 -1135
h-158l-174 653q-57 215 -162 572q-25 88 -52.5 108.5t-121.5 24.5v59zM976.5 1794q22.5 0 76.5 -49l237 -234l-26 -43l-220 125q-53 29 -67 29t-68 -29l-219 -125l-26 43l237 234q53 49 75.5 49z" />
    <glyph glyph-name="wcircumflex" unicode="&#x175;" horiz-adv-x="1572" 
d="M-4 1004h432v-60l-72 -6q-55 -6 -37 -64t89 -306.5t114 -385.5h4l238 797h156q154 -487 256 -797h4q170 623 184 685t-29 67l-116 10v60h403v-60q-80 -4 -107.5 -23.5t-52.5 -95.5q-205 -639 -258 -825h-155q-123 389 -252 780h-6l-242 -780h-156q-72 256 -262 856
q-18 55 -42.5 69.5t-92.5 18.5v60zM485 1151l240 272q47 51 73.5 51.5t73.5 -51.5l240 -272l-39 -43l-211 158q-43 31 -63.5 30.5t-63.5 -30.5l-211 -158z" />
    <glyph glyph-name="Ycircumflex" unicode="&#x176;" horiz-adv-x="1204" 
d="M-25 1417h531v-59l-121 -12q-47 -6 -23 -62q127 -279 316 -618h4q231 453 299 616q25 59 -25 66l-110 10v59h448v-59q-100 -4 -132 -26q-84 -56 -408 -707q-27 -53 -27 -121v-314q0 -86 29.5 -104t187.5 -27v-59h-637v59q158 8 187.5 26.5t29.5 104.5v306q0 59 -30 118
q-129 260 -336 641q-33 63 -66 81t-117 22v59zM618.5 1794q22.5 0 75.5 -49l238 -234l-27 -43l-219 125q-53 29 -67.5 29t-67.5 -29l-219 -125l-27 43l238 234q53 49 75.5 49z" />
    <glyph glyph-name="ycircumflex" unicode="&#x177;" horiz-adv-x="1036" 
d="M-10 1004h469v-60l-88 -8q-58 -4 -31 -64q113 -322 252 -686h4q182 496 227 678q16 63 -28 70l-107 10v60h393v-60q-74 -4 -98.5 -22.5t-52.5 -81.5q-131 -295 -379 -1008q-72 -212 -156 -278q-63 -50 -129.5 -50t-107.5 34t-41 75t29.5 77t59.5 36t67.5 -36t70.5 -36
q51 0 95 95t44 156.5t-16 108.5q-109 313 -322 824q-27 68 -54 85t-101 21v60zM223 1151l240 272q47 51 73.5 51.5t73.5 -51.5l240 -272l-39 -43l-211 158q-43 31 -63.5 30.5t-63.5 -30.5l-211 -158z" />
    <glyph glyph-name="Ydieresis" unicode="&#x178;" horiz-adv-x="1204" 
d="M-25 1417h531v-59l-121 -12q-47 -6 -23 -62q127 -279 316 -618h4q231 453 299 616q25 59 -25 66l-110 10v59h448v-59q-100 -4 -132 -26q-84 -56 -408 -707q-27 -53 -27 -121v-314q0 -86 29.5 -104t187.5 -27v-59h-637v59q158 8 187.5 26.5t29.5 104.5v306q0 59 -30 118
q-129 260 -336 641q-33 63 -66 81t-117 22v59zM733 1612q0 45 32 77.5t87 32.5t87 -32.5t32 -77.5t-32 -79t-86 -34t-87 34t-33 79zM307 1612q0 45 32 77.5t87 32.5t87 -32.5t32 -77.5t-32 -79t-86 -34t-87 34t-33 79z" />
    <glyph glyph-name="Zacute" unicode="&#x179;" horiz-adv-x="1249" 
d="M567 1346q-209 0 -273.5 -51.5t-82.5 -229.5h-66v352h1047l12 -26q-598 -852 -915 -1319h413q246 0 334 53t115 240h66l-21 -365h-1167l-11 27q547 778 916 1319h-367zM416 1565l297 202q92 63 124 57.5t54 -41.5t20 -66t-27.5 -45t-97.5 -38l-348 -114z" />
    <glyph glyph-name="zacute" unicode="&#x17a;" horiz-adv-x="983" 
d="M479 932q-164 0 -217 -44t-74 -188h-63v304h786l17 -29q-391 -543 -639 -903h264q172 0 238.5 49t91.5 192h63l-20 -313h-871l-16 31q367 504 645 901h-205zM700 1481q25 0 52.5 -30t27.5 -58q0 -49 -114 -111l-310 -172l-30 41l243 246q82 84 131 84z" />
    <glyph glyph-name="Zdotaccent" unicode="&#x17b;" horiz-adv-x="1249" 
d="M567 1346q-209 0 -273.5 -51.5t-82.5 -229.5h-66v352h1047l12 -26q-598 -852 -915 -1319h413q246 0 334 53t115 240h66l-21 -365h-1167l-11 27q547 778 916 1319h-367zM500 1612q0 45 31.5 77.5t87 32.5t87 -32.5t31.5 -77.5t-31.5 -79t-86 -34t-87 34t-32.5 79z" />
    <glyph glyph-name="zdotaccent" unicode="&#x17c;" horiz-adv-x="983" 
d="M479 932q-164 0 -217 -44t-74 -188h-63v304h786l17 -29q-391 -543 -639 -903h264q172 0 238.5 49t91.5 192h63l-20 -313h-871l-16 31q367 504 645 901h-205zM369 1284q0 47 32.5 81t90 34t90 -34t32.5 -81t-32.5 -82t-90 -35t-90 35t-32.5 82z" />
    <glyph glyph-name="Zcaron" unicode="&#x17d;" horiz-adv-x="1249" 
d="M567 1346q-209 0 -273.5 -51.5t-82.5 -229.5h-66v352h1047l12 -26q-598 -852 -915 -1319h413q246 0 334 53t115 240h66l-21 -365h-1167l-11 27q547 778 916 1319h-367zM624.5 1481q-22.5 0 -75.5 49l-238 233l27 43l219 -125q53 -29 67.5 -28.5t67.5 28.5l219 125l27 -43
l-238 -233q-53 -49 -75.5 -49z" />
    <glyph glyph-name="zcaron" unicode="&#x17e;" horiz-adv-x="983" 
d="M479 932q-164 0 -217 -44t-74 -188h-63v304h786l17 -29q-391 -543 -639 -903h264q172 0 238.5 49t91.5 192h63l-20 -313h-871l-16 31q367 504 645 901h-205zM491.5 1286q20.5 0 63.5 31l211 158l39 -43l-240 -273q-47 -51 -73.5 -51t-73.5 51l-240 273l39 43l211 -158
q43 -31 63.5 -31z" />
    <glyph glyph-name="longs" unicode="&#x17f;" horiz-adv-x="618" 
d="M51 0v59q106 8 127 24.5t21 94.5v897q0 213 67 316q84 129 272 129q96 0 163 -47.5t67 -97.5t-33 -76.5t-68.5 -26.5t-54.5 35q-60 141 -126 141q-28 0 -48 -11.5t-40.5 -63.5t-16.5 -140l10 -229v-826q0 -78 21.5 -94t132.5 -25v-59h-494z" />
    <glyph glyph-name="uni0186" unicode="&#x186;" horiz-adv-x="1400" 
d="M559 41q137 1 239 57q104 56 162 154q114 190 113 482q-1 290 -149 480q-54 70 -147 116t-214 46q-178 0 -269 -90t-132 -276h-62v340q205 98 451 98q369 0 560.5 -182.5t191.5 -543.5t-202 -557t-562 -196q-262 0 -435 80l-24 324h61q80 -332 418 -332z" />
    <glyph glyph-name="uni0189" unicode="&#x189;" horiz-adv-x="1607" 
d="M471 256q0 -119 39 -152q39 -32 175 -32q269 1 432 138q163 138 163 515q0 610 -571 621q-164 0 -201 -18t-37 -99v-453h283v-78h-283v-442zM41 698v78h227v451q0 86 -24 104q-25 18 -160 27v59h680q375 -4 561 -178q184 -178 184 -506q0 -418 -266 -602
q-190 -131 -520 -131h-639v59q135 9 160 27t24 104v508h-227z" />
    <glyph glyph-name="uni018E" unicode="&#x18e;" horiz-adv-x="1241" 
d="M496 72q182 0 235 20q31 14 41 45t10 109v452h-286q-66 0 -103 -8q-59 -13 -83 -86q-7 -25 -15 -84h-62v432h62q8 -57 15 -83q6 -25 26 -51t57 -34t103 -8h286v496q0 49 -13 61t-62 13h-201q-172 0 -230 -52t-79 -213h-62v336h1034v-59q-135 -8 -159 -26t-25 -105v-1037
q0 -86 25 -104t159 -27v-59h-1085l-25 354h62q35 -180 113 -231q80 -51 262 -51z" />
    <glyph glyph-name="uni018F" unicode="&#x18f;" horiz-adv-x="1454" 
d="M322 588q0 -312 177 -466q93 -81 223 -81t224 91q178 172 178 495h-759q-23 0 -33 -7t-10 -32zM92 627q0 35 19.5 56.5t52.5 21.5h962q0 262 -88 451q-47 101 -138 160.5t-195.5 59.5t-186.5 -31.5t-160.5 -121.5t-105.5 -228h-66v348q264 104 498 105q156 0 276.5 -46
t193.5 -119t120 -173q82 -174 82 -398t-82 -406q-45 -100 -114.5 -172.5t-182.5 -118.5t-269 -46q-157 1 -286 63q-130 62 -198 164q-132 196 -132 431z" />
    <glyph glyph-name="uni0190" unicode="&#x190;" horiz-adv-x="1224" 
d="M104 377q0 266 371 375v4q-311 100 -311 348q0 116 83 196q153 148 462 148q223 0 403 -84v-348h-65q-33 217 -113 289.5t-221.5 72.5t-237.5 -80.5t-96 -211.5t114.5 -212t233.5 -81h137v-78h-147q-147 0 -270 -100.5t-123 -247t108 -236.5t294 -90q186 1 260 99
q40 54 60.5 104.5t45.5 142.5h61l-25 -328q-166 -90 -372 -90q-386 0 -519 114t-133 294z" />
    <glyph glyph-name="uni0191" unicode="&#x191;" horiz-adv-x="1187" 
d="M-242 -276q0 40 39 65t82 25t65 -37t24 -82t26 -82t76 -37q114 0 150 125t36 319v1207q0 86 -25 104t-159 27v59h1040v-327h-61q-23 160 -80 208t-234 48h-202q-51 0 -63 -12t-13 -62v-524h286q66 0 103 8q59 13 83 87q7 26 15 85h62v-439h-62q-8 59 -15 85t-27 53
t-56 35q-37 8 -103 8h-286v-588q0 -293 -110 -435q-110 -143 -264 -143q-153 0 -209 40t-87 90t-31 90z" />
    <glyph glyph-name="florin" unicode="&#x192;" horiz-adv-x="1085" 
d="M213 750v77h223l15 88q33 207 104 328q102 172 291 172q98 0 160 -44t63 -103q-2 -33 -30 -58q-29 -24 -63 -24t-48 31q-29 75 -55 101t-58 25q-49 0 -83 -62t-60 -224l-37 -230h270v-77h-282l-58 -373q-45 -305 -94 -426t-120 -174t-151 -53t-143 34q-61 35 -60 80
t27 71q26 25 56 25t45 -32q53 -106 102 -107q35 0 59 38t36 142l100 775h-209z" />
    <glyph glyph-name="uni0194" unicode="&#x194;" horiz-adv-x="1206" 
d="M-16 1417h526v-59l-117 -12q-47 -6 -22 -62q98 -215 293 -629h4q242 473 305 627q25 59 -25 66l-106 10v59h440v-59q-96 -4 -129 -26t-111 -148t-321 -625q82 -153 112 -225t29 -156q0 -115 -75 -161t-175 -46q-100 -1 -159 51t-60 156q0 67 64 182q25 45 84 148
q-195 416 -375 747q-34 63 -66 81t-116 22v59zM494 164q0 -49 28 -85t72 -36q92 0 92 123q0 70 -84 240h-4q-104 -158 -104 -242z" />
    <glyph glyph-name="uni0196" unicode="&#x196;" horiz-adv-x="860" 
d="M59 1417h387v-1075q0 -142 38 -202t125 -60t200 80l33 -47q-90 -84 -160 -114t-176 -30t-184 84t-78 287v887q0 87 -25 105t-160 26v59z" />
    <glyph glyph-name="uni0197" unicode="&#x197;" horiz-adv-x="739" 
d="M74 698v78h194v451q0 86 -24 104q-25 18 -160 27v59h571v-59q-133 -10 -159 -28t-25 -103v-451h195v-78h-195v-508q0 -86 26 -103t158 -28v-59h-571v59q135 9 160 27t24 104v508h-194z" />
    <glyph glyph-name="uni019C" unicode="&#x19c;" horiz-adv-x="2246" 
d="M59 1417h572v-59q-135 -8 -160 -26t-25 -105v-719q0 -224 48 -318t170 -94q164 0 238 49t93 103q20 54 21 198v781q0 86 -25 104t-160 27v59h572v-59q-135 -8 -160 -26t-24 -105v-842q0 -137 53 -213t139 -76q145 0 229 58q147 102 148 311v762q0 86 -25 104t-159 27v59
h571v-59q-135 -8 -160 -26t-24 -105v-1037q1 -86 25 -104t159 -27v-59h-387v186q-168 -217 -413 -217t-322 195q-190 -195 -443 -195q-190 0 -278 121t-88 387v750q0 87 -25 105t-160 26v59z" />
    <glyph glyph-name="uni019F" unicode="&#x19f;" horiz-adv-x="1560" 
d="M780 1376q-326 0 -422 -384q-24 -99 -28 -216h901q-8 229 -103 406q-49 90 -138 142t-210 52zM328 698q0 -248 91 -439q48 -101 140 -159t221 -59q348 0 431 427q22 108 22 230h-905zM98 709q0 347 175 543t507 196t507 -197t175 -543t-175 -542q-175 -197 -507 -197
t-507 197t-175 543z" />
    <glyph glyph-name="Ohorn" unicode="&#x1a0;" horiz-adv-x="1560" 
d="M328 709q0 -125 20.5 -233.5t67.5 -211t140 -163t224 -60.5t224.5 60.5t140.5 163t67.5 211t20.5 233.5t-20.5 233.5t-67.5 210.5t-140.5 162.5t-224.5 60.5t-224 -60.5t-140 -162.5t-67.5 -210.5t-20.5 -233.5zM98 708.5q0 106.5 18.5 204t65.5 197.5t122 173t197 119
t279 46q279 0 449 -141q68 66 67.5 98.5t-54.5 75.5t-54 68.5t22.5 57t73.5 31.5t84 -41t33 -104q0 -123 -127 -229q188 -201 188 -555q0 -221 -84 -401q-47 -100 -121.5 -173.5t-196.5 -119.5t-279.5 -46t-279.5 46t-197 119t-122 173.5t-65.5 197.5t-18.5 203.5z" />
    <glyph glyph-name="ohorn" unicode="&#x1a1;" horiz-adv-x="1181" 
d="M313 502q0 -217 70 -336t208 -119t207.5 119t69.5 336t-69.5 335.5t-207.5 118.5t-208 -118.5t-70 -335.5zM100 502q0 252 124 389t352 137t352 -108q68 66 68 98t-54 76q-54 42 -54.5 68t22 57.5t73.5 31.5t84 -41t33 -104q0 -127 -129 -232q111 -134 111 -380
t-123 -382.5t-367 -136.5t-368 137.5t-124 389.5z" />
    <glyph glyph-name="uni01A7" unicode="&#x1a7;" horiz-adv-x="1107" 
d="M74 383q0 172 102 272t301 174l66 25q252 91 252 278q0 101 -69 173t-194 71q-258 0 -307 -307h-63v289q113 90 331 90t353 -101t135 -294q0 -150 -102 -245t-285 -159l-37 -14q-61 -25 -117 -55t-111 -102q-56 -71 -57 -154q0 -131 79 -207t218 -76t235 101
q95 101 134 278h66l-21 -328q-63 -59 -176 -91t-227 -32q-254 0 -380 121t-126 293z" />
    <glyph glyph-name="uni01A8" unicode="&#x1a8;" horiz-adv-x="892" 
d="M74 277q0 131 77 205t244 124q61 20 99 34t78 56q42 41 42 107q0 65 -52 109t-143 44t-149 -67q-57 -68 -69 -170h-60v239q95 70 265 70t271 -78t101 -208t-82 -198t-235 -115q-153 -48 -194 -125q-19 -38 -19 -102t54 -109q54 -46 136 -46q229 0 299 295h60l-21 -268
q-111 -98 -304 -98t-296 84q-102 86 -102 217z" />
    <glyph glyph-name="uni01A9" unicode="&#x1a9;" horiz-adv-x="1185" 
d="M1071 1417v-348h-61q-23 168 -79 222t-231 55h-385v-5l367 -542l-442 -639v-4h475q188 0 252 40q63 40 92 195h61l-28 -391h-1037l-16 27l469 678l-463 688l10 24h1016z" />
    <glyph glyph-name="Uhorn" unicode="&#x1af;" horiz-adv-x="1619" 
d="M59 1417h572v-59q-133 -10 -159 -27.5t-26 -103.5v-664q0 -276 94.5 -399t270.5 -123t270 123q92 123 93 399v664q0 86 -25 104.5t-160 26.5v59h387v-137q100 82 100.5 120t-54 81t-54.5 68.5t22.5 57t73.5 31.5t84 -41t33 -104q0 -156 -205 -289v-682q0 -408 -288 -512
q-114 -41 -280.5 -41t-282 43t-174 124t-82 171t-25.5 211v709q0 86 -25 104.5t-160 26.5v59z" />
    <glyph glyph-name="uhorn" unicode="&#x1b0;" horiz-adv-x="1241" 
d="M1272 1094q0 -140 -215 -283l2 76q109 88 108 133q0 31 -54 74t-54 68.5t23.5 57t73.5 31.5t83 -41.5t33 -115.5zM1057 178q0 -78 22.5 -94t130.5 -25v-59h-327l-21 123q-2 -2 -76 -47q-165 -101 -296.5 -101t-212 72t-80.5 236v540q0 53 -12.5 69.5t-53.5 22.5l-78 11
v51l322 51l14 -12v-697q0 -115 56.5 -174t143.5 -59t155.5 42t103.5 112q16 33 16 122v461q0 53 -12 69.5t-53 22.5l-78 11v51l321 51l15 -12v-838z" />
    <glyph glyph-name="uni01B2" unicode="&#x1b2;" horiz-adv-x="1433" 
d="M59 1417h572v-59q-133 -10 -159 -28t-26 -103v-674q0 -244 85 -378t255 -134q227 0 323 208q87 187 87 490q0 166 -46 275t-123 220t-77 139q0 27 38 51t89 24q86 0 171 -184t85 -408q0 -317 -59 -499t-179 -285t-343 -103q-224 0 -366 122t-142 403v733q0 87 -25 105
t-160 26v59z" />
    <glyph glyph-name="uni01B7" unicode="&#x1b7;" horiz-adv-x="1210" 
d="M92 278.5q0 143.5 106.5 143.5t106.5 -105q0 -25 -13 -74.5t-13 -70.5q0 -57 81.5 -94t208.5 -37t223.5 95t96.5 249t-74 239t-211 85q-96 0 -151 -31l-50 65l9 31l444 488h-291q-188 0 -262 -45.5t-90 -194.5h-63v395h866l22 -35l-10 -39q-12 -47 -100 -143l-373 -403
l4 -4q25 12 111 12q190 0 314 -110.5t124 -298t-131 -307.5t-430 -120q-201 0 -328 83t-127 226.5z" />
    <glyph glyph-name="uni01CD" unicode="&#x1cd;" horiz-adv-x="1300" 
d="M385 625h408l-203 585h-6q-183 -536 -199 -585zM-59 0v59q94 4 125.5 30t73.5 134.5t212 587.5l215 606h152l434 -1235q27 -78 56.5 -96t121.5 -27v-59h-524v59l92 9q49 4 60.5 23.5t-5.5 64.5l-137 391h-459q-102 -319 -120.5 -377.5t-8 -77t55.5 -22.5l106 -11v-59
h-450zM643.5 1481q-22.5 0 -76.5 49l-237 233l26 43l219 -125q53 -29 67.5 -28.5t68.5 28.5l219 125l26 -43l-237 -233q-53 -49 -75.5 -49z" />
    <glyph glyph-name="uni01CE" unicode="&#x1ce;" horiz-adv-x="1071" 
d="M307 284q0 -83 48 -141.5t133.5 -58.5t149.5 49t64 160v289q-39 -25 -235 -99q-86 -33 -123 -74.5t-37 -124.5zM100 266q0 186 191 244q31 10 97 30q269 79 314 126v86q0 111 -51 157.5t-123 46.5q-152 0 -211 -200q-16 -57 -59 -57.5t-82 25.5t-39 71q0 88 123 160.5
t291 72.5q221 0 285 -93q52 -74 51 -179v-496q0 -160 71 -176q43 -12 105 2l12 -49q-123 -61 -241 -62q-51 0 -80 31t-54 92q-186 -123 -314 -123t-207 84t-79 207zM550.5 1286q20.5 0 63.5 31l211 158l39 -43l-239 -273q-47 -51 -74 -51t-74 51l-239 273l38 43l211 -158
q43 -31 63.5 -31z" />
    <glyph glyph-name="uni01CF" unicode="&#x1cf;" horiz-adv-x="714" 
d="M72 0v59q135 8 159.5 26.5t24.5 104.5v1037q0 86 -24.5 104.5t-159.5 26.5v59h571v-59q-133 -10 -158.5 -27.5t-25.5 -103.5v-1037q0 -86 25.5 -103t158.5 -28v-59h-571zM356.5 1481q-22.5 0 -75.5 49l-238 233l27 43l219 -125q53 -29 67.5 -28.5t67.5 28.5l219 125
l27 -43l-238 -233q-53 -49 -75.5 -49z" />
    <glyph glyph-name="uni01D1" unicode="&#x1d1;" horiz-adv-x="1560" 
d="M328 709q0 -125 20.5 -233.5t67.5 -211t140 -163t224 -60.5t224.5 60.5t140.5 163t67.5 211t20.5 233.5t-20.5 233.5t-67.5 210.5t-140.5 162.5t-224.5 60.5t-224 -60.5t-140 -162.5t-67.5 -210.5t-20.5 -233.5zM98 708.5q0 348.5 174 540.5q176 199 508 199t507 -196
t175 -544t-174 -540q-176 -199 -507.5 -199t-507 195.5t-175.5 544zM780.5 1481q-22.5 0 -75.5 49l-238 233l27 43l219 -125q53 -29 67.5 -28.5t67.5 28.5l219 125l27 -43l-238 -233q-53 -49 -75.5 -49z" />
    <glyph glyph-name="uni01D2" unicode="&#x1d2;" horiz-adv-x="1181" 
d="M313 502q0 -217 70 -336t209 -119t208.5 119t69.5 336t-69.5 335.5t-208.5 118.5t-209 -118.5t-70 -335.5zM100 502q0 252 124 389t368 137t367.5 -137t123.5 -389t-123.5 -389.5t-367.5 -137.5t-368 137.5t-124 389.5zM591.5 1286q20.5 0 63.5 31l211 158l39 -43
l-239 -273q-47 -51 -74 -51t-74 51l-239 273l38 43l211 -158q43 -31 63.5 -31z" />
    <glyph glyph-name="uni01D3" unicode="&#x1d3;" horiz-adv-x="1619" 
d="M59 1417h572v-59q-133 -10 -159 -27.5t-26 -103.5v-664q0 -276 94.5 -399t270.5 -123t270 123q92 123 93 399v664q0 86 -25 104.5t-160 26.5v59h572v-59q-133 -10 -159 -27.5t-26 -103.5v-705q0 -188 -55 -303q-117 -250 -511 -250t-511 250q-55 111 -55 299v709
q0 86 -25 104.5t-160 26.5v59zM811 1481q-23 0 -76 49l-237 233l26 43l219 -125q53 -29 67.5 -28.5t68.5 28.5l219 125l26 -43l-237 -233q-53 -49 -76 -49z" />
    <glyph glyph-name="uni01D4" unicode="&#x1d4;" horiz-adv-x="1241" 
d="M389 319q0 -115 56.5 -174t143.5 -59t155.5 42t103.5 112q16 33 16 122v461q0 53 -12 69.5t-53 22.5l-78 11v51l321 51l15 -12v-838q0 -78 22.5 -94t130.5 -25v-59h-327l-21 123q-2 -2 -76 -47q-165 -101 -296.5 -101t-212 72t-80.5 236v540q0 53 -12.5 69.5t-53.5 22.5
l-78 11v51l322 51l14 -12v-697zM626.5 1286q20.5 0 63.5 31l211 158l39 -43l-240 -273q-47 -51 -73.5 -51t-73.5 51l-240 273l39 43l211 -158q43 -31 63.5 -31z" />
    <glyph glyph-name="uni01DD" unicode="&#x1dd;" horiz-adv-x="1052" 
d="M281 324q0 -31 3 -62q8 -84 57 -149.5t138 -65.5t142 40q53 41 75 101q40 109 41 199h-387q-41 0 -55 -16t-14 -47zM68 387q0 78 82 78h589q8 459 -301 459q-111 0 -179.5 -57.5t-117.5 -159.5l-61 32q98 289 399 289q473 0 473 -518q0 -242 -119.5 -388.5t-351.5 -146.5
q-106 0 -186 32t-122 77q-105 113 -105 303z" />
    <glyph glyph-name="uni01E2" unicode="&#x1e2;" horiz-adv-x="1794" 
d="M813 776v559h-12q-202 -366 -301 -559h313zM-129 0v59q86 8 119 24.5t67 74.5q98 168 199.5 360.5t159.5 296.5l252 461q37 68 -25 70l-154 12v59h1170v-336h-62q-23 162 -80 213.5t-229 51.5h-201q-49 0 -62 -13.5t-13 -60.5v-496h286q66 0 103 8.5t56.5 34t26.5 51
t15 82.5h62v-432h-62q-8 59 -15 84t-26.5 51.5t-56.5 34.5t-103 8h-286v-442q0 -131 55 -157.5t232.5 -26.5t259 51t114.5 231h62l-25 -354h-1081v59q133 10 158.5 28.5t25.5 107.5v503h-352q-248 -475 -283 -567q-20 -51 31 -57l135 -15v-59h-473zM639 1554v121h647v-121
h-647z" />
    <glyph glyph-name="uni01E3" unicode="&#x1e3;" horiz-adv-x="1632" 
d="M895 616h387q41 0 55.5 16.5t14.5 47.5q0 32 -3 62q-8 84 -58 149t-138 65q-161 0 -216 -140q-42 -106 -42 -200zM307 284q0 -83 48 -141.5t132.5 -58.5t149.5 50t65 159v289q-39 -25 -235 -99q-86 -33 -123 -74.5t-37 -124.5zM100 266q0 186 191 244q31 10 97 30
q269 79 314 126v90q0 109 -51 154.5t-121 45.5q-156 0 -215 -200q-16 -57 -58 -57.5t-82 25.5t-40 71q0 88 123 160.5t295 72.5q209 0 285 -127q117 127 313 127q106 0 186 -32q80 -30 122 -76q106 -115 106 -304q0 -78 -82 -77h-590q-8 -459 301 -459q111 0 179.5 57.5
t117.5 159.5l61 -33q-98 -287 -399 -289q-274 -2 -379 179l-76 -56q-164 -119 -299 -123q-141 0 -220 84t-79 207zM549 1223v120h590v-120h-590z" />
    <glyph glyph-name="Gcaron" unicode="&#x1e6;" horiz-adv-x="1503" 
d="M98 682q0 311 154 514q195 252 629 252q268 0 440 -84v-322h-61q-61 334 -396.5 334t-464.5 -290q-71 -159 -71 -360q0 -340 158 -524q60 -70 163 -115.5t220.5 -45.5t175 22.5t75 45t17.5 73.5v277q0 55 -12.5 75.5t-54.5 32t-150 19.5v59h565v-59q-100 -10 -123 -29.5
t-23 -97.5v-404q-270 -86 -471 -86q-328 0 -516 131q-115 82 -184.5 235.5t-69.5 346.5zM878.5 1481q-22.5 0 -75.5 49l-238 233l27 43l219 -125q53 -29 67.5 -28.5t67.5 28.5l219 125l27 -43l-238 -233q-53 -49 -75.5 -49z" />
    <glyph glyph-name="gcaron" unicode="&#x1e7;" horiz-adv-x="1064" 
d="M317 692q0 -133 60.5 -201.5t151.5 -68.5t149.5 68.5t58.5 199.5t-60.5 198.5t-148.5 67.5t-149.5 -65.5t-61.5 -198.5zM281 -188.5q0 -106.5 80.5 -171t206.5 -64.5t213 63.5t87 178.5q0 197 -313 196q-150 0 -212 -48t-62 -154.5zM86 -197q0 107 87 159q68 41 149 67v4
q-72 8 -126.5 56t-54.5 104q0 109 189 182v4q-86 23 -153.5 98.5t-67.5 207.5t104 237.5t319 105.5q170 0 265 -63l262 84l16 -19l-41 -129l-162 -24q62 -61 62 -185q0 -126 -64 -204q-114 -138 -350 -138q-45 0 -104 6q-35 -10 -70 -35.5t-35 -64.5q0 -88 170 -88h164
q178 0 286.5 -71.5t108.5 -227.5q0 -182 -161 -281q-139 -84 -340 -84t-327 76t-126 223zM520.5 1286q20.5 0 63.5 31l211 158l39 -43l-240 -273q-47 -51 -73.5 -51t-74.5 51l-239 273l39 43l211 -158q43 -31 63.5 -31z" />
    <glyph glyph-name="uni01E8" unicode="&#x1e8;" horiz-adv-x="1347" 
d="M72 0v59q135 8 159.5 26.5t24.5 104.5v1037q0 86 -24.5 104.5t-159.5 26.5v59h571v-59q-133 -10 -158.5 -27.5t-25.5 -103.5v-484q338 348 497 527q63 76 -2 82l-77 6v59h497v-59q-127 -8 -183 -30.5t-138 -96.5q-205 -178 -418 -414q193 -289 493 -610
q139 -147 238 -168v-49l-129 6q-205 6 -354 176q-217 246 -418 551l-2 8h-4v-541q0 -86 25.5 -103t158.5 -28v-59h-571zM723 1481q-23 0 -76 49l-237 233l26 43l219 -125q53 -29 67.5 -28.5t68.5 28.5l219 125l26 -43l-237 -233q-53 -49 -76 -49z" />
    <glyph glyph-name="uni01E9" unicode="&#x1e9;" horiz-adv-x="1073" 
d="M41 0v59q111 8 132.5 24.5t21.5 94.5v1137q0 57 -12.5 73.5t-53.5 20.5l-78 8v51l322 52l14 -13v-958h4q82 121 309 395q31 37 54.5 48.5t74.5 11.5h211v-58q-140 -14 -244 -91t-229 -220q-23 -25 -6 -47q164 -231 365 -430q86 -86 176 -111v-57l-154 6q-125 8 -221 104
q-199 203 -336 420h-4v-342q0 -78 21.5 -94t132.5 -25v-59h-500zM258 1923l39 43l211 -158q43 -31 63.5 -30.5t63.5 30.5l211 158l39 -43l-240 -272q-47 -51 -73.5 -51.5t-73.5 51.5z" />
    <glyph glyph-name="uni01EE" unicode="&#x1ee;" horiz-adv-x="1210" 
d="M92 278.5q0 143.5 106.5 143.5t106.5 -105q0 -25 -13 -74.5t-13 -70.5q0 -57 81.5 -94t208.5 -37t223.5 95t96.5 249t-74 239t-211 85q-96 0 -151 -31l-50 65l9 31l444 488h-291q-188 0 -262 -45.5t-90 -194.5h-63v395h866l22 -35l-10 -39q-12 -47 -100 -143l-373 -403
l4 -4q25 12 111 12q190 0 314 -110.5t124 -298t-131 -307.5t-430 -120q-201 0 -328 83t-127 226.5zM600.5 1481q-22.5 0 -76.5 49l-237 233l26 43l219 -125q53 -29 67.5 -28.5t68.5 28.5l219 125l26 -43l-237 -233q-53 -49 -75.5 -49z" />
    <glyph glyph-name="uni01EF" unicode="&#x1ef;" horiz-adv-x="1052" 
d="M113 -245q0 58 36.5 82t76.5 24t63.5 -30t23.5 -88.5t49.5 -111.5t147.5 -53q129 0 186.5 103.5t57.5 241.5t-60.5 237.5t-169 99.5t-159.5 -29l-43 64l12 31l434 522h-309q-166 0 -211 -34t-60 -175h-63v365h786l17 -29l-10 -39q-8 -49 -95 -154l-368 -434l4 -4
q25 12 110 12q184 0 291 -110.5t107 -314.5t-122 -314.5t-331 -110.5q-266 0 -350 119q-51 72 -51 130zM540.5 1286q20.5 0 63.5 31l211 158l39 -43l-240 -273q-47 -51 -73.5 -51t-73.5 51l-240 273l39 43l211 -158q43 -31 63.5 -31z" />
    <glyph glyph-name="uni01F4" unicode="&#x1f4;" horiz-adv-x="1503" 
d="M98 682q0 311 154 514q195 252 629 252q268 0 440 -84v-322h-61q-61 334 -396.5 334t-464.5 -290q-71 -159 -71 -360q0 -340 158 -524q60 -70 163 -115.5t220.5 -45.5t175 22.5t75 45t17.5 73.5v277q0 55 -12.5 75.5t-54.5 32t-150 19.5v59h565v-59q-100 -10 -123 -29.5
t-23 -97.5v-404q-270 -86 -471 -86q-328 0 -516 131q-115 82 -184.5 235.5t-69.5 346.5zM676 1565l297 202q92 63 124 57.5t54.5 -41.5t20 -66t-28 -45t-96.5 -38l-349 -114z" />
    <glyph glyph-name="uni01F5" unicode="&#x1f5;" horiz-adv-x="1064" 
d="M317 692q0 -133 60.5 -201.5t151.5 -68.5t149.5 68.5t58.5 199.5t-60.5 198.5t-148.5 67.5t-149.5 -65.5t-61.5 -198.5zM281 -188.5q0 -106.5 80.5 -171t206.5 -64.5t213 63.5t87 178.5q0 197 -313 196q-150 0 -212 -48t-62 -154.5zM86 -197q0 107 87 159q68 41 149 67v4
q-72 8 -126.5 56t-54.5 104q0 109 189 182v4q-86 23 -153.5 98.5t-67.5 207.5t104 237.5t319 105.5q170 0 265 -63l262 84l16 -19l-41 -129l-162 -24q62 -61 62 -185q0 -126 -64 -204q-114 -138 -350 -138q-45 0 -104 6q-35 -10 -70 -35.5t-35 -64.5q0 -88 170 -88h164
q178 0 286.5 -71.5t108.5 -227.5q0 -182 -161 -281q-139 -84 -340 -84t-327 76t-126 223zM729 1481q25 0 52.5 -30t27.5 -58q0 -49 -115 -111l-309 -172l-31 41l244 246q82 84 131 84z" />
    <glyph glyph-name="uni01F8" unicode="&#x1f8;" horiz-adv-x="1597" 
d="M72 0v59q90 6 124.5 24.5t46 95.5t11.5 237v811q0 86 -24.5 104.5t-159.5 26.5v59h393q782 -1113 803 -1134v718q0 160 -11.5 236.5t-49.5 94.5t-148 26v59h485v-59q-90 -6 -125 -24.5t-46 -95.5t-11 -237v-1001h-135q-330 471 -873 1233h-4v-817q0 -160 11 -236.5
t49 -94t149 -26.5v-59h-485zM490.5 1672q-25.5 15 -27.5 45t20.5 66t44.5 40q41 8 134 -56l296 -202l-22 -45l-348 114q-72 23 -97.5 38z" />
    <glyph glyph-name="uni01F9" unicode="&#x1f9;" horiz-adv-x="1267" 
d="M66 0v59q111 8 132 24.5t21 94.5v645q0 53 -12 69.5t-53 22.5l-78 11v51l305 51l29 -156q50 38 118 76.5t86 44.5q18 7 57.5 21t110.5 14q141 0 221 -86t80 -240v-524q0 -78 21.5 -94t132.5 -25v-59h-500v59q111 8 132.5 24.5t21.5 94.5v484q0 256 -215 256
q-78 0 -143.5 -42t-100.5 -106q-20 -41 -20 -113v-479q0 -78 21.5 -94t131.5 -25v-59h-499zM322 1393q0 29 27.5 58.5t51.5 29.5q49 0 131 -84l244 -246l-31 -41l-309 172q-114 62 -114 111z" />
    <glyph glyph-name="AEacute" unicode="&#x1fc;" horiz-adv-x="1794" 
d="M813 776v559h-12q-202 -366 -301 -559h313zM-129 0v59q86 8 119 24.5t67 74.5q98 168 199.5 360.5t159.5 296.5l252 461q37 68 -25 70l-154 12v59h1170v-336h-62q-23 162 -80 213.5t-229 51.5h-201q-49 0 -62 -13.5t-13 -60.5v-496h286q66 0 103 8.5t56.5 34t26.5 51
t15 82.5h62v-432h-62q-8 59 -15 84t-26.5 51.5t-56.5 34.5t-103 8h-286v-442q0 -131 55 -157.5t232.5 -26.5t259 51t114.5 231h62l-25 -354h-1081v59q133 10 158.5 28.5t25.5 107.5v503h-352q-248 -475 -283 -567q-20 -51 31 -57l135 -15v-59h-473zM760 1565l297 202
q92 63 124 57.5t54 -41.5t20 -66t-27.5 -45t-97.5 -38l-348 -114z" />
    <glyph glyph-name="aeacute" unicode="&#x1fd;" horiz-adv-x="1632" 
d="M895 616h387q41 0 55.5 16.5t14.5 47.5q0 32 -3 62q-8 84 -58 149t-138 65q-161 0 -216 -140q-42 -106 -42 -200zM307 284q0 -83 48 -141.5t132.5 -58.5t149.5 50t65 159v289q-39 -25 -235 -99q-86 -33 -123 -74.5t-37 -124.5zM100 266q0 186 191 244q31 10 97 30
q269 79 314 126v90q0 109 -51 154.5t-121 45.5q-156 0 -215 -200q-16 -57 -58 -57.5t-82 25.5t-40 71q0 88 123 160.5t295 72.5q209 0 285 -127q117 127 313 127q106 0 186 -32q80 -30 122 -76q106 -115 106 -304q0 -78 -82 -77h-590q-8 -459 301 -459q111 0 179.5 57.5
t117.5 159.5l61 -33q-98 -287 -399 -289q-274 -2 -379 179l-76 -56q-164 -119 -299 -123q-141 0 -220 84t-79 207zM1053 1481q25 0 52.5 -30t27.5 -58q0 -49 -115 -111l-309 -172l-31 41l244 246q82 84 131 84z" />
    <glyph glyph-name="Oslashacute" unicode="&#x1fe;" horiz-adv-x="1560" 
d="M780 41q104 0 186 41q82 40 131 106q48 66 90 185t46 336q-4 305 -107 473l-643 -1014q111 -127 297 -127zM780 1376q-104 0 -186 -41t-130 -107t-90 -184q-42 -119 -46 -335q4 -297 104 -469l643 1013q-111 123 -295 123zM98 709q0 348 174 540q176 199 508 199
q217 0 365 -86l94 151l70 -43l-97 -151q35 -25 76 -70q174 -190 174 -540t-174 -541q-176 -199 -508 -199q-217 0 -366 88l-105 -166l-65 50l100 159q-31 23 -72 68q-174 193 -174 541zM758 1681l297 203q92 63 133 55q24 -3 46 -39t20 -66t-28 -45t-98 -38l-348 -115z" />
    <glyph glyph-name="oslashacute" unicode="&#x1ff;" horiz-adv-x="1181" 
d="M590 47q289 0 289 455q0 203 -58 311l-424 -678q74 -88 193 -88zM590 956q-143 0 -217 -120t-72 -318q2 -200 51 -305l420 670q-68 74 -182 73zM100 502q0 252 124 389t366 137q139 0 244 -47l67 109l66 -43l-66 -105q180 -129 180 -440q0 -254 -123 -390t-368 -137
q-156 0 -256 58l-74 -117l-63 47l69 113q-166 129 -166 426zM934 1583q26 0 54 -29t28 -59q0 -49 -115 -111l-311 -172l-29 41l242 246q82 84 131 84z" />
    <glyph glyph-name="uni0200" unicode="&#x200;" horiz-adv-x="1300" 
d="M385 625h408l-203 585h-6q-183 -536 -199 -585zM-59 0v59q94 4 125.5 30t73.5 134.5t212 587.5l215 606h152l434 -1235q27 -78 56.5 -96t121.5 -27v-59h-524v59l92 9q49 4 60.5 23.5t-5.5 64.5l-137 391h-459q-102 -319 -120.5 -377.5t-8 -77t55.5 -22.5l106 -11v-59
h-450zM545 1737q0 29 29.5 61.5t67.5 32.5t101 -80l144 -182l-39 -45l-207 114q-57 33 -76.5 51.5t-19.5 47.5zM197 1737q0 29 29.5 61.5t67.5 32.5t101 -80l144 -182l-39 -45l-207 114q-57 33 -76.5 51.5t-19.5 47.5z" />
    <glyph glyph-name="uni0201" unicode="&#x201;" horiz-adv-x="1071" 
d="M307 284q0 -83 48 -141.5t133.5 -58.5t149.5 49t64 160v289q-39 -25 -235 -99q-86 -33 -123 -74.5t-37 -124.5zM100 266q0 186 191 244q31 10 97 30q269 79 314 126v86q0 111 -51 157.5t-123 46.5q-152 0 -211 -200q-16 -57 -59 -57.5t-82 25.5t-39 71q0 88 123 160.5
t291 72.5q221 0 285 -93q52 -74 51 -179v-496q0 -160 71 -176q43 -12 105 2l12 -49q-123 -61 -241 -62q-51 0 -80 31t-54 92q-186 -123 -314 -123t-207 84t-79 207zM479 1453q0 38 31 60.5t68 22.5t54 -23.5t34 -72.5l94 -295l-49 -27l-168 213q-64 84 -64 122zM188 1453
q0 38 31 60.5t68 22.5t54 -23.5t34 -72.5l94 -295l-49 -27l-168 213q-64 84 -64 122z" />
    <glyph glyph-name="uni0202" unicode="&#x202;" horiz-adv-x="1300" 
d="M385 625h408l-203 585h-6q-183 -536 -199 -585zM-59 0v59q94 4 125.5 30t73.5 134.5t212 587.5l215 606h152l434 -1235q27 -78 56.5 -96t121.5 -27v-59h-524v59l92 9q49 4 60.5 23.5t-5.5 64.5l-137 391h-459q-102 -319 -120.5 -377.5t-8 -77t55.5 -22.5l106 -11v-59
h-450zM336 1534q0 104 69.5 176t237.5 72t237.5 -72t69.5 -176h-57q-5 60 -103 98q-60 24 -148 24q-86 0 -146 -24q-98 -39 -103 -98h-57z" />
    <glyph glyph-name="uni0203" unicode="&#x203;" horiz-adv-x="1071" 
d="M307 284q0 -83 48 -141.5t133.5 -58.5t149.5 49t64 160v289q-39 -25 -235 -99q-86 -33 -123 -74.5t-37 -124.5zM100 266q0 186 191 244q31 10 97 30q269 79 314 126v86q0 111 -51 157.5t-123 46.5q-152 0 -211 -200q-16 -57 -59 -57.5t-82 25.5t-39 71q0 88 123 160.5
t291 72.5q221 0 285 -93q52 -74 51 -179v-496q0 -160 71 -176q43 -12 105 2l12 -49q-123 -61 -241 -62q-51 0 -80 31t-54 92q-186 -123 -314 -123t-207 84t-79 207zM831 1163h-49q-4 51 -55 98.5t-176 47.5t-176 -47.5t-56 -98.5h-49q0 203 130 255q60 24 151 24
q183 0 237 -92q42 -72 43 -187z" />
    <glyph glyph-name="uni0204" unicode="&#x204;" horiz-adv-x="1241" 
d="M72 0v59q135 8 159.5 26.5t24.5 104.5v1037q0 86 -24.5 104.5t-159.5 26.5v59h1034v-336h-62q-23 162 -80 213.5t-229 51.5h-200q-49 0 -62.5 -12.5t-13.5 -61.5v-496h286q66 0 103 8.5t56.5 34t26.5 51t15 82.5h62v-432h-62q-8 59 -15 84t-26.5 51.5t-56.5 34.5t-103 8
h-286v-452q0 -78 10 -109t41 -45q53 -20 235.5 -20t261 51t113.5 231h62l-25 -354h-1085zM528 1737q0 29 30 61.5t67.5 32.5t101.5 -80l143 -182l-39 -45l-206 114q-57 33 -77 51.5t-20 47.5zM180 1737q0 29 30 61.5t67.5 32.5t101.5 -80l143 -182l-39 -45l-207 114
q-57 33 -76.5 51.5t-19.5 47.5z" />
    <glyph glyph-name="uni0205" unicode="&#x205;" horiz-adv-x="1052" 
d="M315 616h387q41 0 55.5 16.5t14.5 47.5q0 32 -3 62q-8 84 -58 149t-138 65t-141 -40q-54 -40 -76 -100q-42 -112 -41 -200zM100 494q0 242 120 388t351 146q107 0 187 -32q80 -30 122 -76q105 -114 105 -304q0 -78 -82 -77h-590q-8 -459 301 -459q111 0 179.5 57.5
t117.5 159.5l62 -33q-98 -289 -400 -289q-473 1 -473 519zM498 1453q0 38 30.5 60.5t67.5 22.5t54.5 -23.5t33.5 -72.5l94 -295l-49 -27l-168 213q-63 84 -63 122zM207 1453q0 38 30.5 60.5t67.5 22.5t54.5 -23.5t33.5 -72.5l94 -295l-49 -27l-168 213q-63 84 -63 122z" />
    <glyph glyph-name="uni0206" unicode="&#x206;" horiz-adv-x="1241" 
d="M72 0v59q135 8 159.5 26.5t24.5 104.5v1037q0 86 -24.5 104.5t-159.5 26.5v59h1034v-336h-62q-23 162 -80 213.5t-229 51.5h-200q-49 0 -62.5 -12.5t-13.5 -61.5v-496h286q66 0 103 8.5t56.5 34t26.5 51t15 82.5h62v-432h-62q-8 59 -15 84t-26.5 51.5t-56.5 34.5t-103 8
h-286v-452q0 -78 10 -109t41 -45q53 -20 235.5 -20t261 51t113.5 231h62l-25 -354h-1085zM319 1534q0 104 70 176t238 72t237.5 -72t69.5 -176h-57q-5 60 -103 98q-60 24 -148 24q-86 0 -146 -24q-98 -39 -103 -98h-58z" />
    <glyph glyph-name="uni0207" unicode="&#x207;" horiz-adv-x="1052" 
d="M315 616h387q41 0 55.5 16.5t14.5 47.5q0 32 -3 62q-8 84 -58 149t-138 65t-141 -40q-54 -40 -76 -100q-42 -112 -41 -200zM100 494q0 242 120 388t351 146q107 0 187 -32q80 -30 122 -76q105 -114 105 -304q0 -78 -82 -77h-590q-8 -459 301 -459q111 0 179.5 57.5
t117.5 159.5l62 -33q-98 -289 -400 -289q-473 1 -473 519zM850 1163h-49q-4 51 -55.5 98.5t-176.5 47.5t-176 -47.5t-55 -98.5h-49q1 115 43 187q54 92 237 92t238 -92q43 -72 43 -187z" />
    <glyph glyph-name="uni0208" unicode="&#x208;" horiz-adv-x="714" 
d="M72 0v59q135 8 159.5 26.5t24.5 104.5v1037q0 86 -24.5 104.5t-159.5 26.5v59h571v-59q-133 -10 -158.5 -27.5t-25.5 -103.5v-1037q0 -86 25.5 -103t158.5 -28v-59h-571zM258 1737q0 29 29.5 61.5t67.5 32.5t102 -80l143 -182l-39 -45l-207 114q-57 33 -76.5 51.5
t-19.5 47.5zM-90 1737q0 29 29.5 61.5t67.5 32.5t102 -80l143 -182l-39 -45l-207 114q-57 33 -76.5 51.5t-19.5 47.5z" />
    <glyph glyph-name="uni0209" unicode="&#x209;" horiz-adv-x="595" 
d="M66 0v59q111 8 132 24.5t21 94.5v645q0 53 -12 69.5t-53 22.5l-78 11v51l321 51l15 -12v-838q0 -78 21.5 -94t131.5 -25v-59h-499zM244 1453q0 38 30.5 60.5t67.5 22.5t54.5 -23.5t33.5 -72.5l94 -295l-49 -27l-168 213q-63 84 -63 122zM-47 1453q0 38 30.5 60.5
t67.5 22.5t54.5 -23.5t33.5 -72.5l94 -295l-49 -27l-168 213q-63 84 -63 122z" />
    <glyph glyph-name="uni020A" unicode="&#x20a;" horiz-adv-x="714" 
d="M72 0v59q135 8 159.5 26.5t24.5 104.5v1037q0 86 -24.5 104.5t-159.5 26.5v59h571v-59q-133 -10 -158.5 -27.5t-25.5 -103.5v-1037q0 -86 25.5 -103t158.5 -28v-59h-571zM49 1534q0 104 69.5 176t237.5 72t238 -72t70 -176h-58q-4 60 -102 98q-60 24 -148 24t-147 -24
q-96 -38 -103 -98h-57z" />
    <glyph glyph-name="uni020B" unicode="&#x20b;" horiz-adv-x="595" 
d="M66 0v59q111 8 132 24.5t21 94.5v645q0 53 -12 69.5t-53 22.5l-78 11v51l321 51l15 -12v-838q0 -78 21.5 -94t131.5 -25v-59h-499zM596 1163h-49q-4 51 -55.5 98.5t-176.5 47.5t-176 -47.5t-55 -98.5h-49q1 115 43 187q54 92 237 92t238 -92q43 -72 43 -187z" />
    <glyph glyph-name="uni020C" unicode="&#x20c;" horiz-adv-x="1560" 
d="M328 709q0 -125 20.5 -233.5t67.5 -211t140 -163t224 -60.5t224.5 60.5t140.5 163t67.5 211t20.5 233.5t-20.5 233.5t-67.5 210.5t-140.5 162.5t-224.5 60.5t-224 -60.5t-140 -162.5t-67.5 -210.5t-20.5 -233.5zM98 708.5q0 348.5 174 540.5q176 199 508 199t507 -196
t175 -544t-174 -540q-176 -199 -507.5 -199t-507 195.5t-175.5 544zM682 1737q0 29 29.5 61.5t67.5 32.5t102 -80l143 -182l-39 -45l-207 114q-57 33 -76.5 51.5t-19.5 47.5zM334 1737q0 29 29.5 61.5t67.5 32.5t101 -80l144 -182l-39 -45l-207 114q-57 33 -76.5 51.5
t-19.5 47.5z" />
    <glyph glyph-name="uni020D" unicode="&#x20d;" horiz-adv-x="1181" 
d="M313 502q0 -217 70 -336t209 -119t208.5 119t69.5 336t-69.5 335.5t-208.5 118.5t-209 -118.5t-70 -335.5zM100 502q0 252 124 389t368 137t367.5 -137t123.5 -389t-123.5 -389.5t-367.5 -137.5t-368 137.5t-124 389.5zM520 1453q0 38 31 60.5t68 22.5t54 -23.5t34 -72.5
l94 -295l-49 -27l-168 213q-64 84 -64 122zM229 1453q0 38 31 60.5t68 22.5t54 -23.5t34 -72.5l94 -295l-49 -27l-168 213q-64 84 -64 122z" />
    <glyph glyph-name="uni020E" unicode="&#x20e;" horiz-adv-x="1560" 
d="M328 709q0 -125 20.5 -233.5t67.5 -211t140 -163t224 -60.5t224.5 60.5t140.5 163t67.5 211t20.5 233.5t-20.5 233.5t-67.5 210.5t-140.5 162.5t-224.5 60.5t-224 -60.5t-140 -162.5t-67.5 -210.5t-20.5 -233.5zM98 708.5q0 348.5 174 540.5q176 199 508 199t507 -196
t175 -544t-174 -540q-176 -199 -507.5 -199t-507 195.5t-175.5 544zM473 1534q0 104 69.5 176t237.5 72t237.5 -72t69.5 -176h-57q-4 60 -102 98q-60 24 -148 24t-148 -24q-98 -39 -102 -98h-57z" />
    <glyph glyph-name="uni020F" unicode="&#x20f;" horiz-adv-x="1181" 
d="M313 502q0 -217 70 -336t209 -119t208.5 119t69.5 336t-69.5 335.5t-208.5 118.5t-209 -118.5t-70 -335.5zM100 502q0 252 124 389t368 137t367.5 -137t123.5 -389t-123.5 -389.5t-367.5 -137.5t-368 137.5t-124 389.5zM872 1163h-49q-4 51 -55 98.5t-176 47.5
t-176 -47.5t-56 -98.5h-49q-1 203 129 255q60 24 152 24q184 0 238 -92q42 -72 42 -187z" />
    <glyph glyph-name="uni0210" unicode="&#x210;" horiz-adv-x="1318" 
d="M459 739h162q311 0 311 310q0 164 -93.5 230.5t-211 66.5t-143 -18.5t-25.5 -84.5v-504zM72 0v59q135 8 159.5 26.5t24.5 104.5v1037q0 86 -24.5 104.5t-159.5 26.5v59h598q254 0 367.5 -95t113.5 -245.5t-92 -246t-242 -123.5v-5q150 -37 203 -123.5t72.5 -230
t62.5 -211t152 -78.5v-59h-166q-188 0 -230 176q-12 51 -32.5 169t-26.5 144q-45 178 -252 179h-141v-478q0 -90 4 -97t9 -10t13.5 -6t15.5 -5t22.5 -4t24.5 -3.5t30.5 -2.5t33.5 -3v-59h-540zM496 1737q0 29 29.5 61.5t67.5 32.5t101 -80l144 -182l-39 -45l-207 114
q-57 33 -76.5 51.5t-19.5 47.5zM147 1737q0 29 30 61.5t68 32.5t101 -80l143 -182l-38 -45l-207 114q-57 33 -77 51.5t-20 47.5z" />
    <glyph glyph-name="uni0211" unicode="&#x211;" horiz-adv-x="796" 
d="M66 0v59q109 8 131 24.5t22 94.5v645q0 53 -12 69.5t-53 22.5l-78 11v51l311 51l25 -164q109 94 163 129t108 35t81 -30.5t27 -73.5t-29 -77t-59 -34t-48 10q-82 45 -126 45t-80.5 -52t-36.5 -159v-479q0 -78 28.5 -94t165.5 -25v-59h-540zM414 1453q0 38 30.5 60.5
t67.5 22.5t54.5 -23.5t33.5 -72.5l94 -295l-49 -27l-168 213q-63 84 -63 122zM123 1453q0 38 30.5 60.5t67.5 22.5t54.5 -23.5t33.5 -72.5l94 -295l-49 -27l-168 213q-63 84 -63 122z" />
    <glyph glyph-name="uni0212" unicode="&#x212;" horiz-adv-x="1318" 
d="M459 739h162q311 0 311 310q0 164 -93.5 230.5t-211 66.5t-143 -18.5t-25.5 -84.5v-504zM72 0v59q135 8 159.5 26.5t24.5 104.5v1037q0 86 -24.5 104.5t-159.5 26.5v59h598q254 0 367.5 -95t113.5 -245.5t-92 -246t-242 -123.5v-5q150 -37 203 -123.5t72.5 -230
t62.5 -211t152 -78.5v-59h-166q-188 0 -230 176q-12 51 -32.5 169t-26.5 144q-45 178 -252 179h-141v-478q0 -90 4 -97t9 -10t13.5 -6t15.5 -5t22.5 -4t24.5 -3.5t30.5 -2.5t33.5 -3v-59h-540zM287 1534q0 104 69.5 176t237.5 72t237.5 -72t69.5 -176h-57q-4 60 -102 98
q-60 24 -148 24t-148 -24q-98 -39 -102 -98h-57z" />
    <glyph glyph-name="uni0213" unicode="&#x213;" horiz-adv-x="796" 
d="M766 1163h-49q-4 51 -55.5 98.5t-176.5 47.5t-176 -47.5t-55 -98.5h-49q1 115 43 187q54 92 237 92t238 -92q43 -72 43 -187zM66 0v59q109 8 131 24.5t22 94.5v645q0 53 -12 69.5t-53 22.5l-78 11v51l311 51l25 -164q109 94 163 129t108 35t81 -30.5t27 -73.5t-29 -77
t-59 -34t-48 10q-82 45 -126 45t-80.5 -52t-36.5 -159v-479q0 -78 28.5 -94t165.5 -25v-59h-540z" />
    <glyph glyph-name="uni0214" unicode="&#x214;" horiz-adv-x="1619" 
d="M59 1417h572v-59q-133 -10 -159 -27.5t-26 -103.5v-664q0 -276 94.5 -399t270.5 -123t270 123q92 123 93 399v664q0 86 -25 104.5t-160 26.5v59h572v-59q-133 -10 -159 -27.5t-26 -103.5v-705q0 -188 -55 -303q-117 -250 -511 -250t-511 250q-55 111 -55 299v709
q0 86 -25 104.5t-160 26.5v59zM713 1737q0 29 29.5 61.5t67.5 32.5t101 -80l144 -182l-39 -45l-207 114q-57 33 -76.5 51.5t-19.5 47.5zM365 1737q0 29 29.5 61.5t67.5 32.5t101 -80l144 -182l-39 -45l-207 114q-57 33 -76.5 51.5t-19.5 47.5z" />
    <glyph glyph-name="uni0215" unicode="&#x215;" horiz-adv-x="1241" 
d="M389 319q0 -115 56.5 -174t143.5 -59t155.5 42t103.5 112q16 33 16 122v461q0 53 -12 69.5t-53 22.5l-78 11v51l321 51l15 -12v-838q0 -78 22.5 -94t130.5 -25v-59h-327l-21 123q-2 -2 -76 -47q-165 -101 -296.5 -101t-212 72t-80.5 236v540q0 53 -12.5 69.5t-53.5 22.5
l-78 11v51l322 51l14 -12v-697zM555 1453q0 38 30.5 60.5t67.5 22.5t54.5 -23.5t33.5 -72.5l95 -295l-50 -27l-168 213q-63 84 -63 122zM264 1453q0 38 31 60.5t68 22.5t54 -23.5t34 -72.5l94 -295l-49 -27l-168 213q-64 84 -64 122z" />
    <glyph glyph-name="uni0216" unicode="&#x216;" horiz-adv-x="1619" 
d="M59 1417h572v-59q-133 -10 -159 -27.5t-26 -103.5v-664q0 -276 94.5 -399t270.5 -123t270 123q92 123 93 399v664q0 86 -25 104.5t-160 26.5v59h572v-59q-133 -10 -159 -27.5t-26 -103.5v-705q0 -188 -55 -303q-117 -250 -511 -250t-511 250q-55 111 -55 299v709
q0 86 -25 104.5t-160 26.5v59zM504 1534q0 104 69.5 176t237.5 72t237.5 -72t69.5 -176h-57q-5 60 -103 98q-60 24 -148 24q-86 0 -146 -24q-98 -39 -103 -98h-57z" />
    <glyph glyph-name="uni0217" unicode="&#x217;" horiz-adv-x="1241" 
d="M907 1163h-49q-4 51 -55 98.5t-176 47.5t-176.5 -47.5t-55.5 -98.5h-49q0 115 43 187q55 92 238 92t237 -92q42 -72 43 -187zM389 319q0 -115 56.5 -174t143.5 -59t155.5 42t103.5 112q16 33 16 122v461q0 53 -12 69.5t-53 22.5l-78 11v51l321 51l15 -12v-838
q0 -78 22.5 -94t130.5 -25v-59h-327l-21 123q-2 -2 -76 -47q-165 -101 -296.5 -101t-212 72t-80.5 236v540q0 53 -12.5 69.5t-53.5 22.5l-78 11v51l322 51l14 -12v-697z" />
    <glyph glyph-name="Scommaaccent" unicode="&#x218;" horiz-adv-x="1107" 
d="M530 -332q0 33 -31 79q-32 46 -32 79q0 32 25 58q26 26 68 26t75 -41t33 -103t-34 -121q-34 -58 -67 -91t-96 -89l-33 31q92 96 92 172zM536 41q140 0 219 76t79 207q0 84 -56 154t-112 102q-55 31 -117 55l-37 14q-182 63 -284 159t-103 245q0 193 135 294
q136 101 354 101t330 -90v-289h-63q-49 307 -308 307q-125 0 -193 -72t-69 -172q0 -185 252 -278l66 -25q199 -74 301 -174t102 -272t-126 -293t-380 -121q-116 0 -228 32t-175 91l-21 328h66q39 -176 134 -278q94 -102 234 -101z" />
    <glyph glyph-name="scommaaccent" unicode="&#x219;" horiz-adv-x="892" 
d="M432 -332q0 33 -32 79q-58 84 -7 137q25 26 68 26t76 -41t33 -103t-34 -121q-34 -58 -67 -91t-96 -89l-33 31q92 96 92 172zM455 47q82 0 136 46q54 45 54 109q0 115 -77 165q-52 34 -171 72q-118 38 -200 106q-82 67 -82 197t101 208t270 78t266 -70v-239h-60
q-12 102 -69 170q-57 67 -149 67t-143 -44q-52 -44 -52 -109t42 -107q43 -42 79 -55q36 -14 98 -35q168 -51 244 -125q76 -75 77 -205q0 -130 -102 -216t-296 -85q-194 0 -304 99l-21 268h60q70 -295 299 -295z" />
    <glyph glyph-name="uni021A" unicode="&#x21a;" horiz-adv-x="1271" 
d="M602 -332q0 33 -32 79q-58 84 -7 137q25 26 68 26t76 -41t33 -103t-34 -121q-34 -58 -67 -91t-96 -89l-33 31q92 96 92 172zM45 1077v340h1182v-340h-62q-18 170 -73 219t-234 50h-121v-1156q0 -86 31 -104t195 -27v-59h-654v59q164 9 195 27t31 104v1156h-121
q-178 0 -234 -50t-74 -219h-61z" />
    <glyph glyph-name="uni021B" unicode="&#x21b;" horiz-adv-x="704" 
d="M328 -332q0 33 -32 79t-32 79q0 32 25 58t67 26t76 -41q33 -41 33 -103t-34 -121q-35 -58 -67 -91t-96 -89l-32 31q92 96 92 172zM63 922v82h156l125 258h59v-258h265v-82h-265v-635q0 -205 136 -205q82 0 145 27l16 -43q-145 -90 -262 -91q-68 0 -139 38q-39 22 -63 72
q-25 50 -25 124v713h-148z" />
    <glyph glyph-name="uni021E" unicode="&#x21e;" horiz-adv-x="1634" 
d="M72 0v59q135 8 159.5 26.5t24.5 104.5v1037q0 86 -24.5 104.5t-159.5 26.5v59h571v-59q-133 -10 -158.5 -27.5t-25.5 -103.5v-451h717v451q0 86 -25 104.5t-160 26.5v59h572v-59q-133 -10 -159 -27.5t-26 -103.5v-1037q0 -86 26 -103t159 -28v-59h-572v59q135 8 160 26.5
t25 104.5v508h-717v-508q0 -86 25.5 -103t158.5 -28v-59h-571zM817.5 1481q-22.5 0 -76.5 49l-237 233l26 43l220 -125q53 -29 67 -28.5t68 28.5l219 125l26 -43l-237 -233q-53 -49 -75.5 -49z" />
    <glyph glyph-name="uni021F" unicode="&#x21f;" horiz-adv-x="1243" 
d="M43 0v59q106 8 129 25.5t23 93.5v1137q0 53 -12.5 69.5t-53.5 22.5l-78 10v51l320 52l14 -13v-635q159 104 227 130t144 26q143 0 223 -85t80 -241v-524q0 -76 23.5 -93t129.5 -26v-59h-499v59q106 8 129.5 25.5t23.5 93.5v484q0 256 -215 256q-78 0 -145.5 -43.5
t-92.5 -92.5t-26 -125v-479q0 -76 23.5 -93t130.5 -26v-59h-498zM313 1923l39 43l211 -158q43 -31 63.5 -30.5t63.5 30.5l211 158l39 -43l-240 -272q-47 -51 -73.5 -51.5t-73.5 51.5z" />
    <glyph glyph-name="uni0226" unicode="&#x226;" horiz-adv-x="1300" 
d="M385 625h408l-203 585h-6q-183 -536 -199 -585zM-59 0v59q93 4 125 30q32 27 74 135t212 587l215 606h152l434 -1235q27 -78 56.5 -96t121.5 -27v-59h-524v59l92 9q49 4 60.5 23.5t-5.5 64.5l-137 391h-459q-102 -319 -120 -377t-8 -77t55 -23l106 -11v-59h-450z
M524 1612q0 45 32 77.5t87 32.5t87 -32.5t32 -77.5t-32 -79t-86 -34t-87 34t-33 79z" />
    <glyph glyph-name="uni0227" unicode="&#x227;" horiz-adv-x="1071" 
d="M307 284q0 -83 48 -141.5t133.5 -58.5t149.5 49t64 160v289q-39 -25 -235 -99q-86 -33 -123 -74.5t-37 -124.5zM100 266q0 186 191 244q31 10 97 30q269 79 314 126v86q0 111 -51 157.5t-123 46.5q-152 0 -211 -200q-16 -57 -59 -57.5t-82 25.5t-39 71q0 88 123 160.5
t291 72.5q221 0 285 -93q52 -74 51 -179v-496q0 -160 71 -176q43 -12 105 2l12 -49q-123 -61 -241 -62q-51 0 -80 31t-54 92q-186 -123 -314 -123t-207 84t-79 207zM428 1284q0 47 33 81t90 34t90 -34t33 -81t-33 -82t-90 -35t-90 35t-33 82z" />
    <glyph glyph-name="uni022E" unicode="&#x22e;" horiz-adv-x="1560" 
d="M328 709q0 -125 20.5 -233.5t67.5 -211t140 -163t224 -60.5t224.5 60.5t140.5 163t67.5 211t20.5 233.5t-20.5 233.5t-67.5 210.5t-140.5 162.5t-224.5 60.5t-224 -60.5t-140 -162.5t-67.5 -210.5t-20.5 -233.5zM98 708.5q0 348.5 174 540.5q176 199 508 199t507 -196
t175 -544t-174 -540q-176 -199 -508 -199q-330 -1 -506 195t-176 544.5zM662 1612q0 45 31.5 77.5t87 32.5t87 -32.5t31.5 -77.5t-31.5 -79t-85.5 -34t-87 34t-33 79z" />
    <glyph glyph-name="uni022F" unicode="&#x22f;" horiz-adv-x="1181" 
d="M313 502q0 -217 70 -336t209 -119t208.5 119t69.5 336t-69.5 335.5t-208.5 118.5t-209 -118.5t-70 -335.5zM100 502q0 252 124 389t368 137t367.5 -137t123.5 -389t-123.5 -389.5t-367.5 -137.5t-368 137.5t-124 389.5zM469 1284q0 47 33 81t90 34t90 -34t33 -81t-33 -82
t-90 -35t-90 35t-33 82z" />
    <glyph glyph-name="uni0232" unicode="&#x232;" horiz-adv-x="1204" 
d="M-25 1417h531v-59l-121 -12q-47 -6 -23 -62q127 -279 316 -618h4q231 453 299 616q25 59 -25 66l-110 10v59h448v-59q-100 -4 -132 -26q-84 -56 -408 -707q-27 -53 -27 -121v-314q0 -86 29.5 -104t187.5 -27v-59h-637v59q158 8 187.5 26.5t29.5 104.5v306q0 59 -30 118
q-129 260 -336 641q-33 63 -66 81t-117 22v59zM295 1554v121h647v-121h-647z" />
    <glyph glyph-name="uni0233" unicode="&#x233;" horiz-adv-x="1036" 
d="M-10 1004h469v-60l-88 -8q-58 -4 -31 -64q113 -322 252 -686h4q182 496 227 678q16 63 -28 70l-107 10v60h393v-60q-74 -4 -98.5 -22.5t-52.5 -81.5q-131 -295 -379 -1008q-72 -212 -156 -278q-63 -50 -129.5 -50t-107.5 34t-41 75t29.5 77t59.5 36t67.5 -36t70.5 -36
q51 0 95 95t44 156.5t-16 108.5q-109 313 -322 824q-27 68 -54 85t-101 21v60zM242 1223v120h589v-120h-589z" />
    <glyph glyph-name="uni0237" unicode="&#x237;" horiz-adv-x="573" 
d="M217 74v749q0 51 -12 68.5t-53 23.5l-78 11v51l321 51l15 -12v-1002q0 -209 -69 -329.5t-253 -161.5q-86 -18 -151 -19l-5 50q180 45 232.5 147t52.5 373z" />
    <glyph glyph-name="uni0241" unicode="&#x241;" horiz-adv-x="1007" 
d="M82 1207q0 79 83 152q42 37 126 63t192 26q217 0 327 -94t110 -262q0 -115 -123 -233q-51 -48 -103 -98q-124 -120 -123 -251v-320q0 -86 31 -104t195 -27v-59h-654v59q164 9 195 27t31 104v230q0 187 116 320q49 56 99 108q118 123 117 247q-1 125 -57 203t-156 78
t-142 -48q-43 -48 -61 -152q-9 -60 -80 -60q-37 0 -80 25t-43 66z" />
    <glyph glyph-name="uni0244" unicode="&#x244;" horiz-adv-x="1656" 
d="M465 563q0 -276 93 -399t269 -123t273 123q92 123 92 399v135h-727v-135zM68 698v78h194v451q0 86 -24 104q-25 18 -160 27v59h571v-59q-133 -10 -159 -28t-25 -103v-451h727v451q0 86 -25 104t-159 27v59h571v-59q-133 -10 -159 -28t-25 -103v-451h194v-78h-194v-176
q0 -188 -56 -303q-117 -250 -511 -250t-511 250q-55 111 -55 299v180h-194z" />
    <glyph glyph-name="uni0245" unicode="&#x245;" horiz-adv-x="1290" 
d="M-59 0v59q85 5 119 25t59 82q74 188 200 545l248 706h146l432 -1237q29 -78 57 -97t119 -24v-59h-524v59l106 11q37 2 44 18t-5 55l-358 1067h-4l-199 -602q-123 -368 -143 -436t-10 -84q9 -16 46 -18l117 -11v-59h-450z" />
    <glyph glyph-name="uni0250" unicode="&#x250;" horiz-adv-x="1071" 
d="M766 720q0 83 -48 141.5t-133 58.5t-149.5 -49.5t-64.5 -159.5v-289q39 25 235 98q86 33 123 75t37 125zM240 1028q51 0 79.5 -30.5t53.5 -92.5q186 123 314 123t207 -84t79 -207q0 -186 -191 -243q-32 -10 -98 -30q-114 -34 -197 -63.5t-116 -62.5v-86q0 -111 51 -158
t123 -47q152 0 211 201q16 57 59 57t82 -25.5t39 -70.5q0 -88 -123 -161t-291 -73q-218 0 -284 94q-52 74 -52 179v495q0 160 -71 177q-43 12 -105 -2l-12 49q123 61 242 61z" />
    <glyph glyph-name="uni0251" unicode="&#x251;" horiz-adv-x="1204" 
d="M313 511.5q0 -189.5 73 -307.5t208 -118q233 0 233 264v346q0 260 -227 260q-135 0 -211 -127.5t-76 -317zM100 484.5q0 242.5 137.5 393t378.5 150.5q145 0 261 -63l88 63h55v-850q0 -78 21.5 -94t132.5 -25v-59h-330l-17 14v95q-162 -133 -311 -134q-184 0 -300 133.5
t-116 376z" />
    <glyph glyph-name="uni0252" unicode="&#x252;" horiz-adv-x="1204" 
d="M377 307q0 -260 227 -260q135 0 211 128t76 317.5t-73 307.5t-208 118q-233 0 -233 -265v-346zM688 1028q184 0 300 -133t116 -376t-137.5 -393.5t-378.5 -150.5q-145 0 -260 64l-88 -64h-56v848q0 53 -12 69.5t-53 22.5l-78 11v51l305 51l31 -133q162 133 311 133z" />
    <glyph glyph-name="uni0253" unicode="&#x253;" horiz-adv-x="1224" 
d="M377 334q0 -86 14 -129q57 -158 225 -158q295 0 295 465q0 125 -28.5 212t-73.5 126q-78 68 -162 68q-178 0 -250 -144q-20 -41 -20 -117v-323zM184 928q0 295 126 449.5t301.5 154.5t277.5 -53.5t102 -112.5q0 -39 -35.5 -74t-66.5 -35q-57 0 -92 64q-23 39 -41.5 64.5
t-58.5 50t-89 24.5q-76 0 -130 -72q-101 -134 -101 -360v-145q85 56 132 82q116 63 220 63t182 -42t117 -98q40 -56 68 -149.5t28 -230t-41 -245.5t-113 -171q-139 -118 -356 -117q-172 0 -311 80l-82 -80l-37 17v936z" />
    <glyph glyph-name="uni0254" unicode="&#x254;" horiz-adv-x="1015" 
d="M440 1028q231 0 353 -131t122 -366t-108 -387q-121 -168 -401 -169q-146 0 -245.5 61.5t-99.5 137.5q0 51 40 78t82 27t63 -54q66 -178 187.5 -178t195 105.5t73.5 298.5q0 330 -152 430q-62 41 -160 41t-166 -53.5t-118 -163.5l-59 28q27 102 97 172q122 123 296 123z
" />
    <glyph glyph-name="uni0255" unicode="&#x255;" horiz-adv-x="1015" 
d="M614 82q96 0 179.5 52t83.5 149.5t-115 97.5q-141 0 -209 -293q29 -6 61 -6zM100 492q0 213 109 368q119 168 401 168q146 0 245 -61.5t99 -137.5q0 -51 -40 -77.5t-81.5 -26.5t-62.5 53q-66 178 -188 178t-195.5 -105.5t-73.5 -322.5q0 -322 172 -415q72 340 291 340
q98 0 140 -52.5t42 -126.5q0 -119 -118.5 -209t-264.5 -90l-43 2q-16 -115 -22 -243l-66 6q8 168 19 244q-363 59 -363 508z" />
    <glyph glyph-name="uni0256" unicode="&#x256;" horiz-adv-x="1224" 
d="M313 517.5q0 -195.5 74 -313.5t209 -118q180 0 238 147q14 41 14 115v361q0 80 -19 118q-57 129 -210 129t-229.5 -121.5t-76.5 -317zM100 491.5q0 239.5 135.5 388t385.5 148.5q135 0 227 -49v336q0 57 -12.5 73.5t-53.5 20.5l-77 8v51l321 52l14 -13v-1349l-12 -367
q-6 -215 82 -215q37 0 70.5 28.5t68.5 110.5q16 35 53.5 35t68 -26.5t30.5 -76.5t-68.5 -96.5t-181.5 -46.5q-158 0 -242 129q-63 96 -63 316v166q-170 -139 -318 -140q-201 0 -314.5 138.5t-113.5 378z" />
    <glyph glyph-name="uni0257" unicode="&#x257;" horiz-adv-x="1224" 
d="M313 517.5q0 -195.5 74 -313.5t209 -118q180 0 238 147q14 41 14 115v361q0 80 -19 118q-57 129 -210 129t-229.5 -121.5t-76.5 -317zM100 495.5q0 243.5 139.5 388t381.5 144.5q135 0 227 -49v96q0 213 67 316q84 129 238 129q109 0 176.5 -47.5t67.5 -99.5t-29 -78.5
t-69 -26.5t-54 35q-57 145 -133 145q-16 0 -33.5 -11.5t-35 -63.5t-13.5 -140l10 -229v-826q0 -78 21.5 -94t132.5 -25v-59h-332l-16 14v101q-170 -139 -318 -140q-201 0 -314.5 138.5t-113.5 382z" />
    <glyph glyph-name="uni0258" unicode="&#x258;" horiz-adv-x="1052" 
d="M281 680q0 -31 14 -47.5t55 -16.5h387q-1 92 -41 200q-22 60 -75.5 100t-116.5 40t-104.5 -21.5t-64 -51t-35.5 -70.5t-16 -71.5t-3 -61.5zM68 616q0 290 227 380q80 32 186 32q231 0 351 -146.5t120 -387.5q0 -518 -473 -519q-301 0 -399 289l61 33q49 -102 118 -159.5
t179 -57.5q309 0 301 459h-589q-82 -1 -82 77z" />
    <glyph glyph-name="uni0259" unicode="&#x259;" horiz-adv-x="1052" 
d="M281 324q0 -31 3 -62q8 -84 57 -149.5t138 -65.5t142 40q53 41 75 101q40 109 41 199h-387q-41 0 -55 -16t-14 -47zM68 387q0 78 82 78h589q8 459 -301 459q-111 0 -179.5 -57.5t-117.5 -159.5l-61 32q98 289 399 289q473 0 473 -518q0 -242 -119.5 -388.5t-351.5 -146.5
q-106 0 -186 32t-122 77q-105 113 -105 303z" />
    <glyph glyph-name="uni025A" unicode="&#x25a;" horiz-adv-x="1445" 
d="M313 293q0 -94 51.5 -170t165.5 -76q248 0 248 520l-407 -176q-37 -16 -47.5 -35.5t-10.5 -62.5zM109 304q0 36 12 53.5t67 41.5l580 252q-74 272 -274 273q-215 0 -320 -217l-61 32q98 289 399 289q350 0 446 -293l338 146l29 -31q-61 -80 -61 -168t84 -88l100 18
l18 -37q-96 -88 -188 -88q-61 0 -93 39t-32 92q0 80 80 150l-254 -111q12 -68 12 -147q0 -240 -118.5 -387.5t-344.5 -147.5q-109 0 -189.5 28t-122.5 65.5t-68.5 87t-32.5 81t-6 67.5z" />
    <glyph glyph-name="uni025B" unicode="&#x25b;" horiz-adv-x="987" 
d="M102 252q0 94 70 175t193 112v6q-213 66 -213 227q0 116 112 186q114 70 276 70t268.5 -58.5t106.5 -133.5q0 -51 -37.5 -77t-79.5 -26t-63 53q-33 88 -73.5 129t-122.5 41t-133.5 -56t-51.5 -141t52.5 -139.5t146.5 -54.5h74v-71h-74q-106 0 -172 -68t-66 -162t69 -141
t181 -47q217 0 312 192l59 -28q-41 -135 -150.5 -200t-234.5 -65q-184 0 -316.5 73t-132.5 204z" />
    <glyph glyph-name="uni025C" unicode="&#x25c;" horiz-adv-x="987" 
d="M672 264q0 94 -65.5 162t-172.5 68h-74v71h74q94 0 146.5 54.5t52.5 139.5t-51.5 141t-133.5 56t-122.5 -41t-73.5 -129q-20 -53 -62.5 -53t-80 25.5t-37.5 77.5q0 76 106.5 134t269.5 58t275.5 -70.5t112.5 -185.5q0 -162 -213 -227v-6q123 -31 192.5 -112t69.5 -175
q0 -131 -132 -204t-317 -73q-125 0 -234.5 65t-150.5 200l60 28q94 -193 311 -192q113 0 181.5 47t68.5 141z" />
    <glyph glyph-name="uni025D" unicode="&#x25d;" horiz-adv-x="1210" 
d="M672 264q0 94 -65.5 162t-172.5 68h-74v71h74q94 0 146.5 54.5t52.5 139.5t-51.5 141t-133.5 56t-122.5 -41t-73.5 -129q-20 -53 -62.5 -53t-80 25.5t-37.5 77.5q0 76 106.5 134t264 58t266 -62.5t125.5 -162.5l227 78l29 -31q-61 -80 -61.5 -168t83.5 -88l100 18l19 -37
q-96 -88 -189 -88q-61 0 -92.5 39t-31.5 92q0 84 79 154l-170 -57q-35 -119 -204 -170v-6q123 -31 192.5 -112t69.5 -175q0 -131 -132 -204t-317 -73q-125 0 -234.5 65t-150.5 200l60 28q94 -193 311 -192q113 0 181.5 47t68.5 141z" />
    <glyph glyph-name="uni025E" unicode="&#x25e;" horiz-adv-x="1187" 
d="M313 501.5q0 -454.5 295 -454.5q115 0 189.5 51.5t74.5 155.5t-64.5 172t-172.5 68h-74v71h74q94 0 146.5 54.5t52.5 145.5t-61.5 141t-164.5 50q-295 0 -295 -454.5zM100 502q0 252 124 389t368 137q188 0 316 -60.5t128 -209t-213 -213.5v-6q121 -31 191.5 -110
t70.5 -166t-51 -149q-51 -60 -133 -88q-151 -51 -309 -51q-244 0 -368 137.5t-124 389.5z" />
    <glyph glyph-name="uni025F" unicode="&#x25f;" horiz-adv-x="645" 
d="M227 74v407h-184v72h184v270q0 51 -12 68.5t-53 23.5l-78 11v51l322 51l14 -12v-463h184v-72h-184v-467q0 -209 -68.5 -329.5t-253.5 -161.5q-85 -19 -151 -19l-4 50q117 28 172 72q112 88 112 448z" />
    <glyph glyph-name="uni0260" unicode="&#x260;" horiz-adv-x="1204" 
d="M313 517.5q0 -189.5 73 -301.5t218 -112q244 0 244 265v327q0 260 -238 260q-150 0 -223.5 -124.5t-73.5 -314zM100 491.5q0 243.5 136.5 390t384.5 146.5q135 0 227 -49v96q0 213 67 316q84 129 238 129q109 0 176.5 -47.5t67.5 -99.5t-29 -78.5t-69 -26.5t-54 35
q-57 145 -133 145q-16 0 -33.5 -11.5t-35 -63.5t-13.5 -140l10 -229v-996q0 -246 -119.5 -374t-339.5 -128t-316.5 59.5t-96.5 131.5q0 43 36 74.5t72.5 31.5t63.5 -34.5t44 -77.5t65.5 -78t123.5 -35q137 0 206 107.5t69 242.5v199q-182 -133 -322 -133q-190 0 -308 127
t-118 370.5z" />
    <glyph glyph-name="uni0261" unicode="&#x261;" horiz-adv-x="1204" 
d="M313 517.5q0 -189.5 73 -301.5t218 -112q244 0 244 265v327q0 260 -238 260q-150 0 -223.5 -124.5t-73.5 -314zM276 -197q37 0 64 -34.5t44 -77.5t65.5 -78t123.5 -35q137 0 206 107.5t69 242.5v199q-182 -133 -322 -133q-190 0 -308 127t-118 370.5t137.5 390
t389.5 146.5q156 0 270 -63l88 63h55v-1020q0 -246 -119.5 -374t-339.5 -128t-316.5 59.5t-96.5 131.5q0 43 35.5 74.5t72.5 31.5z" />
    <glyph glyph-name="uni0262" unicode="&#x262;" horiz-adv-x="1243" 
d="M694 47q176 0 176 88v187q0 49 -23.5 62t-129.5 22v59h448v-59q-72 -8 -87 -20.5t-15 -63.5v-271q-199 -76 -359.5 -76t-270 32t-172 81t-100.5 122t-49.5 140.5t-11.5 161.5t31 184t97.5 167t186.5 121t312 44t317 -74v-217h-57q-25 115 -96.5 167t-198.5 52
q-195 0 -285 -127t-90 -303t69 -312q38 -75 118 -121t190 -46z" />
    <glyph glyph-name="uni0263" unicode="&#x263;" horiz-adv-x="1009" 
d="M406 -309q0 -37 25.5 -75t70.5 -38t76.5 28.5t31.5 84t-100 315.5h-4q-8 -25 -31.5 -80t-35 -85.5t-22.5 -71.5t-11 -78zM2 1004h459v-60l-92 -10q-52 -4 -33 -60q70 -207 119 -335l112 -293h4l131 327q63 158 101 306q14 49 -31 55l-100 10v60h389v-60
q-72 -4 -99.5 -19.5t-48.5 -68.5l-292 -717q80 -178 107.5 -264t27.5 -180.5t-69 -141.5t-164 -47t-147 55.5t-52 167.5t129 361l-154 363q-56 130 -98.5 252t-57 160t-41 55.5t-100.5 23.5v60z" />
    <glyph glyph-name="uni0264" unicode="&#x264;" horiz-adv-x="1009" 
d="M424 123q0 -33 26.5 -54.5t64.5 -21.5t56.5 23.5t18.5 54.5q0 70 -76 186h-4q-86 -96 -86 -188zM2 1004h451v-60l-78 -10q-63 -6 -33 -60q127 -215 229 -374h4q143 231 220 379q10 20 1.5 36.5t-32.5 18.5l-82 10v60h379v-60q-68 -2 -95.5 -19.5t-60.5 -68.5l-276 -428
q70 -90 91 -144.5t21 -135t-64.5 -127t-148.5 -46.5t-135 41t-51 119q0 117 115 240l-283 438q-55 82 -79.5 101.5t-92.5 29.5v60z" />
    <glyph glyph-name="uni0265" unicode="&#x265;" horiz-adv-x="1230" 
d="M389 342q0 -256 215 -256q78 0 145.5 43t100.5 107q18 35 18 110v477q0 53 -12 69.5t-53 22.5l-78 11v51l322 51l14 -12v-1309q0 -78 22.5 -94t130.5 -25v-59h-507v59q117 8 140 24.5t23 94.5v424q-158 -104 -226.5 -130t-143.5 -26q-143 0 -223 85t-80 241v522
q0 53 -12.5 69.5t-53.5 22.5l-78 11v51l322 51l14 -12v-674z" />
    <glyph glyph-name="uni0266" unicode="&#x266;" horiz-adv-x="1243" 
d="M43 0v59q106 8 129 25.5t23 93.5v750q0 295 125.5 449.5t301 154.5t277.5 -53.5t102 -112.5q0 -39 -35.5 -74t-66.5 -35q-57 0 -92 64q-23 39 -41 64.5t-58 50t-90 24.5q-76 0 -131 -72q-102 -133 -102 -360v-170q106 86 187 128t184 42q143 0 223 -85t80 -241v-524
q0 -76 23.5 -93t129.5 -26v-59h-499v59q106 8 129.5 25.5t23.5 93.5v484q0 256 -215 256q-74 0 -139.5 -48.5t-105.5 -115.5q-18 -31 -19 -111v-465q0 -76 23.5 -93t130.5 -26v-59h-498z" />
    <glyph glyph-name="uni0267" unicode="&#x267;" horiz-adv-x="1222" 
d="M43 0v59q106 8 129 25.5t23 93.5v750q0 295 125.5 449.5t301 154.5t277.5 -53.5t102 -112.5q0 -39 -35.5 -74t-66.5 -35q-57 0 -92 64q-23 39 -41 64.5t-58 50t-90 24.5q-76 0 -131 -72q-102 -133 -102 -360v-170q106 86 187 128t184 42q143 0 223 -85t80 -241v-753
q0 -219 -64 -316q-84 -129 -241 -129q-113 0 -181.5 46.5t-68.5 96.5t30.5 76.5t67.5 26.5t53 -35q35 -82 69 -110.5t71 -28.5q94 0 82 215l-11 209v662q0 256 -215 256q-74 0 -139.5 -48.5t-105.5 -115.5q-18 -31 -19 -111v-465q0 -76 23.5 -93t130.5 -26v-59h-498z" />
    <glyph glyph-name="uni0268" unicode="&#x268;" horiz-adv-x="647" 
d="M199 1339.5q0 55.5 34.5 90t90 34.5t90.5 -34.5t35 -90t-35 -90.5t-90.5 -35t-90 35t-34.5 90.5zM45 481v72h184v270q0 53 -12 69.5t-53 22.5l-78 11v51l322 51l14 -12v-463h184v-72h-184v-303q0 -78 21.5 -94t131.5 -25v-59h-499v59q111 8 132 24.5t21 94.5v303h-184z
" />
    <glyph glyph-name="uni0269" unicode="&#x269;" horiz-adv-x="688" 
d="M387 287q0 -205 135 -205q82 0 146 27l16 -43q-145 -90 -262 -91q-69 1 -139 39q-88 49 -88 195v614q0 53 -12.5 69.5t-53.5 22.5l-78 11v51l322 51l14 -12v-729z" />
    <glyph glyph-name="uni026A" unicode="&#x26a;" horiz-adv-x="630" 
d="M66 0v59q111 8 132 24.5t21 94.5v647q0 78 -21.5 94.5t-131.5 24.5v60h499v-60q-111 -8 -132 -24.5t-21 -94.5v-647q0 -78 21.5 -94t131.5 -25v-59h-499z" />
    <glyph glyph-name="uni026B" unicode="&#x26b;" horiz-adv-x="768" 
d="M234 895q30 0 63 -4v424q0 57 -12.5 73.5t-53.5 20.5l-77 8v51l321 52l14 -13v-676q51 -14 85 -14t61 18.5t72 75.5l41 -22q-49 -96 -91 -141q-57 -53 -122 -54q-20 0 -46 6v-522q0 -78 21.5 -94t132.5 -25v-59h-500v59q111 8 132.5 24.5t21.5 94.5v578q-67 16 -103 16
q-72 0 -135 -104l-39 26q77 152 146 184q38 18 68 17z" />
    <glyph glyph-name="uni026C" unicode="&#x26c;" horiz-adv-x="819" 
d="M113 812.5q0 -69.5 60 -125.5t175 -66v307q-57 47 -113 47t-89 -46.5t-33 -116zM31 834q0 90 57 150t154 60q51 0 106 -22v293q0 57 -12 73.5t-53 20.5l-78 8v51l321 52l15 -13v-864q80 25 231 111l27 -60q-162 -96 -258 -127v-389q0 -78 21.5 -94t131.5 -25v-59h-499v59
q111 8 132 24.5t21 94.5v371q-145 12 -231 86t-86 199z" />
    <glyph glyph-name="uni026D" unicode="&#x26d;" horiz-adv-x="573" 
d="M459 -424q37 0 70.5 28.5t68.5 110.5q16 35 53 35t68 -26.5t31 -76.5t-69 -96.5t-181 -46.5q-158 0 -242 129q-63 96 -63 316v1366q0 57 -12.5 73.5t-53.5 20.5l-78 8v51l322 52l14 -13v-1507l-10 -209q-12 -215 82 -215z" />
    <glyph glyph-name="uni026E" unicode="&#x26e;" horiz-adv-x="1251" 
d="M41 0v59q111 8 132.5 24.5t21.5 94.5v1137q0 57 -12.5 73.5t-53.5 20.5l-78 8v51l322 52l14 -13v-503h723l16 -29l-10 -39q-8 -49 -94 -154l-369 -434l4 -4q25 12 111 12q184 0 290.5 -110.5t106.5 -314.5t-121.5 -314.5t-330.5 -110.5q-266 0 -351 119q-51 72 -51 130
t37 82t77 24q39 0 63 -30q24 -31 24 -89t49 -111t148 -53q129 0 186 103.5t57 241.5t-60.5 237.5t-168.5 99.5t-160 -29l-43 64l12 31l435 522h-310q-166 0 -211 -34t-59 -175v-461q0 -78 21.5 -94t132.5 -25v-59h-500z" />
    <glyph glyph-name="uni026F" unicode="&#x26f;" horiz-adv-x="1867" 
d="M389 342q0 -256 207 -256q84 0 146.5 42t81.5 93t20 125v477q0 53 -12.5 69.5t-53.5 22.5l-78 11v51l322 51l14 -12v-674q0 -119 39 -187.5t158 -68.5q82 0 146.5 43t95.5 109q16 33 16 108v477q0 53 -12.5 69.5t-53.5 22.5l-77 11v51l321 51l14 -12v-838q0 -78 23 -94
t131 -25v-59h-328l-18 131q-61 -45 -94 -67.5t-113 -55.5t-151 -33q-190 0 -271 158q-8 -4 -60 -41t-86 -56.5t-94.5 -40t-119.5 -20.5q-145 0 -225 85t-80 241v522q0 53 -12.5 69.5t-53.5 22.5l-78 11v51l322 51l14 -12v-674z" />
    <glyph glyph-name="uni0270" unicode="&#x270;" horiz-adv-x="1890" 
d="M379 342q0 -256 207 -256q84 0 146.5 42t81.5 93t20 125v477q0 53 -12.5 69.5t-53.5 22.5l-78 11v51l322 51l14 -12v-674q0 -119 39 -187.5t158 -68.5q80 0 145.5 43t95.5 109q16 33 17 108v477q0 53 -12.5 69.5t-53.5 22.5l-78 11v51l322 51l14 -12v-1307
q0 -53 12.5 -69.5t53.5 -22.5l78 -10v-51l-320 -52l-14 13v614l-23 -16q-23 -16 -29 -20.5t-29.5 -21t-33.5 -21.5q-10 -4 -34 -18q-22 -14 -38 -20q-101 -39 -174 -39q-190 0 -270 158q-8 -4 -60.5 -41t-86 -56.5t-94 -40t-119.5 -20.5q-145 0 -225.5 85t-80.5 241v522
q0 53 -12 69.5t-53 22.5l-78 11v51l322 51l14 -12v-674z" />
    <glyph glyph-name="uni0271" unicode="&#x271;" horiz-adv-x="1869" 
d="M66 0v59q111 8 132 24.5t21 94.5v645q0 53 -12 69.5t-53 22.5l-78 11v51l317 51l19 -156q61 45 94 68t112.5 55.5t151.5 32.5q190 0 270 -158q8 4 60.5 41t86.5 57q105 60 232 60t207 -85t80 -241v-753q0 -219 -64 -316q-84 -129 -241 -129q-113 0 -181.5 46.5
t-68.5 96.5t30.5 76.5t67.5 26.5t54 -35q35 -82 68.5 -110.5t70.5 -28.5q94 0 82 215l-11 209v662q0 256 -206 256q-84 0 -146.5 -42t-82 -93.5t-19.5 -125.5v-479q0 -78 21.5 -94t131.5 -25v-59h-499v59q111 8 132 24.5t21 94.5v484q0 119 -39 187.5t-157 68.5
q-80 0 -145.5 -43.5t-96.5 -108.5q-16 -33 -16 -109v-479q0 -78 21.5 -94t131.5 -25v-59h-499z" />
    <glyph glyph-name="uni0272" unicode="&#x272;" horiz-adv-x="1267" 
d="M-143 -353q0 50 30.5 76.5t67.5 26.5t53 -35q35 -82 69 -110.5t70 -28.5q94 0 82 215l-10 209v823q0 53 -12 69.5t-53 22.5l-78 11v51l305 51l29 -156q50 38 118 76.5t85.5 44.5t57 20.5t111.5 14.5q141 0 221 -86t80 -240v-524q0 -78 21.5 -94t132.5 -25v-59h-500v59
q111 8 132.5 24.5t21.5 94.5v484q0 256 -215 256q-78 0 -143.5 -42t-100.5 -106q-20 -41 -20 -113v-708q0 -219 -64 -316q-84 -129 -242 -129q-113 0 -181 46.5t-68 96.5z" />
    <glyph glyph-name="uni0273" unicode="&#x273;" horiz-adv-x="1269" 
d="M66 0v59q111 8 132 24.5t21 94.5v645q0 53 -12 69.5t-53 22.5l-78 11v51l305 51l29 -156q50 38 118 76.5t86 44.5q18 7 57.5 21t110.5 14q141 0 221 -86t80 -240v-702l-10 -209q-12 -215 82 -215q37 0 71 28.5t68 110.5q16 35 53.5 35t68 -26.5t30.5 -76.5t-68.5 -96.5
t-181.5 -46.5q-158 0 -242 129q-63 96 -63 316v713q0 256 -215 256q-78 0 -143.5 -42t-100.5 -106q-20 -41 -20 -113v-479q0 -78 21.5 -94t131.5 -25v-59h-499z" />
    <glyph glyph-name="uni0274" unicode="&#x274;" horiz-adv-x="1288" 
d="M66 0v59q111 8 132 24.5t21 94.5v647q0 78 -21.5 94.5t-131.5 24.5v60h329l613 -766h2v587q0 76 -28 93.5t-134 23.5v59h397v-59q-111 -8 -132 -24.5t-21 -94.5v-823h-119l-668 834h-4v-658q0 -76 27.5 -93t134.5 -24v-59h-397z" />
    <glyph glyph-name="uni0275" unicode="&#x275;" horiz-adv-x="1181" 
d="M592 956q-129 0 -199 -105t-78 -298h553q-8 193 -77.5 298t-198.5 105zM592 47q135 0 204.5 113.5t73.5 320.5h-557q4 -207 74 -320.5t205 -113.5zM100 502q0 252 124 389t368 137t367.5 -137t123.5 -389t-123.5 -389.5t-367.5 -137.5t-368 137.5t-124 389.5z" />
    <glyph glyph-name="uni0276" unicode="&#x276;" horiz-adv-x="1695" 
d="M870 143v717q0 41 -39.5 56.5t-123.5 15.5q-211 0 -302.5 -123t-91.5 -297.5t79 -298.5q90 -141 310 -141q84 0 126 15t42 56zM100 502q0 119 38 209t100 144q170 149 505 149h813v-232h-57q-12 94 -56 127t-171 33h-154q-35 0 -45 -9.5t-10 -37.5v-324h182
q88 0 110.5 21.5t33.5 91.5h57v-297h-57q-10 70 -33 91t-111 21h-182v-294q0 -78 35 -100.5t175.5 -22.5t201.5 34.5t86 153.5h57l-23 -260h-852q-481 0 -605 293q-38 90 -38 209z" />
    <glyph glyph-name="uni0277" unicode="&#x277;" horiz-adv-x="1544" 
d="M313 465q0 -373 207 -373q92 0 141.5 78t49.5 148q1 70 -17 116t-18 102t23.5 95t72.5 39t72.5 -39t23.5 -94t-17 -103q-17 -46 -17 -116t49 -148t141 -78q207 0 207 373q0 492 -459 492t-459 -492zM100 424q0 295 168 449.5t504 154.5t504 -154.5t168 -449.5
q0 -195 -90 -322t-269 -127q-100 0 -187 47.5t-124 153.5h-4q-37 -106 -124 -153.5t-187 -47.5q-178 0 -268.5 127t-90.5 322z" />
    <glyph glyph-name="uni0278" unicode="&#x278;" horiz-adv-x="1409" 
d="M1096 501.5q0 198.5 -67.5 308.5t-227.5 134v-885q160 25 227.5 134.5t67.5 308zM313 501.5q0 -198.5 68 -308t227 -134.5v885q-160 -25 -227.5 -134.5t-67.5 -308zM253 902q137 98 355 114v299q0 57 -12 73.5t-53 20.5l-78 8v51l321 52l15 -13v-491q218 -15 355 -114
q153 -110 153 -400q0 -288 -153 -400q-135 -98 -355 -114v-281q0 -78 27.5 -94t158.5 -25v-59h-565v59q131 8 158.5 24.5t27.5 94.5v281q-220 16 -355 114q-153 111 -153 400.5t153 399.5z" />
    <glyph glyph-name="uni0279" unicode="&#x279;" horiz-adv-x="796" 
d="M4 80q0 43 28.5 76.5t58.5 33.5t48 -10q82 -45 126 -45t81 52.5t37 158.5v477q0 53 -12.5 69.5t-53.5 22.5l-77 11v51l321 51l14 -12v-836q0 -53 12.5 -69.5t53.5 -22.5l78 -10v-51l-311 -52l-25 164q-109 -94 -163 -129t-108 -35t-81 31t-27 74z" />
    <glyph glyph-name="uni027A" unicode="&#x27a;" horiz-adv-x="796" 
d="M4 80q0 43 28.5 76.5t58.5 33.5t48 -10q82 -45 126 -45t81 52.5t37 158.5v969q0 53 -12.5 69.5t-53.5 22.5l-77 10v51l321 52l14 -13v-1327q0 -53 12.5 -69.5t53.5 -22.5l78 -10v-51l-311 -52l-25 164q-109 -94 -163 -129t-108 -35t-81 31t-27 74z" />
    <glyph glyph-name="uni027B" unicode="&#x27b;" horiz-adv-x="761" 
d="M4 80q0 43 28.5 76.5t58.5 33.5t48 -10q82 -45 126 -45t81 52.5t37 158.5v477q0 53 -12.5 69.5t-53.5 22.5l-77 11v51l321 51l14 -12v-1016l-10 -209q-12 -215 82 -215q37 0 71 28.5t68 110.5q16 35 53.5 35t68 -26.5t30.5 -76.5t-68.5 -96.5t-181.5 -46.5
q-158 0 -242 129q-63 96 -63 316v190q-109 -94 -163 -129t-108 -35t-81 31t-27 74z" />
    <glyph glyph-name="uni027C" unicode="&#x27c;" horiz-adv-x="796" 
d="M66 -471v59q109 8 131 24.5t22 94.5v1116q0 53 -12 69.5t-53 22.5l-78 11v51l311 51l25 -164q109 94 163 129t108 35t81 -30.5t27 -73.5t-29 -77q-30 -34 -58 -34t-82.5 27.5t-95.5 27.5t-77.5 -52t-36.5 -159v-950q0 -78 28.5 -94t165.5 -25v-59h-540z" />
    <glyph glyph-name="uni027D" unicode="&#x27d;" horiz-adv-x="802" 
d="M704.5 813q-28.5 0 -83 27.5t-95.5 27.5t-77.5 -52t-36.5 -159v-657l-11 -209q-12 -215 82 -215q37 0 71 28.5t69 110.5q16 35 53 35t67.5 -26.5t30.5 -76.5t-68.5 -96.5t-181.5 -46.5q-158 0 -241 129q-63 96 -64 316v874q0 53 -12 69.5t-53 22.5l-78 11v51l311 51
l25 -164q109 94 163 129t108 35t81 -30.5t27 -73.5t-29 -77t-57.5 -34z" />
    <glyph glyph-name="uni027E" unicode="&#x27e;" horiz-adv-x="774" 
d="M43 0v59q109 8 131.5 24.5t22.5 94.5v232q0 397 219 536q127 82 243 82q55 0 82 -30.5t27 -73.5t-28.5 -77t-60.5 -34t-81 32t-76 32q-70 0 -101.5 -69t-31.5 -233v-397q0 -78 28.5 -94t166.5 -25v-59h-541z" />
    <glyph glyph-name="uni027F" unicode="&#x27f;" horiz-adv-x="774" 
d="M6 924q0 43 26.5 73.5t82.5 30.5q117 0 243 -82q219 -139 220 -536v-703q0 -78 22.5 -94t130.5 -25v-59h-541v59q137 8 166 24.5t29 94.5v868q0 164 -31.5 233t-101.5 69q-27 0 -76 -32t-81 -32t-60.5 34t-28.5 77z" />
    <glyph glyph-name="uni0280" unicode="&#x280;" horiz-adv-x="1110" 
d="M412 532h114q221 0 222 203q0 197 -230 197q-72 0 -89 -12.5t-17 -55.5v-332zM66 0v59q111 8 132 24.5t21 94.5v647q0 78 -21.5 94.5t-131.5 24.5v60h503q205 0 298.5 -69t93.5 -175t-82 -174t-213 -86v-6q123 -25 168 -85.5t57 -154.5t49 -141t127 -54v-59h-156
q-113 0 -152.5 55.5t-57 148.5t-26.5 123.5t-31 65.5q-42 66 -165 66h-67v-281q0 -78 21.5 -94t131.5 -25v-59h-499z" />
    <glyph glyph-name="uni0281" unicode="&#x281;" horiz-adv-x="1110" 
d="M412 139q0 -43 17 -55t89 -12q229 0 230 196q0 203 -222 203h-114v-332zM66 0v59q111 8 132 24.5t21 94.5v645q0 53 -12 69.5t-53 22.5l-78 11v51l321 51l15 -12v-471h67q123 0 165 65q32 50 53.5 166.5t61.5 172t152 55.5h156v-60q-90 -6 -127 -53t-49 -141
t-57.5 -154.5t-167.5 -85.5v-6q131 -18 213 -86t82 -174.5t-93.5 -175t-298.5 -68.5h-503z" />
    <glyph glyph-name="uni0282" unicode="&#x282;" horiz-adv-x="892" 
d="M455 47q82 0 136 46q54 45 54 109q0 114 -69.5 159.5t-183 80.5t-195.5 102.5t-82 197.5t101 208t270 78t266 -70v-239h-60q-12 102 -69.5 169.5t-148.5 67.5t-143 -44t-52 -109t41.5 -106.5t78.5 -55.5t99 -35q168 -51 244.5 -124.5t76.5 -204.5t-102.5 -216.5
t-280.5 -85.5q-117 0 -211 37q-25 6 -24 -22v-178q0 -80 18.5 -129.5t35.5 -62.5t43 -13t47.5 22.5t29.5 49t26.5 49t50.5 22.5t62.5 -26.5t30.5 -74.5t-60.5 -96.5t-172.5 -48.5t-152.5 77t-40.5 249v170q0 41 -2 74l-21 268h60q70 -295 299 -295z" />
    <glyph glyph-name="uni0283" unicode="&#x283;" horiz-adv-x="716" 
d="M-57 -353q0 50 30.5 76.5t67.5 26.5t53 -35q35 -82 69 -110.5t70 -28.5q94 0 82 215l-10 209v1075q0 213 68 316q84 129 243 129q111 0 180.5 -48.5t69.5 -99.5t-30.5 -77.5t-66.5 -26.5t-54 35q-63 145 -140 145q-96 0 -88 -215l11 -229v-1055q0 -219 -64 -316
q-84 -129 -241 -129q-113 0 -181.5 46.5t-68.5 96.5z" />
    <glyph glyph-name="uni0284" unicode="&#x284;" horiz-adv-x="645" 
d="M227 74v407h-184v72h184v522q0 213 68 316q84 129 237 129q109 0 176.5 -47.5t67.5 -99.5t-28.5 -78.5t-68.5 -26.5t-54 35q-57 145 -133 145q-16 0 -34 -11.5t-35 -63.5t-13 -140l10 -229v-451h184v-72h-184v-467q0 -209 -68.5 -329.5t-253.5 -161.5q-85 -19 -151 -19
l-4 50q117 28 172 72q112 88 112 448z" />
    <glyph glyph-name="uni0285" unicode="&#x285;" horiz-adv-x="763" 
d="M6 924q0 43 26.5 73.5t82.5 30.5q117 0 243 -82q219 -139 220 -536v-410l-11 -209q-12 -215 82 -215q37 0 71 28.5t68 110.5q18 35 54.5 35t67 -26.5t30.5 -76.5t-68.5 -96.5t-181.5 -46.5q-158 0 -241 129q-63 96 -64 316v626q0 164 -31.5 233t-101.5 69q-27 0 -76 -32
t-81 -32t-60.5 34t-28.5 77z" />
    <glyph glyph-name="uni0286" unicode="&#x286;" horiz-adv-x="716" 
d="M-127 -268.5q0 -64.5 47 -109t147 -44.5t152.5 59.5t71.5 178.5q-94 66 -195.5 65.5t-162 -43t-60.5 -107zM-213 -276q0 102 85 165.5t212 63.5t215 -45h2q4 49 4 166v1001q0 213 68 316q84 129 243 129q111 0 180.5 -48.5t69.5 -99.5t-30.5 -77.5t-66.5 -26.5t-54 35
q-63 145 -140 145q-96 0 -88 -215l11 -229v-990q0 -141 -29 -235q119 -129 176 -234l-57 -34q-63 100 -152 188h-2q-102 -195 -356 -195q-127 0 -209 59t-82 161z" />
    <glyph glyph-name="uni0287" unicode="&#x287;" horiz-adv-x="704" 
d="M266 1028q72 0 140 -38q38 -22 63 -72t25 -123v-713h147v-82h-156l-125 -258h-59v258h-264v82h264v635q0 205 -135 205q-82 0 -146 -27l-16 43q145 90 262 90z" />
    <glyph glyph-name="uni0288" unicode="&#x288;" horiz-adv-x="720" 
d="M63 922v82h156l125 258h59v-258h265v-82h-265v-922l-10 -209q-12 -215 82 -215q37 0 71 28.5t68 110.5q16 35 54 35t68 -26.5t30 -76.5t-68.5 -96.5t-181.5 -46.5q-158 0 -242 129q-63 96 -63 316v973h-148z" />
    <glyph glyph-name="uni0289" unicode="&#x289;" horiz-adv-x="1314" 
d="M422 319q0 -115 56.5 -174t143.5 -59t155.5 42t103.5 112q16 33 16 122v119h-475v-162zM45 481v72h184v270q0 53 -12 69.5t-53 22.5l-78 11v51l322 51l14 -12v-463h475v270q0 53 -12.5 69.5t-53.5 22.5l-77 11v51l321 51l15 -12v-463h184v-72h-184v-303q0 -78 22.5 -94
t130.5 -25v-59h-328l-20 123q-2 -2 -76 -47q-166 -101 -297 -101t-212 72t-81 236v198h-184z" />
    <glyph glyph-name="uni028A" unicode="&#x28a;" horiz-adv-x="1208" 
d="M82 1004h356l17 -29q-88 -117 -115 -242t-27 -297t70 -280.5t221.5 -108.5t221 108.5t69.5 280.5t-26.5 297t-114.5 242l16 29h356v-60q-106 -8 -138 -26.5t-32 -60.5t22.5 -84t50.5 -80t50.5 -113.5t22.5 -149t-12.5 -126t-46 -113t-87 -106.5t-144.5 -78t-208 -32
t-208 32q-159 57 -231 185q-59 105 -59 208.5t23 179t51 113.5q72 100 72 153t-32 71.5t-138 26.5v60z" />
    <glyph glyph-name="uni028B" unicode="&#x28b;" horiz-adv-x="1118" 
d="M389 346q-1 -204 61 -257q32 -28 62.5 -35t81.5 -7q129 0 213 162t84 385q0 102 -54.5 197.5t-54.5 144.5t38 70.5t77 21.5q119 0 119 -295q0 -255 -102 -491q-50 -118 -139 -192.5t-192.5 -74.5t-165 11.5t-115.5 43.5q-105 63 -105 271v522q0 53 -12.5 69.5t-53.5 22.5
l-78 11v51l322 51l14 -12v-670z" />
    <glyph glyph-name="uni028C" unicode="&#x28c;" horiz-adv-x="1024" 
d="M-45 0v59q68 4 93.5 20.5t65.5 103.5t128 325l180 496h147l308 -852q20 -55 45.5 -70.5t99.5 -22.5v-59h-459v59l92 11q53 6 33 59l-242 690h-4l-135 -379q-76 -219 -100 -315q-14 -49 37 -55l100 -11v-59h-389z" />
    <glyph glyph-name="uni028D" unicode="&#x28d;" horiz-adv-x="1572" 
d="M-49 0v59q80 4 107.5 23.5t52.5 95.5q205 639 258 826h155q123 -389 252 -781h6l242 781h156q72 -256 262 -857q18 -55 42.5 -69.5t92.5 -18.5v-59h-432v59l72 7q55 6 37 64t-89 306t-114 385h-4l-238 -796h-156q-154 487 -256 796h-4q-170 -623 -184 -685t29 -66
l116 -11v-59h-403z" />
    <glyph glyph-name="uni028E" unicode="&#x28e;" horiz-adv-x="1036" 
d="M-45 0v59q74 4 98.5 22.5t52.5 82.5q131 295 379 1007q95 279 225 319q30 9 78.5 9t90 -33.5t41.5 -74.5t-30 -77t-60 -36t-67.5 36t-70.5 36q-51 0 -95 -95t-44 -156.5t16 -109.5q109 -313 322 -823q27 -68 54.5 -85.5t101.5 -21.5v-59h-469v59l88 9q59 4 30 63
q-113 322 -252 686h-4q-182 -496 -227 -678q-16 -63 29 -69l106 -11v-59h-393z" />
    <glyph glyph-name="uni028F" unicode="&#x28f;" horiz-adv-x="1028" 
d="M225 0v59q131 8 159 24.5t28 94.5v129q0 47 -25 84q-106 182 -246 461q-27 53 -49 67.5t-96 24.5v60h459v-60l-84 -10q-29 -2 -38 -22.5t5 -47.5q143 -285 215 -415h4q133 229 236 421q12 20 5 41t-32 23l-94 10v60h368v-60q-63 -8 -89.5 -25.5t-57.5 -68.5
q-158 -252 -272 -461q-16 -29 -17 -82v-129q0 -78 27.5 -94t159.5 -25v-59h-566z" />
    <glyph glyph-name="uni0290" unicode="&#x290;" horiz-adv-x="1097" 
d="M1023.5 -393q25.5 0 47 22.5t29.5 49t26.5 49t50.5 22.5t62.5 -26.5t30.5 -74.5t-60.5 -96.5t-172.5 -48.5t-152.5 77t-40.5 249v170h-789l-16 31l645 901h-205q-164 0 -217 -44t-74 -188h-63v304h786l17 -29l-639 -903h264q172 0 238.5 49t91.5 192h63l-20 -313v-188
q0 -80 18.5 -129.5t36 -62.5t43 -13z" />
    <glyph glyph-name="uni0291" unicode="&#x291;" horiz-adv-x="1034" 
d="M594 72q305 0 305 192q0 100 -98 101q-55 0 -116.5 -69.5t-102.5 -223.5h12zM479 932q-164 0 -217 -44t-74 -188h-63v304h786l17 -29l-639 -903h221q86 365 305 364q88 0 127 -56t39 -124q0 -256 -391 -256h-27q-23 -111 -31 -266l-65 6q6 129 29 260h-441l-16 31
l645 901h-205z" />
    <glyph glyph-name="uni0292" unicode="&#x292;" horiz-adv-x="1052" 
d="M113 -245q0 58 36.5 82t76.5 24t63.5 -30t23.5 -88.5t49.5 -111.5t147.5 -53q129 0 186.5 103.5t57.5 241.5t-60.5 237.5t-169 99.5t-159.5 -29l-43 64l12 31l434 522h-309q-166 0 -211 -34t-60 -175h-63v365h786l17 -29l-10 -39q-8 -49 -95 -154l-368 -434l4 -4
q25 12 110 12q184 0 291 -110.5t107 -314.5t-122 -314.5t-331 -110.5q-266 0 -350 119q-51 72 -51 130z" />
    <glyph glyph-name="uni0293" unicode="&#x293;" horiz-adv-x="1052" 
d="M487 -78q-279 0 -278 -168q0 -86 86 -131t199.5 -45t173 69t77.5 173q-129 102 -258 102zM123 -244q0 88 57.5 144.5t131 75t163.5 18.5q147 0 279 -84v16q0 135 -60.5 234.5t-169 99.5t-159.5 -29l-43 64l12 31l434 522h-309q-166 0 -211 -34t-60 -175h-63v365h786
l17 -29l-10 -39q-8 -49 -95 -154l-368 -434l4 -4q25 12 110 12q184 0 291 -110.5t107 -319.5q0 -104 -35 -186q70 -92 123 -197l-54 -32q-63 106 -108 161q-121 -168 -383 -168q-154 0 -270.5 62.5t-116.5 189.5z" />
    <glyph glyph-name="uni0294" unicode="&#x294;" horiz-adv-x="927" 
d="M70 1296q0 80 94 152t301 72t304 -96.5t97 -260.5q0 -119 -118 -234q-50 -49 -99 -99q-119 -123 -119 -271v-381q0 -78 21.5 -94t132.5 -25v-59h-500v59q111 8 132.5 24.5t21.5 94.5v291q0 179 115 323q47 58 95 111q116 128 116 257.5t-50.5 208.5t-148.5 79t-146.5 -49
t-78.5 -164q-14 -43 -55.5 -43t-78 29.5t-36.5 74.5z" />
    <glyph glyph-name="uni0295" unicode="&#x295;" horiz-adv-x="927" 
d="M59 1163q0 164 97.5 260.5t304.5 96.5t301 -72t94 -152q0 -45 -37 -74.5t-77.5 -29.5t-55.5 43q-31 115 -79 164t-146.5 49t-148.5 -79t-50 -179.5t34 -167t81 -119.5t95 -111q116 -141 116 -323v-291q0 -78 21.5 -94t131.5 -25v-59h-499v59q111 8 132 24.5t21 94.5v381
q-1 151 -119 271q-50 50 -98 99q-119 117 -119 234z" />
    <glyph glyph-name="uni0296" unicode="&#x296;" horiz-adv-x="927" 
d="M59 332q0 117 119 234l98 98q118 121 119 272v381q0 78 -21.5 94t-131.5 25v59h499v-59q-111 -8 -132 -24.5t-21 -94.5v-291q0 -178 -115 -322q-47 -58 -95 -112q-116 -128 -116 -257.5t50 -208.5t148.5 -79t146.5 49t79 164q14 43 55.5 43t78 -29.5t36.5 -74.5
q0 -80 -94 -152t-301 -72t-304.5 96.5t-97.5 260.5z" />
    <glyph glyph-name="uni0297" unicode="&#x297;" horiz-adv-x="999" 
d="M104 188q0 274 56.5 437t165 283t263.5 120t260 -61.5t105 -137.5q0 -51 -40 -77.5t-81.5 -26.5t-62.5 53q-66 178 -195 178q-94 0 -164.5 -82.5t-97.5 -238.5q-16 -90 -16 -325.5t12.5 -325.5t61.5 -201q78 -172 243 -172q109 0 177.5 53t117.5 164l60 -29
q-27 -101 -97 -171q-124 -124 -297 -124q-256 0 -364 189q-37 61 -72 212.5t-35 282.5z" />
    </font>
</defs>
</svg>
