<?xml version="1.0" standalone="no"?>
<!DOCTYPE svg PUBLIC "-//W3C//DTD SVG 1.1//EN" "http://www.w3.org/Graphics/SVG/1.1/DTD/svg11.dtd" >
<svg xmlns="http://www.w3.org/2000/svg">
<metadata>
Created by FontPrep 20130207 at Sat Nov  8 22:29:40 2014
 By Devin Schulz
Copyright (c) 1989, 1991 Adobe Systems Incorporated.  All Rights Reserved. Utopia is either a registered trademark or trademark of Adobe Systems Incorporated in the United States and/or other countries. Used under license. The Utopia fonts are freely available; see http://tug.org/fonts/utopia.

Copyright (c) 2008-2012 Andrey V. Panov (panov@canopus.iacp.dvo.ru).

</metadata>
<defs>
<font id="ac2e4d20a46cc26c1f62148ed158b7dd" horiz-adv-x='1024' >
  <font-face 
    font-family="Heuristica-BoldItalic"
    font-weight="700"
    font-style="italic"
    font-stretch="normal"
    units-per-em="2048"
    panose-1="2 2 7 3 6 7 5 2 2 4"
    ascent="1536"
    descent="-512"
    x-height="1004"
    cap-height="1417"
    bbox="-1024 -772 2656 2335"
    underline-thickness="102"
    underline-position="-205"
    slope="-13"
    unicode-range="U+0020-FB04"
  />
<missing-glyph horiz-adv-x="1245" 
d="M836 709l301 -519v1039zM477 1329l309 -532l308 532h-617zM477 88h619l-310 535zM436 190l301 519l-301 520v-1039zM348 0v1417h877v-1417h-877z" />
    <glyph glyph-name="igrave" unicode="i&#x300;" horiz-adv-x="694" 
d="M213 1394q0 38 36 80t70 42t65.5 -21.5t88.5 -81.5l297 -305l-43 -61l-375 210q-68 37 -103.5 68t-35.5 69zM365 -25q-210 0 -144 244l158 584q20 80 -35 86l-119 12l17 68l471 59l12 -12l-211 -780q-27 -96 23 -97q33 0 82 60.5t94 140.5l61 -35q-164 -330 -409 -330z
" />
    <glyph glyph-name="iacute" unicode="&#x456;&#x301;" horiz-adv-x="694" 
d="M802 1516q34 0 69.5 -42t35.5 -80t-35.5 -69t-103.5 -68l-375 -210l-43 61l297 305q57 59 89 81t66 22zM365 -25q-210 0 -144 244l158 584q20 80 -35 86l-119 12l17 68l471 59l12 -12l-211 -780q-27 -96 23 -97q33 0 82 60.5t94 140.5l61 -35q-164 -330 -409 -330z" />
    <glyph glyph-name="icircumflex" unicode="i&#x302;" horiz-adv-x="694" 
d="M365 -25q-210 0 -144 244l158 584q20 80 -35 86l-119 12l17 68l471 59l12 -12l-211 -780q-27 -96 23 -97q33 0 82 60.5t94 140.5l61 -35q-164 -330 -409 -330zM612 1530q39 0 78 -57l234 -353l-60 -55l-231 197q-39 35 -63 34.5t-76 -34.5l-297 -197l-47 55l368 355
q55 55 94 55z" />
    <glyph glyph-name="idieresis" unicode="i&#x308;" horiz-adv-x="694" 
d="M166 1300.5q0 61.5 44 107.5t119 46t117.5 -45t42.5 -107.5t-43 -107.5t-117.5 -45t-118.5 45t-44 106.5zM657 1300.5q0 61.5 44 107.5t119 46t118 -45t43 -107.5t-43 -107.5t-118 -45t-119 45t-44 106.5zM365 -25q-210 0 -144 244l158 584q20 80 -35 86l-119 12l17 68
l471 59l12 -12l-211 -780q-27 -96 23 -97q33 0 82 60.5t94 140.5l61 -35q-164 -330 -409 -330z" />
    <glyph glyph-name="Aogonek" unicode="A&#x328;" 
d="M532 602h347l-50 535h-4q-23 -37 -143.5 -258.5t-149.5 -276.5zM958 -272q0 -113 101 -113q49 0 102 27l29 -56q-121 -82 -235.5 -82t-159.5 52.5t-45 133.5t89 170t195 140h-284l16 78l106 8q53 2 48 76l-31 342h-410q-37 -68 -96 -185.5t-80 -156.5q-37 -74 27 -76
l114 -8l-14 -78h-479l14 78l55 6q47 4 75 23.5t82.5 109.5t285.5 498l397 702h242l69 -649q8 -76 31 -297t30 -282.5t19.5 -82t44.5 -22.5l84 -6l-16 -78h-236q-170 -137 -170 -272z" />
    <glyph glyph-name="imacron" unicode="i&#x304;" horiz-adv-x="694" 
d="M365 -25q-210 0 -144 244l158 584q20 80 -35 86l-119 12l17 68l471 59l12 -12l-211 -780q-27 -96 23 -97q33 0 82 60.5t94 140.5l61 -35q-164 -330 -409 -330zM287 1212l30 148h637l-30 -148h-637z" />
    <glyph glyph-name="ibreve" unicode="i&#x306;" horiz-adv-x="694" 
d="M365 -25q-210 0 -144 244l158 584q20 80 -35 86l-119 12l17 68l471 59l12 -12l-211 -780q-27 -96 23 -97q33 0 82 60.5t94 140.5l61 -35q-164 -330 -409 -330zM616 1309q236 0 295 153h70q-29 -150 -116 -236.5t-281 -86.5q-228 0 -260 146q-16 74 18 177h70
q-16 -39 22 -97q16 -24 63.5 -40t118.5 -16z" />
    <glyph glyph-name="jcircumflex" unicode="j&#x302;" horiz-adv-x="681" 
d="M-174 -364q0 51 40 91t70.5 40t47 -13.5t45.5 -54.5q66 -100 90.5 -100t40.5 69l250 1133q18 82 -31 88l-131 12l14 68l475 59l15 -10l-236 -1028q-70 -299 -186 -402q-100 -84 -235.5 -84t-202 40.5t-66.5 91.5zM704.5 1530q39.5 0 77.5 -57l234 -353l-60 -55l-231 197
q-39 35 -62.5 34.5t-76.5 -34.5l-297 -197l-47 55l368 355q55 55 94.5 55z" />
    <glyph glyph-name="uni01D0" unicode="i&#x30c;" horiz-adv-x="694" 
d="M365 -25q-210 0 -144 244l158 584q20 80 -35 86l-119 12l17 68l471 59l12 -12l-211 -780q-27 -96 23 -97q33 0 82 60.5t94 140.5l61 -35q-164 -330 -409 -330zM615.5 1298q23.5 0 76.5 35l297 197l47 -55l-368 -355q-55 -55 -94.5 -55t-77.5 57l-234 353l60 55l231 -197
q39 -35 62.5 -35z" />
    <glyph glyph-name="uni01F0" unicode="j&#x30c;" horiz-adv-x="681" 
d="M-174 -364q0 51 40 91t70.5 40t47 -13.5t45.5 -54.5q66 -100 90.5 -100t40.5 69l250 1133q18 82 -31 88l-131 12l14 68l475 59l15 -10l-236 -1028q-70 -299 -186 -402q-100 -84 -235.5 -84t-202 40.5t-66.5 91.5zM663 1298q24 0 76 35l297 197l47 -55l-368 -355
q-55 -55 -94.5 -55t-77.5 57l-234 353l60 55l231 -197q39 -35 63 -35z" />
    <glyph glyph-name="f_b" unicode="fb" horiz-adv-x="1912" 
d="M1608 864q-82 0 -177 -116t-157 -269q-62 -152 -64 -256q0 -154 121 -153q80 0 150 82q114 133 177 416q24 108 23 175q1 121 -73 121zM-193 -354q0 58 37 94q37 37 84 37t82 -64q63 -115 96 -114q27 0 39 55l252 1251h-182l29 99h176l8 30q68 264 206 379q54 45 141 76
t194 31q150 0 256 -84l225 84l33 -21l-223 -876h10q221 406 497 405q115 0 172 -71t57 -169t-32 -225q-33 -127 -100 -248q-188 -340 -543 -340q-197 0 -293 115l-76 -90l-98 10l270 1200q-10 113 -57 164t-111 51q-64 1 -119 -71q-54 -72 -98 -260l-20 -90h242l-25 -99
h-236l-198 -848q-68 -285 -170 -419t-279 -134q-115 0 -181 42t-65 100z" />
    <glyph glyph-name="f_h" unicode="fh" horiz-adv-x="1976" 
d="M-193 -354q0 58 37 94q37 37 82 37t65 -31q5 -8 19 -33q66 -115 96 -114q27 0 39 55l252 1251h-182l29 99h176l8 30q93 343 308 441q99 45 241 45t248 -84l225 84l33 -21l-215 -895h10q94 180 226 302t282 122q119 0 161 -88t-5 -229l-148 -475q-27 -96 23 -97
q33 -1 83 61t93 142l59 -31q-154 -336 -401 -336q-100 0 -142 66q-41 66 -4 190l152 514q16 57 5 89t-46 30q-74 0 -180 -134t-162 -278t-139 -452l-285 -25l274 1235q-10 113 -57 164t-111 51q-143 0 -217 -331l-20 -90h242l-25 -99h-236l-198 -848q-68 -285 -170 -419
t-279 -134q-115 0 -181 42t-65 100z" />
    <glyph glyph-name="f_j" unicode="fj" horiz-adv-x="1302" 
d="M53 -496q-115 0 -181 42t-65 100q0 58 37 94q37 37 82 37t65 -31q5 -8 19 -33q66 -115 96 -114q27 0 39 55l252 1251h-182l29 99h178l12 53q111 463 555 463q184 0 292 -68t108 -150q1 -82 -55 -118t-124 -35q-68 0 -86 48q-6 15 -12 42q-39 186 -149 186
q-145 0 -222 -329l-20 -92h197q199 0 440 22l12 -14l-223 -979q-66 -283 -175 -387t-263 -105q-94 0 -161 38t-67 89t38 88t85 37t74 -59q27 -60 41 -76t31 -16q25 0 41 69l239 1092q12 61 -5 81t-73 21h-252l-198 -848q-129 -553 -449 -553z" />
    <glyph glyph-name="f_k" unicode="fk" horiz-adv-x="1857" 
d="M1872 1028q58 0 93 -36q34 -36 34 -94t-35 -104t-83 -46t-102 40t-87 39q-55 0 -185 -147q55 -221 142 -440q39 -100 84 -101q47 0 149 174l64 -32q-129 -305 -344 -306q-152 0 -222 187q-59 153 -106 358q60 94 221 262q160 167 240 206q79 40 137 40zM-193 -354
q0 58 37 94q37 37 84 37t82 -64q63 -115 96 -114q27 0 39 55l252 1251h-182l29 99h176l8 30q127 485 541 486q150 0 256 -84l225 84l33 -21l-350 -1499l-291 -25l282 1235q-10 113 -57 164t-102 51q-150 0 -226 -331l-20 -90h242l-25 -99h-236l-198 -848q-68 -285 -170 -419
t-279 -134q-115 0 -181 42t-65 100z" />
    <glyph glyph-name="longs_b" unicode="&#x17f;b" horiz-adv-x="1884" 
d="M1182 223q0 -154 121 -153q79 0 149 82q117 138 177 416q24 108 24 175q0 121 -74 121q-133 0 -287 -282q-46 -90 -78 -192t-32 -167zM-193 -354q0 58 37 94q37 37 82 37t65 -31q5 -8 19 -33q66 -115 96 -114q27 0 39 55l252 1251h-182l29 99h176l8 32q29 128 86 222
q56 94 112 144t142 84t188 34q145 0 244 -84l225 84l33 -21l-227 -876h10q221 406 498 405q115 0 172 -71t57 -169t-33 -225t-100 -248q-188 -340 -543 -340q-197 0 -293 115l-75 -90l-99 10l275 1200q-8 111 -53 163t-95 52q-137 0 -211 -327l-239 -1041
q-66 -285 -169 -419t-280 -134q-115 0 -181 42t-65 100z" />
    <glyph glyph-name="longs_h" unicode="&#x17f;h" horiz-adv-x="1955" 
d="M-193 -354q0 58 37 94q37 37 82 37t65 -31q5 -8 19 -33q66 -115 96 -114q27 0 39 55l252 1251h-182l29 99h176l8 32q36 161 143 306q59 81 159 129q100 49 238 49q137 0 236 -84l226 84l32 -21l-215 -895h10q95 180 227 302t266 122t176 -88t-5 -229l-147 -475
q-27 -96 22 -97q33 -1 83 61t93 142l60 -31q-154 -336 -402 -336q-100 0 -141 66t-4 190l151 514q16 57 5 89t-46 30q-74 0 -180 -134q-107 -134 -163 -278t-138 -452l-285 -25l275 1235q-8 111 -54 163t-96 52q-139 0 -213 -327l-239 -1041q-66 -285 -169 -419t-280 -134
q-115 0 -181 42t-65 100z" />
    <glyph glyph-name="longs_i" unicode="&#x17f;i" horiz-adv-x="1316" 
d="M989 -25q-209 0 -143 244l158 584q20 80 -35 86l-119 12l16 68l471 59l13 -12l-211 -780q-27 -96 22 -97q33 1 82 61t94 140l60 -31q-156 -334 -408 -334zM-193 -354q0 58 37 94q37 37 82 37t65 -31q5 -8 19 -33q66 -115 96 -114q27 0 39 55l252 1251h-182l29 99h178
l12 53q104 463 549 463q181 0 287 -68t106 -150t-56 -118t-124 -35q-68 0 -87 48q-5 15 -9 42q-12 90 -53 138t-91 48q-141 0 -215 -327l-239 -1041q-68 -287 -168 -417t-281 -136q-115 0 -181 42t-65 100z" />
    <glyph glyph-name="longs_k" unicode="&#x17f;k" horiz-adv-x="1837" 
d="M1852 1028q58 0 92 -36t34 -94t-34 -104t-84 -46q-48 0 -102 40t-87 39q-55 0 -184 -147q55 -221 141 -440q39 -100 84 -101q47 0 150 174l63 -32q-129 -305 -344 -306q-152 0 -221 187q-60 153 -107 358q58 91 224 264q49 51 119 116q140 128 256 128zM-193 -354
q0 58 37 94q37 37 82 37t65 -31q5 -8 19 -33q66 -115 96 -114q27 0 39 55l252 1251h-182l29 99h176l8 32q36 161 143 306q59 81 159 129q100 49 238 49q137 0 236 -84l226 84l32 -21l-350 -1499l-291 -25l283 1235q-8 111 -54 163t-96 52q-139 0 -213 -327l-239 -1041
q-66 -285 -169 -419t-280 -134q-115 0 -181 42t-65 100z" />
    <glyph glyph-name="longs_l" unicode="&#x17f;l" horiz-adv-x="1318" 
d="M-193 -354q0 58 37 94q37 37 82 37t65 -31q5 -8 19 -33q66 -115 96 -114q27 0 39 55l252 1251h-182l29 99h176l8 32q29 128 86 222q56 94 112 144t142 84t188 34q145 0 244 -84l225 84l33 -21l-307 -1263q-25 -96 23 -97q34 1 84 61t94 140l63 -37q-162 -328 -403 -328
q-211 0 -148 261l236 974q-8 111 -53 163t-95 52q-137 0 -211 -327l-239 -1041q-66 -285 -169 -419t-280 -134q-115 0 -181 42t-65 100z" />
    <glyph glyph-name="longs_longs" unicode="&#x17f;&#x17f;" horiz-adv-x="1349" 
d="M43 -496q-100 0 -168 44t-68 100q0 55 37 92t82 37t65 -31q5 -8 19 -33q66 -115 96 -114q27 0 39 55l252 1251h-182l29 99h178l10 43q25 108 83 198q57 89 113 135t145 79q89 32 183 32t170 -37t111 -82q129 147 326 148q129 0 212 -52t83 -116t-46 -99t-98 -35
q-53 0 -84 62q-39 84 -64 115q-26 31 -50 30q-47 0 -76 -122l-287 -1246q-63 -276 -163 -396t-269 -120q-98 0 -167 42q-69 43 -69 89t40 84t80 39q40 0 77 -62q37 -61 51 -79t35 -18t35 65l246 1204h-181l27 99h176q25 96 57 182q-20 98 -71 154t-110 56t-109 -64
q-50 -65 -99 -249l-237 -1026q-129 -553 -459 -553z" />
    <glyph glyph-name="longs_longs_i" unicode="&#x17f;&#x17f;i" horiz-adv-x="1968" 
d="M1640 -25q-209 0 -143 244l158 584q20 80 -35 86l-119 12l17 68l471 59l12 -12l-211 -780q-27 -96 22 -97q61 0 177 201l59 -31q-156 -334 -408 -334zM43 -496q-100 0 -168 44t-68 100q0 55 37 92t82 37t65 -31q5 -8 19 -33q66 -115 96 -114q27 0 39 55l252 1251h-182
l29 99h178l10 43q25 108 83 198q57 89 113 135t145 79q89 32 183 32t172 -39t113 -84q143 152 393 152q180 0 286 -68t108 -150q0 -82 -56 -118t-126 -35q-68 0 -86 48q-5 15 -9 42q-12 90 -53 138t-90 48q-141 0 -215 -327l-240 -1041q-63 -276 -163 -396t-269 -120
q-98 0 -167 42q-69 43 -69 89t40 84t80 39q40 0 77 -62q37 -61 51 -79t35 -18t35 65l246 1204h-181l27 99h176q25 96 57 182q-20 98 -71 154t-110 56t-109 -64q-50 -65 -99 -249l-237 -1026q-129 -553 -459 -553z" />
    <glyph glyph-name="longs_longs_l" unicode="&#x17f;&#x17f;l" horiz-adv-x="1972" 
d="M43 -496q-100 0 -168 44t-68 100q0 55 37 92t82 37t65 -31q5 -8 19 -33q66 -115 96 -114q27 0 39 55l252 1251h-182l29 99h178l10 43q25 108 83 198q57 89 113 135t145 79q89 32 183 32t174 -40q78 -40 113 -85q133 154 365 154q145 0 243 -84l226 84l32 -21l-307 -1263
q-25 -96 23 -97q33 1 84 61t94 140l63 -37q-162 -328 -403 -328q-211 0 -147 261l235 974q-8 111 -53 163t-94 52q-135 0 -211 -327l-240 -1041q-63 -276 -163 -396t-269 -120q-98 0 -167 42q-69 43 -69 89t40 84t80 39q40 0 77 -62q37 -61 51 -79t35 -18t35 65l246 1204
h-181l27 99h176q25 96 57 182q-20 98 -71 154t-110 56t-109 -64q-50 -65 -99 -249l-237 -1026q-129 -553 -459 -553z" />
    <glyph glyph-name="ff" unicode="ff" horiz-adv-x="1372" 
d="M719 1004h360q25 96 58 182q-23 100 -74 155t-113 55t-112 -64q-50 -65 -99 -249zM43 -496q-100 0 -168 44t-68 100q0 55 37 92t82 37t65 -31q5 -8 19 -33q66 -115 96 -114q27 0 39 55l252 1251h-182l29 99h178l10 43q33 145 140 277q60 75 164 121t212 46q109 0 184 -37
t113 -82q129 147 326 148q129 0 211 -54t82 -116q0 -64 -45 -99t-99 -35t-84 62q-41 86 -64 117q-24 31 -48 30q-45 0 -74 -122l-72 -299h262l-24 -99h-256l-199 -848q-66 -279 -164 -397t-268 -119q-98 0 -169 42t-71 98q0 37 40 75t82 39q42 0 79 -62q37 -61 51 -79
t35 -18t35 65l246 1204h-357l-198 -848q-129 -553 -459 -553z" />
    <glyph glyph-name="fi" unicode="fi" horiz-adv-x="1333" 
d="M-193 -354q0 58 37 94q37 37 82 37t65 -31q5 -8 19 -33q66 -115 96 -114q27 0 39 55l252 1251h-182l29 99h178l12 53q111 463 557 463q186 0 294 -67t108 -161q-1 -72 -57 -108t-124 -35q-68 0 -86 47q-4 12 -10 43q-39 186 -151 186q-72 -1 -127 -73t-97 -254l-20 -94
h192q199 0 441 22l12 -14l-211 -776q-27 -96 23 -97q33 1 82 61t94 140l59 -29q-154 -336 -403 -336q-213 0 -148 244l158 586q14 59 -2 79t-70 21h-248l-198 -848q-68 -287 -168 -417t-281 -136q-115 0 -181 42t-65 100z" />
    <glyph glyph-name="fl" unicode="fl" horiz-adv-x="1335" 
d="M-193 -354q0 58 37 94q37 37 82 37t65 -31q5 -8 19 -33q66 -115 96 -114q27 0 39 55l252 1251h-182l29 99h176l8 32q113 483 537 484q145 0 252 -84l225 84l33 -21l-308 -1263q-25 -96 23 -97q33 1 84 61t94 140l64 -37q-162 -328 -404 -328q-211 0 -147 261l235 974
q-10 113 -56 164t-108 51q-138 0 -213 -327l-20 -94h242l-25 -99h-236l-198 -848q-68 -285 -170 -419t-279 -134q-115 0 -181 42t-65 100z" />
    <glyph glyph-name="ffi" unicode="ffi" horiz-adv-x="1992" 
d="M719 1004h360q25 96 58 182q-23 100 -74 155t-113 55t-112 -64q-50 -65 -99 -249zM43 -496q-100 0 -168 44t-68 100q0 55 37 92t82 37t65 -31q5 -8 19 -33q66 -115 96 -114q27 0 39 55l252 1251h-182l29 99h178l10 43q33 145 140 277q60 75 164 121t212 46q109 0 187 -39
t116 -84q61 72 169 112t231 40q186 0 294 -67t107 -161q0 -72 -56 -108t-110 -35q-54 0 -76 17q-20 18 -24 30t-10 43q-39 186 -152 186q-72 -1 -127 -73t-96 -254l-21 -94h193q199 0 440 22l12 -14l-210 -776q-27 -96 22 -97q33 1 82 61t94 140l60 -29q-154 -336 -404 -336
q-213 0 -147 244l157 586q14 59 -2 79t-69 21h-248l-199 -848q-66 -279 -164 -397t-268 -119q-98 0 -169 42t-71 98q0 37 40 75t82 39q42 0 79 -62q37 -61 51 -79t35 -18t35 65l246 1204h-357l-198 -848q-129 -553 -459 -553z" />
    <glyph glyph-name="ffl" unicode="ffl" horiz-adv-x="1994" 
d="M719 1004h360q25 96 58 182q-23 100 -74 155t-113 55t-112 -64q-50 -65 -99 -249zM43 -496q-100 0 -168 44t-68 100q0 55 37 92t82 37t65 -31q5 -8 19 -33q66 -115 96 -114q27 0 39 55l252 1251h-182l29 99h178l10 43q33 145 140 277q60 75 164 121t212 46q109 0 187 -39
t116 -84q129 152 373 152q145 0 252 -84l225 84l33 -21l-307 -1263q-25 -96 22 -97q33 1 84 61t95 140l63 -37q-162 -328 -403 -328q-211 0 -148 261l236 974q-10 113 -56 164t-108 51q-139 0 -213 -327l-21 -94h242l-25 -99h-235l-199 -848q-66 -279 -164 -397t-268 -119
q-98 0 -169 42t-71 98q0 37 40 75t82 39q42 0 79 -62q37 -61 51 -79t35 -18t35 65l246 1204h-357l-198 -848q-129 -553 -459 -553z" />
    <glyph glyph-name="esh_i" unicode="&#x283;i" horiz-adv-x="1316" 
d="M989 -25q-209 0 -143 244l158 584q20 80 -35 86l-119 12l16 68l471 59l13 -12l-211 -780q-27 -96 22 -97q33 1 82 61t94 140l60 -31q-156 -334 -408 -334zM-197 -344q0 47 38 86t86 39t83 -68q55 -115 96 -114q27 0 39 55l76 399l201 959q27 133 86 234q60 100 118 151
t151 87t206 36q181 0 287 -68t106 -150t-56 -118t-124 -35q-68 0 -87 48q-5 15 -9 42q-12 92 -53 139t-97 47q-135 0 -217 -358l-231 -1010q-66 -283 -171 -417t-278 -136q-119 0 -185 40t-65 112z" />
    <glyph glyph-name="esh_k" unicode="&#x283;k" horiz-adv-x="1837" 
d="M1852 1028q58 0 92 -36t34 -94t-34 -104t-84 -46q-48 0 -102 40t-87 39q-55 0 -184 -147q55 -221 141 -440q39 -100 84 -101q47 0 150 174l63 -32q-129 -305 -344 -306q-152 0 -221 187q-60 153 -107 358q58 91 224 264q49 51 119 116q140 128 256 128zM-197 -344
q0 47 38 86t86 39t83 -68q55 -115 96 -114q27 0 39 55l76 399l201 959q38 176 146 324q60 83 160 133q100 51 239 51q138 0 237 -84l226 84l32 -21l-350 -1499l-291 -25l283 1235q-8 111 -54 163t-96 52q-137 0 -213 -327l-239 -1041q-66 -283 -171 -417t-278 -136
q-119 0 -185 40t-65 112z" />
    <glyph glyph-name="esh_l" unicode="&#x283;l" horiz-adv-x="1320" 
d="M-197 -344q0 47 38 86t86 39t83 -68q55 -115 96 -114q27 0 39 55l76 399l201 959q29 137 87 235q59 99 115 151t143 87t189 35q145 0 244 -84l225 84l33 -21l-307 -1263q-25 -96 23 -97q34 1 84 61t94 140l63 -37q-162 -328 -403 -328q-211 0 -148 261l236 974
q-8 111 -53 163t-95 52q-135 0 -211 -327l-239 -1041q-66 -283 -171 -417t-278 -136q-119 0 -185 40t-65 112z" />
    <glyph glyph-name=".notdef" horiz-adv-x="1245" 
d="M836 709l301 -519v1039zM477 1329l309 -532l308 532h-617zM477 88h619l-310 535zM436 190l301 519l-301 520v-1039zM348 0v1417h877v-1417h-877z" />
    <glyph glyph-name=".notdef" horiz-adv-x="1245" 
d="M836 709l301 -519v1039zM477 1329l309 -532l308 532h-617zM477 88h619l-310 535zM436 190l301 519l-301 520v-1039zM348 0v1417h877v-1417h-877z" />
    <glyph glyph-name=".null" horiz-adv-x="0" 
 />
    <glyph glyph-name="nonmarkingreturn" horiz-adv-x="681" 
 />
    <glyph glyph-name="space" unicode=" " horiz-adv-x="430" 
 />
    <glyph glyph-name="exclam" unicode="!" horiz-adv-x="583" 
d="M143 148q1 80 57 136t140 56t128 -46t44 -126t-55 -136t-139 -56t-130 45q-46 46 -45 127zM614 1448q120 0 141 -52q22 -52 -26 -161l-289 -791h-112l73 791q13 117 53 165t160 48z" />
    <glyph glyph-name="quotedbl" unicode="&#x22;" horiz-adv-x="931" 
d="M965 1448q91 0 115 -38t-13 -120l-195 -456h-94l17 456q2 82 40 120t130 38zM549 1448q92 0 116 -38t-14 -120l-194 -456h-95l17 456q2 82 40 120t130 38z" />
    <glyph glyph-name="numbersign" unicode="#" horiz-adv-x="1146" 
d="M575 596h230l78 219h-230zM147 449l54 147h217l78 219h-220l54 148h217l143 405h156l-141 -405h229l143 405h154l-141 -405h223l-53 -148h-222l-77 -219h223l-54 -147h-221l-157 -449h-156l158 449h-230l-157 -449h-158l158 449h-220z" />
    <glyph glyph-name="dollar" unicode="$" horiz-adv-x="1146" 
d="M643 94q96 -8 176 47t82 176q2 156 -156 230zM575 1069q0 -121 136 -186l90 391q-86 0 -155 -56t-71 -149zM292 389q65 0 85 -67q63 -217 155 -222l113 496q-326 147 -321 373q2 179 140 289t359 110l39 164h111l-39 -168q128 -8 236 -73t106 -163q-2 -42 -46 -74
t-100 -32t-79 72q-51 162 -140 174l-100 -439q176 -76 266 -170t89 -250t-117 -276q-59 -61 -169 -97t-255 -36l-47 -213h-113l47 217q-164 8 -270 78t-105 164q2 66 46 104t109 39z" />
    <glyph glyph-name="percent" unicode="%" horiz-adv-x="1835" 
d="M1311 199q0 -141 94 -142q57 -1 101 57t65 140q41 168 41 254q0 147 -90 147q-58 0 -102 -59q-69 -92 -99 -294q-10 -66 -10 -103zM1087 260q0 80 34 184t114 183q113 111 295 110q305 0 305 -288q0 -150 -76 -281q-113 -193 -373 -193q-160 0 -230 80t-69 205zM512 854
q0 -141 92 -141q59 0 103 57q68 90 95 287q9 66 9 106q0 147 -88 148q-57 1 -101 -59q-70 -95 -100 -295q-10 -66 -10 -103zM289 915q0 81 34 185t113 182q113 111 295 111q117 0 225 -68q47 -29 160 -29h250q121 0 199 90l43 52l88 -74l-1174 -1427l-84 77l979 1190h-395
q12 -66 12 -100q0 -150 -78 -281q-113 -193 -368 -192q-160 -1 -230 79t-69 205z" />
    <glyph glyph-name="ampersand" unicode="&#x26;" horiz-adv-x="1540" 
d="M752 1065q0 -106 69 -217q82 35 140 120q57 85 57 195q0 57 -30 97t-86 38q-56 0 -104 -64q-46 -64 -46 -169zM483 394q0 -116 85 -196q85 -81 214 -81q54 0 114 19t89 46q-221 184 -385 490q-37 -26 -77 -94t-40 -184zM199 350q1 74 27 138t57 103q31 38 91 78t90 54
t91 43q-55 111 -55 217q0 182 115 296q117 114 273 114t252 -77t95 -215q0 -138 -122 -222q-97 -66 -247 -115q135 -221 312 -410q121 143 149 500q47 35 115 48t117 7q27 -53 21 -117t-34 -116q-125 -236 -301 -393q162 -172 293 -230l-10 -67l-55 2q-258 8 -412 129
q-78 -68 -196 -105t-232 -37q-205 1 -319 109t-115 266z" />
    <glyph glyph-name="quotesingle" unicode="'" horiz-adv-x="503" 
d="M535 1448q91 0 113 -38t-11 -120l-197 -520h-94l23 520q4 84 39 121t127 37z" />
    <glyph glyph-name="parenleft" unicode="(" horiz-adv-x="716" 
d="M262 76q-37 224 38 550t183 509q195 311 486 297l-2 -70q-78 -14 -149 -81q-210 -199 -318 -703q-79 -333 -28 -593q32 -159 126 -192l-25 -69q-258 28 -311 352z" />
    <glyph glyph-name="parenright" unicode=")" horiz-adv-x="716" 
d="M6 -276l2 69q78 14 149 81q172 162 278 545q128 444 68 751q-32 159 -126 192l24 70q258 -29 312 -353q37 -223 -38 -549t-183 -510q-195 -310 -486 -296z" />
    <glyph glyph-name="asterisk" unicode="*" horiz-adv-x="1024" 
d="M816 1448q60 0 84 -26t1 -66l-92 -168q-16 -33 2 -44t47 15l154 133q34 27 68 17q34 -11 58 -55t14 -80t-52 -48l-230 -45q-24 -4 -36 -16q-27 -29 20 -41l166 -51q49 -13 53 -57t-31 -87q-61 -82 -131 -2l-106 127q-19 25 -35 13t-14 -52l14 -184q8 -86 -100 -86
q-66 0 -92 30t0 75l92 176q10 20 6 33t-20 13t-35 -20l-142 -137q-90 -74 -143 31q-24 43 -14 80t53 47l237 57q25 6 34 18t0 23q-9 12 -36 19l-161 43q-43 12 -49 56q-5 44 23 80q27 36 67 45t63 -18l113 -131q25 -27 42 -15t13 48l-16 164q-8 86 111 86z" />
    <glyph glyph-name="plus" unicode="+" horiz-adv-x="1228" 
d="M242 430v164h397v410h197v-410h397v-164h-397v-430h-197v430h-397z" />
    <glyph glyph-name="comma" unicode="," horiz-adv-x="573" 
d="M215 2q0 47 -26 102q-25 55 -25 112t48 105t124 49q76 2 118 -52t42 -133t-36 -157q-80 -173 -354 -370l-53 59q162 158 162 285z" />
    <glyph glyph-name="hyphen" unicode="-" horiz-adv-x="802" 
d="M217 416l41 194h539l-41 -194h-539z" />
    <glyph glyph-name="period" unicode="." horiz-adv-x="573" 
d="M137 148q1 80 57 136t140 56t128 -46t44 -126t-55 -136t-139 -56t-130 45q-45 46 -45 127z" />
    <glyph glyph-name="slash" unicode="/" horiz-adv-x="532" 
d="M39 -31l586 1479h204l-585 -1479h-205z" />
    <glyph glyph-name="zero" unicode="0" horiz-adv-x="1146" 
d="M475 272q0 -98 36 -150t97 -52q88 0 152 116t116 304t77 357q26 169 26 255q0 197 -125 196q-133 0 -248 -327q-131 -377 -131 -699zM188 446q0 299 117 553q184 393 529 394q133 0 224 -45t133 -120q73 -130 75 -294q0 -279 -109 -539q-86 -201 -208 -311
q-121 -110 -337 -109q-216 0 -320 135t-104 336z" />
    <glyph glyph-name="one" unicode="1" horiz-adv-x="1146" 
d="M219 0l17 78l147 10q37 4 56 20t28 58l217 973q8 47 1 62t-34 20l-155 26l16 68l506 78l16 -15l-268 -1212q-8 -44 5 -60t52 -18l150 -10l-17 -78h-737z" />
    <glyph glyph-name="two" unicode="2" horiz-adv-x="1146" 
d="M936 1135q0 164 -125 163q-123 0 -211 -216q-38 -92 -62 -116q-24 -26 -75 -26t-97 40t-47 105q1 119 135 213t350 94t334 -94q118 -96 118 -263t-105 -277q-104 -110 -309 -197q-121 -49 -261 -146t-161 -177h479q67 0 99 22t79 94l82 -8l-123 -346h-930l-26 33
q27 143 141 264q115 121 315 260t300 277t100 301z" />
    <glyph glyph-name="three" unicode="3" horiz-adv-x="1146" 
d="M272 399q74 0 101 -94q37 -131 87 -183t137 -52t157 100t69 272q0 244 -161 244q-53 0 -122 -14t-81 -15q-51 0 -51 64q0 41 17 73t39 32t90 -16q67 -15 116 -15q110 -1 182 107t72 241q0 71 -35 113t-97 42t-115 -54q-52 -54 -86 -130t-54 -95q-21 -19 -69 -19t-92 35
q-44 36 -46 91q-4 92 120 180t336 87q212 0 330 -90q117 -91 117 -235t-96 -222t-263 -94v-9q137 -35 207 -123t70 -210q0 -215 -174 -334q-145 -100 -375 -100t-357 80q-126 82 -130 186q-2 68 49 112t108 45z" />
    <glyph glyph-name="four" unicode="4" horiz-adv-x="1146" 
d="M358 489h369l145 623h-4q-266 -297 -510 -623zM129 420q412 530 842 948h241l-194 -879h190l-30 -133h-189l-47 -209q-14 -57 39 -61l98 -8l-18 -78h-627l19 78l133 10q53 4 67 59l45 209h-540z" />
    <glyph glyph-name="five" unicode="5" horiz-adv-x="1146" 
d="M272 399q54 -1 73 -25t34 -75q37 -129 84 -179t121 -50q100 0 174 116t73 310q0 118 -55 188t-155 70q-137 0 -248 -131l-74 51l137 672l31 22h805l14 -25l-125 -213h-563q-35 0 -49 -11t-29 -52l-92 -285l4 -4q152 104 313 105q205 0 309 -108t103 -288
q0 -247 -166 -379t-399 -132t-351 80t-122 186q-2 66 49 112q50 46 104 45z" />
    <glyph glyph-name="six" unicode="6" horiz-adv-x="1146" 
d="M483 332q0 -117 42 -190q42 -72 137 -72t161 126t66 308q0 104 -46 162t-124 57q-106 0 -178 -109q-58 -87 -58 -282zM186 462q0 218 81 443t233 356t362 131t310 -84q100 -85 100 -158t-47 -107t-103 -33q-72 0 -86 84q-41 205 -164 204q-98 0 -191 -158t-151 -403h5
q53 61 134 103t152 41q185 1 283 -105t98 -287q0 -217 -145 -365t-397 -148t-363 134t-111 352z" />
    <glyph glyph-name="seven" unicode="7" horiz-adv-x="1146" 
d="M526 -25q-166 0 -166 121q0 104 86 247q70 113 328 377q131 134 210 249t95 161h-516q-69 0 -105 -18t-61 -57l-24 -39l-72 22l119 330h926l20 -25q-33 -121 -136 -263t-284 -347q-115 -129 -175 -281t-87 -356q-14 -121 -158 -121z" />
    <glyph glyph-name="eight" unicode="8" horiz-adv-x="1146" 
d="M635 940q0 -164 125 -164q86 0 147 111t62 274q0 53 -29 95t-90 42q-98 0 -157 -114q-58 -115 -58 -244zM465 272q0 -94 42 -148t118 -54q106 0 175 120t68 293q0 199 -155 199q-96 0 -172 -118t-76 -292zM646 -25q-260 1 -379 107q-120 106 -120 267q1 161 105 275
t268 126v6q-74 20 -129 86t-55 168q0 162 115 266q125 117 369 117q244 1 345 -95q103 -96 103 -236t-89 -218t-216 -101v-8q96 -27 159 -107t64 -196q0 -205 -140 -331t-400 -126z" />
    <glyph glyph-name="nine" unicode="9" horiz-adv-x="1146" 
d="M956 1067q0 240 -155 240q-100 0 -168 -122t-68 -288q0 -97 47 -161t140 -64q92 0 148 93t56 302zM328 371q66 0 92 -104q26 -105 66 -149t100 -44q129 0 231 241q28 62 62 195t39 147l-5 2q-125 -135 -279 -135t-261 98q-106 98 -107 259q0 219 135 360q152 152 379 152
q459 0 459 -504q0 -135 -36 -299q-37 -164 -111 -312t-191 -225q-117 -78 -304 -78t-305 78t-122 176q-2 59 45 101t113 41z" />
    <glyph glyph-name="colon" unicode=":" horiz-adv-x="573" 
d="M276 812q0 81 56 136q56 56 141 56q84 0 128 -46t44 -126t-55 -136t-139 -57q-83 0 -129 46t-46 127zM137 148q1 80 57 136t140 56t128 -46t44 -126t-55 -136t-139 -56t-130 45q-45 46 -45 127z" />
    <glyph glyph-name="semicolon" unicode=";" horiz-adv-x="573" 
d="M215 2q0 47 -26 102q-25 55 -25 112t48 105t124 49q76 2 118 -52t42 -133t-36 -157q-80 -173 -354 -370l-53 59q162 158 162 285zM276 812q0 81 56 136q56 56 141 56q84 0 128 -46t44 -126t-55 -136t-139 -57q-83 0 -129 46t-46 127z" />
    <glyph glyph-name="less" unicode="&#x3c;" horiz-adv-x="1228" 
d="M207 428v168l979 418v-187l-780 -315l780 -315v-187z" />
    <glyph glyph-name="equal" unicode="=" horiz-adv-x="1228" 
d="M242 649v164h991v-164h-991zM242 211v164h991v-164h-991z" />
    <glyph glyph-name="greater" unicode="&#x3e;" horiz-adv-x="1228" 
d="M248 10v187l780 315l-780 315v187l979 -418v-168z" />
    <glyph glyph-name="question" unicode="?" horiz-adv-x="929" 
d="M307 148q1 80 57 136t140 56t128 -46t44 -126t-55 -136t-139 -56t-130 45q-45 46 -45 127zM313 1198q0 90 109 170q108 80 306 80t298 -73t100 -193t-74 -190q-74 -71 -208 -122q-217 -82 -217 -196q-1 -43 31 -68q57 -45 157 -28l14 -60q-106 -72 -235 -72t-196 54
t-66 141q0 137 219 254q270 145 270 365q0 94 -69 94q-88 0 -183 -215q-31 -70 -93 -70t-112 33t-51 96z" />
    <glyph glyph-name="at" unicode="@" horiz-adv-x="1695" 
d="M872 514q0 -78 48 -78q53 0 133 133t118 250l74 201q-25 18 -59 18q-82 0 -158 -104t-116 -223t-40 -197zM256 629q0 248 124 437q124 190 320 286t430 96q302 0 484 -173t182 -427q0 -186 -116 -345q-56 -77 -150 -125t-213 -48t-156 56t-16 136l24 111l-6 4
q-145 -307 -377 -307q-78 0 -120 51t-43 126q0 157 117 363q58 102 172 173t257 71q55 0 97 -20l6 12h225q-98 -354 -147 -576q-20 -94 63 -94q98 0 164 138t65 264q0 231 -150 359q-151 128 -378 128q-264 0 -449 -208t-186 -488q0 -188 118 -357q60 -86 176 -139t296 -53
t348 72l23 -72q-76 -53 -199 -82t-227 -29q-328 0 -543 169t-215 491z" />
    <glyph glyph-name="A" unicode="A" 
d="M532 602h347l-50 535h-4q-23 -37 -143.5 -258.5t-149.5 -276.5zM-49 0l14 78l55 6q47 4 75 24q29 20 83 109.5t285 497.5l397 702h242l69 -649q8 -76 31 -297t30 -283t19.5 -82t44.5 -22l84 -6l-16 -78h-614l16 78l106 8q53 2 48 76l-31 342h-410q-37 -68 -96 -185.5
t-80 -156.5q-37 -74 27 -76l114 -8l-14 -78h-479z" />
    <glyph glyph-name="B" unicode="B" horiz-adv-x="1392" 
d="M821 797q154 0 249 85t95 232q0 209 -221 209q-66 0 -83 -13.5t-30 -62.5l-100 -450h90zM719 94q172 0 259 100q87 102 87 240q0 268 -270 268h-84l-107 -475q-14 -68 7.5 -100.5t107.5 -32.5zM1483 1099q0 -142 -98.5 -236.5t-290.5 -114.5v-5q125 -23 217 -106.5
t92 -235.5q0 -199 -154.5 -300t-484.5 -101h-682l18 78l93 8q41 2 58 27.5t32 87.5l227 1016q14 55 8 82.5t-47 29.5l-104 10l20 78h547q317 2 433 -87t116 -231z" />
    <glyph glyph-name="C" unicode="C" horiz-adv-x="1376" 
d="M227 563q0 293 142 510q246 375 768 375q109 0 240.5 -23.5t213.5 -74.5l-80 -367h-77q-4 371 -293 371q-147 0 -262 -84t-179 -218q-128 -269 -127 -571q0 -207 86 -312.5t240 -105.5q155 1 267 119q60 62 97 115t99 154h78l-113 -398q-164 -84 -438 -84q-170 0 -297 45
t-194.5 108.5t-108.5 151.5t-51.5 153.5t-10.5 135.5z" />
    <glyph glyph-name="D" unicode="D" horiz-adv-x="1585" 
d="M737 94q135 0 245 64.5t175.5 160t109.5 214t60 217t16 180.5q0 166 -59 267q-74 126 -280 126q-98 0 -131 -15.5t-44 -66.5l-231 -1042q-14 -61 21.5 -83t117.5 -22zM1677 825q0 -88 -30.5 -213t-104.5 -239q-115 -182 -301 -277.5t-502 -95.5h-657l18 78l93 8
q41 2 58 27.5t32 87.5l227 1016q14 55 8 82.5t-47 29.5l-104 10l20 78h563q369 -4 539 -133q188 -143 188 -459z" />
    <glyph glyph-name="E" unicode="E" horiz-adv-x="1273" 
d="M1075 1323h-141q-53 0 -71.5 -11.5t-28.5 -56.5l-103 -462h193q94 0 135 34.5t92 149.5h78l-103 -467h-77q4 100 -25 142t-123 42h-192l-109 -483q-18 -80 25 -98.5t183 -18.5t221 46t157 175l65 111h78l-121 -426h-1126l18 78l93 8q41 2 58 27.5t32 87.5l227 1016
q14 55 8 82.5t-47 29.5l-104 10l22 78h1090l-82 -379h-78l-10 113q-6 82 -57.5 127t-176.5 45z" />
    <glyph glyph-name="F" unicode="F" horiz-adv-x="1198" 
d="M1067 1323h-152q-39 0 -55 -12.5t-24 -46.5l-113 -510h231q94 0 136.5 35.5t93.5 150.5h78l-103 -471h-78q4 102 -24.5 144t-122.5 42h-236l-104 -460q-14 -55 -1 -80t60 -29l113 -8l-16 -78h-668l18 78l93 8q41 2 58 27.5t32 87.5l227 1016q14 55 8 82.5t-47 29.5
l-104 10l20 78h1083l-81 -375h-78l-11 109q-6 86 -56 129t-177 43z" />
    <glyph glyph-name="G" unicode="G" horiz-adv-x="1486" 
d="M227 583q0 314 189 560q104 139 285.5 222t455.5 83t430 -107l-71 -358h-78q-33 371 -314 371q-141 0 -251.5 -83t-172.5 -214q-126 -265 -127 -563q0 -213 77 -322t245 -109q90 0 121 21.5t45 83.5l67 274q27 106 -32 113l-131 10l16 78h639l-18 -78l-84 -12
q-41 -3 -58 -51q-6 -16 -16 -60l-86 -364q-190 -109 -489.5 -109t-470.5 150t-171 464z" />
    <glyph glyph-name="H" unicode="H" horiz-adv-x="1638" 
d="M82 0l18 78l93 8q41 2 58 27.5t32 87.5l227 1016q14 55 8 82.5t-47 29.5l-104 10l20 78h639l-20 -78l-91 -8q-41 -2 -58 -27.5t-32 -86.5l-94 -424h533l94 424q14 55 8 82.5t-47 29.5l-105 10l21 78h639l-21 -78l-90 -8q-41 -2 -58 -27.5t-32 -86.5l-227 -1016
q-14 -55 -8 -83t47 -32l102 -8l-18 -78h-639l18 78l92 8q41 2 58.5 27.5t31.5 87.5l111 493h-532l-111 -493q-14 -55 -8 -83t47 -32l102 -8l-18 -78h-639z" />
    <glyph glyph-name="I" unicode="I" horiz-adv-x="790" 
d="M82 0l18 78l93 8q41 2 58 27.5t32 87.5l227 1016q14 55 8 82.5t-47 29.5l-104 10l20 78h639l-20 -78l-91 -8q-41 -2 -58 -27.5t-32 -86.5l-227 -1016q-14 -55 -8 -83t47 -32l102 -8l-18 -78h-639z" />
    <glyph glyph-name="J" unicode="J" horiz-adv-x="794" 
d="M-31 -162q137 23 203 99q94 106 158 387l202 893q14 55 8.5 82.5t-46.5 29.5l-105 10l21 78h639l-21 -78l-90 -8q-41 -2 -58.5 -27.5t-31.5 -86.5l-227 -1000q-53 -229 -162 -328q-135 -123 -402 -122q-66 0 -84 4z" />
    <glyph glyph-name="K" unicode="K" horiz-adv-x="1409" 
d="M82 0l18 78l93 8q41 2 58 27.5t32 87.5l227 1016q14 55 8 82.5t-47 29.5l-104 10l20 78h639l-20 -78l-91 -8q-41 -2 -58 -27.5t-32 -86.5l-106 -476l4 -4l256 248q63 59 155.5 153.5t118 119t33.5 39t-2 23.5t-41 13l-51 6l14 78h551l-14 -78q-102 -10 -146.5 -22
t-111.5 -60q-174 -117 -432 -358l-82 -74l22 -53q53 -133 140.5 -299t164.5 -271t150 -132l25 -9l-13 -73l-86 2q-205 4 -297 57q-171 99 -366 641h-4l-109 -487q-14 -55 -8 -83t47 -32l102 -8l-18 -78h-639z" />
    <glyph glyph-name="L" unicode="L" horiz-adv-x="1200" 
d="M783.5 94q119.5 0 200.5 47t159 172l61 99h78l-119 -412h-1081l18 78l93 8q41 4 58 28.5t32 86.5l227 1016q14 55 8 83.5t-47 30.5l-104 8l20 78h639l-20 -78l-91 -8q-41 -4 -58 -28.5t-32 -85.5l-225 -1010q-16 -72 24 -92.5t159.5 -20.5z" />
    <glyph glyph-name="M" unicode="M" horiz-adv-x="1886" 
d="M72 0l14 78l76 6q72 6 104 112t68 293l155 728q14 55 8.5 82.5t-46.5 29.5l-105 10l21 78h497q25 -158 82 -473l92 -522h6l297 522q195 342 261 473h514l-21 -78l-90 -8q-41 -2 -58.5 -27.5t-31.5 -86.5l-225 -1016q-14 -55 -8 -83t47 -32l102 -8l-19 -78h-618l18 78
l91 8q41 2 58 27.5t32 87.5l223 997h-6l-672 -1173h-133l-193 1173h-6l-147 -709q-45 -209 -51 -281t10 -97t59 -27l109 -6l-17 -78h-497z" />
    <glyph glyph-name="N" unicode="N" horiz-adv-x="1517" 
d="M61 0l17 78l76 6q72 6 102 101t78 304l160 728q14 55 8 82.5t-47 29.5l-103 10l21 78h454q184 -449 437 -1042h6l121 553q51 240 56 297t-10.5 81.5t-58.5 26.5l-110 6l16 78h504l-16 -78l-76 -6q-72 -6 -103 -101t-77 -304l-205 -928h-213q-240 573 -486 1149h-8
l-147 -660q-47 -233 -53 -293t9 -85t58 -27l111 -6l-17 -78h-504z" />
    <glyph glyph-name="O" unicode="O" horiz-adv-x="1558" 
d="M569 389q0 -326 256 -326q143 0 257 163t169.5 382t55.5 428q0 317 -238 318q-119 0 -219 -104t-158 -258q-122 -324 -123 -603zM231 546q0 269 117 494q213 408 690 408q274 0 440.5 -146.5t166.5 -428t-121 -513.5q-203 -391 -664 -391q-303 0 -466 154t-163 423z" />
    <glyph glyph-name="P" unicode="P" horiz-adv-x="1351" 
d="M1167 1087q0 236 -217 236q-63 0 -83.5 -15.5t-32.5 -62.5l-121 -543q-4 -20 -3 -36q2 -31 91 -31q172 0 269 139t97 313zM905 1417q287 0 420 -78q168 -98 168 -320t-173 -350t-515 -128h-129l-78 -340q-34 -109 43 -113l133 -10l-16 -78h-676l18 78l93 8q41 2 58 27.5
t32 87.5l229 1016q14 55 8 82.5t-47 29.5l-104 10l20 78h516z" />
    <glyph glyph-name="Q" unicode="Q" horiz-adv-x="1558" 
d="M569 389q0 -326 256 -326q143 0 257 163t169.5 382t55.5 428q0 317 -238 318q-119 0 -219 -104t-158 -258q-122 -324 -123 -603zM231 564.5q0 250.5 117 475.5q213 408 690 408q274 0 440.5 -146.5t166.5 -428t-121 -513.5q-160 -307 -469 -368q39 -76 110 -154
q135 -145 240 -145h25l10 -49q-72 -39 -191 -39q-209 0 -353 116.5t-196 262.5q-227 37 -348 183.5t-121 397z" />
    <glyph glyph-name="R" unicode="R" horiz-adv-x="1394" 
d="M848 743q129 0 226 100.5t97 268.5q0 211 -213 211q-70 0 -92 -15.5t-32 -58.5l-115 -506h129zM965 1417q266 0 389 -71q143 -86 143 -255.5t-120 -272.5t-314 -116v-4q118 -27 164 -93q45 -66 45 -155v-94q-8 -141 39 -221q29 -47 125 -57l-19 -78h-196q-215 0 -248 170
q-14 78 -8 211t-3 176t-40 67.5t-105 24.5h-119l-100 -448q-14 -55 -8 -83t47 -32l102 -8l-18 -78h-639l18 78l93 8q41 2 58 27.5t32 87.5l227 1016q14 55 8 82.5t-47 29.5l-104 10l20 78h578z" />
    <glyph glyph-name="S" unicode="S" horiz-adv-x="1128" 
d="M606 63q123 0 186.5 70t63.5 176q0 182 -211 303q-158 92 -240.5 184.5t-82.5 232t106 269.5q55 68 162.5 109t253.5 41q256 0 395 -111l-70 -329h-77q-4 172 -74 259t-179 87t-170 -66.5t-61 -151.5q0 -84 62 -148q60 -64 196 -140q286 -161 287 -418q0 -203 -136 -331
t-403 -130q-137 0 -271 43t-208 131l47 363h76q20 -207 122.5 -325t225.5 -118z" />
    <glyph glyph-name="T" unicode="T" horiz-adv-x="1261" 
d="M1188 1323h-98l-254 -1122q-14 -55 -8 -83t46 -30l132 -10l-19 -78h-696l18 78l121 8q41 2 58.5 27.5t31.5 87.5l254 1122h-106q-180 0 -269 -172l-63 -125h-78l88 391h1204l-88 -391h-78l-6 125q-10 172 -190 172z" />
    <glyph glyph-name="U" unicode="U" horiz-adv-x="1589" 
d="M834 63q131 0 210.5 111t133.5 354l153 689q14 55 8 82.5t-47 29.5l-104 10l20 78h639l-20 -78l-90 -8q-41 -2 -58.5 -27.5t-31.5 -86.5l-160 -699q-74 -326 -231 -437.5t-451.5 -111.5t-425.5 144q-110 125 -53 381l161 723q14 55 8 82.5t-46 29.5l-105 10l21 78h639
l-21 -78l-90 -8q-41 -2 -58.5 -27.5t-31.5 -86.5l-164 -740q-90 -414 195 -414z" />
    <glyph glyph-name="V" unicode="V" horiz-adv-x="1290" 
d="M260 1339l14 78h598l-14 -78l-123 -12q-47 -4 -39 -63q0 -8 8.5 -87t16.5 -159t15 -155t9 -91l54 -493h4q41 70 252 460q203 385 266 523q29 63 -27 69l-114 8l16 78h479l-14 -78l-76 -8q-33 -5 -57 -29t-82 -111t-293 -509l-377 -682h-246l-67 635q-12 113 -72 602
q-6 47 -19.5 68.5t-41.5 25.5z" />
    <glyph glyph-name="W" unicode="W" horiz-adv-x="1884" 
d="M236 1339l14 78h590l-15 -78l-112 -10q-45 -4 -41 -69l24 -961h11l473 1085h229l64 -1085h10q37 78 185.5 409.5t223.5 530.5q31 86 -24 90l-109 10l15 78h473l-15 -78l-57 -6q-47 -4 -75.5 -30.5t-55 -82t-124 -253t-155.5 -320.5l-305 -647h-252l-57 1018h-10
l-455 -1018h-252l-45 815q-22 459 -39 497q-8 18 -33 19z" />
    <glyph glyph-name="X" unicode="X" horiz-adv-x="1290" 
d="M-43 0l14 78l72 8q92 10 170 90q160 160 451 508q-10 27 -99.5 247t-136.5 326q-31 68 -86 74l-88 8l20 78h629l-14 -78l-105 -14q-51 -6 -26 -68l131 -335h6q248 301 287 352t-13 57l-96 8l19 78h503l-18 -78l-61 -4q-82 -4 -156 -75q-199 -178 -424 -443
q47 -106 133 -322t127 -308.5t117 -100.5l78 -8l-15 -78h-671l16 78l110 12q68 6 46 66l-164 411h-4q-207 -256 -322 -415q-41 -59 8 -64l127 -10l-16 -78h-549z" />
    <glyph glyph-name="Y" unicode="Y" horiz-adv-x="1273" 
d="M260 1343l16 74h617l-16 -78l-113 -12q-47 -4 -35 -59l143 -557h5q240 342 364 549q39 63 -27 69l-108 10l16 78h516l-14 -78l-59 -6q-65 -7 -105 -45q-16 -14 -51 -53q-176 -197 -432 -573q-55 -78 -70 -148l-71 -313q-14 -55 -8 -83t46 -30l132 -10l-19 -78h-694l18 78
l121 8q41 2 58.5 27.5t31.5 87.5l66 303q14 63 -4 133q-72 295 -170 610q-14 51 -31.5 68.5t-52.5 21.5z" />
    <glyph glyph-name="Z" unicode="Z" horiz-adv-x="1265" 
d="M817 1323q-141 0 -222 -42t-130 -151l-43 -96h-78l80 383h1094l16 -39q-516 -594 -1102 -1284h406q123 0 203.5 47t156.5 174l66 111h77l-120 -426h-1196l-15 41q580 670 1096 1282h-289z" />
    <glyph glyph-name="bracketleft" unicode="[" horiz-adv-x="716" 
d="M186 -262l381 1679h381l-16 -69l-127 -15q-41 -3 -56 -25t-28 -71l-297 -1319q-12 -45 -4 -69t45 -27l119 -15l-17 -69h-381z" />
    <glyph glyph-name="backslash" unicode="\" horiz-adv-x="942" 
d="M305 1448h205l432 -1479h-205z" />
    <glyph glyph-name="bracketright" unicode="]" horiz-adv-x="716" 
d="M27 -262l16 69l127 15q41 4 56 26t28 70l297 1319q12 45 4 69t-45 27l-119 15l17 69h380l-380 -1679h-381z" />
    <glyph glyph-name="asciicircum" unicode="^" horiz-adv-x="1228" 
d="M233 440l404 928h203l393 -928h-213l-283 699l-291 -699h-213z" />
    <glyph glyph-name="underscore" unicode="_" horiz-adv-x="1024" 
d="M0 -154h1024v-102h-1024v102z" />
    <glyph glyph-name="grave" unicode="`" horiz-adv-x="819" 
d="M295 1394q0 38 36 80q35 42 69 42t66 -22t89 -81l297 -305l-43 -61l-375 210q-68 37 -104 68t-35 69z" />
    <glyph glyph-name="a" unicode="a" horiz-adv-x="1220" 
d="M440 229q0 -89 60 -90q84 0 245 258q139 229 211 508q-41 29 -111.5 29t-150.5 -79t-134 -190.5t-87 -229t-33 -206.5zM125 211q0 94 26.5 196.5t85 213t139.5 200.5t201.5 148.5t234.5 58.5t171 -35l8 19h281l-207 -776q-25 -96 22 -97q66 0 179 199l59 -33
q-166 -330 -407 -330q-201 0 -127 258l51 181h-13q-147 -252 -260.5 -345.5t-229 -93.5t-165 71t-49.5 165z" />
    <glyph glyph-name="b" unicode="b" horiz-adv-x="1200" 
d="M498 223q0 -154 120 -153q80 0 150 81.5t112 195.5q89 242 89 396q0 121 -74 121q-133 0 -287 -282q-47 -90 -78.5 -191.5t-31.5 -167.5zM1284 788.5q0 -98.5 -32.5 -225.5t-100.5 -248q-188 -340 -543 -340q-197 0 -293 115l-75 -90l-99 10l289 1272q12 55 5 76.5
t-36 25.5l-102 15l10 65l457 56l12 -13l-229 -884h10q221 406 498 405q115 0 172 -70.5t57 -169z" />
    <glyph glyph-name="c" unicode="c" horiz-adv-x="933" 
d="M795.5 1028q129.5 0 213 -55t83.5 -144q0 -51 -59.5 -90t-120 -39t-82 88.5t-41 117t-50.5 28.5q-96 0 -186 -196.5t-90 -411.5t145 -215q90 0 163 69.5t147 188.5l61 -43q-176 -350 -500 -351q-147 0 -238 83t-91 274t110 383t300 270q106 43 235.5 43z" />
    <glyph glyph-name="d" unicode="d" horiz-adv-x="1247" 
d="M446 250.5q0 -111.5 78 -111.5q102 0 243.5 239.5t203.5 522.5q-39 33 -109 33q-113 0 -213 -131t-151.5 -286t-51.5 -266.5zM131 226.5q0 97.5 24.5 194.5t81 204.5t134.5 196.5t196.5 147.5t240 58.5t181.5 -35l4 2l72 305q19 79 -31 86l-104 15l14 63l447 56l14 -13
l-299 -1271q-25 -96 24 -97q31 0 80.5 60.5t94.5 140.5l59 -29q-156 -338 -401 -338q-207 0 -144 238l62 221l-9 2q-157 -273 -271 -366t-242 -93t-178 77t-50 174.5z" />
    <glyph glyph-name="e" unicode="e" horiz-adv-x="974" 
d="M827 844q0 90 -75 90q-90 0 -178 -141.5t-111 -317.5q172 35 268 138.5t96 230.5zM150 330q0 256 165 465q186 233 471 233q133 0 218.5 -65.5t85.5 -178t-95 -198.5q-141 -125 -540 -203v-49q0 -94 37.5 -158.5t123.5 -64.5t162 61t164 188l62 -49q-186 -336 -521 -336
q-126 0 -221 71q-112 83 -112 284z" />
    <glyph glyph-name="f" unicode="f" horiz-adv-x="712" 
d="M-193 -354.5q0 57.5 37 94.5t71.5 37t52.5 -11.5t23 -19.5t19 -33q66 -115 96 -114q27 0 39 55l252 1251h-182l29 99h176l14 53q54 197 148 317q114 146 329 146q129 0 211 -53.5t82 -117t-45 -98t-98 -34.5t-84 61q-41 86 -64.5 116.5t-48.5 30.5q-45 0 -73 -122
l-72 -299h262l-25 -99h-256l-198 -848q-68 -285 -171.5 -419t-277.5 -134q-115 0 -180.5 42t-65.5 99.5z" />
    <glyph glyph-name="g" unicode="g" horiz-adv-x="1069" 
d="M528 596q0 -63 30 -101t89 -38q88 0 146 98q63 111 63 254q-2 68 -38 96.5t-83 28.5q-92 0 -149.5 -108.5t-57.5 -229.5zM574.5 -401q99.5 0 171 48t69.5 138q-3 115 -127 161q-96 36 -211 54q-51 -8 -102 -56t-50 -141t75.5 -148.5t174 -55.5zM180 205q0 88 152 151
q25 10 82 31v4q-76 25 -135.5 88.5t-61.5 145.5t22.5 144t80 122.5t161 98.5t259 38t272.5 -61l295 82l12 -19l-64 -153l-155 -25q35 -53 35 -131q0 -166 -135.5 -261t-354.5 -98q-72 0 -123 5q-66 -23 -65 -66q2 -33 49 -52.5t201 -55.5q369 -86 368 -336
q0 -174 -144.5 -263.5t-381 -89.5t-369.5 78t-135 197t95.5 180t226.5 78v4q-88 27 -137.5 71t-49.5 93z" />
    <glyph glyph-name="h" unicode="h" horiz-adv-x="1288" 
d="M1098 1028q119 0 160.5 -88t-5.5 -229l-147 -475q-27 -96 22 -97q33 0 83.5 61.5t93.5 141.5l59 -31q-154 -336 -401 -336q-100 0 -141.5 65.5t-4.5 190.5l152 514q16 57 5 88t-46 31q-74 0 -180.5 -134t-162.5 -277.5t-139 -452.5l-284 -25l293 1321q20 82 -33 88
l-119 15l16 65l469 56l11 -11l-219 -905h10q94 180 226 302t282 122z" />
    <glyph glyph-name="i" unicode="i" horiz-adv-x="694" 
d="M365 -25q-210 0 -144 244l158 584q20 80 -35 86l-119 12l17 68l471 59l12 -12l-211 -780q-27 -96 23 -97q33 0 82 60.5t94 140.5l61 -35q-164 -330 -409 -330zM461 1296q0 70 46 124.5t125 54.5t125 -39t46 -117t-48 -126t-125 -48t-123 40.5t-46 110.5z" />
    <glyph glyph-name="j" unicode="j" horiz-adv-x="681" 
d="M-174 -364q0 51 40 91t70.5 40t47 -13.5t45.5 -54.5q66 -100 90.5 -100t40.5 69l250 1133q18 82 -31 88l-131 12l14 68l475 59l15 -10l-236 -1028q-70 -299 -186 -402q-100 -84 -235.5 -84t-202 40.5t-66.5 91.5zM475 1296q0 70 46 124.5t125 54.5t125 -39t46 -117
t-48 -126t-125 -48t-123 40.5t-46 110.5z" />
    <glyph glyph-name="k" unicode="k" horiz-adv-x="1167" 
d="M1182.5 1028q58.5 0 92.5 -36t34 -93.5t-35 -104t-83 -46.5t-102 39.5t-88 39.5q-55 0 -184 -147q55 -221 141 -440q39 -100 84 -101q47 0 150 174l63 -32q-129 -305 -344 -306q-152 0 -221 187q-59 153 -106 358q58 91 218 259t241 208.5t139.5 40.5zM152 -25l303 1321
q20 82 -33 88l-119 15l23 65l458 56l11 -11l-353 -1509z" />
    <glyph glyph-name="l" unicode="l" horiz-adv-x="669" 
d="M213 236l256 1060q20 82 -33 88l-119 15l15 65l465 56l12 -11l-309 -1273q-20 -96 22 -97q33 0 84 60.5t94 140.5l64 -37q-162 -328 -404 -328q-210 1 -147 261z" />
    <glyph glyph-name="m" unicode="m" horiz-adv-x="1871" 
d="M1544 -25q-92 0 -130 63.5t-7 180.5l156 526q35 119 -35 119t-179.5 -147.5t-164.5 -278.5q-76 -188 -144 -438l-282 -25l215 791q14 53 5 75.5t-46 22.5q-68 0 -178.5 -149.5t-170 -297t-134.5 -417.5l-283 -25l207 826q20 82 -31 88l-119 12l15 68l467 59l10 -12
l-131 -436h10q102 195 236.5 321.5t265.5 126.5q215 0 125 -299l-43 -147l10 -2q104 199 236 323.5t276 124.5q115 0 151.5 -88t-6.5 -209l-149 -495q-33 -96 20 -97q65 0 178 201l56 -37q-158 -328 -406 -328z" />
    <glyph glyph-name="n" unicode="n" horiz-adv-x="1300" 
d="M1122 1028q82 0 126 -41t46 -107.5t-18 -148.5l-154 -495q-29 -96 23 -97q35 0 84 60.5t92 140.5l59 -37q-160 -328 -411 -328q-96 0 -134 63.5t-6 180.5l156 524q37 121 -41 121q-68 0 -179.5 -148.5t-164.5 -279.5q-82 -209 -147 -436l-289 -25l211 826q25 82 -31 88
l-123 12l17 68l477 59l10 -10l-139 -445h12q106 199 241.5 327t282.5 128z" />
    <glyph glyph-name="o" unicode="o" horiz-adv-x="1150" 
d="M455 219q0 -150 123 -149q76 0 142 86t106 206q87 260 87 404q0 168 -116 168q-127 0 -236 -240q-106 -244 -106 -475zM158 356q0 217 121 404q172 268 501 268q176 0 294 -80q136 -92 136 -302t-127 -410q-164 -260 -501 -261q-213 0 -318.5 103.5t-105.5 277.5z" />
    <glyph glyph-name="p" unicode="p" horiz-adv-x="1241" 
d="M646 70q87 0 160 81.5t115 196.5q91 249 91 404q0 113 -76 112q-57 0 -132 -77.5t-161 -233.5t-145 -422q61 -61 148 -61zM1098 1028q115 0 172 -69.5t57 -209.5q0 -141 -82 -339q-47 -114 -115.5 -209t-182 -160.5t-257 -65.5t-215.5 43l-117 -489l-286 -25l282 1297
q18 82 -30 88l-121 12l14 68l469 59l10 -10l-116 -432h8q238 442 510 442z" />
    <glyph glyph-name="q" unicode="q" horiz-adv-x="1196" 
d="M446 250q0 -111 70 -111q86 0 221 191q174 246 252 575q-45 29 -106 29q-98 0 -184.5 -79t-139.5 -191q-113 -240 -113 -414zM866 1028q135 0 246 -47l82 70h115l-357 -1504l-297 -43l201 885h-6q-246 -414 -500 -414q-92 0 -153.5 56.5t-64.5 150t14.5 180.5t52 180
t96 179t139.5 155.5t187.5 110.5t244.5 41z" />
    <glyph glyph-name="r" unicode="r" horiz-adv-x="901" 
d="M963 1028q127 0 127 -121q0 -63 -40 -119.5t-91.5 -56.5t-102.5 36t-82 36q-94 0 -199 -367q-20 -72 -58 -223.5t-54 -212.5l-287 -25l191 826q18 82 -31 88l-121 12l14 68l437 59l10 -10l-76 -297h10q172 307 353 307z" />
    <glyph glyph-name="s" unicode="s" horiz-adv-x="854" 
d="M92 182q0 55 44 98.5t97 43.5t84 -62q53 -109 99.5 -150.5t95.5 -41.5t79 29.5t30 76.5q-7 100 -181 240t-180 279q-6 138 94.5 235.5t268.5 97.5t250.5 -58.5t82.5 -117.5t-43 -91t-94 -32t-78 53q-43 82 -76.5 117t-74.5 35t-69.5 -30t-26.5 -81t43 -101t131 -118
q186 -141 186 -307q0 -139 -97.5 -230.5t-284.5 -91.5t-283.5 64.5t-96.5 142.5z" />
    <glyph glyph-name="t" unicode="t" horiz-adv-x="735" 
d="M543 139q82 0 202 201l58 -39q-172 -326 -432 -326q-94 0 -137.5 62.5t-10.5 189.5l172 678h-170l25 99h166l41 151l309 158l27 -17l-91 -292h246l-24 -99h-242l-168 -678q-20 -88 29 -88z" />
    <glyph glyph-name="u" unicode="u" 
d="M567 139q70 0 173.5 146.5t160.5 280t143 438.5l291 24l-207 -792q-29 -96 25 -97q59 0 176 201l60 -37q-162 -328 -408 -328q-84 0 -121 59.5t-10 162.5l63 233h-8q-248 -455 -530 -455q-215 0 -137 297l137 529q25 88 -31 94l-121 12l17 68l473 53l10 -10l-193 -756
q-33 -123 37 -123z" />
    <glyph glyph-name="v" unicode="v" horiz-adv-x="1060" 
d="M1128 1028q8 0 24 -20q92 -120 -32 -390q-70 -152 -184 -296q-274 -346 -519 -346.5t-179 286.5l124 539q20 88 -30 94l-121 12l14 68l463 53l10 -10l-170 -737q-16 -66 2.5 -104t65.5 -38q106 -2 216 183.5t122 404.5q0 172 -25 258q109 43 219 43z" />
    <glyph glyph-name="w" unicode="w" horiz-adv-x="1628" 
d="M1700 1028q8 0 24 -22q40 -55 38.5 -143.5t-65 -241t-167.5 -297.5q-254 -348 -481 -349q-94 0 -139.5 52.5t-45.5 136.5t35 235h-8q-100 -195 -229.5 -309.5t-266.5 -114.5q-96 0 -143 74t-14 213l129 539q20 88 -31 94l-121 12l14 68l465 53l11 -10l-175 -731
q-35 -147 52 -148q74 0 192.5 196t237.5 662l278 13l-141 -631q-58 -240 63 -240q98 0 197.5 187.5t108.5 400.5q0 145 -29 258q123 43 211 43z" />
    <glyph glyph-name="x" unicode="x" horiz-adv-x="1056" 
d="M18 104q0 57 36 103.5t76 46.5t91.5 -35t79.5 -35q56 0 201 291l-80 330q-8 39 -25.5 50t-56.5 11l-123 -4l-6 64l430 102l14 -8l64 -299h4q43 76 94 147q117 160 248 160q53 0 89 -29.5t36 -87t-35 -99.5t-74 -42t-88 24t-78 23q-57 0 -172 -201l88 -354
q16 -70 33 -96.5t41 -26.5q63 2 166 228l64 -31q-129 -360 -373 -361q-86 0 -129 59.5t-70 174.5l-33 139h-6q-8 -16 -34.5 -65.5t-32.5 -63.5q-68 -123 -128.5 -183.5t-142.5 -60.5t-125 36t-43 93z" />
    <glyph glyph-name="y" unicode="y" horiz-adv-x="1001" 
d="M297 -346q55 0 90 117q23 76 23 209t-31 374.5t-51.5 351t-36 137t-47.5 25.5h-127v62l444 98l17 -8q23 -84 46 -364.5t25 -508.5h6q195 350 232 547q23 121 18 283q115 51 213 51q12 0 27.5 -38t15.5 -70q0 -66 -69 -190t-155.5 -268.5t-187 -322.5t-146.5 -252.5
t-86 -134t-101.5 -128t-120.5 -94.5t-140 -26t-132.5 38t-53.5 93t42 107.5t87.5 53.5t61.5 -13t47 -53q51 -76 90 -76z" />
    <glyph glyph-name="z" unicode="z" horiz-adv-x="954" 
d="M37 39q0 57 55 121q193 209 666 647v4h-297q-80 0 -121 -40t-98 -144l-52 24q63 250 158 353h744l16 -33q-547 -502 -684 -652v-12q37 -6 161.5 -49t176.5 -43q88 0 135 58.5t71.5 105.5t26.5 53l60 -20q-49 -201 -90 -286t-84 -118t-119 -33t-286 82t-212 82
q-20 0 -20 -37l8 -61q4 -66 -137 -66q-78 1 -78 64z" />
    <glyph glyph-name="braceleft" unicode="{" horiz-adv-x="696" 
d="M883 1417h88l-17 -69q-112 -8 -154 -66t-59 -178l-20 -158q-10 -80 -15 -114q-4 -34 -22 -86t-44 -76q-69 -63 -187 -86l-2 -13q104 -24 134 -69q11 -18 18 -32t6 -38q-1 -25 -1 -38t-10 -51t-24 -80q-15 -42 -19 -54l-55 -158q-27 -76 -31 -122t28 -81t109 -41l-14 -69
h-55q-91 0 -151 24t-85 61q-47 67 -19 191q9 45 29 107l66 192q41 109 17 169t-138 61l14 69q133 0 174 52t58 178l24 192q19 153 75 252q75 131 282 131z" />
    <glyph glyph-name="bar" unicode="|" horiz-adv-x="542" 
d="M311 -512v2048h213v-2048h-213z" />
    <glyph glyph-name="braceright" unicode="}" horiz-adv-x="696" 
d="M420 1417q92 -1 151 -25t84 -60q61 -88 -10 -298l-65 -192q-40 -109 -16 -169t136 -61l-14 -69q-74 1 -119 -13q-75 -23 -97 -116q-7 -31 -15 -101l-25 -192q-10 -80 -24 -134q-41 -159 -158 -215q-72 -34 -174 -34h-88l16 69q113 9 155 67t58 177l21 158q10 80 15 114
t22 86q17 51 43 75q69 63 188 87l2 13q-107 24 -134 69q-10 17 -18 31t-7 39t1 48t12 57t25 70l72 206q27 76 30 122q4 46 -27 81q-32 35 -110 41l15 69h55z" />
    <glyph glyph-name="asciitilde" unicode="~" horiz-adv-x="1228" 
d="M538 662q72 0 210 -58t198 -59q61 0 101 33q39 33 83 114l111 -57q-53 -125 -126 -199t-182 -74t-233 60q-131 57 -200 57q-96 0 -170 -157l-115 57q52 115 98 173t99 84q54 26 126 26z" />
    <glyph glyph-name="uni00A0" unicode="&#xa0;" horiz-adv-x="430" 
 />
    <glyph glyph-name="exclamdown" unicode="&#xa1;" horiz-adv-x="583" 
d="M465 664q-84 0 -128 46t-44 125q0 81 55 137t139 56t129 -46q46 -46 46 -127t-56 -136t-141 -55zM192 -444q-120 0 -142 52q-21 52 26 161l289 790h112l-74 -790q-12 -117 -52 -165q-39 -48 -159 -48z" />
    <glyph glyph-name="cent" unicode="&#xa2;" horiz-adv-x="1146" 
d="M532 551q-4 -209 134 -246l190 828q-92 1 -169 -105t-115 -237t-40 -240zM236 587q0 215 139 404q174 233 502 236l30 141h111l-31 -145q113 1 225 -63t111 -156q-2 -58 -50 -90q-47 -32 -105 -30t-78 72q-53 180 -125 177l-189 -846q213 -14 367 192l57 -45
q-145 -252 -448 -256l-52 -221h-112l51 221q-171 6 -287 100t-116 309z" />
    <glyph glyph-name="sterling" unicode="&#xa3;" horiz-adv-x="1146" 
d="M399 946q0 174 122 309t353 136q288 0 373 -170q17 -37 17 -82t-50 -76t-100 -31q-74 0 -96 70q-37 102 -79 148q-43 46 -103 46t-106 -56t-47 -154t15 -166t60 -228h299l-19 -98h-270q2 -57 -10 -120q-12 -62 -78 -130t-152 -106l-2 -7h377q109 0 160 62l41 51l67 -35
l-143 -309h-944l-21 18l62 129q147 35 247 106q99 71 107 161t-16 180h-250l23 98h204q-41 117 -41 254z" />
    <glyph glyph-name="currency" unicode="&#xa4;" horiz-adv-x="1146" 
d="M455 684q-1 -127 77 -214t193 -87t193 87t77 214q0 127 -77 214q-78 87 -193 87t-193 -87t-77 -214zM246 684q0 174 88 274l-101 80q-77 64 0 150q39 35 81 32t67 -36l78 -101q98 84 266 84t266 -84l78 101q25 33 67 36t81 -32q77 -84 0 -150l-101 -80q88 -100 88 -274
t-88 -274l101 -80q77 -64 0 -150q-39 -35 -81 -32t-67 36l-78 101q-98 -84 -266 -84t-266 84l-78 -101q-25 -33 -67 -36t-81 32q-77 84 0 150l101 80q-88 100 -88 274z" />
    <glyph glyph-name="yen" unicode="&#xa5;" horiz-adv-x="1146" 
d="M205 367l22 98h303l17 72q12 51 4 106h-277l23 98h231q-51 219 -116 465q-12 42 -26 58t-42 20l-61 10l18 74h567l-18 -74l-96 -8q-29 -2 -37 -15t2 -86t90 -446h4q150 229 293 486q31 53 -16 59l-113 10l18 74h461l-16 -74l-60 -6q-38 -4 -62 -24q-82 -67 -378 -523h262
l-20 -98h-303q-25 -49 -37 -104l-17 -74h334l-20 -98h-336l-45 -205q-16 -74 41 -78l121 -10l-15 -74h-645l14 74l117 8q55 4 74 80l45 205h-305z" />
    <glyph glyph-name="brokenbar" unicode="&#xa6;" horiz-adv-x="542" 
d="M311 666v716h213v-716h-213zM311 -358v716h213v-716h-213z" />
    <glyph glyph-name="section" unicode="&#xa7;" horiz-adv-x="1163" 
d="M403 838q0 -162 267 -332q104 -68 177 -146t85 -137q102 78 102 195q0 176 -225 332q-117 80 -185 148t-83 138q-57 -18 -97 -73t-41 -125zM203 -25q0 53 38 91t95 36q57 0 84 -65q80 -178 196 -178q57 0 100 39q42 38 42 108t-50 138t-184 153q-281 176 -280 408
q0 272 284 444q6 107 100 203t257 96q162 0 247 -54t85 -124q0 -47 -40 -78t-85 -31t-80 60q-74 133 -168 133q-53 0 -88 -35t-35 -91t47 -118t183 -148q137 -86 193 -186t56 -223t-74 -244t-172 -209q-8 -145 -112 -240q-104 -96 -272 -96t-267 64q-100 64 -100 147z" />
    <glyph glyph-name="dieresis" unicode="&#xa8;" horiz-adv-x="819" 
d="M289 1300q0 62 44 108t119 46q76 0 118 -45t42 -107t-43 -108q-43 -45 -117 -45t-119 45q-44 45 -44 106zM780 1300q0 62 44 108t119 46t118 -45t43 -107t-43 -108q-43 -45 -118 -45t-119 45t-44 106z" />
    <glyph glyph-name="copyright" unicode="&#xa9;" horiz-adv-x="1687" 
d="M608 710q0 183 109 298q109 114 309 114t301 -59v-213h-55q-66 207 -213 207q-101 0 -153 -93t-52 -243t53 -248t164 -98q78 0 128 59t93 160h56l-23 -221q-102 -63 -306 -63q-203 0 -307 108q-104 109 -104 292zM428 709q0 -255 168 -433t408 -178t408 177t167 433
q0 256 -168 434q-167 177 -407 177t-408 -177t-168 -433zM258 709q0 307 218 523t528 216t527 -216q218 -216 218 -523t-218 -523t-527 -217q-309 0 -528 216q-218 217 -218 524z" />
    <glyph glyph-name="ordfeminine" unicode="&#xaa;" horiz-adv-x="909" 
d="M424 717q0 -55 37 -55q45 0 139 118q63 85 87 153q25 69 32 86q6 17 18 57t15 44q-25 18 -64 19q-94 1 -179 -155t-85 -267zM199 698q0 147 117 318q56 82 156 137t220 55q68 0 109 -22l4 12h213l-135 -475q-16 -61 10 -61q41 0 121 126l45 -24q-115 -221 -297 -221
q-59 0 -83 43t1 127l31 100l-9 2q-98 -141 -153 -190q-92 -82 -205 -82q-68 -1 -106 43t-39 112z" />
    <glyph glyph-name="guillemotleft" unicode="&#xab;" horiz-adv-x="1146" 
d="M270 473q-29 39 15 80l420 397l49 -43l-226 -350q-27 -45 -16 -82l96 -364l-57 -35zM680 473q-29 39 14 80l420 397l49 -43l-225 -350q-27 -45 -16 -82l96 -364l-57 -35z" />
    <glyph glyph-name="logicalnot" unicode="&#xac;" horiz-adv-x="1228" 
d="M242 649v164h991v-618h-197v454h-794z" />
    <glyph glyph-name="uni00AD" unicode="&#xad;" horiz-adv-x="802" 
d="M217 416l41 194h539l-41 -194h-539z" />
    <glyph glyph-name="registered" unicode="&#xae;" horiz-adv-x="1687" 
d="M985 743q133 0 133 152q0 74 -34 110q-34 35 -80 35t-57 -8t-11 -33v-256h49zM637 326v53l55 8q39 4 39 62v536q0 55 -39 59l-55 9v53h426q270 0 270 -188q0 -78 -49 -130t-133 -69v-4q49 -14 80 -45t40 -55q9 -23 17 -57q31 -130 66 -157q14 -12 49 -22v-53h-113
q-84 0 -123 22t-56 61t-33 115t-19 80q-20 74 -86 74h-37v-229q0 -55 41 -62l55 -8v-53h-395zM428 709q0 -255 168 -433t408 -178t408 177t167 433q0 256 -168 434q-167 177 -407 177t-408 -177t-168 -433zM258 709q0 307 218 523t528 216t527 -216q218 -216 218 -523
t-218 -523t-527 -217q-309 0 -528 216q-218 217 -218 524z" />
    <glyph glyph-name="macron" unicode="&#xaf;" horiz-adv-x="819" 
d="M344 1212l31 148h637l-31 -148h-637z" />
    <glyph glyph-name="degree" unicode="&#xb0;" horiz-adv-x="768" 
d="M420 1065q0 -89 53 -149t129 -60t129 59t53 149t-53 150t-129 60t-129 -60t-53 -149zM262 1063q0 137 99 233t241 96t240 -96q100 -96 100 -233t-99 -231t-241 -95q-142 0 -241 94q-99 95 -99 232z" />
    <glyph glyph-name="plusminus" unicode="&#xb1;" horiz-adv-x="1228" 
d="M242 0v164h991v-164h-991zM242 610v164h399v350h197v-350h395v-164h-395v-346h-197v346h-399z" />
    <glyph glyph-name="twosuperior" unicode="&#xb2;" horiz-adv-x="823" 
d="M682 1228q0 87 -57 87q-74 0 -150 -166q-27 -61 -76 -61t-86 28q-37 29 -37 70q0 78 94 142t254 65q160 0 237 -67q77 -68 77 -172t-73 -165t-210 -110q-193 -68 -256 -154h310q43 0 65 12t53 56l58 -17l-97 -219h-636l-21 21q10 145 328 329q109 63 166 149t57 172z" />
    <glyph glyph-name="threesuperior" unicode="&#xb3;" horiz-adv-x="823" 
d="M193 715q0 45 38 78q39 33 88 33t72 -62q25 -76 53 -110t69 -34q42 0 79 55q37 54 37 169t-84 114q-25 0 -70 -11t-57 -11q-41 0 -41 49q0 31 12 53q11 22 29 21t66 -15t77 -14q55 0 90 66t35 131q0 88 -65 88q-55 0 -132 -131q-37 -62 -77 -62t-74 26q-33 26 -33 66
q0 68 89 123q88 55 224 55t226 -56q90 -58 90 -150q0 -160 -227 -189l-2 -4q82 -18 134 -68t52 -126q0 -121 -100 -189t-262 -68t-249 51q-87 50 -87 122z" />
    <glyph glyph-name="acute" unicode="&#xb4;" horiz-adv-x="819" 
d="M904 1516q34 0 70 -42t36 -80t-36 -69t-104 -68l-374 -210l-43 61l297 305q57 59 89 81q31 22 65 22z" />
    <glyph glyph-name="uni00B5" unicode="&#xb5;" 
d="M567 139q70 1 173 147q102 146 160 280t144 438l291 24l-207 -792q-29 -96 25 -97q59 0 176 201l60 -37q-162 -328 -408 -328q-84 -1 -121 59t-10 163l63 233h-8q-248 -457 -504 -450q-37 0 -73 28l-13 -47q-18 -72 3 -160q22 -88 22 -136t-69 -92t-142 -44
q-84 0 -57 102l303 1170q25 88 -31 94l-121 12l17 68l473 53l10 -10l-193 -756q-33 -123 37 -123z" />
    <glyph glyph-name="paragraph" unicode="&#xb6;" horiz-adv-x="1187" 
d="M473 -207l14 68l170 22q45 4 66 103l326 1431h360l-14 -67l-140 -19q-29 -2 -40 -20t-21 -66l-330 -1452h-391zM297 864q0 240 171 397t443 156l-211 -930q-180 -1 -292 97t-111 280z" />
    <glyph glyph-name="periodcentered" unicode="&#xb7;" horiz-adv-x="573" 
d="M209 503q0 81 56 136q57 55 141 55t128 -46t44 -126t-56 -136t-139 -56q-84 0 -129 46t-45 127z" />
    <glyph glyph-name="cedilla" unicode="&#xb8;" horiz-adv-x="819" 
d="M343 -504q-44 0 -97 6l4 66q197 0 207 119q6 59 -33 84t-90 28l-6 17l135 184h119l-90 -115q40 -6 78 -20q38 -15 72 -61t28 -108t-52 -114t-184 -78q-48 -8 -91 -8z" />
    <glyph glyph-name="onesuperior" unicode="&#xb9;" horiz-adv-x="823" 
d="M244 557l12 55l80 11q35 4 51 19t25 54l116 512q14 59 -32 70l-82 12l12 53l373 50l12 -15l-156 -682q-8 -39 2 -54t41 -19l76 -11l-12 -55h-518z" />
    <glyph glyph-name="ordmasculine" unicode="&#xba;" horiz-adv-x="843" 
d="M471 696q1 -40 21 -62t55 -22q86 0 150 167q65 167 65 263t-72 97q-86 0 -151 -152q-68 -152 -68 -291zM248 809q0 125 76 235q113 164 338 164q324 0 323 -270q0 -135 -74 -240q-113 -156 -352 -155q-159 1 -235 71t-76 195z" />
    <glyph glyph-name="guillemotright" unicode="&#xbb;" horiz-adv-x="1146" 
d="M190 119l226 350q27 45 16 82l-96 364l57 35l281 -397q29 -39 -15 -80l-419 -397zM602 119l225 350q27 45 17 82l-96 364l57 35l280 -397q29 -39 -14 -80l-420 -397z" />
    <glyph glyph-name="onequarter" unicode="&#xbc;" horiz-adv-x="1925" 
d="M285 557l12 55l80 11q35 4 51 19t25 54l116 512q14 59 -32 70l-82 12l12 53l373 50l12 -15l-156 -682q-8 -39 2 -54t41 -19l76 -11l-12 -55h-518zM549 23l1028 1400l90 -69l-1034 -1409zM1231 297h235l80 344h-4q-12 -14 -133 -145t-178 -199zM1071 258q389 418 551 563
h188l-116 -524h114l-20 -88h-115l-20 -98q-8 -45 33 -50l49 -6l-11 -55h-452l10 55l82 6q51 4 59 50l21 98h-346z" />
    <glyph glyph-name="onehalf" unicode="&#xbd;" horiz-adv-x="1925" 
d="M1249 629q0 79 94 143t254 64t237 -67t77 -171t-73 -166q-73 -61 -210 -110q-193 -68 -256 -154h309q43 0 66 12t53 56l58 -17l-97 -219h-637l-20 20q10 145 328 330q110 62 166 148t56 172t-57 88q-74 0 -149 -166q-27 -62 -76 -62t-86 29t-37 70zM256 557l12 55l80 11
q35 4 51 19t25 54l117 512q14 59 -33 70l-82 12l12 53l373 50l12 -15l-155 -682q-8 -39 2 -54t41 -19l75 -11l-12 -55h-518zM487 23l1029 1400l90 -69l-1035 -1409z" />
    <glyph glyph-name="threequarters" unicode="&#xbe;" horiz-adv-x="1925" 
d="M266 715q0 45 39 78t88 33t72 -62q25 -76 53 -110t69 -34q42 0 79 55q36 54 36 169t-84 114q-26 0 -70 -11t-56 -11q-41 0 -41 49q0 31 12 53q11 22 29 21t66 -15t77 -14q55 0 90 66t35 131q0 88 -66 88q-55 0 -131 -131q-37 -62 -78 -62t-73 26t-33 66q0 68 89 123
t224 55q136 0 226 -56q90 -58 90 -150q0 -160 -228 -189l-2 -4q82 -18 134 -68t53 -126q-1 -121 -101 -189t-262 -68t-249 51q-87 50 -87 122zM618 23l1029 1400l90 -69l-1035 -1409zM1286 297h236l80 344h-5q-12 -14 -133 -145t-178 -199zM1126 258q389 418 551 563h189
l-117 -524h115l-21 -88h-114l-21 -98q-8 -45 33 -50l49 -6l-10 -55h-453l10 55l82 6q51 4 60 50l20 98h-346z" />
    <glyph glyph-name="questiondown" unicode="&#xbf;" horiz-adv-x="929" 
d="M676 664q-84 0 -128 46t-44 125q0 81 55 137t139 56t129 -46t45 -127t-56 -136t-140 -55zM864 -195q0 -90 -108 -170q-108 -79 -306 -79t-298 72t-101 193q0 121 75 191t208 121q217 82 217 197q0 44 -32 68q-59 45 -157 28l-14 59q106 72 235 72t196 -53t67 -142
q0 -137 -219 -253q-270 -145 -271 -365q0 -94 70 -94q88 0 182 215q32 69 94 69t112 -32t50 -97z" />
    <glyph glyph-name="Agrave" unicode="&#xc0;" 
d="M532 602h347l-50 535h-4q-23 -37 -143.5 -258.5t-149.5 -276.5zM-49 0l14 78l55 6q47 4 75 23.5t82.5 109.5t285.5 498l397 702h242l69 -649q8 -76 31 -297t30 -282.5t19.5 -82t44.5 -22.5l84 -6l-16 -78h-614l16 78l106 8q53 2 48 76l-31 342h-410q-37 -68 -96 -185.5
t-80 -156.5q-37 -74 27 -76l114 -8l-14 -78h-479zM600 1717q0 40 33 87t80 47t129 -61l352 -252l-29 -65l-415 131q-86 27 -118 50t-32 63z" />
    <glyph glyph-name="Aacute" unicode="&#xc1;" 
d="M532 602h347l-50 535h-4q-23 -37 -143.5 -258.5t-149.5 -276.5zM-49 0l14 78l55 6q47 4 75 23.5t82.5 109.5t285.5 498l397 702h242l69 -649q8 -76 31 -297t30 -282.5t19.5 -82t44.5 -22.5l84 -6l-16 -78h-614l16 78l106 8q53 2 48 76l-31 342h-410q-37 -68 -96 -185.5
t-80 -156.5q-37 -74 27 -76l114 -8l-14 -78h-479zM1245 1851q47 0 80 -47t33 -87t-32 -63.5t-118 -49.5l-415 -131l-29 65l352 252q82 61 129 61z" />
    <glyph glyph-name="Acircumflex" unicode="&#xc2;" 
d="M532 602h347l-50 535h-4q-23 -37 -143.5 -258.5t-149.5 -276.5zM-49 0l14 78l55 6q47 4 75 23.5t82.5 109.5t285.5 498l397 702h242l69 -649q8 -76 31 -297t30 -282.5t19.5 -82t44.5 -22.5l84 -6l-16 -78h-614l16 78l106 8q53 2 48 76l-31 342h-410q-37 -68 -96 -185.5
t-80 -156.5q-37 -74 27 -76l114 -8l-14 -78h-479zM1056 1853q36 0 89 -57l229 -250l-49 -61l-217 123q-53 31 -80 30.5t-90 -26.5l-309 -127l-35 61l352 254q74 53 110 53z" />
    <glyph glyph-name="Atilde" unicode="&#xc3;" 
d="M532 602h347l-50 535h-4q-23 -37 -143.5 -258.5t-149.5 -276.5zM-49 0l14 78l55 6q47 4 75 23.5t82.5 109.5t285.5 498l397 702h242l69 -649q8 -76 31 -297t30 -282.5t19.5 -82t44.5 -22.5l84 -6l-16 -78h-614l16 78l106 8q53 2 48 76l-31 342h-410q-37 -68 -96 -185.5
t-80 -156.5q-37 -74 27 -76l114 -8l-14 -78h-479zM557 1518q95 249 279 249q62 0 186 -43q141 -43 191 -43t82 25t67 88l65 -37q-96 -250 -276 -250q-43 0 -174 43t-193.5 43t-94.5 -24.5t-66 -87.5z" />
    <glyph glyph-name="Adieresis" unicode="&#xc4;" 
d="M532 602h347l-50 535h-4q-23 -37 -143.5 -258.5t-149.5 -276.5zM-49 0l14 78l55 6q47 4 75 24q29 20 83 109.5t285 497.5l397 702h242l69 -649q8 -76 31 -297t30 -283t19.5 -82t44.5 -22l84 -6l-16 -78h-614l16 78l106 8q53 2 48 76l-31 342h-410q-37 -68 -96 -185.5
t-80 -156.5q-37 -74 27 -76l114 -8l-14 -78h-479zM567 1650.5q0 61.5 44 107.5t119 46t118 -45t43 -107t-43 -107.5t-118 -45.5t-119 45t-44 106.5zM1083 1650.5q0 61.5 44 107.5t119 46t118 -45t43 -107t-43 -107.5t-118 -45.5t-119 45t-44 106.5z" />
    <glyph glyph-name="Aring" unicode="&#xc5;" 
d="M881 1538q0 -120 98 -121q61 1 103 59t42 122q0 124 -96 122q-59 0 -103 -57t-44 -125zM528 602h351l-50 535h-8q-23 -37 -143 -259t-150 -276zM1040 1800q100 0 160 -52t60 -146q0 -168 -154 -236l65 -598q8 -76 31 -297t30 -283t19 -82t45 -22l84 -6l-16 -78h-614
l16 78l106 8q53 2 48 76l-31 342h-414q-29 -55 -85 -170q-56 -114 -90 -180t30 -68l114 -8l-14 -78h-479l14 78l55 6q47 4 75 24q29 20 83 109q54 90 285 498l373 651q-90 47 -90 162q0 116 73 194q74 78 221 78z" />
    <glyph glyph-name="AE" unicode="&#xc6;" horiz-adv-x="1822" 
d="M688 793h287l115 518h-21q-348 -471 -381 -518zM1630 1323h-151q-49 0 -65.5 -12.5t-27.5 -59.5l-102 -458h189q94 0 135 35.5t92 150.5h78l-103 -471h-78q4 102 -24.5 144t-122.5 42h-188l-109 -479q-18 -82 25 -101.5t179 -19.5t217 47t157 174l65 111h78l-121 -426
h-1116l18 78l93 8q41 2 58 27.5t32 87.5l114 493h-338q-211 -311 -269 -396t-95 -143.5t18 -64.5l140 -12l-15 -78h-540l14 78l74 10q43 6 74.5 32.5t82.5 87t725 961.5q98 131 68 150q-6 4 -21 6l-139 14l21 78h1282l-82 -379h-78l-10 113q-6 82 -57.5 127t-176.5 45z" />
    <glyph glyph-name="Ccedilla" unicode="&#xc7;" horiz-adv-x="1376" 
d="M227 563q0 293 142 510q246 375 768 375q109 0 240.5 -23.5t213.5 -74.5l-80 -367h-77q-4 371 -293 371q-147 0 -262 -84t-179 -218q-128 -269 -127 -571q0 -207 86 -312.5t240 -105.5q155 1 267 119q60 62 97 115t99 154h78l-113 -398q-162 -84 -424 -84l-61 -78
q203 -31 186 -192q-4 -59 -43 -103t-122 -72t-152.5 -28t-124.5 6l6 68q201 0 215 125q6 53 -36 77.5t-93 28.5l-6 17l112 155q-143 12 -249.5 62.5t-164 113t-100.5 169.5q-43 106 -43 245z" />
    <glyph glyph-name="Egrave" unicode="&#xc8;" horiz-adv-x="1273" 
d="M1075 1323h-141q-53 0 -71.5 -11.5t-28.5 -56.5l-103 -462h193q94 0 135 34.5t92 149.5h78l-103 -467h-77q4 100 -25 142t-123 42h-192l-109 -483q-18 -80 25 -98.5t183 -18.5t221 46t157 175l65 111h78l-121 -426h-1126l18 78l93 8q41 2 58 27.5t32 87.5l227 1016
q14 55 8 82.5t-47 29.5l-104 10l22 78h1090l-82 -379h-78l-10 113q-6 82 -57.5 127t-176.5 45zM621 1717q0 40 32.5 87t79.5 47t129 -61l352 -252l-28 -65l-416 131q-86 27 -117.5 50t-31.5 63z" />
    <glyph glyph-name="Eacute" unicode="&#xc9;" horiz-adv-x="1273" 
d="M1075 1323h-141q-53 0 -71.5 -11.5t-28.5 -56.5l-103 -462h193q94 0 135 34.5t92 149.5h78l-103 -467h-77q4 100 -25 142t-123 42h-192l-109 -483q-18 -80 25 -98.5t183 -18.5t221 46t157 175l65 111h78l-121 -426h-1126l18 78l93 8q41 2 58 27.5t32 87.5l227 1016
q14 55 8 82.5t-47 29.5l-104 10l22 78h1090l-82 -379h-78l-10 113q-6 82 -57.5 127t-176.5 45zM1274 1851q47 0 79.5 -47t32.5 -87t-31.5 -63.5t-117.5 -49.5l-416 -131l-28 65l352 252q82 61 129 61z" />
    <glyph glyph-name="Ecircumflex" unicode="&#xca;" horiz-adv-x="1273" 
d="M1075 1323h-141q-53 0 -71.5 -11.5t-28.5 -56.5l-103 -462h193q94 0 135 34.5t92 149.5h78l-103 -467h-77q4 100 -25 142t-123 42h-192l-109 -483q-18 -80 25 -98.5t183 -18.5t221 46t157 175l65 111h78l-121 -426h-1126l18 78l93 8q41 2 58 27.5t32 87.5l227 1016
q14 55 8 82.5t-47 29.5l-104 10l22 78h1090l-82 -379h-78l-10 113q-6 82 -57.5 127t-176.5 45zM1064 1853q36 0 89 -57l229 -250l-49 -61l-217 123q-53 31 -80 30.5t-90 -26.5l-309 -127l-35 61l352 254q74 53 110 53z" />
    <glyph glyph-name="Edieresis" unicode="&#xcb;" horiz-adv-x="1273" 
d="M1075 1323h-141q-53 0 -71.5 -11.5t-28.5 -56.5l-103 -462h193q94 0 135 34.5t92 149.5h78l-103 -467h-77q4 100 -25 142t-123 42h-192l-109 -483q-18 -80 25 -98.5t183 -18.5t221 46t157 175l65 111h78l-121 -426h-1126l18 78l93 8q41 2 58 27.5t32 87.5l227 1016
q14 55 8 82.5t-47 29.5l-104 10l22 78h1090l-82 -379h-78l-10 113q-6 82 -57.5 127t-176.5 45zM571 1650.5q0 61.5 44 107.5t119 46t118 -45t43 -107t-43 -107.5t-118 -45.5t-119 45t-44 106.5zM1087 1650.5q0 61.5 44.5 107.5t119 46t117.5 -45t43 -107t-43 -107.5
t-118 -45.5t-119 45t-44 106.5z" />
    <glyph glyph-name="Igrave" unicode="&#xcc;" horiz-adv-x="790" 
d="M82 0l18 78l93 8q41 2 58 27.5t32 87.5l227 1016q14 55 8 82.5t-47 29.5l-104 10l20 78h639l-20 -78l-91 -8q-41 -2 -58 -27.5t-32 -86.5l-227 -1016q-14 -55 -8 -83t47 -32l102 -8l-18 -78h-639zM371 1717q0 40 32.5 87t79.5 47t129 -61l353 -252l-29 -65l-416 131
q-86 27 -117.5 50t-31.5 63z" />
    <glyph glyph-name="Iacute" unicode="&#xcd;" horiz-adv-x="790" 
d="M82 0l18 78l93 8q41 2 58 27.5t32 87.5l227 1016q14 55 8 82.5t-47 29.5l-104 10l20 78h639l-20 -78l-91 -8q-41 -2 -58 -27.5t-32 -86.5l-227 -1016q-14 -55 -8 -83t47 -32l102 -8l-18 -78h-639zM981 1851q47 0 80 -47t33 -87t-32 -63.5t-118 -49.5l-416 -131l-28 65
l352 252q82 61 129 61z" />
    <glyph glyph-name="Icircumflex" unicode="&#xce;" horiz-adv-x="790" 
d="M82 0l18 78l93 8q41 2 58 27.5t32 87.5l227 1016q14 55 8 82.5t-47 29.5l-104 10l20 78h639l-20 -78l-91 -8q-41 -2 -58 -27.5t-32 -86.5l-227 -1016q-14 -55 -8 -83t47 -32l102 -8l-18 -78h-639zM789.5 1853q35.5 0 89.5 -57l229 -250l-49 -61l-217 123q-53 31 -80 30.5
t-90 -26.5l-310 -127l-34 61l352 254q74 53 109.5 53z" />
    <glyph glyph-name="Idieresis" unicode="&#xcf;" horiz-adv-x="790" 
d="M82 0l18 78l93 8q41 2 58 27.5t32 87.5l227 1016q14 55 8 82.5t-47 29.5l-104 10l20 78h639l-20 -78l-91 -8q-41 -2 -58 -27.5t-32 -86.5l-227 -1016q-14 -55 -8 -83t47 -32l102 -8l-18 -78h-639zM324 1650.5q0 61.5 44 107.5t118 46t117.5 -45t43.5 -107t-43 -107.5
t-118 -45.5t-118.5 45t-43.5 106.5zM840 1650.5q0 61.5 44 107.5t118 46t117.5 -45t43.5 -107t-43 -107.5t-118 -45.5t-118.5 45t-43.5 106.5z" />
    <glyph glyph-name="Eth" unicode="&#xd0;" horiz-adv-x="1597" 
d="M750 94q134 0 244 65t176 159t109 214q75 202 77 398q0 282 -165 360q-71 33 -172 33t-134 -15t-43 -67l-99 -448h295l-24 -99h-293l-111 -495q-14 -61 22 -83t118 -22zM752 0h-658l19 78l92 8q41 2 58 28t32 87l111 493h-195l25 99h192l94 424q14 55 8 83t-47 29
l-104 10l20 78h564q369 -4 538 -133q188 -143 189 -459q0 -88 -31 -213t-105 -239q-115 -181 -301 -277t-501 -96z" />
    <glyph glyph-name="Ntilde" unicode="&#xd1;" horiz-adv-x="1517" 
d="M61 0l17 78l76 6q72 6 102 101t78 304l160 728q14 55 8 83t-47 29l-103 10l21 78h454q184 -449 437 -1042h6l121 553q51 240 56 297t-10 82t-59 26l-110 6l16 78h504l-16 -78l-76 -6q-72 -6 -103 -101t-77 -304l-205 -928h-213q-240 573 -486 1149h-8l-147 -660
q-47 -233 -53 -293t8 -86q16 -24 59 -26l111 -6l-17 -78h-504zM1346 1681q50 0 82 25t67 88l66 -37q-96 -250 -277 -250q-43 0 -174 43q-132 43 -194 43q-62 -1 -94 -25t-66 -87l-66 37q31 81 76 140q84 111 201 109q63 0 188 -43q141 -43 191 -43z" />
    <glyph glyph-name="Ograve" unicode="&#xd2;" horiz-adv-x="1558" 
d="M569 389q0 -326 256 -326q143 0 257 163t169.5 382t55.5 428q0 317 -238 318q-119 0 -219 -104t-158 -258q-122 -324 -123 -603zM231 546q0 269 117 494q213 408 690 408q274 0 440.5 -146.5t166.5 -428t-121 -513.5q-203 -391 -664 -391q-303 0 -466 154t-163 423z
M629 1717q0 40 32.5 87t79.5 47t129 -61l353 -252l-29 -65l-416 131q-86 27 -117.5 50t-31.5 63z" />
    <glyph glyph-name="Oacute" unicode="&#xd3;" horiz-adv-x="1558" 
d="M569 389q0 -326 256 -326q143 0 257 163t169.5 382t55.5 428q0 317 -238 318q-119 0 -219 -104t-158 -258q-122 -324 -123 -603zM231 546q0 269 117 494q213 408 690 408q274 0 440.5 -146.5t166.5 -428t-121 -513.5q-203 -391 -664 -391q-303 0 -466 154t-163 423z
M1346 1851q47 0 79.5 -47t32.5 -87t-31.5 -63.5t-117.5 -49.5l-416 -131l-29 65l353 252q82 61 129 61z" />
    <glyph glyph-name="Ocircumflex" unicode="&#xd4;" horiz-adv-x="1558" 
d="M569 389q0 -326 256 -326q143 0 257 163t169.5 382t55.5 428q0 317 -238 318q-119 0 -219 -104t-158 -258q-122 -324 -123 -603zM231 546q0 269 117 494q213 408 690 408q274 0 440.5 -146.5t166.5 -428t-121 -513.5q-203 -391 -664 -391q-303 0 -466 154t-163 423z
M1166.5 1853q35.5 0 88.5 -57l230 -250l-49 -61l-217 123q-53 31 -80 30.5t-90 -26.5l-310 -127l-34 61l352 254q74 53 109.5 53z" />
    <glyph glyph-name="Otilde" unicode="&#xd5;" horiz-adv-x="1558" 
d="M569 389q0 -326 256 -326q143 0 257 163t169.5 382t55.5 428q0 317 -238 318q-119 0 -219 -104t-158 -258q-122 -324 -123 -603zM231 546q0 269 117 494q213 408 690 408q274 0 440.5 -146.5t166.5 -428t-121 -513.5q-203 -391 -664 -391q-303 0 -466 154t-163 423z
M674 1518q95 249 278 249q61 0 187 -43q141 -43 191 -43t82 25t67 88l65 -37q-96 -250 -276 -250q-43 0 -181 43q-125 43 -187 43t-94 -24.5t-67 -87.5z" />
    <glyph glyph-name="Odieresis" unicode="&#xd6;" horiz-adv-x="1558" 
d="M569 389q0 -326 256 -326q143 0 257 163t169.5 382t55.5 428q0 317 -238 318q-119 0 -219 -104t-158 -258q-122 -324 -123 -603zM231 546q0 269 117 494q213 408 690 408q274 0 440.5 -146.5t166.5 -428t-121 -513.5q-203 -391 -664 -391q-303 0 -466 154t-163 423z
M690 1650.5q0 61.5 44 107.5t119 46t118 -45t43 -107t-43 -107.5t-118 -45.5t-119 45t-44 106.5zM1206 1650.5q0 61.5 44 107.5t119 46t118 -45t43 -107t-43 -107.5t-118 -45.5t-119 45t-44 106.5z" />
    <glyph glyph-name="multiply" unicode="&#xd7;" horiz-adv-x="1228" 
d="M297 170l338 340l-338 340l119 129l342 -344l340 344l121 -129l-338 -340l338 -340l-121 -125l-340 342l-342 -342z" />
    <glyph glyph-name="Oslash" unicode="&#xd8;" horiz-adv-x="1558" 
d="M602 193q64 -129 214 -129t267 162q117 163 174 383t58 431q0 27 -8 68zM561 385q0 -14 4 -39t4 -31l707 918q-53 121 -205 121q-121 0 -222 -104q-173 -178 -255 -573q-33 -161 -33 -292zM229 534q0 276 119 506q213 408 690 408q195 0 344 -76l101 131l80 -65l-97 -123
q180 -159 180 -441t-120 -514q-207 -391 -666 -391q-217 0 -366 80l-119 -153l-74 71l109 142q-181 149 -181 425z" />
    <glyph glyph-name="Ugrave" unicode="&#xd9;" horiz-adv-x="1589" 
d="M834 63q131 0 210.5 111t133.5 354l153 689q14 55 8 82.5t-47 29.5l-104 10l20 78h639l-20 -78l-90 -8q-41 -2 -58.5 -27.5t-31.5 -86.5l-160 -699q-74 -326 -231 -437.5t-451.5 -111.5t-425.5 144q-110 125 -53 381l161 723q14 55 8 82.5t-46 29.5l-105 10l21 78h639
l-21 -78l-90 -8q-41 -2 -58.5 -27.5t-31.5 -86.5l-164 -740q-90 -414 195 -414zM623 1717q0 40 32.5 87t79.5 47t129 -61l353 -252l-29 -65l-416 131q-86 27 -117.5 50t-31.5 63z" />
    <glyph glyph-name="Uacute" unicode="&#xda;" horiz-adv-x="1589" 
d="M834 63q131 0 210.5 111t133.5 354l153 689q14 55 8 82.5t-47 29.5l-104 10l20 78h639l-20 -78l-90 -8q-41 -2 -58.5 -27.5t-31.5 -86.5l-160 -699q-74 -326 -231 -437.5t-451.5 -111.5t-425.5 144q-110 125 -53 381l161 723q14 55 8 82.5t-46 29.5l-105 10l21 78h639
l-21 -78l-90 -8q-41 -2 -58.5 -27.5t-31.5 -86.5l-164 -740q-90 -414 195 -414zM1544 1851q47 0 80 -47t33 -87t-32 -63.5t-118 -49.5l-415 -131l-29 65l352 252q82 61 129 61z" />
    <glyph glyph-name="Ucircumflex" unicode="&#xdb;" horiz-adv-x="1589" 
d="M834 63q131 0 210.5 111t133.5 354l153 689q14 55 8 82.5t-47 29.5l-104 10l20 78h639l-20 -78l-90 -8q-41 -2 -58.5 -27.5t-31.5 -86.5l-160 -699q-74 -326 -231 -437.5t-451.5 -111.5t-425.5 144q-110 125 -53 381l161 723q14 55 8 82.5t-46 29.5l-105 10l21 78h639
l-21 -78l-90 -8q-41 -2 -58.5 -27.5t-31.5 -86.5l-164 -740q-90 -414 195 -414zM1181 1853q36 0 89 -57l229 -250l-49 -61l-217 123q-53 31 -80 30.5t-90 -26.5l-309 -127l-35 61l352 254q74 53 110 53z" />
    <glyph glyph-name="Udieresis" unicode="&#xdc;" horiz-adv-x="1589" 
d="M834 63q131 0 210.5 111t133.5 354l153 689q14 55 8 82.5t-47 29.5l-104 10l20 78h639l-20 -78l-90 -8q-41 -2 -58.5 -27.5t-31.5 -86.5l-160 -699q-74 -326 -231 -437.5t-451.5 -111.5t-425.5 144q-110 125 -53 381l161 723q14 55 8 82.5t-46 29.5l-105 10l21 78h639
l-21 -78l-90 -8q-41 -2 -58.5 -27.5t-31.5 -86.5l-164 -740q-90 -414 195 -414zM702 1650.5q0 61.5 44.5 107.5t119 46t117.5 -45t43 -107t-43 -107.5t-118 -45.5t-119 45t-44 106.5zM1219 1650.5q0 61.5 44 107.5t118.5 46t117.5 -45t43 -107t-43 -107.5t-118 -45.5
t-118.5 45t-43.5 106.5z" />
    <glyph glyph-name="Yacute" unicode="&#xdd;" horiz-adv-x="1273" 
d="M260 1343l16 74h617l-16 -78l-113 -12q-47 -4 -35 -59l143 -557h5q240 342 364 549q39 63 -27 69l-108 10l16 78h516l-14 -78l-59 -6q-65 -7 -105 -45q-16 -14 -51 -53q-176 -197 -432 -573q-55 -78 -70 -148l-71 -313q-14 -55 -8 -83t46 -30l132 -10l-19 -78h-694l18 78
l121 8q41 2 58.5 27.5t31.5 87.5l66 303q14 63 -4 133q-72 295 -170 610q-14 51 -31.5 68.5t-52.5 21.5zM1448 1851q47 0 80 -47t33 -87t-32 -63.5t-118 -49.5l-416 -131l-28 65l352 252q82 61 129 61z" />
    <glyph glyph-name="Thorn" unicode="&#xde;" horiz-adv-x="1288" 
d="M745 455q178 0 264 105q85 105 89 255q2 101 -52 157t-136 56t-108 -17t-36 -61l-96 -415q-10 -45 6 -63t69 -17zM934 1122q223 0 357 -86t130 -274q-3 -188 -157 -294t-433 -108h-196l-37 -159q-34 -109 43 -113l133 -10l-16 -78h-676l18 78l93 8q41 2 58 28t32 87
l229 1016q14 55 8 83t-47 29l-104 10l20 78h637l-20 -78l-91 -8q-41 -1 -58 -27t-32 -87l-22 -95h131z" />
    <glyph glyph-name="germandbls" unicode="&#xdf;" horiz-adv-x="1286" 
d="M-193 -354q0 58 37 94q37 37 82 37t65 -31q5 -8 19 -33q66 -115 96 -114q27 0 39 55l252 1251h-182l29 99h176l14 45q143 471 615 471q215 0 327 -83t113 -206q0 -152 -135 -250q-266 0 -267 -178q0 -62 54 -138q14 -22 20 -32q7 -10 23 -32q128 -169 127 -297
q0 -128 -94 -226t-283 -98q-117 0 -195 40t-77 99q-2 45 32 77q35 32 79 32t71 -42q74 -113 135 -112q37 0 63 26t25 56q0 90 -76 191q-14 19 -22 31t-41 56q-115 156 -115 274t87 206q87 87 204 94q129 100 129 243q0 76 -49 125t-125 49q-231 0 -365 -553l-192 -815
q-68 -287 -168 -417t-281 -136q-115 0 -181 42t-65 100z" />
    <glyph glyph-name="agrave" unicode="&#xe0;" horiz-adv-x="1220" 
d="M475 1394q0 38 36 80t70 42t65.5 -21.5t88.5 -81.5l297 -305l-43 -61l-375 210q-68 37 -103.5 68t-35.5 69zM440 229q0 -89 60 -90q84 0 245 258q139 229 211 508q-41 29 -111.5 29t-150.5 -79t-134 -190.5t-87 -229t-33 -206.5zM125 211q0 94 26.5 196.5t85 213
t139.5 200.5t201.5 148.5t234.5 58.5t171 -35l8 19h281l-207 -776q-25 -96 22 -97q66 0 179 199l59 -33q-166 -330 -407 -330q-201 0 -127 258l51 181h-13q-147 -252 -260.5 -345.5t-229 -93.5t-165 71t-49.5 165z" />
    <glyph glyph-name="aacute" unicode="&#xe1;" horiz-adv-x="1220" 
d="M440 229q0 -89 60 -90q84 0 245 258q139 229 211 508q-41 29 -111.5 29t-150.5 -79t-134 -190.5t-87 -229t-33 -206.5zM125 211q0 94 26.5 196.5t85 213t139.5 200.5t201.5 148.5t234.5 58.5t171 -35l8 19h281l-207 -776q-25 -96 22 -97q66 0 179 199l59 -33
q-166 -330 -407 -330q-201 0 -127 258l51 181h-13q-147 -252 -260.5 -345.5t-229 -93.5t-165 71t-49.5 165zM1156 1516q34 0 70 -42t36 -80t-36 -69t-104 -68l-374 -210l-43 61l296 305q57 59 89 81t66 22z" />
    <glyph glyph-name="acircumflex" unicode="&#xe2;" horiz-adv-x="1220" 
d="M440 229q0 -89 60 -90q84 0 245 258q139 229 211 508q-41 29 -111.5 29t-150.5 -79t-134 -190.5t-87 -229t-33 -206.5zM125 211q0 94 26.5 196.5t85 213t139.5 200.5t201.5 148.5t234.5 58.5t171 -35l8 19h281l-207 -776q-25 -96 22 -97q66 0 179 199l59 -33
q-166 -330 -407 -330q-201 0 -127 258l51 181h-13q-147 -252 -260.5 -345.5t-229 -93.5t-165 71t-49.5 165zM936 1530q39 0 78 -57l233 -353l-59 -55l-232 197q-39 35 -62.5 34.5t-76.5 -34.5l-297 -197l-47 55l369 355q55 55 94 55z" />
    <glyph glyph-name="atilde" unicode="&#xe3;" horiz-adv-x="1220" 
d="M440 229q0 -89 60 -90q84 0 245 258q139 229 211 508q-41 29 -111.5 29t-150.5 -79t-134 -190.5t-87 -229t-33 -206.5zM125 211q0 94 26.5 196.5t85 213t139.5 200.5t201.5 148.5t234.5 58.5t171 -35l8 19h281l-207 -776q-25 -96 22 -97q66 0 179 199l59 -33
q-166 -330 -407 -330q-201 0 -127 258l51 181h-13q-147 -252 -260.5 -345.5t-229 -93.5t-165 71t-49.5 165zM721 1409q57 0 195 -44t196 -40t143 102l45 -26q-4 -6 -21 -42t-21.5 -43t-20.5 -37t-23.5 -37t-23.5 -28.5t-30.5 -27.5t-38 -20.5t-69 -14.5t-180.5 43t-199 43
t-96 -24.5t-67 -88.5l-45 37q16 88 80.5 168t175.5 80z" />
    <glyph glyph-name="adieresis" unicode="&#xe4;" horiz-adv-x="1220" 
d="M440 229q0 -89 60 -90q84 0 245 258q139 229 211 508q-41 29 -111.5 29t-150.5 -79t-134 -190.5t-87 -229t-33 -206.5zM125 211q0 94 26.5 196.5t85 213t139.5 200.5t201.5 148.5t234.5 58.5t171 -35l8 19h281l-207 -776q-25 -96 22 -97q66 0 179 199l59 -33
q-166 -330 -407 -330q-201 0 -127 258l51 181h-13q-147 -252 -260.5 -345.5t-229 -93.5t-165 71t-49.5 165zM489 1300.5q0 61.5 44.5 107.5t119 46t117.5 -45t43 -107.5t-43 -107.5t-118 -45t-119 45t-44 106.5zM981 1300.5q0 61.5 44 107.5t119 46t118 -45t43 -107.5
t-43 -107.5t-118 -45t-119 45t-44 106.5z" />
    <glyph glyph-name="aring" unicode="&#xe5;" horiz-adv-x="1220" 
d="M440 229q0 -89 60 -90q84 0 245 258q139 229 211 508q-42 29 -112 29t-150 -79t-134 -190q-120 -249 -120 -436zM125 211q0 95 27 197t85 213t139 201t202 148q120 58 234 58t171 -35l8 19h281l-207 -776q-25 -96 22 -97q66 0 179 199l59 -33q-166 -330 -407 -330
q-201 0 -127 258l51 181h-13q-149 -257 -254 -340q-119 -99 -235 -99t-166 71q-49 71 -49 165zM752 1296q0 -130 113 -131q52 -1 93 53t41 126q0 136 -110 135q-53 1 -95 -55t-42 -128zM856 1083q-116 1 -180 55t-64 160t74 185q74 78 202 78q128 1 189 -57t62 -152
q0 -131 -83 -200q-84 -69 -200 -69z" />
    <glyph glyph-name="ae" unicode="&#xe6;" horiz-adv-x="1615" 
d="M1391 934q-90 0 -178 -141.5t-111 -317.5q172 35 269 139.5t99 231.5q-4 88 -79 88zM440 229q0 -89 60 -90q84 0 245 258q139 229 211 508q-41 29 -111.5 29t-150.5 -79t-134 -190.5t-87 -229t-33 -206.5zM125 211q0 94 26.5 196.5t85 213t139.5 200.5t202.5 148.5
t261.5 58.5q80 0 153 -35l60 49h110l-41 -135l4 -4q133 125 283.5 125t236 -64.5t85.5 -178t-95 -199.5q-143 -127 -542 -203v-49q0 -223 163 -223q88 0 164 61t164 188l62 -49q-186 -336 -517 -336q-129 0 -222 81t-93 274q0 16 4 53l-4 4q-181 -303 -331 -376
q-74 -36 -166 -36t-142.5 71t-50.5 165z" />
    <glyph glyph-name="ccedilla" unicode="&#xe7;" horiz-adv-x="933" 
d="M795.5 1028q129.5 0 213 -55t83.5 -144q0 -51 -59.5 -90t-120 -39t-82 88.5t-41 117t-50.5 28.5q-96 0 -186 -196.5t-90 -411.5t145 -215q90 0 163 69.5t147 188.5l61 -43q-154 -303 -412 -342l-78 -99q41 -6 79 -20.5t72 -60.5t28 -108t-43 -104.5t-117 -69
t-146.5 -26.5t-117.5 6l4 66q197 0 207 119q6 59 -33 83.5t-90 28.5l-6 17l118 161q-133 10 -213.5 93t-80.5 268t110 377t300 270q106 43 235.5 43z" />
    <glyph glyph-name="egrave" unicode="&#xe8;" horiz-adv-x="974" 
d="M393 1394q0 38 36 80t70 42t65.5 -21.5t88.5 -81.5l297 -305l-43 -61l-375 210q-68 37 -103.5 68t-35.5 69zM827 844q0 90 -75 90q-90 0 -178 -141.5t-111 -317.5q172 35 268 138.5t96 230.5zM150 330q0 256 165 465q186 233 471 233q133 0 218.5 -65.5t85.5 -178
t-95 -198.5q-141 -125 -540 -203v-49q0 -94 37.5 -158.5t123.5 -64.5t162 61t164 188l62 -49q-186 -336 -521 -336q-126 0 -221 71q-112 83 -112 284z" />
    <glyph glyph-name="eacute" unicode="&#xe9;" horiz-adv-x="974" 
d="M827 844q0 90 -75 90q-90 0 -178 -141.5t-111 -317.5q172 35 268 138.5t96 230.5zM150 330q0 256 165 465q186 233 471 233q133 0 218.5 -65.5t85.5 -178t-95 -198.5q-141 -125 -540 -203v-49q0 -94 37.5 -158.5t123.5 -64.5t162 61t164 188l62 -49q-186 -336 -521 -336
q-126 0 -221 71q-112 83 -112 284zM1054 1516q34 0 69.5 -42t35.5 -80t-36 -69t-103 -68l-375 -210l-43 61l297 305q57 59 89 81t66 22z" />
    <glyph glyph-name="ecircumflex" unicode="&#xea;" horiz-adv-x="974" 
d="M827 844q0 90 -75 90q-90 0 -178 -141.5t-111 -317.5q172 35 268 138.5t96 230.5zM150 330q0 256 165 465q186 233 471 233q133 0 218.5 -65.5t85.5 -178t-95 -198.5q-141 -125 -540 -203v-49q0 -94 37.5 -158.5t123.5 -64.5t162 61t164 188l62 -49q-186 -336 -521 -336
q-126 0 -221 71q-112 83 -112 284zM833.5 1530q39.5 0 77.5 -57l234 -353l-60 -55l-231 197q-39 35 -62.5 34.5t-76.5 -34.5l-297 -197l-47 55l368 355q55 55 94.5 55z" />
    <glyph glyph-name="edieresis" unicode="&#xeb;" horiz-adv-x="974" 
d="M827 844q0 90 -75 90q-90 0 -178 -141.5t-111 -317.5q172 35 268 138.5t96 230.5zM150 330q0 256 165 465q186 233 471 233q133 0 218.5 -65.5t85.5 -178t-95 -198.5q-141 -125 -540 -203v-49q0 -94 37.5 -158.5t123.5 -64.5t162 61t164 188l62 -49q-186 -336 -521 -336
q-126 0 -221 71q-112 83 -112 284zM367 1300.5q0 61.5 44 107.5t118.5 46t117.5 -45t43 -107.5t-43 -107.5t-118 -45t-118.5 45t-43.5 106.5zM858 1300.5q0 61.5 44 107.5t119 46t118 -45t43 -107.5t-43 -107.5t-118 -45t-119 45t-44 106.5z" />
    <glyph glyph-name="eth" unicode="&#xf0;" horiz-adv-x="1150" 
d="M455 219q0 -150 120 -149q76 0 144 86q67 86 107 206q89 268 87 404q0 168 -116 168q-129 0 -235 -242t-107 -473zM158 376q0 196 118 384q168 268 525 268q43 0 69 -10v6q-31 80 -108 180l-281 -114l-59 81l272 111q-70 88 -188 184l2 23l117 31q141 -88 235 -170
l299 120l55 -81l-276 -113q272 -279 272 -614q0 -225 -127 -426q-164 -260 -501 -261q-424 1 -424 401z" />
    <glyph glyph-name="ntilde" unicode="&#xf1;" horiz-adv-x="1300" 
d="M1122 1028q82 0 126 -41t46 -107t-18 -149l-154 -495q-29 -96 23 -97q35 1 84 61t92 140l59 -37q-160 -328 -411 -328q-96 -1 -134 63t-6 181l156 524q37 121 -41 121q-68 0 -180 -148t-164 -280q-82 -209 -147 -436l-289 -25l211 826q25 82 -31 88l-123 12l17 68l477 59
l10 -10l-139 -445h12q106 199 242 327t282 128zM731 1409q57 0 195 -44t196 -40t144 102l45 -26l-21 -42t-22 -43t-20 -37t-24 -37t-24 -29q-16 -21 -30 -27t-38 -20q-23 -14 -68 -15q-46 0 -181 43t-199 43t-97 -25q-32 -25 -67 -88l-45 37q16 88 81 168t175 80z" />
    <glyph glyph-name="ograve" unicode="&#xf2;" horiz-adv-x="1150" 
d="M440 1394q0 38 36 80t70 42t65.5 -21.5t88.5 -81.5l297 -305l-43 -61l-374 210q-68 37 -104 68t-36 69zM455 219q0 -150 123 -149q76 0 142 86t106 206q87 260 87 404q0 168 -116 168q-127 0 -236 -240q-106 -244 -106 -475zM158 356q0 217 121 404q172 268 501 268
q176 0 294 -80q136 -92 136 -302t-127 -410q-164 -260 -501 -261q-213 0 -318.5 103.5t-105.5 277.5z" />
    <glyph glyph-name="oacute" unicode="&#xf3;" horiz-adv-x="1150" 
d="M455 219q0 -150 123 -149q76 0 142 86t106 206q87 260 87 404q0 168 -116 168q-127 0 -236 -240q-106 -244 -106 -475zM158 356q0 217 121 404q172 268 501 268q176 0 294 -80q136 -92 136 -302t-127 -410q-164 -260 -501 -261q-213 0 -318.5 103.5t-105.5 277.5z
M1101 1516q34 0 69.5 -42t35.5 -80t-35.5 -69t-103.5 -68l-375 -210l-43 61l297 305q57 59 89 81t66 22z" />
    <glyph glyph-name="ocircumflex" unicode="&#xf4;" horiz-adv-x="1150" 
d="M455 219q0 -150 123 -149q76 0 142 86t106 206q87 260 87 404q0 168 -116 168q-127 0 -236 -240q-106 -244 -106 -475zM158 356q0 217 121 404q172 268 501 268q176 0 294 -80q136 -92 136 -302t-127 -410q-164 -260 -501 -261q-213 0 -318.5 103.5t-105.5 277.5z
M860 1530q39 0 78 -57l233 -353l-59 -55l-231 197q-39 35 -63 34.5t-77 -34.5l-297 -197l-47 55l369 355q55 55 94 55z" />
    <glyph glyph-name="otilde" unicode="&#xf5;" horiz-adv-x="1150" 
d="M455 219q0 -150 123 -149q76 0 142 86t106 206q87 260 87 404q0 168 -116 168q-127 0 -236 -240q-106 -244 -106 -475zM158 356q0 217 121 404q172 268 501 268q176 0 294 -80q136 -92 136 -302t-127 -410q-164 -260 -501 -261q-213 0 -318.5 103.5t-105.5 277.5z
M686 1409q57 0 195.5 -44t196 -40t143.5 102l45 -26q-4 -6 -21.5 -42t-21.5 -43t-20.5 -37t-24 -37t-23.5 -28.5t-30.5 -27.5t-37.5 -20t-68.5 -14.5t-181 42.5t-199.5 43t-96 -24.5t-67 -88.5l-45 37q16 88 80.5 168t175.5 80z" />
    <glyph glyph-name="odieresis" unicode="&#xf6;" horiz-adv-x="1150" 
d="M455 219q0 -150 123 -149q76 0 142 86t106 206q87 260 87 404q0 168 -116 168q-127 0 -236 -240q-106 -244 -106 -475zM158 356q0 217 121 404q172 268 501 268q176 0 294 -80q136 -92 136 -302t-127 -410q-164 -260 -501 -261q-213 0 -318.5 103.5t-105.5 277.5z
M455 1300.5q0 61.5 44 107.5t118.5 46t117.5 -45t43 -107.5t-43 -107.5t-118 -45t-118.5 45t-43.5 106.5zM946 1300.5q0 61.5 44 107.5t119 46t118 -45t43 -107.5t-43 -107.5t-118 -45t-119 45t-44 106.5z" />
    <glyph glyph-name="divide" unicode="&#xf7;" horiz-adv-x="1228" 
d="M201 430v164h991v-164h-991zM557 867q0 59 40 101t99 42q60 0 102 -41t44 -99l-2 -2q0 -59 -41 -101t-101 -42t-101 42q-40 42 -40 100zM698 14q-60 0 -101 42q-40 42 -40 101q0 58 40 100t99 42q60 0 102 -41t44 -98l-2 -2q0 -60 -41 -102t-101 -42z" />
    <glyph glyph-name="oslash" unicode="&#xf8;" horiz-adv-x="1150" 
d="M934 744q0 42 -2 49l-453 -691q33 -32 107 -32t145 86q118 141 179 436q24 110 24 152zM434 219q0 -23 4 -26l459 702q-35 39 -102 39q-145 0 -254 -240q-107 -244 -107 -475zM158 347q0 224 118 413q168 268 504 268q106 0 185 -27l79 123l70 -49l-70 -106
q166 -90 166 -330q0 -203 -127 -403q-164 -260 -501 -261q-98 0 -172 25l-93 -141l-65 55l78 117q-172 92 -172 316z" />
    <glyph glyph-name="ugrave" unicode="&#xf9;" 
d="M432 1394q0 38 36 80t70 42t65.5 -21.5t88.5 -81.5l297 -305l-43 -61l-375 210q-68 37 -103.5 68t-35.5 69zM567 139q70 0 173.5 146.5t160.5 280t143 438.5l291 24l-207 -792q-29 -96 25 -97q59 0 176 201l60 -37q-162 -328 -408 -328q-84 0 -121 59.5t-10 162.5l63 233
h-8q-248 -455 -530 -455q-215 0 -137 297l137 529q25 88 -31 94l-121 12l17 68l473 53l10 -10l-193 -756q-33 -123 37 -123z" />
    <glyph glyph-name="uacute" unicode="&#xfa;" 
d="M567 139q70 0 173.5 146.5t160.5 280t143 438.5l291 24l-207 -792q-29 -96 25 -97q59 0 176 201l60 -37q-162 -328 -408 -328q-84 0 -121 59.5t-10 162.5l63 233h-8q-248 -455 -530 -455q-215 0 -137 297l137 529q25 88 -31 94l-121 12l17 68l473 53l10 -10l-193 -756
q-33 -123 37 -123zM1246 1516q34 0 70 -42t36 -80t-36 -69t-104 -68l-374 -210l-43 61l297 305q57 59 88.5 81t65.5 22z" />
    <glyph glyph-name="ucircumflex" unicode="&#xfb;" 
d="M567 139q70 0 173.5 146.5t160.5 280t143 438.5l291 24l-207 -792q-29 -96 25 -97q59 0 176 201l60 -37q-162 -328 -408 -328q-84 0 -121 59.5t-10 162.5l63 233h-8q-248 -455 -530 -455q-215 0 -137 297l137 529q25 88 -31 94l-121 12l17 68l473 53l10 -10l-193 -756
q-33 -123 37 -123zM923.5 1530q39.5 0 77.5 -57l234 -353l-59 -55l-232 197q-39 35 -62.5 34.5t-76.5 -34.5l-297 -197l-47 55l368 355q55 55 94.5 55z" />
    <glyph glyph-name="udieresis" unicode="&#xfc;" 
d="M567 139q70 0 173.5 146.5t160.5 280t143 438.5l291 24l-207 -792q-29 -96 25 -97q59 0 176 201l60 -37q-162 -328 -408 -328q-84 0 -121 59.5t-10 162.5l63 233h-8q-248 -455 -530 -455q-215 0 -137 297l137 529q25 88 -31 94l-121 12l17 68l473 53l10 -10l-193 -756
q-33 -123 37 -123zM508 1300.5q0 61.5 44 107.5t119 46t117.5 -45t42.5 -107.5t-43 -107.5t-117.5 -45t-118.5 45t-44 106.5zM999 1300.5q0 61.5 44 107.5t119 46t118 -45t43 -107.5t-43 -107.5t-118 -45t-119 45t-44 106.5z" />
    <glyph glyph-name="yacute" unicode="&#xfd;" horiz-adv-x="1001" 
d="M297 -346q55 0 90 117q23 76 23 209t-31 374.5t-51.5 351t-36 137t-47.5 25.5h-127v62l444 98l17 -8q23 -84 46 -364.5t25 -508.5h6q195 350 232 547q23 121 18 283q115 51 213 51q12 0 27.5 -38t15.5 -70q0 -66 -69 -190t-155.5 -268.5t-187 -322.5t-146.5 -252.5
t-86 -134t-101.5 -128t-120.5 -94.5t-140 -26t-132.5 38t-53.5 93t42 107.5t87.5 53.5t61.5 -13t47 -53q51 -76 90 -76zM1047.5 1516q33.5 0 69.5 -42t36 -80t-36 -69t-103 -68l-375 -210l-43 61l297 305q57 59 89 81t65.5 22z" />
    <glyph glyph-name="thorn" unicode="&#xfe;" horiz-adv-x="1228" 
d="M634 70q88 0 163 86q73 86 115 204q93 264 87 392q0 113 -75 112q-57 0 -132 -78q-76 -78 -162 -234t-145 -421q61 -61 149 -61zM1085 1028q219 0 230 -262q6 -140 -78 -343q-47 -114 -116 -213t-185 -167t-258 -68q-143 0 -215 43l-117 -489l-287 -25l369 1684
q27 104 -25 106l-120 13l18 67l475 60l10 -11l-219 -837h8q238 442 510 442z" />
    <glyph glyph-name="ydieresis" unicode="&#xff;" horiz-adv-x="1001" 
d="M297 -346q55 0 90 117q23 76 23 209t-31 374.5t-51.5 351t-36 137t-47.5 25.5h-127v62l444 98l17 -8q23 -84 46 -364.5t25 -508.5h6q195 350 232 547q23 121 18 283q115 51 213 51q12 0 27.5 -38t15.5 -70q0 -66 -69 -190t-155.5 -268.5t-187 -322.5t-146.5 -252.5
t-86 -134t-101.5 -128t-120.5 -94.5t-140 -26t-132.5 38t-53.5 93t42 107.5t87.5 53.5t61.5 -13t47 -53q51 -76 90 -76zM340 1300.5q0 61.5 44 107.5t119 46t118 -45t43 -107.5t-43 -107.5t-118 -45t-119 45t-44 106.5zM831 1300.5q0 61.5 44.5 107.5t119 46t117.5 -45
t43 -107.5t-43 -107.5t-118 -45t-119 45t-44 106.5z" />
    <glyph glyph-name="Amacron" unicode="&#x100;" 
d="M532 602h347l-50 535h-4q-23 -37 -143.5 -258.5t-149.5 -276.5zM-49 0l14 78l55 6q47 4 75 24q29 20 83 109.5t285 497.5l397 702h242l69 -649q8 -76 31 -297t30 -283t19.5 -82t44.5 -22l84 -6l-16 -78h-614l16 78l106 8q53 2 48 76l-31 342h-410q-37 -68 -96 -185.5
t-80 -156.5q-37 -74 27 -76l114 -8l-14 -78h-479zM657 1577l37 158h717l-37 -158h-717z" />
    <glyph glyph-name="amacron" unicode="&#x101;" horiz-adv-x="1220" 
d="M440 229q0 -89 60 -90q84 0 245 258q139 229 211 508q-41 29 -111.5 29t-150.5 -79t-134 -190.5t-87 -229t-33 -206.5zM125 211q0 94 26.5 196.5t85 213t139.5 200.5t201.5 148.5t234.5 58.5t171 -35l8 19h281l-207 -776q-25 -96 22 -97q66 0 179 199l59 -33
q-166 -330 -407 -330q-201 0 -127 258l51 181h-13q-147 -252 -260.5 -345.5t-229 -93.5t-165 71t-49.5 165zM563 1212l31 148h637l-31 -148h-637z" />
    <glyph glyph-name="Abreve" unicode="&#x102;" 
d="M1042 1686q129 0 200 45t87 96h84q-70 -299 -408 -299t-268 299h84q-8 -49 42 -95t179 -46zM532 602h347l-50 535h-4q-23 -37 -143.5 -258.5t-149.5 -276.5zM-49 0l14 78l55 6q47 4 75 23.5t82.5 109.5t285.5 498l397 702h242l69 -649q8 -76 31 -297t30 -282.5t19.5 -82
t44.5 -22.5l84 -6l-16 -78h-614l16 78l106 8q53 2 48 76l-31 342h-410q-37 -68 -96 -185.5t-80 -156.5q-37 -74 27 -76l114 -8l-14 -78h-479z" />
    <glyph glyph-name="abreve" unicode="&#x103;" horiz-adv-x="1220" 
d="M893 1309q236 0 295 153h69q-29 -150 -115.5 -236.5t-281.5 -86.5q-229 0 -259 146q-16 77 17 177h70q-16 -39 22 -97q16 -24 63.5 -40t119.5 -16zM440 229q0 -89 60 -90q84 0 245 258q139 229 211 508q-41 29 -111.5 29t-150.5 -79t-134 -190.5t-87 -229t-33 -206.5z
M125 211q0 94 26.5 196.5t85 213t139.5 200.5t201.5 148.5t234.5 58.5t171 -35l8 19h281l-207 -776q-25 -96 22 -97q66 0 179 199l59 -33q-166 -330 -407 -330q-201 0 -127 258l51 181h-13q-147 -252 -260.5 -345.5t-229 -93.5t-165 71t-49.5 165z" />
    <glyph glyph-name="aogonek" unicode="&#x105;" horiz-adv-x="1220" 
d="M440 229q0 -89 60 -90q84 0 245 258q139 229 211 508q-41 29 -111.5 29t-150.5 -79t-134 -190.5t-87 -229t-33 -206.5zM125 211q0 94 26.5 196.5t85 213t139.5 200.5t201.5 148.5t234.5 58.5t171 -35l8 19h281l-207 -776q-25 -96 22 -97q66 0 179 199l59 -33
q-74 -147 -168 -233t-244 -107q-66 -8 -115.5 -94t-49.5 -143q0 -113 100 -113q49 0 102 27l29 -56q-121 -82 -235.5 -82t-159.5 52.5t-45 133.5t94 176t196 132q-96 39 -38 235l51 181h-13q-147 -252 -260.5 -345.5t-229 -93.5t-165 71t-49.5 165z" />
    <glyph glyph-name="Cacute" unicode="&#x106;" horiz-adv-x="1376" 
d="M227 563q0 293 142 510q246 375 768 375q109 0 240.5 -23.5t213.5 -74.5l-80 -367h-77q-4 371 -293 371q-147 0 -262 -84t-179 -218q-128 -269 -127 -571q0 -207 86 -312.5t240 -105.5q155 1 267 119q60 62 97 115t99 154h78l-113 -398q-164 -84 -438 -84q-170 0 -297 45
t-194.5 108.5t-108.5 151.5t-51.5 153.5t-10.5 135.5zM1446 1851q47 0 80 -47t33 -87t-32 -63.5t-118 -49.5l-416 -131l-28 65l352 252q82 61 129 61z" />
    <glyph glyph-name="cacute" unicode="&#x107;" horiz-adv-x="933" 
d="M795.5 1028q129.5 0 213 -55t83.5 -144q0 -51 -59.5 -90t-120 -39t-82 88.5t-41 117t-50.5 28.5q-96 0 -186 -196.5t-90 -411.5t145 -215q90 0 163 69.5t147 188.5l61 -43q-176 -350 -500 -351q-147 0 -238 83t-91 274t110 383t300 270q106 43 235.5 43zM1107 1516
q34 0 69.5 -42t35.5 -80t-35.5 -69t-103.5 -68l-375 -210l-43 61l297 305q57 59 89 81t66 22z" />
    <glyph glyph-name="Ccircumflex" unicode="&#x108;" horiz-adv-x="1376" 
d="M227 563q0 293 142 510q246 375 768 375q109 0 240.5 -23.5t213.5 -74.5l-80 -367h-77q-4 371 -293 371q-147 0 -262 -84t-179 -218q-128 -269 -127 -571q0 -207 86 -312.5t240 -105.5q155 1 267 119q60 62 97 115t99 154h78l-113 -398q-164 -84 -438 -84q-170 0 -297 45
t-194.5 108.5t-108.5 151.5t-51.5 153.5t-10.5 135.5zM1232 1853q36 0 89 -57l229 -250l-49 -61l-217 123q-53 31 -80 30.5t-90 -26.5l-309 -127l-35 61l352 254q74 53 110 53z" />
    <glyph glyph-name="ccircumflex" unicode="&#x109;" horiz-adv-x="933" 
d="M795.5 1028q129.5 0 213 -55t83.5 -144q0 -51 -59.5 -90t-120 -39t-82 88.5t-41 117t-50.5 28.5q-96 0 -186 -196.5t-90 -411.5t145 -215q90 0 163 69.5t147 188.5l61 -43q-176 -350 -500 -351q-147 0 -238 83t-91 274t110 383t300 270q106 43 235.5 43zM882.5 1530
q39.5 0 78.5 -57l233 -353l-59 -55l-232 197q-39 35 -62.5 34.5t-76.5 -34.5l-297 -197l-47 55l368 355q55 55 94.5 55z" />
    <glyph glyph-name="Cdotaccent" unicode="&#x10a;" horiz-adv-x="1376" 
d="M227 563q0 293 142 510q246 375 768 375q109 0 240.5 -23.5t213.5 -74.5l-80 -367h-77q-4 371 -293 371q-147 0 -262 -84t-179 -218q-128 -269 -127 -571q0 -207 86 -312.5t240 -105.5q155 1 267 119q60 62 97 115t99 154h78l-113 -398q-164 -84 -438 -84q-170 0 -297 45
t-194.5 108.5t-108.5 151.5t-51.5 153.5t-10.5 135.5zM1022 1650.5q0 61.5 44 107.5t119 46t118 -45t43 -107t-43 -107.5t-118 -45.5t-119 45t-44 106.5z" />
    <glyph glyph-name="cdotaccent" unicode="&#x10b;" horiz-adv-x="933" 
d="M795.5 1028q129.5 0 213 -55t83.5 -144q0 -51 -59.5 -90t-120 -39t-82 88.5t-41 117t-50.5 28.5q-96 0 -186 -196.5t-90 -411.5t145 -215q90 0 163 69.5t147 188.5l61 -43q-176 -350 -500 -351q-147 0 -238 83t-91 274t110 383t300 270q106 43 235.5 43zM688 1300.5
q0 61.5 44 107.5t119 46t118 -45t43 -107.5t-43 -107.5t-118 -45t-119 45t-44 106.5z" />
    <glyph glyph-name="Ccaron" unicode="&#x10c;" horiz-adv-x="1376" 
d="M227 563q0 293 142 510q246 375 768 375q109 0 240.5 -23.5t213.5 -74.5l-80 -367h-77q-4 371 -293 371q-147 0 -262 -84t-179 -218q-128 -269 -127 -571q0 -207 86 -312.5t240 -105.5q155 1 267 119q60 62 97 115t99 154h78l-113 -398q-164 -84 -438 -84q-170 0 -297 45
t-194.5 108.5t-108.5 151.5t-51.5 153.5t-10.5 135.5zM1178 1722q27 0 90 27l309 127l35 -61l-352 -254q-74 -53 -110 -53.5t-89 57.5l-230 250l50 61l217 -123q53 -31 80 -31z" />
    <glyph glyph-name="ccaron" unicode="&#x10d;" horiz-adv-x="933" 
d="M795.5 1028q129.5 0 213 -55t83.5 -144q0 -51 -59.5 -90t-120 -39t-82 88.5t-41 117t-50.5 28.5q-96 0 -186 -196.5t-90 -411.5t145 -215q90 0 163 69.5t147 188.5l61 -43q-176 -350 -500 -351q-147 0 -238 83t-91 274t110 383t300 270q106 43 235.5 43zM841 1298
q24 0 77 35l296 197l48 -55l-369 -355q-55 -55 -94 -55t-78 57l-234 353l60 55l231 -197q39 -35 63 -35z" />
    <glyph glyph-name="Dcaron" unicode="&#x10e;" horiz-adv-x="1585" 
d="M737 94q135 0 245 64.5t175.5 160t109.5 214t60 217t16 180.5q0 166 -59 267q-74 126 -280 126q-98 0 -131 -15.5t-44 -66.5l-231 -1042q-14 -61 21.5 -83t117.5 -22zM1677 825q0 -88 -30.5 -213t-104.5 -239q-115 -182 -301 -277.5t-502 -95.5h-657l18 78l93 8
q41 2 58 27.5t32 87.5l227 1016q14 55 8 82.5t-47 29.5l-104 10l20 78h563q369 -4 539 -133q188 -143 188 -459zM1129 1722q27 0 90 27l309 127l35 -61l-353 -254q-74 -53 -109.5 -53.5t-88.5 57.5l-230 250l49 61l218 -123q53 -31 80 -31z" />
    <glyph glyph-name="dcaron" unicode="&#x10f;" horiz-adv-x="1331" 
d="M1605 1661q144 1 144 -183q0 -92 -66 -202t-147 -186l-57 47q29 47 44 110t15 95t-39 86t-39 97q0 42 36 89t109 47zM446 250q0 -112 78 -111q102 0 244 240q141 240 203 522q-39 33 -109 33q-113 0 -213 -131q-99 -131 -151 -286t-52 -267zM131 226q0 98 25 195t81 205
t134 196q79 88 197 148q118 58 240 58t181 -35l4 2l72 305q19 79 -31 86l-104 15l14 63l447 56l14 -13l-299 -1271q-25 -96 24 -97q31 1 80 61t95 140l59 -29q-156 -338 -401 -338q-207 0 -144 238l62 221l-9 2q-161 -280 -261 -358q-124 -101 -252 -101t-178 77
q-50 76 -50 174z" />
    <glyph glyph-name="Dcroat" unicode="&#x110;" horiz-adv-x="1585" 
d="M737 94q135 0 245 65t176 159t109 214q76 206 76 398q0 283 -164 360q-71 33 -172 33t-135 -15t-43 -67l-98 -440h178l-30 -148h-181l-100 -454q-14 -61 22 -83t117 -22zM1677 825q-1 -88 -31 -213t-104 -239q-115 -181 -301 -277t-502 -96h-657l18 78l93 8q41 2 58 28
t32 87l100 452h-141l30 148h144l94 416q14 55 8 83t-47 29l-104 10l20 78h563q369 -4 539 -133q188 -143 188 -459z" />
    <glyph glyph-name="dcroat" unicode="&#x111;" horiz-adv-x="1247" 
d="M446 250q0 -112 78 -111q102 0 244 240q141 240 203 522q-39 33 -109 33q-113 0 -213 -131q-99 -131 -151 -286t-52 -267zM131 226q0 98 25 195t81 205t134 196q79 88 197 148q118 58 240 58t181 -35l4 2l37 162h-215l33 148h217q18 74 -31 81l-104 15l14 63l447 56
l14 -13l-47 -202h127l-33 -148h-129l-217 -921q-25 -96 24 -97q31 1 80 61t95 140l59 -29q-158 -342 -401 -342q-209 0 -144 242l62 221l-9 2q-161 -280 -261 -358q-124 -101 -252 -101t-178 77q-50 76 -50 174z" />
    <glyph glyph-name="Emacron" unicode="&#x112;" horiz-adv-x="1273" 
d="M1075 1323h-141q-53 0 -71.5 -11.5t-28.5 -56.5l-103 -462h193q94 0 135 34.5t92 149.5h78l-103 -467h-77q4 100 -25 142t-123 42h-192l-109 -483q-18 -80 25 -98.5t183 -18.5t221 46t157 175l65 111h78l-121 -426h-1126l18 78l93 8q41 2 58 27.5t32 87.5l227 1016
q14 55 8 82.5t-47 29.5l-104 10l22 78h1090l-82 -379h-78l-10 113q-6 82 -57.5 127t-176.5 45zM649 1577l37 158h717l-37 -158h-717z" />
    <glyph glyph-name="emacron" unicode="&#x113;" horiz-adv-x="974" 
d="M827 844q0 90 -75 90q-90 0 -178 -141.5t-111 -317.5q172 35 268 138.5t96 230.5zM150 330q0 256 165 465q186 233 471 233q133 0 218.5 -65.5t85.5 -178t-95 -198.5q-141 -125 -540 -203v-49q0 -94 37.5 -158.5t123.5 -64.5t162 61t164 188l62 -49q-186 -336 -521 -336
q-126 0 -221 71q-112 83 -112 284zM512 1212l31 148h637l-31 -148h-637z" />
    <glyph glyph-name="Ebreve" unicode="&#x114;" horiz-adv-x="1273" 
d="M1075 1323h-141q-53 0 -71.5 -11.5t-28.5 -56.5l-103 -462h193q94 0 135 34.5t92 149.5h78l-103 -467h-77q4 100 -25 142t-123 42h-192l-109 -483q-18 -80 25 -98.5t183 -18.5t221 46t157 175l65 111h78l-121 -426h-1126l18 78l93 8q41 2 58 27.5t32 87.5l227 1016
q14 55 8 82.5t-47 29.5l-104 10l22 78h1090l-82 -379h-78l-10 113q-6 82 -57.5 127t-176.5 45zM1034 1686q129 0 200 45t87 96h84q-70 -299 -408 -299t-268 299h84q-8 -49 42 -95t179 -46z" />
    <glyph glyph-name="ebreve" unicode="&#x115;" horiz-adv-x="974" 
d="M827 844q0 90 -75 90q-90 0 -178 -141.5t-111 -317.5q172 35 268 138.5t96 230.5zM150 330q0 256 165 465q186 233 471 233q133 0 218.5 -65.5t85.5 -178t-95 -198.5q-141 -125 -540 -203v-49q0 -94 37.5 -158.5t123.5 -64.5t162 61t164 188l62 -49q-186 -336 -521 -336
q-126 0 -221 71q-112 83 -112 284zM842 1309q236 0 295 153h69q-29 -150 -115.5 -236.5t-281.5 -86.5q-229 0 -259 146q-16 77 17 177h70q-17 -39 21 -97q16 -24 64 -40t120 -16z" />
    <glyph glyph-name="Edotaccent" unicode="&#x116;" horiz-adv-x="1273" 
d="M1075 1323h-141q-53 0 -71.5 -11.5t-28.5 -56.5l-103 -462h193q94 0 135 34.5t92 149.5h78l-103 -467h-77q4 100 -25 142t-123 42h-192l-109 -483q-18 -80 25 -98.5t183 -18.5t221 46t157 175l65 111h78l-121 -426h-1126l18 78l93 8q41 2 58 27.5t32 87.5l227 1016
q14 55 8 82.5t-47 29.5l-104 10l22 78h1090l-82 -379h-78l-10 113q-6 82 -57.5 127t-176.5 45zM864 1650.5q0 61.5 44 107.5t119 46t118 -45t43 -107t-43 -107.5t-118 -45.5t-119 45t-44 106.5z" />
    <glyph glyph-name="edotaccent" unicode="&#x117;" horiz-adv-x="974" 
d="M827 844q0 90 -75 90q-90 0 -178 -141.5t-111 -317.5q172 35 268 138.5t96 230.5zM150 330q0 256 165 465q186 233 471 233q133 0 218.5 -65.5t85.5 -178t-95 -198.5q-141 -125 -540 -203v-49q0 -94 37.5 -158.5t123.5 -64.5t162 61t164 188l62 -49q-186 -336 -521 -336
q-126 0 -221 71q-112 83 -112 284zM688 1300.5q0 61.5 44 107.5t119 46t118 -45t43 -107.5t-43 -107.5t-118 -45t-119 45t-44 106.5z" />
    <glyph glyph-name="Eogonek" unicode="&#x118;" horiz-adv-x="1273" 
d="M1075 1323h-141q-53 0 -71.5 -11.5t-28.5 -56.5l-103 -462h193q94 0 135 34.5t92 149.5h78l-103 -467h-77q4 100 -25 142t-123 42h-192l-109 -483q-18 -80 25 -98.5t183 -18.5t221 46t157 175l65 111h78l-121 -426h-168q-170 -137 -170 -272q0 -113 101 -113q49 0 102 27
l29 -56q-121 -82 -235.5 -82t-159.5 52.5t-45 133.5t89 170t195 140h-864l18 78l93 8q41 2 58 27.5t32 87.5l227 1016q14 55 8 82.5t-47 29.5l-104 10l22 78h1090l-82 -379h-78l-10 113q-6 82 -57.5 127t-176.5 45z" />
    <glyph glyph-name="eogonek" unicode="&#x119;" horiz-adv-x="974" 
d="M827 844q0 90 -75 90q-90 0 -178 -141.5t-111 -317.5q172 35 268 138.5t96 230.5zM150 330q0 256 165 465q186 233 471 233q133 0 218.5 -65.5t85.5 -178t-95 -198.5q-141 -125 -540 -203v-49q0 -94 37.5 -158.5t123.5 -64.5t162 61t164 188l62 -49q-62 -108 -102 -149
t-61 -60t-104 -79q-84 -68 -138 -148t-54 -147q0 -113 100 -113q49 0 103 27l28 -56q-121 -82 -235.5 -82t-159.5 52.5t-45 130.5t78 159.5t184 141.5q-137 -25 -211 -2.5t-125 60.5q-112 83 -112 284z" />
    <glyph glyph-name="Ecaron" unicode="&#x11a;" horiz-adv-x="1273" 
d="M1075 1323h-141q-53 0 -71.5 -11.5t-28.5 -56.5l-103 -462h193q94 0 135 34.5t92 149.5h78l-103 -467h-77q4 100 -25 142t-123 42h-192l-109 -483q-18 -80 25 -98.5t183 -18.5t221 46t157 175l65 111h78l-121 -426h-1126l18 78l93 8q41 2 58 27.5t32 87.5l227 1016
q14 55 8 82.5t-47 29.5l-104 10l22 78h1090l-82 -379h-78l-10 113q-6 82 -57.5 127t-176.5 45zM1020 1722q27 0 90 27l309 127l35 -61l-352 -254q-74 -53 -110 -53.5t-89 57.5l-229 250l49 61l217 -123q53 -31 80 -31z" />
    <glyph glyph-name="ecaron" unicode="&#x11b;" horiz-adv-x="974" 
d="M827 844q0 90 -75 90q-90 0 -178 -141.5t-111 -317.5q172 35 268 138.5t96 230.5zM150 330q0 256 165 465q186 233 471 233q133 0 218.5 -65.5t85.5 -178t-95 -198.5q-141 -125 -540 -203v-49q0 -94 37.5 -158.5t123.5 -64.5t162 61t164 188l62 -49q-186 -336 -521 -336
q-126 0 -221 71q-112 83 -112 284zM841 1298q24 0 77 35l296 197l48 -55l-369 -355q-55 -55 -94 -55t-78 57l-234 353l60 55l231 -197q39 -35 63 -35z" />
    <glyph glyph-name="Gcircumflex" unicode="&#x11c;" horiz-adv-x="1486" 
d="M227 583q0 314 189 560q104 139 285.5 222t455.5 83t430 -107l-71 -358h-78q-33 371 -314 371q-141 0 -251.5 -83t-172.5 -214q-126 -265 -127 -563q0 -213 77 -322t245 -109q90 0 121 21.5t45 83.5l67 274q27 106 -32 113l-131 10l16 78h639l-18 -78l-84 -12
q-41 -3 -58 -51q-6 -16 -16 -60l-86 -364q-190 -109 -489.5 -109t-470.5 150t-171 464zM1224 1853q36 0 89 -57l229 -250l-49 -61l-217 123q-53 31 -80 30.5t-90 -26.5l-309 -127l-35 61l352 254q74 53 110 53z" />
    <glyph glyph-name="gcircumflex" unicode="&#x11d;" horiz-adv-x="1069" 
d="M528 596q0 -63 30 -101t89 -38q88 0 146 98q63 111 63 254q-2 68 -38 96.5t-83 28.5q-92 0 -149.5 -108.5t-57.5 -229.5zM574.5 -401q99.5 0 171 48t69.5 138q-3 115 -127 161q-96 36 -211 54q-51 -8 -102 -56t-50 -141t75.5 -148.5t174 -55.5zM180 205q0 88 152 151
q25 10 82 31v4q-76 25 -135.5 88.5t-61.5 145.5t22.5 144t80 122.5t161 98.5t259 38t272.5 -61l295 82l12 -19l-64 -153l-155 -25q35 -53 35 -131q0 -166 -135.5 -261t-354.5 -98q-72 0 -123 5q-66 -23 -65 -66q2 -33 49 -52.5t201 -55.5q369 -86 368 -336
q0 -174 -144.5 -263.5t-381 -89.5t-369.5 78t-135 197t95.5 180t226.5 78v4q-88 27 -137.5 71t-49.5 93zM870 1530q39 0 78 -57l234 -353l-60 -55l-231 197q-39 35 -63 34.5t-76 -34.5l-297 -197l-47 55l368 355q55 55 94 55z" />
    <glyph glyph-name="Gbreve" unicode="&#x11e;" horiz-adv-x="1486" 
d="M227 583q0 314 189 560q104 139 285.5 222t455.5 83t430 -107l-71 -358h-78q-33 371 -314 371q-141 0 -251.5 -83t-172.5 -214q-126 -265 -127 -563q0 -213 77 -322t245 -109q90 0 121 21.5t45 83.5l67 274q27 106 -32 113l-131 10l16 78h639l-18 -78l-84 -12
q-41 -3 -58 -51q-6 -16 -16 -60l-86 -364q-190 -109 -489.5 -109t-470.5 150t-171 464zM1184 1686q129 0 199.5 45t86.5 96h84q-70 -299 -407.5 -299t-267.5 299h84q-8 -49 42 -95t179 -46z" />
    <glyph glyph-name="gbreve" unicode="&#x11f;" horiz-adv-x="1069" 
d="M528 596q0 -63 30 -101t89 -38q88 0 146 98q63 111 63 254q-2 68 -38 96.5t-83 28.5q-92 0 -149.5 -108.5t-57.5 -229.5zM574.5 -401q99.5 0 171 48t69.5 138q-3 115 -127 161q-96 36 -211 54q-51 -8 -102 -56t-50 -141t75.5 -148.5t174 -55.5zM180 205q0 88 152 151
q25 10 82 31v4q-76 25 -135.5 88.5t-61.5 145.5t22.5 144t80 122.5t161 98.5t259 38t272.5 -61l295 82l12 -19l-64 -153l-155 -25q35 -53 35 -131q0 -166 -135.5 -261t-354.5 -98q-72 0 -123 5q-66 -23 -65 -66q2 -33 49 -52.5t201 -55.5q369 -86 368 -336
q0 -174 -144.5 -263.5t-381 -89.5t-369.5 78t-135 197t95.5 180t226.5 78v4q-88 27 -137.5 71t-49.5 93zM829 1309q236 0 295 153h70q-29 -150 -116 -236.5t-281 -86.5q-227 0 -259 146q-16 74 17 177h70q-17 -39 21 -97q16 -24 64 -40t119 -16z" />
    <glyph glyph-name="Gdotaccent" unicode="&#x120;" horiz-adv-x="1486" 
d="M227 583q0 314 189 560q104 139 285.5 222t455.5 83t430 -107l-71 -358h-78q-33 371 -314 371q-141 0 -251.5 -83t-172.5 -214q-126 -265 -127 -563q0 -213 77 -322t245 -109q90 0 121 21.5t45 83.5l67 274q27 106 -32 113l-131 10l16 78h639l-18 -78l-84 -12
q-41 -3 -58 -51q-6 -16 -16 -60l-86 -364q-190 -109 -489.5 -109t-470.5 150t-171 464zM1014 1650.5q0 61.5 44 107.5t119 46t117.5 -45t42.5 -107t-43 -107.5t-117.5 -45.5t-118.5 45t-44 106.5z" />
    <glyph glyph-name="gdotaccent" unicode="&#x121;" horiz-adv-x="1069" 
d="M528 596q0 -63 30 -101t89 -38q88 0 146 98q63 111 63 254q-2 68 -38 96.5t-83 28.5q-92 0 -149.5 -108.5t-57.5 -229.5zM574.5 -401q99.5 0 171 48t69.5 138q-3 115 -127 161q-96 36 -211 54q-51 -8 -102 -56t-50 -141t75.5 -148.5t174 -55.5zM180 205q0 88 152 151
q25 10 82 31v4q-76 25 -135.5 88.5t-61.5 145.5t22.5 144t80 122.5t161 98.5t259 38t272.5 -61l295 82l12 -19l-64 -153l-155 -25q35 -53 35 -131q0 -166 -135.5 -261t-354.5 -98q-72 0 -123 5q-66 -23 -65 -66q2 -33 49 -52.5t201 -55.5q369 -86 368 -336
q0 -174 -144.5 -263.5t-381 -89.5t-369.5 78t-135 197t95.5 180t226.5 78v4q-88 27 -137.5 71t-49.5 93zM676 1300.5q0 61.5 44 107.5t119 46t117.5 -45t42.5 -107.5t-43 -107.5t-117.5 -45t-118.5 45t-44 106.5z" />
    <glyph glyph-name="Hcircumflex" unicode="&#x124;" horiz-adv-x="1638" 
d="M82 0l18 78l93 8q41 2 58 27.5t32 87.5l227 1016q14 55 8 82.5t-47 29.5l-104 10l20 78h639l-20 -78l-91 -8q-41 -2 -58 -27.5t-32 -86.5l-94 -424h533l94 424q14 55 8 82.5t-47 29.5l-105 10l21 78h639l-21 -78l-90 -8q-41 -2 -58 -27.5t-32 -86.5l-227 -1016
q-14 -55 -8 -83t47 -32l102 -8l-18 -78h-639l18 78l92 8q41 2 58.5 27.5t31.5 87.5l111 493h-532l-111 -493q-14 -55 -8 -83t47 -32l102 -8l-18 -78h-639zM1242.5 1853q35.5 0 88.5 -57l230 -250l-50 -61l-217 123q-53 31 -80 30.5t-90 -26.5l-309 -127l-35 61l353 254
q74 53 109.5 53z" />
    <glyph glyph-name="hcircumflex" unicode="&#x125;" horiz-adv-x="1288" 
d="M1098 1028q119 0 160.5 -88t-5.5 -229l-147 -475q-27 -96 22 -97q33 0 83.5 61.5t93.5 141.5l59 -31q-154 -336 -401 -336q-100 0 -141.5 65.5t-4.5 190.5l152 514q16 57 5 88t-46 31q-74 0 -180.5 -134t-162.5 -277.5t-139 -452.5l-284 -25l293 1321q20 82 -33 88
l-119 15l16 65l469 56l11 -11l-219 -905h10q94 180 226 302t282 122zM1065 2021q39 0 78 -57l233 -352l-59 -56l-232 197q-39 35 -62.5 35t-76.5 -35l-297 -197l-47 56l369 354q55 55 94 55z" />
    <glyph glyph-name="Hbar" unicode="&#x126;" horiz-adv-x="1638" 
d="M731 793h533l75 340h-532zM82 0l18 78l93 8q41 2 58 28t32 87l209 932h-144l21 94h143q12 51 5 76t-46 26l-104 10l20 78h639l-20 -78l-91 -8q-41 -1 -57 -25t-31 -79h533q12 51 5 76t-46 26l-105 10l21 78h639l-21 -78l-90 -8q-41 -1 -57 -25t-31 -79h144l-21 -94h-143
l-209 -932q-14 -55 -8 -83t47 -32l102 -8l-18 -78h-639l18 78l92 8q41 2 59 28q17 26 31 87l111 493h-532l-111 -493q-14 -55 -8 -83t47 -32l102 -8l-18 -78h-639z" />
    <glyph glyph-name="hbar" unicode="&#x127;" horiz-adv-x="1288" 
d="M1098 1028q118 0 160 -88t-5 -229l-147 -475q-27 -96 22 -97q33 -1 83 61t94 142l59 -31q-154 -336 -401 -336q-100 0 -142 66q-41 66 -4 190l152 514q16 57 5 89t-46 30q-74 0 -180 -134t-162 -278t-140 -452l-284 -25l260 1172h-139l22 92h137l13 57q20 82 -33 88
l-119 15l16 65l469 56l11 -11l-66 -270h416l-23 -92h-415l-131 -543h10q94 180 226 302t282 122z" />
    <glyph glyph-name="Itilde" unicode="&#x128;" horiz-adv-x="790" 
d="M988 1681q50 0 82 25t67 88l65 -37q-96 -250 -276 -250q-43 0 -181 43q-125 43 -187 43q-62 -1 -94 -25t-67 -87l-65 37q31 81 76 140q84 111 200 109q63 0 189 -43q141 -43 191 -43zM82 0l18 78l93 8q41 2 58 28t32 87l227 1016q14 55 8 83t-47 29l-104 10l20 78h639
l-20 -78l-91 -8q-41 -1 -58 -27t-32 -87l-227 -1016q-14 -55 -8 -83t47 -32l102 -8l-18 -78h-639z" />
    <glyph glyph-name="itilde" unicode="&#x129;" horiz-adv-x="694" 
d="M365 -25q-210 0 -144 244l158 584q20 80 -35 86l-119 12l17 68l471 59l12 -12l-211 -780q-27 -96 23 -97q60 0 176 201l61 -35q-164 -330 -409 -330zM459 1409q57 0 195 -44t196 -40t143 102l45 -26q-4 -6 -21 -42t-21 -43t-21 -37q-15 -30 -23 -37t-24 -29
q-16 -21 -30 -27t-38 -20q-23 -14 -69 -15q-46 0 -181 43q-136 43 -200 43t-96 -25t-66 -88l-45 37q16 88 81 168t175 80z" />
    <glyph glyph-name="Imacron" unicode="&#x12a;" horiz-adv-x="790" 
d="M82 0l18 78l93 8q41 2 58 27.5t32 87.5l227 1016q14 55 8 82.5t-47 29.5l-104 10l20 78h639l-20 -78l-91 -8q-41 -2 -58 -27.5t-32 -86.5l-227 -1016q-14 -55 -8 -83t47 -32l102 -8l-18 -78h-639zM393 1577l37 158h717l-37 -158h-717z" />
    <glyph glyph-name="Ibreve" unicode="&#x12c;" horiz-adv-x="790" 
d="M82 0l18 78l93 8q41 2 58 27.5t32 87.5l227 1016q14 55 8 82.5t-47 29.5l-104 10l20 78h639l-20 -78l-91 -8q-41 -2 -58 -27.5t-32 -86.5l-227 -1016q-14 -55 -8 -83t47 -32l102 -8l-18 -78h-639zM778 1686q129 0 200 45t87 96h84q-70 -299 -408 -299t-268 299h84
q-8 -49 42 -95t179 -46z" />
    <glyph glyph-name="Idotaccent" unicode="&#x130;" horiz-adv-x="790" 
d="M82 0l18 78l93 8q41 2 58 27.5t32 87.5l227 1016q14 55 8 82.5t-47 29.5l-104 10l20 78h639l-20 -78l-91 -8q-41 -2 -58 -27.5t-32 -86.5l-227 -1016q-14 -55 -8 -83t47 -32l102 -8l-18 -78h-639zM608 1650.5q0 61.5 44 107.5t119 46t118 -45t43 -107t-43 -107.5
t-118 -45.5t-119 45t-44 106.5z" />
    <glyph glyph-name="dotlessi" unicode="&#x131;" horiz-adv-x="694" 
d="M365 -25q-210 0 -144 244l158 584q20 80 -35 86l-119 12l17 68l471 59l12 -12l-211 -780q-27 -96 23 -97q33 0 82 60.5t94 140.5l61 -35q-164 -330 -409 -330z" />
    <glyph glyph-name="Jcircumflex" unicode="&#x134;" horiz-adv-x="794" 
d="M-31 -162q137 23 203 99q94 106 158 387l202 893q14 55 8.5 82.5t-46.5 29.5l-105 10l21 78h639l-21 -78l-90 -8q-41 -2 -58.5 -27.5t-31.5 -86.5l-227 -1000q-53 -229 -162 -328q-135 -123 -402 -122q-66 0 -84 4zM839 1853q36 0 89 -57l229 -250l-49 -61l-217 123
q-53 31 -80 30.5t-90 -26.5l-309 -127l-35 61l352 254q74 53 110 53z" />
    <glyph glyph-name="Lacute" unicode="&#x139;" horiz-adv-x="1200" 
d="M783.5 94q119.5 0 200.5 47t159 172l61 99h78l-119 -412h-1081l18 78l93 8q41 4 58 28.5t32 86.5l227 1016q14 55 8 83.5t-47 30.5l-104 8l20 78h639l-20 -78l-91 -8q-41 -4 -58 -28.5t-32 -85.5l-225 -1010q-16 -72 24 -92.5t159.5 -20.5zM1266 1851q47 0 79.5 -47
t32.5 -87t-31.5 -63.5t-117.5 -49.5l-416 -131l-29 65l353 252q82 61 129 61z" />
    <glyph glyph-name="lacute" unicode="&#x13a;" horiz-adv-x="669" 
d="M213 236l256 1060q20 82 -33 88l-119 15l15 65l465 56l12 -11l-309 -1273q-20 -96 22 -97q33 0 84 60.5t94 140.5l64 -37q-162 -328 -404 -328q-210 1 -147 261zM976 2007q34 0 69.5 -42t35.5 -80t-35.5 -68.5t-103.5 -67.5l-375 -211l-43 61l297 306q57 59 89 80.5
t66 21.5z" />
    <glyph glyph-name="Lcaron" unicode="&#x13d;" horiz-adv-x="1200" 
d="M1275 1661q144 1 144 -183q1 -92 -65 -202t-148 -186l-57 47q29 47 44 110t15 95t-39 86t-39 97q0 42 36 89t109 47zM82 0l18 78l93 8q41 4 58 29t32 86l227 1016q14 55 8 83t-47 31l-104 8l20 78h639l-20 -78l-91 -8q-41 -5 -58 -29t-32 -85l-225 -1010q-16 -72 24 -92
q40 -21 160 -21t200 47q81 47 159 172l61 99h78l-119 -412h-1081z" />
    <glyph glyph-name="lcaron" unicode="&#x13e;" horiz-adv-x="724" 
d="M999 1661q144 1 144 -183q0 -92 -66 -202t-147 -186l-58 47q29 47 44 110q16 63 16 95t-39 86t-39 97q0 42 36 89t109 47zM213 236l256 1060q20 82 -33 88l-119 15l15 65l465 56l12 -11l-309 -1273q-20 -96 22 -97q33 1 84 61t94 140l64 -37q-162 -328 -404 -328
q-210 1 -147 261z" />
    <glyph glyph-name="Lslash" unicode="&#x141;" horiz-adv-x="1212" 
d="M94 0l19 78l92 8q41 4 58 29t32 86l67 303l-219 -139l31 135l219 137l129 580q14 55 8 83t-47 31l-104 8l20 78h639l-20 -78l-90 -8q-41 -4 -59 -28q-17 -25 -31 -86l-76 -347l303 193l-31 -135l-303 -193l-119 -528q-16 -72 24 -92q40 -21 160 -21t200 47t159 172l62 99
h77l-118 -412h-1082z" />
    <glyph glyph-name="lslash" unicode="&#x142;" horiz-adv-x="694" 
d="M373 -25q-211 0 -148 261l80 325l-196 -119l28 123l197 119l147 612q20 82 -32 88l-119 15l14 65l465 56l12 -11l-153 -639l264 162l-31 -123l-264 -161l-125 -512q-20 -96 23 -97q33 0 84 60.5t94 140.5l63 -37q-162 -328 -403 -328z" />
    <glyph glyph-name="Nacute" unicode="&#x143;" horiz-adv-x="1517" 
d="M61 0l17 78l76 6q72 6 102.5 101t77.5 304l160 728q14 55 8 82.5t-47 29.5l-103 10l21 78h454q184 -449 437 -1042h6l121 553q51 240 56 297t-10.5 81.5t-58.5 26.5l-110 6l16 78h504l-16 -78l-76 -6q-72 -6 -103 -101t-77 -304l-205 -928h-213q-240 573 -486 1149h-8
l-147 -660q-47 -233 -53.5 -293.5t9 -85t58.5 -26.5l111 -6l-17 -78h-504zM1403 1851q47 0 80 -47t33 -87t-32 -63.5t-118 -49.5l-416 -131l-28 65l352 252q82 61 129 61z" />
    <glyph glyph-name="nacute" unicode="&#x144;" horiz-adv-x="1300" 
d="M1122 1028q82 0 126 -41t46 -107.5t-18 -148.5l-154 -495q-29 -96 23 -97q35 0 84 60.5t92 140.5l59 -37q-160 -328 -411 -328q-96 0 -134 63.5t-6 180.5l156 524q37 121 -41 121q-68 0 -179.5 -148.5t-164.5 -279.5q-82 -209 -147 -436l-289 -25l211 826q25 82 -31 88
l-123 12l17 68l477 59l10 -10l-139 -445h12q106 199 241.5 327t282.5 128zM1193 1516q34 0 69.5 -42t35.5 -80t-35.5 -69t-103.5 -68l-375 -210l-43 61l297 305q57 59 89 81t66 22z" />
    <glyph glyph-name="Ncommaaccent" unicode="&#x145;" horiz-adv-x="1517" 
d="M635 -375q0 33 -21 78q-20 45 -20 91t38 83t100 37t97 -43t35 -102q0 -105 -79 -193t-220 -184l-41 47q111 106 111 186zM61 0l17 78l76 6q72 6 102 101t78 304l160 728q14 55 8 83t-47 29l-103 10l21 78h454q184 -449 437 -1042h6l121 553q51 240 56 297t-10 82t-59 26
l-110 6l16 78h504l-16 -78l-76 -6q-72 -6 -103 -101t-77 -304l-205 -928h-213q-240 573 -486 1149h-8l-147 -660q-47 -233 -53 -293t8 -86q16 -24 59 -26l111 -6l-17 -78h-504z" />
    <glyph glyph-name="ncommaaccent" unicode="&#x146;" horiz-adv-x="1300" 
d="M512 -375q0 33 -20 78t-20 91t37 83q38 37 100 37q61 0 97 -43t35 -102q0 -106 -78 -194q-79 -87 -221 -183l-41 47q111 106 111 186zM1122 1028q82 0 126 -41t46 -107t-18 -149l-154 -495q-29 -96 23 -97q35 1 84 61t92 140l59 -37q-160 -328 -411 -328q-96 -1 -134 63
t-6 181l156 524q37 121 -41 121q-68 0 -180 -148t-164 -280q-82 -209 -147 -436l-289 -25l211 826q25 82 -31 88l-123 12l17 68l477 59l10 -10l-139 -445h12q106 199 242 327t282 128z" />
    <glyph glyph-name="Ncaron" unicode="&#x147;" horiz-adv-x="1517" 
d="M61 0l17 78l76 6q72 6 102.5 101t77.5 304l160 728q14 55 8 82.5t-47 29.5l-103 10l21 78h454q184 -449 437 -1042h6l121 553q51 240 56 297t-10.5 81.5t-58.5 26.5l-110 6l16 78h504l-16 -78l-76 -6q-72 -6 -103 -101t-77 -304l-205 -928h-213q-240 573 -486 1149h-8
l-147 -660q-47 -233 -53.5 -293.5t9 -85t58.5 -26.5l111 -6l-17 -78h-504zM1135 1722q27 0 90 27l309 127l35 -61l-352 -254q-74 -53 -110 -53.5t-89 57.5l-230 250l50 61l217 -123q53 -31 80 -31z" />
    <glyph glyph-name="ncaron" unicode="&#x148;" horiz-adv-x="1300" 
d="M1122 1028q82 0 126 -41t46 -107.5t-18 -148.5l-154 -495q-29 -96 23 -97q35 0 84 60.5t92 140.5l59 -37q-160 -328 -411 -328q-96 0 -134 63.5t-6 180.5l156 524q37 121 -41 121q-68 0 -179.5 -148.5t-164.5 -279.5q-82 -209 -147 -436l-289 -25l211 826q25 82 -31 88
l-123 12l17 68l477 59l10 -10l-139 -445h12q106 199 241.5 327t282.5 128zM927 1298q24 0 77 35l296 197l48 -55l-369 -355q-55 -55 -94 -55t-78 57l-234 353l60 55l231 -197q39 -35 63 -35z" />
    <glyph glyph-name="Eng" unicode="&#x14a;" horiz-adv-x="1566" 
d="M1384 1448q360 0 252 -453l-223 -940q-63 -267 -183 -390t-284 -149q-68 -11 -151 -12q-145 0 -229 68q-83 68 -83 134t49 100q50 34 106 34t82 -38t31 -83t25 -83t60 -37q160 0 272 497l219 940q59 244 -115 244q-135 0 -315 -168q-117 -106 -147 -242l-152 -669
q-14 -55 -8 -84t47 -31l106 -8l-18 -78h-643l18 78l93 8q41 2 58 28t32 87l227 1016q14 55 8 83t-47 29l-104 10l20 78h483l-49 -227h4q291 258 559 258z" />
    <glyph glyph-name="eng" unicode="&#x14b;" horiz-adv-x="1275" 
d="M1109 1028q134 0 171 -88t-4 -209l-186 -678q-104 -371 -203 -459q-106 -90 -235.5 -90t-194 40t-64.5 91.5t40 91.5t84 40t75 -60q55 -109 92 -108q23 0 39 69l119 553l143 522q33 121 -41 121q-68 0 -179.5 -148.5t-164.5 -279.5q-82 -209 -147 -436l-289 -25l211 826
q25 82 -31 88l-123 12l17 68l477 59l10 -10l-139 -445h12q106 199 241.5 327t269.5 128z" />
    <glyph glyph-name="Omacron" unicode="&#x14c;" horiz-adv-x="1558" 
d="M569 389q0 -326 256 -326q143 0 257 163t169.5 382t55.5 428q0 317 -238 318q-119 0 -219 -104t-158 -258q-122 -324 -123 -603zM231 546q0 269 117 494q213 408 690 408q274 0 440.5 -146.5t166.5 -428t-121 -513.5q-203 -391 -664 -391q-303 0 -466 154t-163 423z
M709 1577l36 158h717l-37 -158h-716z" />
    <glyph glyph-name="omacron" unicode="&#x14d;" horiz-adv-x="1150" 
d="M455 219q0 -150 123 -149q76 0 142 86t106 206q87 260 87 404q0 168 -116 168q-127 0 -236 -240q-106 -244 -106 -475zM158 356q0 217 121 404q172 268 501 268q176 0 294 -80q136 -92 136 -302t-127 -410q-164 -260 -501 -261q-213 0 -318.5 103.5t-105.5 277.5z
M506 1212l31 148h637l-31 -148h-637z" />
    <glyph glyph-name="Obreve" unicode="&#x14e;" horiz-adv-x="1558" 
d="M569 389q0 -326 256 -326q143 0 257 163t169.5 382t55.5 428q0 317 -238 318q-119 0 -219 -104t-158 -258q-122 -324 -123 -603zM231 546q0 269 117 494q213 408 690 408q274 0 440.5 -146.5t166.5 -428t-121 -513.5q-203 -391 -664 -391q-303 0 -466 154t-163 423z
M1094 1686q129 0 199.5 45t86.5 96h84q-70 -299 -408 -299t-268 299h84q-8 -49 42.5 -95t179.5 -46z" />
    <glyph glyph-name="obreve" unicode="&#x14f;" horiz-adv-x="1150" 
d="M455 219q0 -150 123 -149q76 0 142 86t106 206q87 260 87 404q0 168 -116 168q-127 0 -236 -240q-106 -244 -106 -475zM158 356q0 217 121 404q172 268 501 268q176 0 294 -80q136 -92 136 -302t-127 -410q-164 -260 -501 -261q-213 0 -318.5 103.5t-105.5 277.5z
M836 1309q236 0 294 153h70q-29 -150 -116 -236.5t-281 -86.5q-229 0 -259 146q-16 77 17 177h70q-17 -39 21 -97q16 -24 64 -40t120 -16z" />
    <glyph glyph-name="Ohungarumlaut" unicode="&#x150;" horiz-adv-x="1558" 
d="M1543.5 1858q37.5 0 77.5 -50.5t40 -82.5t-23.5 -53t-76.5 -48l-285 -143l-47 63l211 240q66 74 103.5 74zM1136 1858q38 0 77.5 -50.5t39.5 -82.5t-23.5 -53t-76.5 -48l-285 -143l-47 63l211 240q66 74 104 74zM569 389q0 -326 256 -326q143 0 257 163t169.5 382
t55.5 428q0 317 -238 318q-119 0 -219 -104t-158 -258q-122 -324 -123 -603zM231 546q0 269 117 494q213 408 690 408q274 0 440.5 -146.5t166.5 -428t-121 -513.5q-203 -391 -664 -391q-303 0 -466 154t-163 423z" />
    <glyph glyph-name="ohungarumlaut" unicode="&#x151;" horiz-adv-x="1150" 
d="M1145 1536q37 0 80 -23.5t43 -54.5q0 -53 -68 -127l-196 -213l-58 35l111 287q35 96 88 96zM803 1536q39 0 82 -23.5t43 -64.5t-70 -117l-196 -213l-58 35l111 287q35 96 88 96zM455 219q0 -150 123 -149q76 0 142 86t106 206q87 260 87 404q0 168 -116 168
q-127 0 -236 -240q-106 -244 -106 -475zM158 356q0 217 121 404q172 268 501 268q176 0 294 -80q136 -92 136 -302t-127 -410q-164 -260 -501 -261q-213 0 -318.5 103.5t-105.5 277.5z" />
    <glyph glyph-name="OE" unicode="&#x152;" horiz-adv-x="2080" 
d="M940 94q129 0 154 111l231 1022q12 53 -11.5 74.5t-122.5 21.5t-210 -51t-185 -134q-74 -84 -128 -190q-102 -204 -102.5 -426.5t105 -325t269.5 -102.5zM227 588q0 107 28 214t66.5 182t115.5 158t178.5 141t261 96t356.5 38h1059l-82 -379h-78l-10 113q-6 82 -57.5 127
t-176.5 45h-141q-53 0 -71.5 -11.5t-28.5 -56.5l-105 -462h189q94 0 135 35.5t92 150.5h78l-103 -469h-78q4 100 -24.5 142t-122.5 42h-188l-109 -479q-18 -80 26 -100.5t180 -20.5t216 46t156 175l65 111h78l-121 -426h-1042q-367 0 -554.5 153.5t-187.5 434.5z" />
    <glyph glyph-name="oe" unicode="&#x153;" horiz-adv-x="1660" 
d="M1516 846q0 88 -78 88q-90 0 -176 -140.5t-109 -318.5q166 35 264.5 139.5t98.5 231.5zM453 219q0 -150 120 -149q76 0 143.5 86t107.5 206q87 260 87 404q0 168 -116 168q-127 0 -236 -240q-106 -244 -106 -475zM158 376.5q0 194.5 118 383.5q174 268 504 268
q94 0 183.5 -41t138.5 -125q182 166 366 166q135 0 221.5 -64.5t86.5 -178t-95 -199.5q-141 -125 -536 -203v-49q0 -223 160 -223q84 0 159.5 62.5t163.5 186.5l62 -49q-186 -336 -500 -336q-182 0 -262 158q-63 -74 -162.5 -116t-192.5 -42q-207 0 -311 103.5t-104 298z
" />
    <glyph glyph-name="Racute" unicode="&#x154;" horiz-adv-x="1394" 
d="M848 743q129 0 226 100.5t97 268.5q0 211 -213 211q-70 0 -92 -15.5t-32 -58.5l-115 -506h129zM965 1417q266 0 389 -71q143 -86 143 -255.5t-120 -272.5t-314 -116v-4q118 -27 163.5 -92.5t45.5 -155.5v-94q-8 -141 39 -221q29 -47 125 -57l-19 -78h-196
q-215 0 -248 170q-14 78 -8 211t-3 176t-40 67.5t-105 24.5h-119l-100 -448q-14 -55 -8 -83t47 -32l102 -8l-18 -78h-639l18 78l93 8q41 2 58 27.5t32 87.5l227 1016q14 55 8 82.5t-47 29.5l-104 10l20 78h578zM1280 1851q47 0 80 -47t33 -87t-32 -63.5t-118 -49.5
l-416 -131l-28 65l352 252q82 61 129 61z" />
    <glyph glyph-name="racute" unicode="&#x155;" horiz-adv-x="901" 
d="M963 1028q127 0 127 -121q0 -63 -40 -119.5t-91.5 -56.5t-102.5 36t-82 36q-94 0 -199 -367q-20 -72 -58 -223.5t-54 -212.5l-287 -25l191 826q18 82 -31 88l-121 12l14 68l437 59l10 -10l-76 -297h10q172 307 353 307zM1140 1516q34 0 69.5 -42t35.5 -80t-35.5 -69
t-103.5 -68l-375 -210l-43 61l297 305q57 59 89 81t66 22z" />
    <glyph glyph-name="Rcaron" unicode="&#x158;" horiz-adv-x="1394" 
d="M848 743q129 0 226 100.5t97 268.5q0 211 -213 211q-70 0 -92 -15.5t-32 -58.5l-115 -506h129zM965 1417q266 0 389 -71q143 -86 143 -255.5t-120 -272.5t-314 -116v-4q118 -27 163.5 -92.5t45.5 -155.5v-94q-8 -141 39 -221q29 -47 125 -57l-19 -78h-196
q-215 0 -248 170q-14 78 -8 211t-3 176t-40 67.5t-105 24.5h-119l-100 -448q-14 -55 -8 -83t47 -32l102 -8l-18 -78h-639l18 78l93 8q41 2 58 27.5t32 87.5l227 1016q14 55 8 82.5t-47 29.5l-104 10l20 78h578zM1012 1722q27 0 90 27l309 127l35 -61l-352 -254
q-74 -53 -110 -53.5t-89 57.5l-229 250l49 61l217 -123q53 -31 80 -31z" />
    <glyph glyph-name="rcaron" unicode="&#x159;" horiz-adv-x="901" 
d="M963 1028q127 0 127 -121q0 -63 -40 -119.5t-91.5 -56.5t-102.5 36t-82 36q-94 0 -199 -367q-20 -72 -58 -223.5t-54 -212.5l-287 -25l191 826q18 82 -31 88l-121 12l14 68l437 59l10 -10l-76 -297h10q172 307 353 307zM873.5 1298q23.5 0 76.5 35l297 197l47 -55
l-368 -355q-55 -55 -94.5 -55t-77.5 57l-234 353l60 55l231 -197q39 -35 62.5 -35z" />
    <glyph glyph-name="Sacute" unicode="&#x15a;" horiz-adv-x="1128" 
d="M606 63q123 0 186.5 70t63.5 176q0 182 -211 303q-158 92 -240.5 184.5t-82.5 232t106 269.5q55 68 162.5 109t253.5 41q256 0 395 -111l-70 -329h-77q-4 172 -74 259t-179 87t-170 -66.5t-61 -151.5q0 -84 62 -148q60 -64 196 -140q286 -161 287 -418q0 -203 -136 -331
t-403 -130q-137 0 -271 43t-208 131l47 363h76q20 -207 122.5 -325t225.5 -118zM1153 1851q47 0 80 -47t33 -87t-32 -63.5t-118 -49.5l-416 -131l-28 65l352 252q82 61 129 61z" />
    <glyph glyph-name="sacute" unicode="&#x15b;" horiz-adv-x="854" 
d="M92 182q0 55 44 98.5t97 43.5t84 -62q53 -109 99.5 -150.5t95.5 -41.5t79 29.5t30 76.5q-6 100 -180.5 240.5t-180.5 278.5t94.5 235.5t268.5 97.5t250.5 -58.5t82.5 -117.5t-43 -91t-94 -32t-78 53q-43 82 -76.5 117t-74.5 35t-69.5 -30t-26.5 -81t43 -101t131 -118
q186 -141 186 -307q0 -139 -97.5 -230.5t-284.5 -91.5t-283.5 64.5t-96.5 142.5zM953.5 1516q33.5 0 69.5 -42t36 -80t-36 -69t-103 -68l-375 -210l-43 61l297 305q57 59 89 81t65.5 22z" />
    <glyph glyph-name="Scircumflex" unicode="&#x15c;" horiz-adv-x="1128" 
d="M606 63q123 0 186.5 70t63.5 176q0 182 -211 303q-158 92 -240.5 184.5t-82.5 232t106 269.5q55 68 162.5 109t253.5 41q256 0 395 -111l-70 -329h-77q-4 172 -74 259t-179 87t-170 -66.5t-61 -151.5q0 -84 62 -148q60 -64 196 -140q286 -161 287 -418q0 -203 -136 -331
t-403 -130q-137 0 -271 43t-208 131l47 363h76q20 -207 122.5 -325t225.5 -118zM939 1853q36 0 89 -57l229 -250l-49 -61l-217 123q-53 31 -80 30.5t-90 -26.5l-309 -127l-35 61l352 254q74 53 110 53z" />
    <glyph glyph-name="scircumflex" unicode="&#x15d;" horiz-adv-x="854" 
d="M92 182q0 55 44 98.5t97 43.5t84 -62q53 -109 99.5 -150.5t95.5 -41.5t79 29.5t30 76.5q-6 100 -180.5 240.5t-180.5 278.5t94.5 235.5t268.5 97.5t250.5 -58.5t82.5 -117.5t-43 -91t-94 -32t-78 53q-43 82 -76.5 117t-74.5 35t-69.5 -30t-26.5 -81t43 -101t131 -118
q186 -141 186 -307q0 -139 -97.5 -230.5t-284.5 -91.5t-283.5 64.5t-96.5 142.5zM729 1530q39 0 78 -57l233 -353l-59 -55l-231 197q-39 35 -63 34.5t-77 -34.5l-297 -197l-47 55l369 355q55 55 94 55z" />
    <glyph glyph-name="Scedilla" unicode="&#x15e;" horiz-adv-x="1128" 
d="M606 63q123 0 187 70q63 70 63 176q0 182 -211 303q-158 92 -241 184q-82 92 -82 233q0 140 106 269q55 68 163 109t253 41q256 0 395 -111l-70 -329h-77q-4 172 -74 259t-179 87t-169 -67t-62 -151q0 -84 62 -148t196 -140q286 -161 287 -418q-1 -203 -131 -326
t-365 -134l-67 -85q41 -6 79 -20q37 -15 71 -61t28 -108t-43 -104t-117 -70q-80 -27 -145 -26q-66 0 -119 6l4 66q197 0 207 119q6 59 -33 84t-90 28l-6 17l115 156q-100 8 -216 46t-190 125l47 363h76q20 -207 122 -325t226 -118z" />
    <glyph glyph-name="scedilla" unicode="&#x15f;" horiz-adv-x="854" 
d="M92 182q0 54 44 98t97 44t84 -62q53 -108 99 -150t96 -42q49 0 79 30t30 76q-7 100 -181 240t-180 279q-6 137 94 235t268 98t252 -58q82 -58 82 -118t-43 -91q-43 -32 -94 -32t-78 53q-43 82 -76 117q-34 35 -75 35t-70 -30q-28 -30 -26 -81t43 -101t131 -118
q186 -141 186 -307q0 -139 -91 -225t-255 -95l-72 -92q41 -6 79 -20q38 -15 72 -61q33 -46 27 -108t-43 -104t-117 -70q-80 -26 -146 -26q-67 0 -118 6l5 66q197 0 206 119q6 59 -32 84q-39 25 -90 28l-7 17l120 162q-128 11 -214 69t-86 135z" />
    <glyph glyph-name="Scaron" unicode="&#x160;" horiz-adv-x="1128" 
d="M606 63q123 0 186.5 70t63.5 176q0 182 -211 303q-158 92 -240.5 184.5t-82.5 232t106 269.5q55 68 162.5 109t253.5 41q256 0 395 -111l-70 -329h-77q-4 172 -74 259t-179 87t-170 -66.5t-61 -151.5q0 -84 62 -148q60 -64 196 -140q286 -161 287 -418q0 -203 -136 -331
t-403 -130q-137 0 -271 43t-208 131l47 363h76q20 -207 122.5 -325t225.5 -118zM891 1722q27 0 90 27l309 127l35 -61l-352 -254q-74 -53 -110 -53.5t-89 57.5l-229 250l49 61l217 -123q53 -31 80 -31z" />
    <glyph glyph-name="scaron" unicode="&#x161;" horiz-adv-x="854" 
d="M92 182q0 55 44 98.5t97 43.5t84 -62q53 -109 99.5 -150.5t95.5 -41.5t79 29.5t30 76.5q-6 100 -180.5 240.5t-180.5 278.5t94.5 235.5t268.5 97.5t250.5 -58.5t82.5 -117.5t-43 -91t-94 -32t-78 53q-43 82 -76.5 117t-74.5 35t-69.5 -30t-26.5 -81t43 -101t131 -118
q186 -141 186 -307q0 -139 -97.5 -230.5t-284.5 -91.5t-283.5 64.5t-96.5 142.5zM720 1298q24 0 77 35l297 197l47 -55l-369 -355q-55 -55 -94 -55t-78 57l-233 353l59 55l231 -197q39 -35 63 -35z" />
    <glyph glyph-name="Tcommaaccent" unicode="&#x162;" horiz-adv-x="1261" 
d="M668 1323q-180 0 -269 -172l-63 -125h-78l88 391h1204l-88 -391h-78l-6 125q-10 172 -190 172h-98l-254 -1122q-14 -55 -8 -83t46 -30l132 -10l-19 -78h-299l-90 -115q41 -6 79 -20q38 -15 72 -61q33 -46 27 -108t-43 -104t-117 -70q-80 -26 -145 -26q-66 0 -119 6l4 66
q197 0 207 119q6 59 -33 84t-90 28l-6 17l135 184h-278l18 78l121 8q41 2 58 28t32 87l254 1122h-106z" />
    <glyph glyph-name="tcommaaccent" unicode="&#x163;" horiz-adv-x="735" 
d="M543 139q82 0 202 201l58 -39q-166 -314 -414 -325l-72 -91q41 -6 79 -20q38 -15 72 -61t28 -108t-43 -104t-117 -70q-80 -27 -147 -26q-66 0 -117 6l4 66q197 0 207 119q6 59 -33 84t-90 28l-6 17l130 178q-107 55 -61 233l172 678h-170l25 99h166l41 151l309 158
l27 -17l-91 -292h246l-24 -99h-242l-168 -678q-20 -88 29 -88z" />
    <glyph glyph-name="Tcaron" unicode="&#x164;" horiz-adv-x="1261" 
d="M1188 1323h-98l-254 -1122q-14 -55 -8 -83t46 -30l132 -10l-19 -78h-696l18 78l121 8q41 2 58.5 27.5t31.5 87.5l254 1122h-106q-180 0 -269 -172l-63 -125h-78l88 391h1204l-88 -391h-78l-6 125q-10 172 -190 172zM1004 1722q27 0 90 27l309 127l35 -61l-353 -254
q-74 -53 -109.5 -53.5t-88.5 57.5l-230 250l50 61l217 -123q53 -31 80 -31z" />
    <glyph glyph-name="tcaron" unicode="&#x165;" horiz-adv-x="741" 
d="M1015 1661q144 1 144 -183q1 -92 -65 -202t-148 -186l-57 47q29 47 44 110t15 95t-39 86t-39 97q0 42 36 89t109 47zM543 139q82 0 202 201l58 -39q-172 -326 -432 -326q-93 1 -137 63t-11 189l172 678h-170l25 99h166l41 151l309 158l27 -17l-91 -292h246l-24 -99h-242
l-168 -678q-20 -88 29 -88z" />
    <glyph glyph-name="Utilde" unicode="&#x168;" horiz-adv-x="1589" 
d="M731 1518q95 249 279 249q62 0 186 -43q141 -43 191 -43t82 25t67 88l66 -37q-29 -76 -75 -139q-82 -111 -202 -111q-43 0 -174 43t-193.5 43t-94.5 -24.5t-66 -87.5zM834 63q131 0 210.5 111t133.5 354l153 689q14 55 8 82.5t-47 29.5l-104 10l20 78h639l-20 -78l-90 -8
q-41 -2 -58.5 -27.5t-31.5 -86.5l-160 -699q-74 -326 -231 -437.5t-451.5 -111.5t-425.5 144q-110 125 -53 381l161 723q14 55 8 82.5t-46 29.5l-105 10l21 78h639l-21 -78l-90 -8q-41 -2 -58.5 -27.5t-31.5 -86.5l-164 -740q-90 -414 195 -414z" />
    <glyph glyph-name="utilde" unicode="&#x169;" 
d="M766 1409q57 0 195 -44t196 -40t143 102l46 -26q-4 -6 -21.5 -42t-22 -43t-20.5 -37t-23.5 -37t-23.5 -28.5t-30.5 -27.5t-38 -20.5t-69 -14.5t-180.5 43t-199 43t-96 -24.5t-67 -88.5l-45 37q16 88 80.5 168t175.5 80zM567 139q70 0 173.5 146.5t160.5 280t143 438.5
l291 24l-207 -792q-29 -96 25 -97q59 0 176 201l60 -37q-162 -328 -408 -328q-84 0 -121 59.5t-10 162.5l63 233h-8q-248 -455 -530 -455q-215 0 -137 297l137 529q25 88 -31 94l-121 12l17 68l473 53l10 -10l-193 -756q-33 -123 37 -123z" />
    <glyph glyph-name="Umacron" unicode="&#x16a;" horiz-adv-x="1589" 
d="M834 63q131 0 210.5 111t133.5 354l153 689q14 55 8 82.5t-47 29.5l-104 10l20 78h639l-20 -78l-90 -8q-41 -2 -58.5 -27.5t-31.5 -86.5l-160 -699q-74 -326 -231 -437.5t-451.5 -111.5t-425.5 144q-110 125 -53 381l161 723q14 55 8 82.5t-46 29.5l-105 10l21 78h639
l-21 -78l-90 -8q-41 -2 -58.5 -27.5t-31.5 -86.5l-164 -740q-90 -414 195 -414zM793 1577l36 158h717l-37 -158h-716z" />
    <glyph glyph-name="umacron" unicode="&#x16b;" 
d="M567 139q70 0 173.5 146.5t160.5 280t143 438.5l291 24l-207 -792q-29 -96 25 -97q59 0 176 201l60 -37q-162 -328 -408 -328q-84 0 -121 59.5t-10 162.5l63 233h-8q-248 -455 -530 -455q-215 0 -137 297l137 529q25 88 -31 94l-121 12l17 68l473 53l10 -10l-193 -756
q-33 -123 37 -123zM594 1212l31 148h637l-31 -148h-637z" />
    <glyph glyph-name="Ubreve" unicode="&#x16c;" horiz-adv-x="1589" 
d="M834 63q131 0 210.5 111t133.5 354l153 689q14 55 8 82.5t-47 29.5l-104 10l20 78h639l-20 -78l-90 -8q-41 -2 -58.5 -27.5t-31.5 -86.5l-160 -699q-74 -326 -231 -437.5t-451.5 -111.5t-425.5 144q-110 125 -53 381l161 723q14 55 8 82.5t-46 29.5l-105 10l21 78h639
l-21 -78l-90 -8q-41 -2 -58.5 -27.5t-31.5 -86.5l-164 -740q-90 -414 195 -414zM1178 1686q129 0 199.5 45t86.5 96h84q-70 -299 -408 -299t-268 299h84q-8 -49 42.5 -95t179.5 -46z" />
    <glyph glyph-name="ubreve" unicode="&#x16d;" 
d="M567 139q70 0 173.5 146.5t160.5 280t143 438.5l291 24l-207 -792q-29 -96 25 -97q59 0 176 201l60 -37q-162 -328 -408 -328q-84 0 -121 59.5t-10 162.5l63 233h-8q-248 -455 -530 -455q-215 0 -137 297l137 529q25 88 -31 94l-121 12l17 68l473 53l10 -10l-193 -756
q-33 -123 37 -123zM924 1309q236 0 295 153h69q-29 -150 -116 -236.5t-281 -86.5q-229 0 -259 146q-16 77 17 177h70q-17 -39 21 -97q16 -24 64 -40t120 -16z" />
    <glyph glyph-name="Uring" unicode="&#x16e;" horiz-adv-x="1589" 
d="M834 63q131 0 210.5 111t133.5 354l153 689q14 55 8 82.5t-47 29.5l-104 10l20 78h639l-20 -78l-90 -8q-41 -2 -58.5 -27.5t-31.5 -86.5l-160 -699q-74 -326 -231 -437.5t-451.5 -111.5t-425.5 144q-110 125 -53 381l161 723q14 55 8 82.5t-46 29.5l-105 10l21 78h639
l-21 -78l-90 -8q-41 -2 -58.5 -27.5t-31.5 -86.5l-164 -740q-90 -414 195 -414zM1053 1628q0 -109 96 -108q59 0 103 56t44 138q0 109 -96 109q-59 0 -103 -56.5t-44 -138.5zM1156 1440q-238 0 -238 208q0 100 74 178t200 77q240 1 240 -209q0 -100 -75 -177t-201 -77z" />
    <glyph glyph-name="uring" unicode="&#x16f;" 
d="M567 139q70 0 173.5 146.5t160.5 280t143 438.5l291 24l-207 -792q-29 -96 25 -97q59 0 176 201l60 -37q-162 -328 -408 -328q-84 0 -121 59.5t-10 162.5l63 233h-8q-248 -455 -530 -455q-215 0 -137 297l137 529q25 88 -31 94l-121 12l17 68l473 53l10 -10l-193 -756
q-33 -123 37 -123zM1034 1344q0 136 -110 135q-53 0 -95.5 -55.5t-42.5 -127.5q0 -130 114 -131q52 0 93 53.5t41 125.5zM647 1298.5q0 106.5 74 184.5t202 78t189.5 -57.5t61.5 -151.5q0 -131 -83 -200t-199.5 -69t-180.5 54.5t-64 161z" />
    <glyph glyph-name="Uhungarumlaut" unicode="&#x170;" horiz-adv-x="1589" 
d="M834 63q131 0 210.5 111t133.5 354l153 689q14 55 8 82.5t-47 29.5l-104 10l20 78h639l-20 -78l-90 -8q-41 -2 -58.5 -27.5t-31.5 -86.5l-160 -699q-74 -326 -231 -437.5t-451.5 -111.5t-425.5 144q-110 125 -53 381l161 723q14 55 8 82.5t-46 29.5l-105 10l21 78h639
l-21 -78l-90 -8q-41 -2 -58.5 -27.5t-31.5 -86.5l-164 -740q-90 -414 195 -414zM1627.5 1858q37.5 0 77.5 -50.5t40 -82.5t-23.5 -53t-76.5 -48l-285 -143l-47 63l211 240q66 74 103.5 74zM1220 1858q38 0 77.5 -50.5t39.5 -82.5t-23.5 -53t-76.5 -48l-285 -143l-47 63
l211 240q66 74 104 74z" />
    <glyph glyph-name="uhungarumlaut" unicode="&#x171;" 
d="M567 139q70 0 173.5 146.5t160.5 280t143 438.5l291 24l-207 -792q-29 -96 25 -97q59 0 176 201l60 -37q-162 -328 -408 -328q-84 0 -121 59.5t-10 162.5l63 233h-8q-248 -455 -530 -455q-215 0 -137 297l137 529q25 88 -31 94l-121 12l17 68l473 53l10 -10l-193 -756
q-33 -123 37 -123zM1233 1536q37 0 80 -23.5t43 -54.5q0 -53 -68 -127l-196 -213l-58 35l111 287q35 96 88 96zM891 1536q39 0 82 -23.5t43 -64.5t-70 -117l-196 -213l-58 35l111 287q35 96 88 96z" />
    <glyph glyph-name="Wcircumflex" unicode="&#x174;" horiz-adv-x="1884" 
d="M236 1339l14 78h590l-15 -78l-112 -10q-45 -4 -41 -69l24 -961h11l473 1085h229l64 -1085h10q37 78 185.5 409.5t223.5 530.5q31 86 -24 90l-109 10l15 78h473l-15 -78l-57 -6q-47 -4 -75.5 -30.5t-55 -82t-124 -253t-155.5 -320.5l-305 -647h-252l-57 1018h-10
l-455 -1018h-252l-45 815q-22 459 -39 497q-8 18 -33 19zM1359 1853q36 0 89 -57l229 -250l-49 -61l-217 123q-53 31 -80 30.5t-90 -26.5l-309 -127l-35 61l352 254q74 53 110 53z" />
    <glyph glyph-name="wcircumflex" unicode="&#x175;" horiz-adv-x="1628" 
d="M1700 1028q8 0 24 -22q40 -55 38.5 -143.5t-65 -241t-167.5 -297.5q-254 -348 -481 -349q-94 0 -139.5 52.5t-45.5 136.5t35 235h-8q-100 -195 -229.5 -309.5t-266.5 -114.5q-96 0 -143 74t-14 213l129 539q20 88 -31 94l-121 12l14 68l465 53l11 -10l-175 -731
q-35 -147 52 -148q74 0 192.5 196t237.5 662l278 13l-141 -631q-58 -240 63 -240q98 0 197.5 187.5t108.5 400.5q0 145 -29 258q123 43 211 43zM1186 1530q39 0 78 -57l233 -353l-59 -55l-232 197q-39 35 -62.5 34.5t-76.5 -34.5l-297 -197l-47 55l369 355q55 55 94 55z" />
    <glyph glyph-name="Ycircumflex" unicode="&#x176;" horiz-adv-x="1273" 
d="M260 1343l16 74h617l-16 -78l-113 -12q-47 -4 -35 -59l143 -557h5q240 342 364 549q39 63 -27 69l-108 10l16 78h516l-14 -78l-59 -6q-65 -7 -105 -45q-16 -14 -51 -53q-176 -197 -432 -573q-55 -78 -70 -148l-71 -313q-14 -55 -8 -83t46 -30l132 -10l-19 -78h-694l18 78
l121 8q41 2 58.5 27.5t31.5 87.5l66 303q14 63 -4 133q-72 295 -170 610q-14 51 -31.5 68.5t-52.5 21.5zM1052 1853q36 0 89 -57l229 -250l-49 -61l-217 123q-53 31 -80 30.5t-90 -26.5l-309 -127l-35 61l352 254q74 53 110 53z" />
    <glyph glyph-name="ycircumflex" unicode="&#x177;" horiz-adv-x="1001" 
d="M297 -346q55 0 90 117q23 76 23 209t-31 374.5t-51.5 351t-36 137t-47.5 25.5h-127v62l444 98l17 -8q23 -84 46 -364.5t25 -508.5h6q195 350 232 547q23 121 18 283q115 51 213 51q12 0 27.5 -38t15.5 -70q0 -66 -69 -190t-155.5 -268.5t-187 -322.5t-146.5 -252.5
t-86 -134t-101.5 -128t-120.5 -94.5t-140 -26t-132.5 38t-53.5 93t42 107.5t87.5 53.5t61.5 -13t47 -53q51 -76 90 -76zM876.5 1530q39.5 0 77.5 -57l234 -353l-60 -55l-231 197q-39 35 -62.5 34.5t-76.5 -34.5l-297 -197l-47 55l368 355q55 55 94.5 55z" />
    <glyph glyph-name="Ydieresis" unicode="&#x178;" horiz-adv-x="1273" 
d="M260 1343l16 74h617l-16 -78l-113 -12q-47 -4 -35 -59l143 -557h5q240 342 364 549q39 63 -27 69l-108 10l16 78h516l-14 -78l-59 -6q-65 -7 -105 -45q-16 -14 -51 -53q-176 -197 -432 -573q-55 -78 -70 -148l-71 -313q-14 -55 -8 -83t46 -30l132 -10l-19 -78h-694l18 78
l121 8q41 2 58.5 27.5t31.5 87.5l66 303q14 63 -4 133q-72 295 -170 610q-14 51 -31.5 68.5t-52.5 21.5zM586 1650.5q0 61.5 44 107.5t119 46t117.5 -45t42.5 -107t-43 -107.5t-117.5 -45.5t-118.5 45t-44 106.5zM1102 1650.5q0 61.5 44 107.5t119 46t117.5 -45t42.5 -107
t-43 -107.5t-117.5 -45.5t-118.5 45t-44 106.5z" />
    <glyph glyph-name="Zacute" unicode="&#x179;" horiz-adv-x="1265" 
d="M817 1323q-141 0 -222 -42t-130 -151l-43 -96h-78l80 383h1094l16 -39q-516 -594 -1102 -1284h406q123 0 203.5 47t156.5 174l66 111h77l-120 -426h-1196l-15 41q580 670 1096 1282h-289zM1266 1851q47 0 79.5 -47t32.5 -87t-31.5 -63.5t-117.5 -49.5l-416 -131l-29 65
l353 252q82 61 129 61z" />
    <glyph glyph-name="zacute" unicode="&#x17a;" horiz-adv-x="954" 
d="M37 39q0 57 55 121q193 209 666 647v4h-297q-80 0 -121 -40t-98 -144l-52 24q63 250 158 353h744l16 -33q-547 -502 -684 -652v-12q37 -6 161.5 -49t176.5 -43q88 0 135 58.5t71.5 105.5t26.5 53l60 -20q-49 -201 -90 -286t-84 -118t-119 -33t-286 82t-212 82
q-20 0 -20 -37l8 -61q4 -66 -137 -66q-78 1 -78 64zM1050 1516q34 0 69.5 -42t35.5 -80t-36 -69t-103 -68l-375 -210l-43 61l297 305q57 59 89 81t66 22z" />
    <glyph glyph-name="Zdotaccent" unicode="&#x17b;" horiz-adv-x="1265" 
d="M817 1323q-141 0 -222 -42t-130 -151l-43 -96h-78l80 383h1094l16 -39q-516 -594 -1102 -1284h406q123 0 203.5 47t156.5 174l66 111h77l-120 -426h-1196l-15 41q580 670 1096 1282h-289zM842 1650.5q0 61.5 44 107.5t119 46t117.5 -45t42.5 -107t-43 -107.5
t-117.5 -45.5t-118.5 45t-44 106.5z" />
    <glyph glyph-name="zdotaccent" unicode="&#x17c;" horiz-adv-x="954" 
d="M37 39q0 57 55 121q193 209 666 647v4h-297q-80 0 -121 -40t-98 -144l-52 24q63 250 158 353h744l16 -33q-547 -502 -684 -652v-12q37 -6 161.5 -49t176.5 -43q88 0 135 58.5t71.5 105.5t26.5 53l60 -20q-49 -201 -90 -286t-84 -118t-119 -33t-286 82t-212 82
q-20 0 -20 -37l8 -61q4 -66 -137 -66q-78 1 -78 64zM631 1300.5q0 61.5 44 107.5t119 46t117.5 -45t42.5 -107.5t-43 -107.5t-117.5 -45t-118.5 45t-44 106.5z" />
    <glyph glyph-name="Zcaron" unicode="&#x17d;" horiz-adv-x="1265" 
d="M817 1323q-141 0 -222 -42t-130 -151l-43 -96h-78l80 383h1094l16 -39q-516 -594 -1102 -1284h406q123 0 203.5 47t156.5 174l66 111h77l-120 -426h-1196l-15 41q580 670 1096 1282h-289zM967 1722q27 0 90 27l309 127l35 -61l-352 -254q-74 -53 -110 -53.5t-89 57.5
l-229 250l49 61l217 -123q53 -31 80 -31z" />
    <glyph glyph-name="zcaron" unicode="&#x17e;" horiz-adv-x="954" 
d="M37 39q0 57 55 121q193 209 666 647v4h-297q-80 0 -121 -40t-98 -144l-52 24q63 250 158 353h744l16 -33q-547 -502 -684 -652v-12q37 -6 161.5 -49t176.5 -43q88 0 135 58.5t71.5 105.5t26.5 53l60 -20q-49 -201 -90 -286t-84 -118t-119 -33t-286 82t-212 82
q-20 0 -20 -37l8 -61q4 -66 -137 -66q-78 1 -78 64zM728.5 1298q23.5 0 76.5 35l297 197l47 -55l-369 -355q-55 -55 -94 -55t-78 57l-233 353l59 55l232 -197q39 -35 62.5 -35z" />
    <glyph glyph-name="longs" unicode="&#x17f;" horiz-adv-x="700" 
d="M-193 -354.5q0 57.5 37 94.5t71.5 37t52.5 -11.5t23 -19.5t19 -33q66 -115 96 -114q27 0 39 55l252 1251h-182l29 99h176l14 53q92 335 291 425q84 38 201.5 38t199.5 -53.5t82 -117t-45 -98t-98 -34.5t-84 61q-41 86 -64.5 116.5t-48.5 30.5q-47 0 -84 -155l-282 -1213
q-68 -285 -171.5 -419t-277.5 -134q-115 0 -180.5 42t-65.5 99.5z" />
    <glyph glyph-name="uni0186" unicode="&#x186;" horiz-adv-x="1376" 
d="M240 434q0 -371 309 -371q147 0 262 84q115 85 179 219q126 268 126 570q0 205 -85 311.5t-224 106.5t-240.5 -94.5t-208.5 -292.5h-77l96 397q174 84 436 84q166 0 290 -45t190.5 -108.5t106.5 -150.5t51 -153.5t11 -136.5q0 -293 -141 -510q-246 -375 -768 -375
q-109 0 -241 24t-214 75l64 366h78z" />
    <glyph glyph-name="uni0189" unicode="&#x189;" horiz-adv-x="1597" 
d="M750 94q134 0 244 65t176 159t109 214q75 202 77 398q0 282 -165 360q-71 33 -172 33t-134 -15t-43 -67l-99 -448h295l-24 -99h-293l-111 -495q-14 -61 22 -83t118 -22zM752 0h-658l19 78l92 8q41 2 58 28t32 87l111 493h-195l25 99h192l94 424q14 55 8 83t-47 29
l-104 10l20 78h564q369 -4 538 -133q188 -143 189 -459q0 -88 -31 -213t-105 -239q-115 -181 -301 -277t-501 -96z" />
    <glyph glyph-name="uni018F" unicode="&#x18f;" horiz-adv-x="1497" 
d="M569 430q0 -367 209 -367q104 0 186.5 85t134.5 203t93 270h-539q-63 0 -71 -62q-13 -74 -13 -129zM231 623q0 41 28 68.5t69 27.5h884q33 158 33 314.5t-55 238.5t-211 82t-275.5 -99.5t-187.5 -242.5h-78l74 309q92 59 232.5 93t232.5 34q274 0 440 -146.5t166 -443.5
q0 -230 -92 -445q-53 -124 -135 -220.5t-220.5 -160t-312.5 -63.5q-303 0 -447.5 153t-144.5 501z" />
    <glyph glyph-name="uni0190" unicode="&#x190;" horiz-adv-x="1218" 
d="M158 348q0 166 138 286t298 140v4q-102 37 -164.5 104.5t-62.5 157.5q0 184 165.5 296t436 112t448.5 -109l-67 -311h-78q0 162 -68.5 244t-216 82t-225.5 -86t-78 -213q0 -240 227 -240h131l-20 -98h-139q-156 0 -271.5 -119t-115.5 -263t75.5 -208t166.5 -64t159 23
t122 76t92 113.5t87 160.5h78l-111 -383q-156 -84 -412 -84q-469 1 -567 231q-28 64 -28 148z" />
    <glyph glyph-name="uni0191" unicode="&#x191;" horiz-adv-x="1198" 
d="M-358 -294q0 66 49 100t105 34t82 -38t31 -83q14 -122 83 -120q152 0 264 497l254 1121q14 55 8 83t-47 29l-104 10l20 78h1083l-81 -375h-78l-11 109q-6 86 -56 129t-177 43h-152q-39 0 -55 -12t-24 -47l-113 -510h231q94 0 137 36q42 36 93 150h78l-103 -471h-78
q4 102 -24 144q-29 42 -123 42h-236l-137 -600q-87 -383 -322 -493q-120 -56 -275 -57q-156 -1 -239 67t-83 134z" />
    <glyph glyph-name="florin" unicode="&#x192;" horiz-adv-x="1146" 
d="M157 -18q44 0 72 -56q59 -109 97 -108q27 0 41 63l174 858h-213l22 99h213l25 108q53 221 170 345t301 124t251 -68t63 -117q-3 -50 -47 -80t-98 -30t-87 71t-56 101t-47 29q-53 0 -84 -143l-75 -340h256l-21 -99h-260l-55 -237q-111 -477 -240 -647q-100 -131 -270 -131
q-121 0 -186 47q-64 47 -63 96t37 82t80 33z" />
    <glyph glyph-name="uni0194" unicode="&#x194;" horiz-adv-x="1269" 
d="M565 141q0 -78 66 -78q33 0 63 33t31 95q0 62 -39 161h-4q-117 -133 -117 -211zM971 256q0 -125 -85 -205t-211 -80t-180 41q-55 41 -55 153t191 306q-117 479 -209 776q-14 51 -32 69t-52 21l-70 6l17 74h608l-16 -78l-105 -12q-47 -4 -35 -59l131 -553h4
q215 305 359 545q39 63 -27 69l-102 10l16 78h510l-14 -78l-60 -6q-54 -6 -82 -25q-85 -57 -567 -726q66 -201 66 -326z" />
    <glyph glyph-name="uni0196" unicode="&#x196;" horiz-adv-x="909" 
d="M707 131q61 0 184 64l33 -70q-219 -156 -355 -156q-179 -1 -243 127t-13 355l174 766q15 55 9 83t-47 29l-105 10l21 78h481l-219 -995q-66 -291 80 -291z" />
    <glyph glyph-name="uni0197" unicode="&#x197;" horiz-adv-x="827" 
d="M100 0l19 78l92 8q41 2 58 28t32 87l111 497h-176l22 99h176l94 420q14 55 8 83t-47 29l-104 10l21 78h638l-20 -78l-90 -8q-41 -1 -58 -27t-32 -87l-94 -420h176l-23 -99h-176l-111 -497q-14 -55 -8 -83t47 -32l103 -8l-19 -78h-639z" />
    <glyph glyph-name="uni019F" unicode="&#x19f;" horiz-adv-x="1558" 
d="M627 793h661q18 125 19 243q0 317 -238 318q-155 0 -267 -160t-175 -401zM569 389q0 -326 256 -326q105 -1 197 93q174 176 248 538h-666q-35 -174 -35 -305zM231 546q0 269 117 494q213 408 690 408q274 0 440 -146t167 -428q0 -282 -121 -514q-203 -391 -664 -391
q-303 0 -466 154t-163 423z" />
    <glyph glyph-name="Ohorn" unicode="&#x1a0;" horiz-adv-x="1558" 
d="M569 389q0 -326 256 -326q143 0 257 163t169.5 382t55.5 428q0 317 -238 318q-119 0 -219 -104t-158 -258q-122 -324 -123 -603zM231 546q0 269 117 494q213 408 690 408q305 0 465 -172q104 74 104.5 116t-21 66.5t-48.5 35.5t-48.5 38t-21.5 76.5t44 86t116 36.5
t110 -47.5t38 -120.5q0 -182 -228 -346q96 -141 96.5 -383t-120.5 -474q-203 -391 -664 -391q-303 0 -466 154t-163 423z" />
    <glyph glyph-name="ohorn" unicode="&#x1a1;" horiz-adv-x="1226" 
d="M455 219q0 -150 123 -149q76 0 142 86t106 206q87 260 87 404q0 168 -116 168q-127 0 -236 -240q-106 -244 -106 -475zM158 356q0 217 121 404q172 268 501 268q242 0 350 -135q84 66 84 125t-48 99t-48 92t37 92t98 40q141 0 141.5 -173.5t-225.5 -338.5q41 -88 41 -198
q0 -195 -127 -395q-164 -260 -501 -261q-213 0 -318.5 103.5t-105.5 277.5z" />
    <glyph glyph-name="uni01A9" unicode="&#x1a9;" horiz-adv-x="1200" 
d="M989 1327h-313v-4l176 -492l-518 -602v-4h399q177 0 271 40t143 141l45 92h78l-142 -498h-1081l-18 43l565 657l-244 678l27 39h1046l-82 -381h-77l-7 113q-4 92 -69 135q-66 43 -199 43z" />
    <glyph glyph-name="Uhorn" unicode="&#x1af;" horiz-adv-x="1722" 
d="M834 63q131 0 210.5 111t133.5 354l153 689q14 55 8 82.5t-47 29.5l-104 10l20 78h486l-45 -196q57 35 90 57t64.5 57t31.5 67t-21.5 56.5t-48 35.5t-48 38t-21.5 76.5t44 86t115.5 36.5t109.5 -47.5t38 -121.5q0 -151 -126 -261t-251 -181l-139 -602
q-74 -326 -231 -437.5t-451.5 -111.5t-425.5 144q-110 125 -53 381l161 723q14 55 8 82.5t-46 29.5l-105 10l21 78h639l-21 -78l-90 -8q-41 -2 -58.5 -27.5t-31.5 -86.5l-164 -740q-90 -414 195 -414z" />
    <glyph glyph-name="uhorn" unicode="&#x1b0;" horiz-adv-x="1411" 
d="M567 139q70 0 173.5 146.5t160.5 280t143 438.5l291 24l-49 -186q156 96 156 182q0 53 -48 93t-48 92t36.5 92t98.5 40q141 0 141 -159.5t-124 -271.5q-93 -84 -238 -171l-132 -503q-29 -96 25 -97q59 0 176 201l60 -37q-162 -328 -408 -328q-84 0 -121 59.5t-10 162.5
l63 233h-8q-248 -455 -530 -455q-215 0 -137 297l137 529q25 88 -31 94l-121 12l17 68l473 53l10 -10l-193 -756q-33 -123 37 -123z" />
    <glyph glyph-name="uni01B2" unicode="&#x1b2;" horiz-adv-x="1441" 
d="M1348 755q0 140 -22 220t-76 175t-54 147q0 51 56 101t157 50q160 0 160 -504q0 -252 -114 -503q-60 -132 -145 -235t-217 -170t-288 -67q-274 0 -408 130q-133 130 -67 421l157 697q15 55 9 83t-47 29l-105 10l21 78h639l-21 -78l-90 -8q-41 -1 -58 -27t-32 -87
l-160 -713q-53 -236 4 -338t193 -102t256 110q121 111 186 276q66 165 66 305z" />
    <glyph glyph-name="uni01B7" unicode="&#x1b7;" horiz-adv-x="1236" 
d="M133 264q0 170 143 170t144 -110q0 -25 -8.5 -59t-8.5 -84t45.5 -84t124.5 -34t150.5 31t128.5 112q57 80 57 208t-54 206t-155 78q-68 0 -125 -28l-36 67l18 45l496 410h-254q-174 0 -242 -46t-156 -222h-77l114 493h916l16 -43l-12 -28q-33 -76 -166 -185l-438 -358
l2 -4q41 16 96 16q178 0 286.5 -112.5t108.5 -312.5t-176 -310.5t-498 -110.5q-209 0 -324.5 81t-115.5 214z" />
    <glyph glyph-name="uni01CD" unicode="&#x1cd;" 
d="M532 602h347l-50 535h-4q-23 -37 -143.5 -258.5t-149.5 -276.5zM-49 0l14 78l55 6q47 4 75 23.5t82.5 109.5t285.5 498l397 702h242l69 -649q8 -76 31 -297t30 -282.5t19.5 -82t44.5 -22.5l84 -6l-16 -78h-614l16 78l106 8q53 2 48 76l-31 342h-410q-37 -68 -96 -185.5
t-80 -156.5q-37 -74 27 -76l114 -8l-14 -78h-479zM1028 1722q27 0 90 27l309 127l35 -61l-352 -254q-74 -53 -109.5 -53.5t-89.5 57.5l-229 250l49 61l217 -123q53 -31 80 -31z" />
    <glyph glyph-name="uni01CE" unicode="&#x1ce;" horiz-adv-x="1220" 
d="M440 229q0 -89 60 -90q84 0 245 258q139 229 211 508q-41 29 -111.5 29t-150.5 -79t-134 -190.5t-87 -229t-33 -206.5zM125 211q0 94 26.5 196.5t85 213t139.5 200.5t201.5 148.5t234.5 58.5t171 -35l8 19h281l-207 -776q-25 -96 22 -97q66 0 179 199l59 -33
q-166 -330 -407 -330q-201 0 -127 258l51 181h-13q-147 -252 -260.5 -345.5t-229 -93.5t-165 71t-49.5 165zM892 1298q24 0 77 35l297 197l47 -55l-369 -355q-55 -55 -94 -55t-78 57l-233 353l59 55l231 -197q39 -35 63 -35z" />
    <glyph glyph-name="uni01CF" unicode="&#x1cf;" horiz-adv-x="790" 
d="M82 0l18 78l93 8q41 2 58 27.5t32 87.5l227 1016q14 55 8 82.5t-47 29.5l-104 10l20 78h639l-20 -78l-91 -8q-41 -2 -58 -27.5t-32 -86.5l-227 -1016q-14 -55 -8 -83t47 -32l102 -8l-18 -78h-639zM764 1722q27 0 90 27l309 127l35 -61l-352 -254q-74 -53 -110 -53.5
t-89 57.5l-229 250l49 61l217 -123q53 -31 80 -31z" />
    <glyph glyph-name="uni01D1" unicode="&#x1d1;" horiz-adv-x="1558" 
d="M569 389q0 -326 256 -326q143 0 257 163t169.5 382t55.5 428q0 317 -238 318q-119 0 -219 -104t-158 -258q-122 -324 -123 -603zM231 546q0 269 117 494q213 408 690 408q274 0 440.5 -146.5t166.5 -428t-121 -513.5q-203 -391 -664 -391q-303 0 -466 154t-163 423z
M1079 1722q27 0 90 27l310 127l34 -61l-352 -254q-74 -53 -109.5 -53.5t-88.5 57.5l-230 250l49 61l217 -123q53 -31 80 -31z" />
    <glyph glyph-name="uni01D2" unicode="&#x1d2;" horiz-adv-x="1150" 
d="M455 219q0 -150 123 -149q76 0 142 86t106 206q87 260 87 404q0 168 -116 168q-127 0 -236 -240q-106 -244 -106 -475zM158 356q0 217 121 404q172 268 501 268q176 0 294 -80q136 -92 136 -302t-127 -410q-164 -260 -501 -261q-213 0 -318.5 103.5t-105.5 277.5z
M835 1298q24 0 76 35l297 197l47 -55l-368 -355q-55 -55 -94.5 -55t-77.5 57l-234 353l60 55l231 -197q39 -35 63 -35z" />
    <glyph glyph-name="uni01D3" unicode="&#x1d3;" horiz-adv-x="1589" 
d="M834 63q131 0 210.5 111t133.5 354l153 689q14 55 8 82.5t-47 29.5l-104 10l20 78h639l-20 -78l-90 -8q-41 -2 -58.5 -27.5t-31.5 -86.5l-160 -699q-74 -326 -231 -437.5t-451.5 -111.5t-425.5 144q-110 125 -53 381l161 723q14 55 8 82.5t-46 29.5l-105 10l21 78h639
l-21 -78l-90 -8q-41 -2 -58.5 -27.5t-31.5 -86.5l-164 -740q-90 -414 195 -414zM1163 1722q27 0 90 27l310 127l34 -61l-352 -254q-74 -53 -109.5 -53.5t-88.5 57.5l-230 250l49 61l217 -123q53 -31 80 -31z" />
    <glyph glyph-name="uni01D4" unicode="&#x1d4;" 
d="M567 139q70 0 173.5 146.5t160.5 280t143 438.5l291 24l-207 -792q-29 -96 25 -97q59 0 176 201l60 -37q-162 -328 -408 -328q-84 0 -121 59.5t-10 162.5l63 233h-8q-248 -455 -530 -455q-215 0 -137 297l137 529q25 88 -31 94l-121 12l17 68l473 53l10 -10l-193 -756
q-33 -123 37 -123zM923 1298q24 0 76 35l297 197l47 -55l-368 -355q-55 -55 -94 -55t-78 57l-234 353l60 55l231 -197q39 -35 63 -35z" />
    <glyph glyph-name="uni01DD" unicode="&#x1dd;" horiz-adv-x="974" 
d="M356 160q0 -90 76 -90q90 0 178 141t111 317q-172 -35 -268.5 -138t-96.5 -230zM94 219.5q0 112.5 94 198.5q141 125 541 203v49q0 94 -38 158.5t-124 64.5t-161.5 -61.5t-163.5 -188.5l-62 49q186 336 520 336q125 0 229.5 -76t104.5 -278q0 -256 -166 -465
q-186 -233 -471 -234q-133 0 -218 66t-85 178.5z" />
    <glyph glyph-name="uni01E2" unicode="&#x1e2;" horiz-adv-x="1822" 
d="M688 793h287l115 518h-21q-348 -471 -381 -518zM1630 1323h-151q-49 0 -65.5 -12.5t-27.5 -59.5l-102 -458h189q94 0 135 35.5t92 150.5h78l-103 -471h-78q4 102 -24.5 144t-122.5 42h-188l-109 -479q-18 -82 25 -101.5t179 -19.5t217 47t157 174l65 111h78l-121 -426
h-1116l18 78l93 8q41 2 58 27.5t32 87.5l114 493h-338q-211 -311 -269 -396t-95 -143.5t18 -64.5l140 -12l-15 -78h-540l14 78l74 10q43 6 74.5 32.5t82.5 87t725 961.5q98 131 68 150q-6 4 -21 6l-139 14l21 78h1282l-82 -379h-78l-10 113q-6 82 -57.5 127t-176.5 45z
M944 1577l37 158h717l-37 -158h-717z" />
    <glyph glyph-name="uni01E3" unicode="&#x1e3;" horiz-adv-x="1615" 
d="M1391 934q-90 0 -178 -141.5t-111 -317.5q172 35 269 139.5t99 231.5q-4 88 -79 88zM440 229q0 -89 60 -90q84 0 245 258q139 229 211 508q-41 29 -111.5 29t-150.5 -79t-134 -190.5t-87 -229t-33 -206.5zM125 211q0 94 26.5 196.5t85 213t139.5 200.5t202.5 148.5
t261.5 58.5q80 0 153 -35l60 49h110l-41 -135l4 -4q133 125 283.5 125t236 -64.5t85.5 -178t-95 -199.5q-143 -127 -542 -203v-49q0 -223 163 -223q88 0 164 61t164 188l62 -49q-186 -336 -517 -336q-129 0 -222 81t-93 274q0 16 4 53l-4 4q-181 -303 -331 -376
q-74 -36 -166 -36t-142.5 71t-50.5 165zM852 1212l31 148h637l-31 -148h-637z" />
    <glyph glyph-name="Gcaron" unicode="&#x1e6;" horiz-adv-x="1486" 
d="M227 583q0 314 189 560q104 139 285.5 222t455.5 83t430 -107l-71 -358h-78q-33 371 -314 371q-141 0 -251.5 -83t-172.5 -214q-126 -265 -127 -563q0 -213 77 -322t245 -109q90 0 121 21.5t45 83.5l67 274q27 106 -32 113l-131 10l16 78h639l-18 -78l-84 -12
q-41 -3 -58 -51q-6 -16 -16 -60l-86 -364q-190 -109 -489.5 -109t-470.5 150t-171 464zM1170 1722q27 0 90 27l309 127l35 -61l-353 -254q-74 -53 -109.5 -53.5t-88.5 57.5l-230 250l49 61l218 -123q53 -31 80 -31z" />
    <glyph glyph-name="gcaron" unicode="&#x1e7;" horiz-adv-x="1069" 
d="M528 596q0 -63 30 -101t89 -38q88 0 146 98q63 111 63 254q-2 68 -38 96.5t-83 28.5q-92 0 -149.5 -108.5t-57.5 -229.5zM574.5 -401q99.5 0 171 48t69.5 138q-3 115 -127 161q-96 36 -211 54q-51 -8 -102 -56t-50 -141t75.5 -148.5t174 -55.5zM180 205q0 88 152 151
q25 10 82 31v4q-76 25 -135.5 88.5t-61.5 145.5t22.5 144t80 122.5t161 98.5t259 38t272.5 -61l295 82l12 -19l-64 -153l-155 -25q35 -53 35 -131q0 -166 -135.5 -261t-354.5 -98q-72 0 -123 5q-66 -23 -65 -66q2 -33 49 -52.5t201 -55.5q369 -86 368 -336
q0 -174 -144.5 -263.5t-381 -89.5t-369.5 78t-135 197t95.5 180t226.5 78v4q-88 27 -137.5 71t-49.5 93zM828.5 1298q23.5 0 76.5 35l297 197l47 -55l-368 -355q-55 -55 -94.5 -55t-77.5 57l-234 353l60 55l231 -197q39 -35 62.5 -35z" />
    <glyph glyph-name="uni01E8" unicode="&#x1e8;" horiz-adv-x="1409" 
d="M82 0l18 78l93 8q41 2 58 27.5t32 87.5l227 1016q14 55 8 82.5t-47 29.5l-104 10l20 78h639l-20 -78l-91 -8q-41 -2 -58 -27.5t-32 -86.5l-106 -476l4 -4l256 248q63 59 155.5 153.5t118 119t33.5 39t-2 23.5t-41 13l-51 6l14 78h551l-14 -78q-102 -10 -146.5 -22
t-111.5 -60q-174 -117 -432 -358l-82 -74l22 -53q53 -133 140.5 -299t164.5 -271t150 -132l25 -9l-13 -73l-86 2q-205 4 -297 57q-171 99 -366 641h-4l-109 -487q-14 -55 -8 -83t47 -32l102 -8l-18 -78h-639zM1135 1722q27 0 90 27l309 127l35 -61l-352 -254
q-74 -53 -110 -53.5t-89 57.5l-230 250l50 61l217 -123q53 -31 80 -31z" />
    <glyph glyph-name="uni01E9" unicode="&#x1e9;" horiz-adv-x="1167" 
d="M1182.5 1028q58.5 0 92.5 -36t34 -93.5t-35 -104t-83 -46.5t-102 39.5t-88 39.5q-55 0 -184 -147q55 -221 141 -440q39 -100 84 -101q47 0 150 174l63 -32q-129 -305 -344 -306q-152 0 -221 187q-59 153 -106 358q58 91 218 259.5t241 208.5t139.5 40zM152 -25l303 1321
q20 82 -33 88l-119 15l23 65l458 56l11 -11l-353 -1509zM990.5 1790q23.5 0 76.5 35l297 196l47 -55l-369 -354q-55 -55 -94 -55.5t-78 57.5l-233 352l59 55l232 -196q39 -35 62.5 -35z" />
    <glyph glyph-name="uni01EE" unicode="&#x1ee;" horiz-adv-x="1236" 
d="M133 264q0 170 143 170t144 -110q0 -25 -8.5 -59t-8.5 -84t45.5 -84t124.5 -34t150.5 31t128.5 112t57 208.5t-54 205.5t-155 78q-68 0 -125 -28l-36 67l18 45l496 410h-254q-174 0 -242 -46t-156 -222h-77l114 493h916l16 -43l-12 -28q-33 -76 -166 -185l-438 -358l2 -4
q41 16 96 16q178 0 286.5 -112.5t108.5 -312.5t-176 -310.5t-498 -110.5q-209 0 -324.5 81t-115.5 214zM989 1722q27 0 90 27l310 127l34 -61l-352 -254q-74 -53 -109.5 -53.5t-89.5 57.5l-229 250l49 61l217 -123q53 -31 80 -31z" />
    <glyph glyph-name="uni01EF" unicode="&#x1ef;" horiz-adv-x="1030" 
d="M-43 -287q0 70 44 96.5t97 26.5t80 -24.5t34 -59.5q8 -36 16 -70q21 -84 138.5 -83.5t197 136.5t79.5 275q0 88 -40 164t-111.5 76t-131.5 -29l-38 74l20 45l465 438h-342q-80 0 -121 -40t-98 -144l-51 24q33 129 85 236t99 150h719l20 -43l-20 -37q-18 -35 -101 -111
l-485 -457l4 -4q29 12 111 13q150 0 228.5 -105.5t78.5 -279.5q0 -104 -38 -189.5t-96 -137.5t-136 -87q-142 -64 -304 -64q-403 0 -403 211zM777.5 1298q23.5 0 76.5 35l297 197l47 -55l-369 -355q-55 -55 -94 -55t-78 57l-233 353l59 55l232 -197q39 -35 62.5 -35z" />
    <glyph glyph-name="uni01F4" unicode="&#x1f4;" horiz-adv-x="1486" 
d="M227 583q0 314 189 560q104 139 285.5 222t455.5 83t430 -107l-71 -358h-78q-33 371 -314 371q-141 0 -251.5 -83t-172.5 -214q-126 -265 -127 -563q0 -213 77 -322t245 -109q90 0 121 21.5t45 83.5l67 274q27 106 -32 113l-131 10l16 78h639l-18 -78l-84 -12
q-41 -3 -58 -51q-6 -16 -16 -60l-86 -364q-190 -109 -489.5 -109t-470.5 150t-171 464zM1438 1851q47 0 79.5 -47t32.5 -87t-31.5 -63.5t-117.5 -49.5l-416 -131l-29 65l353 252q82 61 129 61z" />
    <glyph glyph-name="uni01F5" unicode="&#x1f5;" horiz-adv-x="1069" 
d="M528 596q0 -63 30 -101t89 -38q88 0 146 98q63 111 63 254q-2 68 -38 96.5t-83 28.5q-92 0 -149.5 -108.5t-57.5 -229.5zM574.5 -401q99.5 0 171 48t69.5 138q-3 115 -127 161q-96 36 -211 54q-51 -8 -102 -56t-50 -141t75.5 -148.5t174 -55.5zM180 205q0 88 152 151
q25 10 82 31v4q-76 25 -135.5 88.5t-61.5 145.5t22.5 144t80 122.5t161 98.5t259 38t272.5 -61l295 82l12 -19l-64 -153l-155 -25q35 -53 35 -131q0 -166 -135.5 -261t-354.5 -98q-72 0 -123 5q-66 -23 -65 -66q2 -33 49 -52.5t201 -55.5q369 -86 368 -336
q0 -174 -144.5 -263.5t-381 -89.5t-369.5 78t-135 197t95.5 180t226.5 78v4q-88 27 -137.5 71t-49.5 93zM1095 1516q34 0 69.5 -42t35.5 -80t-36 -69t-103 -68l-375 -210l-43 61l297 305q57 59 89 81t66 22z" />
    <glyph glyph-name="uni01F8" unicode="&#x1f8;" horiz-adv-x="1517" 
d="M61 0l17 78l76 6q72 6 102.5 101t77.5 304l160 728q14 55 8 82.5t-47 29.5l-103 10l21 78h454q184 -449 437 -1042h6l121 553q51 240 56 297t-10.5 81.5t-58.5 26.5l-110 6l16 78h504l-16 -78l-76 -6q-72 -6 -103 -101t-77 -304l-205 -928h-213q-240 573 -486 1149h-8
l-147 -660q-47 -233 -53.5 -293.5t9 -85t58.5 -26.5l111 -6l-17 -78h-504zM686 1717q0 40 33 87t80 47t129 -61l352 -252l-29 -65l-415 131q-86 27 -118 50t-32 63z" />
    <glyph glyph-name="uni01F9" unicode="&#x1f9;" horiz-adv-x="1300" 
d="M1122 1028q82 0 126 -41t46 -107.5t-18 -148.5l-154 -495q-29 -96 23 -97q35 0 84 60.5t92 140.5l59 -37q-160 -328 -411 -328q-96 0 -134 63.5t-6 180.5l156 524q37 121 -41 121q-68 0 -179.5 -148.5t-164.5 -279.5q-82 -209 -147 -436l-289 -25l211 826q25 82 -31 88
l-123 12l17 68l477 59l10 -10l-139 -445h12q106 199 241.5 327t282.5 128zM535 1394q0 38 35.5 80t69.5 42t65.5 -21.5t89.5 -81.5l297 -305l-43 -61l-375 210q-68 37 -103.5 68t-35.5 69z" />
    <glyph glyph-name="AEacute" unicode="&#x1fc;" horiz-adv-x="1822" 
d="M688 793h287l115 518h-21q-348 -471 -381 -518zM1630 1323h-151q-49 0 -65.5 -12.5t-27.5 -59.5l-102 -458h189q94 0 135 35.5t92 150.5h78l-103 -471h-78q4 102 -24.5 144t-122.5 42h-188l-109 -479q-18 -82 25 -101.5t179 -19.5t217 47t157 174l65 111h78l-121 -426
h-1116l18 78l93 8q41 2 58 27.5t32 87.5l114 493h-338q-211 -311 -269 -396t-95 -143.5t18 -64.5l140 -12l-15 -78h-540l14 78l74 10q43 6 74.5 32.5t82.5 87t725 961.5q98 131 68 150q-6 4 -21 6l-139 14l21 78h1282l-82 -379h-78l-10 113q-6 82 -57.5 127t-176.5 45z
M1583 1851q47 0 80 -47t33 -87t-32 -63.5t-118 -49.5l-416 -131l-28 65l352 252q82 61 129 61z" />
    <glyph glyph-name="aeacute" unicode="&#x1fd;" horiz-adv-x="1615" 
d="M1391 934q-90 0 -178 -141.5t-111 -317.5q172 35 269 139.5t99 231.5q-4 88 -79 88zM440 229q0 -89 60 -90q84 0 245 258q139 229 211 508q-41 29 -111.5 29t-150.5 -79t-134 -190.5t-87 -229t-33 -206.5zM125 211q0 94 26.5 196.5t85 213t139.5 200.5t202.5 148.5
t261.5 58.5q80 0 153 -35l60 49h110l-41 -135l4 -4q133 125 283.5 125t236 -64.5t85.5 -178t-95 -199.5q-143 -127 -542 -203v-49q0 -223 163 -223q88 0 164 61t164 188l62 -49q-186 -336 -517 -336q-129 0 -222 81t-93 274q0 16 4 53l-4 4q-181 -303 -331 -376
q-74 -36 -166 -36t-142.5 71t-50.5 165zM1447 1516q34 0 69.5 -42t35.5 -80t-35.5 -69t-103.5 -68l-375 -210l-43 61l297 305q57 59 89 81t66 22z" />
    <glyph glyph-name="Oslashacute" unicode="&#x1fe;" horiz-adv-x="1558" 
d="M602 193q64 -129 214 -129t267 162q117 163 174 383t58 431q0 27 -8 68zM561 385q0 -14 4 -39t4 -31l707 918q-53 121 -205 121q-121 0 -222 -104q-173 -178 -255 -573q-33 -161 -33 -292zM229 534q0 276 119 506q213 408 690 408q195 0 344 -76l101 131l80 -65l-97 -123
q180 -159 180 -441t-120 -514q-207 -391 -666 -391q-217 0 -366 80l-119 -153l-74 71l109 142q-181 149 -181 425zM1606 2005q47 0 80 -47q32 -47 32 -87t-32 -64t-117 -50l-416 -131l-29 66l353 252q82 61 129 61z" />
    <glyph glyph-name="oslashacute" unicode="&#x1ff;" horiz-adv-x="1150" 
d="M934 744q0 42 -2 49l-453 -691q33 -32 107 -32t145 86q118 141 179 436q24 110 24 152zM434 219q0 -23 4 -26l459 702q-35 39 -102 39q-145 0 -254 -240q-107 -244 -107 -475zM158 347q0 224 118 413q168 268 504 268q106 0 185 -27l79 123l70 -49l-70 -106
q166 -90 166 -330q0 -203 -127 -403q-164 -260 -501 -261q-98 0 -172 25l-93 -141l-65 55l78 117q-172 92 -172 316zM1372 1594q0 -38 -36 -68t-103 -68l-375 -211l-43 62l297 305q57 59 89 81q32 21 66 21q33 0 69 -42t36 -80z" />
    <glyph glyph-name="uni0200" unicode="&#x200;" 
d="M532 602h347l-50 535h-4q-23 -37 -143.5 -258.5t-149.5 -276.5zM-49 0l14 78l55 6q47 4 75 23.5t82.5 109.5t285.5 498l397 702h242l69 -649q8 -76 31 -297t30 -282.5t19.5 -82t44.5 -22.5l84 -6l-16 -78h-614l16 78l106 8q53 2 48 76l-31 342h-410q-37 -68 -96 -185.5
t-80 -156.5q-37 -74 27 -76l114 -8l-14 -78h-479zM879 1725q0 32 39.5 82.5t77.5 50.5t104 -74l211 -240l-47 -63l-285 143q-53 27 -76.5 48t-23.5 53zM471 1725q0 32 40 82.5t78 50.5t103 -74l211 -240l-47 -63l-285 143q-53 27 -76.5 48t-23.5 53z" />
    <glyph glyph-name="uni0201" unicode="&#x201;" horiz-adv-x="1220" 
d="M440 229q0 -89 60 -90q84 0 245 258q139 229 211 508q-41 29 -111.5 29t-150.5 -79t-134 -190.5t-87 -229t-33 -206.5zM125 211q0 94 26.5 196.5t85 213t139.5 200.5t201.5 148.5t234.5 58.5t171 -35l8 19h281l-207 -776q-25 -96 22 -97q66 0 179 199l59 -33
q-166 -330 -407 -330q-201 0 -127 258l51 181h-13q-147 -252 -260.5 -345.5t-229 -93.5t-165 71t-49.5 165zM770 1448q0 41 43 64.5t82 23.5q53 0 88 -96l111 -287l-58 -35l-196 213q-70 76 -70 117zM430 1458q0 31 43 54.5t80 23.5q53 0 88 -96l111 -287l-58 -35l-196 213
q-68 74 -68 127z" />
    <glyph glyph-name="uni0202" unicode="&#x202;" 
d="M532 602h347l-50 535h-4q-23 -37 -143.5 -258.5t-149.5 -276.5zM-49 0l14 78l55 6q47 4 75 23.5t82.5 109.5t285.5 498l397 702h242l69 -649q8 -76 31 -297t30 -282.5t19.5 -82t44.5 -22.5l84 -6l-16 -78h-614l16 78l106 8q53 2 48 76l-31 342h-410q-37 -68 -96 -185.5
t-80 -156.5q-37 -74 27 -76l114 -8l-14 -78h-479zM1075.5 1827q337.5 0 267.5 -299h-83q8 49 -42.5 95t-179.5 46t-199.5 -45t-86.5 -96h-84q70 299 407.5 299z" />
    <glyph glyph-name="uni0203" unicode="&#x203;" horiz-adv-x="1220" 
d="M907 1292q-236 0 -295 -153h-69q29 150 115.5 236.5t281.5 86.5q229 0 259 -146q16 -77 -17 -177h-70q16 39 -22 97q-16 24 -63.5 40t-119.5 16zM440 229q0 -89 60 -90q84 0 245 258q139 229 211 508q-41 29 -111.5 29t-150.5 -79t-134 -190.5t-87 -229t-33 -206.5z
M125 211q0 94 26.5 196.5t85 213t139.5 200.5t201.5 148.5t234.5 58.5t171 -35l8 19h281l-207 -776q-25 -96 22 -97q66 0 179 199l59 -33q-166 -330 -407 -330q-201 0 -127 258l51 181h-13q-147 -252 -260.5 -345.5t-229 -93.5t-165 71t-49.5 165z" />
    <glyph glyph-name="uni0204" unicode="&#x204;" horiz-adv-x="1273" 
d="M1075 1323h-141q-53 0 -71.5 -11.5t-28.5 -56.5l-103 -462h193q94 0 135 34.5t92 149.5h78l-103 -467h-77q4 100 -25 142t-123 42h-192l-109 -483q-18 -80 25 -98.5t183 -18.5t221 46t157 175l65 111h78l-121 -426h-1126l18 78l93 8q41 2 58 27.5t32 87.5l227 1016
q14 55 8 82.5t-47 29.5l-104 10l22 78h1090l-82 -379h-78l-10 113q-6 82 -57.5 127t-176.5 45zM870 1725q0 32 40 82.5t78 50.5t104 -74l211 -240l-48 -63l-284 143q-53 27 -77 48t-24 53zM463 1725q0 32 40 82.5t78 50.5t103 -74l211 -240l-47 -63l-285 143
q-53 27 -76.5 48t-23.5 53z" />
    <glyph glyph-name="uni0205" unicode="&#x205;" horiz-adv-x="974" 
d="M827 844q0 90 -75 90q-90 0 -178 -141.5t-111 -317.5q172 35 268 138.5t96 230.5zM150 330q0 256 165 465q186 233 471 233q133 0 218.5 -65.5t85.5 -178t-95 -198.5q-141 -125 -540 -203v-49q0 -94 37.5 -158.5t123.5 -64.5t162 61t164 188l62 -49q-186 -336 -521 -336
q-126 0 -221 71q-112 83 -112 284zM719 1448q0 41 43 64.5t82 23.5q53 0 88 -96l110 -287l-57 -35l-197 213q-69 76 -69 117zM379 1458q0 31 43 54.5t80 23.5q53 0 88 -96l110 -287l-57 -35l-197 213q-67 74 -67 127z" />
    <glyph glyph-name="uni0206" unicode="&#x206;" horiz-adv-x="1273" 
d="M1075 1323h-141q-53 0 -71.5 -11.5t-28.5 -56.5l-103 -462h193q94 0 135 34.5t92 149.5h78l-103 -467h-77q4 100 -25 142t-123 42h-192l-109 -483q-18 -80 25 -98.5t183 -18.5t221 46t157 175l65 111h78l-121 -426h-1126l18 78l93 8q41 2 58 27.5t32 87.5l227 1016
q14 55 8 82.5t-47 29.5l-104 10l22 78h1090l-82 -379h-78l-10 113q-6 82 -57.5 127t-176.5 45zM1067 1827q338 0 268 -299h-84q8 49 -42 95t-179 46t-199.5 -45t-87.5 -96h-84q70 299 408 299z" />
    <glyph glyph-name="uni0207" unicode="&#x207;" horiz-adv-x="974" 
d="M827 844q0 90 -75 90q-90 0 -178 -141.5t-111 -317.5q172 35 268 138.5t96 230.5zM150 330q0 256 165 465q186 233 471 233q133 0 218.5 -65.5t85.5 -178t-95 -198.5q-141 -125 -540 -203v-49q0 -94 37.5 -158.5t123.5 -64.5t162 61t164 188l62 -49q-186 -336 -521 -336
q-126 0 -221 71q-112 83 -112 284zM856 1292q-236 0 -295 -153h-69q29 150 115.5 236.5t281.5 86.5q229 0 259 -146q15 -75 -18 -177h-69q17 39 -21 97q-16 24 -64 40t-120 16z" />
    <glyph glyph-name="uni0208" unicode="&#x208;" horiz-adv-x="790" 
d="M82 0l18 78l93 8q41 2 58 27.5t32 87.5l227 1016q14 55 8 82.5t-47 29.5l-104 10l20 78h639l-20 -78l-91 -8q-41 -2 -58 -27.5t-32 -86.5l-227 -1016q-14 -55 -8 -83t47 -32l102 -8l-18 -78h-639zM614 1725q0 32 40 82.5t78 50.5t104 -74l211 -240l-48 -63l-284 143
q-53 27 -77 48t-24 53zM207 1725q0 32 40 82.5t78 50.5t103 -74l211 -240l-47 -63l-285 143q-53 27 -76.5 48t-23.5 53z" />
    <glyph glyph-name="uni0209" unicode="&#x209;" horiz-adv-x="694" 
d="M365 -25q-210 0 -144 244l158 584q20 80 -35 86l-119 12l17 68l471 59l12 -12l-211 -780q-27 -96 23 -97q33 0 82 60.5t94 140.5l61 -35q-164 -330 -409 -330zM494 1448q0 41 43 64.5t81 23.5q53 0 89 -96l110 -287l-57 -35l-197 213q-69 76 -69 117zM154 1458
q0 31 43 54.5t79 23.5q53 0 89 -96l110 -287l-57 -35l-197 213q-67 74 -67 127z" />
    <glyph glyph-name="uni020A" unicode="&#x20a;" horiz-adv-x="790" 
d="M82 0l18 78l93 8q41 2 58 27.5t32 87.5l227 1016q14 55 8 82.5t-47 29.5l-104 10l20 78h639l-20 -78l-91 -8q-41 -2 -58 -27.5t-32 -86.5l-227 -1016q-14 -55 -8 -83t47 -32l102 -8l-18 -78h-639zM811 1827q338 0 268 -299h-84q8 49 -42 95t-179 46t-199.5 -45t-87.5 -96
h-84q70 299 408 299z" />
    <glyph glyph-name="uni020B" unicode="&#x20b;" horiz-adv-x="694" 
d="M365 -25q-210 0 -144 244l158 584q20 80 -35 86l-119 12l17 68l471 59l12 -12l-211 -780q-27 -96 23 -97q33 0 82 60.5t94 140.5l61 -35q-164 -330 -409 -330zM631 1292q-236 0 -295 -153h-70q29 150 116 236.5t282 86.5q226 0 258 -146q16 -74 -17 -177h-69
q15 38 -22 97q-15 24 -63.5 40t-119.5 16z" />
    <glyph glyph-name="uni020C" unicode="&#x20c;" horiz-adv-x="1558" 
d="M928 1725q0 32 40 82q40 51 78 51t103 -74l211 -240l-47 -63l-285 143q-53 27 -77 48q-23 21 -23 53zM520 1725q0 32 40 82q40 51 78 51t103 -74l211 -240l-47 -63l-284 143q-53 27 -77 48t-24 53zM569 389q0 -326 256 -326q143 0 257 163t169 382t56 428q0 317 -238 318
q-119 0 -219 -104q-169 -174 -249 -571q-32 -159 -32 -290zM231 546q0 269 117 494q213 408 690 408q274 0 440 -146t167 -428q0 -282 -121 -514q-203 -391 -664 -391q-303 0 -466 154t-163 423z" />
    <glyph glyph-name="uni020D" unicode="&#x20d;" horiz-adv-x="1150" 
d="M713 1448q0 40 43 64t82 24q53 0 88 -96l110 -287l-57 -35l-197 213q-69 76 -69 117zM373 1458q0 30 43 54t80 24q53 0 88 -96l110 -287l-57 -35l-197 213q-67 74 -67 127zM455 219q0 -150 123 -149q76 0 142 86t106 206q89 268 87 404q0 168 -116 168q-127 0 -236 -240
q-106 -244 -106 -475zM158 356q0 217 121 404q172 268 501 268q298 0 394 -204q37 -81 36 -193q0 -195 -127 -395q-164 -260 -501 -261q-212 -1 -318 103t-106 278z" />
    <glyph glyph-name="uni020E" unicode="&#x20e;" horiz-adv-x="1558" 
d="M569 389q0 -326 256 -326q143 0 257 163t169.5 382t55.5 428q0 317 -238 318q-119 0 -219 -104t-158 -258q-122 -324 -123 -603zM231 546q0 269 117 494q213 408 690 408q274 0 440.5 -146.5t166.5 -428t-121 -513.5q-203 -391 -664 -391q-303 0 -466 154t-163 423z
M1126.5 1827q337.5 0 268.5 -299h-84q8 49 -42 95t-179 46t-200 -45t-87 -96h-84q70 299 407.5 299z" />
    <glyph glyph-name="uni020F" unicode="&#x20f;" horiz-adv-x="1150" 
d="M455 219q0 -150 123 -149q76 0 142 86t106 206q87 260 87 404q0 168 -116 168q-127 0 -236 -240q-106 -244 -106 -475zM158 356q0 217 121 404q172 268 501 268q176 0 294 -80q136 -92 136 -302t-127 -410q-164 -260 -501 -261q-213 0 -318.5 103.5t-105.5 277.5z
M850 1292q-236 0 -295 -153h-70q29 150 116 236.5t282 86.5q229 0 259 -146q15 -75 -18 -177h-69q17 39 -21 97q-16 24 -64 40t-120 16z" />
    <glyph glyph-name="uni0210" unicode="&#x210;" horiz-adv-x="1394" 
d="M848 743q129 0 226 100.5t97 268.5q0 211 -213 211q-70 0 -92 -15.5t-32 -58.5l-115 -506h129zM965 1417q266 0 389 -71q143 -86 143 -255.5t-120 -272.5t-314 -116v-4q118 -27 163.5 -92.5t45.5 -155.5v-94q-8 -141 39 -221q29 -47 125 -57l-19 -78h-196
q-215 0 -248 170q-14 78 -8 211t-3 176t-40 67.5t-105 24.5h-119l-100 -448q-14 -55 -8 -83t47 -32l102 -8l-18 -78h-639l18 78l93 8q41 2 58 27.5t32 87.5l227 1016q14 55 8 82.5t-47 29.5l-104 10l20 78h578zM862 1725q0 32 40 82.5t78 50.5t103 -74l211 -240l-47 -63
l-284 143q-53 27 -77 48t-24 53zM455 1725q0 32 40 82.5t77.5 50.5t103.5 -74l211 -240l-47 -63l-285 143q-53 27 -76.5 48t-23.5 53z" />
    <glyph glyph-name="uni0211" unicode="&#x211;" horiz-adv-x="901" 
d="M963 1028q127 0 127 -121q0 -63 -40 -119.5t-91.5 -56.5t-102.5 36t-82 36q-94 0 -199 -367q-20 -72 -58 -223.5t-54 -212.5l-287 -25l191 826q18 82 -31 88l-121 12l14 68l437 59l10 -10l-76 -297h10q172 307 353 307zM752 1448q0 41 43 64.5t82 23.5q53 0 88 -96
l110 -287l-57 -35l-197 213q-69 76 -69 117zM412 1458q0 31 43 54.5t80 23.5q53 0 88 -96l110 -287l-57 -35l-197 213q-67 74 -67 127z" />
    <glyph glyph-name="uni0212" unicode="&#x212;" horiz-adv-x="1394" 
d="M848 743q129 0 226 100.5t97 268.5q0 211 -213 211q-70 0 -92 -15.5t-32 -58.5l-115 -506h129zM965 1417q266 0 389 -71q143 -86 143 -255.5t-120 -272.5t-314 -116v-4q118 -27 164 -93q45 -66 45 -155v-94q-8 -141 39 -221q29 -47 125 -57l-19 -78h-196q-215 0 -248 170
q-14 78 -8 211t-3 176t-40 67.5t-105 24.5h-119l-100 -448q-14 -55 -8 -83t47 -32l102 -8l-18 -78h-639l18 78l93 8q41 2 58 27.5t32 87.5l227 1016q14 55 8 82.5t-47 29.5l-104 10l20 78h578zM1059 1827q338 0 268 -299h-84q8 49 -42 95t-179 46t-199.5 -45t-87.5 -96h-84
q70 299 408 299z" />
    <glyph glyph-name="uni0213" unicode="&#x213;" horiz-adv-x="901" 
d="M889 1292q-236 0 -295 -153h-70q29 150 116 236.5t282 86.5q226 0 258 -146q16 -74 -17 -177h-69q15 38 -22 97q-15 24 -63 40t-120 16zM963 1028q127 0 127 -121q0 -63 -40 -119.5t-91.5 -56.5t-102.5 36t-82 36q-94 0 -199 -367q-20 -72 -58 -223.5t-54 -212.5
l-287 -25l191 826q18 82 -31 88l-121 12l14 68l437 59l10 -10l-76 -297h10q172 307 353 307z" />
    <glyph glyph-name="uni0214" unicode="&#x214;" horiz-adv-x="1589" 
d="M834 63q131 0 210.5 111t133.5 354l153 689q14 55 8 82.5t-47 29.5l-104 10l20 78h639l-20 -78l-90 -8q-41 -2 -58.5 -27.5t-31.5 -86.5l-160 -699q-74 -326 -231 -437.5t-451.5 -111.5t-425.5 144q-110 125 -53 381l161 723q14 55 8 82.5t-46 29.5l-105 10l21 78h639
l-21 -78l-90 -8q-41 -2 -58.5 -27.5t-31.5 -86.5l-164 -740q-90 -414 195 -414zM1014 1725q0 32 40 82.5t78 50.5t103 -74l211 -240l-47 -63l-285 143q-53 27 -76.5 48t-23.5 53zM606 1725q0 32 40 82.5t78 50.5t103 -74l211 -240l-47 -63l-284 143q-53 27 -77 48t-24 53z
" />
    <glyph glyph-name="uni0215" unicode="&#x215;" 
d="M567 139q70 0 173.5 146.5t160.5 280t143 438.5l291 24l-207 -792q-29 -96 25 -97q59 0 176 201l60 -37q-162 -328 -408 -328q-84 0 -121 59.5t-10 162.5l63 233h-8q-248 -455 -530 -455q-215 0 -137 297l137 529q25 88 -31 94l-121 12l17 68l473 53l10 -10l-193 -756
q-33 -123 37 -123zM801 1448q0 41 43 64.5t82 23.5q53 0 88 -96l110 -287l-57 -35l-197 213q-69 76 -69 117zM461 1458q0 31 43 54.5t80 23.5q53 0 88 -96l110 -287l-57 -35l-197 213q-67 74 -67 127z" />
    <glyph glyph-name="uni0216" unicode="&#x216;" horiz-adv-x="1589" 
d="M834 63q131 0 210.5 111t133.5 354l153 689q14 55 8 82.5t-47 29.5l-104 10l20 78h639l-20 -78l-90 -8q-41 -2 -58.5 -27.5t-31.5 -86.5l-160 -699q-74 -326 -231 -437.5t-451.5 -111.5t-425.5 144q-110 125 -53 381l161 723q14 55 8 82.5t-46 29.5l-105 10l21 78h639
l-21 -78l-90 -8q-41 -2 -58.5 -27.5t-31.5 -86.5l-164 -740q-90 -414 195 -414zM1210.5 1827q337.5 0 268.5 -299h-84q8 49 -42 95t-179.5 46t-200 -45t-86.5 -96h-84q70 299 407.5 299z" />
    <glyph glyph-name="uni0217" unicode="&#x217;" 
d="M567 139q70 0 173.5 146.5t160.5 280t143 438.5l291 24l-207 -792q-29 -96 25 -97q59 0 176 201l60 -37q-162 -328 -408 -328q-84 0 -121 59.5t-10 162.5l63 233h-8q-248 -455 -530 -455q-215 0 -137 297l137 529q25 88 -31 94l-121 12l17 68l473 53l10 -10l-193 -756
q-33 -123 37 -123zM938 1292q-236 0 -295 -153h-70q29 150 116 236.5t282 86.5q229 0 259 -146q15 -75 -18 -177h-69q17 39 -21 97q-16 24 -64 40t-120 16z" />
    <glyph glyph-name="Scommaaccent" unicode="&#x218;" horiz-adv-x="1128" 
d="M496 -375q0 33 -21 78q-20 45 -20 91t38 83t100 37t97 -43t35 -102q0 -105 -79 -193t-220 -184l-41 47q111 106 111 186zM606 63q123 0 187 70q63 70 63 176q0 182 -211 303q-158 92 -241 184q-82 92 -82 233q0 140 106 269q55 68 163 109t253 41q256 0 395 -111
l-70 -329h-77q-4 172 -74 259t-179 87t-169 -67t-62 -151q0 -84 62 -148t196 -140q286 -161 287 -418q0 -203 -136 -331t-403 -130q-137 0 -271 43t-208 131l47 363h76q20 -207 122 -325t226 -118z" />
    <glyph glyph-name="scommaaccent" unicode="&#x219;" horiz-adv-x="854" 
d="M342 -375q0 33 -20 78t-20 91t37 83q38 37 100 37q61 0 97 -43t35 -102q0 -106 -78 -194q-79 -87 -221 -183l-41 47q111 106 111 186zM92 182q0 54 44 98t97 44t84 -62q53 -108 99 -150t96 -42q49 0 79 30t30 76q-7 100 -181 240t-180 279q-6 137 94 235t268 98t252 -58
q82 -58 82 -118t-43 -91q-43 -32 -94 -32t-78 53q-43 82 -76 117q-34 35 -75 35t-70 -30q-28 -30 -26 -81t43 -101t131 -118q186 -141 186 -307q0 -139 -97 -230t-285 -91t-284 64t-96 142z" />
    <glyph glyph-name="uni021A" unicode="&#x21a;" horiz-adv-x="1261" 
d="M504 -375q0 33 -21 78q-20 45 -20 91t38 83t100 37t97 -43t35 -102q0 -105 -79 -193t-220 -184l-41 47q111 106 111 186zM1188 1323h-98l-254 -1122q-14 -55 -8 -83t46 -30l132 -10l-19 -78h-696l18 78l121 8q41 2 58 28t32 87l254 1122h-106q-180 0 -269 -172l-63 -125
h-78l88 391h1204l-88 -391h-78l-6 125q-10 172 -190 172z" />
    <glyph glyph-name="uni021B" unicode="&#x21b;" horiz-adv-x="735" 
d="M320 -86q62 0 98 -43q35 -43 35 -102q0 -105 -79 -193t-220 -184l-41 47q111 106 110 186q0 33 -20 78q-21 45 -21 91t38 83t100 37zM543 139q82 0 202 201l58 -39q-172 -326 -432 -326q-93 1 -137 63t-11 189l172 678h-170l25 99h166l41 151l309 158l27 -17l-91 -292
h246l-24 -99h-242l-168 -678q-20 -88 29 -88z" />
    <glyph glyph-name="uni021E" unicode="&#x21e;" horiz-adv-x="1638" 
d="M82 0l18 78l93 8q41 2 58 27.5t32 87.5l227 1016q14 55 8 82.5t-47 29.5l-104 10l20 78h639l-20 -78l-91 -8q-41 -2 -58 -27.5t-32 -86.5l-94 -424h533l94 424q14 55 8 82.5t-47 29.5l-105 10l21 78h639l-21 -78l-90 -8q-41 -2 -58 -27.5t-32 -86.5l-227 -1016
q-14 -55 -8 -83t47 -32l102 -8l-18 -78h-639l18 78l92 8q41 2 58.5 27.5t31.5 87.5l111 493h-532l-111 -493q-14 -55 -8 -83t47 -32l102 -8l-18 -78h-639zM1188 1722q27 0 90 27l309 127l35 -61l-352 -254q-74 -53 -110 -53.5t-89 57.5l-229 250l49 61l217 -123
q53 -31 80 -31z" />
    <glyph glyph-name="uni021F" unicode="&#x21f;" horiz-adv-x="1288" 
d="M1098 1028q119 0 160.5 -88t-5.5 -229l-147 -475q-27 -96 22 -97q33 0 83.5 61.5t93.5 141.5l59 -31q-154 -336 -401 -336q-100 0 -141.5 65.5t-4.5 190.5l152 514q16 57 5 88t-46 31q-74 0 -180.5 -134t-162.5 -277.5t-139 -452.5l-284 -25l293 1321q20 82 -33 88
l-119 15l16 65l469 56l11 -11l-219 -905h10q94 180 226 302t282 122zM1023.5 1790q23.5 0 76.5 35l297 196l47 -55l-369 -354q-55 -55 -94 -55.5t-78 57.5l-233 352l59 55l232 -196q39 -35 62.5 -35z" />
    <glyph glyph-name="uni0226" unicode="&#x226;" 
d="M532 602h347l-50 535h-4q-23 -37 -143.5 -258.5t-149.5 -276.5zM-49 0l14 78l55 6q47 4 75 24q29 20 83 109.5t285 497.5l397 702h242l69 -649q8 -76 31 -297t30 -283t19.5 -82t44.5 -22l84 -6l-16 -78h-614l16 78l106 8q53 2 48 76l-31 342h-410q-37 -68 -96 -185.5
t-80 -156.5q-37 -74 27 -76l114 -8l-14 -78h-479zM872 1650.5q0 61.5 44 107.5q46 46 120 46t117 -45t43 -107t-43 -107.5t-118 -45.5t-119 45t-44 106.5z" />
    <glyph glyph-name="uni0227" unicode="&#x227;" horiz-adv-x="1220" 
d="M440 229q0 -89 60 -90q84 0 245 258q139 229 211 508q-41 29 -111.5 29t-150.5 -79t-134 -190.5t-87 -229t-33 -206.5zM125 211q0 94 26.5 196.5t85 213t139.5 200.5t201.5 148.5t234.5 58.5t171 -35l8 19h281l-207 -776q-25 -96 22 -97q66 0 179 199l59 -33
q-166 -330 -407 -330q-201 0 -127 258l51 181h-13q-147 -252 -260.5 -345.5t-229 -93.5t-165 71t-49.5 165zM739 1300.5q0 61.5 44 107.5t119 46t118 -45t43 -107.5t-43 -107.5t-118 -45t-119 45t-44 106.5z" />
    <glyph glyph-name="uni022E" unicode="&#x22e;" horiz-adv-x="1558" 
d="M569 389q0 -326 256 -326q143 0 257 163t169.5 382t55.5 428q0 317 -238 318q-119 0 -219 -104t-158 -258q-122 -324 -123 -603zM231 546q0 269 117 494q213 408 690 408q274 0 440.5 -146.5t166.5 -428t-121 -513.5q-203 -391 -664 -391q-303 0 -466 154t-163 423z
M924 1650.5q0 61.5 44 107.5t118.5 46t117.5 -45t43 -107t-43 -107.5t-118 -45.5t-118.5 45t-43.5 106.5z" />
    <glyph glyph-name="uni022F" unicode="&#x22f;" horiz-adv-x="1150" 
d="M455 219q0 -150 123 -149q76 0 142 86t106 206q87 260 87 404q0 168 -116 168q-127 0 -236 -240q-106 -244 -106 -475zM158 356q0 217 121 404q172 268 501 268q176 0 294 -80q136 -92 136 -302t-127 -410q-164 -260 -501 -261q-213 0 -318.5 103.5t-105.5 277.5z
M682 1300.5q0 61.5 44 107.5t119 46t118 -45t43 -107.5t-43 -107.5t-118 -45t-119 45t-44 106.5z" />
    <glyph glyph-name="uni0232" unicode="&#x232;" horiz-adv-x="1273" 
d="M260 1343l16 74h617l-16 -78l-113 -12q-47 -4 -35 -59l143 -557h5q240 342 364 549q39 63 -27 69l-108 10l16 78h516l-14 -78l-59 -6q-65 -7 -105 -45q-16 -14 -51 -53q-176 -197 -432 -573q-55 -78 -70 -148l-71 -313q-14 -55 -8 -83t46 -30l132 -10l-19 -78h-694l18 78
l121 8q41 2 58.5 27.5t31.5 87.5l66 303q14 63 -4 133q-72 295 -170 610q-14 51 -31.5 68.5t-52.5 21.5zM627 1577l37 158h716l-37 -158h-716z" />
    <glyph glyph-name="uni0233" unicode="&#x233;" horiz-adv-x="1001" 
d="M297 -346q55 0 90 117q23 76 23 209t-31 374.5t-51.5 351t-36 137t-47.5 25.5h-127v62l444 98l17 -8q23 -84 46 -364.5t25 -508.5h6q195 350 232 547q23 121 18 283q115 51 213 51q12 0 27.5 -38t15.5 -70q0 -66 -69 -190t-155.5 -268.5t-187 -322.5t-146.5 -252.5
t-86 -134t-101.5 -128t-120.5 -94.5t-140 -26t-132.5 38t-53.5 93t42 107.5t87.5 53.5t61.5 -13t47 -53q51 -76 90 -76zM506 1212l31 148h637l-31 -148h-637z" />
    <glyph glyph-name="uni0237" unicode="&#x237;" horiz-adv-x="681" 
d="M-174 -364q0 51 40 91t70.5 40t47 -13.5t45.5 -54.5q66 -100 90.5 -100t40.5 69l250 1133q18 82 -31 88l-131 12l14 68l475 59l15 -10l-236 -1028q-70 -299 -186 -402q-100 -84 -235.5 -84t-202 40.5t-66.5 91.5z" />
    <glyph glyph-name="uni0241" unicode="&#x241;" horiz-adv-x="1153" 
d="M352 1219q0 85 142 157t352 72q209 0 328 -70t118 -196q0 -165 -136 -331q-58 -71 -120 -139q-152 -167 -186 -315l-45 -196q-14 -55 -8 -83t47 -30l131 -10l-19 -78h-696l19 78l120 8q41 2 59 28q17 26 31 87l31 137q46 203 198 393q60 76 118 152q132 174 131 342
q0 73 -32 101t-89 28q-109 0 -244 -226q-20 -35 -40 -47t-65 -12q-44 0 -95 43q-50 44 -50 107z" />
    <glyph glyph-name="uni0244" unicode="&#x244;" horiz-adv-x="1642" 
d="M860 63q131 0 211 111t133 354l39 170h-528l-49 -221q-90 -414 194 -414zM846 -31q-309 0 -440 144q-111 125 -54 381l45 204h-176l23 99h176l94 420q14 55 8 83t-47 29l-104 10l20 78h639l-20 -78l-90 -8q-41 -2 -59 -27q-17 -26 -32 -87l-92 -420h527l94 420
q14 55 8 83t-47 29l-105 10l21 78h639l-21 -78l-90 -8q-41 -1 -58 -27t-32 -87l-96 -420h176l-22 -99h-177l-41 -180q-68 -299 -213 -424t-454 -125z" />
    <glyph glyph-name="uni0245" unicode="&#x245;" horiz-adv-x="1290" 
d="M-49 0l14 78l55 6q47 4 75 24t59 70l700 1239h240q84 -657 131 -1241q6 -88 63 -92l84 -6l-16 -78h-617l17 78l106 8q31 2 42 19t7 57l-88 971h-4q-207 -360 -516 -971q-35 -70 27 -76l116 -8l-14 -78h-481z" />
    <glyph glyph-name="uni0254" unicode="&#x254;" horiz-adv-x="933" 
d="M63 221q0 55 56.5 89t136.5 34q57 0 74 -107t38 -137t48 -30q92 0 181 196.5t89 411.5t-145 215q-61 0 -116.5 -36t-89.5 -77t-85 -114l-62 43q180 319 482 319q147 0 238 -83t91 -259q1 -252 -159 -474q-76 -106 -200 -171.5t-270 -65.5t-226.5 71t-80.5 175z" />
    <glyph glyph-name="uni0256" unicode="&#x256;" horiz-adv-x="1247" 
d="M446 250.5q0 -111.5 78 -111.5q102 0 243.5 239.5t203.5 522.5q-39 33 -109 33q-113 0 -213 -131t-151.5 -286t-51.5 -266.5zM131 226.5q0 97.5 24.5 194.5t81 204.5t134.5 196.5t196.5 147.5t240 58.5t181.5 -35l4 2l72 305q19 79 -31 86l-104 15l14 63l447 56l14 -13
l-348 -1487q-10 -41 -66.5 -185t-57.5 -185t30 -41q37 0 98 89t100 89q55 0 93 -46t38 -102t-70.5 -95.5t-215 -39.5t-224.5 117t-28 311l127 500l-9 2q-157 -273 -271 -366t-242 -93t-178 77t-50 174.5z" />
    <glyph glyph-name="uni0259" unicode="&#x259;" horiz-adv-x="974" 
d="M356 160q0 -90 76 -90q90 0 178 141t111 317q-172 -35 -268.5 -138t-96.5 -230zM94 219.5q0 112.5 94 198.5q141 125 541 203v49q0 94 -38 158.5t-124 64.5t-161.5 -61.5t-163.5 -188.5l-62 49q186 336 520 336q125 0 229.5 -76t104.5 -278q0 -256 -166 -465
q-186 -233 -471 -234q-133 0 -218 66t-85 178.5z" />
    <glyph glyph-name="uni025B" unicode="&#x25b;" horiz-adv-x="929" 
d="M133 242q0 115 86 193.5t236 107.5v6q-98 18 -140.5 63t-42.5 121q0 145 133.5 220t312.5 75t269 -50t90 -138q0 -61 -63.5 -97t-117.5 -36t-73 71q-23 92 -46 124t-90 32t-118 -50t-51 -132q0 -176 164 -177h80l-21 -94h-73q-119 0 -182.5 -60.5t-63.5 -146.5t40 -125.5
t109 -39.5q162 0 332 217l60 -45q-203 -305 -476 -306q-354 1 -354 267z" />
    <glyph glyph-name="uni025C" unicode="&#x25c;" horiz-adv-x="929" 
d="M485 481h-73l26 94h80q164 0 250 177q39 84 12.5 133t-93 49t-105.5 -32t-99.5 -114t-114.5 -81.5t-100.5 36t-17.5 97.5q43 88 156.5 138t294 50t277.5 -74.5t25.5 -223.5t-272.5 -181l-2 -6q135 -29 182 -108t-8 -193q-131 -266 -483 -267q-273 1 -328 306l82 45
q63 -217 221 -217t230 153q49 94 14 156.5t-154 62.5z" />
    <glyph glyph-name="uni0261" unicode="&#x261;" horiz-adv-x="1196" 
d="M446 250q0 -111 70 -111q86 0 221 191q174 246 252 575q-45 29 -106 29q-98 0 -184.5 -79t-139.5 -191q-113 -240 -113 -414zM35 -286q0 122 128 122q52 0 86 -24.5t48 -59.5q15 -34 29 -70q35 -85 138 -85t197.5 175t151.5 427l43 190h-6q-238 -399 -488 -399
q-92 0 -161.5 49t-69.5 159.5t25.5 214t83 214t139.5 199.5t207 145.5t270 56.5t256 -47l82 70h115l-232 -975q-68 -283 -227.5 -428.5t-388.5 -145.5q-103 0 -212 24q-214 46 -214 188z" />
    <glyph glyph-name="uni0263" unicode="&#x263;" horiz-adv-x="983" 
d="M379 -399q108 -1 108 123q0 58 -24 221h-4q-86 -92 -120 -143.5t-34 -106.5q0 -94 74 -94zM117 868v62l428 98l16 -8q25 -92 60.5 -333t48.5 -427h6q166 236 205 440q18 102 14 277q115 51 205 51q12 0 27.5 -38t15.5 -72q0 -96 -232 -463q-125 -197 -217 -320
q39 -256 39 -366.5t-97 -186.5t-239 -76q-211 0 -211 199q0 111 252 354q-31 227 -81 491.5t-65.5 292t-47.5 25.5h-127z" />
    <glyph glyph-name="uni0265" unicode="&#x265;" horiz-adv-x="1228" 
d="M567 139q70 0 173.5 146.5t160.5 280t143 438.5l291 24l-350 -1481l-297 -43l225 926h-8q-248 -455 -530 -455q-215 0 -137 297l137 529q25 88 -31 94l-121 12l17 68l473 53l10 -10l-193 -756q-33 -123 37 -123z" />
    <glyph glyph-name="uni0268" unicode="&#x268;" horiz-adv-x="714" 
d="M373 -25q-209 0 -144 244l70 254h-149l20 94h154l63 236q20 80 -35 86l-119 12l17 68l471 59l12 -12l-121 -449h148l-21 -94h-153l-64 -237q-27 -96 23 -97q33 0 82 60.5t94 140.5l61 -35q-164 -330 -409 -330zM469 1296q0 70 46 124.5t125 54.5t125 -39t46 -117
t-48 -126t-125 -48t-123 40.5t-46 110.5z" />
    <glyph glyph-name="uni0269" unicode="&#x269;" horiz-adv-x="755" 
d="M604 131q55 0 156 37l14 -62q-111 -70 -190.5 -100.5t-176.5 -30.5t-159 68t-27 197l150 542q27 100 -47 111l-105 8l19 68l473 59l14 -14l-180 -684q-27 -131 -11.5 -165t70.5 -34z" />
    <glyph glyph-name="uni026A" unicode="&#x26a;" horiz-adv-x="677" 
d="M70 0l18 78q84 4 109.5 20.5t40.5 79.5l149 647q14 61 -12.5 79t-112.5 22l19 78h559l-19 -78q-86 -6 -110.5 -21.5t-38.5 -79.5l-150 -647q-14 -61 12.5 -78.5t112.5 -21.5l-18 -78h-559z" />
    <glyph glyph-name="uni026F" unicode="&#x26f;" horiz-adv-x="1871" 
d="M545 139q70 0 179.5 147.5t164.5 278.5q76 188 143 439l283 24l-215 -790q-14 -53 -5 -76t46 -23q68 0 178.5 149.5t170 297t134.5 418.5l283 24l-217 -792q-27 -96 24 -97q59 0 176 201l60 -37q-160 -328 -408 -328q-86 0 -125 60.5t-6 161.5l76 229h-8
q-102 -195 -236.5 -323t-265.5 -128q-215 0 -125 299l43 148l-10 2q-104 -199 -236.5 -324t-261.5 -125t-165 88.5t5 208.5l148 529q25 88 -31 94l-121 12l17 68l473 53l10 -10l-213 -760q-35 -119 35 -119z" />
    <glyph glyph-name="uni0271" unicode="&#x271;" horiz-adv-x="1849" 
d="M1096 1028q215 0 125 -299l-43 -147l10 -2q104 199 236 323.5t276 124.5q115 0 149.5 -88t-4.5 -209l-182 -678q-98 -367 -203 -459q-106 -90 -235 -90t-193.5 40t-64.5 91.5t40 91.5t84 40t74 -60q55 -109 92 -108q23 0 39 69l121 553l146 524q31 119 -37 119
t-177.5 -147.5t-164.5 -278.5q-76 -188 -144 -438l-282 -25l215 791q14 53 5 75.5t-46 22.5q-68 0 -178.5 -149.5t-170 -297t-134.5 -417.5l-283 -25l207 826q20 82 -31 88l-119 12l15 68l467 59l10 -12l-131 -436h10q102 195 236.5 321.5t265.5 126.5z" />
    <glyph glyph-name="uni0275" unicode="&#x275;" horiz-adv-x="1150" 
d="M797 934q-159 0 -283 -367h371q29 131 28 199q0 168 -116 168zM455 219q0 -150 123 -149q92 0 163.5 116.5t120.5 286.5h-375q-32 -143 -32 -254zM158 356q0 217 121 404q172 268 501 268q176 0 294 -80q136 -92 136 -302t-127 -410q-164 -260 -501 -261
q-213 0 -318.5 103.5t-105.5 277.5z" />
    <glyph glyph-name="uni0279" unicode="&#x279;" horiz-adv-x="901" 
d="M20 96q0 63 40 119.5t91.5 56.5t102.5 -36t82 -35q94 0 199 366q20 72 58 223.5t54 213.5l287 24l-191 -825q-18 -82 31 -88l121 -13l-14 -67l-437 -60l-10 11l76 297h-10q-172 -308 -353 -308q-127 0 -127 121z" />
    <glyph glyph-name="uni0283" unicode="&#x283;" horiz-adv-x="700" 
d="M-193 -354.5q0 57.5 37 94.5t71.5 37t52.5 -11.5t23 -19.5t19 -33q66 -115 96 -114q29 0 39 55l76 399l213 1004q43 199 158 331t319 132q129 0 211 -53.5t82 -117t-45 -98t-98 -34.5t-84 61q-41 86 -64.5 116.5t-48.5 30.5q-59 0 -94 -161l-262 -1207
q-63 -289 -170 -421t-285 -132q-115 0 -180.5 42t-65.5 99.5z" />
    <glyph glyph-name="uni0287" unicode="&#x287;" horiz-adv-x="735" 
d="M399 864q-82 0 -202 -200l-58 38q172 326 432 326q94 0 137.5 -62.5t10.5 -189.5l-172 -678h170l-25 -98h-166l-41 -152l-309 -157l-26 16l90 293h-246l24 98h242l168 678q20 88 -29 88z" />
    <glyph glyph-name="uni0289" unicode="&#x289;" horiz-adv-x="1314" 
d="M580 139q53 0 133 99.5t151 234.5h-270l-53 -211q-33 -123 39 -123zM991 -25q-84 0 -120.5 59.5t-10.5 162.5l64 233h-9q-248 -455 -530 -455q-215 0 -137 297l51 201h-149l20 94h154l61 234q25 88 -31 94l-121 12l17 68l473 53l10 -10l-115 -451h297q70 197 140 437
l291 24l-121 -461h149l-20 -94h-154l-61 -237q-29 -96 24 -97q59 0 176 201l60 -37q-162 -328 -408 -328z" />
    <glyph glyph-name="uni028B" unicode="&#x28b;" horiz-adv-x="1150" 
d="M696 70q176 0 264.5 132t88.5 345q0 127 -22.5 201.5t-76.5 160.5q35 53 92.5 86t105.5 33t85 -67.5t37 -202t-40 -265.5t-111.5 -248.5t-190.5 -193.5t-262 -76q-207 0 -325 117t-67 332l88 377q20 88 -30 94l-121 12l14 68l463 53l10 -10l-135 -569
q-51 -201 -22.5 -290t155.5 -89z" />
    <glyph glyph-name="uni028C" unicode="&#x28c;" horiz-adv-x="1220" 
d="M16 104q0 57 31 101.5t78 44.5t87 -35t67 -35q78 0 178 234l250 590h200l80 -644q16 -133 36.5 -177t61.5 -44q63 0 164 185l66 -29q-131 -324 -342 -324q-94 0 -157.5 53.5t-72.5 172.5l-38 555h-5l-168 -428q-137 -348 -360 -349q-74 0 -115 36t-41 93z" />
    <glyph glyph-name="uni0292" unicode="&#x292;" horiz-adv-x="1030" 
d="M-43 -287q0 70 44 96.5t97 26.5t80 -24.5t34 -59.5q8 -36 16 -70q21 -84 138.5 -83.5t197 136.5t79.5 275q0 88 -40 164t-111.5 76t-131.5 -29l-38 74l20 45l465 438h-342q-80 0 -121 -40t-98 -144l-51 24q33 129 85 236t99 150h719l20 -43l-20 -37q-18 -35 -101 -111
l-485 -457l4 -4q29 12 111 13q150 0 228.5 -105.5t78.5 -279.5q0 -104 -38 -189.5t-96 -137.5t-136 -87q-142 -64 -304 -64q-403 0 -403 211z" />
    <glyph glyph-name="uni0294" unicode="&#x294;" horiz-adv-x="1073" 
d="M354 1284q0 84 130 160t333 76q418 0 418 -314q-1 -144 -137 -292q-58 -64 -118 -126q-151 -157 -183 -296l-117 -492l-291 -25l107 445q53 213 193 396q55 72 109 142q122 158 122 313t-107 154q-63 0 -120.5 -54t-86.5 -163q-12 -41 -30.5 -58t-64.5 -17t-101.5 47
t-55.5 104z" />
    <glyph glyph-name="uni0295" unicode="&#x295;" horiz-adv-x="1073" 
d="M-162 1206q0 313 418 314q203 0 333 -76t130 -160q0 -57 -55.5 -104t-101.5 -47t-64.5 17t-30.5 58q-29 109 -86 163t-121 54q-106 0 -106 -155q0 -156 120 -312q54 -70 110 -142q142 -185 194 -396l106 -445l-291 25l-117 492q-32 140 -182 296q-60 62 -120 126
q-136 148 -136 292z" />
    <glyph glyph-name="uni0296" unicode="&#x296;" horiz-adv-x="1073" 
d="M182 289q0 145 136 293q58 64 120 126q149 154 183 296l116 491l291 25l-106 -445q-52 -211 -194 -396q-56 -73 -110 -143q-120 -157 -120 -312t106 -154q63 0 120.5 54t86.5 163q12 41 30.5 58t64.5 17t101.5 -47t55.5 -104q0 -84 -130 -160t-333 -76q-418 1 -418 314z
" />
    <glyph glyph-name="uni02B9" unicode="&#x2b9;" horiz-adv-x="622" 
d="M565 1536q25 0 68 -16q82 -37 82 -97t-76 -170l-225 -327l-76 35l94 385q20 84 44 137t89 53z" />
    <glyph glyph-name="uni02BA" unicode="&#x2ba;" horiz-adv-x="1054" 
d="M997 1536q25 0 68 -16q82 -37 82 -97t-76 -170l-225 -327l-76 35l94 385q20 84 44 137t89 53zM565 1536q25 0 68 -16q82 -37 82 -97t-76 -170l-225 -327l-76 35l94 385q20 84 44 137t89 53z" />
    <glyph glyph-name="circumflex" unicode="&#x2c6;" horiz-adv-x="819" 
d="M725 1530q39 0 78 -57l233 -353l-59 -55l-232 197q-39 34 -63 34t-76 -34l-297 -197l-47 55l369 355q55 55 94 55z" />
    <glyph glyph-name="caron" unicode="&#x2c7;" horiz-adv-x="819" 
d="M692 1298q24 0 76 35l297 197l47 -55l-369 -355q-55 -55 -94 -55t-78 57l-233 353l59 55l232 -197q39 -35 63 -35z" />
    <glyph glyph-name="uni02CA" unicode="&#x2ca;" horiz-adv-x="819" 
d="M904 1516q34 0 70 -42t36 -80t-36 -69t-104 -68l-374 -210l-43 61l297 305q57 59 89 81q31 22 65 22z" />
    <glyph glyph-name="uni02CB" unicode="&#x2cb;" horiz-adv-x="819" 
d="M295 1394q0 38 36 80q35 42 69 42t66 -22t89 -81l297 -305l-43 -61l-375 210q-68 37 -104 68t-35 69z" />
    <glyph glyph-name="uni02CE" unicode="&#x2ce;" horiz-adv-x="819" 
d="M-125 -425q0 38 36 80t70 42q33 0 65 -22t89 -81l297 -305l-43 -61l-375 211q-68 37 -104 67t-35 69z" />
    <glyph glyph-name="uni02CF" unicode="&#x2cf;" horiz-adv-x="819" 
d="M484 -303q34 0 70 -42t36 -80t-36 -69t-103 -67l-375 -211l-43 61l297 305q57 59 89 81q31 22 65 22z" />
    <glyph glyph-name="breve" unicode="&#x2d8;" horiz-adv-x="819" 
d="M668 1309q236 0 295 153h69q-29 -150 -116 -236t-281 -87q-229 0 -259 146q-16 77 17 177h70q-16 -40 21 -97q16 -24 64 -40t120 -16z" />
    <glyph glyph-name="dotaccent" unicode="&#x2d9;" horiz-adv-x="823" 
d="M522 1300q0 62 44 108t119 46t118 -45t43 -107t-43 -108q-43 -45 -118 -45t-119 45t-44 106z" />
    <glyph glyph-name="ring" unicode="&#x2da;" horiz-adv-x="819" 
d="M799 1344q0 136 -111 135q-53 1 -95 -55t-42 -128q-1 -130 113 -131q52 -1 94 53t41 126zM656 1083q-116 1 -180 55t-64 160t73 185q75 78 203 78q128 1 189 -57t61 -152q0 -131 -83 -200t-199 -69z" />
    <glyph glyph-name="ogonek" unicode="&#x2db;" horiz-adv-x="716" 
d="M462 -393q56 0 99 26l29 -55q-106 -82 -237 -82t-176 75q-77 139 59 287q80 87 188 142h117q-180 -135 -193 -262q-2 -61 28 -96t86 -35z" />
    <glyph glyph-name="tilde" unicode="&#x2dc;" horiz-adv-x="819" 
d="M520 1409q58 0 196 -44t196 -40t143 102l45 -26q-4 -6 -22 -42t-21 -43q-5 -7 -21 -37t-23 -37t-23 -29q-16 -21 -32 -27q-14 -6 -37 -20t-68 -15q-46 0 -181 43q-136 43 -200 43t-96 -25t-67 -88l-45 37q16 88 81 168t175 80z" />
    <glyph glyph-name="hungarumlaut" unicode="&#x2dd;" horiz-adv-x="819" 
d="M936 1536q37 0 80 -24t43 -54q0 -53 -68 -127l-196 -213l-58 35l111 287q35 96 88 96zM594 1536q39 0 82 -24t43 -54q0 -51 -70 -127l-196 -213l-58 35l111 287q35 96 88 96z" />
    <glyph glyph-name="uni02EE" unicode="&#x2ee;" horiz-adv-x="931" 
d="M674 1280q0 -229 -361 -487l-47 55q147 147 148 262q0 39 -24 94t-23 90q0 66 45 110q44 44 114 45t109 -48t39 -121zM1102 1280q0 -229 -361 -487l-47 55q147 147 148 262q0 39 -24 94t-23 90q0 66 45 110q44 44 114 45t109 -48t39 -121z" />
    <glyph glyph-name="gravecomb" unicode="&#x300;" horiz-adv-x="0" 
d="M-524 1394q0 38 35.5 80t69.5 42t65.5 -21.5t89.5 -81.5l297 -305l-43 -61l-375 210q-68 37 -103.5 68t-35.5 69z" />
    <glyph glyph-name="acutecomb" unicode="&#x301;" horiz-adv-x="0" 
d="M85 1516q34 0 69.5 -42t35.5 -80t-35.5 -69t-103.5 -68l-375 -210l-43 61l297 305q57 59 89 81t66 22z" />
    <glyph glyph-name="uni0302" unicode="&#x302;" horiz-adv-x="0" 
d="M-94 1530q39 0 78 -57l233 -353l-59 -55l-232 197q-39 35 -62.5 34.5t-76.5 -34.5l-297 -197l-47 55l369 355q55 55 94 55z" />
    <glyph glyph-name="tildecomb" unicode="&#x303;" horiz-adv-x="0" 
d="M-299 1409q57 0 195.5 -44t196 -40t143.5 102l45 -26q-4 -6 -21.5 -42t-22 -43t-20.5 -37t-23.5 -37t-23.5 -28.5t-30.5 -27.5t-37.5 -20t-69 -14.5t-181 42.5t-199 43t-96 -24.5t-67 -88.5l-45 37q16 88 80.5 168t175.5 80z" />
    <glyph glyph-name="uni0304" unicode="&#x304;" horiz-adv-x="0" 
d="M-475 1212l31 148h637l-31 -148h-637z" />
    <glyph glyph-name="uni0305" unicode="&#x305;" horiz-adv-x="0" 
d="M-674 1360h1024v-103h-1024v103z" />
    <glyph glyph-name="uni0306" unicode="&#x306;" horiz-adv-x="0" 
d="M-152 1309q236 0 295 153h70q-29 -150 -116 -236.5t-281 -86.5q-228 0 -260 146q-16 74 18 177h70q-16 -39 22 -97q16 -24 63.5 -40t118.5 -16z" />
    <glyph glyph-name="uni0307" unicode="&#x307;" horiz-adv-x="0" 
d="M-301 1300.5q0 61.5 44 107.5t119 46t118 -45t43 -107t-43 -107.5t-118 -45.5t-119 45t-44 106.5z" />
    <glyph glyph-name="uni0308" unicode="&#x308;" horiz-adv-x="0" 
d="M-530 1300.5q0 61.5 44 107.5t118 46t117.5 -45t43.5 -107t-43 -107.5t-118 -45.5t-118.5 45t-43.5 106.5zM-39 1300.5q0 61.5 44 107.5t119 46t118 -45t43 -107t-43 -107.5t-118 -45.5t-119 45t-44 106.5z" />
    <glyph glyph-name="hookabovecomb" unicode="&#x309;" horiz-adv-x="0" 
d="M-211 1544q-90 0 -90 72q0 37 73.5 76t195.5 39t187.5 -39t65.5 -102.5t-54 -104.5q-55 -41 -121 -57q-176 -44 -175 -109q0 -43 61 -43l-8 -39q-74 0 -121 23.5t-47 71.5t44 86t95.5 57.5t95.5 57.5t44 87q0 16 -19.5 30.5t-50.5 14.5q-68 0 -123 -96q-12 -25 -53 -25z
" />
    <glyph glyph-name="uni030A" unicode="&#x30a;" horiz-adv-x="0" 
d="M-20 1344q0 136 -111 135q-53 0 -95 -55.5t-42 -127.5q0 -130 113 -131q52 0 93.5 53.5t41.5 125.5zM-408 1298.5q0 106.5 74 184.5t202 78t189.5 -57.5t61.5 -151.5q0 -131 -83 -200t-199.5 -69t-180.5 54.5t-64 161z" />
    <glyph glyph-name="uni030B" unicode="&#x30b;" horiz-adv-x="0" 
d="M117 1536q37 0 80 -23.5t43 -54.5q0 -53 -68 -127l-197 -213l-57 35l111 287q35 96 88 96zM-225 1536q39 0 82 -23.5t43 -64.5t-70 -117l-197 -213l-57 35l111 287q35 96 88 96z" />
    <glyph glyph-name="uni030C" unicode="&#x30c;" horiz-adv-x="0" 
d="M-127.5 1298q23.5 0 76.5 35l297 197l47 -55l-369 -355q-55 -55 -94 -55t-78 57l-233 353l59 55l232 -197q39 -35 62.5 -35z" />
    <glyph glyph-name="uni030F" unicode="&#x30f;" horiz-adv-x="0" 
d="M-115 1448q0 41 43 64.5t82 23.5q53 0 88 -96l111 -287l-57 -35l-197 213q-70 76 -70 117zM-455 1458q0 31 43 54.5t80 23.5q53 0 88 -96l111 -287l-57 -35l-197 213q-68 74 -68 127z" />
    <glyph glyph-name="uni0311" unicode="&#x311;" horiz-adv-x="0" 
d="M-84 1292q-236 0 -295 -153h-70q29 150 116 236.5t282 86.5q229 0 259 -146q15 -75 -18 -177h-69q17 39 -21 97q-16 24 -64 40t-120 16z" />
    <glyph glyph-name="uni0315" unicode="&#x315;" horiz-adv-x="0" 
d="M229 1399q0 39 -23 94q-24 55 -24 105t45 95q45 44 115 45t109 -48t38 -121q0 -229 -360 -488l-47 56q147 147 147 262z" />
    <glyph glyph-name="uni0316" unicode="&#x316;" horiz-adv-x="0" 
d="M-944 -425q0 38 36 80t69.5 42t65.5 -21.5t89 -81.5l297 -305l-43 -61l-375 211q-68 37 -103.5 67.5t-35.5 68.5z" />
    <glyph glyph-name="uni0317" unicode="&#x317;" horiz-adv-x="0" 
d="M-335 -303q34 0 70 -42t36 -80t-36 -68.5t-104 -67.5l-374 -211l-43 61l297 305q57 59 88.5 81t65.5 22z" />
    <glyph glyph-name="dotbelowcomb" unicode="&#x323;" horiz-adv-x="0" 
d="M-670 -299q0 61 44 107.5t119 46.5t118 -45.5t43 -107.5t-43 -107.5t-118 -45.5t-119 45.5t-44 106.5z" />
    <glyph glyph-name="uni0324" unicode="&#x324;" horiz-adv-x="0" 
d="M-899 -299q0 61 44 107.5t119 46.5t118 -45.5t43 -107.5t-43.5 -107.5t-117.5 -45.5t-118.5 45.5t-44.5 106.5zM-408 -299q0 61 44 107q46 46 120 46.5t117 -45t43 -107.5t-43 -107.5t-118 -45.5t-119 45.5t-44 106.5z" />
    <glyph glyph-name="uni0325" unicode="&#x325;" horiz-adv-x="0" 
d="M-666 -420q0 -130 114 -131q52 0 93 53.5t41 125.5q0 134 -104 134q-59 0 -101.5 -55t-42.5 -127zM-805 -417.5q0 106.5 74 184t202 77.5t189 -57t61 -152q0 -131 -82.5 -199.5t-199 -68.5t-180.5 54.5t-64 161z" />
    <glyph glyph-name="uni0326" unicode="&#x326;" horiz-adv-x="0" 
d="M-584 -206q0 46 38 83t100.5 37t97.5 -43t35 -102q0 -106 -79 -193.5t-220 -183.5l-41 47q111 106 110 186q0 33 -20.5 78t-20.5 91z" />
    <glyph glyph-name="uni0327" unicode="&#x327;" horiz-adv-x="0" 
d="M-476 -504q-44 0 -97 6l4 66q197 0 207 119q6 59 -33 83.5t-90 28.5l-7 17l136 184h118l-90 -115q41 -6 79 -20.5t72 -60.5t27.5 -108t-43 -104.5t-91 -60.5t-101.5 -26.5t-91 -8.5z" />
    <glyph glyph-name="uni0328" unicode="&#x328;" horiz-adv-x="0" 
d="M-255 -393q56 0 99 26l29 -55q-106 -82 -237.5 -82t-175.5 75q-79 138 59 287q80 87 188 142h117q-180 -135 -193 -262q-2 -61 28 -96t86 -35z" />
    <glyph glyph-name="uni032C" unicode="&#x32c;" horiz-adv-x="0" 
d="M-517 -385q24 0 77 35l297 196l47 -55l-369 -354q-55 -55 -94 -55t-78 57l-233 352l59 55l231 -196q39 -35 63 -35z" />
    <glyph glyph-name="uni032D" unicode="&#x32d;" horiz-adv-x="0" 
d="M-483.5 -154q39.5 0 77.5 -57l234 -352l-59 -55l-232 196q-39 35 -62.5 35t-76.5 -35l-297 -196l-47 55l368 354q55 55 94.5 55z" />
    <glyph glyph-name="uni032E" unicode="&#x32e;" horiz-adv-x="0" 
d="M-522 -299q236 0 295 154h69q-29 -150 -115.5 -237t-281.5 -87q-229 0 -259 146q-16 77 17 178h70q-17 -39 21 -97q16 -24 64 -40.5t120 -16.5z" />
    <glyph glyph-name="uni032F" unicode="&#x32f;" horiz-adv-x="0" 
d="M-489 -463q-236 0 -295 -153h-70q29 150 116 236.5t281 86.5q227 0 259 -146q16 -74 -17 -177h-70q17 40 -21 96q-16 24 -64 40.5t-119 16.5z" />
    <glyph glyph-name="uni0330" unicode="&#x330;" horiz-adv-x="0" 
d="M-694 -303q57 0 195 -44t196 -40t143 102l45 -26q-4 -6 -21.5 -42t-21.5 -43t-20.5 -37t-23.5 -37t-23.5 -28.5t-30.5 -27.5t-37 -20t-69 -14.5t-181 42.5t-199.5 43t-96 -24.5t-66.5 -88.5l-45 37q16 88 80.5 168t175.5 80z" />
    <glyph glyph-name="uni0331" unicode="&#x331;" horiz-adv-x="0" 
d="M-852 -420l31 148h637l-31 -148h-637z" />
    <glyph glyph-name="uni0332" unicode="&#x332;" horiz-adv-x="0" 
d="M-1024 -154h1024v-102h-1024v102z" />
    <glyph glyph-name="uni0334" unicode="&#x334;" horiz-adv-x="0" 
d="M-463 696q57 0 195 -44t196 -40t144 103l45 -27l-21 -42t-22 -43t-20 -37t-24 -37t-24 -29t-30 -27q-14 -7 -39 -21q-24 -14 -68 -14q-45 0 -180 43t-199 43t-97 -24q-32 -24 -67 -88l-45 37q16 87 81 167t175 80z" />
    <glyph glyph-name="uni0338" unicode="&#x338;" horiz-adv-x="0" 
d="M-494 -31l586 1479h205l-586 -1479h-205z" />
    <glyph glyph-name="uni0400" unicode="&#x400;" horiz-adv-x="1273" 
d="M1075 1323h-141q-53 0 -71.5 -11.5t-28.5 -56.5l-103 -462h193q94 0 135 34.5t92 149.5h78l-103 -467h-77q4 100 -25 142t-123 42h-192l-109 -483q-18 -80 25 -98.5t183 -18.5t221 46t157 175l65 111h78l-121 -426h-1126l18 78l93 8q41 2 58 27.5t32 87.5l227 1016
q14 55 8 82.5t-47 29.5l-104 10l22 78h1090l-82 -379h-78l-10 113q-6 82 -57.5 127t-176.5 45zM571 1717q0 40 33 87t80 47t129 -61l352 -252l-28 -65l-416 131q-86 27 -118 50t-32 63z" />
    <glyph glyph-name="afii10023" unicode="&#x401;" horiz-adv-x="1273" 
d="M1075 1323h-141q-53 0 -71.5 -11.5t-28.5 -56.5l-103 -462h193q94 0 135 34.5t92 149.5h78l-103 -467h-77q4 100 -25 142t-123 42h-192l-109 -483q-18 -80 25 -98.5t183 -18.5t221 46t157 175l65 111h78l-121 -426h-1126l18 78l93 8q41 2 58 27.5t32 87.5l227 1016
q14 55 8 82.5t-47 29.5l-104 10l22 78h1090l-82 -379h-78l-10 113q-6 82 -57.5 127t-176.5 45zM571 1650.5q0 61.5 44 107.5t119 46t118 -45t43 -107t-43 -107.5t-118 -45.5t-119 45t-44 106.5zM1087 1650.5q0 61.5 44.5 107.5t119 46t117.5 -45t43 -107t-43 -107.5
t-118 -45.5t-119 45t-44 106.5z" />
    <glyph glyph-name="afii10051" unicode="&#x402;" horiz-adv-x="1687" 
d="M664 1323q-96 0 -158 -43t-111 -129l-55 -104h-78l84 370h1204l-84 -370h-77l-7 104q-8 86 -51 129t-139 43h-143l-125 -547h4q186 135 378 135t293 -95q102 -95 103 -341q0 -111 -60 -225t-186 -197q-125 -84 -267 -84t-199 72q-56 71 -56 149q0 170 135 170
q55 0 90 -28t35 -68q0 -39 -16 -96t-17 -70q0 -35 38 -35q38 1 74 45q56 70 82 256q9 73 9 166t-40 153t-144 60q-104 1 -170 -27t-94 -62t-39 -87l-127 -567h-500l18 78l121 8q41 2 58 28t32 87l254 1122h-69z" />
    <glyph glyph-name="afii10052" unicode="&#x403;" horiz-adv-x="1159" 
d="M1038 1323h-123q-39 0 -55 -12t-24 -47l-242 -1069q-14 -55 -1 -80t60 -29l113 -8l-16 -78h-668l18 78l93 8q41 2 58 28t32 87l227 1016q14 55 8 83t-47 29l-104 10l20 78h1065l-86 -395h-78l-10 113q-8 92 -62 140t-178 48zM1231 1851q47 0 80 -47t33 -87q0 -39 -32 -63
t-118 -50l-416 -131l-28 65l352 252q82 61 129 61z" />
    <glyph glyph-name="afii10053" unicode="&#x404;" horiz-adv-x="1376" 
d="M227 583.5q0 90.5 23.5 202t88 234.5t163 215t262.5 152.5t373 60.5q109 0 240.5 -23.5t213.5 -74.5l-80 -367h-77q-4 371 -293 371q-209 0 -340 -155t-189 -392h506l-24 -98h-502q-18 -117 -19 -228q0 -207 86 -312.5t235 -105.5t248 88.5t206 268.5h84l-105 -367
q-164 -84 -438 -84q-170 0 -297 45t-194.5 108.5t-108.5 151.5t-51.5 153.5t-10.5 156z" />
    <glyph glyph-name="afii10054" unicode="&#x405;" horiz-adv-x="1128" 
d="M606 63q123 0 186.5 70t63.5 176q0 182 -211 303q-158 92 -240.5 184.5t-82.5 232t106 269.5q55 68 162.5 109t253.5 41q256 0 395 -111l-70 -329h-77q-4 172 -74 259t-179 87t-170 -66.5t-61 -151.5q0 -84 62 -148q60 -64 196 -140q286 -161 287 -418q0 -203 -136 -331
t-403 -130q-137 0 -271 43t-208 131l47 363h76q20 -207 122.5 -325t225.5 -118z" />
    <glyph glyph-name="afii10055" unicode="&#x406;" horiz-adv-x="790" 
d="M82 0l18 78l93 8q41 2 58 27.5t32 87.5l227 1016q14 55 8 82.5t-47 29.5l-104 10l20 78h639l-20 -78l-91 -8q-41 -2 -58 -27.5t-32 -86.5l-227 -1016q-14 -55 -8 -83t47 -32l102 -8l-18 -78h-639z" />
    <glyph glyph-name="afii10056" unicode="&#x407;" horiz-adv-x="790" 
d="M82 0l18 78l93 8q41 2 58 27.5t32 87.5l227 1016q14 55 8 82.5t-47 29.5l-104 10l20 78h639l-20 -78l-91 -8q-41 -2 -58 -27.5t-32 -86.5l-227 -1016q-14 -55 -8 -83t47 -32l102 -8l-18 -78h-639zM324 1650.5q0 61.5 44 107.5t118 46t117.5 -45t43.5 -107t-43 -107.5
t-118 -45.5t-118.5 45t-43.5 106.5zM840 1650.5q0 61.5 44 107.5t118 46t117.5 -45t43.5 -107t-43 -107.5t-118 -45.5t-118.5 45t-43.5 106.5z" />
    <glyph glyph-name="afii10057" unicode="&#x408;" horiz-adv-x="794" 
d="M-31 -162q137 23 203 99q94 106 158 387l202 893q14 55 8 83t-46 29l-105 10l21 78h639l-21 -78l-90 -8q-41 -1 -58 -27t-32 -87l-227 -1000q-53 -229 -162 -328q-135 -123 -402 -122q-66 0 -84 4z" />
    <glyph glyph-name="afii10058" unicode="&#x409;" horiz-adv-x="2238" 
d="M1565 94q172 0 259 100t87 236q1 136 -57 212t-157 77q-99 0 -143 -25l-104 -467q-14 -69 8 -101t107 -32zM345 -31q-131 0 -195 73t-64 154t33 135t100 54t111 -28q44 -27 43 -71q0 -44 -27 -109t-27 -79q0 -35 31 -35q102 0 257 329t270 825q14 55 8 83t-47 29l-105 10
l21 78h1147l-21 -78l-119 -8q-41 -1 -58 -27t-32 -87l-94 -420q73 16 143 16t120 -5t129 -30q79 -26 136 -66t101 -121t43 -190q-1 -199 -155 -300t-484 -101h-682l18 78l92 8q41 2 59 28q17 26 31 87l226 1007q14 70 -9 87q-24 17 -137 28h-28q-104 -9 -133 -27t-46 -88
q-172 -736 -399 -1060q-125 -178 -257 -179z" />
    <glyph glyph-name="afii10059" unicode="&#x40a;" horiz-adv-x="2240" 
d="M1567 94q172 0 259 100t87 236q1 136 -57 212t-157 77q-99 0 -143 -25l-104 -467q-14 -69 8 -101t107 -32zM1368 1282q0 45 -49 47l-105 10l21 78h668l-21 -78l-119 -8q-41 -1 -58 -27t-32 -87l-94 -420q73 16 143 16t120 -5t129 -30q79 -26 136 -66t101 -121t43 -190
q-1 -199 -155 -300t-484 -101h-682l18 78l92 8q41 2 59 28q17 26 31 87l111 493h-532l-111 -493q-14 -55 -8 -83t47 -32l102 -8l-18 -78h-639l18 78l93 8q41 2 58 28t32 87l227 1016q14 55 8 83t-47 29l-104 10l20 78h639l-20 -78l-91 -8q-41 -1 -58 -27t-32 -87l-94 -424
h533l94 424q10 45 10 65z" />
    </font>
</defs>
</svg>
