<?xml version="1.0" standalone="no"?>
<!DOCTYPE svg PUBLIC "-//W3C//DTD SVG 1.1//EN" "http://www.w3.org/Graphics/SVG/1.1/DTD/svg11.dtd" >
<svg xmlns="http://www.w3.org/2000/svg">
<metadata>
Created by FontPrep 20130207 at Sat Nov  8 22:29:36 2014
 By Devin Schulz
Copyright (c) 1989, 1991 Adobe Systems Incorporated.  All Rights Reserved. Utopia is either a registered trademark or trademark of Adobe Systems Incorporated in the United States and/or other countries. Used under license. The Utopia fonts are freely available; see http://tug.org/fonts/utopia.

Copyright (c) 2008-2012 Andrey V. Panov (panov@canopus.iacp.dvo.ru).

</metadata>
<defs>
<font id="74e9a3622ff2e98c2bcf21d7771aeb0d" horiz-adv-x='1024' >
  <font-face 
    font-family="Heuristica-Bold"
    font-weight="700"
    font-stretch="normal"
    units-per-em="2048"
    panose-1="2 2 8 3 6 7 5 2 2 4"
    ascent="1536"
    descent="-512"
    x-height="1004"
    cap-height="1417"
    bbox="-1024 -772 2558 2341"
    underline-thickness="102"
    underline-position="-205"
    unicode-range="U+0020-FB04"
  />
<missing-glyph horiz-adv-x="1245" 
d="M672 709l301 -519v1039zM313 1329l310 -532l307 532h-617zM313 88h619l-309 535zM272 190l301 519l-301 520v-1039zM184 0v1417h877v-1417h-877z" />
    <glyph glyph-name="igrave" unicode="i&#x300;" horiz-adv-x="647" 
d="M-35 1394q0 38 36 80t70 42t65.5 -21.5t88.5 -81.5l297 -305l-43 -61l-375 210q-68 37 -103.5 68t-35.5 69zM53 0v78q88 4 110.5 20.5t22.5 79.5v602q0 59 -11 80t-38 25l-71 10v74l415 59l15 -12v-838q0 -63 22.5 -79.5t110.5 -20.5v-78h-576z" />
    <glyph glyph-name="iacute" unicode="&#x456;&#x301;" horiz-adv-x="647" 
d="M568.5 1516q33.5 0 69.5 -42t36 -80t-36 -69t-103 -68l-375 -210l-43 61l297 305q57 59 89 81t65.5 22zM53 0v78q88 4 110.5 20.5t22.5 79.5v602q0 59 -11 80t-38 25l-71 10v74l415 59l15 -12v-838q0 -63 22.5 -79.5t110.5 -20.5v-78h-576z" />
    <glyph glyph-name="icircumflex" unicode="i&#x302;" horiz-adv-x="647" 
d="M53 0v78q88 4 110.5 20.5t22.5 79.5v602q0 59 -11 80t-38 25l-71 10v74l415 59l15 -12v-838q0 -63 22.5 -79.5t110.5 -20.5v-78h-576zM325.5 1296q-22.5 0 -77.5 -39l-256 -192l-49 55l293 346q53 63 89 63.5t91 -63.5l293 -346l-50 -55l-256 192q-55 39 -77.5 39z" />
    <glyph glyph-name="idieresis" unicode="i&#x308;" horiz-adv-x="647" 
d="M-76 1300.5q0 61.5 44 107.5t118 46t118 -46t44 -107.5t-44 -107.5t-118 -46t-118 46t-44 107.5zM416 1300.5q0 61.5 44 107.5t117.5 46t117.5 -46t44 -107.5t-44 -107.5t-117.5 -46t-117.5 46t-44 107.5zM53 0v78q88 4 110.5 20.5t22.5 79.5v602q0 59 -11 80t-38 25
l-71 10v74l415 59l15 -12v-838q0 -63 22.5 -79.5t110.5 -20.5v-78h-576z" />
    <glyph glyph-name="Aogonek" unicode="A&#x328;" horiz-adv-x="1318" 
d="M393 602h332l-160 531h-6zM-57 0v78q85 4 113 24t44 60t199 565l238 690h258l403 -1241q20 -61 49 -78.5t111 -19.5v-78h-252q-164 -133 -164 -262q2 -59 34 -91t87 -32t98 27l31 -56q-98 -82 -215 -82q-242 0 -242 195q0 86 69.5 165t180.5 136h-274v78l118 12
q57 6 35 74l-106 340h-398q-82 -268 -95 -322t-6 -73t40 -21l123 -10v-78h-479z" />
    <glyph glyph-name="imacron" unicode="i&#x304;" horiz-adv-x="647" 
d="M53 0v78q88 4 110.5 20.5t22.5 79.5v602q0 59 -11 80t-38 25l-71 10v74l415 59l15 -12v-838q0 -63 22.5 -79.5t110.5 -20.5v-78h-576zM20 1202v178h637v-178h-637z" />
    <glyph glyph-name="ibreve" unicode="i&#x306;" horiz-adv-x="647" 
d="M53 0v78q88 4 110.5 20.5t22.5 79.5v602q0 59 -11 80t-38 25l-71 10v74l415 59l15 -12v-838q0 -63 22.5 -79.5t110.5 -20.5v-78h-576zM12 1466h78q4 -46 37 -83q62 -70 205 -70t196.5 48t57.5 105h80q0 -124 -54 -216q-65 -112 -274 -111q-210 0 -272 107q-54 91 -54 220
z" />
    <glyph glyph-name="jcircumflex" unicode="j&#x302;" horiz-adv-x="647" 
d="M201 63v717q0 59 -11.5 80t-37.5 25l-72 10v74l416 59l14 -12v-965q0 -360 -186 -457q-133 -70 -340 -69l-9 63q100 33 148 93q78 98 78 382zM356.5 1296q-22.5 0 -77.5 -39l-256 -192l-50 55l293 346q53 63 89 63.5t91 -63.5l293 -346l-49 -55l-256 192q-55 39 -77.5 39
z" />
    <glyph glyph-name="uni01D0" unicode="i&#x30c;" horiz-adv-x="647" 
d="M53 0v78q88 4 110.5 20.5t22.5 79.5v602q0 59 -11 80t-38 25l-71 10v74l415 59l15 -12v-838q0 -63 22.5 -79.5t110.5 -20.5v-78h-576zM339.5 1298q22.5 0 78.5 39l256 193l49 -55l-293 -347q-55 -63 -91 -63t-89 63l-293 347l49 55l256 -193q55 -39 77.5 -39z" />
    <glyph glyph-name="uni01F0" unicode="j&#x30c;" horiz-adv-x="647" 
d="M201 63v717q0 59 -11.5 80t-37.5 25l-72 10v74l416 59l14 -12v-965q0 -360 -186 -457q-133 -70 -340 -69l-9 63q100 33 148 93q78 98 78 382zM356.5 1298q22.5 0 77.5 39l256 193l49 -55l-293 -347q-55 -63 -91 -63t-89 63l-293 347l50 55l256 -193q55 -39 77.5 -39z" />
    <glyph glyph-name="f_b" unicode="fb" horiz-adv-x="1927" 
d="M1149 315q0 -121 36 -183t140 -62q207 0 207 415q0 227 -56 307t-149 78q-121 0 -166 -116q-12 -35 -12 -115v-324zM55 0v78q88 4 111 20t22 80v723h-129v103h129v59q0 219 123 338t363 119q150 0 272 -64l189 64l14 -13v-620q184 141 337 141q152 0 262 -127t110 -364
q0 -378 -223 -497q-118 -63 -303 -64t-316 69l-111 -70l-65 37v1241q-12 66 -52 119t-112 53q-72 1 -125 -67t-53 -240v-114h211v-103h-211v-723q0 -62 25 -77t41 -18t54 -5v-78h-563z" />
    <glyph glyph-name="f_h" unicode="fh" horiz-adv-x="1968" 
d="M55 0v78q88 4 111 20t22 80v723h-129v103h129v59q0 219 125 338t365 119q154 0 276 -64l189 64l14 -13v-620q82 51 123 75q116 68 223 66q158 0 236 -84t78 -233v-533q0 -63 22 -80q23 -16 111 -20v-78h-551v78l43 4q35 4 50 19t15 63v516q0 190 -161 190
q-117 0 -168 -100q-20 -41 -21 -121v-485q0 -46 15 -62t51 -20l43 -4v-78h-527v78l43 4q35 4 51 19q15 15 15 63v1089q-12 66 -52 119t-114 53q-184 0 -184 -307v-114h211v-103h-211v-737q0 -46 15 -62t50 -20l43 -4v-78h-551z" />
    <glyph glyph-name="f_j" unicode="fj" horiz-adv-x="1286" 
d="M55 0v78q88 4 111 20t22 80v723h-129v103h129v51q0 219 123 342t383 123q209 0 322 -75t112 -165q0 -59 -49 -96t-103 -37q-92 0 -114 47q-8 16 -18 47q-66 184 -170 184q-70 1 -123 -71t-53 -254v-96h196q139 0 441 24l14 -12v-965q0 -356 -191 -457q-133 -70 -344 -69
l-8 63q106 35 152 93q82 104 82 382v734q0 66 -16 85t-64 19h-262v-737q0 -46 15 -62t50 -20l43 -4v-78h-551z" />
    <glyph glyph-name="f_k" unicode="fk" horiz-adv-x="1867" 
d="M55 0v78q88 4 111 20t22 80v723h-129v103h129v53q0 217 129 340t361 123q154 0 276 -64l189 64l14 -13v-950h4l148 209q121 166 127 176q51 61 120 62h297v-66q-213 -45 -405 -231l-45 -45q176 -279 360 -486q80 -92 131 -110v-66h-184q-114 0 -182 26t-121 95
q-127 168 -246 399h-4v-342q0 -64 23 -80t110 -20v-78h-551v78l43 4q35 4 51 19q15 15 15 63v1089q-12 66 -52 119t-115 53q-75 -1 -129 -71t-54 -242v-108h211v-103h-211v-737q0 -46 15 -62t50 -20l43 -4v-78h-551z" />
    <glyph glyph-name="longs_b" unicode="&#x17f;b" horiz-adv-x="1896" 
d="M1118 315q0 -121 36 -183t140 -62q207 0 207 415q0 227 -56 307t-149 78q-121 0 -166 -116q-12 -35 -12 -115v-324zM43 0v78q88 4 111 20t22 80v885q0 209 125 333t352 124q139 0 262 -64l189 64l14 -13v-620q184 141 337 141t263 -127t109 -364q0 -376 -222 -497
q-118 -63 -303 -64q-186 -1 -317 69l-111 -70l-65 37v1241q-8 61 -47 117t-107 55q-69 -1 -119 -69t-51 -238v-940q0 -66 24 -82t120 -18v-78h-586z" />
    <glyph glyph-name="longs_h" unicode="&#x17f;h" horiz-adv-x="1943" 
d="M43 0v78q88 4 111 20t22 80v885q0 217 124 337t359 120q147 0 271 -64l188 64l15 -13v-620q83 51 123 75q115 68 223 66q157 0 235 -84t78 -233v-533q0 -64 23 -80t110 -20v-78h-551v78l43 4q35 4 50 19t16 63v516q0 190 -162 190q-117 0 -168 -100q-20 -41 -20 -121
v-485q0 -46 15 -62t50 -20l43 -4v-78h-526v78l43 4q35 4 50 19t15 63v1089q-10 63 -50 117q-39 54 -111 55t-124 -67t-53 -240v-954q-1 -46 15 -62t51 -20l43 -4v-78h-551z" />
    <glyph glyph-name="longs_i" unicode="&#x17f;i" horiz-adv-x="1284" 
d="M1133 178q0 -63 22 -80q23 -16 111 -20v-78h-551v78l43 4q35 4 50 19t15 63v616q0 60 -11 80t-38 25l-72 10v74l416 59l15 -12v-838zM43 0v78q88 4 111 20t22 80v877q0 217 124 341t382 124q209 0 322 -75t112 -165q0 -59 -49 -96t-121 -37t-97 47q-9 16 -18 47
q-59 184 -169 184q-70 1 -123 -71t-54 -254v-936q-1 -46 15 -62t51 -20l43 -4v-78h-551z" />
    <glyph glyph-name="longs_k" unicode="&#x17f;k" horiz-adv-x="1843" 
d="M43 0v78q88 4 111 20t22 80v885q0 217 124 337t359 120q147 0 271 -64l188 64l15 -13v-950h4l147 209q121 166 127 176q51 61 121 62h297v-66q-213 -45 -406 -231l-45 -45q176 -279 361 -486q80 -92 131 -110v-66h-184q-115 0 -183 26t-121 95q-127 168 -245 399h-4v-342
q0 -63 22 -80q23 -16 111 -20v-78h-551v78l43 4q35 4 50 19t15 63v1089q-10 63 -50 117q-39 54 -111 55t-124 -67t-53 -240v-954q-1 -46 15 -62t51 -20l43 -4v-78h-551z" />
    <glyph glyph-name="longs_l" unicode="&#x17f;l" horiz-adv-x="1284" 
d="M43 0v78q88 4 111 20t22 80v885q0 217 124 337t359 120q147 0 271 -64l188 64l15 -13v-1329q0 -63 22 -80q23 -16 111 -20v-78h-551v78l43 4q35 4 50 19t15 63v1089q-10 63 -50 117q-39 54 -111 55t-124 -67t-53 -240v-954q-1 -46 15 -62t51 -20l43 -4v-78h-551z" />
    <glyph glyph-name="longs_longs" unicode="&#x17f;&#x17f;" horiz-adv-x="1341" 
d="M721 0v78l43 4q35 4 50 19t15 63v913q-1 207 101 325t263 118t235 -60t75 -120q0 -60 -48 -95t-103 -35t-90 62q-49 92 -73 123q-46 59 -81 8q-14 -23 -14 -60t22 -163t23 -176v-826q0 -63 25 -80q26 -16 136 -20v-78h-579zM43 0v78q88 4 111 20t22 80v893q0 203 93 311
t231 109t216 -63q77 -64 77 -120t-44 -88t-107 -32t-81 61q-47 152 -92 152q-37 0 -37 -76q0 -35 27 -154t26 -167v-840q-1 -46 15 -62t51 -20l43 -4v-78h-551z" />
    <glyph glyph-name="longs_longs_i" unicode="&#x17f;&#x17f;i" horiz-adv-x="1937" 
d="M1786 178q0 -63 22 -80q23 -16 111 -20v-78h-551v78l43 4q35 4 50 19t16 63v616q1 60 -11 80t-39 25l-71 10v74l416 59l14 -12v-838zM721 0v78l43 4q35 4 50 19t15 63v891q0 217 124 341t382 124q209 0 322 -75t112 -165q0 -59 -49 -96t-103 -37q-90 0 -115 47
q-9 16 -17 47q-59 184 -170 184q-70 1 -123 -71t-53 -254v-936q0 -46 15 -62t50 -20l43 -4v-78h-526zM43 0v78q88 4 111 20t22 80v893q0 203 93 311t231 109t216 -63q77 -64 77 -120t-44 -88t-107 -32t-81 61q-47 152 -92 152q-37 0 -37 -76q0 -35 27 -154t26 -167v-840
q-1 -46 15 -62t51 -20l43 -4v-78h-551z" />
    <glyph glyph-name="longs_longs_l" unicode="&#x17f;&#x17f;l" horiz-adv-x="1937" 
d="M721 0v78l43 4q35 4 50 19t15 63v899q0 217 124 337t360 120q147 0 270 -64l189 64l14 -13v-1329q0 -63 22 -80q23 -16 111 -20v-78h-551v78l43 4q35 4 50 19t16 63v1089q-11 63 -51 117t-112 55t-123 -67q-52 -68 -52 -240v-954q0 -46 15 -62t50 -20l43 -4v-78h-526z
M43 0v78q88 4 111 20t22 80v893q0 203 93 311t231 109t216 -63q77 -64 77 -120t-44 -88t-107 -32t-81 61q-47 152 -92 152q-37 0 -37 -76q0 -35 27 -154t26 -167v-840q-1 -46 15 -62t51 -20l43 -4v-78h-551z" />
    <glyph glyph-name="ff" unicode="ff" horiz-adv-x="1359" 
d="M55 0v78q88 4 111 20t22 80v723h-129v103h129v67q0 203 94 311t234 109q141 1 217 -63t76 -120t-44 -88q-45 -32 -105 -32t-82 61q-30 86 -50 119t-45 33q-39 0 -39 -76q0 -35 27 -154t27 -167h350v73q0 207 101 325t263 118t236 -60t74 -120t-48 -95t-104 -35t-90 62
q-49 92 -73 123q-46 59 -81 8q-14 -23 -14 -60t23 -163t22 -176h211v-103h-211v-723q0 -64 26 -80t136 -20v-78h-580v78l43 4q35 4 51 19q15 15 15 63v737h-350v-737q0 -46 15 -62t50 -20l43 -4v-78h-551z" />
    <glyph glyph-name="fi" unicode="fi" horiz-adv-x="1308" 
d="M55 0v78q88 4 111 20t22 80v723h-129v103h129v51q0 221 124 343t388 122q213 0 327 -75t114 -165q0 -59 -49 -96q-50 -37 -104 -37q-92 0 -114 47q-8 16 -18 47q-66 184 -176 184q-74 1 -128 -71t-54 -254v-96h204q139 0 441 24l14 -12v-838q0 -64 23 -80t110 -20v-78
h-551v78l43 4q35 4 51 19q15 15 15 63v633q0 66 -15 85t-65 19h-270v-737q0 -46 15 -62t50 -20l43 -4v-78h-551z" />
    <glyph glyph-name="fl" unicode="fl" horiz-adv-x="1308" 
d="M55 0v78q88 4 111 20t22 80v723h-129v103h129v59q0 219 125 338t365 119q154 0 276 -64l189 64l14 -13v-1329q0 -64 23 -80t110 -20v-78h-551v78l43 4q35 4 51 19q15 15 15 63v1089q-12 66 -52 119t-114 53q-184 0 -184 -307v-114h211v-103h-211v-737q0 -46 15 -62
t50 -20l43 -4v-78h-551z" />
    <glyph glyph-name="ffi" unicode="ffi" horiz-adv-x="1968" 
d="M55 0v78q88 4 111 20t22 80v723h-129v103h129v67q0 203 94 311t234 109q141 1 217 -63t76 -120t-44 -88q-45 -32 -105 -32t-82 61q-30 86 -50 119t-45 33q-39 0 -39 -76q0 -35 27 -154t27 -167h350v51q0 221 124 343t388 122q213 0 327 -75t113 -165q0 -59 -49 -96
t-103 -37q-91 0 -114 47q-8 16 -18 47q-66 184 -177 184q-74 1 -128 -71t-54 -254v-96h205q139 0 440 24l15 -12v-838q0 -63 22 -80q23 -16 111 -20v-78h-551v78l43 4q35 4 50 19t15 63v633q0 66 -15 85t-65 19h-270v-737q0 -46 15 -62t51 -20l43 -4v-78h-527v78l43 4
q35 4 51 19q15 15 15 63v737h-350v-737q0 -46 15 -62t50 -20l43 -4v-78h-551z" />
    <glyph glyph-name="ffl" unicode="ffl" horiz-adv-x="1968" 
d="M55 0v78q88 4 111 20t22 80v723h-129v103h129v67q0 203 94 311t234 109q141 1 217 -63t76 -120t-44 -88q-45 -32 -105 -32t-82 61q-30 86 -50 119t-45 33q-39 0 -39 -76q0 -35 27 -154t27 -167h350v59q0 219 125 338t364 119q154 0 277 -64l188 64l15 -13v-1329
q0 -63 22 -80q23 -16 111 -20v-78h-551v78l43 4q35 4 50 19t15 63v1089q-12 66 -52 119t-114 53q-184 0 -184 -307v-114h211v-103h-211v-737q0 -46 15 -62t51 -20l43 -4v-78h-527v78l43 4q35 4 51 19q15 15 15 63v737h-350v-737q0 -46 15 -62t50 -20l43 -4v-78h-551z" />
    <glyph glyph-name="esh_i" unicode="&#x283;i" horiz-adv-x="1394" 
d="M801 0v78q89 4 111 20t22 80v602q0 60 -11 80t-38 25l-72 10v74l416 59l14 -12v-838q0 -64 23 -80t110 -20v-78h-575zM-80 -328q0 47 45 87t91 40q74 0 128 -101q55 -101 92 -99q20 0 38 19t18 55t-23 166t-22 181v996q0 231 124 367t382 137q209 0 321 -75t113 -165
q0 -59 -49 -96q-50 -37 -104 -37q-91 0 -115 47q-9 16 -17 47q-59 184 -186 184q-56 0 -108 -86t-52 -270v-1137q0 -208 -98 -318t-267 -110q-220 0 -294 121q-17 27 -17 47z" />
    <glyph glyph-name="esh_k" unicode="&#x283;k" horiz-adv-x="1953" 
d="M-80 -328q0 47 45 87t91 40q74 0 128 -101q55 -101 92 -99q20 0 38 19t18 55t-23 166t-22 181v996q0 242 121 373t356 131q154 0 276 -64l189 64l14 -13v-950h4l148 209q121 166 127 176q51 61 120 62h297v-66q-213 -45 -405 -231l-45 -45q176 -279 360 -486
q80 -92 131 -110v-66h-184q-114 0 -182 26t-121 95q-127 168 -246 399h-4v-342q0 -64 23 -80t110 -20v-78h-575v78q89 4 111 20t22 80v1075q-10 63 -53 117t-117 55q-74 0 -121 -83t-47 -273v-1137q0 -208 -98 -318t-267 -110q-220 0 -294 121q-17 27 -17 47z" />
    <glyph glyph-name="esh_l" unicode="&#x283;l" horiz-adv-x="1394" 
d="M-80 -328q0 47 45 87t91 40q74 0 128 -101q55 -101 92 -99q20 0 38 19t18 55t-23 166t-22 181v996q0 242 121 373t356 131q154 0 276 -64l189 64l14 -13v-1329q0 -64 23 -80t110 -20v-78h-575v78q89 4 111 20t22 80v1075q-10 63 -53 117t-117 55q-74 0 -121 -83t-47 -273
v-1137q0 -208 -98 -318t-267 -110q-220 0 -294 121q-17 27 -17 47z" />
    <glyph glyph-name=".notdef" horiz-adv-x="1245" 
d="M672 709l301 -519v1039zM313 1329l310 -532l307 532h-617zM313 88h619l-309 535zM272 190l301 519l-301 520v-1039zM184 0v1417h877v-1417h-877z" />
    <glyph glyph-name=".notdef" horiz-adv-x="1245" 
d="M672 709l301 -519v1039zM313 1329l310 -532l307 532h-617zM313 88h619l-309 535zM272 190l301 519l-301 520v-1039zM184 0v1417h877v-1417h-877z" />
    <glyph glyph-name=".null" 
 />
    <glyph glyph-name="nonmarkingreturn" horiz-adv-x="681" 
 />
    <glyph glyph-name="space" unicode=" " horiz-adv-x="430" 
 />
    <glyph glyph-name="exclam" unicode="!" horiz-adv-x="569" 
d="M94 166q0 84 53 137t137 53t138 -53q53 -53 53 -137t-53 -137t-137 -53q-83 0 -137 52q-54 54 -54 138zM286 1448q126 0 156 -52t13 -184l-105 -763h-131l-102 763q-18 131 12 184q31 52 157 52z" />
    <glyph glyph-name="quotedbl" unicode="&#x22;" horiz-adv-x="968" 
d="M287 1448q92 0 123 -37t14 -121l-90 -456h-94l-88 456q-16 82 13 120q30 38 122 38zM680 1448q92 0 123 -37t14 -121l-90 -456h-94l-88 456q-16 82 13 120q30 38 122 38z" />
    <glyph glyph-name="numbersign" unicode="#" horiz-adv-x="1146" 
d="M426 596h229l66 219h-229zM29 449v147h239l66 219h-197v148h242l121 405h155l-120 -405h231l121 405h153l-120 -405h200v-148h-246l-65 -219h203v-147h-246l-133 -449h-156l135 449h-229l-135 -449h-158l135 449h-196z" />
    <glyph glyph-name="dollar" unicode="$" horiz-adv-x="1146" 
d="M623 94q84 0 135 51t51 140q0 180 -186 252v-443zM330 1089q0 -75 49 -123t129 -69v377q-78 -4 -128 -58t-50 -127zM78 250q0 61 50 104t105 43t82 -65q86 -217 193 -238v481l-107 39q-322 121 -321 365q0 183 120 283t308 106v164h115v-164q184 -4 288 -77
q105 -73 105 -142t-53 -100t-105 -31t-72 55q-68 182 -163 201v-422l94 -35q176 -68 265 -161t91 -253q-2 -201 -142 -302t-308 -101v-213h-115v213q-313 10 -410 182q-20 37 -20 68z" />
    <glyph glyph-name="percent" unicode="%" horiz-adv-x="1816" 
d="M1247 356q0 -299 127 -299t127 299t-127 299t-127 -299zM1014 356q0 381 360 381t360 -381t-360 -381t-360 381zM315 1012q0 -299 127 -299t127 299q-1 164 -33 232t-94 67q-127 0 -127 -299zM82 1012q0 381 360 381q129 0 248 -70q49 -27 92 -27h295q84 0 117 16t63 60
l43 64l97 -68l-881 -1431l-96 75l735 1196h-381q29 -94 29 -196q0 -186 -96 -284q-95 -98 -271 -97q-354 0 -354 381z" />
    <glyph glyph-name="ampersand" unicode="&#x26;" horiz-adv-x="1531" 
d="M518 1124q0 -141 131 -276q115 88 115 262q0 86 -37 137t-87 51t-86 -48t-36 -126zM391 442q0 -135 93 -225q94 -90 230 -90t195 59q-244 197 -452 449q-66 -58 -66 -193zM92 381q0 223 289 354q-117 153 -117 303t106 252t272 102q165 0 265 -83q101 -83 101 -211
t-74 -202t-201 -132q143 -166 365 -381q113 141 49 436q43 43 111 68t116 20q64 -61 64 -169t-79 -229q-79 -120 -171 -202q219 -215 315 -258l-8 -63l-94 2q-233 8 -400 129q-197 -141 -440 -142q-199 0 -334 108t-135 298z" />
    <glyph glyph-name="quotesingle" unicode="'" horiz-adv-x="516" 
d="M258 1448q92 0 123 -37t14 -121l-90 -456h-94l-88 456q-16 82 13 120q30 38 122 38z" />
    <glyph glyph-name="parenleft" unicode="(" horiz-adv-x="747" 
d="M203 578q0 113 10 215t42 222t83 207t143 147t213 63l11 -70q-83 -25 -145 -115q-102 -149 -137 -448q-13 -113 -13 -221q0 -232 57 -457q31 -123 92 -213t146 -115l-11 -69q-121 2 -213 62t-143 147t-83 207t-42 222t-10 216z" />
    <glyph glyph-name="parenright" unicode=")" horiz-adv-x="747" 
d="M338 578q0 234 -57 458q-31 123 -93 212t-145 114l10 70q121 -2 213 -62t144 -148q52 -87 83 -207q32 -120 42 -222t10 -215q0 -114 -10 -216t-42 -222t-83 -207q-52 -87 -144 -147t-213 -62l-10 69q84 25 145 114q103 150 137 448q13 114 13 223z" />
    <glyph glyph-name="asterisk" unicode="*" horiz-adv-x="905" 
d="M360 1050q0 16 -20 25l-199 68q-102 35 -35 131q25 37 57 43t62 -21l144 -133q20 -18 32 -8t5 37l-44 170q-10 42 15 64t76 22t75 -23t15 -63l-43 -170q-6 -27 5 -37t32 8l143 133q66 57 119 -22q68 -98 -35 -131l-197 -68q-23 -8 -21 -24t19 -21l199 -61q47 -13 56 -53
t-19 -80q-63 -96 -137 -19l-127 129q-15 18 -29 7t-8 -33l45 -175q13 -43 -11 -71t-81 -29q-57 0 -81 29t-12 71l48 175q6 22 -8 32t-29 -6l-127 -129q-77 -77 -140 19q-28 42 -18 80t55 53l201 61q18 4 18 20z" />
    <glyph glyph-name="plus" unicode="+" horiz-adv-x="1228" 
d="M119 430v164h397v410h197v-410h397v-164h-397v-430h-197v430h-397z" />
    <glyph glyph-name="comma" unicode="," horiz-adv-x="573" 
d="M205 -16q0 48 -41 118t-41 124t40 98q41 44 117 45t130 -63t53 -173q0 -217 -320 -475l-61 59q123 137 123 267z" />
    <glyph glyph-name="hyphen" unicode="-" horiz-adv-x="802" 
d="M133 416v194h539v-194h-539z" />
    <glyph glyph-name="period" unicode="." horiz-adv-x="573" 
d="M96 166q0 84 54 137t137 53q84 0 137 -53t53 -137t-53 -137t-137 -53q-83 0 -137 52q-54 54 -54 138z" />
    <glyph glyph-name="slash" unicode="/" horiz-adv-x="774" 
d="M70 -31l430 1479h205l-431 -1479h-204z" />
    <glyph glyph-name="zero" unicode="0" horiz-adv-x="1146" 
d="M387 684q0 -614 186 -614t187 614q0 614 -186 614t-187 -614zM63 684q0 297 111 494q56 100 158 157t241 57t241 -56q183 -104 243 -382q27 -123 27 -270q-1 -300 -111 -494q-57 -100 -159 -157t-240 -57q-140 0 -241 56q-183 104 -243 382q-27 123 -27 270z" />
    <glyph glyph-name="one" unicode="1" horiz-adv-x="1146" 
d="M209 0v78l139 12q39 4 55 20t17 64v946q0 54 -16 74t-56 29l-127 26v64l490 80l18 -17v-1202q0 -47 16 -63t56 -21l139 -12v-78h-731z" />
    <glyph glyph-name="two" unicode="2" horiz-adv-x="1146" 
d="M278 950q-68 0 -123 36q-56 36 -57 97q0 133 138 221t344 89q206 -1 332 -95t126 -294q0 -150 -88 -247t-284 -202q-248 -131 -328 -307h522q66 0 98 22t74 99l72 -11l-82 -358h-932l-29 37q6 227 392 543q155 130 207 242t52 229t-37 183q-38 66 -114 64
q-141 0 -199 -270q-16 -78 -84 -78z" />
    <glyph glyph-name="three" unicode="3" horiz-adv-x="1146" 
d="M230 393q64 0 87 -69q78 -254 224 -254q190 0 190 311q0 172 -56 234t-149 63q-46 0 -112 -14t-84 -15q-59 0 -60 84q0 84 60 84q18 0 86 -14q68 -15 116 -15t82 30q74 63 74 241q0 53 -9 101t-44 93t-99 45t-109 -57q-46 -57 -81 -178q-23 -72 -79 -72t-111 34t-56 95
q0 115 130 194t311 79t311 -68q154 -79 154 -281q0 -219 -285 -294v-9q152 -28 246 -112q39 -37 67 -104t29 -148q0 -193 -139 -297t-392 -105q-131 0 -230 30t-149 76q-98 90 -98 160q-1 69 55 111t120 41z" />
    <glyph glyph-name="four" unicode="4" horiz-adv-x="1146" 
d="M598 496v608h-4q-209 -344 -342 -608h346zM887 1368v-872h205v-142h-205v-200q0 -61 53 -68l96 -8v-78h-628v78l137 10q53 4 53 66v200h-520l-39 62q299 510 602 952h246z" />
    <glyph glyph-name="five" unicode="5" horiz-adv-x="1146" 
d="M88 244q0 63 51 106t105 43q76 0 100 -78q43 -133 93 -189t118 -56q182 0 182 340q0 172 -65 256q-66 84 -176 84q-147 0 -260 -140l-84 62l41 678l16 18h784l21 -29l-80 -219h-545q-41 0 -52 -13t-20 -67l-38 -274q168 117 314 117q147 0 241 -42q156 -69 208 -252
q20 -71 21 -149q0 -207 -124 -336t-392 -129q-127 0 -223 31q-151 49 -213 164q-23 41 -23 74z" />
    <glyph glyph-name="six" unicode="6" horiz-adv-x="1146" 
d="M377 479q0 -178 54 -294q55 -115 157 -115t149 89t47 245t-57 232q-57 77 -151 77t-146 -69q-53 -69 -53 -165zM61 668q0 268 95 454q141 270 477 271q187 0 291 -80t104 -172q0 -57 -52 -90t-102 -33q-72 0 -90 63q-59 217 -178 217q-215 0 -227 -585h4q143 168 313 168
t287 -112q117 -113 117 -317t-128 -340t-388 -137q-523 1 -523 693z" />
    <glyph glyph-name="seven" unicode="7" horiz-adv-x="1146" 
d="M485 -25q-80 0 -126 28t-46 108q0 240 287 585q170 205 236 424h-537q-61 0 -88 -19t-49 -61l-21 -39l-71 21l88 346h901l26 -25q-23 -141 -87 -267t-220 -353q-127 -182 -137 -619q-2 -129 -156 -129z" />
    <glyph glyph-name="eight" unicode="8" horiz-adv-x="1146" 
d="M410 1037q0 -115 45 -187t121 -72t118 72q43 72 43 188t-43 188t-120 72q-76 0 -120 -74t-44 -187zM379 376q0 -136 50 -221t144 -85t145 85q50 85 50 221t-51 220t-143 84t-144 -84q-51 -84 -51 -220zM55 387q0 135 72 225t199 129v4q-219 66 -220 281q0 174 125 270
t344 96t343 -94t122 -272q0 -112 -59 -182t-160 -101v-4q127 -37 199 -127t72 -225q0 -215 -146 -313t-372 -98t-372 98q-146 100 -147 313z" />
    <glyph glyph-name="nine" unicode="9" horiz-adv-x="1146" 
d="M385 986q0 -140 55 -224q54 -84 150 -84t143 78q25 39 25 131q0 186 -49 299q-49 112 -137 112t-138 -86q-49 -86 -49 -226zM468 522q-162 0 -280 106t-118 304q0 199 130 330t357 131q276 0 404 -183q111 -164 110 -489q0 -422 -162 -600q-131 -145 -393 -146
q-205 0 -309 83q-105 84 -105 152t50 109t112 41t84 -65q43 -127 86 -174q44 -47 96 -47t86 22t66 81q64 112 74 472h-4q-123 -127 -284 -127z" />
    <glyph glyph-name="colon" unicode=":" horiz-adv-x="573" 
d="M96 813q0 84 54 137q54 54 137 54q84 0 137 -54t53 -137q0 -84 -53 -137t-137 -53q-83 0 -137 53t-54 137zM96 166q0 84 54 137t137 53q84 0 137 -53t53 -137t-53 -137t-137 -53q-83 0 -137 52q-54 54 -54 138z" />
    <glyph glyph-name="semicolon" unicode=";" horiz-adv-x="573" 
d="M205 -16q0 48 -41 118t-41 124t40 98q41 44 117 45t130 -63t53 -173q0 -217 -320 -475l-61 59q123 137 123 267zM96 813q0 84 54 137q54 54 137 54q84 0 137 -54t53 -137q0 -84 -53 -137t-137 -53q-83 0 -137 53t-54 137z" />
    <glyph glyph-name="less" unicode="&#x3c;" horiz-adv-x="1228" 
d="M125 422v170l979 418v-187l-780 -315l780 -313v-185z" />
    <glyph glyph-name="equal" unicode="=" horiz-adv-x="1228" 
d="M119 649v164h991v-164h-991zM119 211v164h991v-164h-991z" />
    <glyph glyph-name="greater" unicode="&#x3e;" horiz-adv-x="1228" 
d="M125 10v185l780 313l-780 315v187l979 -418v-170z" />
    <glyph glyph-name="question" unicode="?" horiz-adv-x="933" 
d="M268 166q0 84 54 137t137 53q84 0 137 -53t53 -137t-53 -137t-137 -53q-83 0 -137 52q-54 54 -54 138zM41 1192q0 90 115 173t308 83t308 -78t115 -225q0 -103 -78 -166q-45 -36 -137 -88q-152 -78 -152 -180q0 -47 35 -78t90 -31t100 12l23 -55q-150 -100 -289 -100
t-221 56t-82 165q0 110 184 222t185 294q0 70 -23 114q-22 44 -62 44t-72 -51t-62 -175q-18 -76 -111 -75q-59 0 -117 38q-57 38 -57 101z" />
    <glyph glyph-name="at" unicode="@" horiz-adv-x="1705" 
d="M709 514q0 -78 47 -78q53 0 133 133t119 250l73 201q-23 16 -59 16q-82 0 -158 -103t-116 -222t-39 -197zM92 629q0 248 124 437q124 190 321 286t430 96q301 0 483 -173t182 -427q0 -187 -115 -345q-57 -77 -151 -125t-213 -48t-156 56t-16 136l25 111l-7 4
q-145 -307 -376 -307q-78 0 -121 51t-43 126q0 159 118 363q58 102 172 173t257 71q55 0 96 -20l6 12h225q-98 -354 -147 -576q-20 -94 63 -94q98 0 164 138t66 264q0 231 -151 359t-378 128q-264 0 -449 -208t-186 -488q0 -188 118 -357q135 -192 473 -192q180 0 347 72
l23 -72q-76 -53 -199 -82t-227 -29q-328 0 -543 169t-215 491z" />
    <glyph glyph-name="A" unicode="A" horiz-adv-x="1318" 
d="M393 602h332l-160 531h-6zM-57 0v78q85 4 113 24t44 60t199 565l238 690h258l403 -1241q20 -61 49 -78.5t111 -19.5v-78h-647v78l118 12q57 6 35 74l-106 340h-398q-82 -268 -95 -322t-6 -73t40 -21l123 -10v-78h-479z" />
    <glyph glyph-name="B" unicode="B" horiz-adv-x="1398" 
d="M557 797h100q141 0 209 71.5t68 192.5t-62.5 191.5t-195.5 70.5q-68 0 -93.5 -13.5t-25.5 -62.5v-450zM557 227q0 -74 35 -103.5t113 -29.5q258 0 258 291q0 137 -77 227t-224 90h-105v-475zM68 0v78q111 4 136 23.5t25 97.5v1020q0 78 -25.5 97t-135.5 23v78h675
q254 0 388.5 -80t134.5 -260q0 -252 -303 -317v-4q156 -23 257 -116t101 -264t-117 -265q-137 -111 -461 -111h-675z" />
    <glyph glyph-name="C" unicode="C" horiz-adv-x="1411" 
d="M86 694q0 342 184.5 548t595.5 206q291 0 441 -90v-367h-78q-62 202 -152 282.5t-211.5 80.5t-200.5 -52.5t-119 -124t-68.5 -188.5t-28.5 -222.5t6 -170t20 -144.5q25 -142 117.5 -265.5t261 -123.5t253.5 101.5t155 302.5h77l-24 -399q-164 -98 -479 -99
q-381 0 -565.5 191.5t-184.5 533.5z" />
    <glyph glyph-name="D" unicode="D" horiz-adv-x="1591" 
d="M557 184q0 -51 35 -70.5t125 -19.5q91 0 157 24t132 86q138 131 137 519q0 600 -416 600q-98 0 -134 -11.5t-36 -45.5v-1082zM68 0v78q111 4 136 23.5t25 97.5v1020q0 78 -25.5 97t-135.5 23v78h702q381 -2 558 -177t177 -517q0 -401 -225 -571q-174 -131 -452 -148
q-66 -4 -148 -4h-612z" />
    <glyph glyph-name="E" unicode="E" horiz-adv-x="1288" 
d="M68 0v78q111 4 136 23.5t25 97.5v1020q0 78 -25.5 97t-135.5 23v78h1103v-379h-77q-27 88 -46.5 132t-53 84t-84 54.5t-128.5 14.5h-153q-43 0 -57.5 -14.5t-14.5 -59.5v-452h195q94 0 128.5 34.5t59.5 149.5h78v-475h-78q-25 115 -59.5 149.5t-128.5 34.5h-195v-446
q0 -94 51 -122t155.5 -28t148.5 7.5t79 32t55 42.5q45 40 113 250h78l-25 -426h-1144z" />
    <glyph glyph-name="F" unicode="F" horiz-adv-x="1214" 
d="M76 0v78q111 4 136.5 23.5t25.5 97.5v1020q0 78 -26 97t-136 23v78h1087v-379h-78q-29 88 -47 131t-52 84t-84 55.5t-128 14.5h-137q-43 0 -57.5 -14.5t-14.5 -59.5v-491h234q94 0 129 34.5t59 149.5h78v-475h-78q-25 115 -59.5 149.5t-128.5 34.5h-234v-452
q0 -78 31 -97.5t166 -23.5v-78h-686z" />
    <glyph glyph-name="G" unicode="G" horiz-adv-x="1486" 
d="M86 698q0 212 80 386q49 106 129 182.5t222 129t331 52.5q301 0 469 -90v-373h-78q-89 268 -235 338q-64 31 -148 31t-152.5 -32t-111.5 -86q-90 -114 -116.5 -254.5t-26.5 -224t4 -135.5t15 -134q20 -150 106 -287.5t266 -137.5q104 0 137 18.5t33 74.5v288
q0 76 -28 94.5t-148 26.5v78h618v-78q-76 -8 -95.5 -26.5t-19.5 -89.5v-381q-221 -98 -513.5 -98.5t-461.5 112.5q-276 186 -276 616z" />
    <glyph glyph-name="H" unicode="H" horiz-adv-x="1652" 
d="M68 0v78q111 4 136 23.5t25 97.5v1020q0 78 -25.5 97t-135.5 23v78h651v-78q-111 -4 -136.5 -23.5t-25.5 -96.5v-422h539v422q0 78 -26 97t-136 23v78h651v-78q-111 -4 -136.5 -23.5t-25.5 -96.5v-1020q0 -78 26 -97.5t136 -23.5v-78h-651v78q111 4 136.5 23.5t25.5 97.5
v499h-539v-499q0 -78 25.5 -97.5t136.5 -23.5v-78h-651z" />
    <glyph glyph-name="I" unicode="I" horiz-adv-x="786" 
d="M68 0v78q111 4 136 23.5t25 97.5v1020q0 78 -25.5 97t-135.5 23v78h651v-78q-111 -4 -136.5 -23.5t-25.5 -96.5v-1020q0 -78 25.5 -97.5t136.5 -23.5v-78h-651z" />
    <glyph glyph-name="J" unicode="J" horiz-adv-x="790" 
d="M250 299v920q0 78 -25.5 97t-136.5 23v78h651v-78q-111 -4 -136 -23.5t-25 -96.5v-926q0 -180 -49.5 -292t-163.5 -167q-152 -72 -340 -67l-13 63q100 33 158 96q80 90 80 373z" />
    <glyph glyph-name="K" unicode="K" horiz-adv-x="1447" 
d="M68 0v78q111 4 136 23.5t25 97.5v1020q0 78 -25.5 97t-135.5 23v78h651v-78q-111 -4 -136.5 -23.5t-25.5 -96.5v-484l215 248q82 92 238 291q41 51 -13 57l-86 12v74h557v-74q-88 -8 -133 -24t-99 -57q-96 -73 -192.5 -169.5t-222.5 -234.5q223 -373 484 -670
q90 -102 147 -116l21 -6v-78l-140 4q-193 6 -291 56t-200 196q-172 246 -281 450h-4v-495q0 -78 25.5 -97.5t136.5 -23.5v-78h-651z" />
    <glyph glyph-name="L" unicode="L" horiz-adv-x="1198" 
d="M68 0v78q111 4 136 23.5t25 97.5v1020q0 78 -25.5 97t-135.5 23v78h675v-78q-127 -4 -156.5 -23.5t-29.5 -96.5v-975q0 -94 46 -122q45 -28 153 -28t160.5 14.5t89 62.5t52.5 82q16 33 36 91t24 68h78l-25 -412h-1103z" />
    <glyph glyph-name="M" unicode="M" horiz-adv-x="1880" 
d="M53 0v78l72 10q66 8 75 104t9 324v703q0 78 -25.5 97t-136.5 23v78h541q20 -70 108 -301l244 -629h6l174 480q6 16 160 450h532v-78q-111 -4 -136 -23.5t-25 -96.5v-1020q0 -78 25.5 -97.5t135.5 -23.5v-78h-634v78q111 4 136 23.5t25 97.5v1015h-6l-428 -1177h-123
l-440 1177h-6v-698q0 -226 7 -300t26.5 -100t62.5 -28l111 -10v-78h-490z" />
    <glyph glyph-name="N" unicode="N" horiz-adv-x="1513" 
d="M57 0v78l72 10q66 8 75 104t9 324v703q0 78 -25.5 97t-136.5 23v78h486q164 -254 645 -975h8v459q0 227 -7 301t-26.5 99.5t-62.5 27.5l-115 10v78h494v-78l-72 -10q-66 -8 -75 -103t-9 -325v-901h-225q-367 571 -744 1143h-8v-627q0 -226 7 -300t26.5 -100t62.5 -28
l115 -10v-78h-494z" />
    <glyph glyph-name="O" unicode="O" horiz-adv-x="1572" 
d="M449 709q-1 -321 89 -491q34 -66 99 -110.5t149 -44.5q338 0 338 645.5t-337.5 645.5t-337.5 -645zM86 708.5q0 354.5 176 547t524.5 192.5t524.5 -192.5t176 -547t-176 -547t-524.5 -192.5t-524.5 192.5t-176 547z" />
    <glyph glyph-name="P" unicode="P" horiz-adv-x="1331" 
d="M557 745q0 -55 24.5 -71.5t90.5 -16.5q141 0 200.5 99.5t59.5 252t-70.5 233.5t-183.5 81q-76 0 -98.5 -15.5t-22.5 -60.5v-502zM1276 1001q0 -436 -596 -438h-123v-364q0 -78 30.5 -97.5t166.5 -27.5v-74h-686v78q111 4 136 23.5t25 97.5v1020q0 78 -25.5 97t-135.5 23
v78h634q272 0 400 -78q174 -106 174 -338z" />
    <glyph glyph-name="Q" unicode="Q" horiz-adv-x="1572" 
d="M786 63q104 1 176 59q154 126 162 587q-10 645 -337.5 645t-337.5 -645q7 -461 161 -587q72 -58 176 -59zM86 725q0 338 176 530.5t524.5 192.5t524.5 -192.5t176 -546.5q0 -287 -118 -470.5t-347 -242.5q37 -68 113 -148t145.5 -114.5t114.5 -34.5h22l13 -49
q-78 -45 -213 -45q-207 0 -353.5 117.5t-199.5 254.5q-285 33 -431.5 221.5t-146.5 526.5z" />
    <glyph glyph-name="R" unicode="R" horiz-adv-x="1400" 
d="M557 745h102q272 0 272.5 289t-243.5 289q-80 0 -105.5 -17.5t-25.5 -62.5v-498zM68 0v78q111 4 136 23.5t25 97.5v1020q0 78 -25.5 97t-135.5 23v78h710q272 0 396 -106q102 -94 102 -243.5t-96.5 -242t-249.5 -112.5v-4q143 -37 197.5 -120t82 -239t99.5 -227
q43 -43 96 -45v-78h-152q-160 0 -237.5 45t-110.5 151t-69 296q-35 160 -185 159h-94v-452q0 -78 25.5 -97.5t136.5 -23.5v-78h-651z" />
    <glyph glyph-name="S" unicode="S" horiz-adv-x="1148" 
d="M543.5 63q111.5 0 175 56.5t64.5 161t-64.5 176t-178.5 119.5q-112 46 -170 78t-126 86q-140 111 -140 293.5t130.5 298.5t374 116t388.5 -90v-336h-73q-41 170 -124 251t-182.5 81t-159 -57.5t-59.5 -160t105 -172.5q82 -55 184 -97q101 -43 158 -75q58 -32 120 -84
q126 -106 126 -289t-118.5 -314.5t-414.5 -135.5q-121 0 -246 31t-196 96l-31 367h76q57 -188 163.5 -294t218 -106z" />
    <glyph glyph-name="T" unicode="T" horiz-adv-x="1277" 
d="M31 1032v385h1216v-385h-78q-65 192 -98 224q-53 51 -96 59t-90 8h-82v-1128q0 -57 16.5 -82t63.5 -27l116 -8v-78h-720v78l116 8q47 2 63.5 26.5t16.5 82.5v1128h-82q-131 0 -178 -57.5t-106 -233.5h-78z" />
    <glyph glyph-name="U" unicode="U" horiz-adv-x="1609" 
d="M59 1417h639v-78q-104 -4 -129.5 -23.5t-25.5 -96.5v-787q0 -369 262 -369t262 369v787q0 78 -25.5 97t-130.5 23v78h639v-78q-104 -4 -129.5 -23.5t-25.5 -96.5v-758q-2 -260 -149.5 -376t-448.5 -116t-441.5 114t-140.5 378v758q0 78 -26 97t-130 23v78z" />
    <glyph glyph-name="V" unicode="V" horiz-adv-x="1320" 
d="M-33 1417h621v-78l-99 -10q-55 -4 -34 -74l307 -950h10q20 61 89 277.5t114 353t90 326.5q8 33 1 49t-36 18l-115 10v78h476v-78q-86 -6 -115 -26.5t-59 -93.5q-70 -180 -179 -504l-243 -715h-258l-414 1235q-20 66 -48 83t-108 21v78z" />
    <glyph glyph-name="W" unicode="W" horiz-adv-x="1910" 
d="M-20 1417h587v-74l-94 -14q-31 -2 -39 -20t2 -58l234 -925h4l254 1060h227l270 -1060h9l116 460q82 330 95.5 414t6.5 103.5t-38 23.5l-117 16v74h469v-74q-84 -10 -110.5 -29.5t-47.5 -88.5q-68 -215 -147 -514l-191 -711h-260l-252 958h-6l-241 -958h-258l-181 684
q-129 483 -149 550.5t-43.5 84t-99.5 24.5v74z" />
    <glyph glyph-name="X" unicode="X" horiz-adv-x="1298" 
d="M-39 0v78q98 6 131 22.5t89 92t329 483.5q-176 297 -340 559q-39 63 -67.5 79.5t-114.5 24.5v78h624v-78l-86 -10q-59 -10 -22 -72l205 -337h4q182 289 210 343t-20 62l-88 14v78h477v-78q-82 -4 -122 -21.5t-85 -72.5q-154 -190 -305 -424q173 -282 383 -620
q47 -78 82 -98.5t129 -24.5v-78h-688v78l105 12q61 8 28 68l-239 403h-9q-172 -283 -227 -403q-29 -66 33 -72l119 -8v-78h-535z" />
    <glyph glyph-name="Y" unicode="Y" horiz-adv-x="1263" 
d="M-25 1417h648v-78l-111 -12q-55 -8 -29 -67l252 -560h6q29 66 118 255t122 277.5t-27 94.5l-106 12v78h493v-78q-84 -10 -120.5 -30.5t-71.5 -79.5q-104 -182 -297 -572q-37 -78 -37 -145v-313q0 -78 31 -97.5t166 -23.5v-78h-721v78q135 4 165.5 23.5t30.5 97.5v293
q0 55 -43 141l-297 590q-35 72 -63.5 91t-108.5 25v78z" />
    <glyph glyph-name="Z" unicode="Z" horiz-adv-x="1257" 
d="M573 1323q-186 0 -263 -63.5t-113 -243.5h-78v401h1093l27 -43q-616 -936 -838 -1280h330q113 0 183.5 17.5t117.5 65.5t71.5 99.5t59.5 151.5h78l-24 -428h-1190l-27 45q260 389 834 1278h-261z" />
    <glyph glyph-name="bracketleft" unicode="[" horiz-adv-x="686" 
d="M252 -262v1679h379v-69l-123 -15q-39 -3 -51 -25t-13 -71v-1319q0 -49 12 -71t52 -25l123 -15v-69h-379z" />
    <glyph glyph-name="backslash" unicode="\" horiz-adv-x="776" 
d="M70 1448h204l433 -1479h-205z" />
    <glyph glyph-name="bracketright" unicode="]" horiz-adv-x="686" 
d="M242 1237q0 49 -12 71t-52 25l-123 15v69h379v-1679h-379v69l123 15q39 4 51 26t13 70v1319z" />
    <glyph glyph-name="asciicircum" unicode="^" horiz-adv-x="1228" 
d="M115 440l403 928h203l393 -928h-213l-283 699l-290 -699h-213z" />
    <glyph glyph-name="underscore" unicode="_" horiz-adv-x="1024" 
d="M0 -154h1024v-102h-1024v102z" />
    <glyph glyph-name="grave" unicode="`" horiz-adv-x="880" 
d="M82 1394q0 38 36 80t70 42t65 -22q32 -22 89 -81l297 -305l-43 -61l-375 210q-67 37 -103 68t-36 69z" />
    <glyph glyph-name="a" unicode="a" horiz-adv-x="1114" 
d="M399 307q0 -78 44 -125t100.5 -47t94.5 32t40 107v297q-168 -76 -184 -86q-95 -53 -95 -178zM84 272q0 182 217 256q94 33 149 50q169 54 228 96v108q0 152 -119 152q-113 0 -180 -205q-27 -82 -83 -82t-120.5 34t-64.5 95q0 104 133 178t352 74q284 0 352 -132
q32 -62 31 -155v-473q0 -133 65 -153q43 -14 99 -11l6 -67q-156 -61 -303 -62q-68 0 -101.5 31t-58.5 88q-6 -4 -32 -22q-26 -17 -36 -23q-10 -7 -36 -21q-94 -54 -189 -53q-147 0 -228 87t-81 210z" />
    <glyph glyph-name="b" unicode="b" horiz-adv-x="1239" 
d="M461 315q0 -74 8 -114q25 -131 168 -131q207 0 207 415q0 227 -56.5 306t-148.5 79q-121 0 -166 -116q-12 -35 -12 -115v-324zM797.5 1028q152.5 0 262 -127t109.5 -364q1 -378 -221 -497q-121 -65 -305 -65t-315 70l-111 -70l-65 37v1260q0 57 -11.5 79.5t-38.5 26.5
l-71 13v73l415 56l15 -13v-620q184 141 336.5 141z" />
    <glyph glyph-name="c" unicode="c" horiz-adv-x="1011" 
d="M70 497q0 255 138 393t380 138q152 0 271.5 -61.5t119.5 -163.5q0 -61 -53.5 -94t-123 -33t-91.5 72q-29 98 -59.5 142t-82.5 44q-72 0 -123 -99.5t-51 -306t74 -301t175 -94.5t162.5 42t113.5 144l71 -32q-98 -311 -440 -312q-223 0 -352 133.5t-129 388.5z" />
    <glyph glyph-name="d" unicode="d" horiz-adv-x="1239" 
d="M395 534.5q0 -200.5 60.5 -301t162.5 -100.5q160 0 160 178v422q0 90 -16 121q-41 80 -138 80t-163 -99.5t-66 -300zM70 483q0 268 148 406.5t388 138.5q106 0 172 -27v271q0 57 -11 79.5t-38 26.5l-72 13v73l416 56l14 -13v-1329q0 -63 23 -79.5t111 -20.5v-78h-443v102
q-160 -127 -297 -127q-193 0 -302 140.5t-109 367.5z" />
    <glyph glyph-name="e" unicode="e" horiz-adv-x="1062" 
d="M395 614h254q37 0 50.5 13.5t13.5 54.5q0 252 -146 252q-90 0 -131 -94.5t-41 -225.5zM575 1028q113 0 199 -28.5t134 -71.5q126 -113 126 -326q0 -47 -26.5 -66.5t-83.5 -19.5h-529q0 -383 275 -383q178 0 274 182l74 -41q-115 -299 -447 -299q-276 0 -388.5 152.5
t-112.5 380t122.5 374t382.5 146.5z" />
    <glyph glyph-name="f" unicode="f" horiz-adv-x="700" 
d="M55 0v78q88 4 110.5 20.5t22.5 79.5v723h-129v103h129v88q0 207 98.5 317.5t262.5 110.5q165 0 239 -60t74 -120t-48 -95t-103 -35t-90 62q-49 92 -73 122.5t-46 30.5q-49 0 -49 -75q0 -35 22.5 -165t22.5 -181h211v-103h-211v-723q0 -63 25.5 -79.5t135.5 -20.5v-78
h-604z" />
    <glyph glyph-name="g" unicode="g" horiz-adv-x="1091" 
d="M389 695.5q0 -113.5 43 -179t112 -65.5t110.5 64.5t41.5 179t-43 177t-109.5 62.5t-110.5 -62.5t-44 -176zM328 -190q0 -90 75.5 -150.5t185.5 -60.5t181.5 51t71.5 147t-72 133t-208 37t-183 -30q-51 -37 -51 -127zM51 -198q0 144 238 196v4q-72 16 -130.5 71.5
t-58.5 119t59.5 114.5t159.5 76v4q-102 16 -175.5 94t-73.5 209t112.5 234.5t364.5 103.5q176 0 293 -67l256 88l22 -23l-41 -154l-135 -24q47 -61 47 -169q1 -109 -65 -185q-119 -138 -392 -138q-55 0 -94 4q-29 -6 -55.5 -25.5t-26.5 -49.5q0 -70 138 -70h190
q180 0 293 -74.5t113 -246.5q0 -213 -191 -314q-141 -76 -356 -76t-353.5 77t-138.5 221z" />
    <glyph glyph-name="h" unicode="h" horiz-adv-x="1292" 
d="M39 0v78q88 4 110.5 20.5t22.5 79.5v1094q0 57 -11 79.5t-38 26.5l-72 13v73l416 56l14 -13v-620q82 51 123 75q116 66 223 66q158 0 236 -84t78 -233v-533q0 -63 22.5 -79.5t110.5 -20.5v-78h-551v78l43 4q35 4 50 19.5t15 62.5v516q0 190 -161 190q-117 0 -168 -100
q-20 -41 -21 -121v-485q0 -47 15.5 -62.5t50.5 -19.5l43 -4v-78h-551z" />
    <glyph glyph-name="i" unicode="i" horiz-adv-x="647" 
d="M53 0v78q88 4 110.5 20.5t22.5 79.5v602q0 59 -11 80t-38 25l-71 10v74l415 59l15 -12v-838q0 -63 22.5 -79.5t110.5 -20.5v-78h-576zM143 1295q0 75 51.5 127.5t135.5 52.5t136 -51.5t52 -127t-53 -128t-136 -52.5t-134.5 52t-51.5 127z" />
    <glyph glyph-name="j" unicode="j" horiz-adv-x="647" 
d="M201 63v717q0 59 -11.5 80t-37.5 25l-72 10v74l416 59l14 -12v-965q0 -360 -186 -457q-133 -70 -340 -69l-9 63q100 33 148 93q78 98 78 382zM158 1295q0 75 51 127.5t136 52.5t136 -51.5t51 -127t-53 -128t-136 -52.5t-134 52t-51 127z" />
    <glyph glyph-name="k" unicode="k" horiz-adv-x="1191" 
d="M39 0v78q88 4 110.5 20.5t22.5 79.5v1094q0 57 -11 79.5t-38 26.5l-72 13v73l416 56l14 -13v-950h4l148 209q121 166 127 176q51 61 121 62h297v-66q-213 -45 -406 -231l-45 -45q176 -279 360 -486q80 -92 132 -110v-66h-185q-115 0 -182.5 25.5t-120.5 95.5
q-127 168 -246 399h-4v-342q0 -63 22.5 -79.5t110.5 -20.5v-78h-575z" />
    <glyph glyph-name="l" unicode="l" horiz-adv-x="632" 
d="M39 0v78q88 4 110.5 20.5t22.5 79.5v1094q0 57 -11 79.5t-38 26.5l-72 13v73l416 56l14 -13v-1329q0 -63 22.5 -79.5t110.5 -20.5v-78h-575z" />
    <glyph glyph-name="m" unicode="m" horiz-adv-x="1941" 
d="M53 0v78q88 4 110.5 20.5t22.5 79.5v602q0 59 -11 80t-38 25l-71 10v74l403 59l27 -141q116 77 146 90.5t56.5 25t45 14.5t43 7t49.5 4q193 0 278 -154q16 17 82 55q66 39 130 69t144 30q158 0 239 -85t81 -232v-533q0 -63 22.5 -79.5t110.5 -20.5v-78h-551v78l43 4
q35 4 50.5 19.5t15.5 62.5v510q0 88 -40 142t-116 54t-129 -56t-53 -179v-471q0 -47 15.5 -62.5t49.5 -19.5l43 -4v-78h-526v78l43 4q35 4 50.5 19.5t15.5 62.5v510q0 88 -38 142t-114 54t-131 -56t-55 -179v-471q0 -47 15 -62.5t50 -19.5l43 -4v-78h-551z" />
    <glyph glyph-name="n" unicode="n" horiz-adv-x="1306" 
d="M53 0v78q88 4 110.5 20.5t22.5 79.5v602q0 59 -11 80t-38 25l-71 10v74l403 59l27 -141q96 57 131 76.5t99.5 42t119.5 22.5q154 0 230.5 -83t78.5 -232v-535q0 -63 22.5 -79.5t110.5 -20.5v-78h-551v78l43 4q35 4 50.5 19.5t15.5 62.5v520q-6 186 -162 186
q-119 0 -168 -100q-20 -41 -20 -121v-485q0 -47 15 -62.5t50 -19.5l43 -4v-78h-551z" />
    <glyph glyph-name="o" unicode="o" horiz-adv-x="1198" 
d="M395 502q0 -432 205 -432t205 432t-205 432t-205 -432zM70 501.5q0 526.5 530 526.5t530 -526.5t-530 -526.5t-530 526.5z" />
    <glyph glyph-name="p" unicode="p" horiz-adv-x="1259" 
d="M481 311q0 -63 8 -104q29 -137 162 -137q213 0 213 415q0 223 -57 304t-148 81q-121 0 -163 -122q-14 -41 -15 -113v-324zM172 -293v1073q0 59 -11 80t-38 25l-72 10v74l393 59l37 -141q61 47 103 73q111 68 235 68q156 0 263.5 -128t107.5 -370q0 -326 -153 -440
q-153 -115 -394 -115q-102 0 -162 25v-293q0 -63 28 -79.5t142 -20.5v-78h-612v78q88 4 110.5 20.5t22.5 79.5z" />
    <glyph glyph-name="q" unicode="q" horiz-adv-x="1222" 
d="M395 527q0 -196 59.5 -295t161.5 -99q162 0 162 178v412q0 76 -8 102q-31 109 -138 109t-172 -105.5t-65 -301.5zM70 500.5q0 246.5 144 387t402 140.5q166 0 287 -63l88 63h96v-1321q0 -63 23 -79.5t111 -20.5v-78h-596v78q104 4 128.5 20.5t24.5 79.5v389
q-137 -121 -293 -121q-190 0 -302.5 139.5t-112.5 386z" />
    <glyph glyph-name="r" unicode="r" horiz-adv-x="901" 
d="M53 0v78q88 4 110.5 20.5t22.5 79.5v602q0 59 -11 80t-38 25l-71 10v74l399 59l24 -180q94 100 152.5 140t122.5 40t102.5 -39t38.5 -107t-36 -118q-36 -49 -89 -49q-52 0 -116 38t-99 38q-70 0 -69 -154v-459q0 -63 27.5 -78.5t148.5 -21.5v-78h-619z" />
    <glyph glyph-name="s" unicode="s" horiz-adv-x="913" 
d="M453 70q68 0 104.5 32.5t36.5 92.5q0 123 -205 194q-301 113 -301 316q0 154 108.5 238.5t298 84.5t306.5 -72v-272h-76q-29 117 -91.5 183.5t-130.5 66.5t-103 -35t-35 -88t53 -93t179 -87t199.5 -122t73.5 -200q0 -162 -114.5 -248t-330.5 -86t-323 99l-24 305h78
q43 -133 121.5 -221t175.5 -88z" />
    <glyph glyph-name="t" unicode="t" horiz-adv-x="757" 
d="M66 901v103h129l180 258h119v-258h213v-103h-213v-584q0 -188 131 -188q70 0 116 21l23 -64q-176 -111 -326 -111q-98 0 -176 68t-78 197v661h-118z" />
    <glyph glyph-name="u" unicode="u" horiz-adv-x="1288" 
d="M477 360q0 -223 172 -223q63 0 104.5 29t57.5 68.5t16 113.5v432q0 59 -11 80t-38 25l-71 10v74l415 59l15 -12v-838q0 -63 22.5 -79.5t110.5 -20.5v-78h-426l-17 115q-138 -92 -219.5 -116t-142.5 -24q-127 0 -212 71t-85 237v497q0 59 -11.5 80t-37.5 25l-72 10v74
l416 59l14 -12v-656z" />
    <glyph glyph-name="v" unicode="v" horiz-adv-x="1064" 
d="M-16 1004h542v-78l-75 -11q-27 -2 -33 -16t4 -43l201 -586h8q145 434 184 578q16 59 -33 65l-88 13v78h424v-78q-66 -4 -92 -20q-56 -34 -197 -423l-178 -483h-225l-160 440q-111 299 -140 372t-56 91.5t-86 22.5v78z" />
    <glyph glyph-name="w" unicode="w" horiz-adv-x="1585" 
d="M-20 1004h532v-78l-57 -6q-31 -2 -39 -17.5t2 -48.5l155 -563h7l190 713h215l211 -713h8q115 434 137 555q10 59 -34 67l-88 13v78h423v-78q-76 -6 -100 -23.5t-59 -101.5t-107 -322l-147 -479h-225l-205 629h-8l-187 -629h-225l-172 543q-59 186 -87.5 266t-52.5 95.5
t-87 21.5v78z" />
    <glyph glyph-name="x" unicode="x" horiz-adv-x="1069" 
d="M-31 0v78q82 10 122 28.5t89 73.5t232 285q-53 72 -143.5 202t-125.5 177t-61.5 60.5t-93.5 21.5v78h532v-78l-47 -8q-39 -6 -12 -44l127 -194h4l123 182q35 51 -10 58l-54 6v78h406v-78q-106 -2 -176 -72q-129 -131 -226 -262q174 -256 291 -414q45 -57 80 -76.5
t100 -23.5v-78h-569v78l45 6q59 6 27 57l-150 230h-4l-141 -221q-37 -55 16 -62l72 -10v-78h-453z" />
    <glyph glyph-name="y" unicode="y" horiz-adv-x="1073" 
d="M-25 1004h574v-78l-78 -13q-47 -6 -25 -67q37 -113 116 -324t91 -248h4q152 461 187 578q14 55 -31 61l-84 13v78h412v-78l-43 -4q-41 -4 -63.5 -33t-53.5 -101q-231 -559 -363 -911q-80 -213 -157.5 -293t-188.5 -80q-63 0 -114.5 36t-51.5 94t41 111.5t82.5 53.5
t100.5 -43q37 -31 73 -30q53 0 80 100q16 63 -12 135q-150 391 -350 870q-31 74 -78 84l-68 11v78z" />
    <glyph glyph-name="z" unicode="z" horiz-adv-x="989" 
d="M422 909q-72 0 -115 -12t-70.5 -51t-39 -73t-29.5 -114h-80v345h864l23 -41q-317 -457 -592 -869h199q156 0 216 55.5t107 219.5h78l-25 -369h-935l-25 43q352 506 592 866h-168z" />
    <glyph glyph-name="braceleft" unicode="{" horiz-adv-x="747" 
d="M152 543v69q181 0 183 106q1 50 -7 124l-21 192q-2 50 -6 104q-8 105 53 193t228 86h84v-69q-115 -6 -144 -64t-16 -180l16 -158q2 -12 5 -48l4 -48q6 -75 3 -88q-2 -14 -8 -40t-16 -38t-24 -30q-33 -42 -150 -70v-13q119 -27 149 -69l25 -30t15 -39q5 -26 11 -47t0 -57
t-9 -72t-5 -48l-16 -158q-12 -121 16 -179t144 -65v-69h-84q-168 0 -229 87q-60 87 -52 191q4 53 6 105l21 192q12 117 -26 173t-150 57z" />
    <glyph glyph-name="bar" unicode="|" horiz-adv-x="581" 
d="M193 -512v2048h196v-2048h-196z" />
    <glyph glyph-name="braceright" unicode="}" horiz-adv-x="747" 
d="M82 1417h84q167 0 228 -87q60 -87 52 -191q-4 -53 -6 -105l-20 -192q-8 -74 -7 -124q2 -106 183 -106v-69q-113 -1 -151 -57t-25 -173l20 -192q2 -51 6 -105q8 -105 -53 -192q-61 -88 -227 -86h-84v69q116 7 144 65t16 179l-17 158q-2 12 -5 48l-4 48q-6 72 -2 87
q3 15 8 41t16 38q10 12 27 34q30 39 147 66v13q-117 27 -150 69q-14 19 -24 31t-16 38q-5 26 -8 39q-4 17 2 89l4 48q3 36 5 48l17 158q12 121 -17 179t-143 65v69z" />
    <glyph glyph-name="asciitilde" unicode="~" horiz-adv-x="1228" 
d="M425 664q73 0 210 -58t199 -59q62 0 100 33q39 33 84 114l110 -57q-53 -125 -126 -199t-182 -74t-232 60q-131 57 -201 57q-96 0 -170 -157l-115 57q52 115 98 173t99 84t126 26z" />
    <glyph glyph-name="uni00A0" unicode="&#xa0;" horiz-adv-x="430" 
 />
    <glyph glyph-name="exclamdown" unicode="&#xa1;" horiz-adv-x="569" 
d="M284 -444q-126 0 -157 52q-30 52 -12 183l104 764h131l103 -764q18 -131 -13 -183q-30 -52 -156 -52zM96 838q0 84 52 137t136 53t135 -52q50 -52 52 -137t-49 -139t-136 -53q-85 0 -138 53q-52 54 -52 138z" />
    <glyph glyph-name="cent" unicode="&#xa2;" horiz-adv-x="1146" 
d="M393 754q0 -395 209 -447v826q-209 -19 -209 -379zM80 694q0 260 137 392t389 141v162h111v-162q131 -1 259 -57t128 -156q0 -57 -48 -89t-108 -32t-92 76q-57 154 -139 164v-834q217 0 325 199l76 -45q-53 -141 -168 -207t-233 -68v-209h-115v209q-293 0 -408 151
q-114 151 -114 365z" />
    <glyph glyph-name="sterling" unicode="&#xa3;" horiz-adv-x="1146" 
d="M387 402q0 87 -61 192h-248v98h192q-100 190 -100 301q0 170 112 284t324 114t312 -81t100 -163q0 -55 -53 -90t-109 -35t-84 63q-53 111 -92 161t-92 50t-93 -51t-40 -133t63 -215q18 -37 54 -105t51 -100h295v-98h-267q8 -53 8 -84q2 -74 -43 -146t-131 -122v-4h387
q90 0 144 67l49 64l72 -27l-115 -342h-961l-18 18l45 129q150 49 224 109t75 146z" />
    <glyph glyph-name="currency" unicode="&#xa4;" horiz-adv-x="1146" 
d="M303 684q0 -127 78 -214q79 -87 193 -87t192 87t78 214t-78 214t-193 87t-193 -87t-77 -214zM94 684q0 174 88 274l-100 80q-78 65 0 150q39 35 81 32t66 -36l78 -101q98 84 266 84t267 -84l78 101q24 33 66 36t81 -32q78 -85 0 -150l-100 -80q88 -100 88 -274t-88 -274
l100 -80q78 -65 0 -150q-39 -35 -81 -32t-66 36l-78 101q-98 -84 -266 -84t-267 84l-78 -101q-25 -33 -67 -36t-80 32q-78 85 0 150l100 80q-88 100 -88 274z" />
    <glyph glyph-name="yen" unicode="&#xa5;" horiz-adv-x="1146" 
d="M6 1368h578v-80l-97 -10q-43 -4 -18 -59l186 -428h4q139 313 177 421q18 63 -39 70l-99 12v74h453v-74l-68 -8q-61 -8 -102 -86q-102 -184 -190 -387h260v-98h-301l-15 -45q-8 -27 -8 -133h324v-99h-324v-280q0 -68 45 -72l119 -12v-74h-629v74l117 12q47 4 47 72v280
h-322v99h322q0 100 -12 129l-23 49h-287v98h244q-160 325 -198 395t-89 78l-55 8v74z" />
    <glyph glyph-name="brokenbar" unicode="&#xa6;" horiz-adv-x="581" 
d="M193 666v716h196v-716h-196zM193 -358v716h196v-716h-196z" />
    <glyph glyph-name="section" unicode="&#xa7;" horiz-adv-x="1159" 
d="M205 877q0 -91 77 -173t263 -182q272 -147 348 -286q61 61 61 139q0 182 -307 348q-143 77 -228 143t-126 150q-33 -16 -61 -56t-27 -83zM72 758q0 104 52 206t140 169q-2 119 87 217t278 98q117 0 210 -51t93 -123q0 -47 -43 -81t-87 -34t-77 51q-51 78 -89 109t-83 31
t-74 -30q-48 -50 -18 -134q10 -29 62 -78t149 -100q236 -123 326 -232q90 -108 89 -288q0 -180 -155 -379q2 -154 -95 -249q-97 -96 -264 -96t-265 58t-100 131q-1 71 40 105t97 34t87 -63q82 -166 197 -166q41 -1 73 29t33 90q0 60 -58 131q-58 72 -249 172
q-192 99 -274 211t-82 262z" />
    <glyph glyph-name="dieresis" unicode="&#xa8;" horiz-adv-x="880" 
d="M33 1300q0 62 44 108t118 46q73 0 117 -46t44 -108t-44 -107q-44 -46 -118 -46t-117 46q-44 46 -44 107zM524 1300q0 62 44 108t118 46t118 -46t44 -108t-44 -107q-44 -46 -118 -46t-118 46t-44 107z" />
    <glyph glyph-name="copyright" unicode="&#xa9;" horiz-adv-x="1638" 
d="M424 710q0 183 108 298q110 114 310 114t301 -59v-213h-56q-66 207 -213 207q-100 0 -152 -93t-52 -243t53 -248t164 -98q78 0 128 59t93 160h55l-22 -221q-102 -63 -306 -63t-308 108q-103 109 -103 292zM244 709q0 -255 168 -433t408 -178t407 177q168 177 168 433
t-168 434q-168 177 -408 177q-239 0 -407 -177t-168 -433zM74 709q0 307 218 523t527 216t527 -216t219 -523q0 -307 -218 -523q-217 -216 -527 -217q-310 1 -528 217t-218 523z" />
    <glyph glyph-name="ordfeminine" unicode="&#xaa;" horiz-adv-x="829" 
d="M303 753q0 -46 28 -73t58 -27q70 0 76 76v170q-59 -10 -99 -30q-63 -30 -63 -116zM57 733q0 109 142 156q172 57 266 86v72q0 43 -22 65t-52 23q-74 0 -121 -119q-26 -62 -68 -62t-87 24t-45 69q0 69 93 115t217 46q217 0 271 -64q43 -51 43 -130v-273q0 -67 24 -91
t89 -21l2 -47q-113 -39 -225 -39q-33 0 -57 13q-23 14 -31 24t-25 36q-12 -6 -43 -23t-66 -33t-90 -17q-104 0 -160 56t-55 134z" />
    <glyph glyph-name="guillemotleft" unicode="&#xab;" horiz-adv-x="997" 
d="M510 473q-35 41 0 80l356 397l60 -43l-162 -358q-16 -35 0 -74l162 -356l-60 -43zM100 473q-35 41 0 80l357 397l59 -43l-162 -358q-16 -35 0 -74l162 -356l-59 -43z" />
    <glyph glyph-name="logicalnot" unicode="&#xac;" horiz-adv-x="1228" 
d="M119 649v164h991v-618h-197v454h-794z" />
    <glyph glyph-name="uni00AD" unicode="&#xad;" horiz-adv-x="802" 
d="M133 416v194h539v-194h-539z" />
    <glyph glyph-name="registered" unicode="&#xae;" horiz-adv-x="1638" 
d="M801 743q133 0 133 152q0 74 -34 110q-34 35 -79 35t-57 -8t-12 -33v-256h49zM453 326v53l55 8q39 4 39 62v536q0 55 -39 59l-55 9v53h426q270 0 270 -188q0 -78 -49 -130t-133 -69v-4q49 -14 80 -45t39 -55q8 -23 18 -57q33 -131 65 -157q14 -12 50 -22v-53h-113
q-84 0 -123 22t-56 61t-33 115t-20 80q-20 74 -86 74h-36v-229q0 -55 41 -62l55 -8v-53h-395zM244 709q0 -255 168 -433t408 -178t407 177q168 177 168 433t-168 434q-168 177 -408 177q-239 0 -407 -177t-168 -433zM74 709q0 307 218 523t527 216t527 -216t219 -523
q0 -307 -218 -523q-217 -216 -527 -217q-310 1 -528 217t-218 523z" />
    <glyph glyph-name="macron" unicode="&#xaf;" horiz-adv-x="880" 
d="M123 1202v178h637v-178h-637z" />
    <glyph glyph-name="degree" unicode="&#xb0;" horiz-adv-x="811" 
d="M406 856q74 0 124 60t52 150q0 90 -52 148q-52 60 -127 60q-74 0 -125 -60t-50 -149q0 -89 52 -149t126 -60zM739 1065q0 -137 -97 -232t-236 -95q-138 0 -236 94q-98 96 -98 233q-2 137 95 232t237 95t238 -94q97 -96 97 -233z" />
    <glyph glyph-name="plusminus" unicode="&#xb1;" horiz-adv-x="1228" 
d="M119 0v164h991v-164h-991zM119 610v164h399v350h197v-350h395v-164h-395v-346h-197v346h-399z" />
    <glyph glyph-name="twosuperior" unicode="&#xb2;" horiz-adv-x="823" 
d="M481 1190q0 55 -18 90t-51 35q-63 0 -101 -160q-18 -74 -88 -74q-47 0 -91 29t-44 80q0 82 91 142t238 60t235 -60q88 -62 87 -172q0 -110 -60 -170q-60 -58 -165 -101q-195 -78 -231 -164h344q35 0 54 12t44 51l57 -16l-63 -215h-637l-23 21q8 147 256 335
q166 127 166 277z" />
    <glyph glyph-name="threesuperior" unicode="&#xb3;" horiz-adv-x="823" 
d="M61 717q0 51 42 87t96 36t75 -68q53 -152 119 -151q45 0 72 44t27 126q0 164 -111 163q-27 0 -74 -12t-59 -12q-45 0 -45 64t45 63q12 -1 60 -13t73 -12q82 0 82 160q0 123 -74 123q-55 0 -94 -131q-18 -66 -84 -66q-45 0 -86 25t-43 71q2 76 88 127t226 51t232 -48
q91 -50 91 -160q0 -76 -52 -121t-126 -59v-7q90 -12 151 -69q62 -57 62 -154q0 -96 -85 -164t-284 -67q-125 0 -225 47t-99 127z" />
    <glyph glyph-name="acute" unicode="&#xb4;" horiz-adv-x="880" 
d="M696 1516q34 0 69 -42q36 -42 36 -80t-36 -69t-103 -68l-375 -210l-43 61l297 305q57 59 89 81t66 22z" />
    <glyph glyph-name="micro" unicode="&#xb5;" horiz-adv-x="1288" 
d="M477 360q0 -223 172 -223q63 0 105 29q41 28 57 68t16 114v432q0 60 -11 80t-38 25l-71 10v74l415 59l15 -12v-838q0 -63 22 -80q23 -16 111 -20v-78h-426l-17 115q-14 -9 -82 -53q-69 -44 -119 -66t-104 -21q-109 0 -178 66h-4v-57q0 -94 55 -194t56 -134
q1 -60 -67 -106t-124 -46t-75 22q-17 22 -17 81v1173q0 60 -11 80t-38 25l-72 10v74l416 59l14 -12v-656z" />
    <glyph glyph-name="paragraph" unicode="&#xb6;" horiz-adv-x="1130" 
d="M705 -14v1431h374v-63l-133 -25q-27 -4 -35 -21t-8 -63v-1452h-405v64l164 28q43 8 43 101zM72 952q0 211 131 338t364 127v-930q-229 0 -362 127t-133 338z" />
    <glyph glyph-name="periodcentered" unicode="&#xb7;" horiz-adv-x="573" 
d="M96 510q0 84 54 137t137 53q84 0 137 -53t53 -137t-53 -137t-137 -53q-83 0 -137 52q-54 54 -54 138z" />
    <glyph glyph-name="cedilla" unicode="&#xb8;" horiz-adv-x="880" 
d="M279 -432q193 0 192 119q0 96 -135 108l-8 17l116 188h119l-80 -119q43 -6 83 -19q40 -12 80 -54t40 -99q0 -175 -240 -209q-34 -4 -74 -4t-93 6v66z" />
    <glyph glyph-name="onesuperior" unicode="&#xb9;" horiz-adv-x="823" 
d="M145 557v55l78 11q33 4 46 19t14 54v512q0 61 -50 70l-83 12v53l360 50l16 -15v-682q0 -39 14 -54t46 -19l78 -11v-55h-519z" />
    <glyph glyph-name="ordmasculine" unicode="&#xba;" horiz-adv-x="874" 
d="M559 876q0 260 -122 259q-122 0 -122 -259t123 -260q121 0 121 260zM57 876q1 156 93 244t288 88q379 0 379 -332t-379 -333q-199 0 -290 89t-91 244z" />
    <glyph glyph-name="guillemotright" unicode="&#xbb;" horiz-adv-x="997" 
d="M72 119l161 356q16 39 0 74l-161 358l59 43l356 -397q35 -39 0 -80l-356 -397zM481 119l162 356q16 39 0 74l-162 358l60 43l356 -397q35 -39 0 -80l-356 -397z" />
    <glyph glyph-name="onequarter" unicode="&#xbc;" horiz-adv-x="1843" 
d="M150 557v55l77 11q33 4 46 19t14 54v512q0 61 -49 70l-84 12v53l360 50l16 -15v-682q0 -39 14 -54t46 -19l78 -11v-55h-518zM498 8l731 1415l108 -57l-733 -1421zM1294 291v346h-4q-70 -96 -211 -346h215zM1530 821v-530h137v-101h-137v-65q0 -35 10 -47t35 -17l55 -6
v-55h-456v55l75 8q45 6 45 62v65h-331l-29 54q211 336 399 577h197z" />
    <glyph glyph-name="onehalf" unicode="&#xbd;" horiz-adv-x="1843" 
d="M1438 633q0 55 -18 90t-52 35q-63 0 -100 -160q-18 -74 -88 -74q-47 0 -91 29t-45 80q0 82 92 142q92 61 238 61t234 -62t88 -172t-60 -168t-166 -102q-195 -78 -231 -164h344q35 0 54 12t44 51l58 -16l-64 -215h-637l-22 20q8 147 256 336q166 127 166 277zM109 557v55
l77 11q33 4 46 19t14 54v512q0 61 -49 70l-84 12v53l360 50l16 -15v-682q-1 -39 13 -54t47 -19l78 -11v-55h-518zM446 8l732 1415l108 -57l-733 -1421z" />
    <glyph glyph-name="threequarters" unicode="&#xbe;" horiz-adv-x="1843" 
d="M82 717q0 51 42 87t96 36t75 -68q53 -152 119 -151q46 0 72 44t26 126q0 164 -111 163q-27 0 -73 -12t-60 -12q-45 0 -45 64t45 63q12 -1 60 -13t73 -12q82 0 82 160q0 123 -73 123q-55 0 -95 -131q-18 -66 -84 -66q-45 0 -86 25t-43 71q2 76 88 127t226 51t232 -48
q91 -50 91 -160q0 -76 -52 -121t-126 -59v-7q89 -12 151 -69t62 -154q0 -96 -85 -164t-283 -67q-125 0 -225 47q-99 47 -99 127zM547 8l731 1415l108 -57l-733 -1421zM1352 291v346h-4q-70 -96 -211 -346h215zM1587 821v-530h137v-101h-137v-65q0 -35 10 -47t35 -17l56 -6
v-55h-457v55l76 8q45 6 45 62v65h-332l-29 54q211 336 400 577h196z" />
    <glyph glyph-name="questiondown" unicode="&#xbf;" horiz-adv-x="933" 
d="M268 838q0 84 54 137t137 53q84 0 137 -53t53 -137t-53 -138t-137 -53q-83 -1 -137 53t-54 138zM47 -141q0 103 78 166q49 40 137 88q152 78 152 180q0 47 -35 78q-59 52 -191 18l-22 55q150 100 289 100t221 -56t82 -164t-184 -222q-184 -112 -185 -295q0 -69 23 -113
q22 -44 62 -44q79 0 134 225q18 76 111 76q59 0 117 -38t57 -101q0 -90 -115 -173t-308 -83t-308 78t-115 225z" />
    <glyph glyph-name="Agrave" unicode="&#xc0;" horiz-adv-x="1318" 
d="M393 602h332l-160 531h-6zM-57 0v78q84 4 112.5 23.5t44 60t199.5 565.5l238 690h258l403 -1241q20 -61 49 -78.5t111 -19.5v-78h-647v78l118 12q57 6 35 74l-106 340h-398q-82 -268 -95 -321.5t-6 -73t40 -21.5l123 -10v-78h-479zM291 1717q0 40 32.5 87t79.5 47
t129 -61l353 -252l-29 -65l-416 131q-86 27 -117.5 50t-31.5 63z" />
    <glyph glyph-name="Aacute" unicode="&#xc1;" horiz-adv-x="1318" 
d="M393 602h332l-160 531h-6zM-57 0v78q84 4 112.5 23.5t44 60t199.5 565.5l238 690h258l403 -1241q20 -61 49 -78.5t111 -19.5v-78h-647v78l118 12q57 6 35 74l-106 340h-398q-82 -268 -95 -321.5t-6 -73t40 -21.5l123 -10v-78h-479zM922 1851q47 0 79.5 -47t32.5 -87
t-31.5 -63.5t-117.5 -49.5l-416 -131l-29 65l353 252q82 61 129 61z" />
    <glyph glyph-name="Acircumflex" unicode="&#xc2;" horiz-adv-x="1318" 
d="M393 602h332l-160 531h-6zM-57 0v78q84 4 112.5 23.5t44 60t199.5 565.5l238 690h258l403 -1241q20 -61 49 -78.5t111 -19.5v-78h-647v78l118 12q57 6 35 74l-106 340h-398q-82 -268 -95 -321.5t-6 -73t40 -21.5l123 -10v-78h-479zM668.5 1853q42.5 0 93.5 -47l291 -260
l-37 -61l-268 123q-57 31 -77.5 30.5t-82.5 -30.5l-266 -123l-39 61l290 258q53 49 95.5 49z" />
    <glyph glyph-name="Atilde" unicode="&#xc3;" horiz-adv-x="1318" 
d="M393 602h332l-160 531h-6zM-57 0v78q84 4 112.5 23.5t44 60t199.5 565.5l238 690h258l403 -1241q20 -61 49 -78.5t111 -19.5v-78h-647v78l118 12q57 6 35 74l-106 340h-398q-82 -268 -95 -321.5t-6 -73t40 -21.5l123 -10v-78h-479zM1104 1757q-96 -250 -277 -250
q-43 0 -174 43t-193 43t-94 -24.5t-67 -87.5l-66 37q30 77 75.5 138.5t94 86t109.5 24.5t186 -43q141 -43 191.5 -43t82.5 25t66 88z" />
    <glyph glyph-name="Adieresis" unicode="&#xc4;" horiz-adv-x="1318" 
d="M393 602h332l-160 531h-6zM-57 0v78q85 4 113 24t44 60t199 565l238 690h258l403 -1241q20 -61 49 -78.5t111 -19.5v-78h-647v78l118 12q57 6 35 74l-106 340h-398q-82 -268 -95 -322t-6 -73t40 -21l123 -10v-78h-479zM240 1650.5q0 61.5 44 107.5t117.5 46t117.5 -46
t44 -107.5t-44 -107.5t-117.5 -46t-117.5 46t-44 107.5zM756 1650.5q0 61.5 44 107.5t117.5 46t117.5 -46t44 -107.5t-44 -107.5t-117.5 -46t-117.5 46t-44 107.5z" />
    <glyph glyph-name="Aring" unicode="&#xc5;" horiz-adv-x="1318" 
d="M555 1559q0 -68 30 -106t76 -38q47 0 77 38t30 106q0 67 -31 105t-77 38t-75 -38q-30 -38 -30 -105zM393 602h332l-160 531h-6zM-57 0v78q85 4 113 23t44 60t199 566l221 639q-102 54 -102 182t70 183q72 55 174 55t173 -55t71 -181t-97 -182l389 -1192q20 -60 49 -78
t111 -20v-78h-647v78l118 12q57 6 35 74l-106 340h-398q-82 -268 -95 -322t-6 -72q7 -19 40 -22l123 -10v-78h-479z" />
    <glyph glyph-name="AE" unicode="&#xc6;" horiz-adv-x="1800" 
d="M750 797v514h-21q-98 -182 -258 -514h279zM-158 0v78q86 2 121 24.5t70 90.5q238 446 524 1046q39 80 -18 86l-131 14v78h1275v-379h-77q-27 88 -46.5 132t-53 84t-84 54.5t-128.5 14.5h-153q-43 0 -57.5 -14.5t-14.5 -59.5v-452h195q94 0 128.5 34.5t59.5 149.5h78v-475
h-78q-25 115 -59.5 149.5t-128.5 34.5h-195v-446q0 -94 51 -122t155.5 -28t148.5 7.5t79 32t55 42.5q45 40 113 250h78l-25 -426h-1136v78q111 4 136.5 23.5t25.5 97.5v491h-330q-156 -342 -227 -520q-31 -74 36 -80l131 -12v-78h-518z" />
    <glyph glyph-name="Ccedilla" unicode="&#xc7;" horiz-adv-x="1411" 
d="M86 702q0 334 184.5 540t595.5 206q291 0 441 -90v-367h-78q-62 202 -152 282.5t-211.5 80.5t-200.5 -52.5t-119 -124t-68.5 -188.5t-28.5 -222.5t6 -170t20 -144.5q25 -142 117.5 -265.5t261 -123.5t253.5 101.5t155 302.5h77l-24 -399q-147 -88 -430 -97l-58 -84
q203 -35 203 -174q0 -68 -34.5 -115t-90 -67t-102.5 -27.5t-94 -7.5t-103 6v68q201 0 201 125q0 51 -43 74.5t-90 27.5l-8 17l98 157q-346 18 -512 207.5t-166 523.5z" />
    <glyph glyph-name="Egrave" unicode="&#xc8;" horiz-adv-x="1288" 
d="M68 0v78q111 4 136 23.5t25 97.5v1020q0 78 -25.5 97t-135.5 23v78h1103v-379h-77q-27 88 -46.5 132t-53 84t-84 54.5t-128.5 14.5h-153q-43 0 -57.5 -14.5t-14.5 -59.5v-452h195q94 0 128.5 34.5t59.5 149.5h78v-475h-78q-25 115 -59.5 149.5t-128.5 34.5h-195v-446
q0 -94 51 -122t155.5 -28t148.5 7.5t79 32t55 42.5q45 40 113 250h78l-25 -426h-1144zM270 1717q0 40 33 87t80 47t129 -61l352 -252l-28 -65l-416 131q-86 27 -118 50t-32 63z" />
    <glyph glyph-name="Eacute" unicode="&#xc9;" horiz-adv-x="1288" 
d="M68 0v78q111 4 136 23.5t25 97.5v1020q0 78 -25.5 97t-135.5 23v78h1103v-379h-77q-27 88 -46.5 132t-53 84t-84 54.5t-128.5 14.5h-153q-43 0 -57.5 -14.5t-14.5 -59.5v-452h195q94 0 128.5 34.5t59.5 149.5h78v-475h-78q-25 115 -59.5 149.5t-128.5 34.5h-195v-446
q0 -94 51 -122t155.5 -28t148.5 7.5t79 32t55 42.5q45 40 113 250h78l-25 -426h-1144zM963 1851q47 0 79.5 -47t32.5 -87t-31.5 -63.5t-117.5 -49.5l-416 -131l-29 65l353 252q82 61 129 61z" />
    <glyph glyph-name="Ecircumflex" unicode="&#xca;" horiz-adv-x="1288" 
d="M68 0v78q111 4 136 23.5t25 97.5v1020q0 78 -25.5 97t-135.5 23v78h1103v-379h-77q-27 88 -46.5 132t-53 84t-84 54.5t-128.5 14.5h-153q-43 0 -57.5 -14.5t-14.5 -59.5v-452h195q94 0 128.5 34.5t59.5 149.5h78v-475h-78q-25 115 -59.5 149.5t-128.5 34.5h-195v-446
q0 -94 51 -122t155.5 -28t148.5 7.5t79 32t55 42.5q45 40 113 250h78l-25 -426h-1144zM697 1853q42 0 94 -47l290 -260l-37 -61l-268 123q-57 31 -77.5 30.5t-82.5 -30.5l-266 -123l-39 61l291 258q53 49 95 49z" />
    <glyph glyph-name="Edieresis" unicode="&#xcb;" horiz-adv-x="1288" 
d="M68 0v78q111 4 136 23.5t25 97.5v1020q0 78 -25.5 97t-135.5 23v78h1103v-379h-77q-27 88 -46.5 132t-53 84t-84 54.5t-128.5 14.5h-153q-43 0 -57.5 -14.5t-14.5 -59.5v-452h195q94 0 128.5 34.5t59.5 149.5h78v-475h-78q-25 115 -59.5 149.5t-128.5 34.5h-195v-446
q0 -94 51 -122t155.5 -28t148.5 7.5t79 32t55 42.5q45 40 113 250h78l-25 -426h-1144zM258 1650.5q0 61.5 44 107.5t118 46t118 -46t44 -107.5t-44 -107.5t-118 -46t-118 46t-44 107.5zM774 1650.5q0 61.5 44 107.5t118 46t118 -46t44 -107.5t-44 -107.5t-118 -46t-118 46
t-44 107.5z" />
    <glyph glyph-name="Igrave" unicode="&#xcc;" horiz-adv-x="786" 
d="M68 0v78q111 4 136 23.5t25 97.5v1020q0 78 -25.5 97t-135.5 23v78h651v-78q-111 -4 -136.5 -23.5t-25.5 -96.5v-1020q0 -78 25.5 -97.5t136.5 -23.5v-78h-651zM18 1717q0 40 33 87t80 47t129 -61l352 -252l-28 -65l-416 131q-86 27 -118 50t-32 63z" />
    <glyph glyph-name="Iacute" unicode="&#xcd;" horiz-adv-x="786" 
d="M68 0v78q111 4 136 23.5t25 97.5v1020q0 78 -25.5 97t-135.5 23v78h651v-78q-111 -4 -136.5 -23.5t-25.5 -96.5v-1020q0 -78 25.5 -97.5t136.5 -23.5v-78h-651zM651 1851q47 0 80 -47t33 -87t-32 -63.5t-118 -49.5l-415 -131l-29 65l352 252q82 61 129 61z" />
    <glyph glyph-name="Icircumflex" unicode="&#xce;" horiz-adv-x="786" 
d="M68 0v78q111 4 136 23.5t25 97.5v1020q0 78 -25.5 97t-135.5 23v78h651v-78q-111 -4 -136.5 -23.5t-25.5 -96.5v-1020q0 -78 25.5 -97.5t136.5 -23.5v-78h-651zM394 1853q42 0 93 -47l291 -260l-37 -61l-268 123q-57 31 -77.5 30.5t-82.5 -30.5l-266 -123l-39 61l291 258
q53 49 95 49z" />
    <glyph glyph-name="Idieresis" unicode="&#xcf;" horiz-adv-x="786" 
d="M68 0v78q111 4 136 23.5t25 97.5v1020q0 78 -25.5 97t-135.5 23v78h651v-78q-111 -4 -136.5 -23.5t-25.5 -96.5v-1020q0 -78 25.5 -97.5t136.5 -23.5v-78h-651zM-27 1650.5q0 61.5 44 107.5t118 46t118 -46t44 -107.5t-44 -107.5t-118 -46t-118 46t-44 107.5zM489 1650.5
q0 61.5 44.5 107.5t118 46t117.5 -46t44 -107.5t-44 -107.5t-117.5 -46t-118 46t-44.5 107.5z" />
    <glyph glyph-name="Eth" unicode="&#xd0;" horiz-adv-x="1603" 
d="M569 184q0 -51 35 -70q35 -20 125 -20t157 24q66 24 132 86q136 129 137 515q0 297 -105 451t-311 153q-98 0 -134 -11t-36 -46v-469h291v-99h-291v-514zM72 698v99h170v422q0 78 -26 97t-136 23v78h702q381 -2 558 -177t178 -517q0 -400 -226 -570q-170 -127 -452 -149
q-66 -4 -148 -4h-612v78q110 4 136 23t26 98v499h-170z" />
    <glyph glyph-name="Ntilde" unicode="&#xd1;" horiz-adv-x="1513" 
d="M57 0v78l72 10q66 8 75 104t9 324v703q0 78 -26 97t-136 23v78h486q164 -254 645 -975h8v459q0 227 -7 301t-27 100t-62 27l-115 10v78h494v-78l-72 -10q-66 -8 -75 -103t-9 -325v-901h-225q-367 571 -744 1143h-8v-627q0 -226 7 -300t27 -100t62 -28l115 -10v-78h-494z
M1006 1681q50 0 83 25q32 25 66 88l66 -37q-96 -250 -277 -250q-43 0 -174 43q-132 43 -194 43q-62 -1 -94 -25t-66 -87l-66 37q31 81 76 140q84 111 201 109q63 0 188 -43q141 -43 191 -43z" />
    <glyph glyph-name="Ograve" unicode="&#xd2;" horiz-adv-x="1572" 
d="M449 709q-1 -321 89 -491q34 -66 99 -110.5t149 -44.5q338 0 338 645.5t-337.5 645.5t-337.5 -645zM86 708.5q0 354.5 176 547t524.5 192.5t524.5 -192.5t176 -547t-176 -547t-524.5 -192.5t-524.5 192.5t-176 547zM408 1717q0 40 32.5 87t79.5 47t129 -61l352 -252
l-28 -65l-416 131q-86 27 -117.5 50t-31.5 63z" />
    <glyph glyph-name="Oacute" unicode="&#xd3;" horiz-adv-x="1572" 
d="M449 709q-1 -321 89 -491q34 -66 99 -110.5t149 -44.5q338 0 338 645.5t-337.5 645.5t-337.5 -645zM86 708.5q0 354.5 176 547t524.5 192.5t524.5 -192.5t176 -547t-176 -547t-524.5 -192.5t-524.5 192.5t-176 547zM1049 1851q47 0 79.5 -47t32.5 -87t-31.5 -63.5
t-117.5 -49.5l-416 -131l-29 65l353 252q82 61 129 61z" />
    <glyph glyph-name="Ocircumflex" unicode="&#xd4;" horiz-adv-x="1572" 
d="M449 709q-1 -321 89 -491q34 -66 99 -110.5t149 -44.5q338 0 338 645.5t-337.5 645.5t-337.5 -645zM86 708.5q0 354.5 176 547t524.5 192.5t524.5 -192.5t176 -547t-176 -547t-524.5 -192.5t-524.5 192.5t-176 547zM787 1853q42 0 94 -47l290 -260l-36 -61l-269 123
q-57 31 -77.5 30.5t-81.5 -30.5l-267 -123l-39 61l291 258q53 49 95 49z" />
    <glyph glyph-name="Otilde" unicode="&#xd5;" horiz-adv-x="1572" 
d="M449 709q-1 -321 89 -491q34 -66 99 -110.5t149 -44.5q338 0 338 645.5t-337.5 645.5t-337.5 -645zM86 708.5q0 354.5 176 547t524.5 192.5t524.5 -192.5t176 -547t-176 -547t-524.5 -192.5t-524.5 192.5t-176 547zM350 1518q94 249 278 249q62 0 187 -43
q141 -43 191 -43t82 25t67 88l66 -37q-29 -76 -75 -138.5t-94 -87t-99.5 -24.5t-182.5 43t-193.5 43t-94 -24.5t-66.5 -87.5z" />
    <glyph glyph-name="Odieresis" unicode="&#xd6;" horiz-adv-x="1572" 
d="M449 709q-1 -321 89 -491q34 -66 99 -110.5t149 -44.5q338 0 338 645.5t-337.5 645.5t-337.5 -645zM86 708.5q0 354.5 176 547t524.5 192.5t524.5 -192.5t176 -547t-176 -547t-524.5 -192.5t-524.5 192.5t-176 547zM367 1650.5q0 61.5 44 107.5t117.5 46t117.5 -46
t44 -107.5t-44 -107.5t-117.5 -46t-117.5 46t-44 107.5zM883 1650.5q0 61.5 44 107.5t117.5 46t117.5 -46t44 -107.5t-44 -107.5t-117.5 -46t-117.5 46t-44 107.5z" />
    <glyph glyph-name="multiply" unicode="&#xd7;" horiz-adv-x="1228" 
d="M154 166l338 340l-338 340l118 129l342 -344l340 344l121 -129l-338 -340l338 -340l-121 -125l-340 342l-342 -342z" />
    <glyph glyph-name="Oslash" unicode="&#xd8;" horiz-adv-x="1572" 
d="M786 63q104 1 176 59t104 164q54 180 58 423q-4 254 -53 403l-516 -926q84 -123 231 -123zM786 1354q-327 0 -337 -645q4 -258 49 -398l514 922q-80 121 -226 121zM86 709q0 355 176 547t524 192q178 0 316 -53l76 135l96 -53l-74 -131q287 -176 287 -637
q0 -354 -176 -547t-525 -193q-188 0 -321 58l-84 -152l-90 64l76 137q-281 180 -281 633z" />
    <glyph glyph-name="Ugrave" unicode="&#xd9;" horiz-adv-x="1609" 
d="M59 1417h639v-78q-104 -4 -129.5 -23.5t-25.5 -96.5v-787q0 -369 262 -369t262 369v787q0 78 -25.5 97t-130.5 23v78h639v-78q-104 -4 -129.5 -23.5t-25.5 -96.5v-758q-2 -260 -149.5 -376t-448.5 -116t-441.5 114t-140.5 378v758q0 78 -26 97t-130 23v78zM401 1717
q0 40 33 87t80 47t129 -61l352 -252l-28 -65l-416 131q-86 27 -118 50t-32 63z" />
    <glyph glyph-name="Uacute" unicode="&#xda;" horiz-adv-x="1609" 
d="M59 1417h639v-78q-104 -4 -129.5 -23.5t-25.5 -96.5v-787q0 -369 262 -369t262 369v787q0 78 -25.5 97t-130.5 23v78h639v-78q-104 -4 -129.5 -23.5t-25.5 -96.5v-758q-2 -260 -149.5 -376t-448.5 -116t-441.5 114t-140.5 378v758q0 78 -26 97t-130 23v78zM1096 1851
q47 0 79.5 -47t32.5 -87t-31.5 -63.5t-117.5 -49.5l-416 -131l-29 65l353 252q82 61 129 61z" />
    <glyph glyph-name="Ucircumflex" unicode="&#xdb;" horiz-adv-x="1609" 
d="M59 1417h639v-78q-104 -4 -129.5 -23.5t-25.5 -96.5v-787q0 -369 262 -369t262 369v787q0 78 -25.5 97t-130.5 23v78h639v-78q-104 -4 -129.5 -23.5t-25.5 -96.5v-758q-2 -260 -149.5 -376t-448.5 -116t-441.5 114t-140.5 378v758q0 78 -26 97t-130 23v78zM806 1853
q42 0 93 -47l291 -260l-37 -61l-268 123q-57 31 -77.5 30.5t-82.5 -30.5l-266 -123l-39 61l291 258q53 49 95 49z" />
    <glyph glyph-name="Udieresis" unicode="&#xdc;" horiz-adv-x="1609" 
d="M59 1417h639v-78q-104 -4 -129.5 -23.5t-25.5 -96.5v-787q0 -369 262 -369t262 369v787q0 78 -25.5 97t-130.5 23v78h639v-78q-104 -4 -129.5 -23.5t-25.5 -96.5v-758q-2 -260 -149.5 -376t-448.5 -116t-441.5 114t-140.5 378v758q0 78 -26 97t-130 23v78zM385 1650.5
q0 61.5 44 107.5t118 46t118 -46t44 -107.5t-44 -107.5t-118 -46t-118 46t-44 107.5zM901 1650.5q0 61.5 44 107.5t118 46t118 -46t44 -107.5t-44 -107.5t-118 -46t-118 46t-44 107.5z" />
    <glyph glyph-name="Yacute" unicode="&#xdd;" horiz-adv-x="1263" 
d="M-25 1417h648v-78l-111 -12q-55 -8 -29 -67l252 -560h6q29 66 118.5 255t122 277.5t-27.5 94.5l-106 12v78h493v-78q-84 -10 -120.5 -30.5t-71.5 -79.5q-104 -182 -297 -572q-37 -78 -37 -145v-313q0 -78 31 -97.5t166 -23.5v-78h-721v78q135 4 165.5 23.5t30.5 97.5v293
q0 55 -43 141l-297 590q-35 72 -63.5 91t-108.5 25v78zM960.5 1851q47.5 0 80 -47t32.5 -87t-31.5 -63.5t-117.5 -49.5l-416 -131l-29 65l352 252q82 61 129.5 61z" />
    <glyph glyph-name="Thorn" unicode="&#xde;" horiz-adv-x="1310" 
d="M557 528q0 -43 27 -58t92 -15q254 0 254 288q0 147 -70 216t-163 69t-117 -16t-23 -62v-422zM68 0v78q110 4 136 23t25 98v1020q0 78 -25 97q-26 19 -136 23v78h649v-78q-109 -4 -135 -23t-25 -97v-97h176q261 0 401 -88t140 -291q0 -100 -41 -173q-41 -74 -103 -112
t-152 -62q-91 -24 -167 -30t-172 -6h-82v-161q0 -77 31 -97t166 -28v-74h-686z" />
    <glyph glyph-name="germandbls" unicode="&#xdf;" horiz-adv-x="1355" 
d="M59 0v74q86 8 108 23t21 77v830q0 242 103 356q61 74 169 117t234 43q234 0 358 -85q125 -90 127 -255q1 -96 -53 -156q-98 -8 -152 -56t-54 -121t57 -125q57 -53 105 -87q99 -69 156 -127q89 -91 87 -213q0 -152 -99 -236t-280 -84q-118 0 -196 40t-78 102q0 43 35 73
t71 31q36 0 64 -41q74 -111 139 -110q35 0 61 26t25 81q0 55 -49 113t-162 132q-217 139 -217 321q0 96 58 173t153 102q41 58 41 164t-51 175t-141 69q-89 0 -145 -99q-56 -98 -56 -280v-873q0 -61 21 -77q22 -15 108 -23v-74h-568z" />
    <glyph glyph-name="agrave" unicode="&#xe0;" horiz-adv-x="1114" 
d="M209 1394q0 38 36 80t69.5 42t65.5 -21.5t89 -81.5l297 -305l-43 -61l-375 210q-68 37 -103.5 68t-35.5 69zM399 307q0 -78 44 -125t100.5 -47t94.5 32t40 107v297q-168 -76 -184 -86q-95 -53 -95 -178zM84 272q0 182 217 256q94 33 149 50q169 54 228 96v108
q0 152 -119 152q-113 0 -180 -205q-27 -82 -83 -82t-120.5 34t-64.5 95q0 104 133 178t352 74q284 0 352 -132q32 -62 31 -155v-473q0 -133 65 -153q43 -14 99 -11l6 -67q-156 -61 -303 -62q-68 0 -101.5 31t-58.5 88q-6 -4 -32 -22q-26 -17 -36 -23q-10 -7 -36 -21
q-94 -54 -189 -53q-147 0 -228 87t-81 210z" />
    <glyph glyph-name="aacute" unicode="&#xe1;" horiz-adv-x="1114" 
d="M399 307q0 -78 44 -125t100.5 -47t94.5 32t40 107v297q-168 -76 -184 -86q-95 -53 -95 -178zM84 272q0 182 217 256q94 33 149 50q169 54 228 96v108q0 152 -119 152q-113 0 -180 -205q-27 -82 -83 -82t-120.5 34t-64.5 95q0 104 133 178t352 74q284 0 352 -132
q32 -62 31 -155v-473q0 -133 65 -153q43 -14 99 -11l6 -67q-156 -61 -303 -62q-68 0 -101.5 31t-58.5 88q-6 -4 -32 -22q-26 -17 -36 -23q-10 -7 -36 -21q-94 -54 -189 -53q-147 0 -228 87t-81 210zM853 1516q34 0 69.5 -42t35.5 -80t-35.5 -69t-103.5 -68l-375 -210l-43 61
l297 305q57 59 89 81t66 22z" />
    <glyph glyph-name="acircumflex" unicode="&#xe2;" horiz-adv-x="1114" 
d="M399 307q0 -78 44 -125t100.5 -47t94.5 32t40 107v297q-168 -76 -184 -86q-95 -53 -95 -178zM84 272q0 182 217 256q94 33 149 50q169 54 228 96v108q0 152 -119 152q-113 0 -180 -205q-27 -82 -83 -82t-120.5 34t-64.5 95q0 104 133 178t352 74q284 0 352 -132
q32 -62 31 -155v-473q0 -133 65 -153q43 -14 99 -11l6 -67q-156 -61 -303 -62q-68 0 -101.5 31t-58.5 88q-6 -4 -32 -22q-26 -17 -36 -23q-10 -7 -36 -21q-94 -54 -189 -53q-147 0 -228 87t-81 210zM569.5 1296q-22.5 0 -77.5 -39l-256 -192l-50 55l293 346q53 63 89 63.5
t91 -63.5l293 -346l-49 -55l-256 192q-55 39 -77.5 39z" />
    <glyph glyph-name="atilde" unicode="&#xe3;" horiz-adv-x="1114" 
d="M399 307q0 -78 44 -125t100.5 -47t94.5 32t40 107v297q-168 -76 -184 -86q-95 -53 -95 -178zM84 272q0 182 217 256q94 33 149 50q169 54 228 96v108q0 152 -119 152q-113 0 -180 -205q-27 -82 -83 -82t-120.5 34t-64.5 95q0 104 133 178t352 74q284 0 352 -132
q32 -62 31 -155v-473q0 -133 65 -153q43 -14 99 -11l6 -67q-156 -61 -303 -62q-68 0 -101.5 31t-58.5 88q-6 -4 -32 -22q-26 -17 -36 -23q-10 -7 -36 -21q-94 -54 -189 -53q-147 0 -228 87t-81 210zM410 1419q63 0 188 -43q141 -43 191 -43t82 24.5t67 88.5l66 -37
q-30 -79 -76 -140q-82 -110 -201 -110q-43 0 -174 43t-193.5 43t-94.5 -24.5t-66 -87.5l-66 36q96 250 277 250z" />
    <glyph glyph-name="adieresis" unicode="&#xe4;" horiz-adv-x="1114" 
d="M399 307q0 -78 44 -125t100.5 -47t94.5 32t40 107v297q-168 -76 -184 -86q-95 -53 -95 -178zM84 272q0 182 217 256q94 33 149 50q169 54 228 96v108q0 152 -119 152q-113 0 -180 -205q-27 -82 -83 -82t-120.5 34t-64.5 95q0 104 133 178t352 74q284 0 352 -132
q32 -62 31 -155v-473q0 -133 65 -153q43 -14 99 -11l6 -67q-156 -61 -303 -62q-68 0 -101.5 31t-58.5 88q-6 -4 -32 -22q-26 -17 -36 -23q-10 -7 -36 -21q-94 -54 -189 -53q-147 0 -228 87t-81 210zM166 1300.5q0 61.5 44 107.5t117.5 46t117.5 -46t44 -107.5t-44 -107.5
t-117.5 -46t-117.5 46t-44 107.5zM657 1300.5q0 61.5 44 107.5t118 46t118 -46t44 -107.5t-44 -107.5t-118 -46t-118 46t-44 107.5z" />
    <glyph glyph-name="aring" unicode="&#xe5;" horiz-adv-x="1114" 
d="M399 307q0 -78 44 -125q45 -47 101 -47t94 32t40 107v297q-168 -76 -184 -86q-95 -53 -95 -178zM84 272q0 182 217 256q46 16 186 62t191 84v108q0 152 -119 152q-113 0 -180 -205q-27 -82 -83 -82t-121 34t-64 95q0 104 133 178t352 74q285 0 351 -132q22 -42 27 -75
t5 -80v-473q0 -133 65 -153q43 -14 99 -11l6 -67q-156 -61 -303 -62q-68 0 -102 31t-58 88q-154 -103 -241 -116q-26 -3 -52 -3q-147 0 -228 87t-81 210zM451 1333q-1 -67 29 -105t76 -38t77 38t31 106t-31 105q-31 38 -77 38t-76 -38t-29 -106zM313 1332q0 118 71 173
t173 55t173 -54q71 -56 71 -174t-71 -172t-173 -54t-173 54t-71 172z" />
    <glyph glyph-name="ae" unicode="&#xe6;" horiz-adv-x="1650" 
d="M979 614h258q37 0 50 13.5t13 54.5q0 252 -145 252q-94 0 -135 -93.5t-41 -226.5zM399 307q0 -78 44 -125t100.5 -47t94.5 32t40 107v297q-168 -76 -184 -86q-95 -53 -95 -178zM84 254.5q0 107.5 49 171t166 104.5q290 94 379 144v108q0 152 -119 152q-113 0 -180 -205
q-27 -82 -83 -82t-120.5 34t-64.5 95q0 104 131 178t335 74t289 -119q139 119 316 119q117 0 204 -35t131 -82q105 -112 105 -309q0 -47 -26.5 -66.5t-84.5 -19.5h-532q0 -383 276 -383q178 0 275 182l74 -41q-115 -299 -447 -299q-258 -2 -375 179l-96 -62
q-4 -2 -23.5 -15.5t-26.5 -17.5t-26.5 -16t-31 -18.5t-31 -15.5t-35.5 -13t-45 -12.5t-74 -8.5q-147 0 -228 86t-81 193.5z" />
    <glyph glyph-name="ccedilla" unicode="&#xe7;" horiz-adv-x="1011" 
d="M70 504q0 248 138 386t380 138q152 0 271.5 -61.5t119.5 -163.5q0 -61 -53.5 -94t-123 -33t-91.5 72q-29 98 -59.5 142t-82.5 44q-72 0 -123 -99.5t-51 -306t74 -301t175 -94.5t162.5 42t113.5 144l71 -32q-88 -281 -375 -307l-65 -99q43 -6 83 -19.5t80 -54t40 -98
t-24 -96.5q-40 -67 -124 -92t-146.5 -25t-113.5 6v66q193 0 193 119q0 96 -136 108l-8 17l105 168q-201 12 -315.5 144t-114.5 380z" />
    <glyph glyph-name="egrave" unicode="&#xe8;" horiz-adv-x="1062" 
d="M215 1394q0 38 36 80t70 42t65.5 -21.5t88.5 -81.5l297 -305l-43 -61l-375 210q-68 37 -103.5 68t-35.5 69zM395 614h254q37 0 50.5 13.5t13.5 54.5q0 252 -146 252q-90 0 -131 -94.5t-41 -225.5zM575 1028q113 0 199 -28.5t134 -71.5q126 -113 126 -326
q0 -47 -26.5 -66.5t-83.5 -19.5h-529q0 -383 275 -383q178 0 274 182l74 -41q-115 -299 -447 -299q-276 0 -388.5 152.5t-112.5 380t122.5 374t382.5 146.5z" />
    <glyph glyph-name="eacute" unicode="&#xe9;" horiz-adv-x="1062" 
d="M395 614h254q37 0 50.5 13.5t13.5 54.5q0 252 -146 252q-90 0 -131 -94.5t-41 -225.5zM575 1028q113 0 199 -28.5t134 -71.5q126 -113 126 -326q0 -47 -26.5 -66.5t-83.5 -19.5h-529q0 -383 275 -383q178 0 274 182l74 -41q-115 -299 -447 -299q-276 0 -388.5 152.5
t-112.5 380t122.5 374t382.5 146.5zM839 1516q34 0 69.5 -42t35.5 -80t-36 -69t-103 -68l-375 -210l-43 61l297 305q57 59 89 81t66 22z" />
    <glyph glyph-name="ecircumflex" unicode="&#xea;" horiz-adv-x="1062" 
d="M395 614h254q37 0 50.5 13.5t13.5 54.5q0 252 -146 252q-90 0 -131 -94.5t-41 -225.5zM575 1028q113 0 199 -28.5t134 -71.5q126 -113 126 -326q0 -47 -26.5 -66.5t-83.5 -19.5h-529q0 -383 275 -383q178 0 274 182l74 -41q-115 -299 -447 -299q-276 0 -388.5 152.5
t-112.5 380t122.5 374t382.5 146.5zM565.5 1296q-22.5 0 -78.5 -39l-256 -192l-49 55l293 346q53 63 89 63.5t91 -63.5l293 -346l-49 -55l-256 192q-55 39 -77.5 39z" />
    <glyph glyph-name="edieresis" unicode="&#xeb;" horiz-adv-x="1062" 
d="M395 614h254q37 0 50.5 13.5t13.5 54.5q0 252 -146 252q-90 0 -131 -94.5t-41 -225.5zM575 1028q113 0 199 -28.5t134 -71.5q126 -113 126 -326q0 -47 -26.5 -66.5t-83.5 -19.5h-529q0 -383 275 -383q178 0 274 182l74 -41q-115 -299 -447 -299q-276 0 -388.5 152.5
t-112.5 380t122.5 374t382.5 146.5zM154 1300.5q0 61.5 44 107.5t117.5 46t117.5 -46t44 -107.5t-44 -107.5t-117.5 -46t-117.5 46t-44 107.5zM645 1300.5q0 61.5 44 107.5t118 46t118 -46t44 -107.5t-44 -107.5t-118 -46t-118 46t-44 107.5z" />
    <glyph glyph-name="eth" unicode="&#xf0;" horiz-adv-x="1198" 
d="M395 502q0 -432 204 -432t204 432t-204 432t-204 -432zM70 502q0 526 528 526q25 0 59 -6v6q-61 78 -153 164l-271 -117l-51 80l248 107q-78 72 -211 172v24l96 62q166 -88 297 -181l310 131l53 -77l-279 -119q106 -80 207 -187q225 -248 225 -573q0 -539 -528 -539
q-530 1 -530 527z" />
    <glyph glyph-name="ntilde" unicode="&#xf1;" horiz-adv-x="1306" 
d="M53 0v78q88 4 111 20t22 80v602q0 60 -11 80t-38 25l-71 10v74l403 59l27 -141q96 57 131 77t99 42q64 23 120 22q154 0 230 -83t79 -232v-535q0 -64 23 -80t110 -20v-78h-551v78l43 4q35 4 50 19t16 63v520q-6 186 -162 186q-119 0 -168 -100q-20 -41 -20 -121v-485
q0 -46 15 -62t50 -20l43 -4v-78h-551zM460 1245q-62 -1 -94 -25t-67 -87l-66 36q97 253 277 250q63 0 188 -43q142 -43 192 -43t82 25t66 88l66 -37q-96 -250 -277 -250q-43 0 -174 43t-193 43z" />
    <glyph glyph-name="ograve" unicode="&#xf2;" horiz-adv-x="1198" 
d="M221 1394q0 38 36 80t70 42t65.5 -21.5t88.5 -81.5l297 -305l-43 -61l-375 210q-68 37 -103.5 68t-35.5 69zM395 502q0 -432 205 -432t205 432t-205 432t-205 -432zM70 501.5q0 526.5 530 526.5t530 -526.5t-530 -526.5t-530 526.5z" />
    <glyph glyph-name="oacute" unicode="&#xf3;" horiz-adv-x="1198" 
d="M395 502q0 -432 205 -432t205 432t-205 432t-205 -432zM70 501.5q0 526.5 530 526.5t530 -526.5t-530 -526.5t-530 526.5zM865 1516q34 0 70 -42t36 -80t-36 -69t-104 -68l-374 -210l-43 61l297 305q57 59 88.5 81t65.5 22z" />
    <glyph glyph-name="ocircumflex" unicode="&#xf4;" horiz-adv-x="1198" 
d="M395 502q0 -432 205 -432t205 432t-205 432t-205 -432zM70 501.5q0 526.5 530 526.5t530 -526.5t-530 -526.5t-530 526.5zM600.5 1296q-22.5 0 -78.5 -39l-256 -192l-49 55l293 346q53 63 89 63.5t91 -63.5l293 -346l-49 -55l-256 192q-55 39 -77.5 39z" />
    <glyph glyph-name="otilde" unicode="&#xf5;" horiz-adv-x="1198" 
d="M395 502q0 -432 205 -432t205 432t-205 432t-205 -432zM70 501.5q0 526.5 530 526.5t530 -526.5t-530 -526.5t-530 526.5zM440 1419q63 0 189 -43q141 -43 191 -43t82 24.5t67 88.5l65 -37q-96 -250 -276 -250q-43 0 -174 43t-193.5 43t-94.5 -24.5t-67 -87.5l-65 36
q96 250 276 250z" />
    <glyph glyph-name="odieresis" unicode="&#xf6;" horiz-adv-x="1198" 
d="M395 502q0 -432 205 -432t205 432t-205 432t-205 -432zM70 501.5q0 526.5 530 526.5t530 -526.5t-530 -526.5t-530 526.5zM193 1300.5q0 61.5 44 107.5t117.5 46t117.5 -46t44 -107.5t-44 -107.5t-117.5 -46t-117.5 46t-44 107.5zM684 1300.5q0 61.5 44 107.5t118 46
t118 -46t44 -107.5t-44 -107.5t-118 -46t-118 46t-44 107.5z" />
    <glyph glyph-name="divide" unicode="&#xf7;" horiz-adv-x="1228" 
d="M119 430v164h991v-164h-991zM475 868q0 60 40 102t99 42q60 0 102 -41t44 -99l-2 -4q0 -59 -41 -101t-101 -42t-101 42q-40 42 -40 101zM475 156q0 59 40 101t99 42q60 0 102 -41t44 -98l-2 -4q0 -60 -41 -102t-101 -42t-101 42q-40 42 -40 102z" />
    <glyph glyph-name="oslash" unicode="&#xf8;" horiz-adv-x="1198" 
d="M600 70q211 0 211 432q0 137 -20 231l-347 -565q49 -98 156 -98zM387 502q0 -129 19 -217l344 561q-53 88 -150 88q-213 0 -213 -432zM70 502q0 526 530 526q139 0 238 -37l65 105l80 -49l-59 -95q205 -125 204 -450q0 -526 -528 -527q-137 0 -248 41l-73 -120l-76 57
l63 104q-196 126 -196 445z" />
    <glyph glyph-name="ugrave" unicode="&#xf9;" horiz-adv-x="1288" 
d="M215 1394q0 38 36 80t70 42t65.5 -21.5t88.5 -81.5l297 -305l-43 -61l-375 210q-68 37 -103.5 68t-35.5 69zM477 360q0 -223 172 -223q63 0 104.5 29t57.5 68.5t16 113.5v432q0 59 -11 80t-38 25l-71 10v74l415 59l15 -12v-838q0 -63 22.5 -79.5t110.5 -20.5v-78h-426
l-17 115q-138 -92 -219.5 -116t-142.5 -24q-127 0 -212 71t-85 237v497q0 59 -11.5 80t-37.5 25l-72 10v74l416 59l14 -12v-656z" />
    <glyph glyph-name="uacute" unicode="&#xfa;" horiz-adv-x="1288" 
d="M477 360q0 -223 172 -223q63 0 104.5 29t57.5 68.5t16 113.5v432q0 59 -11 80t-38 25l-71 10v74l415 59l15 -12v-838q0 -63 22.5 -79.5t110.5 -20.5v-78h-426l-17 115q-138 -92 -219.5 -116t-142.5 -24q-127 0 -212 71t-85 237v497q0 59 -11.5 80t-37.5 25l-72 10v74
l416 59l14 -12v-656zM941 1516q34 0 70 -42t36 -80t-36 -69t-104 -68l-375 -210l-43 61l297 305q57 59 89 81t66 22z" />
    <glyph glyph-name="ucircumflex" unicode="&#xfb;" horiz-adv-x="1288" 
d="M477 360q0 -223 172 -223q63 0 104.5 29t57.5 68.5t16 113.5v432q0 59 -11 80t-38 25l-71 10v74l415 59l15 -12v-838q0 -63 22.5 -79.5t110.5 -20.5v-78h-426l-17 115q-138 -92 -219.5 -116t-142.5 -24q-127 0 -212 71t-85 237v497q0 59 -11.5 80t-37.5 25l-72 10v74
l416 59l14 -12v-656zM645.5 1296q-22.5 0 -78.5 -39l-256 -192l-49 55l293 346q53 63 89 63.5t91 -63.5l293 -346l-49 -55l-256 192q-55 39 -77.5 39z" />
    <glyph glyph-name="udieresis" unicode="&#xfc;" horiz-adv-x="1288" 
d="M477 360q0 -223 172 -223q63 0 104.5 29t57.5 68.5t16 113.5v432q0 59 -11 80t-38 25l-71 10v74l415 59l15 -12v-838q0 -63 22.5 -79.5t110.5 -20.5v-78h-426l-17 115q-138 -92 -219.5 -116t-142.5 -24q-127 0 -212 71t-85 237v497q0 59 -11.5 80t-37.5 25l-72 10v74
l416 59l14 -12v-656zM238 1300.5q0 61.5 44 107.5t117.5 46t117.5 -46t44 -107.5t-44 -107.5t-117.5 -46t-117.5 46t-44 107.5zM729 1300.5q0 61.5 44 107.5t118 46t118 -46t44 -107.5t-44 -107.5t-118 -46t-118 46t-44 107.5z" />
    <glyph glyph-name="yacute" unicode="&#xfd;" horiz-adv-x="1073" 
d="M-25 1004h574v-78l-78 -13q-47 -6 -25 -67q37 -113 116 -324t91 -248h4q152 461 187 578q14 55 -31 61l-84 13v78h412v-78l-43 -4q-41 -4 -63.5 -33t-53.5 -101q-231 -559 -363 -911q-80 -213 -157.5 -293t-188.5 -80q-63 0 -114.5 36t-51.5 94t41 111.5t82.5 53.5
t100.5 -43q37 -31 73 -30q53 0 80 100q16 63 -12 135q-150 391 -350 870q-31 74 -78 84l-68 11v78zM894 1516q34 0 69.5 -42t35.5 -80t-35.5 -69t-103.5 -68l-375 -210l-43 61l297 305q57 59 89 81t66 22z" />
    <glyph glyph-name="thorn" unicode="&#xfe;" horiz-adv-x="1247" 
d="M469 311q0 -63 8 -104q29 -137 162 -137q213 0 213 415q0 223 -57 305t-148 80q-121 0 -164 -122q-14 -41 -14 -113v-324zM160 -293v1524q0 57 -12 80t-37 26l-72 13v73l416 56l14 -13v-579q61 47 102 73q113 70 236 68q155 0 263 -128t108 -370q0 -328 -161 -448
q-143 -107 -375 -107q-112 0 -173 25v-293q0 -63 28 -79t142 -21v-78h-612v78q89 4 111 20t22 80z" />
    <glyph glyph-name="ydieresis" unicode="&#xff;" horiz-adv-x="1073" 
d="M-25 1004h574v-78l-78 -13q-47 -6 -25 -67q37 -113 116 -324t91 -248h4q152 461 187 578q14 55 -31 61l-84 13v78h412v-78l-43 -4q-41 -4 -63.5 -33t-53.5 -101q-231 -559 -363 -911q-80 -213 -157.5 -293t-188.5 -80q-63 0 -114.5 36t-51.5 94t41 111.5t82.5 53.5
t100.5 -43q37 -31 73 -30q53 0 80 100q16 63 -12 135q-150 391 -350 870q-31 74 -78 84l-68 11v78zM170 1300.5q0 61.5 44 107.5t118 46t118 -46t44 -107.5t-44 -107.5t-118 -46t-118 46t-44 107.5zM662 1300.5q0 61.5 44 107.5t117.5 46t117.5 -46t44 -107.5t-44 -107.5
t-117.5 -46t-117.5 46t-44 107.5z" />
    <glyph glyph-name="Amacron" unicode="&#x100;" horiz-adv-x="1318" 
d="M393 602h332l-160 531h-6zM-57 0v78q85 4 113 24t44 60t199 565l238 690h258l403 -1241q20 -61 49 -78.5t111 -19.5v-78h-647v78l118 12q57 6 35 74l-106 340h-398q-82 -268 -95 -322t-6 -73t40 -21l123 -10v-78h-479zM307 1567v178h717v-178h-717z" />
    <glyph glyph-name="amacron" unicode="&#x101;" horiz-adv-x="1114" 
d="M399 307q0 -78 44 -125t100.5 -47t94.5 32t40 107v297q-168 -76 -184 -86q-95 -53 -95 -178zM84 272q0 182 217 256q94 33 149 50q169 54 228 96v108q0 152 -119 152q-113 0 -180 -205q-27 -82 -83 -82t-120.5 34t-64.5 95q0 104 133 178t352 74q284 0 352 -132
q32 -62 31 -155v-473q0 -133 65 -153q43 -14 99 -11l6 -67q-156 -61 -303 -62q-68 0 -101.5 31t-58.5 88q-6 -4 -32 -22q-26 -17 -36 -23q-10 -7 -36 -21q-94 -54 -189 -53q-147 0 -228 87t-81 210zM276 1202v178h637v-178h-637z" />
    <glyph glyph-name="Abreve" unicode="&#x102;" horiz-adv-x="1318" 
d="M328 1835h84q4 -51 62 -96t191.5 -45t191.5 45t63 96h84q0 -219 -166 -281q-70 -26 -172 -26q-204 0 -277 98q-61 82 -61 209zM393 602h332l-160 531h-6zM-57 0v78q84 4 112.5 23.5t44 60t199.5 565.5l238 690h258l403 -1241q20 -61 49 -78.5t111 -19.5v-78h-647v78
l118 12q57 6 35 74l-106 340h-398q-82 -268 -95 -321.5t-6 -73t40 -21.5l123 -10v-78h-479z" />
    <glyph glyph-name="abreve" unicode="&#x103;" horiz-adv-x="1114" 
d="M268 1466h78q4 -46 37 -83q62 -70 205 -70t196.5 48t57.5 105h80q0 -124 -54 -216q-65 -112 -274.5 -111.5t-271.5 107.5q-54 91 -54 220zM399 307q0 -78 44 -125t100.5 -47t94.5 32t40 107v297q-168 -76 -184 -86q-95 -53 -95 -178zM84 272q0 182 217 256q94 33 149 50
q169 54 228 96v108q0 152 -119 152q-113 0 -180 -205q-27 -82 -83 -82t-120.5 34t-64.5 95q0 104 133 178t352 74q284 0 352 -132q32 -62 31 -155v-473q0 -133 65 -153q43 -14 99 -11l6 -67q-156 -61 -303 -62q-68 0 -101.5 31t-58.5 88q-6 -4 -32 -22q-26 -17 -36 -23
q-10 -7 -36 -21q-94 -54 -189 -53q-147 0 -228 87t-81 210z" />
    <glyph glyph-name="aogonek" unicode="&#x105;" horiz-adv-x="1114" 
d="M399 307q0 -78 44 -125t100.5 -47t94.5 32t40 107v297q-168 -76 -184 -86q-95 -53 -95 -178zM84 272q0 182 217 256q94 33 149 50q169 54 228 96v108q0 152 -119 152q-113 0 -180 -205q-27 -82 -83 -82t-120.5 34t-64.5 95q0 104 133 178t352 74q284 0 352 -132
q32 -62 31 -155v-473q0 -133 65 -153q43 -14 99 -11l6 -67q-27 -10 -250 -72q-47 -12 -95 -88t-48 -137t32.5 -93t87.5 -32t99 27l31 -56q-98 -82 -215 -82q-242 0 -242 195q0 78 64.5 158t164.5 129q-57 23 -92 108q-6 -4 -32 -22q-26 -17 -36 -23q-10 -7 -36 -21
q-94 -54 -189 -53q-147 0 -228 87t-81 210z" />
    <glyph glyph-name="Cacute" unicode="&#x106;" horiz-adv-x="1411" 
d="M86 694q0 342 184.5 548t595.5 206q291 0 441 -90v-367h-78q-62 202 -152 282.5t-211.5 80.5t-200.5 -52.5t-119 -124t-68.5 -188.5t-28.5 -222.5t6 -170t20 -144.5q25 -142 117.5 -265.5t261 -123.5t253.5 101.5t155 302.5h77l-24 -399q-164 -98 -479 -99
q-381 0 -565.5 191.5t-184.5 533.5zM1130.5 1851q47.5 0 80 -47t32.5 -87t-31.5 -63.5t-117.5 -49.5l-416 -131l-29 65l352 252q82 61 129.5 61z" />
    <glyph glyph-name="cacute" unicode="&#x107;" horiz-adv-x="1011" 
d="M70 497q0 255 138 393t380 138q152 0 271.5 -61.5t119.5 -163.5q0 -61 -53.5 -94t-123 -33t-91.5 72q-29 98 -59.5 142t-82.5 44q-72 0 -123 -99.5t-51 -306t74 -301t175 -94.5t162.5 42t113.5 144l71 -32q-98 -311 -440 -312q-223 0 -352 133.5t-129 388.5zM855 1516
q34 0 70 -42t36 -80t-36 -69t-104 -68l-375 -210l-43 61l297 305q57 59 89 81t66 22z" />
    <glyph glyph-name="Ccircumflex" unicode="&#x108;" horiz-adv-x="1411" 
d="M86 694q0 342 184.5 548t595.5 206q291 0 441 -90v-367h-78q-62 202 -152 282.5t-211.5 80.5t-200.5 -52.5t-119 -124t-68.5 -188.5t-28.5 -222.5t6 -170t20 -144.5q25 -142 117.5 -265.5t261 -123.5t253.5 101.5t155 302.5h77l-24 -399q-164 -98 -479 -99
q-381 0 -565.5 191.5t-184.5 533.5zM867 1853q42 0 94 -47l290 -260l-37 -61l-268 123q-57 31 -77.5 30.5t-82.5 -30.5l-266 -123l-39 61l291 258q53 49 95 49z" />
    <glyph glyph-name="ccircumflex" unicode="&#x109;" horiz-adv-x="1011" 
d="M70 497q0 255 138 393t380 138q152 0 271.5 -61.5t119.5 -163.5q0 -61 -53.5 -94t-123 -33t-91.5 72q-29 98 -59.5 142t-82.5 44q-72 0 -123 -99.5t-51 -306t74 -301t175 -94.5t162.5 42t113.5 144l71 -32q-98 -311 -440 -312q-223 0 -352 133.5t-129 388.5zM588 1296
q-23 0 -78 -39l-256 -192l-49 55l293 346q53 63 89 63.5t91 -63.5l293 -346l-49 -55l-256 192q-55 39 -78 39z" />
    <glyph glyph-name="Cdotaccent" unicode="&#x10a;" horiz-adv-x="1411" 
d="M86 694q0 342 184.5 548t595.5 206q291 0 441 -90v-367h-78q-62 202 -152 282.5t-211.5 80.5t-200.5 -52.5t-119 -124t-68.5 -188.5t-28.5 -222.5t6 -170t20 -144.5q25 -142 117.5 -265.5t261 -123.5t253.5 101.5t155 302.5h77l-24 -399q-164 -98 -479 -99
q-381 0 -565.5 191.5t-184.5 533.5zM705 1650.5q0 61.5 44 107.5t117.5 46t117.5 -46t44 -107.5t-44 -107.5t-117.5 -46t-117.5 46t-44 107.5z" />
    <glyph glyph-name="cdotaccent" unicode="&#x10b;" horiz-adv-x="1011" 
d="M70 497q0 255 138 393t380 138q152 0 271.5 -61.5t119.5 -163.5q0 -61 -53.5 -94t-123 -33t-91.5 72q-29 98 -59.5 142t-82.5 44q-72 0 -123 -99.5t-51 -306t74 -301t175 -94.5t162.5 42t113.5 144l71 -32q-98 -311 -440 -312q-223 0 -352 133.5t-129 388.5zM426 1300.5
q0 61.5 44 107.5t118 46t118 -46t44 -107.5t-44 -107.5t-118 -46t-118 46t-44 107.5z" />
    <glyph glyph-name="Ccaron" unicode="&#x10c;" horiz-adv-x="1411" 
d="M86 694q0 342 184.5 548t595.5 206q291 0 441 -90v-367h-78q-62 202 -152 282.5t-211.5 80.5t-200.5 -52.5t-119 -124t-68.5 -188.5t-28.5 -222.5t6 -170t20 -144.5q25 -142 117.5 -265.5t261 -123.5t253.5 101.5t155 302.5h77l-24 -399q-164 -98 -479 -99
q-381 0 -565.5 191.5t-184.5 533.5zM868 1722q21 0 78 31l268 123l37 -61l-290 -261q-51 -47 -93.5 -47t-95.5 49l-291 259l39 61l266 -123q61 -31 82 -31z" />
    <glyph glyph-name="ccaron" unicode="&#x10d;" horiz-adv-x="1011" 
d="M70 497q0 255 138 393t380 138q152 0 271.5 -61.5t119.5 -163.5q0 -61 -53.5 -94t-123 -33t-91.5 72q-29 98 -59.5 142t-82.5 44q-72 0 -123 -99.5t-51 -306t74 -301t175 -94.5t162.5 42t113.5 144l71 -32q-98 -311 -440 -312q-223 0 -352 133.5t-129 388.5zM587.5 1298
q22.5 0 78.5 39l256 193l49 -55l-293 -347q-55 -63 -91 -63t-89 63l-293 347l49 55l256 -193q55 -39 77.5 -39z" />
    <glyph glyph-name="Dcaron" unicode="&#x10e;" horiz-adv-x="1591" 
d="M557 184q0 -51 35 -70.5t125 -19.5q91 0 157 24t132 86q138 131 137 519q0 600 -416 600q-98 0 -134 -11.5t-36 -45.5v-1082zM68 0v78q111 4 136 23.5t25 97.5v1020q0 78 -25.5 97t-135.5 23v78h702q381 -2 558 -177t177 -517q0 -401 -225 -571q-174 -131 -452 -148
q-66 -4 -148 -4h-612zM760 1722q21 0 78 31l268 123l37 -61l-291 -261q-51 -47 -93 -47t-95 49l-291 259l39 61l266 -123q61 -31 82 -31z" />
    <glyph glyph-name="dcaron" unicode="&#x10f;" horiz-adv-x="1392" 
d="M624 934q-97 0 -163 -100t-66 -300q1 -200 61 -300t162 -101q160 0 160 178v422q0 90 -16 121q-41 80 -138 80zM70 483q0 269 148 407t388 138q106 0 172 -27v271q0 57 -11 80t-38 26l-72 13v73l416 56l14 -13v-1329q0 -64 23 -80t111 -20v-78h-443v102
q-160 -127 -297 -127q-193 1 -302 141t-109 367zM1145 1541q0 52 35 86q34 34 104 34t113 -60t43 -151q0 -186 -158 -360l-65 47q33 70 32 188q0 43 -52 103t-52 113z" />
    <glyph glyph-name="Dcroat" unicode="&#x110;" horiz-adv-x="1591" 
d="M557 184q0 -51 35 -70q35 -20 125 -20q91 0 157 24t132 86q137 129 137 519q0 600 -416 600q-98 0 -134 -11t-36 -46v-457h170v-178h-170v-447zM68 0v78q110 4 136 23t25 98v432h-139v178h139v410q0 78 -25 97q-26 19 -136 23v78h702q381 -2 558 -177t177 -517
q0 -401 -225 -570q-170 -128 -453 -149q-66 -4 -147 -4h-612z" />
    <glyph glyph-name="dcroat" unicode="&#x111;" horiz-adv-x="1239" 
d="M624 934q-97 0 -163 -100t-66 -300q1 -200 61 -300t162 -101q160 0 160 178v422q0 90 -16 121q-41 80 -138 80zM70 483q0 269 148 407t388 138q106 0 172 -27v134h-194v178h192q-4 55 -47 65l-72 13v73l416 56l14 -13v-194h134v-178h-134v-957q0 -64 23 -80t111 -20v-78
h-443v102q-160 -127 -297 -127q-193 1 -302 141t-109 367z" />
    <glyph glyph-name="Emacron" unicode="&#x112;" horiz-adv-x="1288" 
d="M68 0v78q111 4 136 23.5t25 97.5v1020q0 78 -25.5 97t-135.5 23v78h1103v-379h-77q-27 88 -46.5 132t-53 84t-84 54.5t-128.5 14.5h-153q-43 0 -57.5 -14.5t-14.5 -59.5v-452h195q94 0 128.5 34.5t59.5 149.5h78v-475h-78q-25 115 -59.5 149.5t-128.5 34.5h-195v-446
q0 -94 51 -122t155.5 -28t148.5 7.5t79 32t55 42.5q45 40 113 250h78l-25 -426h-1144zM293 1567v178h717v-178h-717z" />
    <glyph glyph-name="emacron" unicode="&#x113;" horiz-adv-x="1062" 
d="M395 614h254q37 0 50.5 13.5t13.5 54.5q0 252 -146 252q-90 0 -131 -94.5t-41 -225.5zM575 1028q113 0 199 -28.5t134 -71.5q126 -113 126 -326q0 -47 -26.5 -66.5t-83.5 -19.5h-529q0 -383 275 -383q178 0 274 182l74 -41q-115 -299 -447 -299q-276 0 -388.5 152.5
t-112.5 380t122.5 374t382.5 146.5zM254 1202v178h637v-178h-637z" />
    <glyph glyph-name="Ebreve" unicode="&#x114;" horiz-adv-x="1288" 
d="M68 0v78q111 4 136 23.5t25 97.5v1020q0 78 -25.5 97t-135.5 23v78h1103v-379h-77q-27 88 -46.5 132t-53 84t-84 54.5t-128.5 14.5h-153q-43 0 -57.5 -14.5t-14.5 -59.5v-452h195q94 0 128.5 34.5t59.5 149.5h78v-475h-78q-25 115 -59.5 149.5t-128.5 34.5h-195v-446
q0 -94 51 -122t155.5 -28t148.5 7.5t79 32t55 42.5q45 40 113 250h78l-25 -426h-1144zM313 1835h84q4 -51 62.5 -96t191.5 -45t191.5 45t62.5 96h84q1 -221 -165 -281q-70 -26 -172 -26q-204 0 -271.5 90.5t-67.5 216.5z" />
    <glyph glyph-name="ebreve" unicode="&#x115;" horiz-adv-x="1062" 
d="M395 614h254q37 0 50.5 13.5t13.5 54.5q0 252 -146 252q-90 0 -131 -94.5t-41 -225.5zM575 1028q113 0 199 -28.5t134 -71.5q126 -113 126 -326q0 -47 -26.5 -66.5t-83.5 -19.5h-529q0 -383 275 -383q178 0 274 182l74 -41q-115 -299 -447 -299q-276 0 -388.5 152.5
t-112.5 380t122.5 374t382.5 146.5zM246 1466h78q4 -47 37 -83q62 -70 204.5 -70t196 48t57.5 105h80q1 -232 -153 -298q-70 -30 -174 -29q-210 0 -273 107q-53 89 -53 220z" />
    <glyph glyph-name="Edotaccent" unicode="&#x116;" horiz-adv-x="1288" 
d="M68 0v78q111 4 136 23.5t25 97.5v1020q0 78 -25.5 97t-135.5 23v78h1103v-379h-77q-27 88 -46.5 132t-53 84t-84 54.5t-128.5 14.5h-153q-43 0 -57.5 -14.5t-14.5 -59.5v-452h195q94 0 128.5 34.5t59.5 149.5h78v-475h-78q-25 115 -59.5 149.5t-128.5 34.5h-195v-446
q0 -94 51 -122t155.5 -28t148.5 7.5t79 32t55 42.5q45 40 113 250h78l-25 -426h-1144zM489 1650.5q0 61.5 44.5 107.5t118 46t117.5 -46t44 -107.5t-44 -107.5t-117.5 -46t-118 46t-44.5 107.5z" />
    <glyph glyph-name="edotaccent" unicode="&#x117;" horiz-adv-x="1062" 
d="M395 614h254q37 0 50.5 13.5t13.5 54.5q0 252 -146 252q-90 0 -131 -94.5t-41 -225.5zM575 1028q113 0 199 -28.5t134 -71.5q126 -113 126 -326q0 -47 -26.5 -66.5t-83.5 -19.5h-529q0 -383 275 -383q178 0 274 182l74 -41q-115 -299 -447 -299q-276 0 -388.5 152.5
t-112.5 380t122.5 374t382.5 146.5zM412 1300.5q0 61.5 44 107.5t117.5 46t117.5 -46t44 -107.5t-44 -107.5t-117.5 -46t-117.5 46t-44 107.5z" />
    <glyph glyph-name="Eogonek" unicode="&#x118;" horiz-adv-x="1288" 
d="M68 0v78q111 4 136 23.5t25 97.5v1020q0 78 -25.5 97t-135.5 23v78h1103v-379h-77q-27 88 -46.5 132t-53 84t-84 54.5t-128.5 14.5h-153q-43 0 -57.5 -14.5t-14.5 -59.5v-452h195q94 0 128.5 34.5t59.5 149.5h78v-475h-78q-25 115 -59.5 149.5t-128.5 34.5h-195v-446
q0 -94 51 -122t155.5 -28t148.5 7.5t79 32t55 42.5q45 40 113 250h78l-25 -426h-147q-164 -133 -164 -262q2 -59 34 -91t87 -32t98 27l31 -56q-98 -82 -215 -82q-242 0 -242 195q0 86 70 165t180 136h-876z" />
    <glyph glyph-name="eogonek" unicode="&#x119;" horiz-adv-x="1062" 
d="M395 614h254q37 0 50.5 13.5t13.5 54.5q0 252 -146 252q-90 0 -131 -94.5t-41 -225.5zM575 1028q113 0 199 -28.5t134 -71.5q126 -113 126 -326q0 -47 -26.5 -66.5t-83.5 -19.5h-529q0 -383 275 -383q178 0 274 182l74 -41q-47 -125 -160 -237q-174 -174 -174 -299
q0 -59 33 -91t88 -32t98 27l31 -56q-98 -82 -215 -82q-242 0 -242 195q0 150 223 293q-63 -16 -164.5 -16.5t-202 41.5t-156.5 118q-107 145 -107 372.5t122.5 374t382.5 146.5z" />
    <glyph glyph-name="Ecaron" unicode="&#x11a;" horiz-adv-x="1288" 
d="M68 0v78q111 4 136 23.5t25 97.5v1020q0 78 -25.5 97t-135.5 23v78h1103v-379h-77q-27 88 -46.5 132t-53 84t-84 54.5t-128.5 14.5h-153q-43 0 -57.5 -14.5t-14.5 -59.5v-452h195q94 0 128.5 34.5t59.5 149.5h78v-475h-78q-25 115 -59.5 149.5t-128.5 34.5h-195v-446
q0 -94 51 -122t155.5 -28t148.5 7.5t79 32t55 42.5q45 40 113 250h78l-25 -426h-1144zM653 1722q21 0 78 31l268 123l37 -61l-291 -261q-51 -47 -93 -47t-95 49l-291 259l39 61l266 -123q61 -31 82 -31z" />
    <glyph glyph-name="ecaron" unicode="&#x11b;" horiz-adv-x="1062" 
d="M395 614h254q37 0 50.5 13.5t13.5 54.5q0 252 -146 252q-90 0 -131 -94.5t-41 -225.5zM575 1028q113 0 199 -28.5t134 -71.5q126 -113 126 -326q0 -47 -26.5 -66.5t-83.5 -19.5h-529q0 -383 275 -383q178 0 274 182l74 -41q-115 -299 -447 -299q-276 0 -388.5 152.5
t-112.5 380t122.5 374t382.5 146.5zM573.5 1298q22.5 0 77.5 39l256 193l49 -55l-292 -347q-55 -63 -91.5 -63t-89.5 63l-293 347l50 55l256 -193q55 -39 77.5 -39z" />
    <glyph glyph-name="Gcircumflex" unicode="&#x11c;" horiz-adv-x="1486" 
d="M86 698q0 212 80 386q49 106 129 182.5t222 129t331 52.5q301 0 469 -90v-373h-78q-89 268 -235 338q-64 31 -148 31t-152.5 -32t-111.5 -86q-90 -114 -116.5 -254.5t-26.5 -224t4 -135.5t15 -134q20 -150 106 -287.5t266 -137.5q104 0 137 18.5t33 74.5v288
q0 76 -28 94.5t-148 26.5v78h618v-78q-76 -8 -95.5 -26.5t-19.5 -89.5v-381q-221 -98 -513.5 -98.5t-461.5 112.5q-276 186 -276 616zM849 1853q42 0 93 -47l291 -260l-37 -61l-268 123q-57 31 -77.5 30.5t-82.5 -30.5l-266 -123l-39 61l291 258q53 49 95 49z" />
    <glyph glyph-name="gcircumflex" unicode="&#x11d;" horiz-adv-x="1091" 
d="M389 695.5q0 -113.5 43 -179t112 -65.5t110.5 64.5t41.5 179t-43 177t-109.5 62.5t-110.5 -62.5t-44 -176zM328 -190q0 -90 75.5 -150.5t185.5 -60.5t181.5 51t71.5 147t-72 133t-208 37t-183 -30q-51 -37 -51 -127zM51 -198q0 144 238 196v4q-72 16 -130.5 71.5
t-58.5 119t59.5 114.5t159.5 76v4q-102 16 -175.5 94t-73.5 209t112.5 234.5t364.5 103.5q176 0 293 -67l256 88l22 -23l-41 -154l-135 -24q47 -61 47 -169q1 -109 -65 -185q-119 -138 -392 -138q-55 0 -94 4q-29 -6 -55.5 -25.5t-26.5 -49.5q0 -70 138 -70h190
q180 0 293 -74.5t113 -246.5q0 -213 -191 -314q-141 -76 -356 -76t-353.5 77t-138.5 221zM528.5 1296q-22.5 0 -77.5 -39l-256 -192l-50 55l293 346q53 63 89 63.5t91 -63.5l293 -346l-49 -55l-256 192q-55 39 -77.5 39z" />
    <glyph glyph-name="Gbreve" unicode="&#x11e;" horiz-adv-x="1486" 
d="M86 698q0 212 80 386q49 106 129 182.5t222 129t331 52.5q301 0 469 -90v-373h-78q-89 268 -235 338q-64 31 -148 31t-152.5 -32t-111.5 -86q-90 -114 -116.5 -254.5t-26.5 -224t4 -135.5t15 -134q20 -150 106 -287.5t266 -137.5q104 0 137 18.5t33 74.5v288
q0 76 -28 94.5t-148 26.5v78h618v-78q-76 -8 -95.5 -26.5t-19.5 -89.5v-381q-221 -98 -513.5 -98.5t-461.5 112.5q-276 186 -276 616zM510 1835h84q4 -51 62.5 -96t191.5 -45t191.5 45t62.5 96h84q0 -221 -166 -281q-70 -26 -172 -26q-204 0 -271 91t-67 216z" />
    <glyph glyph-name="gbreve" unicode="&#x11f;" horiz-adv-x="1091" 
d="M389 695.5q0 -113.5 43 -179t112 -65.5t110.5 64.5t41.5 179t-43 177t-109.5 62.5t-110.5 -62.5t-44 -176zM328 -190q0 -90 75.5 -150.5t185.5 -60.5t181.5 51t71.5 147t-72 133t-208 37t-183 -30q-51 -37 -51 -127zM51 -198q0 144 238 196v4q-72 16 -130.5 71.5
t-58.5 119t59.5 114.5t159.5 76v4q-102 16 -175.5 94t-73.5 209t112.5 234.5t364.5 103.5q176 0 293 -67l256 88l22 -23l-41 -154l-135 -24q47 -61 47 -169q1 -109 -65 -185q-119 -138 -392 -138q-55 0 -94 4q-29 -6 -55.5 -25.5t-26.5 -49.5q0 -70 138 -70h190
q180 0 293 -74.5t113 -246.5q0 -213 -191 -314q-141 -76 -356 -76t-353.5 77t-138.5 221zM201 1466h78q4 -47 37 -83q62 -70 204.5 -70t196 48t57.5 105h80q0 -124 -54 -216q-65 -112 -273.5 -111.5t-272.5 107.5q-53 89 -53 220z" />
    <glyph glyph-name="Gdotaccent" unicode="&#x120;" horiz-adv-x="1486" 
d="M86 698q0 212 80 386q49 106 129 182.5t222 129t331 52.5q301 0 469 -90v-373h-78q-89 268 -235 338q-64 31 -148 31t-152.5 -32t-111.5 -86q-90 -114 -116.5 -254.5t-26.5 -224t4 -135.5t15 -134q20 -150 106 -287.5t266 -137.5q104 0 137 18.5t33 74.5v288
q0 76 -28 94.5t-148 26.5v78h618v-78q-76 -8 -95.5 -26.5t-19.5 -89.5v-381q-221 -98 -513.5 -98.5t-461.5 112.5q-276 186 -276 616zM686 1650.5q0 61.5 44 107.5t118 46t118 -46t44 -107.5t-44 -107.5t-118 -46t-118 46t-44 107.5z" />
    <glyph glyph-name="gdotaccent" unicode="&#x121;" horiz-adv-x="1091" 
d="M389 695.5q0 -113.5 43 -179t112 -65.5t110.5 64.5t41.5 179t-43 177t-109.5 62.5t-110.5 -62.5t-44 -176zM328 -190q0 -90 75.5 -150.5t185.5 -60.5t181.5 51t71.5 147t-72 133t-208 37t-183 -30q-51 -37 -51 -127zM51 -198q0 144 238 196v4q-72 16 -130.5 71.5
t-58.5 119t59.5 114.5t159.5 76v4q-102 16 -175.5 94t-73.5 209t112.5 234.5t364.5 103.5q176 0 293 -67l256 88l22 -23l-41 -154l-135 -24q47 -61 47 -169q1 -109 -65 -185q-119 -138 -392 -138q-55 0 -94 4q-29 -6 -55.5 -25.5t-26.5 -49.5q0 -70 138 -70h190
q180 0 293 -74.5t113 -246.5q0 -213 -191 -314q-141 -76 -356 -76t-353.5 77t-138.5 221zM367 1300.5q0 61.5 44 107.5t117.5 46t117.5 -46t44 -107.5t-44 -107.5t-117.5 -46t-117.5 46t-44 107.5z" />
    <glyph glyph-name="Hcircumflex" unicode="&#x124;" horiz-adv-x="1652" 
d="M68 0v78q111 4 136 23.5t25 97.5v1020q0 78 -25.5 97t-135.5 23v78h651v-78q-111 -4 -136.5 -23.5t-25.5 -96.5v-422h539v422q0 78 -26 97t-136 23v78h651v-78q-111 -4 -136.5 -23.5t-25.5 -96.5v-1020q0 -78 26 -97.5t136 -23.5v-78h-651v78q111 4 136.5 23.5t25.5 97.5
v499h-539v-499q0 -78 25.5 -97.5t136.5 -23.5v-78h-651zM828 1853q42 0 94 -47l290 -260l-36 -61l-269 123q-57 31 -77.5 30.5t-81.5 -30.5l-267 -123l-39 61l291 258q53 49 95 49z" />
    <glyph glyph-name="hcircumflex" unicode="&#x125;" horiz-adv-x="1292" 
d="M39 0v78q88 4 110.5 20.5t22.5 79.5v1094q0 57 -11 79.5t-38 26.5l-72 13v73l416 56l14 -13v-620q82 51 123 75q116 66 223 66q158 0 236 -84t78 -233v-533q0 -63 22.5 -79.5t110.5 -20.5v-78h-551v78l43 4q35 4 50 19.5t15 62.5v516q0 190 -161 190q-117 0 -168 -100
q-20 -41 -21 -121v-485q0 -47 15.5 -62.5t50.5 -19.5l43 -4v-78h-551zM654 2021q36 0 91 -63l293 -346l-49 -56l-256 193q-55 39 -77.5 39t-77.5 -39l-256 -193l-50 56l293 346q53 63 89 63z" />
    <glyph glyph-name="Hbar" unicode="&#x126;" horiz-adv-x="1652" 
d="M557 797h539v336h-539v-336zM68 0v78q110 4 136 23t25 98v934h-143v94h143q0 72 -27 90q-28 18 -134 22v78h651v-78q-106 -4 -134 -22t-28 -90h539q0 72 -28 90t-134 22v78h651v-78q-106 -4 -134 -22t-28 -90h144v-94h-144v-934q0 -77 26 -97t136 -24v-78h-651v78
q110 4 136 23t26 98v499h-539v-499q0 -77 26 -97t136 -24v-78h-651z" />
    <glyph glyph-name="hbar" unicode="&#x127;" horiz-adv-x="1292" 
d="M35 1147v92h137v33q0 57 -11 80t-38 26l-72 13v73l416 56l14 -13v-268h416v-92h-416v-260q82 51 123 75q116 68 223 66q158 0 236 -84t78 -233v-533q0 -63 22 -80q23 -16 111 -20v-78h-551v78l43 4q35 4 50 19t15 63v516q0 190 -161 190q-117 0 -168 -100
q-20 -41 -21 -121v-485q-1 -46 15 -62t51 -20l43 -4v-78h-551v78q88 4 111 20t22 80v969h-137z" />
    <glyph glyph-name="Itilde" unicode="&#x128;" horiz-adv-x="786" 
d="M186 1593q-62 -1 -95 -25q-32 -24 -66 -87l-66 37q31 81 76 140q84 111 201 109q63 0 188 -43q141 -43 191 -43t82 25t67 88l65 -37q-96 -250 -276 -250q-43 0 -174 43t-193 43zM68 0v78q110 4 136 23t25 98v1020q0 78 -25 97q-26 19 -136 23v78h651v-78
q-111 -4 -137 -23t-25 -97v-1020q0 -77 26 -97t136 -24v-78h-651z" />
    <glyph glyph-name="itilde" unicode="&#x129;" horiz-adv-x="647" 
d="M132 1245q-62 -1 -94 -25t-67 -87l-65 36q97 253 276 250q63 0 189 -43q141 -43 191 -43t82 25t67 88l65 -37q-96 -250 -276 -250q-43 0 -181 43q-125 43 -187 43zM53 0v78q88 4 111 20t22 80v602q0 60 -11 80t-38 25l-71 10v74l415 59l15 -12v-838q0 -63 22 -80
q23 -16 111 -20v-78h-576z" />
    <glyph glyph-name="Imacron" unicode="&#x12a;" horiz-adv-x="786" 
d="M68 0v78q111 4 136 23.5t25 97.5v1020q0 78 -25.5 97t-135.5 23v78h651v-78q-111 -4 -136.5 -23.5t-25.5 -96.5v-1020q0 -78 25.5 -97.5t136.5 -23.5v-78h-651zM35 1567v178h717v-178h-717z" />
    <glyph glyph-name="Ibreve" unicode="&#x12c;" horiz-adv-x="786" 
d="M68 0v78q111 4 136 23.5t25 97.5v1020q0 78 -25.5 97t-135.5 23v78h651v-78q-111 -4 -136.5 -23.5t-25.5 -96.5v-1020q0 -78 25.5 -97.5t136.5 -23.5v-78h-651zM55 1835h84q4 -51 62.5 -96t191.5 -45t191.5 45t62.5 96h84q1 -221 -165 -281q-70 -26 -172 -26
q-204 0 -271.5 90.5t-67.5 216.5z" />
    <glyph glyph-name="Idotaccent" unicode="&#x130;" horiz-adv-x="786" 
d="M68 0v78q111 4 136 23.5t25 97.5v1020q0 78 -25.5 97t-135.5 23v78h651v-78q-111 -4 -136.5 -23.5t-25.5 -96.5v-1020q0 -78 25.5 -97.5t136.5 -23.5v-78h-651zM231 1650.5q0 61.5 44 107.5t118 46t118 -46t44 -107.5t-44 -107.5t-118 -46t-118 46t-44 107.5z" />
    <glyph glyph-name="dotlessi" unicode="&#x131;" horiz-adv-x="647" 
d="M53 0v78q88 4 110.5 20.5t22.5 79.5v602q0 59 -11 80t-38 25l-71 10v74l415 59l15 -12v-838q0 -63 22.5 -79.5t110.5 -20.5v-78h-576z" />
    <glyph glyph-name="Jcircumflex" unicode="&#x134;" horiz-adv-x="790" 
d="M250 299v920q0 78 -25.5 97t-136.5 23v78h651v-78q-111 -4 -136 -23.5t-25 -96.5v-926q0 -180 -49.5 -292t-163.5 -167q-152 -72 -340 -67l-13 63q100 33 158 96q80 90 80 373zM414.5 1853q42.5 0 93.5 -47l291 -260l-37 -61l-268 123q-57 31 -77.5 30.5t-82.5 -30.5
l-266 -123l-39 61l290 258q53 49 95.5 49z" />
    <glyph glyph-name="Lacute" unicode="&#x139;" horiz-adv-x="1198" 
d="M68 0v78q111 4 136 23.5t25 97.5v1020q0 78 -25.5 97t-135.5 23v78h675v-78q-127 -4 -156.5 -23.5t-29.5 -96.5v-975q0 -94 46 -122t153.5 -28t160 14.5t89 62.5t52 82t36 91.5t24.5 67.5h78l-25 -412h-1103zM895 1851q47 0 80 -47t33 -87t-32 -63.5t-118 -49.5
l-416 -131l-28 65l352 252q82 61 129 61z" />
    <glyph glyph-name="lacute" unicode="&#x13a;" horiz-adv-x="632" 
d="M39 0v78q88 4 110.5 20.5t22.5 79.5v1094q0 57 -11 79.5t-38 26.5l-72 13v73l416 56l14 -13v-1329q0 -63 22.5 -79.5t110.5 -20.5v-78h-575zM595 2007q34 0 69.5 -42t35.5 -80t-35.5 -68.5t-103.5 -67.5l-375 -211l-43 61l297 306q57 59 89 80.5t66 21.5z" />
    <glyph glyph-name="Lcaron" unicode="&#x13d;" horiz-adv-x="1198" 
d="M68 0v78q110 4 136 23t25 98v1020q0 78 -25 97q-26 19 -136 23v78h675v-78q-127 -4 -157 -23t-29 -97v-975q0 -94 46 -122q45 -28 153 -28t160 14t90 63q37 48 52 82q16 33 36 91t24 68h78l-25 -412h-1103zM920 1325q0 43 -52 103t-53 113q0 52 35 86q34 34 104 34
t113 -60t43 -151q0 -186 -158 -360l-65 47q33 70 33 188z" />
    <glyph glyph-name="lcaron" unicode="&#x13e;" horiz-adv-x="786" 
d="M39 0v78q88 4 111 20t22 80v1094q0 57 -11 80t-38 26l-72 13v73l416 56l14 -13v-1329q0 -64 23 -80t110 -20v-78h-575zM643 1325q0 43 -52 103t-52 113q0 52 34 86q35 34 105 34t113 -60t43 -151q0 -186 -158 -360l-66 47q33 70 33 188z" />
    <glyph glyph-name="Lslash" unicode="&#x141;" horiz-adv-x="1210" 
d="M242 1219q0 78 -26 97t-136 23v78h676v-78q-127 -4 -157 -23t-30 -97v-367l293 211v-123l-293 -211v-485q0 -94 46 -122t154 -28t160 14t89 63q37 48 52 82q16 33 36 91t24 68h78l-24 -412h-1104v78q110 4 136 23t26 98v295l-181 -129v122l181 129v603z" />
    <glyph glyph-name="lslash" unicode="&#x142;" horiz-adv-x="657" 
d="M184 1272q0 57 -11 79.5t-38 26.5l-72 13v73l416 56l15 -13v-616l186 141v-119l-186 -141v-594q0 -63 22.5 -79.5t110.5 -20.5v-78h-576v78q88 4 110.5 20.5t22.5 79.5v359l-151 -115v121l151 114v615z" />
    <glyph glyph-name="Nacute" unicode="&#x143;" horiz-adv-x="1513" 
d="M57 0v78l72 10q66 8 75 103.5t9 324.5v703q0 78 -25.5 97t-136.5 23v78h486q164 -254 645 -975h8v459q0 227 -7 301t-26.5 99.5t-62.5 27.5l-115 10v78h494v-78l-72 -10q-66 -8 -75 -103t-9 -325v-901h-225q-367 571 -744 1143h-8v-627q0 -227 7 -300.5t26.5 -99.5
t62.5 -28l115 -10v-78h-494zM1030 1851q47 0 80 -47t33 -87t-32 -63.5t-118 -49.5l-415 -131l-29 65l352 252q82 61 129 61z" />
    <glyph glyph-name="nacute" unicode="&#x144;" horiz-adv-x="1306" 
d="M53 0v78q88 4 110.5 20.5t22.5 79.5v602q0 59 -11 80t-38 25l-71 10v74l403 59l27 -141q96 57 131 76.5t99.5 42t119.5 22.5q154 0 230.5 -83t78.5 -232v-535q0 -63 22.5 -79.5t110.5 -20.5v-78h-551v78l43 4q35 4 50.5 19.5t15.5 62.5v520q-6 186 -162 186
q-119 0 -168 -100q-20 -41 -20 -121v-485q0 -47 15 -62.5t50 -19.5l43 -4v-78h-551zM939 1516q34 0 69.5 -42t35.5 -80t-35.5 -69t-103.5 -68l-375 -210l-43 61l297 305q57 59 89 81t66 22z" />
    <glyph glyph-name="Ncommaaccent" unicode="&#x145;" horiz-adv-x="1513" 
d="M715 -389q0 41 -36 94t-36 95t34 78q35 36 95 36t104 -47t44 -121t-44 -144t-90 -112q-46 -41 -120 -98l-43 43q92 100 92 176zM57 0v78l72 10q66 8 75 104t9 324v703q0 78 -26 97t-136 23v78h486q164 -254 645 -975h8v459q0 227 -7 301t-27 100t-62 27l-115 10v78h494
v-78l-72 -10q-66 -8 -75 -103t-9 -325v-901h-225q-367 571 -744 1143h-8v-627q0 -226 7 -300t27 -100t62 -28l115 -10v-78h-494z" />
    <glyph glyph-name="ncommaaccent" unicode="&#x146;" horiz-adv-x="1306" 
d="M621 -389q0 41 -36 94t-36 95t34 78q35 36 95 36t104 -47t43 -121q0 -74 -44 -144t-89 -112q-45 -41 -121 -98l-43 43q93 101 93 176zM53 0v78q88 4 111 20t22 80v602q0 60 -11 80t-38 25l-71 10v74l403 59l27 -141q96 57 131 77t99 42q64 23 120 22q154 0 230 -83
t79 -232v-535q0 -64 23 -80t110 -20v-78h-551v78l43 4q35 4 50 19t16 63v520q-6 186 -162 186q-119 0 -168 -100q-20 -41 -20 -121v-485q0 -46 15 -62t50 -20l43 -4v-78h-551z" />
    <glyph glyph-name="Ncaron" unicode="&#x147;" horiz-adv-x="1513" 
d="M57 0v78l72 10q66 8 75 103.5t9 324.5v703q0 78 -25.5 97t-136.5 23v78h486q164 -254 645 -975h8v459q0 227 -7 301t-26.5 99.5t-62.5 27.5l-115 10v78h494v-78l-72 -10q-66 -8 -75 -103t-9 -325v-901h-225q-367 571 -744 1143h-8v-627q0 -227 7 -300.5t26.5 -99.5
t62.5 -28l115 -10v-78h-494zM768 1722q21 0 78 31l268 123l37 -61l-291 -261q-51 -47 -93 -47t-95 49l-291 259l39 61l266 -123q61 -31 82 -31z" />
    <glyph glyph-name="ncaron" unicode="&#x148;" horiz-adv-x="1306" 
d="M53 0v78q88 4 110.5 20.5t22.5 79.5v602q0 59 -11 80t-38 25l-71 10v74l403 59l27 -141q96 57 131 76.5t99.5 42t119.5 22.5q154 0 230.5 -83t78.5 -232v-535q0 -63 22.5 -79.5t110.5 -20.5v-78h-551v78l43 4q35 4 50.5 19.5t15.5 62.5v520q-6 186 -162 186
q-119 0 -168 -100q-20 -41 -20 -121v-485q0 -47 15 -62.5t50 -19.5l43 -4v-78h-551zM671.5 1298q22.5 0 78.5 39l256 193l49 -55l-293 -347q-55 -63 -91 -63t-89 63l-293 347l49 55l256 -193q55 -39 77.5 -39z" />
    <glyph glyph-name="Eng" unicode="&#x14a;" horiz-adv-x="1589" 
d="M68 0v78q110 4 136 23t25 98v1020q0 78 -25 97q-26 19 -136 23v78h489v-180q242 211 512 211q195 0 280 -114t85 -339v-940q0 -165 -46 -279t-125 -170q-144 -102 -321 -102q-178 0 -262 58t-84 130t54 110t104 38t78 -38q26 -38 36 -83t32 -83t54 -37q90 0 121 127
t31 370v940q0 128 -49 186t-156 58q-147 0 -283 -135q-22 -23 -32 -38q-28 -45 -29 -134v-774q0 -75 26 -95t128 -26v-78h-643z" />
    <glyph glyph-name="eng" unicode="&#x14b;" horiz-adv-x="1290" 
d="M53 0v78q88 4 110.5 20.5t22.5 79.5v602q0 59 -11 80t-38 25l-71 10v74l403 59l27 -141q96 57 131 76.5t99.5 42t119.5 22.5q156 0 232.5 -84t76.5 -231v-781q0 -207 -96 -317.5t-259 -110.5t-235.5 52.5t-72.5 107.5t46 95t91 40q71 0 126.5 -100t90.5 -100q45 0 45 75
q0 35 -22.5 165t-22.5 181v664q0 88 -42 137t-118 49t-133 -48t-57 -173v-485q0 -47 15 -62.5t50 -19.5l43 -4v-78h-551z" />
    <glyph glyph-name="Omacron" unicode="&#x14c;" horiz-adv-x="1572" 
d="M449 709q-1 -321 89 -491q34 -66 99 -110.5t149 -44.5q338 0 338 645.5t-337.5 645.5t-337.5 -645zM86 708.5q0 354.5 176 547t524.5 192.5t524.5 -192.5t176 -547t-176 -547t-524.5 -192.5t-524.5 192.5t-176 547zM428 1567v178h717v-178h-717z" />
    <glyph glyph-name="omacron" unicode="&#x14d;" horiz-adv-x="1198" 
d="M395 502q0 -432 205 -432t205 432t-205 432t-205 -432zM70 501.5q0 526.5 530 526.5t530 -526.5t-530 -526.5t-530 526.5zM279 1202v178h636v-178h-636z" />
    <glyph glyph-name="Obreve" unicode="&#x14e;" horiz-adv-x="1572" 
d="M449 709q-1 -321 89 -491q34 -66 99 -110.5t149 -44.5q338 0 338 645.5t-337.5 645.5t-337.5 -645zM86 708.5q0 354.5 176 547t524.5 192.5t524.5 -192.5t176 -547t-176 -547t-524.5 -192.5t-524.5 192.5t-176 547zM449 1835h83q4 -51 62.5 -96t192 -45t191.5 45t62 96
h84q0 -221 -166 -281q-70 -26 -172 -26q-204 0 -276 98q-61 82 -61 209z" />
    <glyph glyph-name="obreve" unicode="&#x14f;" horiz-adv-x="1198" 
d="M395 502q0 -432 205 -432t205 432t-205 432t-205 -432zM70 501.5q0 526.5 530 526.5t530 -526.5t-530 -526.5t-530 526.5zM270 1466h78q4 -46 37 -83q62 -70 205 -70t196.5 48t57.5 105h80q0 -124 -54 -216q-65 -112 -274 -111q-210 0 -272 107q-54 91 -54 220z" />
    <glyph glyph-name="Ohungarumlaut" unicode="&#x150;" horiz-adv-x="1572" 
d="M449 709q-1 -321 89 -491q34 -66 99 -110.5t149 -44.5q338 0 338 645.5t-337.5 645.5t-337.5 -645zM86 708.5q0 354.5 176 547t524.5 192.5t524.5 -192.5t176 -547t-176 -547t-524.5 -192.5t-524.5 192.5t-176 547zM1239.5 1858q38.5 0 78.5 -50.5t40 -89.5
q0 -47 -98 -98l-281 -147l-59 79l215 236q66 70 104.5 70zM813.5 1858q38.5 0 78.5 -50.5t40 -89.5q0 -47 -98 -98l-281 -147l-59 79l215 236q66 70 104.5 70z" />
    <glyph glyph-name="ohungarumlaut" unicode="&#x151;" horiz-adv-x="1198" 
d="M395 502q0 -432 205 -432t205 432t-205 432t-205 -432zM70 501.5q0 526.5 530 526.5t530 -526.5t-530 -526.5t-530 526.5zM1116 1433q0 -44 -74 -126l-223 -240l-65 39l129 324q43 109 106 108q41 0 84 -30.5t43 -74.5zM696 1433q0 -44 -73 -126l-224 -240l-65 39
l129 324q43 109 106 108q41 0 84 -30.5t43 -74.5z" />
    <glyph glyph-name="OE" unicode="&#x152;" horiz-adv-x="2148" 
d="M438 722.5q0 -105.5 13.5 -187.5t50.5 -165t92 -142.5t145 -96.5t205 -37q145 0 146 96v1029q0 63 -33 83.5t-117 20.5q-150 0 -253 -54.5t-154.5 -148.5t-73 -193t-21.5 -204.5zM86 692q0 397 254 582q199 143 612 143h1080v-379h-78q-27 88 -46.5 132t-53 84t-84 54.5
t-128.5 14.5h-153q-43 0 -57.5 -14.5t-14.5 -59.5v-452h195q94 0 129 34.5t59 149.5h78v-475h-78q-25 115 -59.5 149.5t-128.5 34.5h-195v-446q0 -94 51.5 -122t155.5 -28t148.5 7.5t79 32t54.5 42.5q45 40 113 250h78l-24 -426h-1131q-410 0 -602 133q-117 80 -185.5 223
t-68.5 336z" />
    <glyph glyph-name="oe" unicode="&#x153;" horiz-adv-x="1773" 
d="M1102 614h258q37 0 50 13.5t13 54.5q0 252 -145 252q-94 0 -135 -93.5t-41 -226.5zM395 502q0 -432 204 -432t204 432t-204 432t-204 -432zM70 501.5q0 526.5 530 526.5q229 0 350 -131q145 131 334 131q125 0 217 -35t137 -81t71 -112.5t31 -108.5t5 -89t-26.5 -66.5
t-84.5 -19.5h-532q0 -383 276 -383q178 0 275 182l73 -41q-115 -299 -446 -299q-219 0 -334 129q-135 -129 -346 -129q-530 0 -530 526.5z" />
    <glyph glyph-name="Racute" unicode="&#x154;" horiz-adv-x="1400" 
d="M557 745h102q272 0 272.5 289t-243.5 289q-80 0 -105.5 -17.5t-25.5 -62.5v-498zM68 0v78q111 4 136 23.5t25 97.5v1020q0 78 -25.5 97t-135.5 23v78h710q272 0 396 -106q102 -94 102 -243.5t-96.5 -242t-249.5 -112.5v-4q143 -37 197.5 -120t82 -239t99.5 -227
q43 -43 96 -45v-78h-152q-160 0 -237.5 45t-110.5 150.5t-69 296.5q-35 160 -185 159h-94v-452q0 -78 25.5 -97.5t136.5 -23.5v-78h-651zM907 1851q47 0 80 -47t33 -87t-32 -63.5t-118 -49.5l-415 -131l-29 65l352 252q82 61 129 61z" />
    <glyph glyph-name="racute" unicode="&#x155;" horiz-adv-x="901" 
d="M53 0v78q88 4 110.5 20.5t22.5 79.5v602q0 59 -11 80t-38 25l-71 10v74l399 59l24 -180q94 100 152.5 140t122.5 40t102.5 -39t38.5 -107.5t-36 -117.5t-89 -49t-116.5 38t-98.5 38q-70 0 -69 -154v-459q0 -63 27.5 -78.5t148.5 -21.5v-78h-619zM828.5 1516
q33.5 0 69.5 -42t36 -80t-36 -69t-103 -68l-375 -210l-43 61l297 305q57 59 89 81t65.5 22z" />
    <glyph glyph-name="Rcaron" unicode="&#x158;" horiz-adv-x="1400" 
d="M557 745h102q272 0 272.5 289t-243.5 289q-80 0 -105.5 -17.5t-25.5 -62.5v-498zM68 0v78q111 4 136 23.5t25 97.5v1020q0 78 -25.5 97t-135.5 23v78h710q272 0 396 -106q102 -94 102 -243.5t-96.5 -242t-249.5 -112.5v-4q143 -37 197.5 -120t82 -239t99.5 -227
q43 -43 96 -45v-78h-152q-160 0 -237.5 45t-110.5 150.5t-69 296.5q-35 160 -185 159h-94v-452q0 -78 25.5 -97.5t136.5 -23.5v-78h-651zM645 1722q21 0 78 31l268 123l37 -61l-291 -261q-51 -47 -93 -47t-95 49l-291 259l39 61l266 -123q61 -31 82 -31z" />
    <glyph glyph-name="rcaron" unicode="&#x159;" horiz-adv-x="901" 
d="M53 0v78q88 4 110.5 20.5t22.5 79.5v602q0 59 -11 80t-38 25l-71 10v74l399 59l24 -180q94 100 152.5 140t122.5 40t102.5 -39t38.5 -107.5t-36 -117.5t-89 -49t-116.5 38t-98.5 38q-70 0 -69 -154v-459q0 -63 27.5 -78.5t148.5 -21.5v-78h-619zM561 1298q23 0 78 39
l256 193l49 -55l-293 -347q-55 -63 -91 -63t-89 63l-293 347l49 55l256 -193q55 -39 78 -39z" />
    <glyph glyph-name="Sacute" unicode="&#x15a;" horiz-adv-x="1148" 
d="M543.5 63q111.5 0 175 56.5t64.5 161t-64.5 176t-178.5 119.5q-112 46 -170 78t-126 86q-140 111 -140 293.5t130.5 298.5t374 116t388.5 -90v-336h-73q-41 170 -124 251t-182.5 81t-159 -57.5t-59.5 -160t105 -172.5q82 -55 184 -97q101 -43 158 -75q58 -32 120 -84
q126 -106 126 -289t-118.5 -314.5t-414.5 -135.5q-121 0 -246 31t-196 96l-31 367h76q57 -188 163.5 -294t218 -106zM879 1851q47 0 79.5 -47t32.5 -87t-31.5 -63.5t-117.5 -49.5l-416 -131l-29 65l353 252q82 61 129 61z" />
    <glyph glyph-name="sacute" unicode="&#x15b;" horiz-adv-x="913" 
d="M453 70q68 0 104.5 32.5t36.5 92.5q0 123 -205 194q-301 113 -301 316q0 154 108.5 238.5t298 84.5t306.5 -72v-272h-76q-29 117 -91.5 183.5t-130.5 66.5t-103 -35t-35 -88t53 -93t179 -87t199.5 -122t73.5 -200q0 -162 -114.5 -248t-330.5 -86t-323 99l-24 305h78
q43 -133 121.5 -221t175.5 -88zM759 1516q34 0 69.5 -42t35.5 -80t-35.5 -69t-103.5 -68l-375 -210l-43 61l297 305q57 59 89 81t66 22z" />
    <glyph glyph-name="Scircumflex" unicode="&#x15c;" horiz-adv-x="1148" 
d="M543.5 63q111.5 0 175 56.5t64.5 161t-64.5 176t-178.5 119.5q-112 46 -170 78t-126 86q-140 111 -140 293.5t130.5 298.5t374 116t388.5 -90v-336h-73q-41 170 -124 251t-182.5 81t-159 -57.5t-59.5 -160t105 -172.5q82 -55 184 -97q101 -43 158 -75q58 -32 120 -84
q126 -106 126 -289t-118.5 -314.5t-414.5 -135.5q-121 0 -246 31t-196 96l-31 367h76q57 -188 163.5 -294t218 -106zM615 1853q42 0 94 -47l290 -260l-36 -61l-269 123q-57 31 -77.5 30.5t-81.5 -30.5l-267 -123l-39 61l291 258q53 49 95 49z" />
    <glyph glyph-name="scircumflex" unicode="&#x15d;" horiz-adv-x="913" 
d="M453 70q68 0 104.5 32.5t36.5 92.5q0 123 -205 194q-301 113 -301 316q0 154 108.5 238.5t298 84.5t306.5 -72v-272h-76q-29 117 -91.5 183.5t-130.5 66.5t-103 -35t-35 -88t53 -93t179 -87t199.5 -122t73.5 -200q0 -162 -114.5 -248t-330.5 -86t-323 99l-24 305h78
q43 -133 121.5 -221t175.5 -88zM491.5 1296q-22.5 0 -77.5 -39l-256 -192l-49 55l292 346q53 63 89.5 63.5t91.5 -63.5l292 -346l-49 -55l-256 192q-55 39 -77.5 39z" />
    <glyph glyph-name="Scedilla" unicode="&#x15e;" horiz-adv-x="1148" 
d="M608 1448q244 0 389 -90v-336h-73q-41 170 -124 251q-82 81 -182 81t-159 -58t-59 -160q0 -103 104 -172q81 -55 183 -97q102 -43 159 -75q58 -32 120 -84q126 -105 126 -289t-114 -310q-114 -127 -379 -138l-60 -90q43 -6 83 -19q40 -12 80 -54t39 -99q0 -175 -239 -209
q-35 -4 -76 -4t-92 6v66q193 0 192 119q0 96 -135 108l-8 17l100 160q-254 21 -366 124l-31 367h76q58 -187 164 -293t218 -106t174 56q64 56 65 160q1 193 -243 296q-112 46 -170 78t-126 85q-140 109 -140 293t130 300t374 116z" />
    <glyph glyph-name="scedilla" unicode="&#x15f;" horiz-adv-x="913" 
d="M453 70q69 0 105 32t36 93q0 123 -205 194q-301 113 -301 316q0 155 109 239t298 84t306 -72v-272h-76q-29 118 -91 184t-130 66t-104 -35t-36 -88t54 -93q53 -40 179 -87t200 -122t73 -200q0 -162 -108 -243t-270 -89l-64 -96q43 -6 83 -19q40 -12 80 -54t40 -99
q0 -175 -240 -209q-35 -4 -75 -4t-93 6v66q193 0 193 119q0 96 -135 108l-9 17l103 166q-184 13 -273 96l-24 305h78q43 -133 122 -221t175 -88z" />
    <glyph glyph-name="Scaron" unicode="&#x160;" horiz-adv-x="1148" 
d="M543.5 63q111.5 0 175 56.5t64.5 161t-64.5 176t-178.5 119.5q-112 46 -170 78t-126 86q-140 111 -140 293.5t130.5 298.5t374 116t388.5 -90v-336h-73q-41 170 -124 251t-182.5 81t-159 -57.5t-59.5 -160t105 -172.5q82 -55 184 -97q101 -43 158 -75q58 -32 120 -84
q126 -106 126 -289t-118.5 -314.5t-414.5 -135.5q-121 0 -246 31t-196 96l-31 367h76q57 -188 163.5 -294t218 -106zM577.5 1722q20.5 0 77.5 31l269 123l37 -61l-291 -261q-51 -47 -93.5 -47t-95.5 49l-291 259l39 61l267 -123q61 -31 81.5 -31z" />
    <glyph glyph-name="scaron" unicode="&#x161;" horiz-adv-x="913" 
d="M453 70q68 0 104.5 32.5t36.5 92.5q0 123 -205 194q-301 113 -301 316q0 154 108.5 238.5t298 84.5t306.5 -72v-272h-76q-29 117 -91.5 183.5t-130.5 66.5t-103 -35t-35 -88t53 -93t179 -87t199.5 -122t73.5 -200q0 -162 -114.5 -248t-330.5 -86t-323 99l-24 305h78
q43 -133 121.5 -221t175.5 -88zM477 1298q23 0 78 39l256 193l49 -55l-293 -347q-55 -63 -91 -63t-89 63l-293 347l49 55l256 -193q55 -39 78 -39z" />
    <glyph glyph-name="Tcommaaccent" unicode="&#x162;" horiz-adv-x="1277" 
d="M31 1032v385h1216v-385h-78q-66 196 -98 224q-53 50 -96 59q-43 8 -90 8h-82v-1128q0 -57 16 -82t64 -27l116 -8v-78h-301l-80 -119q43 -6 83 -19q40 -12 80 -54t40 -99q0 -175 -239 -209q-35 -4 -75 -4t-93 6v66q193 0 192 119q0 96 -135 108l-8 17l117 188h-301v78
l116 8q47 2 64 27q16 25 16 82v1128h-82q-131 0 -178 -57t-106 -234h-78z" />
    <glyph glyph-name="tcommaaccent" unicode="&#x163;" horiz-adv-x="757" 
d="M66 901v103h129l180 258h119v-258h213v-103h-213v-584q0 -188 131 -188q70 0 116 21l23 -64q-168 -105 -311 -110l-64 -95q43 -6 83 -19q40 -12 80 -54t40 -99q0 -175 -240 -209q-34 -4 -74 -4t-94 6v66q193 0 193 119q0 96 -135 108l-9 17l112 180q-44 17 -83 51
q-78 68 -78 197v661h-118z" />
    <glyph glyph-name="Tcaron" unicode="&#x164;" horiz-adv-x="1277" 
d="M31 1032v385h1216v-385h-78q-65 192 -98 224q-53 51 -96 59t-90 8h-82v-1128q0 -57 16.5 -82t63.5 -27l116 -8v-78h-720v78l116 8q47 2 63.5 26.5t16.5 82.5v1128h-82q-131 0 -178 -57.5t-106 -233.5h-78zM641 1722q21 0 78 31l268 123l37 -61l-291 -261q-51 -47 -93 -47
t-95 49l-291 259l39 61l266 -123q61 -31 82 -31z" />
    <glyph glyph-name="tcaron" unicode="&#x165;" horiz-adv-x="802" 
d="M66 901v103h129l180 258h119v-258h213v-103h-213v-584q0 -188 131 -188q70 0 116 21l23 -64q-176 -111 -326 -111q-98 0 -176 68t-78 197v661h-118zM555 1541q0 52 35 86q34 34 104 34t113 -60t43 -151q0 -186 -158 -360l-65 47q33 70 32 188q0 43 -52 103t-52 113z" />
    <glyph glyph-name="Utilde" unicode="&#x168;" horiz-adv-x="1609" 
d="M371 1518q95 249 278 249q61 0 187 -43q141 -43 191 -43t82 25t67 88l65 -37q-96 -250 -276 -250q-43 0 -181 43q-125 43 -187 43t-94 -24.5t-67 -87.5zM59 1417h639v-78q-104 -4 -129.5 -23.5t-25.5 -96.5v-787q0 -369 262 -369t262 369v787q0 78 -25.5 97t-130.5 23v78
h639v-78q-104 -4 -129.5 -23.5t-25.5 -96.5v-758q-2 -260 -149.5 -376t-448.5 -116t-441.5 114t-140.5 378v758q0 78 -26 97t-130 23v78z" />
    <glyph glyph-name="utilde" unicode="&#x169;" horiz-adv-x="1288" 
d="M494 1419q63 0 188 -43q141 -43 191 -43t82 24.5t67 88.5l65 -37q-96 -250 -276 -250q-43 0 -174 43t-193.5 43t-94.5 -24.5t-66 -87.5l-66 36q96 250 277 250zM477 360q0 -223 172 -223q63 0 104.5 29t57.5 68.5t16 113.5v432q0 59 -11 80t-38 25l-71 10v74l415 59
l15 -12v-838q0 -63 22.5 -79.5t110.5 -20.5v-78h-426l-17 115q-138 -92 -219.5 -116t-142.5 -24q-127 0 -212 71t-85 237v497q0 59 -11.5 80t-37.5 25l-72 10v74l416 59l14 -12v-656z" />
    <glyph glyph-name="Umacron" unicode="&#x16a;" horiz-adv-x="1609" 
d="M59 1417h639v-78q-104 -4 -129.5 -23.5t-25.5 -96.5v-787q0 -369 262 -369t262 369v787q0 78 -25.5 97t-130.5 23v78h639v-78q-104 -4 -129.5 -23.5t-25.5 -96.5v-758q-2 -260 -149.5 -376t-448.5 -116t-441.5 114t-140.5 378v758q0 78 -26 97t-130 23v78zM446 1567v178
h717v-178h-717z" />
    <glyph glyph-name="umacron" unicode="&#x16b;" horiz-adv-x="1288" 
d="M477 360q0 -223 172 -223q63 0 104.5 29t57.5 68.5t16 113.5v432q0 59 -11 80t-38 25l-71 10v74l415 59l15 -12v-838q0 -63 22.5 -79.5t110.5 -20.5v-78h-426l-17 115q-138 -92 -219.5 -116t-142.5 -24q-127 0 -212 71t-85 237v497q0 59 -11.5 80t-37.5 25l-72 10v74
l416 59l14 -12v-656zM332 1202v178h637v-178h-637z" />
    <glyph glyph-name="Ubreve" unicode="&#x16c;" horiz-adv-x="1609" 
d="M59 1417h639v-78q-104 -4 -129.5 -23.5t-25.5 -96.5v-787q0 -369 262 -369t262 369v787q0 78 -25.5 97t-130.5 23v78h639v-78q-104 -4 -129.5 -23.5t-25.5 -96.5v-758q-2 -260 -149.5 -376t-448.5 -116t-441.5 114t-140.5 378v758q0 78 -26 97t-130 23v78zM467 1835h84
q4 -51 62.5 -96t191.5 -45t191.5 45t62.5 96h84q0 -221 -166 -281q-71 -26 -173 -26q-204 0 -270.5 91t-66.5 216z" />
    <glyph glyph-name="ubreve" unicode="&#x16d;" horiz-adv-x="1288" 
d="M477 360q0 -223 172 -223q63 0 104.5 29t57.5 68.5t16 113.5v432q0 59 -11 80t-38 25l-71 10v74l415 59l15 -12v-838q0 -63 22.5 -79.5t110.5 -20.5v-78h-426l-17 115q-138 -92 -219.5 -116t-142.5 -24q-127 0 -212 71t-85 237v497q0 59 -11.5 80t-37.5 25l-72 10v74
l416 59l14 -12v-656zM324 1466h77q4 -46 37 -83q62 -70 205 -70t196.5 48t57.5 105h80q1 -124 -53 -216q-65 -112 -274 -111q-209 0 -273 107q-53 89 -53 220z" />
    <glyph glyph-name="Uring" unicode="&#x16e;" horiz-adv-x="1609" 
d="M59 1417h639v-78q-104 -4 -129.5 -23.5t-25.5 -96.5v-787q0 -369 262 -369t262 369v787q0 78 -25.5 97t-130.5 23v78h639v-78q-104 -4 -129.5 -23.5t-25.5 -96.5v-758q-2 -260 -149.5 -376t-448.5 -116t-441.5 114t-140.5 378v758q0 78 -26 97t-130 23v78zM698 1671.5
q0 -67.5 30 -105.5t76 -38t76.5 38t30.5 105.5t-30.5 105.5t-76.5 38t-76 -38t-30 -105.5zM561 1670q0 118 70.5 173t173 55t173.5 -55t71 -173t-71 -172t-173.5 -54t-173 54t-70.5 172z" />
    <glyph glyph-name="uring" unicode="&#x16f;" horiz-adv-x="1288" 
d="M477 360q0 -223 172 -223q63 0 104.5 29t57.5 68.5t16 113.5v432q0 59 -11 80t-38 25l-71 10v74l415 59l15 -12v-838q0 -63 22.5 -79.5t110.5 -20.5v-78h-426l-17 115q-138 -92 -219.5 -116t-142.5 -24q-127 0 -212 71t-85 237v497q0 59 -11.5 80t-37.5 25l-72 10v74
l416 59l14 -12v-656zM545 1333.5q0 -67.5 29.5 -105.5t75.5 -38t77 38t31 105.5t-31 105.5t-77 38t-75.5 -38t-29.5 -105.5zM408 1332q0 118 70.5 173.5t173 55.5t173 -55.5t70.5 -173.5t-70.5 -172t-173 -54t-173 54t-70.5 172z" />
    <glyph glyph-name="Uhungarumlaut" unicode="&#x170;" horiz-adv-x="1609" 
d="M59 1417h639v-78q-104 -4 -129.5 -23.5t-25.5 -96.5v-787q0 -369 262 -369t262 369v787q0 78 -25.5 97t-130.5 23v78h639v-78q-104 -4 -129.5 -23.5t-25.5 -96.5v-758q-2 -260 -149.5 -376t-448.5 -116t-441.5 114t-140.5 378v758q0 78 -26 97t-130 23v78zM1259.5 1858
q38.5 0 78.5 -50.5t40 -89.5q0 -47 -98 -98l-281 -147l-59 79l215 236q66 70 104.5 70zM833.5 1858q38.5 0 78.5 -50.5t40 -89.5q0 -47 -98 -98l-281 -147l-59 79l215 236q66 70 104.5 70z" />
    <glyph glyph-name="uhungarumlaut" unicode="&#x171;" horiz-adv-x="1288" 
d="M477 360q0 -223 172 -223q63 0 104.5 29t57.5 68.5t16 113.5v432q0 59 -11 80t-38 25l-71 10v74l415 59l15 -12v-838q0 -63 22.5 -79.5t110.5 -20.5v-78h-426l-17 115q-138 -92 -219.5 -116t-142.5 -24q-127 0 -212 71t-85 237v497q0 59 -11.5 80t-37.5 25l-72 10v74
l416 59l14 -12v-656zM1169 1433q0 -44 -73 -126l-224 -240l-65 39l129 324q43 109 106 108q41 0 84 -30.5t43 -74.5zM750 1433q0 -44 -74 -126l-223 -240l-66 39l129 324q43 109 107 108q41 0 84 -30.5t43 -74.5z" />
    <glyph glyph-name="Wcircumflex" unicode="&#x174;" horiz-adv-x="1910" 
d="M-20 1417h587v-74l-94 -14q-31 -2 -39 -20t2 -58l234 -925h4l254 1060h227l270 -1060h9l116 460q82 330 95.5 414t6.5 103.5t-38 23.5l-117 16v74h469v-74q-84 -10 -110.5 -29.5t-47.5 -88.5q-68 -215 -147 -514l-191 -711h-260l-252 958h-6l-241 -958h-258l-181 684
q-129 483 -149 550.5t-43.5 84t-99.5 24.5v74zM963.5 1853q42.5 0 93.5 -47l291 -260l-37 -61l-269 123q-57 31 -77 30.5t-82 -30.5l-267 -123l-38 61l290 258q53 49 95.5 49z" />
    <glyph glyph-name="wcircumflex" unicode="&#x175;" horiz-adv-x="1585" 
d="M-20 1004h532v-78l-57 -6q-31 -2 -39 -17.5t2 -48.5l155 -563h7l190 713h215l211 -713h8q115 434 137 555q10 59 -34 67l-88 13v78h423v-78q-76 -6 -100 -23.5t-59 -101.5t-107 -322l-147 -479h-225l-205 629h-8l-187 -629h-225l-172 543q-59 186 -87.5 266t-52.5 95.5
t-87 21.5v78zM801 1296q-23 0 -78 -39l-256 -192l-49 55l293 346q53 63 89 63.5t91 -63.5l293 -346l-49 -55l-256 192q-55 39 -78 39z" />
    <glyph glyph-name="Ycircumflex" unicode="&#x176;" horiz-adv-x="1263" 
d="M-25 1417h648v-78l-111 -12q-55 -8 -29 -67l252 -560h6q29 66 118.5 255t122 277.5t-27.5 94.5l-106 12v78h493v-78q-84 -10 -120.5 -30.5t-71.5 -79.5q-104 -182 -297 -572q-37 -78 -37 -145v-313q0 -78 31 -97.5t166 -23.5v-78h-721v78q135 4 165.5 23.5t30.5 97.5v293
q0 55 -43 141l-297 590q-35 72 -63.5 91t-108.5 25v78zM642 1853q42 0 93 -47l291 -260l-37 -61l-268 123q-57 31 -77.5 30.5t-82.5 -30.5l-266 -123l-39 61l291 258q53 49 95 49z" />
    <glyph glyph-name="ycircumflex" unicode="&#x177;" horiz-adv-x="1073" 
d="M-25 1004h574v-78l-78 -13q-47 -6 -25 -67q37 -113 116 -324t91 -248h4q152 461 187 578q14 55 -31 61l-84 13v78h412v-78l-43 -4q-41 -4 -63.5 -33t-53.5 -101q-231 -559 -363 -911q-80 -213 -157.5 -293t-188.5 -80q-63 0 -114.5 36t-51.5 94t41 111.5t82.5 53.5
t100.5 -43q37 -31 73 -30q53 0 80 100q16 63 -12 135q-150 391 -350 870q-31 74 -78 84l-68 11v78zM559.5 1296q-22.5 0 -78.5 -39l-256 -192l-49 55l293 346q53 63 89 63.5t91 -63.5l293 -346l-49 -55l-256 192q-55 39 -77.5 39z" />
    <glyph glyph-name="Ydieresis" unicode="&#x178;" horiz-adv-x="1263" 
d="M-25 1417h648v-78l-111 -12q-55 -8 -29 -67l252 -560h6q29 66 118 255t122 277.5t-27 94.5l-106 12v78h493v-78q-84 -10 -120.5 -30.5t-71.5 -79.5q-104 -182 -297 -572q-37 -78 -37 -145v-313q0 -78 31 -97.5t166 -23.5v-78h-721v78q135 4 165.5 23.5t30.5 97.5v293
q0 55 -43 141l-297 590q-35 72 -63.5 91t-108.5 25v78zM262 1650.5q0 61.5 44 107.5t118 46t118 -46t44 -107.5t-44 -107.5t-118 -46t-118 46t-44 107.5zM778 1650.5q0 61.5 44 107.5t118 46t118 -46t44 -107.5t-44 -107.5t-118 -46t-118 46t-44 107.5z" />
    <glyph glyph-name="Zacute" unicode="&#x179;" horiz-adv-x="1257" 
d="M573 1323q-186 0 -263 -63.5t-113 -243.5h-78v401h1093l27 -43q-616 -936 -838 -1280h330q113 0 183.5 17.5t117.5 65.5t71.5 99.5t59.5 151.5h78l-24 -428h-1190l-27 45q260 389 834 1278h-261zM885 1851q47 0 79.5 -47t32.5 -87t-31.5 -63.5t-117.5 -49.5l-416 -131
l-29 65l353 252q82 61 129 61z" />
    <glyph glyph-name="zacute" unicode="&#x17a;" horiz-adv-x="989" 
d="M422 909q-72 0 -115 -12t-70.5 -51t-39 -73t-29.5 -114h-80v345h864l23 -41q-317 -457 -592 -869h199q156 0 216 55.5t107 219.5h78l-25 -369h-935l-25 43q352 506 592 866h-168zM759 1516q34 0 69.5 -42t35.5 -80t-35.5 -69t-103.5 -68l-375 -210l-43 61l297 305
q57 59 89 81t66 22z" />
    <glyph glyph-name="Zdotaccent" unicode="&#x17b;" horiz-adv-x="1257" 
d="M573 1323q-186 0 -263 -63.5t-113 -243.5h-78v401h1093l27 -43q-616 -936 -838 -1280h330q113 0 183.5 17.5t117.5 65.5t71.5 99.5t59.5 151.5h78l-24 -428h-1190l-27 45q260 389 834 1278h-261zM459 1650.5q0 61.5 44 107.5t117.5 46t117.5 -46t44 -107.5t-44 -107.5
t-117.5 -46t-117.5 46t-44 107.5z" />
    <glyph glyph-name="zdotaccent" unicode="&#x17c;" horiz-adv-x="989" 
d="M422 909q-72 0 -115 -12t-70.5 -51t-39 -73t-29.5 -114h-80v345h864l23 -41q-317 -457 -592 -869h199q156 0 216 55.5t107 219.5h78l-25 -369h-935l-25 43q352 506 592 866h-168zM330 1300.5q0 61.5 44 107.5t117.5 46t117.5 -46t44 -107.5t-44 -107.5t-117.5 -46
t-117.5 46t-44 107.5z" />
    <glyph glyph-name="Zcaron" unicode="&#x17d;" horiz-adv-x="1257" 
d="M573 1323q-186 0 -263 -63.5t-113 -243.5h-78v401h1093l27 -43q-616 -936 -838 -1280h330q113 0 183.5 17.5t117.5 65.5t71.5 99.5t59.5 151.5h78l-24 -428h-1190l-27 45q260 389 834 1278h-261zM670 1722q21 0 78 31l268 123l37 -61l-291 -261q-51 -47 -93 -47t-96 49
l-290 259l39 61l266 -123q61 -31 82 -31z" />
    <glyph glyph-name="zcaron" unicode="&#x17e;" horiz-adv-x="989" 
d="M422 909q-72 0 -115 -12t-70.5 -51t-39 -73t-29.5 -114h-80v345h864l23 -41q-317 -457 -592 -869h199q156 0 216 55.5t107 219.5h78l-25 -369h-935l-25 43q352 506 592 866h-168zM518 1298q23 0 78 39l256 193l49 -55l-293 -347q-55 -63 -91 -63t-89 63l-293 347l49 55
l256 -193q55 -39 78 -39z" />
    <glyph glyph-name="longs" unicode="&#x17f;" horiz-adv-x="679" 
d="M43 0v78q88 4 110.5 20.5t22.5 79.5v914q0 207 97.5 317.5t259.5 110.5q161 0 235 -60t74 -120t-48.5 -95t-106.5 -35t-87 62q-72 154 -115 153q-45 0 -45 -75q0 -35 22.5 -165t22.5 -181v-826q0 -63 26 -79.5t132 -20.5v-78h-600z" />
    <glyph glyph-name="uni0186" unicode="&#x186;" horiz-adv-x="1411" 
d="M567 63q98 0 177 52.5t119 124t69 190.5t29 240.5t-16.5 223t-55.5 212.5t-124 179.5t-191.5 68.5t-171 -27t-107.5 -88t-67.5 -122.5t-55.5 -166.5h-78v400q197 98 479 98q381 0 565.5 -191.5t184.5 -545t-196.5 -548t-583.5 -194.5q-291 0 -441 90l-22 367h78
q88 -262 240 -331q70 -32 169 -32z" />
    <glyph glyph-name="uni0189" unicode="&#x189;" horiz-adv-x="1603" 
d="M569 184q0 -51 35 -70q35 -20 125 -20t157 24q66 24 132 86q136 129 137 515q0 297 -105 451t-311 153q-98 0 -134 -11t-36 -46v-469h291v-99h-291v-514zM72 698v99h170v422q0 78 -26 97t-136 23v78h702q381 -2 558 -177t178 -517q0 -400 -226 -570q-170 -127 -452 -149
q-66 -4 -148 -4h-612v78q110 4 136 23t26 98v499h-170z" />
    <glyph glyph-name="uni018E" unicode="&#x18e;" horiz-adv-x="1288" 
d="M522 94q104 0 156 28q51 28 51 122v446h-194q-94 0 -129 -35t-60 -149h-78v475h78q25 -115 60 -150t129 -34h194v452q0 45 -14 59t-58 15h-153q-78 0 -128 -14q-50 -15 -84 -55t-53 -84t-46 -132h-78v379h1104v-78q-111 -4 -137 -23t-25 -97v-1020q0 -78 25 -98
q26 -19 137 -23v-78h-1145l-25 426h78q71 -210 113 -250q72 -65 125 -74q53 -8 157 -8z" />
    <glyph glyph-name="uni018F" unicode="&#x18f;" horiz-adv-x="1511" 
d="M453 565q0 -187 65 -335q33 -76 94.5 -121.5t143.5 -45.5q285 0 303 558h-553q-53 -1 -53 -56zM86 641q0 35 25.5 56.5t70.5 21.5h881q1 462 -189 592q-62 43 -145 43q-176 0 -287.5 -101.5t-158.5 -240.5h-78v327q98 55 259 82t281 27q334 0 507 -193.5t173 -546
t-171 -546.5q-172 -194 -502 -193q-666 0 -666 672z" />
    <glyph glyph-name="uni0190" unicode="&#x190;" horiz-adv-x="1259" 
d="M78 387.5q0 149.5 107.5 258t256.5 124.5v4q-291 37 -290 311q0 96 54 170t143 114q176 79 382 79q92 0 211 -26.5t203 -82.5v-327h-78q-33 133 -109 237.5t-245 104.5q-111 0 -170.5 -76t-59.5 -196t62.5 -193.5t183.5 -73.5h164v-98h-168q-137 0 -213 -95.5t-76 -243
t84 -231.5t195 -84q160 0 250 91.5t145 281.5h78l-25 -383q-139 -84 -442 -84q-381 -1 -550 173q-93 96 -93 245.5z" />
    <glyph glyph-name="uni0191" unicode="&#x191;" horiz-adv-x="1214" 
d="M238 1219q0 78 -26 97t-136 23v78h1087v-379h-78q-29 88 -47 131q-47 113 -136 140q-50 14 -128 14h-137q-43 0 -57 -14t-15 -60v-491h234q94 0 129 35t59 149h78v-475h-78q-25 115 -59 149t-129 35h-234v-596q0 -165 -44 -279t-120 -170q-138 -102 -311 -102
q-172 0 -258 60t-86 130t54 108t104 38t83 -38q32 -38 48 -83q43 -122 104 -120q106 0 107 180l-8 317v1123z" />
    <glyph glyph-name="florin" unicode="&#x192;" horiz-adv-x="1146" 
d="M186 -276q-128 0 -198 51t-70 106t41 90t98 35q41 0 80 -76q55 -113 90 -112q23 0 29 61l96 860h-207v99h222l16 98q45 248 149 359q112 120 330 120q123 0 206 -60q83 -61 84 -125t-45 -97q-47 -33 -107 -33t-91 67q-66 154 -104 154q-45 0 -62 -125l-49 -358h277v-99
h-293l-39 -293q-69 -531 -241 -659q-84 -63 -212 -63z" />
    <glyph glyph-name="uni0194" unicode="&#x194;" horiz-adv-x="1275" 
d="M565 158q0 -35 25 -65t61 -30q70 0 70 105q0 72 -70 180h-4l-18 -27q-15 -22 -19 -29q-4 -8 -14 -24t-13 -25t-11 -29q-8 -21 -7 -56zM-16 1417h643v-78l-107 -12q-55 -8 -28 -67l243 -543h6q162 322 242 528q29 76 -31 82l-102 12v78h489v-78q-85 -10 -121 -30t-71 -80
q-143 -252 -336 -639q154 -250 154 -383q0 -236 -281 -236q-116 1 -186 53t-70 145t137 298l-409 756q-38 72 -66 91t-106 25v78z" />
    <glyph glyph-name="uni0196" unicode="&#x196;" horiz-adv-x="921" 
d="M59 1417h484v-1018q0 -158 38 -214q39 -56 111 -56t170 57l43 -80q-156 -137 -337 -137t-267 115t-86 344v791q0 78 -26 97t-130 23v78z" />
    <glyph glyph-name="uni0197" unicode="&#x197;" horiz-adv-x="823" 
d="M72 698v99h176v422q0 78 -26 97t-136 23v78h651v-78q-111 -4 -137 -23t-25 -97v-422h177v-99h-177v-499q0 -77 26 -97t136 -24v-78h-651v78q110 4 136 23t26 98v499h-176z" />
    <glyph glyph-name="uni019C" unicode="&#x19c;" horiz-adv-x="2369" 
d="M59 1417h635v-78q-98 -6 -122 -25t-23 -95v-727q0 -205 53 -280t148 -75q130 0 198 80t68 266v736q0 76 -24 95t-122 25v78h619v-78q-98 -6 -122 -25t-24 -95v-740q-1 -150 51 -246t155 -96t183 108q79 108 78 277v697q0 76 -23 95q-24 19 -122 25v78h635v-78
q-110 -4 -136 -23t-26 -97v-1020q0 -77 26 -97t136 -24v-78h-490v156q-96 -100 -182 -144t-206 -43q-120 0 -215 51t-130 160q-96 -115 -191 -163t-227 -48q-203 0 -321 121t-117 385v744q0 78 -25 97q-26 19 -137 23v78z" />
    <glyph glyph-name="uni019F" unicode="&#x19f;" horiz-adv-x="1572" 
d="M786 1354q-312 0 -335 -547h671q-24 547 -336 547zM449 709q0 -322 90 -492q35 -65 99 -109t148 -45q338 0 338 646h-675zM86 709q0 355 176 547t524 192t524 -193t177 -547q0 -354 -176 -546q-177 -193 -525 -193t-524 193t-176 547z" />
    <glyph glyph-name="Ohorn" unicode="&#x1a0;" horiz-adv-x="1572" 
d="M86 708.5q0 354.5 176 547t521 192.5t526 -193q117 109 116 160q1 43 -83 76t-85 112q0 47 37 87.5t108 40.5t120 -58.5t49 -159.5q0 -152 -209 -323q125 -182 125 -481q0 -354 -176 -547t-524.5 -193t-524.5 192.5t-176 547zM449 709q-1 -321 89 -491q34 -66 99 -110.5
t149 -44.5q338 0 338 645.5t-337.5 645.5t-337.5 -645z" />
    <glyph glyph-name="ohorn" unicode="&#x1a1;" horiz-adv-x="1253" 
d="M395 502q0 -432 204 -432t204 432t-204 432t-204 -432zM70 502q0 526 530 526q272 0 408 -147q98 94 98 145q0 31 -40 53.5t-80 50t-40 79.5t34 92t104 40t119.5 -59t49.5 -158q0 -145 -194 -311q70 -125 69 -311q0 -526 -529 -526t-529 526z" />
    <glyph glyph-name="uni01A7" unicode="&#x1a7;" horiz-adv-x="1148" 
d="M55 413q0 91 32 167q69 164 355 280q226 92 280 184q26 45 26 101q0 94 -60 151q-60 58 -158 58t-182 -81t-125 -251h-73v336q144 90 388 90t374 -116t130 -300t-139 -293q-114 -88 -261 -149q-148 -61 -214 -133q-66 -73 -65 -177t65 -160t175 -56q112 0 218 104
q106 106 164 295h76l-31 -367q-72 -66 -196 -96t-259 -30q-134 1 -242 39t-166 103q-58 66 -85 138t-27 163z" />
    <glyph glyph-name="uni01A8" unicode="&#x1a8;" horiz-adv-x="913" 
d="M43 309q0 125 74 200q73 75 199 122t180 87q53 40 53 93t-35 88q-36 35 -104 35t-130 -67t-92 -183h-75v272q117 72 306 72t298 -85t108 -238q0 -203 -301 -316q-205 -72 -205 -194q0 -59 37 -93t105 -32q96 0 175 88t122 221h78l-25 -305q-107 -98 -323 -98t-330 85
q-114 86 -115 248z" />
    <glyph glyph-name="uni01A9" unicode="&#x1a9;" horiz-adv-x="1220" 
d="M1118 1417v-385h-78q-36 158 -110 226t-228 69h-286v-4l272 -467l-403 -627v-4h387q174 1 282 61t138 212h77l-30 -498h-1092l-27 47l410 639l-399 688l16 43h1071z" />
    <glyph glyph-name="Uhorn" unicode="&#x1af;" horiz-adv-x="1703" 
d="M59 1417h639v-78q-104 -4 -129.5 -23.5t-25.5 -96.5v-787q0 -369 262 -369t262 369v787q0 78 -25.5 97t-130.5 23v78h484v-203q164 135 164 201q-1 43 -85 76t-83 112q0 47 36.5 87.5t110.5 40.5t120 -57.5t46 -160.5q0 -182 -309 -399v-653q0 -258 -148.5 -375
t-449.5 -117t-441.5 114t-140.5 378v758q0 78 -26 97t-130 23v78z" />
    <glyph glyph-name="uhorn" unicode="&#x1b0;" horiz-adv-x="1398" 
d="M1137 1212q1 128 123 129q68 0 117.5 -59t49.5 -158q0 -180 -290 -387v-559q0 -63 22.5 -79.5t110.5 -20.5v-78h-426l-17 115q-138 -92 -219.5 -116t-142.5 -24q-127 0 -212 71t-85 237v497q0 59 -11.5 80t-37.5 25l-72 10v74l416 59l14 -12v-656q0 -223 172 -223
q63 0 104.5 29t57.5 68.5t16 113.5v432q0 59 -11 80t-38 25l-71 10v74l415 59l15 -12v-176q141 117 141 186q0 35 -70.5 83.5t-70.5 102.5z" />
    <glyph glyph-name="uni01B2" unicode="&#x1b2;" horiz-adv-x="1474" 
d="M59 1417h639v-78q-104 -4 -130 -23t-25 -97v-787q0 -182 60 -275t202 -94q346 0 346 625q0 256 -201 492q-63 74 -63 128t62 97t167 43q84 0 175 -216t91 -448q0 -384 -94 -547q-100 -178 -269 -234q-101 -34 -233 -34q-303 0 -437 114t-134 378v758q0 78 -26 97t-130 23
v78z" />
    <glyph glyph-name="uni01B7" unicode="&#x1b7;" horiz-adv-x="1265" 
d="M86 264q0 170 143 170t144 -110q0 -25 -7.5 -59t-7.5 -84t54 -84t164 -34t182 82q72 81 71.5 229t-64 236t-166.5 88t-153 -28l-53 67l8 45l402 410h-254q-94 0 -143.5 -8t-88 -39t-59 -79t-45.5 -142h-78v493h916l26 -43l-6 -28q-14 -76 -123 -185l-356 -358l4 -4
q40 16 112 16t158 -20.5t161 -66.5t118 -131t43 -200q0 -428 -635 -428q-209 0 -338 82t-129 213z" />
    <glyph glyph-name="uni01CD" unicode="&#x1cd;" horiz-adv-x="1318" 
d="M393 602h332l-160 531h-6zM-57 0v78q84 4 112.5 23.5t44 60t199.5 565.5l238 690h258l403 -1241q20 -61 49 -78.5t111 -19.5v-78h-647v78l118 12q57 6 35 74l-106 340h-398q-82 -268 -95 -321.5t-6 -73t40 -21.5l123 -10v-78h-479zM668 1722q21 0 77 31l269 123l37 -61
l-291 -261q-51 -47 -93 -47t-96 49l-290 259l38 61l267 -123q61 -31 82 -31z" />
    <glyph glyph-name="uni01CE" unicode="&#x1ce;" horiz-adv-x="1114" 
d="M399 307q0 -78 44 -125t100.5 -47t94.5 32t40 107v297q-168 -76 -184 -86q-95 -53 -95 -178zM84 272q0 182 217 256q94 33 149 50q169 54 228 96v108q0 152 -119 152q-113 0 -180 -205q-27 -82 -83 -82t-120.5 34t-64.5 95q0 104 133 178t352 74q284 0 352 -132
q32 -62 31 -155v-473q0 -133 65 -153q43 -14 99 -11l6 -67q-156 -61 -303 -62q-68 0 -101.5 31t-58.5 88q-6 -4 -32 -22q-26 -17 -36 -23q-10 -7 -36 -21q-94 -54 -189 -53q-147 0 -228 87t-81 210zM595.5 1298q22.5 0 78.5 39l256 193l49 -55l-293 -347q-55 -63 -91 -63
t-89 63l-293 347l49 55l256 -193q55 -39 77.5 -39z" />
    <glyph glyph-name="uni01CF" unicode="&#x1cf;" horiz-adv-x="786" 
d="M68 0v78q111 4 136 23.5t25 97.5v1020q0 78 -25.5 97t-135.5 23v78h651v-78q-111 -4 -136.5 -23.5t-25.5 -96.5v-1020q0 -78 25.5 -97.5t136.5 -23.5v-78h-651zM395 1722q21 0 78 31l268 123l37 -61l-291 -261q-51 -47 -93 -47t-95 49l-291 259l39 61l266 -123
q61 -31 82 -31z" />
    <glyph glyph-name="uni01D1" unicode="&#x1d1;" horiz-adv-x="1572" 
d="M449 709q-1 -321 89 -491q34 -66 99 -110.5t149 -44.5q338 0 338 645.5t-337.5 645.5t-337.5 -645zM86 708.5q0 354.5 176 547t524.5 192.5t524.5 -192.5t176 -547t-176 -547t-524.5 -192.5t-524.5 192.5t-176 547zM788.5 1722q20.5 0 77.5 31l269 123l36 -61l-290 -261
q-51 -47 -93.5 -47t-95.5 49l-291 259l39 61l267 -123q61 -31 81.5 -31z" />
    <glyph glyph-name="uni01D2" unicode="&#x1d2;" horiz-adv-x="1198" 
d="M395 502q0 -432 205 -432t205 432t-205 432t-205 -432zM70 501.5q0 526.5 530 526.5t530 -526.5t-530 -526.5t-530 526.5zM598 1298q23 0 78 39l256 193l49 -55l-293 -347q-55 -63 -91 -63t-89 63l-293 347l49 55l256 -193q55 -39 78 -39z" />
    <glyph glyph-name="uni01D3" unicode="&#x1d3;" horiz-adv-x="1609" 
d="M59 1417h639v-78q-104 -4 -129.5 -23.5t-25.5 -96.5v-787q0 -369 262 -369t262 369v787q0 78 -25.5 97t-130.5 23v78h639v-78q-104 -4 -129.5 -23.5t-25.5 -96.5v-758q-2 -260 -149.5 -376t-448.5 -116t-441.5 114t-140.5 378v758q0 78 -26 97t-130 23v78zM807 1722
q21 0 78 31l268 123l37 -61l-291 -261q-51 -47 -93 -47t-95 49l-291 259l39 61l266 -123q61 -31 82 -31z" />
    <glyph glyph-name="uni01D4" unicode="&#x1d4;" horiz-adv-x="1288" 
d="M477 360q0 -223 172 -223q63 0 104.5 29t57.5 68.5t16 113.5v432q0 59 -11 80t-38 25l-71 10v74l415 59l15 -12v-838q0 -63 22.5 -79.5t110.5 -20.5v-78h-426l-17 115q-138 -92 -219.5 -116t-142.5 -24q-127 0 -212 71t-85 237v497q0 59 -11.5 80t-37.5 25l-72 10v74
l416 59l14 -12v-656zM651 1298q23 0 78 39l256 193l49 -55l-293 -347q-55 -63 -91 -63t-89 63l-293 347l49 55l256 -193q55 -39 78 -39z" />
    <glyph glyph-name="uni01DD" unicode="&#x1dd;" horiz-adv-x="1062" 
d="M352 322q0 -252 146 -252q90 0 131 94t41 225h-254q-37 0 -50.5 -13t-13.5 -54zM31 396q0 52 26.5 71.5t83.5 19.5h529q0 383 -275 383q-178 0 -274 -182l-74 41q115 299 447 299q274 0 387.5 -151.5t113.5 -379.5t-122.5 -375t-383.5 -147q-113 0 -198.5 29t-133.5 72
t-78 103.5t-39 112.5t-9 104z" />
    <glyph glyph-name="uni01E2" unicode="&#x1e2;" horiz-adv-x="1800" 
d="M750 797v514h-21q-98 -182 -258 -514h279zM-158 0v78q86 2 121 24.5t70 90.5q238 446 524 1046q39 80 -18 86l-131 14v78h1275v-379h-77q-27 88 -46.5 132t-53 84t-84 54.5t-128.5 14.5h-153q-43 0 -57.5 -14.5t-14.5 -59.5v-452h195q94 0 128.5 34.5t59.5 149.5h78v-475
h-78q-25 115 -59.5 149.5t-128.5 34.5h-195v-446q0 -94 51 -122t155.5 -28t148.5 7.5t79 32t55 42.5q45 40 113 250h78l-25 -426h-1136v78q111 4 136.5 23.5t25.5 97.5v491h-330q-156 -342 -227 -520q-31 -74 36 -80l131 -12v-78h-518zM584 1567v178h716v-178h-716z" />
    <glyph glyph-name="uni01E3" unicode="&#x1e3;" horiz-adv-x="1650" 
d="M979 614h258q37 0 50 13.5t13 54.5q0 252 -145 252q-94 0 -135 -93.5t-41 -226.5zM399 307q0 -78 44 -125t100.5 -47t94.5 32t40 107v297q-168 -76 -184 -86q-95 -53 -95 -178zM84 254.5q0 107.5 49 171t166 104.5q290 94 379 144v108q0 152 -119 152q-113 0 -180 -205
q-27 -82 -83 -82t-120.5 34t-64.5 95q0 104 131 178t335 74t289 -119q139 119 316 119q117 0 204 -35t131 -82q105 -112 105 -309q0 -47 -26.5 -66.5t-84.5 -19.5h-532q0 -383 276 -383q178 0 275 182l74 -41q-115 -299 -447 -299q-258 -2 -375 179l-96 -62
q-4 -2 -23.5 -15.5t-26.5 -17.5t-26.5 -16t-31 -18.5t-31 -15.5t-35.5 -13t-45 -12.5t-74 -8.5q-147 0 -228 86t-81 193.5zM545 1202v178h637v-178h-637z" />
    <glyph glyph-name="Gcaron" unicode="&#x1e6;" horiz-adv-x="1486" 
d="M86 698q0 212 80 386q49 106 129 182.5t222 129t331 52.5q301 0 469 -90v-373h-78q-89 268 -235 338q-64 31 -148 31t-152.5 -32t-111.5 -86q-90 -114 -116.5 -254.5t-26.5 -224t4 -135.5t15 -134q20 -150 106 -287.5t266 -137.5q104 0 137 18.5t33 74.5v288
q0 76 -28 94.5t-148 26.5v78h618v-78q-76 -8 -95.5 -26.5t-19.5 -89.5v-381q-221 -98 -513.5 -98.5t-461.5 112.5q-276 186 -276 616zM850 1722q21 0 78 31l268 123l37 -61l-291 -261q-51 -47 -93 -47t-95 49l-291 259l39 61l266 -123q61 -31 82 -31z" />
    <glyph glyph-name="gcaron" unicode="&#x1e7;" horiz-adv-x="1091" 
d="M389 695.5q0 -113.5 43 -179t112 -65.5t110.5 64.5t41.5 179t-43 177t-109.5 62.5t-110.5 -62.5t-44 -176zM328 -190q0 -90 75.5 -150.5t185.5 -60.5t181.5 51t71.5 147t-72 133t-208 37t-183 -30q-51 -37 -51 -127zM51 -198q0 144 238 196v4q-72 16 -130.5 71.5
t-58.5 119t59.5 114.5t159.5 76v4q-102 16 -175.5 94t-73.5 209t112.5 234.5t364.5 103.5q176 0 293 -67l256 88l22 -23l-41 -154l-135 -24q47 -61 47 -169q1 -109 -65 -185q-119 -138 -392 -138q-55 0 -94 4q-29 -6 -55.5 -25.5t-26.5 -49.5q0 -70 138 -70h190
q180 0 293 -74.5t113 -246.5q0 -213 -191 -314q-141 -76 -356 -76t-353.5 77t-138.5 221zM528.5 1298q22.5 0 77.5 39l256 193l49 -55l-293 -347q-55 -63 -91 -63t-89 63l-293 347l50 55l256 -193q55 -39 77.5 -39z" />
    <glyph glyph-name="uni01E8" unicode="&#x1e8;" horiz-adv-x="1447" 
d="M68 0v78q111 4 136 23.5t25 97.5v1020q0 78 -25.5 97t-135.5 23v78h651v-78q-111 -4 -136.5 -23.5t-25.5 -96.5v-484l215 248q82 92 238 291q41 51 -13 57l-86 12v74h557v-74q-88 -8 -133 -24t-99 -57q-96 -73 -192.5 -169.5t-222.5 -234.5q223 -373 484 -670
q90 -102 147 -116l21 -6v-78l-140 4q-193 6 -291 56t-200 196q-172 246 -281 450h-4v-495q0 -78 25.5 -97.5t136.5 -23.5v-78h-651zM772 1722q21 0 78 31l268 123l37 -61l-291 -261q-51 -47 -93 -47t-95 49l-291 259l39 61l266 -123q61 -31 82 -31z" />
    <glyph glyph-name="uni01E9" unicode="&#x1e9;" horiz-adv-x="1191" 
d="M39 0v78q88 4 110.5 20.5t22.5 79.5v1094q0 57 -11 79.5t-38 26.5l-72 13v73l416 56l14 -13v-950h4l148 209q121 166 127 176q51 61 121 62h297v-66q-213 -45 -406 -231l-45 -45q176 -279 360 -486q80 -92 132 -110v-66h-185q-115 0 -182.5 25.5t-120.5 95.5
q-127 168 -246 399h-4v-342q0 -63 22.5 -79.5t110.5 -20.5v-78h-575zM628.5 1790q22.5 0 78.5 39l256 192l49 -55l-293 -346q-55 -63 -91 -63.5t-89 63.5l-293 346l49 55l256 -192q55 -39 77.5 -39z" />
    <glyph glyph-name="uni01EE" unicode="&#x1ee;" horiz-adv-x="1265" 
d="M86 264q0 170 143 170t144 -110q0 -25 -7.5 -59t-7.5 -84t53.5 -84t164 -34t182 82t71.5 229.5t-63.5 235.5t-166.5 88t-153 -28l-53 67l8 45l402 410h-254q-94 0 -143.5 -8t-88 -39t-59 -79t-45.5 -142h-78v493h916l26 -43l-6 -28q-14 -76 -123 -185l-356 -358l4 -4
q39 16 111.5 16t158.5 -20.5t161 -66.5t118 -131t43 -200q0 -428 -635 -428q-209 0 -338 82t-129 213zM639 1722q21 0 78 31l268 123l37 -61l-291 -261q-51 -47 -93 -47t-95 49l-291 259l39 61l266 -123q61 -31 82 -31z" />
    <glyph glyph-name="uni01EF" unicode="&#x1ef;" horiz-adv-x="1079" 
d="M66 -236.5q0 64.5 49 91t98 26.5t79 -34.5t30 -91t46 -106.5t116 -50q132 -1 174 119q34 102 34 179.5t-10 129t-31.5 104.5t-63.5 86t-108 33t-117 -29l-55 74l10 45l363 438h-277q-127 0 -170 -47t-65 -182h-80v455h840l22 -43l-12 -37q-10 -33 -76 -111l-379 -457
l4 -4q25 12 109 13q186 0 302 -117t116 -318t-140.5 -313.5t-327.5 -112.5t-276.5 28t-146.5 97.5t-57 134zM540.5 1298q22.5 0 77.5 39l256 193l50 -55l-293 -347q-55 -63 -91 -63t-89 63l-293 347l49 55l256 -193q55 -39 77.5 -39z" />
    <glyph glyph-name="uni01F4" unicode="&#x1f4;" horiz-adv-x="1486" 
d="M86 698q0 212 80 386q49 106 129 182.5t222 129t331 52.5q301 0 469 -90v-373h-78q-89 268 -235 338q-64 31 -148 31t-152.5 -32t-111.5 -86q-90 -114 -116.5 -254.5t-26.5 -224t4 -135.5t15 -134q20 -150 106 -287.5t266 -137.5q104 0 137 18.5t33 74.5v288
q0 76 -28 94.5t-148 26.5v78h618v-78q-76 -8 -95.5 -26.5t-19.5 -89.5v-381q-221 -98 -513.5 -98.5t-461.5 112.5q-276 186 -276 616zM1112 1851q47 0 80 -47t33 -87t-32 -63.5t-118 -49.5l-416 -131l-28 65l352 252q82 61 129 61z" />
    <glyph glyph-name="uni01F5" unicode="&#x1f5;" horiz-adv-x="1091" 
d="M389 695.5q0 -113.5 43 -179t112 -65.5t110.5 64.5t41.5 179t-43 177t-109.5 62.5t-110.5 -62.5t-44 -176zM328 -190q0 -90 75.5 -150.5t185.5 -60.5t181.5 51t71.5 147t-72 133t-208 37t-183 -30q-51 -37 -51 -127zM51 -198q0 144 238 196v4q-72 16 -130.5 71.5
t-58.5 119t59.5 114.5t159.5 76v4q-102 16 -175.5 94t-73.5 209t112.5 234.5t364.5 103.5q176 0 293 -67l256 88l22 -23l-41 -154l-135 -24q47 -61 47 -169q1 -109 -65 -185q-119 -138 -392 -138q-55 0 -94 4q-29 -6 -55.5 -25.5t-26.5 -49.5q0 -70 138 -70h190
q180 0 293 -74.5t113 -246.5q0 -213 -191 -314q-141 -76 -356 -76t-353.5 77t-138.5 221zM796 1516q34 0 69.5 -42t35.5 -80t-36 -69t-103 -68l-375 -210l-43 61l297 305q57 59 89 81t66 22z" />
    <glyph glyph-name="uni01F8" unicode="&#x1f8;" horiz-adv-x="1513" 
d="M57 0v78l72 10q66 8 75 103.5t9 324.5v703q0 78 -25.5 97t-136.5 23v78h486q164 -254 645 -975h8v459q0 227 -7 301t-26.5 99.5t-62.5 27.5l-115 10v78h494v-78l-72 -10q-66 -8 -75 -103t-9 -325v-901h-225q-367 571 -744 1143h-8v-627q0 -227 7 -300.5t26.5 -99.5
t62.5 -28l115 -10v-78h-494zM389 1717q0 40 33 87t80 47t129 -61l352 -252l-29 -65l-415 131q-86 27 -118 50t-32 63z" />
    <glyph glyph-name="uni01F9" unicode="&#x1f9;" horiz-adv-x="1306" 
d="M53 0v78q88 4 110.5 20.5t22.5 79.5v602q0 59 -11 80t-38 25l-71 10v74l403 59l27 -141q96 57 131 76.5t99.5 42t119.5 22.5q154 0 230.5 -83t78.5 -232v-535q0 -63 22.5 -79.5t110.5 -20.5v-78h-551v78l43 4q35 4 50.5 19.5t15.5 62.5v520q-6 186 -162 186
q-119 0 -168 -100q-20 -41 -20 -121v-485q0 -47 15 -62.5t50 -19.5l43 -4v-78h-551zM295 1394q0 38 36 80t69.5 42t65.5 -21.5t89 -81.5l297 -305l-43 -61l-375 210q-68 37 -103.5 68t-35.5 69z" />
    <glyph glyph-name="AEacute" unicode="&#x1fc;" horiz-adv-x="1800" 
d="M750 797v514h-21q-98 -182 -258 -514h279zM-158 0v78q86 2 121 24.5t70 90.5q238 446 524 1046q39 80 -18 86l-131 14v78h1275v-379h-77q-27 88 -46.5 132t-53 84t-84 54.5t-128.5 14.5h-153q-43 0 -57.5 -14.5t-14.5 -59.5v-452h195q94 0 128.5 34.5t59.5 149.5h78v-475
h-78q-25 115 -59.5 149.5t-128.5 34.5h-195v-446q0 -94 51 -122t155.5 -28t148.5 7.5t79 32t55 42.5q45 40 113 250h78l-25 -426h-1136v78q111 4 136.5 23.5t25.5 97.5v491h-330q-156 -342 -227 -520q-31 -74 36 -80l131 -12v-78h-518zM1206 1851q47 0 80 -47t33 -87
t-32 -63.5t-118 -49.5l-415 -131l-29 65l352 252q82 61 129 61z" />
    <glyph glyph-name="aeacute" unicode="&#x1fd;" horiz-adv-x="1650" 
d="M979 614h258q37 0 50 13.5t13 54.5q0 252 -145 252q-94 0 -135 -93.5t-41 -226.5zM399 307q0 -78 44 -125t100.5 -47t94.5 32t40 107v297q-168 -76 -184 -86q-95 -53 -95 -178zM84 254.5q0 107.5 49 171t166 104.5q290 94 379 144v108q0 152 -119 152q-113 0 -180 -205
q-27 -82 -83 -82t-120.5 34t-64.5 95q0 104 131 178t335 74t289 -119q139 119 316 119q117 0 204 -35t131 -82q105 -112 105 -309q0 -47 -26.5 -66.5t-84.5 -19.5h-532q0 -383 276 -383q178 0 275 182l74 -41q-115 -299 -447 -299q-258 -2 -375 179l-96 -62
q-4 -2 -23.5 -15.5t-26.5 -17.5t-26.5 -16t-31 -18.5t-31 -15.5t-35.5 -13t-45 -12.5t-74 -8.5q-147 0 -228 86t-81 193.5zM1131.5 1516q33.5 0 69.5 -42t36 -80t-36 -69t-103 -68l-375 -210l-43 61l297 305q57 59 89 81t65.5 22z" />
    <glyph glyph-name="Oslashacute" unicode="&#x1fe;" horiz-adv-x="1572" 
d="M786 63q104 1 176 59t104 164q54 180 58 423q-4 254 -53 403l-516 -926q84 -123 231 -123zM786 1354q-327 0 -337 -645q4 -258 49 -398l514 922q-80 121 -226 121zM86 709q0 355 176 547t524 192q178 0 316 -53l76 135l96 -53l-74 -131q287 -176 287 -637
q0 -354 -176 -547t-525 -193q-188 0 -321 58l-84 -152l-90 64l76 137q-281 180 -281 633zM1352 1898q0 -40 -32 -64t-118 -50l-416 -131l-28 65l352 252q82 62 129 62t80 -47t33 -87z" />
    <glyph glyph-name="oslashacute" unicode="&#x1ff;" horiz-adv-x="1198" 
d="M600 70q211 0 211 432q0 137 -20 231l-347 -565q49 -98 156 -98zM387 502q0 -129 19 -217l344 561q-53 88 -150 88q-213 0 -213 -432zM70 502q0 526 530 526q139 0 238 -37l65 105l80 -49l-59 -95q205 -125 204 -450q0 -526 -528 -527q-137 0 -248 41l-73 -120l-76 57
l63 104q-196 126 -196 445zM1007 1688q35 0 71 -42t36 -80t-36 -69t-103 -67l-377 -211l-41 61l295 305q59 59 90 81t65 22z" />
    <glyph glyph-name="uni0200" unicode="&#x200;" horiz-adv-x="1318" 
d="M393 602h332l-160 531h-6zM-57 0v78q85 4 113 24t44 60t199 565l238 690h258l403 -1241q20 -61 49 -78.5t111 -19.5v-78h-647v78l118 12q57 6 35 74l-106 340h-398q-82 -268 -95 -322t-6 -73t40 -21l123 -10v-78h-479zM518 1718q0 39 40 89.5t79 50.5t104 -70l215 -236
l-59 -79l-281 147q-98 51 -98 98zM92 1718q0 39 40 89.5t79 50.5t104 -70l215 -236l-59 -79l-281 147q-98 51 -98 98z" />
    <glyph glyph-name="uni0201" unicode="&#x201;" horiz-adv-x="1114" 
d="M399 307q0 -78 44 -125t100.5 -47t94.5 32t40 107v297q-168 -76 -184 -86q-95 -53 -95 -178zM84 272q0 182 217 256q94 33 149 50q169 54 228 96v108q0 152 -119 152q-113 0 -180 -205q-27 -82 -83 -82t-120.5 34t-64.5 95q0 104 133 178t352 74q284 0 352 -132
q32 -62 31 -155v-473q0 -133 65 -153q43 -14 99 -11l6 -67q-156 -61 -303 -62q-68 0 -101.5 31t-58.5 88q-6 -4 -32 -22q-26 -17 -36 -23q-10 -7 -36 -21q-94 -54 -189 -53q-147 0 -228 87t-81 210zM498 1433q0 44 43 74.5t84 30.5q63 0 106 -108l129 -324l-65 -39l-224 240
q-73 82 -73 126zM78 1433q0 44 43 74.5t84 30.5q63 0 106 -108l129 -324l-65 -39l-223 240q-74 82 -74 126z" />
    <glyph glyph-name="uni0202" unicode="&#x202;" horiz-adv-x="1318" 
d="M393 602h332l-160 531h-6zM-57 0v78q84 4 112.5 23.5t44 60t199.5 565.5l238 690h258l403 -1241q20 -61 49 -78.5t111 -19.5v-78h-647v78l118 12q57 6 35 74l-106 340h-398q-82 -268 -95 -321.5t-6 -73t40 -21.5l123 -10v-78h-479zM328 1528q0 222 166 282q70 26 172 25
q204 0 271 -90.5t67 -216.5h-84q-4 51 -62.5 96t-192 45t-191.5 -45t-62 -96h-84z" />
    <glyph glyph-name="uni0203" unicode="&#x203;" horiz-adv-x="1114" 
d="M399 307q0 -78 44 -125t100.5 -47t94.5 32t40 107v297q-168 -76 -184 -86q-95 -53 -95 -178zM84 272q0 182 217 256q94 33 149 50q169 54 228 96v108q0 152 -119 152q-113 0 -180 -205q-27 -82 -83 -82t-120.5 34t-64.5 95q0 104 133 178t352 74q284 0 352 -132
q32 -62 31 -155v-473q0 -133 65 -153q43 -14 99 -11l6 -67q-156 -61 -303 -62q-68 0 -101.5 31t-58.5 88q-6 -4 -32 -22q-26 -17 -36 -23q-10 -7 -36 -21q-94 -54 -189 -53q-147 0 -228 87t-81 210zM922 1139h-78q-4 45 -37 83q-61 70 -204.5 70t-197 -48t-57.5 -105h-80
q0 233 154 297q70 30 173 30q211 0 273 -107q54 -91 54 -220z" />
    <glyph glyph-name="uni0204" unicode="&#x204;" horiz-adv-x="1288" 
d="M68 0v78q111 4 136 23.5t25 97.5v1020q0 78 -25.5 97t-135.5 23v78h1103v-379h-77q-27 88 -46.5 132t-53 84t-84 54.5t-128.5 14.5h-153q-43 0 -57.5 -14.5t-14.5 -59.5v-452h195q94 0 128.5 34.5t59.5 149.5h78v-475h-78q-25 115 -59.5 149.5t-128.5 34.5h-195v-446
q0 -94 51 -122t155.5 -28t148.5 7.5t79 32t55 42.5q45 40 113 250h78l-25 -426h-1144zM504 1718q0 39 40 89.5t79 50.5t104 -70l215 -236l-59 -79l-281 147q-98 51 -98 98zM78 1718q0 39 40 89.5t79 50.5t104 -70l215 -236l-59 -79l-281 147q-98 51 -98 98z" />
    <glyph glyph-name="uni0205" unicode="&#x205;" horiz-adv-x="1062" 
d="M395 614h254q37 0 50.5 13.5t13.5 54.5q0 252 -146 252q-90 0 -131 -94.5t-41 -225.5zM575 1028q113 0 199 -28.5t134 -71.5q126 -113 126 -326q0 -47 -26.5 -66.5t-83.5 -19.5h-529q0 -383 275 -383q178 0 274 182l74 -41q-115 -299 -447 -299q-276 0 -388.5 152.5
t-112.5 380t122.5 374t382.5 146.5zM475 1433q0 44 43 74.5t84 30.5q63 0 107 -108l129 -324l-66 -39l-223 240q-74 82 -74 126zM55 1433q0 44 43 74.5t84 30.5q63 0 107 -108l129 -324l-66 -39l-223 240q-74 82 -74 126z" />
    <glyph glyph-name="uni0206" unicode="&#x206;" horiz-adv-x="1288" 
d="M68 0v78q111 4 136 23.5t25 97.5v1020q0 78 -25.5 97t-135.5 23v78h1103v-379h-77q-27 88 -46.5 132t-53 84t-84 54.5t-128.5 14.5h-153q-43 0 -57.5 -14.5t-14.5 -59.5v-452h195q94 0 128.5 34.5t59.5 149.5h78v-475h-78q-25 115 -59.5 149.5t-128.5 34.5h-195v-446
q0 -94 51 -122t155.5 -28t148.5 7.5t79 32t55 42.5q45 40 113 250h78l-25 -426h-1144zM313 1528q1 220 167 282q70 26 172 25q204 0 276 -98q61 -82 61 -209h-84q-4 51 -62.5 96t-191.5 45t-191.5 -45t-62.5 -96h-84z" />
    <glyph glyph-name="uni0207" unicode="&#x207;" horiz-adv-x="1062" 
d="M395 614h254q37 0 50.5 13.5t13.5 54.5q0 252 -146 252q-90 0 -131 -94.5t-41 -225.5zM575 1028q113 0 199 -28.5t134 -71.5q126 -113 126 -326q0 -47 -26.5 -66.5t-83.5 -19.5h-529q0 -383 275 -383q178 0 274 182l74 -41q-115 -299 -447 -299q-276 0 -388.5 152.5
t-112.5 380t122.5 374t382.5 146.5zM899 1139h-78q-4 46 -37 84q-60 69 -204 69t-197 -48t-57 -105h-80q0 231 154 297q70 30 172 30q210 0 274 -107q53 -89 53 -220z" />
    <glyph glyph-name="uni0208" unicode="&#x208;" horiz-adv-x="786" 
d="M68 0v78q111 4 136 23.5t25 97.5v1020q0 78 -25.5 97t-135.5 23v78h651v-78q-111 -4 -136.5 -23.5t-25.5 -96.5v-1020q0 -78 25.5 -97.5t136.5 -23.5v-78h-651zM246 1718q0 39 40 89.5t79 50.5t104 -70l215 -236l-59 -79l-281 147q-98 51 -98 98zM-180 1718q0 39 40 89.5
t79 50.5t104 -70l215 -236l-59 -79l-281 147q-98 51 -98 98z" />
    <glyph glyph-name="uni0209" unicode="&#x209;" horiz-adv-x="647" 
d="M53 0v78q88 4 110.5 20.5t22.5 79.5v602q0 59 -11 80t-38 25l-71 10v74l415 59l15 -12v-838q0 -63 22.5 -79.5t110.5 -20.5v-78h-576zM242 1433q0 44 43 74.5t84 30.5q63 0 106 -108l129 -324l-65 -39l-224 240q-73 82 -73 126zM-178 1433q0 44 43 74.5t84 30.5
q63 0 106 -108l129 -324l-65 -39l-223 240q-74 82 -74 126z" />
    <glyph glyph-name="uni020A" unicode="&#x20a;" horiz-adv-x="786" 
d="M68 0v78q111 4 136 23.5t25 97.5v1020q0 78 -25.5 97t-135.5 23v78h651v-78q-111 -4 -136.5 -23.5t-25.5 -96.5v-1020q0 -78 25.5 -97.5t136.5 -23.5v-78h-651zM55 1528q1 220 167 282q70 26 172 25q204 0 276 -98q61 -82 61 -209h-84q-4 51 -62.5 96t-191.5 45
t-191.5 -45t-62.5 -96h-84z" />
    <glyph glyph-name="uni020B" unicode="&#x20b;" horiz-adv-x="647" 
d="M53 0v78q88 4 110.5 20.5t22.5 79.5v602q0 59 -11 80t-38 25l-71 10v74l415 59l15 -12v-838q0 -63 22.5 -79.5t110.5 -20.5v-78h-576zM666 1139h-78q-4 45 -37 83q-61 70 -204.5 70t-197 -48t-57.5 -105h-80q0 233 154 297q70 30 173 30q211 0 273 -107q54 -91 54 -220z
" />
    <glyph glyph-name="uni020C" unicode="&#x20c;" horiz-adv-x="1572" 
d="M449 709q-1 -321 89 -491q34 -66 99 -110.5t149 -44.5q338 0 338 645.5t-337.5 645.5t-337.5 -645zM86 708.5q0 354.5 176 547t524.5 192.5t524.5 -192.5t176 -547t-176 -547t-524.5 -192.5t-524.5 192.5t-176 547zM639 1718q0 39 40 89.5t79 50.5t104 -70l215 -236
l-59 -79l-281 147q-98 51 -98 98zM213 1718q0 39 40 89.5t79 50.5t104 -70l215 -236l-59 -79l-281 147q-98 51 -98 98z" />
    <glyph glyph-name="uni020D" unicode="&#x20d;" horiz-adv-x="1198" 
d="M395 502q0 -432 205 -432t205 432t-205 432t-205 -432zM70 501.5q0 526.5 530 526.5t530 -526.5t-530 -526.5t-530 526.5zM500 1433q0 44 43 74.5t84 30.5q63 0 106 -108l129 -324l-65 -39l-224 240q-73 82 -73 126zM80 1433q0 44 43 74.5t84 30.5q63 0 106 -108
l129 -324l-65 -39l-223 240q-74 82 -74 126z" />
    <glyph glyph-name="uni020E" unicode="&#x20e;" horiz-adv-x="1572" 
d="M449 709q-1 -321 89 -491q34 -66 99 -110.5t149 -44.5q338 0 338 645.5t-337.5 645.5t-337.5 -645zM86 708.5q0 354.5 176 547t524.5 192.5t524.5 -192.5t176 -547t-176 -547t-524.5 -192.5t-524.5 192.5t-176 547zM449 1528q-1 222 165 282q70 26 172 25q204 0 277 -98
q61 -82 61 -209h-84q-4 51 -62 96t-191.5 45t-191.5 -45t-63 -96h-83z" />
    <glyph glyph-name="uni020F" unicode="&#x20f;" horiz-adv-x="1198" 
d="M395 502q0 -432 205 -432t205 432t-205 432t-205 -432zM70 501.5q0 526.5 530 526.5t530 -526.5t-530 -526.5t-530 526.5zM924 1139h-78q-4 45 -37 83q-61 70 -204.5 70t-197 -48t-57.5 -105h-80q0 233 154 297q70 30 173 30q211 0 273 -107q54 -91 54 -220z" />
    <glyph glyph-name="uni0210" unicode="&#x210;" horiz-adv-x="1400" 
d="M557 745h102q272 0 272.5 289t-243.5 289q-80 0 -105.5 -17.5t-25.5 -62.5v-498zM68 0v78q111 4 136 23.5t25 97.5v1020q0 78 -25.5 97t-135.5 23v78h710q272 0 396 -106q102 -94 102 -243.5t-96.5 -242t-249.5 -112.5v-4q143 -37 197.5 -120t82 -239t99.5 -227
q43 -43 96 -45v-78h-152q-160 0 -237.5 45t-110.5 151t-69 296q-35 160 -185 159h-94v-452q0 -78 25.5 -97.5t136.5 -23.5v-78h-651zM496 1718q0 39 39.5 89.5t78.5 50.5t105 -70l215 -236l-60 -79l-280 147q-98 51 -98 98zM70 1718q0 39 40 89.5t78.5 50.5t104.5 -70
l215 -236l-59 -79l-281 147q-98 51 -98 98z" />
    <glyph glyph-name="uni0211" unicode="&#x211;" horiz-adv-x="901" 
d="M53 0v78q88 4 110.5 20.5t22.5 79.5v602q0 59 -11 80t-38 25l-71 10v74l399 59l24 -180q94 100 152.5 140t122.5 40t102.5 -39t38.5 -107.5t-36 -117.5t-89 -49t-116.5 38t-98.5 38q-70 0 -69 -154v-459q0 -63 27.5 -78.5t148.5 -21.5v-78h-619zM463 1433q0 44 43 74.5
t84 30.5q63 0 106 -108l129 -324l-65 -39l-223 240q-74 82 -74 126zM43 1433q0 44 43 74.5t84 30.5q63 0 106 -108l130 -324l-66 -39l-223 240q-74 82 -74 126z" />
    <glyph glyph-name="uni0212" unicode="&#x212;" horiz-adv-x="1400" 
d="M557 745h102q272 0 272.5 289t-243.5 289q-80 0 -105.5 -17.5t-25.5 -62.5v-498zM68 0v78q111 4 136 23.5t25 97.5v1020q0 78 -25.5 97t-135.5 23v78h710q272 0 396 -106q102 -94 102 -243.5t-96.5 -242t-249.5 -112.5v-4q143 -37 197.5 -120t82 -239t99.5 -227
q43 -43 96 -45v-78h-152q-160 0 -237.5 45t-110.5 150.5t-69 296.5q-35 160 -185 159h-94v-452q0 -78 25.5 -97.5t136.5 -23.5v-78h-651zM305 1528q0 222 166 282q70 26 172 25q205 0 271.5 -91t66.5 -216h-84q-4 51 -62.5 96t-191.5 45t-191.5 -45t-62.5 -96h-84z" />
    <glyph glyph-name="uni0213" unicode="&#x213;" horiz-adv-x="901" 
d="M887 1139h-78q-4 45 -37 83q-61 70 -204.5 70t-197 -48t-57.5 -105h-80q0 233 154 297q70 30 173 30q212 0 274 -107q54 -91 53 -220zM53 0v78q88 4 110.5 20.5t22.5 79.5v602q0 59 -11 80t-38 25l-71 10v74l399 59l24 -180q94 100 152.5 140t122.5 40t102.5 -39
t38.5 -107.5t-36 -117.5t-89 -49t-116.5 38t-98.5 38q-70 0 -69 -154v-459q0 -63 27.5 -78.5t148.5 -21.5v-78h-619z" />
    <glyph glyph-name="uni0214" unicode="&#x214;" horiz-adv-x="1609" 
d="M59 1417h639v-78q-104 -4 -129.5 -23.5t-25.5 -96.5v-787q0 -369 262 -369t262 369v787q0 78 -25.5 97t-130.5 23v78h639v-78q-104 -4 -129.5 -23.5t-25.5 -96.5v-758q-2 -260 -149.5 -376t-448.5 -116t-441.5 114t-140.5 378v758q0 78 -26 97t-130 23v78zM657 1718
q0 39 40 89.5t79 50.5t105 -70l215 -236l-60 -79l-280 147q-99 51 -99 98zM231 1718q0 39 40 89.5t79 50.5t105 -70l215 -236l-60 -79l-280 147q-99 51 -99 98z" />
    <glyph glyph-name="uni0215" unicode="&#x215;" horiz-adv-x="1288" 
d="M477 360q0 -223 172 -223q63 0 104.5 29t57.5 68.5t16 113.5v432q0 59 -11 80t-38 25l-71 10v74l415 59l15 -12v-838q0 -63 22.5 -79.5t110.5 -20.5v-78h-426l-17 115q-138 -92 -219.5 -116t-142.5 -24q-127 0 -212 71t-85 237v497q0 59 -11.5 80t-37.5 25l-72 10v74
l416 59l14 -12v-656zM553 1433q0 44 43 74.5t84 30.5q63 0 106 -108l129 -324l-65 -39l-223 240q-74 82 -74 126zM133 1433q0 44 43 74.5t84 30.5q63 0 107 -108l129 -324l-66 -39l-223 240q-74 82 -74 126z" />
    <glyph glyph-name="uni0216" unicode="&#x216;" horiz-adv-x="1609" 
d="M59 1417h639v-78q-104 -4 -129.5 -23.5t-25.5 -96.5v-787q0 -369 262 -369t262 369v787q0 78 -25.5 97t-130.5 23v78h639v-78q-104 -4 -129.5 -23.5t-25.5 -96.5v-758q-2 -260 -149.5 -376t-448.5 -116t-441.5 114t-140.5 378v758q0 78 -26 97t-130 23v78zM467 1528
q-1 222 165 282q70 26 172 25q205 0 272 -91t67 -216h-84q-4 51 -62.5 96t-191.5 45t-191.5 -45t-62.5 -96h-84z" />
    <glyph glyph-name="uni0217" unicode="&#x217;" horiz-adv-x="1288" 
d="M977 1139h-78q-4 47 -37 84q-61 69 -204.5 69t-196.5 -48t-58 -105h-79q0 231 154 297q70 30 172 30q212 0 274 -107q54 -91 53 -220zM477 360q0 -223 172 -223q63 0 104.5 29t57.5 68.5t16 113.5v432q0 59 -11 80t-38 25l-71 10v74l415 59l15 -12v-838q0 -63 22.5 -79.5
t110.5 -20.5v-78h-426l-17 115q-138 -92 -219.5 -116t-142.5 -24q-127 0 -212 71t-85 237v497q0 59 -11.5 80t-37.5 25l-72 10v74l416 59l14 -12v-656z" />
    <glyph glyph-name="Scommaaccent" unicode="&#x218;" horiz-adv-x="1148" 
d="M457 -200q0 42 33 78q34 36 95 36t105 -47t43 -121q0 -74 -44 -144t-89 -112q-45 -41 -121 -98l-43 43q49 53 71 94q46 85 -14 176q-36 53 -36 95zM608 1448q244 0 389 -90v-336h-73q-41 170 -124 251q-82 81 -182 81t-159 -58t-59 -160q0 -103 104 -172q81 -55 183 -97
q102 -43 159 -75q58 -32 120 -84q126 -105 126 -289t-112 -307q-124 -139 -421 -143q-121 0 -246 31t-196 96l-31 367h76q58 -187 164 -293t218 -106t174 56q64 56 65 160q1 193 -243 296q-112 46 -170 78t-126 85q-140 109 -140 293t130 300t374 116z" />
    <glyph glyph-name="scommaaccent" unicode="&#x219;" horiz-adv-x="913" 
d="M416 -389q0 41 -36 94t-36 95t34 78t94 36t105 -47q44 -47 44 -121t-44 -144q-43 -70 -89 -112q-46 -41 -121 -98l-43 43q92 100 92 176zM453 70q69 0 105 32t36 93q0 123 -205 194q-301 113 -301 316q0 155 109 239t298 84t306 -72v-272h-76q-29 118 -91 184t-130 66
t-104 -35t-36 -88t54 -93q53 -40 179 -87t200 -122t73 -200q0 -162 -114 -248t-331 -86q-216 0 -323 99l-24 305h78q43 -133 122 -221t175 -88z" />
    <glyph glyph-name="uni021A" unicode="&#x21a;" horiz-adv-x="1277" 
d="M504 -200q0 42 34 78t94 36t104 -47t44 -121t-44 -144t-89 -112q-45 -41 -121 -98l-43 43q49 53 71 94q46 85 -14 176q-36 53 -36 95zM31 1032v385h1216v-385h-78q-66 196 -98 224q-53 50 -96 59q-43 8 -90 8h-82v-1128q0 -57 16 -82t64 -27l116 -8v-78h-720v78l116 8
q47 2 64 27q16 25 16 82v1128h-82q-131 0 -178 -57t-106 -234h-78z" />
    <glyph glyph-name="uni021B" unicode="&#x21b;" horiz-adv-x="757" 
d="M338 -389q0 41 -36 94t-36 95t34 78t94 36t105 -47q44 -47 44 -121t-44 -144t-89 -112q-45 -41 -121 -98l-43 43q92 100 92 176zM66 901v103h129l180 258h119v-258h213v-103h-213v-584q0 -188 131 -188q70 0 116 21l23 -64q-176 -111 -326 -111q-98 0 -176 68t-78 197
v661h-118z" />
    <glyph glyph-name="uni021E" unicode="&#x21e;" horiz-adv-x="1652" 
d="M68 0v78q111 4 136 23.5t25 97.5v1020q0 78 -25.5 97t-135.5 23v78h651v-78q-111 -4 -136.5 -23.5t-25.5 -96.5v-422h539v422q0 78 -26 97t-136 23v78h651v-78q-111 -4 -136.5 -23.5t-25.5 -96.5v-1020q0 -78 26 -97.5t136 -23.5v-78h-651v78q111 4 136.5 23.5t25.5 97.5
v499h-539v-499q0 -78 25.5 -97.5t136.5 -23.5v-78h-651zM829.5 1722q20.5 0 77.5 31l269 123l36 -61l-290 -261q-51 -47 -93.5 -47t-95.5 49l-291 259l39 61l267 -123q61 -31 81.5 -31z" />
    <glyph glyph-name="uni021F" unicode="&#x21f;" horiz-adv-x="1292" 
d="M39 0v78q88 4 110.5 20.5t22.5 79.5v1094q0 57 -11 79.5t-38 26.5l-72 13v73l416 56l14 -13v-620q82 51 123 75q116 66 223 66q158 0 236 -84t78 -233v-533q0 -63 22.5 -79.5t110.5 -20.5v-78h-551v78l43 4q35 4 50 19.5t15 62.5v516q0 190 -161 190q-117 0 -168 -100
q-20 -41 -21 -121v-485q0 -47 15.5 -62.5t50.5 -19.5l43 -4v-78h-551zM655.5 1790q22.5 0 77.5 39l256 192l49 -55l-293 -346q-55 -63 -91 -63.5t-89 63.5l-293 346l50 55l256 -192q55 -39 77.5 -39z" />
    <glyph glyph-name="uni0226" unicode="&#x226;" horiz-adv-x="1318" 
d="M393 602h332l-160 531h-6zM-57 0v78q85 4 113 24t44 60t199 565l238 690h258l403 -1241q20 -61 49 -78.5t111 -19.5v-78h-647v78l118 12q57 6 35 74l-106 340h-398q-82 -268 -95 -322t-6 -73t40 -21l123 -10v-78h-479zM504 1650.5q0 61.5 44 107.5t117.5 46t117.5 -46
t44 -107.5t-44 -107.5t-117.5 -46t-117.5 46t-44 107.5z" />
    <glyph glyph-name="uni0227" unicode="&#x227;" horiz-adv-x="1114" 
d="M399 307q0 -78 44 -125t100.5 -47t94.5 32t40 107v297q-168 -76 -184 -86q-95 -53 -95 -178zM84 272q0 182 217 256q94 33 149 50q169 54 228 96v108q0 152 -119 152q-113 0 -180 -205q-27 -82 -83 -82t-120.5 34t-64.5 95q0 104 133 178t352 74q284 0 352 -132
q32 -62 31 -155v-473q0 -133 65 -153q43 -14 99 -11l6 -67q-156 -61 -303 -62q-68 0 -101.5 31t-58.5 88q-6 -4 -32 -22q-26 -17 -36 -23q-10 -7 -36 -21q-94 -54 -189 -53q-147 0 -228 87t-81 210zM434 1300.5q0 61.5 44 107.5t118 46t118 -46t44 -107.5t-44 -107.5
t-118 -46t-118 46t-44 107.5z" />
    <glyph glyph-name="uni022E" unicode="&#x22e;" horiz-adv-x="1572" 
d="M449 709q-1 -321 89 -491q34 -66 99 -110.5t149 -44.5q338 0 338 645.5t-337.5 645.5t-337.5 -645zM86 708.5q0 354.5 176 547t524.5 192.5t524.5 -192.5t176 -547t-176 -547t-524.5 -192.5t-524.5 192.5t-176 547zM625 1650.5q0 61.5 44 107.5t117.5 46t117.5 -46
t44 -107.5t-44 -107.5t-117.5 -46t-117.5 46t-44 107.5z" />
    <glyph glyph-name="uni022F" unicode="&#x22f;" horiz-adv-x="1198" 
d="M395 502q0 -432 205 -432t205 432t-205 432t-205 -432zM70 501.5q0 526.5 530 526.5t530 -526.5t-530 -526.5t-530 526.5zM436 1300.5q0 61.5 44 107.5t118 46t118 -46t44 -107.5t-44 -107.5t-118 -46t-118 46t-44 107.5z" />
    <glyph glyph-name="uni0232" unicode="&#x232;" horiz-adv-x="1263" 
d="M-25 1417h648v-78l-111 -12q-55 -8 -29 -67l252 -560h6q29 66 118 255t122 277.5t-27 94.5l-106 12v78h493v-78q-84 -10 -120.5 -30.5t-71.5 -79.5q-104 -182 -297 -572q-37 -78 -37 -145v-313q0 -78 31 -97.5t166 -23.5v-78h-721v78q135 4 165.5 23.5t30.5 97.5v293
q0 55 -43 141l-297 590q-35 72 -63.5 91t-108.5 25v78zM283 1567v178h716v-178h-716z" />
    <glyph glyph-name="uni0233" unicode="&#x233;" horiz-adv-x="1073" 
d="M-25 1004h574v-78l-78 -13q-47 -6 -25 -67q37 -113 116 -324t91 -248h4q152 461 187 578q14 55 -31 61l-84 13v78h412v-78l-43 -4q-41 -4 -63.5 -33t-53.5 -101q-231 -559 -363 -911q-80 -213 -157.5 -293t-188.5 -80q-63 0 -114.5 36t-51.5 94t41 111.5t82.5 53.5
t100.5 -43q37 -31 73 -30q53 0 80 100q16 63 -12 135q-150 391 -350 870q-31 74 -78 84l-68 11v78zM240 1202v178h637v-178h-637z" />
    <glyph glyph-name="uni0237" unicode="&#x237;" horiz-adv-x="647" 
d="M201 63v717q0 59 -11.5 80t-37.5 25l-72 10v74l416 59l14 -12v-965q0 -360 -186 -457q-133 -70 -340 -69l-9 63q100 33 148 93q78 98 78 382z" />
    <glyph glyph-name="uni0241" unicode="&#x241;" horiz-adv-x="1114" 
d="M76 1225q0 83 140 153t353 70t338 -81t125 -232t-112 -305q-48 -62 -94 -123q-112 -146 -111 -310v-202q0 -57 16 -82t64 -27l116 -8v-78h-721v78l117 8q47 2 64 27q16 25 16 82v143q0 135 47 254q48 118 104 192t103 180t47 212t-35 142t-93 36t-118 -60t-110 -166
q-29 -59 -109 -59q-39 -1 -93 49t-54 107z" />
    <glyph glyph-name="uni0244" unicode="&#x244;" horiz-adv-x="1662" 
d="M569 432q0 -369 262 -369t263 369v266h-525v-266zM66 698v99h176v422q0 78 -26 97t-130 23v78h639v-78q-104 -4 -130 -23t-26 -97v-422h525v422q0 78 -26 97t-130 23v78h639v-78q-104 -4 -130 -23t-26 -97v-422h176v-99h-176v-237q0 -258 -148 -375q-147 -117 -449 -117
t-442 114t-140 378v237h-176z" />
    <glyph glyph-name="uni0245" unicode="&#x245;" horiz-adv-x="1310" 
d="M-57 0v78q85 6 113 26t62 108t171 490l241 715h258l400 -1235q20 -66 50 -83t110 -21v-78h-646v78l119 10q55 4 35 74l-293 968h-10q-115 -387 -177 -573t-112 -401q-8 -34 0 -50t39 -18l119 -10v-78h-479z" />
    <glyph glyph-name="uni0250" unicode="&#x250;" horiz-adv-x="1114" 
d="M715 696q0 78 -44 125t-100.5 47t-94.5 -31.5t-40 -107.5v-297q168 76 185 86q94 53 94 178zM268 1028q68 0 101.5 -30.5t58.5 -88.5q6 4 31.5 21.5t36 24t36.5 20.5q97 53 189 53q147 0 228 -87t81 -210q0 -182 -217 -256q-109 -38 -157 -52q-149 -45 -220 -93v-109
q0 -152 119 -151q113 0 180 204q27 82 83 82t121 -33.5t65 -95.5q0 -104 -133.5 -178t-352.5 -74q-284 0 -352 133q-32 62 -31 154v473q0 133 -65 154q-43 14 -99 10l-6 68q156 61 303 61z" />
    <glyph glyph-name="uni0251" unicode="&#x251;" horiz-adv-x="1218" 
d="M395 529.5q0 -193.5 58.5 -295t152.5 -101.5q152 0 152 178v412q0 111 -29 161t-119 50t-152.5 -105.5t-62.5 -299zM70 489.5q0 239.5 145 389t391 149.5q156 0 277 -63l88 63h96v-850q0 -63 22.5 -79.5t110.5 -20.5v-78h-438l-4 106q-72 -76 -133.5 -103.5t-149.5 -27.5
q-184 0 -294.5 137.5t-110.5 377z" />
    <glyph glyph-name="uni0252" unicode="&#x252;" horiz-adv-x="1218" 
d="M463 281q0 -111 28.5 -161t118.5 -50t152.5 105.5t62.5 298.5t-58 294.5t-153 101.5q-152 0 -151 -178v-411zM20 1004h439l4 -107q72 76 133 103.5t149 27.5q184 0 295 -137t111 -356q0 -260 -145.5 -410t-391.5 -150q-156 0 -276 64l-88 -64h-96v850q0 63 -23 80
t-111 21v78z" />
    <glyph glyph-name="uni0254" unicode="&#x254;" horiz-adv-x="1011" 
d="M461 1028q223 0 352 -133t129 -388t-138 -393t-380 -139q-152 0 -271.5 61.5t-119.5 164.5q0 61 53 94t123 33t92 -72q29 -98 59.5 -142t81.5 -44q72 0 123 99t51 306t-73.5 301t-175 94t-163 -42t-112.5 -144l-72 33q98 311 441 311z" />
    <glyph glyph-name="uni0256" unicode="&#x256;" horiz-adv-x="1239" 
d="M395 534.5q0 -200.5 60.5 -301t162.5 -100.5q160 0 160 178v422q0 90 -16 121q-41 80 -138 80t-163 -99.5t-66 -300zM70 498.5q0 242.5 142 386t394 143.5q106 0 172 -27v271q0 57 -11 79.5t-38 26.5l-72 13v73l416 56l14 -13v-1487q0 -51 -22.5 -181t-22.5 -165
q0 -76 45 -75q38 0 86.5 102t123.5 102q44 0 90.5 -39.5t46.5 -94t-74 -110t-232.5 -55.5t-254 111t-95.5 317v170q-160 -127 -297 -127q-193 0 -302 140.5t-109 383z" />
    <glyph glyph-name="uni0258" unicode="&#x258;" horiz-adv-x="1062" 
d="M352 682q0 -41 13.5 -54.5t50.5 -13.5h254q0 131 -41 225.5t-131 94.5q-146 0 -146 -252zM31 607q0 52 9 104.5t39 113t78 103.5t134 71.5t198 28.5q260 0 383 -146.5t123 -374t-113 -380t-388 -152.5q-332 0 -447 299l74 41q96 -182 274 -182q274 0 275 383h-529
q-57 0 -83.5 19.5t-26.5 71.5z" />
    <glyph glyph-name="uni0259" unicode="&#x259;" horiz-adv-x="1062" 
d="M352 322q0 -252 146 -252q90 0 131 94t41 225h-254q-37 0 -50.5 -13t-13.5 -54zM31 396q0 52 26.5 71.5t83.5 19.5h529q0 383 -275 383q-178 0 -274 -182l-74 41q115 299 447 299q274 0 387.5 -151.5t113.5 -379.5t-122.5 -375t-383.5 -147q-113 0 -198.5 29t-133.5 72
t-78 103.5t-39 112.5t-9 104z" />
    <glyph glyph-name="uni025B" unicode="&#x25b;" horiz-adv-x="1007" 
d="M70 254q0 238 321 285v4q-133 16 -195.5 71.5t-62.5 171t133 179t314.5 63.5t286 -49t104.5 -124t-48.5 -120t-95.5 -45q-74 0 -96 72q-55 172 -153 172q-72 0 -107 -49t-35 -126t41 -127t123 -50h105v-95h-113q-90 0 -145.5 -51t-55.5 -138t64.5 -131t160.5 -44
q184 0 306 178l65 -41q-119 -285 -477 -285q-201 0 -320.5 75t-119.5 204z" />
    <glyph glyph-name="uni025C" unicode="&#x25c;" horiz-adv-x="1007" 
d="M391 123q96 0 160.5 44t64.5 131t-55 138t-145 51h-113v95h105q82 0 122.5 50t40.5 127t-34.5 126t-106.5 49q-98 0 -154 -172q-23 -72 -96 -72q-47 0 -95 45t-48 120t104.5 124t285.5 49t314 -63.5t133 -179.5t-62 -171t-196 -71v-4q143 -20 232.5 -88t89.5 -197
t-120 -204t-320 -75q-359 0 -478 285l66 41q121 -178 305 -178z" />
    <glyph glyph-name="uni0263" unicode="&#x263;" horiz-adv-x="1056" 
d="M387 -309q0 -41 27.5 -65.5t74.5 -24.5q78 0 78 92t-80 252h-4q-96 -172 -96 -254zM-16 1004h536v-78l-69 -11q-27 -4 -33 -17t4 -42l190 -553h9q104 287 182 545q18 57 -33 65l-80 13v78h416v-78q-66 -4 -91.5 -19.5t-49.5 -68.5q-113 -223 -283 -699
q78 -172 102.5 -249.5t24.5 -139.5q0 -115 -80 -179.5t-207 -64.5t-194.5 58.5t-67.5 157t154 341.5q-143 395 -297 773q-20 49 -47 67.5t-86 22.5v78z" />
    <glyph glyph-name="uni0265" unicode="&#x265;" horiz-adv-x="1271" 
d="M477 319q0 -186 162 -186q119 0 168 100q20 41 20 121v426q0 59 -11 80t-38 25l-71 10v74l415 59l15 -12v-1309q0 -63 22.5 -79.5t110.5 -20.5v-78h-596v78q104 4 128.5 20.5t24.5 79.5v410q-77 -51 -121 -76q-115 -66 -225 -66q-158 0 -235.5 83t-77.5 233v489
q0 59 -11.5 80t-37.5 25l-72 10v74l416 59l14 -12v-697z" />
    <glyph glyph-name="uni0268" unicode="&#x268;" horiz-adv-x="696" 
d="M154 1295q0 75 51 127.5t136 52.5t136 -51.5t51 -127t-53 -128t-136 -52.5t-134 52t-51 127zM43 473v94h154v213q0 59 -11.5 80t-38.5 25l-71 10v74l416 59l14 -12v-449h153v-94h-153v-295q0 -63 22.5 -79.5t110.5 -20.5v-78h-576v78q88 4 111 20.5t23 79.5v295h-154z
" />
    <glyph glyph-name="uni0269" unicode="&#x269;" horiz-adv-x="759" 
d="M496 317q0 -188 131 -188q70 0 116 21l23 -64q-176 -111 -326 -111q-98 0 -176 68t-78 197v540q0 59 -11 80t-38 25l-71 10v74l415 59l15 -12v-699z" />
    <glyph glyph-name="uni026A" unicode="&#x26a;" horiz-adv-x="694" 
d="M59 0v78q88 4 111 20.5t23 79.5v647q0 63 -23 80t-111 21v78h576v-78q-88 -4 -110.5 -20.5t-22.5 -80.5v-647q0 -63 22.5 -79.5t110.5 -20.5v-78h-576z" />
    <glyph glyph-name="uni026F" unicode="&#x26f;" horiz-adv-x="1923" 
d="M477 330q0 -88 42 -142.5t103.5 -54.5t119.5 37q32 20 52.5 69.5t20.5 120.5v420q0 59 -11 80t-38 25l-72 10v74l416 59l14 -12v-686q0 -90 37 -143.5t100 -53.5t125 37q34 20 55 69.5t21 120.5v420q0 59 -11 80t-38 25l-72 10v74l416 59l15 -12v-838q0 -63 22.5 -79.5
t110.5 -20.5v-78h-426l-17 117q-6 -4 -39.5 -25.5t-43 -28t-38 -22.5t-42 -22.5t-40 -17.5t-45 -14t-43 -7.5t-49.5 -4.5q-193 0 -278 154q-4 -4 -54 -36q-73 -46 -148.5 -82t-154.5 -36q-160 0 -239.5 85t-79.5 233v487q0 59 -11.5 80t-37.5 25l-72 10v74l416 59l14 -12
v-686z" />
    <glyph glyph-name="uni0271" unicode="&#x271;" horiz-adv-x="1925" 
d="M53 0v78q88 4 110.5 20.5t22.5 79.5v602q0 59 -11 80t-38 25l-71 10v74l403 59l27 -141q116 77 146 90.5t56.5 25t45 14.5t43 7t49.5 4q193 0 278 -154q17 17 82.5 55t129.5 68.5t144 30.5q158 0 239 -85t81 -232v-779q0 -207 -96.5 -317.5t-259 -110.5t-235.5 52.5
t-73 107.5t46.5 95t91.5 40q71 0 126.5 -100t90.5 -100q45 0 45 75q0 35 -22.5 165t-22.5 181v654q0 88 -40 142t-116 54t-129 -56t-53 -179v-471q0 -47 15.5 -62.5t49.5 -19.5l43 -4v-78h-526v78l43 4q35 4 50.5 19.5t15.5 62.5v510q0 88 -38 142t-114 54t-131 -56
t-55 -179v-471q0 -47 15 -62.5t50 -19.5l43 -4v-78h-551z" />
    <glyph glyph-name="uni0275" unicode="&#x275;" horiz-adv-x="1198" 
d="M600 934q-187 0 -203 -354h406q-16 354 -203 354zM395 485q4 -416 205 -415.5t205 415.5h-410zM70 501.5q0 526.5 530 526.5t530 -526.5t-530 -526.5t-530 526.5z" />
    <glyph glyph-name="uni0279" unicode="&#x279;" horiz-adv-x="901" 
d="M-4 122q0 69 37 118t89 49t115.5 -38t98.5 -38q70 0 70 154v413q0 59 -11.5 80t-38.5 25l-71 10v74l415 59l15 -12v-793q0 -59 11 -79.5t38 -24.5l72 -10v-74l-400 -60l-24 181q-94 -100 -152.5 -140.5t-122.5 -40.5t-102.5 39t-38.5 108z" />
    <glyph glyph-name="uni0283" unicode="&#x283;" horiz-adv-x="798" 
d="M-68 -336q0 55 46.5 95t91.5 40q71 0 126.5 -100t90.5 -100q45 0 45 75q0 35 -22.5 165t-22.5 181v1072q0 207 97 317.5t259 110.5t235.5 -60.5t73.5 -120t-48 -94.5t-106 -35t-87 62q-72 154 -115 153q-45 0 -45 -75q0 -35 22.5 -165t22.5 -181v-1072
q0 -207 -96.5 -317.5t-259 -110.5t-235.5 52.5t-73 107.5z" />
    <glyph glyph-name="uni0287" unicode="&#x287;" horiz-adv-x="757" 
d="M573 764v-662h119v-102h-129l-180 -258h-119v258h-213v102h213v584q0 188 -131 188q-70 0 -117 -20l-22 64q176 111 325 110q98 0 176 -67.5t78 -196.5z" />
    <glyph glyph-name="uni0289" unicode="&#x289;" horiz-adv-x="1353" 
d="M504 360q0 -223 172 -223q63 0 104 29t57.5 68.5t16.5 113.5v125h-350v-113zM41 473v94h154v213q0 59 -11.5 80t-38.5 25l-71 10v74l415 59l15 -12v-449h350v213q0 59 -11.5 80t-37.5 25l-72 10v74l416 59l14 -12v-449h154v-94h-154v-295q0 -63 22.5 -79.5t110.5 -20.5
v-78h-426l-16 115q-138 -92 -219.5 -116t-142.5 -24q-127 0 -212 71t-85 237v190h-154z" />
    <glyph glyph-name="uni028B" unicode="&#x28b;" horiz-adv-x="1177" 
d="M477 418q0 -348 199 -348q117 0 172 141t55 358q0 117 -55 201t-55 138t48 87t138 33q129 0 129 -295q0 -547 -251 -707q-81 -52 -187 -51q-250 0 -376 101.5t-126 292.5v411q0 59 -11.5 80t-37.5 25l-72 10v74l416 59l14 -12v-598z" />
    <glyph glyph-name="uni028C" unicode="&#x28c;" horiz-adv-x="1056" 
d="M-45 0v78q66 4 90.5 19.5t56 91t125.5 331.5l183 484h225l156 -437q47 -131 149 -399q18 -49 46 -67.5t87 -22.5v-78h-543v78l76 10q49 4 29 59l-195 598h-8q-129 -393 -182 -589q-16 -59 33 -66l96 -12v-78h-424z" />
    <glyph glyph-name="uni028D" unicode="&#x28d;" horiz-adv-x="1585" 
d="M-57 0v78q77 6 101 24q24 16 58 100t107 322l147 480h226l204 -629h9l186 629h225l172 -543q59 -186 88 -266t52.5 -95.5t87.5 -21.5v-78h-533v78l57 6q31 2 39.5 17.5t-2.5 48.5l-155 563h-6l-191 -713h-215l-211 713h-8q-115 -434 -137 -555q-10 -59 35 -68l88 -12v-78
h-424z" />
    <glyph glyph-name="uni028E" unicode="&#x28e;" horiz-adv-x="1073" 
d="M-68 0v78l43 4q41 4 63.5 32.5t53.5 100.5q231 559 363 911q80 213 157.5 293t188.5 80q63 0 114.5 -36t51.5 -94t-41 -111.5t-82 -53.5t-101 43q-37 31 -73 31q-53 0 -80 -100q-16 -63 12 -136q150 -391 350 -870q31 -74 78 -84l68 -10v-78h-574v78l78 12q47 6 25 68
q-37 113 -116 323.5t-91 247.5h-4q-152 -461 -187 -577q-14 -55 31 -62l84 -12v-78h-412z" />
    <glyph glyph-name="uni0292" unicode="&#x292;" horiz-adv-x="1079" 
d="M66 -236.5q0 64.5 49 91t98 26.5t79 -34.5t30 -91t46 -106.5t116 -50q132 -1 174 119q34 102 34 179.5t-10 129t-31.5 104.5t-63.5 86t-108 33t-117 -29l-55 74l10 45l363 438h-277q-127 0 -170 -47t-65 -182h-80v455h840l22 -43l-12 -37q-10 -33 -76 -111l-379 -457
l4 -4q25 12 109 13q186 0 302 -117t116 -318t-140.5 -313.5t-327.5 -112.5t-276.5 28t-146.5 97.5t-57 134z" />
    <glyph glyph-name="uni0294" unicode="&#x294;" horiz-adv-x="1028" 
d="M63 1280q0 86 124 163t328 77t331 -87t127 -249q0 -94 -49.5 -185.5t-107.5 -154t-107.5 -155.5t-49.5 -189v-322q0 -63 23 -79.5t111 -20.5v-78h-576v78q88 4 110.5 20.5t22.5 79.5v250q0 186 105 354q43 68 87 134q105 159 105 315q0 195 -139 194q-129 0 -186 -215
q-12 -41 -33 -58t-67 -17t-102.5 44t-56.5 101z" />
    <glyph glyph-name="uni0295" unicode="&#x295;" horiz-adv-x="1028" 
d="M55 1184q0 162 127 249t331 87t328 -77t124 -163q0 -57 -56.5 -101t-102.5 -44t-66.5 17t-32.5 58q-57 215 -187 215q-139 0 -139 -194q0 -155 104 -315q43 -66 87 -134q106 -165 106 -354v-250q0 -63 22.5 -79.5t110.5 -20.5v-78h-575v78q88 4 110.5 20.5t22.5 79.5v322
q0 96 -49.5 189t-107.5 155.5t-107.5 154t-49.5 185.5z" />
    <glyph glyph-name="uni0296" unicode="&#x296;" horiz-adv-x="1028" 
d="M55 311q0 94 49.5 185.5t107.5 154t107.5 155.5t49.5 189v322q0 63 -22.5 79.5t-110.5 20.5v78h575v-78q-88 -4 -110.5 -20.5t-22.5 -79.5v-250q0 -187 -106 -353q-44 -68 -87 -136q-104 -161 -104 -314q0 -195 139 -194q129 0 187 215q12 41 32.5 58t66.5 17t102.5 -44
t56.5 -101q0 -86 -124 -163t-328 -77t-331 87t-127 249z" />
    <glyph glyph-name="uni0299" unicode="&#x299;" horiz-adv-x="1169" 
d="M502 569h69q96 0 143.5 49.5t47.5 124.5q0 166 -178 166q-82 0 -82 -63v-277zM502 180q0 -49 24.5 -69.5t79.5 -20.5q182 0 182 195q0 88 -53 139t-160 51h-73v-295zM59 0v78q88 4 111 20.5t23 79.5v647q0 63 -23 80t-111 21v78h582q424 0 424 -242q0 -180 -283 -221v-4
q98 -14 166 -39t117 -80.5t49 -136.5q0 -168 -109.5 -224.5t-361.5 -56.5h-584z" />
    <glyph glyph-name="uni029C" unicode="&#x29c;" horiz-adv-x="1347" 
d="M59 0v78q88 4 111 20.5t23 79.5v647q0 63 -23 80t-111 21v78h551v-78l-43 -4q-35 -4 -50 -19.5t-15 -62.5v-273h344v273q0 47 -15.5 62.5t-50.5 19.5l-43 4v78h551v-78q-88 -4 -110.5 -20.5t-22.5 -80.5v-647q0 -63 22.5 -79.5t110.5 -20.5v-78h-551v78l43 4
q35 4 50.5 19.5t15.5 62.5v309h-344v-309q0 -47 15 -62.5t50 -19.5l43 -4v-78h-551z" />
    <glyph glyph-name="uni029E" unicode="&#x29e;" horiz-adv-x="1191" 
d="M-27 1004h185q115 0 182.5 -26t120.5 -95q127 -168 246 -400h4v342q0 63 -22.5 80t-110.5 21v78h575v-78q-88 -4 -110.5 -20.5t-22.5 -80.5v-1093q0 -57 11 -80t38 -27l72 -12v-74l-416 -55l-14 12v950h-4l-148 -208q-121 -166 -127 -177q-51 -61 -121 -61h-297v66
q213 45 406 231l45 45q-176 279 -361 485q-80 93 -131 111v66z" />
    <glyph glyph-name="uni02B0" unicode="&#x2b0;" horiz-adv-x="774" 
d="M23 670v47q53 4 66 13t13 46v658q0 57 -28 63l-43 6v45l250 33l8 -6v-373q90 55 131 69q41 15 76 15q94 0 142 -51t48 -139v-320q0 -39 12 -47t66 -12v-47h-330v47l25 2q23 2 31 11t10 38v309q0 115 -99 115q-113 0 -112 -133v-291q0 -29 8 -38t31 -11l26 -2v-47h-331z
" />
    <glyph glyph-name="uni02B2" unicode="&#x2b2;" horiz-adv-x="387" 
d="M94 1448q0 45 31 76q31 30 82 30t82 -30t31 -76q0 -45 -32 -77t-82 -32t-81 32t-31 77zM121 709v430q0 57 -31 61l-43 6v45l250 35l10 -6v-580q0 -213 -112 -274q-78 -41 -205 -41l-4 37q59 18 88 55q47 61 47 232z" />
    <glyph glyph-name="uni02B3" unicode="&#x2b3;" horiz-adv-x="540" 
d="M33 670v47q53 4 66 13t14 46v363q0 57 -31 61l-43 6v45l240 37l14 -110q57 61 92 86q35 24 73 24t62 -24t23 -66q0 -41 -22 -71q-39 -54 -124 -6q-41 24 -57 24q-41 0 -41 -92v-277q0 -39 16 -47t88 -12v-47h-370z" />
    <glyph glyph-name="uni02B4" unicode="&#x2b4;" horiz-adv-x="540" 
d="M84 655q-38 -1 -62 23t-24 65t21 71q22 30 53 30q32 0 72 -24t57 -23q43 0 43 92v250q0 57 -31 61l-43 6v45l250 35l10 -6v-477q0 -59 29 -62l43 -6v-45l-240 -35l-14 109q-102 -109 -164 -109z" />
    <glyph glyph-name="uni02B7" unicode="&#x2b7;" horiz-adv-x="950" 
d="M-12 1272h319v-47l-35 -4q-33 -2 -22 -39l94 -338h4l115 428h129l125 -428h6q70 260 82 334q6 37 -21 41l-53 6v47h254v-47q-45 -1 -60 -13t-31 -52t-69 -204l-88 -286h-135l-123 377h-4l-113 -377h-135l-102 325q-23 71 -46 139t-39 78t-52 13v47z" />
    <glyph glyph-name="uni02B8" unicode="&#x2b8;" horiz-adv-x="643" 
d="M-14 1272h344v-47l-47 -6q-27 -2 -15 -41q31 -92 123 -344h4q55 164 111 348q8 33 -19 37l-49 6v47h246v-47l-25 -2q-25 -1 -39 -19t-32 -61q-150 -369 -207 -521t-105 -201q-48 -48 -98 -48q-51 1 -83 23t-32 56t26 66t50 31q23 1 53 -21t50 -22q35 0 46 53t-5 88
q-98 256 -211 522q-18 43 -45 50l-41 6v47z" />
    <glyph glyph-name="uni02B9" unicode="&#x2b9;" horiz-adv-x="622" 
d="M328 1536q25 0 67 -16q82 -37 82 -97t-76 -170l-225 -327l-76 35l95 385q20 84 44 137t89 53z" />
    <glyph glyph-name="uni02BA" unicode="&#x2ba;" horiz-adv-x="1054" 
d="M328 1536q25 0 67 -16q82 -37 82 -97t-76 -170l-225 -327l-76 35l95 385q20 84 44 137t89 53zM760 1536q25 0 67 -16q82 -37 82 -97t-75 -170l-226 -327l-76 35l95 385q20 84 44 137t89 53z" />
    <glyph glyph-name="circumflex" unicode="&#x2c6;" horiz-adv-x="880" 
d="M440 1296q-23 0 -78 -39l-256 -192l-49 55l293 346q53 64 89 64t91 -64l293 -346l-49 -55l-256 192q-55 39 -78 39z" />
    <glyph glyph-name="caron" unicode="&#x2c7;" horiz-adv-x="880" 
d="M440 1298q23 0 78 39l256 193l49 -55l-293 -347q-55 -63 -91 -63t-89 63l-293 347l49 55l256 -193q55 -39 78 -39z" />
    <glyph glyph-name="uni02CA" unicode="&#x2ca;" horiz-adv-x="880" 
d="M696 1516q34 0 69 -42q36 -42 36 -80t-36 -69t-103 -68l-375 -210l-43 61l297 305q57 59 89 81t66 22z" />
    <glyph glyph-name="uni02CB" unicode="&#x2cb;" horiz-adv-x="880" 
d="M82 1394q0 38 36 80t70 42t65 -22q32 -22 89 -81l297 -305l-43 -61l-375 210q-67 37 -103 68t-36 69z" />
    <glyph glyph-name="uni02CE" unicode="&#x2ce;" horiz-adv-x="880" 
d="M82 -425q0 38 36 80t70 42t65 -22q32 -22 89 -81l297 -305l-43 -61l-375 211q-67 37 -103 67t-36 69z" />
    <glyph glyph-name="uni02CF" unicode="&#x2cf;" horiz-adv-x="880" 
d="M696 -303q34 0 69 -42q36 -42 36 -80t-36 -69t-103 -67l-375 -211l-43 61l297 305q57 59 89 81t66 22z" />
    <glyph glyph-name="breve" unicode="&#x2d8;" horiz-adv-x="880" 
d="M115 1466h78q4 -49 37 -85q62 -68 205 -68q142 0 196 48q53 48 57 105h80q0 -232 -154 -298q-70 -30 -173 -30q-212 1 -273 108q-53 89 -53 220z" />
    <glyph glyph-name="dotaccent" unicode="&#x2d9;" horiz-adv-x="880" 
d="M279 1300q0 62 44 108q43 46 117 46t118 -46t44 -108t-44 -107q-44 -46 -118 -46t-118 46t-43 107z" />
    <glyph glyph-name="ring" unicode="&#x2da;" horiz-adv-x="880" 
d="M334 1333q0 -67 30 -105t76 -38t76 38q31 38 31 106t-31 105q-31 38 -77 38q-45 0 -75 -38t-30 -106zM197 1332q0 118 70 173q71 55 173 55t173 -54q71 -56 71 -174t-71 -172t-173 -54t-173 54q-70 54 -70 172z" />
    <glyph glyph-name="ogonek" unicode="&#x2db;" horiz-adv-x="880" 
d="M536 -393q56 0 99 26l31 -55q-98 -82 -231 -82t-182 75q-38 59 -38 129q0 71 72 158t176 142h117q-168 -137 -168 -266q2 -59 36 -93q32 -34 88 -34z" />
    <glyph glyph-name="tilde" unicode="&#x2dc;" horiz-adv-x="880" 
d="M230 1245q-62 -1 -94 -25t-66 -87l-66 36q97 253 277 250q63 0 188 -43q141 -43 191 -43t82 25t67 88l65 -37q-96 -250 -276 -250q-43 0 -174 43q-132 43 -194 43z" />
    <glyph glyph-name="hungarumlaut" unicode="&#x2dd;" horiz-adv-x="880" 
d="M913 1432q0 -44 -73 -125l-224 -240l-65 39l129 324q43 109 106 108q41 0 84 -31t43 -75zM494 1432q0 -44 -74 -125l-223 -240l-66 39l129 324q43 109 107 108q41 0 84 -31t43 -75z" />
    <glyph glyph-name="uni02E0" unicode="&#x2e0;" horiz-adv-x="632" 
d="M231 481q0 -51 62 -51q47 0 47 54t-47 153h-2q-60 -105 -60 -156zM-10 1272h321v-47l-41 -6q-27 -4 -16 -35l113 -332h6q55 156 108 326q12 35 -18 41l-49 6v47h250v-47q-38 -5 -54 -13q-41 -22 -200 -458q76 -168 76 -235t-49 -107q-48 -40 -120 -39q-162 0 -161 133
q0 55 92 203q-63 178 -178 462q-12 29 -28 39t-52 15v47z" />
    <glyph glyph-name="uni02E1" unicode="&#x2e1;" horiz-adv-x="378" 
d="M23 670v47q53 4 66 13t13 46v658q0 57 -28 63l-43 6v45l250 33l8 -6v-799q0 -37 13 -46t67 -13v-47h-346z" />
    <glyph glyph-name="uni02E2" unicode="&#x2e2;" horiz-adv-x="546" 
d="M272 713q84 -1 84 73t-123 117q-180 68 -180 189q0 92 66 144t175 52t185 -45v-164h-45q-16 72 -53 112t-79 40q-42 -1 -62 -21t-21 -51q0 -59 123 -104q92 -35 136 -79t44 -130t-70 -138t-197 -52q-128 0 -194 59l-14 182h47q27 -80 73 -132t105 -52z" />
    <glyph glyph-name="uni02E3" unicode="&#x2e3;" horiz-adv-x="641" 
d="M-18 670v47q52 6 74 16t60 53t132 162q-31 41 -85 120q-53 79 -75 108q-22 28 -38 36t-58 13v47h319v-47l-26 -4q-25 -4 -9 -27l76 -117h2l74 111q20 29 -6 33l-31 4v47h244v-47q-66 -2 -107 -43q-82 -86 -135 -158q115 -168 174 -248q27 -33 47 -44t62 -15v-47h-342v47
l26 4q37 4 17 33l-90 139h-2l-84 -133q-20 -33 10 -37l43 -6v-47h-272z" />
    <glyph glyph-name="uni02E4" unicode="&#x2e4;" horiz-adv-x="616" 
d="M308 1583q122 0 197 -47t75 -90t-35 -70t-62 -26q-47 0 -59 47q-35 129 -113 129q-84 0 -84 -116t90 -230q35 -43 63 -112t28 -142v-150q0 -37 13 -46t66 -13v-47h-346v47q53 4 67 13q13 9 13 46v193q0 100 -94 208q-94 102 -94 202q0 99 76 151q77 52 199 53z" />
    <glyph glyph-name="uni02EE" unicode="&#x2ee;" horiz-adv-x="968" 
d="M197 1094q0 46 -38 110t-38 114t37 90q38 40 108 40t119 -59t49 -158q0 -201 -295 -438l-57 55q115 125 115 246zM573 1318q0 50 37 90t108 40t120 -59t49 -158q0 -201 -295 -438l-57 55q115 125 114 246q0 46 -38 110t-38 114z" />
    <glyph glyph-name="gravecomb" unicode="&#x300;" 
d="M-799 1394q0 38 36 80t70 42t65.5 -21.5t88.5 -81.5l297 -305l-43 -61l-374 210q-68 37 -104 68t-36 69z" />
    <glyph glyph-name="acutecomb" unicode="&#x301;" 
d="M-185 1516q34 0 69.5 -42t35.5 -80t-36 -69t-103 -68l-375 -210l-43 61l297 305q57 59 89 81t66 22z" />
    <glyph glyph-name="uni0302" unicode="&#x302;" 
d="M-440 1296q-23 0 -78 -39l-256 -192l-49 55l293 346q53 63 89 63.5t91 -63.5l293 -346l-49 -55l-256 192q-55 39 -78 39z" />
    <glyph glyph-name="tildecomb" unicode="&#x303;" 
d="M-283 1159q-43 0 -174 43t-193 43t-94 -24.5t-67 -87.5l-66 36q30 79 76 140q82 110 201 110q63 0 188 -43q141 -43 191.5 -43t82.5 24.5t66 88.5l66 -37q-96 -250 -277 -250z" />
    <glyph glyph-name="uni0304" unicode="&#x304;" 
d="M-758 1202v178h637v-178h-637z" />
    <glyph glyph-name="uni0305" unicode="&#x305;" 
d="M-1024 1380h1024v-102h-1024v102z" />
    <glyph glyph-name="uni0306" unicode="&#x306;" 
d="M-766 1466h78q4 -47 37 -84q63 -69 205.5 -69t195.5 48t57 105h80q1 -232 -153 -298q-70 -30 -173 -29q-211 0 -273 107q-54 91 -54 220z" />
    <glyph glyph-name="uni0307" unicode="&#x307;" 
d="M-602 1300.5q0 61.5 44 107.5t117.5 46t117.5 -46t44 -107.5t-44 -107.5t-117.5 -46t-117.5 46t-44 107.5z" />
    <glyph glyph-name="uni0308" unicode="&#x308;" 
d="M-848 1300.5q0 61.5 44 107.5t118 46t118 -46t44 -107.5t-44 -107.5t-118 -46t-118 46t-44 107.5zM-356 1300.5q0 61.5 44 107.5t117.5 46t117.5 -46t44 -107.5t-44 -107.5t-117.5 -46t-117.5 46t-44 107.5z" />
    <glyph glyph-name="hookabovecomb" unicode="&#x309;" 
d="M-686 1600q0 40 68.5 81t199.5 41q221 0 221 -149q0 -47 -37.5 -85t-82.5 -58q-121 -52 -121 -109q0 -51 53 -51l-12 -53q-72 0 -122 27.5t-50 71.5t28.5 76.5t64.5 55t64.5 60.5t28.5 73t-19.5 56.5t-50.5 21.5q-57 0 -82 -105q-6 -33 -51 -32.5t-72.5 19.5t-27.5 59z
" />
    <glyph glyph-name="uni030A" unicode="&#x30a;" 
d="M-547 1333.5q0 -67.5 30 -105.5t76 -38t76.5 38t30.5 105.5t-30.5 105.5t-76.5 38t-76 -38t-30 -105.5zM-684 1332q0 118 70.5 173.5t173 55.5t173 -55.5t70.5 -173.5t-70.5 -172t-173 -54t-173 54t-70.5 172z" />
    <glyph glyph-name="uni030B" unicode="&#x30b;" 
d="M33 1433q0 -44 -74 -126l-223 -240l-66 39l129 324q43 109 107 108q41 0 84 -30.5t43 -74.5zM-387 1433q0 -44 -74 -126l-223 -240l-66 39l129 324q43 109 107 108q41 0 84 -30.5t43 -74.5z" />
    <glyph glyph-name="uni030C" unicode="&#x30c;" 
d="M-440.5 1298q22.5 0 78.5 39l256 193l49 -55l-293 -347q-55 -63 -91 -63t-89 63l-293 347l49 55l256 -193q55 -39 77.5 -39z" />
    <glyph glyph-name="uni030F" unicode="&#x30f;" 
d="M-330 1433q0 44 43 74.5t84 30.5q63 0 107 -108l129 -324l-66 -39l-223 240q-74 82 -74 126zM-750 1433q0 44 43 74.5t84 30.5q63 0 107 -108l129 -324l-66 -39l-223 240q-74 82 -74 126z" />
    <glyph glyph-name="uni0311" unicode="&#x311;" 
d="M-113 1139h-77q-4 45 -37 83q-61 70 -204.5 70t-197 -48t-57.5 -105h-80q0 231 154 297q70 30 172 30q210 0 274 -107q53 -89 53 -220z" />
    <glyph glyph-name="uni0315" unicode="&#x315;" 
d="M-61 1382q0 45 -38 110q-38 64 -38 114t37 90q38 40 108 41t119 -59t49 -158q0 -201 -295 -439l-57 56q115 125 115 245z" />
    <glyph glyph-name="uni0316" unicode="&#x316;" 
d="M-799 -425q0 38 36 80t70 42t65.5 -21.5t88.5 -81.5l297 -305l-43 -61l-374 211q-68 37 -104 67.5t-36 68.5z" />
    <glyph glyph-name="uni0317" unicode="&#x317;" 
d="M-185 -303q34 0 69.5 -42t35.5 -80t-36 -68.5t-103 -67.5l-375 -211l-43 61l297 305q57 59 89 81t66 22z" />
    <glyph glyph-name="dotbelowcomb" unicode="&#x323;" 
d="M-602 -299q0 61 44 107.5t117.5 46.5t117.5 -46.5t44 -107.5t-44 -107.5t-117.5 -46.5t-117.5 46.5t-44 107.5z" />
    <glyph glyph-name="uni0324" unicode="&#x324;" 
d="M-848 -299q0 61 44 107.5t118 46.5t118 -46.5t44 -107.5t-44 -107.5t-118 -46.5t-118 46.5t-44 107.5zM-356 -299q0 61 44 107.5t117.5 46.5t117.5 -46.5t44 -107.5t-44 -107.5t-117.5 -46.5t-117.5 46.5t-44 107.5z" />
    <glyph glyph-name="uni0325" unicode="&#x325;" 
d="M-547 -383q0 -68 30 -105.5t76 -37.5t76.5 37.5t30.5 105.5t-30.5 105.5t-76.5 37.5t-76 -37.5t-30 -105.5zM-684 -384q0 118 70.5 173t173 55t173 -55t70.5 -173t-70.5 -172t-173 -54t-173 54t-70.5 172z" />
    <glyph glyph-name="uni0326" unicode="&#x326;" 
d="M-481 -389q0 41 -36 94t-36 95t34 78t94.5 36t104.5 -47t44 -121t-44.5 -144.5t-89.5 -111.5t-120 -98l-43 43q92 100 92 176z" />
    <glyph glyph-name="uni0327" unicode="&#x327;" 
d="M-602 -432q193 0 192 119q0 96 -135 108l-8 17l117 188h119l-80 -119q43 -6 83 -19.5t80 -53.5q39 -40 39 -98q1 -58 -23 -97q-40 -67 -124 -92t-145.5 -25t-114.5 6v66z" />
    <glyph glyph-name="uni0328" unicode="&#x328;" 
d="M-344 -393q55 0 98 26l31 -55q-98 -82 -231.5 -82t-176.5 68t-43 137.5t72 156.5t176 142h117q-168 -137 -168 -266q2 -59 36 -93t89 -34z" />
    <glyph glyph-name="uni032C" unicode="&#x32c;" 
d="M-440.5 -385q22.5 0 78.5 39l256 192l49 -55l-293 -346q-55 -63 -91 -63t-89 63l-293 346l49 55l256 -192q55 -39 77.5 -39z" />
    <glyph glyph-name="uni032D" unicode="&#x32d;" 
d="M-441 -154q36 0 91 -63l293 -346l-49 -55l-256 192q-55 39 -78 39t-78 -39l-256 -192l-49 55l293 346q53 63 89 63z" />
    <glyph glyph-name="uni032E" unicode="&#x32e;" 
d="M-766 -147h78q4 -48 37 -85q63 -69 205.5 -69t195.5 48t57 106h80q1 -233 -153 -299q-70 -30 -173 -29q-211 -1 -273 107q-54 92 -54 221z" />
    <glyph glyph-name="uni032F" unicode="&#x32f;" 
d="M-113 -621h-77q-4 47 -37 84q-62 70 -205 70t-196.5 -48t-57.5 -106h-80q0 125 54 217q65 112 273 111q209 1 273 -107q53 -90 53 -221z" />
    <glyph glyph-name="uni0330" unicode="&#x330;" 
d="M-6 -326q-95 -249 -277 -249q-43 0 -174 43t-193 43t-94 -25t-67 -88l-66 37q30 77 75.5 138.5t94 86.5t109.5 25t186 -43q141 -43 191.5 -43t82.5 24.5t66 87.5z" />
    <glyph glyph-name="uni0331" unicode="&#x331;" 
d="M-758 -455v179h637v-179h-637z" />
    <glyph glyph-name="uni0332" unicode="&#x332;" 
d="M-1024 -154h1024v-102h-1024v102z" />
    <glyph glyph-name="uni0334" unicode="&#x334;" 
d="M-283 436q-43 0 -174 43t-193 43t-94 -24t-67 -88l-66 36q97 253 277 250q63 0 188 -43q142 -43 192 -43t82 25t66 88l66 -37q-96 -250 -277 -250z" />
    <glyph glyph-name="uni0338" unicode="&#x338;" 
d="M-705 -31l431 1479h204l-430 -1479h-205z" />
    <glyph glyph-name="uni0400" unicode="&#x400;" horiz-adv-x="1288" 
d="M68 0v78q111 4 136 23.5t25 97.5v1020q0 78 -25.5 97t-135.5 23v78h1103v-379h-77q-27 88 -46.5 132t-53 84t-84 54.5t-128.5 14.5h-153q-43 0 -57.5 -14.5t-14.5 -59.5v-452h195q94 0 128.5 34.5t59.5 149.5h78v-475h-78q-25 115 -59.5 149.5t-128.5 34.5h-195v-446
q0 -94 51 -122t155.5 -28t148.5 7.5t79 32t55 42.5q45 40 113 250h78l-25 -426h-1144zM274 1717q0 40 33 87t80 47t129 -61l352 -252l-28 -65l-416 131q-86 27 -118 50t-32 63z" />
    <glyph glyph-name="afii10023" unicode="&#x401;" horiz-adv-x="1288" 
d="M68 0v78q111 4 136 23.5t25 97.5v1020q0 78 -25.5 97t-135.5 23v78h1103v-379h-77q-27 88 -46.5 132t-53 84t-84 54.5t-128.5 14.5h-153q-43 0 -57.5 -14.5t-14.5 -59.5v-452h195q94 0 128.5 34.5t59.5 149.5h78v-475h-78q-25 115 -59.5 149.5t-128.5 34.5h-195v-446
q0 -94 51 -122t155.5 -28t148.5 7.5t79 32t55 42.5q45 40 113 250h78l-25 -426h-1144zM258 1650.5q0 61.5 44 107.5t118 46t118 -46t44 -107.5t-44 -107.5t-118 -46t-118 46t-44 107.5zM774 1650.5q0 61.5 44 107.5t118 46t118 -46t44 -107.5t-44 -107.5t-118 -46t-118 46
t-44 107.5z" />
    <glyph glyph-name="afii10051" unicode="&#x402;" horiz-adv-x="1720" 
d="M31 1032v385h1216v-385h-78q-66 196 -98 224q-53 50 -96 59q-43 8 -90 8h-123v-549q76 45 126 70q50 24 133 46q269 70 462 -82q67 -52 107 -148t40 -231q0 -276 -142 -376q-70 -47 -144 -65t-189 -18t-201 58q-86 60 -86 183q0 86 34 120t108 34q115 0 114 -115
q0 -27 -12 -59t-12 -60q0 -68 66 -68q66 -1 87 101q20 102 21 295q0 125 -52 205t-170 80t-182 -34q-64 -32 -87 -59q-22 -27 -21 -76v-575h-524v78l116 8q47 2 64 27q16 25 16 82v1128h-41q-131 0 -178 -57t-106 -234h-78z" />
    <glyph glyph-name="afii10052" unicode="&#x403;" horiz-adv-x="1175" 
d="M68 0v78q110 4 136 23t25 98v1020q0 78 -25 97q-26 19 -136 23v78h1077v-399h-76q-43 166 -107 236t-208 69h-125q-43 0 -57 -14t-15 -60v-1050q0 -77 31 -97t166 -24v-78h-686zM852 1892q47 0 80 -47t33 -87t-32 -64t-118 -49l-416 -132l-28 66l352 252q82 61 129 61z
" />
    <glyph glyph-name="afii10053" unicode="&#x404;" horiz-adv-x="1411" 
d="M86 694q0 402 235 596q85 70 225 114t320 44q291 0 441 -90v-367h-78q-62 202 -152 282q-90 81 -229 81q-92 0 -163 -39t-112 -96.5t-77 -161.5t-45 -250h538v-98h-540q0 -176 36.5 -298t79.5 -189.5t121 -113t178 -45.5q158 0 243 94.5t148 272.5h82l-22 -362
q-164 -98 -479 -99q-381 0 -565.5 191.5t-184.5 533.5z" />
    <glyph glyph-name="afii10054" unicode="&#x405;" horiz-adv-x="1148" 
d="M543.5 63q111.5 0 175 56.5t64.5 161t-64.5 176t-178.5 119.5q-112 46 -170 78t-126 86q-140 111 -140 293.5t130.5 298.5t374 116t388.5 -90v-336h-73q-41 170 -124 251t-182.5 81t-159 -57.5t-59.5 -160t105 -172.5q82 -55 184 -97q101 -43 158 -75q58 -32 120 -84
q126 -106 126 -289t-118.5 -314.5t-414.5 -135.5q-121 0 -246 31t-196 96l-31 367h76q57 -188 163.5 -294t218 -106z" />
    <glyph glyph-name="afii10055" unicode="&#x406;" horiz-adv-x="786" 
d="M68 0v78q111 4 136 23.5t25 97.5v1020q0 78 -25.5 97t-135.5 23v78h651v-78q-111 -4 -136.5 -23.5t-25.5 -96.5v-1020q0 -78 25.5 -97.5t136.5 -23.5v-78h-651z" />
    <glyph glyph-name="afii10056" unicode="&#x407;" horiz-adv-x="786" 
d="M68 0v78q111 4 136 23.5t25 97.5v1020q0 78 -25.5 97t-135.5 23v78h651v-78q-111 -4 -136.5 -23.5t-25.5 -96.5v-1020q0 -78 25.5 -97.5t136.5 -23.5v-78h-651zM-27 1650.5q0 61.5 44 107.5t118 46t118 -46t44 -107.5t-44 -107.5t-118 -46t-118 46t-44 107.5zM489 1650.5
q0 61.5 44.5 107.5t118 46t117.5 -46t44 -107.5t-44 -107.5t-117.5 -46t-118 46t-44.5 107.5z" />
    <glyph glyph-name="afii10057" unicode="&#x408;" horiz-adv-x="790" 
d="M250 299v920q0 78 -26 97t-136 23v78h651v-78q-111 -4 -137 -23t-24 -97v-926q0 -180 -50 -292t-163 -167q-152 -72 -340 -67l-13 63q100 33 158 96q80 90 80 373z" />
    <glyph glyph-name="afii10058" unicode="&#x409;" horiz-adv-x="2240" 
d="M1399 227q0 -73 35 -103t112 -30q258 0 258 312q0 164 -83 238t-210 75q-68 0 -112 -21v-471zM27 240q0 88 38 125t91 37t102 -28q49 -26 49 -91q1 -27 -21 -79t-22 -77q0 -63 60 -64q122 -1 196 307t74 849q0 78 -26 97t-136 23v78h1163v-74q-135 -8 -165 -27t-31 -97
v-422q82 16 176 16q588 0 588 -407q1 -218 -143 -312t-435 -94h-676v78q111 4 137 23t25 98v1013q0 70 -27 88t-135 23h-26q-109 -5 -135 -23t-27 -88q0 -582 -100 -912t-291 -331q-125 0 -214 73t-89 198z" />
    <glyph glyph-name="afii10059" unicode="&#x40a;" horiz-adv-x="2265" 
d="M1423 227q0 -73 35 -103t113 -30q258 0 258 312q0 164 -83 238t-210 75q-68 0 -113 -21v-471zM68 0v78q110 4 136 23t25 98v1020q0 78 -25 97q-26 19 -136 23v78h651v-78q-111 -4 -137 -23t-25 -97v-422h539v422q0 78 -26 97t-136 23v78h686v-74q-135 -8 -166 -27
t-31 -97v-422q82 16 176 16q588 0 588 -407q0 -218 -143 -312t-434 -94h-676v78q110 4 136 23t26 98v499h-539v-499q0 -77 26 -97t136 -24v-78h-651z" />
    <glyph glyph-name="afii10060" unicode="&#x40b;" horiz-adv-x="1773" 
d="M31 1032v385h1216v-385h-78q-66 196 -98 224q-53 50 -96 59q-43 8 -90 8h-123v-547q82 43 136 68q54 24 145 46t188 21q172 0 251 -104t79 -318v-290q0 -78 25 -98q26 -19 136 -23v-78h-635v78q98 6 122 25t24 96v331q0 115 -33 164q-34 49 -150 49q-116 -1 -180 -33
t-87 -59q-22 -27 -21 -76v-376q0 -76 23 -96q24 -19 122 -25v-78h-669v78l116 8q47 2 64 27q16 25 16 82v1128h-41q-131 0 -178 -57t-106 -234h-78z" />
    <glyph glyph-name="afii10061" unicode="&#x40c;" horiz-adv-x="1662" 
d="M68 0v78q110 4 136 23t25 98v1020q0 78 -25 97q-26 19 -136 23v78h651v-78q-111 -4 -137 -23t-25 -97v-422h70q151 -1 219 73t112 232t110 252t184 94t196 -60t78 -190q0 -49 -32 -90t-97 -41t-98 22q-47 32 -23 153q8 40 8 66t-8 36t-40 10t-73 -65t-73 -198t-78 -209
q-45 -76 -117 -112v-2q90 -16 148 -34t129 -61q142 -84 184 -311q57 -299 229 -299h10v-94h-139q-199 -1 -300 55t-130 232q-70 442 -393 442h-76v-499q0 -77 26 -97t136 -24v-78h-651zM1057 1892q47 0 80 -47t33 -87t-32 -64t-118 -49l-416 -132l-29 66l353 252
q82 61 129 61z" />
    <glyph glyph-name="uni040D" unicode="&#x40d;" horiz-adv-x="1667" 
d="M68 0v78q111 4 136 23.5t25 97.5v1020q0 78 -25.5 97t-135.5 23v78h651v-78q-111 -4 -136.5 -23.5t-25.5 -96.5v-744l553 707v37q0 78 -25.5 97t-136.5 23v78h651v-78q-111 -4 -136 -23.5t-25 -96.5v-1020q0 -78 25.5 -97.5t135.5 -23.5v-78h-651v78q111 4 136.5 23.5
t25.5 97.5v796l-553 -706v-90q0 -78 25.5 -97.5t136.5 -23.5v-78h-651zM457 1717q0 40 32.5 87t79.5 47t129 -61l353 -252l-29 -65l-416 131q-86 27 -117.5 50t-31.5 63z" />
    <glyph glyph-name="afii10062" unicode="&#x40e;" horiz-adv-x="1499" 
d="M41 1417h621v-78l-91 -10q-41 -6 -43 -31q0 -30 68 -160t94 -184l170 -338h6l123 281q98 221 144 365q18 61 -35 67l-115 10v78h475v-78q-86 -6 -115 -26t-59 -94l-477 -1039q-41 -92 -106 -141t-113 -59t-117 -11q-141 0 -222 79t-81 210q0 82 42 122t98 40t104 -31
t49 -74t-19 -100t-20 -76q0 -76 60 -76q60 1 116 45t84 105l16 37l-501 985q-33 66 -59 84t-97 20v78zM383 1772q0 70 32 122t87 54q80 0 119 -31q65 -52 22 -140q-16 -34 -16 -67q0 -32 47 -62t125 -30t125 30t47 62t-17 67q-16 33 -16 71t39 69t107 31t99 -54
q32 -54 31 -122q0 -96 -108 -171t-308 -75q-198 0 -306 75t-109 171z" />
    <glyph glyph-name="afii10145" unicode="&#x40f;" horiz-adv-x="1634" 
d="M68 0v78q110 4 136 23t25 98v1020q0 78 -25 97q-26 19 -136 23v78h651v-78q-111 -4 -137 -23t-25 -97v-1014q0 -70 27 -88t135 -23h196q109 4 136 22t26 89v1014q0 78 -25 97q-26 19 -137 23v78h652v-78q-111 -4 -137 -23t-25 -97v-1014q0 -70 27 -88t135 -23v-94h-283
q-122 0 -190 -14t-115 -62t-72 -116q-25 -66 -51 -197h-78q-27 131 -51 198q-55 148 -187 177q-69 14 -190 14h-282z" />
    <glyph glyph-name="afii10017" unicode="&#x410;" horiz-adv-x="1318" 
d="M393 602h332l-160 531h-6zM-57 0v78q85 4 113 24t44 60t199 565l238 690h258l403 -1241q20 -61 49 -78.5t111 -19.5v-78h-647v78l118 12q57 6 35 74l-106 340h-398q-82 -268 -95 -322t-6 -73t40 -21l123 -10v-78h-479z" />
    <glyph glyph-name="afii10018" unicode="&#x411;" horiz-adv-x="1398" 
d="M557 227q0 -74 35 -103.5t113 -29.5q121 0 189.5 71t68.5 244t-84 247.5t-209 74.5q-68 0 -113 -20v-484zM68 0v78q111 4 136 23.5t25 97.5v1020q0 78 -25.5 97t-135.5 23v78h1112v-399h-76q-33 162 -97.5 233.5t-201.5 71.5h-176q-43 0 -57.5 -13.5t-14.5 -52.5v-448
q82 16 168 16t148.5 -5t151.5 -28.5t148.5 -64.5t103.5 -122t44 -193q0 -225 -140.5 -317.5t-426.5 -94.5h-686z" />
    <glyph glyph-name="afii10019" unicode="&#x412;" horiz-adv-x="1398" 
d="M557 797h100q141 0 209 71.5t68 192.5t-62.5 191.5t-195.5 70.5q-68 0 -93.5 -13.5t-25.5 -62.5v-450zM557 227q0 -74 35 -103.5t113 -29.5q258 0 258 291q0 137 -77 227t-224 90h-105v-475zM68 0v78q111 4 136 23.5t25 97.5v1020q0 78 -25.5 97t-135.5 23v78h675
q254 0 388.5 -80t134.5 -260q0 -252 -303 -317v-4q156 -23 257 -116t101 -264t-117 -265q-137 -111 -461 -111h-675z" />
    <glyph glyph-name="afii10020" unicode="&#x413;" horiz-adv-x="1175" 
d="M68 0v78q111 4 136 23.5t25 97.5v1020q0 78 -25.5 97t-135.5 23v78h1077v-399h-76q-43 166 -107.5 235.5t-207.5 69.5h-125q-43 0 -57.5 -14.5t-14.5 -59.5v-1050q0 -78 30.5 -97.5t166.5 -23.5v-78h-686z" />
    <glyph glyph-name="afii10021" unicode="&#x414;" horiz-adv-x="1538" 
d="M981 205v1007q0 70 -26.5 88.5t-135.5 22.5h-26q-109 -4 -135.5 -22.5t-26.5 -88.5q0 -410 -76 -698.5t-207 -419.5h471q109 4 135.5 22.5t26.5 88.5zM131 94q145 0 259 304t114 821q0 78 -25.5 97t-136.5 23v78h1128v-78q-111 -4 -136 -23.5t-25 -96.5v-1014
q0 -70 26.5 -88.5t134.5 -22.5l27 -483h-78q-27 96 -41 143t-39.5 100.5t-50 74t-71 41t-100.5 25.5t-140 5h-434q-86 0 -140.5 -5t-100.5 -25.5t-70.5 -41t-53.5 -80.5t-78 -237h-77l26 483h82z" />
    <glyph glyph-name="afii10022" unicode="&#x415;" horiz-adv-x="1288" 
d="M68 0v78q111 4 136 23.5t25 97.5v1020q0 78 -25.5 97t-135.5 23v78h1103v-379h-77q-27 88 -46.5 132t-53 84t-84 54.5t-128.5 14.5h-153q-43 0 -57.5 -14.5t-14.5 -59.5v-452h195q94 0 128.5 34.5t59.5 149.5h78v-475h-78q-25 115 -59.5 149.5t-128.5 34.5h-195v-446
q0 -94 51 -122t155.5 -28t148.5 7.5t79 32t55 42.5q45 40 113 250h78l-25 -426h-1144z" />
    </font>
</defs>
</svg>
