<svg width="16" height="16" viewBox="0 0 16 16" xmlns="http://www.w3.org/2000/svg" xmlns:sketch="http://www.bohemiancoding.com/sketch/ns"><title>dribbble</title><desc>Created with Sketch.</desc><path d="M8 0c-4.419.002-8 3.582-8 8.002 0 4.416 3.581 7.998 8 7.998 4.419 0 8-3.582 8-7.998 0-4.42-3.581-8-8-8.002zm4.902 4.148c.781.991 1.269 2.217 1.331 3.559-.904-.191-1.757-.285-2.552-.285h-.006c-.64 0-1.242.059-1.808.158-.138-.337-.277-.662-.418-.971 1.261-.553 2.472-1.341 3.453-2.461zm-4.902-2.388c1.473 0 2.823.515 3.891 1.37-.817.98-1.897 1.69-3.064 2.191-.82-1.586-1.612-2.719-2.153-3.414.429-.092.871-.147 1.326-.147zm-2.756.649c.432.513 1.3 1.638 2.227 3.396-1.885.56-3.782.692-4.929.692l-.097-.001h-.003l-.497-.007c.448-1.792 1.675-3.276 3.299-4.08zm-3.486 5.593l.003-.092.681.013h.003c1.254-.008 3.445-.113 5.664-.813.122.263.241.54.36.825-1.483.496-2.65 1.286-3.514 2.073-.832.757-1.392 1.507-1.721 2.008-.918-1.088-1.474-2.486-1.476-4.014zm6.242 6.242c-1.389 0-2.668-.462-3.708-1.232.222-.362.694-1.061 1.448-1.782.776-.744 1.845-1.508 3.243-1.964.475 1.331.906 2.854 1.232 4.568-.69.262-1.435.41-2.215.41zm3.532-1.109c-.317-1.55-.715-2.949-1.152-4.195.407-.057.831-.09 1.28-.09h.02c.743 0 1.562.091 2.448.293-.306 1.65-1.263 3.072-2.596 3.992z" sketch:type="MSShapeGroup" fill="#C9C9C9"/></svg>