<svg width="112" height="19" viewBox="0 0 112 19" xmlns="http://www.w3.org/2000/svg"><title>Flourish</title><path d="M111.201 8.99h-17.287c.025-1.539-.357-3.069-1.213-4.38-1.11-1.699-2.829-2.925-4.705-3.656-2.035-.784-4.266-1.048-6.431-.79-1.667.199-3.416.692-4.869 1.556-1.796.949-3.275 2.416-4.409 4.085-.683 1.006-1.234 2.087-1.753 3.184h-3.868c.691-1.43 1.409-2.844 2.312-4.161 1.261-1.839 3.207-3.952 5.685-3.41.288.063.567.158.837.277.147.064.291.136.431.215.031.016.15.117.189.079.036-.034.045-.135-.001-.165-1.352-.909-2.944-1.03-4.423-.357-.173.079-.341.166-.507.259l-.027-.073c-1.351-.908-2.944-1.03-4.422-.356-.174.079-.341.166-.507.259l-.027-.073c-1.352-.909-2.944-1.03-4.423-.357-.173.079-.341.166-.507.259l-.027-.073c-1.352-.908-2.944-1.03-4.423-.356-.173.079-.341.166-.507.259l-.027-.073c-1.351-.909-2.944-1.03-4.422-.357-.569.259-1.096.599-1.587.989-.193-.15-.418-.302-.465-.328-.331-.184-.7-.299-1.073-.364-.998-.173-2.049.017-2.969.419-1.804.787-3.292 2.391-4.414 3.961-.794 1.112-1.457 2.308-2.077 3.527h-21.146c.082-.533.211-1.061.377-1.581.433-1.355 1.17-2.7 2.14-3.741 1.402-1.504 3.308-2.419 5.311-2.812 3.867-.756 7.951.356 10.851 3.008-.293-.327-.586-.651-.915-.944-3.151-2.81-8.001-3.655-11.961-2.261-1.951.69-3.639 1.923-4.805 3.64-.771 1.136-1.358 2.531-1.651 3.864-.06.273-.106.55-.14.827h-17.347v.933h17.286c-.025 1.539.357 3.069 1.213 4.379 1.11 1.699 2.829 2.926 4.705 3.657 2.035.784 4.266 1.048 6.431.79 1.667-.199 3.415-.692 4.868-1.556.556-.293 1.077-.641 1.571-1.025.553.527 1.271.824 2.036.876 1.007.068 2.04-.199 2.966-.665.547.501 1.246.786 1.99.836 1.008.067 2.04-.199 2.966-.666.548.501 1.247.787 1.991.836 1.007.068 2.04-.199 2.966-.665.547.501 1.246.786 1.991.836 1.007.067 2.04-.2 2.966-.666.547.501 1.246.787 1.99.836.989.067 2-.191 2.913-.641.203.165.478.353.531.381.331.184.7.299 1.073.363.998.174 2.049-.017 2.969-.419 1.804-.787 3.292-2.391 4.414-3.961.794-1.112 1.457-2.309 2.077-3.527h21.146c-.082.532-.211 1.061-.377 1.581-.433 1.354-1.17 2.7-2.14 3.741-1.402 1.504-3.308 2.419-5.311 2.811-3.867.757-7.951-.356-10.851-3.007.293.327.586.651.915.944 3.151 2.81 8 3.654 11.961 2.26 1.951-.69 3.639-1.922 4.805-3.64.771-1.136 1.358-2.53 1.651-3.863.06-.274.106-.55.14-.827h17.347v-.933zm-41.493-7.741c.287.063.567.158.836.276l.431.215.092.06c-1.194.701-2.194 1.738-3.05 2.804-1.088 1.356-1.968 2.85-2.773 4.385h-3.615c.717-1.487 1.455-2.963 2.394-4.332 1.261-1.839 3.207-3.952 5.685-3.409zm-4.957-.171c.288.063.567.158.837.277l.431.215.091.06c-1.193.701-2.193 1.738-3.05 2.804-1.127 1.404-2.034 2.959-2.863 4.553l-.001.002h-3.606c.743-1.545 1.502-3.081 2.476-4.502 1.261-1.839 3.208-3.952 5.685-3.41zm-4.957-.17c.288.063.567.158.837.276l.431.215.092.061c-1.194.7-2.194 1.738-3.05 2.804-1.128 1.405-2.035 2.959-2.864 4.553l-.09.173h-3.599c.769-1.603 1.548-3.199 2.558-4.673 1.261-1.839 3.207-3.952 5.685-3.409zm-4.956-.171c.287.063.567.158.836.277l.431.215.092.06c-1.193.701-2.194 1.738-3.05 2.804-1.128 1.405-2.035 2.959-2.863 4.553l-.179.344h-3.592c.797-1.66 1.595-3.318 2.641-4.844 1.261-1.839 3.207-3.952 5.685-3.41zm-12.922 6.501c.859-1.776 1.881-3.55 3.492-4.753 1.305-.973 3.242-1.47 4.642-.514-.688.584-1.305 1.26-1.86 1.951-1.127 1.404-2.034 2.959-2.863 4.553l-.268.514h-3.96c.269-.587.537-1.173.817-1.752zm-7.549 9.279c-1.322.927-2.966 1.445-4.549 1.681-2.107.309-4.308.086-6.29-.704-1.88-.75-3.611-2.016-4.625-3.796-.675-1.186-.917-2.477-.855-3.776h20.773l-.666 1.362c-.957 1.955-1.957 3.95-3.788 5.232zm3.441.059c-.423-.039-.84-.15-1.22-.343l-.337-.202c1.029-.83 1.92-1.833 2.662-2.924.683-1.005 1.234-2.086 1.753-3.184h3.907c-.733 1.393-1.488 2.767-2.362 4.085-.492.741-1.052 1.472-1.817 1.95-.756.472-1.696.698-2.584.618zm4.957.17c-.424-.038-.84-.15-1.22-.342l-.247-.142c.53-.291 1.022-.644 1.443-1.041 1.314-1.24 2.124-2.896 2.923-4.489l.398-.808h3.555c-.76 1.451-1.541 2.884-2.451 4.256-.493.741-1.052 1.472-1.818 1.95-.756.472-1.696.698-2.583.618zm4.957.171c-.424-.039-.841-.15-1.221-.343l-.246-.141c.53-.291 1.022-.644 1.443-1.041 1.314-1.24 2.124-2.897 2.923-4.49l.481-.979h3.562c-.789 1.509-1.595 3.001-2.541 4.427-.492.741-1.052 1.472-1.817 1.95-.756.472-1.696.698-2.583.618zm4.956.17c-.423-.039-.84-.15-1.22-.342l-.246-.142c.53-.291 1.022-.644 1.443-1.041 1.315-1.24 2.125-2.897 2.924-4.489.191-.381.378-.765.562-1.15h3.569c-.818 1.567-1.649 3.118-2.63 4.597-.492.741-1.052 1.472-1.817 1.95-.756.472-1.696.698-2.584.618zm4.957.17c-.424-.038-.841-.15-1.22-.342l-.247-.141c.53-.291 1.022-.644 1.443-1.041 1.314-1.241 2.124-2.897 2.923-4.49.22-.438.433-.879.645-1.32h3.575c-.846 1.625-1.702 3.235-2.718 4.767-.493.742-1.052 1.473-1.818 1.95-.756.472-1.696.698-2.583.617zm11.649-5.583c-.859 1.776-1.881 3.55-3.492 4.752-1.308.976-3.251 1.473-4.652.508.524-.289 1.011-.639 1.428-1.032 1.314-1.24 2.124-2.897 2.923-4.489.248-.495.488-.993.727-1.491h3.884c-.269.587-.537 1.173-.817 1.752zm3.095-2.685l.666-1.363c.957-1.954 1.957-3.95 3.788-5.232 1.322-.926 2.966-1.444 4.549-1.681 2.107-.308 4.308-.086 6.29.704 1.881.75 3.611 2.016 4.625 3.796.675 1.185.917 2.477.855 3.776h-20.773z" sketch:type="MSShapeGroup" fill="#C9C9C9"/></svg>