<svg width="21" height="16" viewBox="0 0 21 16" xmlns="http://www.w3.org/2000/svg" xmlns:sketch="http://www.bohemiancoding.com/sketch/ns"><title>github</title><desc>Created with Sketch.</desc><path d="M15.334 0c.272.604.449 1.614.185 2.354 1.08.903 1.452 3.095.928 4.89 1.538.114 3.372-.055 4.553.406-1.105-.139-2.614-.411-4.041-.318-.27.018-.671-.01-.651.363 1.651.129 3.292.265 4.646.68-1.344-.215-2.977-.543-4.646-.59-.689 1.333-2.078 1.99-3.995 2.129.207.438.602.606.697 1.314.144 1.056-.223 2.601.14 3.303.172.337.457.347.651.634-.471.545-1.635-.06-1.768-.634-.227-.981.348-2.503-.278-3.171.045 1.074-.257 2.575.047 3.534.121.375.467.518.371.859-2.183.217-1.269-2.767-1.627-4.526-.328.022-.184.482-.185.676-.008 1.72.36 4.08-1.532 3.849-.058-.361.253-.483.371-.814.345-.967-.066-2.411.093-3.579-.723.535.075 2.399-.371 3.352-.257.549-1.089.788-1.721.545.083-.411.514-.345.698-.726.255-.531.001-1.297.093-2.083-1.339.261-2.374-.036-2.882-.859-.227-.37-.283-.806-.558-1.134-.272-.325-.707-.369-.836-.813 1.656-.39 1.718 1.669 3.206 1.718.457.018.693-.127 1.116-.224.118-.521.37-.906.743-1.179-1.851-.246-3.378-.813-4.09-2.173-1.683.082-3.221.303-4.646.635 1.295-.46 2.89-.626 4.6-.68-.101-.594-.984-.431-1.532-.408-1.02.045-2.305.17-3.115.318 1.176-.411 2.822-.359 4.414-.364-.487-1.494-.319-3.866.744-4.753-.302-.742-.207-1.954.186-2.533 1.185.05 1.903.555 2.649 1.041.923-.257 1.893-.387 3.157-.319.534.03 1.085.264 1.488.226.392-.036.826-.467 1.208-.634.497-.215.917-.297 1.488-.315" sketch:type="MSShapeGroup" fill="#C9C9C9"/></svg>