<svg width="16" height="14" viewBox="0 0 16 14" xmlns="http://www.w3.org/2000/svg" xmlns:sketch="http://www.bohemiancoding.com/sketch/ns"><title>rdio</title><desc>Created with Sketch.</desc><path d="M13.822 5.743c.045.303.068.609.068.923 0 3.683-3.11 6.667-6.946 6.667-3.835 0-6.944-2.984-6.944-6.667 0-3.681 3.109-6.666 6.944-6.666.753 0 1.477.116 2.155.328l.002 4.029s-2.071-1.132-3.92.197c-1.851 1.328-1.501 2.721-1.501 2.721s.086 2.203 2.696 2.203c2.92 0 3.747-2.66 3.747-2.66v-6.078c.563.279 1.086.626 1.589 1.019 1.241.767 2.53 1.263 4.006 1.226 0 0 .282-.061.282.5 0 .305-.109.654-.413.981 0 0-.58.867-1.765 1.277" sketch:type="MSShapeGroup" fill="#C9C9C9"/></svg>