<svg width="16" height="16" viewBox="0 0 16 16" xmlns="http://www.w3.org/2000/svg" xmlns:sketch="http://www.bohemiancoding.com/sketch/ns"><title>rss</title><desc>Created with Sketch.</desc><path d="M3.627 12.367c.388.388.623.913.625 1.497-.002.584-.237 1.111-.624 1.495l-.001.001c-.387.385-.915.62-1.504.62-.586 0-1.112-.236-1.5-.621-.386-.384-.623-.91-.623-1.495 0-.584.237-1.109.623-1.497.388-.385.914-.621 1.5-.621.589 0 1.116.238 1.504.621zm0 0h.001-.001zm-3.004 2.993v-.001.001zm-.621-9.919v3.055c1.995.001 3.881.784 5.293 2.197 1.412 1.412 2.191 3.299 2.194 5.301h.001v.006h3.068c-.002-2.91-1.185-5.546-3.098-7.46-1.912-1.913-4.548-3.098-7.458-3.099zm.005-5.441v3.055c7.131.004 12.926 5.808 12.931 12.945h3.062c-.002-4.41-1.795-8.406-4.692-11.307-2.898-2.896-6.891-4.691-11.301-4.693z" sketch:type="MSShapeGroup" fill="#C9C9C9"/></svg>