<svg width="18" height="15" viewBox="0 0 18 15" xmlns="http://www.w3.org/2000/svg" xmlns:sketch="http://www.bohemiancoding.com/sketch/ns"><title>twitter</title><desc>Created with Sketch.</desc><path d="M12.262 0c-2.007 0-3.633 1.627-3.633 3.634 0 .284.032.562.094.828-3.02-.152-5.697-1.599-7.49-3.797-.313.537-.492 1.161-.492 1.827 0 1.26.642 2.373 1.617 3.024-.596-.019-1.156-.182-1.646-.455l-.001.047c0 1.76 1.253 3.229 2.916 3.563-.306.083-.627.127-.958.127-.234 0-.462-.023-.683-.065.462 1.443 1.803 2.493 3.394 2.523-1.244.975-2.811 1.555-4.513 1.555-.293 0-.582-.017-.867-.05 1.608 1.031 3.518 1.632 5.57 1.632 6.684 0 10.338-5.536 10.338-10.338l-.01-.47c.71-.513 1.326-1.152 1.813-1.881-.652.289-1.352.484-2.087.572.75-.449 1.326-1.162 1.598-2.01-.702.416-1.48.718-2.308.882-.662-.706-1.606-1.148-2.652-1.148" sketch:type="MSShapeGroup" fill="#C9C9C9"/></svg>